999
FreeCAD v1.1 20260725 (Git shallow)
  0
SECTION
  2
HEADER
  9
$ACADVER
  1
AC1014
  9
$ACADMAINTVER
 70
     9
  9
$DWGCODEPAGE
  3
ANSI_1252
  9
$TEXTSTYLE
  7
STANDARD
  9
$DIMSTYLE
  2
STANDARD
  9
$DIMTXSTY
  7
STANDARD
  9
$CMLSTYLE
  2
STANDARD
  9
$LUNITS
 70
2
  9
$INSUNITS
 70
4
  9
$PEXTMAX
 10
50
 20
50
 30
50
  9
$PEXTMIN
 10
0
 20
0
 30
0
  9
$HANDSEED
  5
FFFF
  0
ENDSEC
  0
SECTION
  2
CLASSES
  0
CLASS
  1
ACDBDICTIONARYWDFLT
  2
AcDbDictionaryWithDefault
  3
ObjectDBX Classes
 90
        0
280
     0
281
     0
  0
CLASS
  1
XRECORD
  2
AcDbXrecord
  3
ObjectDBX Classes
 90
        0
280
     0
281
     0
  0
CLASS
  1
LWPOLYLINE
  2
AcDbPolyline
  3
ObjectDBX Classes
 90
        0
280
     0
281
     1
  0
ENDSEC
  0
SECTION
  2
TABLES
  0
TABLE
  2
VPORT
  5
20
330
0
100
AcDbSymbolTable
 70
     1
  0
VPORT
  5
21
330
20
100
AcDbSymbolTableRecord
100
AcDbViewportTableRecord
  2
*ACTIVE
 70
     0
  0
ENDTAB
  0
TABLE
  2
LTYPE
  5
22
330
0
100
AcDbSymbolTable
 70
     1
  0
LTYPE
  5
23
330
21
100
AcDbSymbolTableRecord
100
AcDbLinetypeTableRecord
  2
BYBLOCK
 70
     0
  3

 72
    65
 73
     0
 40
0.0
  0
LTYPE
  5
24
330
21
100
AcDbSymbolTableRecord
100
AcDbLinetypeTableRecord
  2
BYLAYER
 70
     0
  3

 72
    65
 73
     0
 40
0.0
  0
LTYPE
  5
25
330
21
100
AcDbSymbolTableRecord
100
AcDbLinetypeTableRecord
  2
CONTINUOUS
 70
     0
  3
Solid line
 72
    65
 73
     0
 40
0.0
  0
ENDTAB
  0
TABLE
  2
LAYER
  5
AE4
330
0
100
AcDbSymbolTable
 70
12
  0
LAYER
  5
AE5
330
AE4
100
AcDbSymbolTableRecord
100
AcDbLayerTableRecord
  2
0
 70
   0
 62
   7
  6
CONTINUOUS
  0
LAYER
  5
AE6
330
AE4
100
AcDbSymbolTableRecord
100
AcDbLayerTableRecord
  2
S03_FrontWing_Top
 70
    0
 62
    7
  6
CONTINUOUS
  0
LAYER
  5
AE7
330
AE4
100
AcDbSymbolTableRecord
100
AcDbLayerTableRecord
  2
S03_FrontWing_Front
 70
    0
 62
    7
  6
CONTINUOUS
  0
LAYER
  5
AE8
330
AE4
100
AcDbSymbolTableRecord
100
AcDbLayerTableRecord
  2
S03_FrontWing_Side
 70
    0
 62
    7
  6
CONTINUOUS
  0
LAYER
  5
AE9
330
AE4
100
AcDbSymbolTableRecord
100
AcDbLayerTableRecord
  2
S03_FrontWing_SecB
 70
    0
 62
    7
  6
CONTINUOUS
  0
LAYER
  5
AEA
330
AE4
100
AcDbSymbolTableRecord
100
AcDbLayerTableRecord
  2
DimExtent
 70
    0
 62
    7
  6
CONTINUOUS
  0
LAYER
  5
AEB
330
AE4
100
AcDbSymbolTableRecord
100
AcDbLayerTableRecord
  2
DimExtent092
 70
    0
 62
    7
  6
CONTINUOUS
  0
LAYER
  5
AEC
330
AE4
100
AcDbSymbolTableRecord
100
AcDbLayerTableRecord
  2
DimExtent093
 70
    0
 62
    7
  6
CONTINUOUS
  0
LAYER
  5
AED
330
AE4
100
AcDbSymbolTableRecord
100
AcDbLayerTableRecord
  2
DimExtent094
 70
    0
 62
    7
  6
CONTINUOUS
  0
LAYER
  5
AEE
330
AE4
100
AcDbSymbolTableRecord
100
AcDbLayerTableRecord
  2
DimExtent095
 70
    0
 62
    7
  6
CONTINUOUS
  0
LAYER
  5
AEF
330
AE4
100
AcDbSymbolTableRecord
100
AcDbLayerTableRecord
  2
DimExtent096
 70
    0
 62
    7
  6
CONTINUOUS
  0
LAYER
  5
AF0
330
AE4
100
AcDbSymbolTableRecord
100
AcDbLayerTableRecord
  2
S03_FrontWing_Tab
 70
    0
 62
    7
  6
CONTINUOUS
  0
ENDTAB
  0
TABLE
  2
STYLE
  5
70
330
0
100
AcDbSymbolTable
 70
     2
  0
STYLE
  5
71
330
70
100
AcDbSymbolTableRecord
100
AcDbTextStyleTableRecord
  2
STANDARD
 70
     0
 40
0.0
 41
1.0
 50
0.0
 71
     0
 42
2.5
  3
arial.ttf
  4

  0
STYLE
  5
72
330
70
100
AcDbSymbolTableRecord
100
AcDbTextStyleTableRecord
  2
ANNOTATIVE
 70
     0
 40
0.0
 41
1.0
 50
0.0
 71
     0
 42
2.5
  3
arial.ttf
  4

  0
ENDTAB
  0
TABLE
  2
VIEW
  5
73
330
0
100
AcDbSymbolTable
 70
     0
  0
ENDTAB
  0
TABLE
  2
UCS
  5
74
330
0
100
AcDbSymbolTable
 70
     0
  0
ENDTAB
  0
TABLE
  2
APPID
  5
75
330
0
100
AcDbSymbolTable
 70
     2
  0
APPID
  5
76
330
75
100
AcDbSymbolTableRecord
100
AcDbRegAppTableRecord
  2
ACAD
 70
     0
  0
APPID
  5
77
330
75
100
AcDbSymbolTableRecord
100
AcDbRegAppTableRecord
  2
ACADANNOTATIVE
 70
     0
  0
ENDTAB
  0
TABLE
  2
DIMSTYLE
  5
78
330
0
100
AcDbSymbolTable
 70
     2
  0
DIMSTYLE
105
79
330
78
100
AcDbSymbolTableRecord
100
AcDbDimStyleTableRecord
  2
STANDARD
 70
     0
  3

  4

  5

  6

  7

 40
0.0
 41
2.5
 42
0.625
 43
3.75
 44
1.25
 45
0.0
 46
0.0
 47
0.0
 48
0.0
140
2.5
141
2.5
142
0.0
143
0.03937007874016
144
1.0
145
0.0
146
1.0
147
0.625
 71
     0
 72
     0
 73
     0
 74
     0
 75
     0
 76
     0
 77
     1
 78
     8
170
     0
171
     3
172
     1
173
     0
174
     0
175
     0
176
     0
177
     0
178
     0
270
     2
271
     2
272
     2
273
     2
274
     3
340
71
275
     0
280
     0
281
     0
282
     0
283
     0
284
     8
285
     0
286
     0
287
     3
288
     0
  0
ENDTAB
  0
TABLE
  2
BLOCK_RECORD
  5
A01
330
0
100
AcDbSymbolTable
  70
5
  0
BLOCK_RECORD
  5
A02
330
A01
100
AcDbSymbolTableRecord
100
AcDbBlockTableRecord
  2
*MODEL_SPACE
  0
BLOCK_RECORD
  5
A03
330
A01
100
AcDbSymbolTableRecord
100
AcDbBlockTableRecord
  2
*PAPER_SPACE
  0
BLOCK_RECORD
  5
AA8
330
A01
100
AcDbSymbolTableRecord
100
AcDbBlockTableRecord
  2
*DimExtent
  0
BLOCK_RECORD
  5
AB2
330
A01
100
AcDbSymbolTableRecord
100
AcDbBlockTableRecord
  2
*DimExtent092
  0
BLOCK_RECORD
  5
ABC
330
A01
100
AcDbSymbolTableRecord
100
AcDbBlockTableRecord
  2
*DimExtent093
  0
BLOCK_RECORD
  5
AC6
330
A01
100
AcDbSymbolTableRecord
100
AcDbBlockTableRecord
  2
*DimExtent094
  0
BLOCK_RECORD
  5
AD0
330
A01
100
AcDbSymbolTableRecord
100
AcDbBlockTableRecord
  2
*DimExtent095
  0
BLOCK_RECORD
  5
ADA
330
A01
100
AcDbSymbolTableRecord
100
AcDbBlockTableRecord
  2
*DimExtent096
  0
ENDTAB
  0
ENDSEC
  0
SECTION
  2
BLOCKS
  0
BLOCK
  5
A04
330
A02
100
AcDbEntity
  8
0
100
AcDbBlockBegin
  2
*MODEL_SPACE
 70
   0
 10
0
 20
0
 30
0
  3
*MODEL_SPACE
  1
 
  0
ENDBLK
  5
A05
330
A02
100
AcDbEntity
  8
0
100
AcDbBlockEnd
  0
BLOCK
  5
A06
330
A03
100
AcDbEntity
 67
1
  8
0
100
AcDbBlockBegin
  2
*PAPER_SPACE
 70
   0
 10
0
 20
0
 30
0
  3
*PAPER_SPACE
  1
 
  0
ENDBLK
  5
A07
330
A03
100
AcDbEntity
 67
    1
  8
0
100
AcDbBlockEnd
  0
BLOCK
  5
AA9
330
AA8
100
AcDbEntity
  8
DimExtent
100
AcDbBlockBegin
  2
*DimExtent
 70
   1
 10
0
 20
0
 30
0
  3
*DimExtent
  1
 
  0
LINE
  5
AAA
330
AA8
100
AcDbEntity
  8
DimExtent
100
AcDbLine
 10
240
 20
199.75
 30
0
 11
240
 21
254.25
 31
0
  0
LINE
  5
AAB
330
AA8
100
AcDbEntity
  8
DimExtent
100
AcDbLine
 10
40
 20
199.75
 30
0
 11
40
 21
254.25
 31
0
  0
LINE
  5
AAC
330
AA8
100
AcDbEntity
  8
DimExtent
100
AcDbLine
 10
40
 20
254.25
 30
0
 11
240
 21
254.25
 31
0
  0
TEXT
  5
AAD
330
AA8
100
AcDbEntity
  8
DimExtent
100
AcDbText
 10
140
 20
259.25
 30
0
 40
3.5
  1
2000
  7
STANDARD
 72
1
 11
140
 21
254.25
 31
0
100
AcDbText
  0
SOLID
  5
AAE
330
AA8
100
AcDbEntity
  8
0
 62
     0
100
AcDbTrace
 10
35
 20
254.667
 30
0
 11
35
 21
253.833
 31
0
 12
40
 22
254.25
 32
0
 13
40
 23
254.25
 33
0
  0
SOLID
  5
AAF
330
AA8
100
AcDbEntity
  8
0
 62
     0
100
AcDbTrace
 10
245
 20
254.667
 30
0
 11
245
 21
253.833
 31
0
 12
240
 22
254.25
 32
0
 13
240
 23
254.25
 33
0
  0
ENDBLK
  5
AB0
330
AA8
100
AcDbEntity
  8
DimExtent
100
AcDbBlockEnd
  0
BLOCK
  5
AB3
330
AB2
100
AcDbEntity
  8
DimExtent092
100
AcDbBlockBegin
  2
*DimExtent092
 70
   1
 10
0
 20
0
 30
0
  3
*DimExtent092
  1
 
  0
LINE
  5
AB4
330
AB2
100
AcDbEntity
  8
DimExtent092
100
AcDbLine
 10
41
 20
197.75
 30
0
 11
38
 21
197.75
 31
0
  0
LINE
  5
AB5
330
AB2
100
AcDbEntity
  8
DimExtent092
100
AcDbLine
 10
41
 20
252.25
 30
0
 11
38
 21
252.25
 31
0
  0
LINE
  5
AB6
330
AB2
100
AcDbEntity
  8
DimExtent092
100
AcDbLine
 10
38
 20
252.25
 30
0
 11
38
 21
197.75
 31
0
  0
TEXT
  5
AB7
330
AB2
100
AcDbEntity
  8
DimExtent092
100
AcDbText
 10
33
 20
225
 30
0
 40
3.5
  1
545
  7
STANDARD
 72
1
 11
38
 21
225
 31
0
100
AcDbText
  0
SOLID
  5
AB8
330
AB2
100
AcDbEntity
  8
0
 62
     0
100
AcDbTrace
 10
37.5833
 20
257.25
 30
0
 11
38.4167
 21
257.25
 31
0
 12
38
 22
252.25
 32
0
 13
38
 23
252.25
 33
0
  0
SOLID
  5
AB9
330
AB2
100
AcDbEntity
  8
0
 62
     0
100
AcDbTrace
 10
37.5833
 20
192.75
 30
0
 11
38.4167
 21
192.75
 31
0
 12
38
 22
197.75
 32
0
 13
38
 23
197.75
 33
0
  0
ENDBLK
  5
ABA
330
AB2
100
AcDbEntity
  8
DimExtent092
100
AcDbBlockEnd
  0
BLOCK
  5
ABD
330
ABC
100
AcDbEntity
  8
DimExtent093
100
AcDbBlockBegin
  2
*DimExtent093
 70
   1
 10
0
 20
0
 30
0
  3
*DimExtent093
  1
 
  0
LINE
  5
ABE
330
ABC
100
AcDbEntity
  8
DimExtent093
100
AcDbLine
 10
41
 20
132.102
 30
0
 11
33.8916
 21
132.102
 31
0
  0
LINE
  5
ABF
330
ABC
100
AcDbEntity
  8
DimExtent093
100
AcDbLine
 10
238.5
 20
167.896
 30
0
 11
33.8916
 21
167.896
 31
0
  0
LINE
  5
AC0
330
ABC
100
AcDbEntity
  8
DimExtent093
100
AcDbLine
 10
33.8916
 20
167.896
 30
0
 11
33.8916
 21
132.102
 31
0
  0
TEXT
  5
AC1
330
ABC
100
AcDbEntity
  8
DimExtent093
100
AcDbText
 10
33
 20
149.925
 30
0
 40
3.5
  1
358
  7
STANDARD
 72
1
 11
33.8916
 21
154.845
 31
0
100
AcDbText
  0
SOLID
  5
AC2
330
ABC
100
AcDbEntity
  8
0
 62
     0
100
AcDbTrace
 10
33.475
 20
172.896
 30
0
 11
34.3083
 21
172.896
 31
0
 12
33.8916
 22
167.896
 32
0
 13
33.8916
 23
167.896
 33
0
  0
SOLID
  5
AC3
330
ABC
100
AcDbEntity
  8
0
 62
     0
100
AcDbTrace
 10
33.475
 20
127.102
 30
0
 11
34.3083
 21
127.102
 31
0
 12
33.8916
 22
132.102
 32
0
 13
33.8916
 23
132.102
 33
0
  0
ENDBLK
  5
AC4
330
ABC
100
AcDbEntity
  8
DimExtent093
100
AcDbBlockEnd
  0
BLOCK
  5
AC7
330
AC6
100
AcDbEntity
  8
DimExtent094
100
AcDbBlockBegin
  2
*DimExtent094
 70
   1
 10
0
 20
0
 30
0
  3
*DimExtent094
  1
 
  0
LINE
  5
AC8
330
AC6
100
AcDbEntity
  8
DimExtent094
100
AcDbLine
 10
384.5
 20
208.203
 30
0
 11
384.5
 21
262.718
 31
0
  0
LINE
  5
AC9
330
AC6
100
AcDbEntity
  8
DimExtent094
100
AcDbLine
 10
275.5
 20
189.203
 30
0
 11
275.5
 21
262.718
 31
0
  0
LINE
  5
ACA
330
AC6
100
AcDbEntity
  8
DimExtent094
100
AcDbLine
 10
275.5
 20
262.718
 30
0
 11
384.5
 21
262.718
 31
0
  0
TEXT
  5
ACB
330
AC6
100
AcDbEntity
  8
DimExtent094
100
AcDbText
 10
330
 20
267.643
 30
0
 40
3.5
  1
545
  7
STANDARD
 72
1
 11
329.141
 21
262.718
 31
0
100
AcDbText
  0
SOLID
  5
ACC
330
AC6
100
AcDbEntity
  8
0
 62
     0
100
AcDbTrace
 10
270.5
 20
263.134
 30
0
 11
270.5
 21
262.301
 31
0
 12
275.5
 22
262.718
 32
0
 13
275.5
 23
262.718
 33
0
  0
SOLID
  5
ACD
330
AC6
100
AcDbEntity
  8
0
 62
     0
100
AcDbTrace
 10
389.5
 20
263.134
 30
0
 11
389.5
 21
262.301
 31
0
 12
384.5
 22
262.718
 32
0
 13
384.5
 23
262.718
 33
0
  0
ENDBLK
  5
ACE
330
AC6
100
AcDbEntity
  8
DimExtent094
100
AcDbBlockEnd
  0
BLOCK
  5
AD1
330
AD0
100
AcDbEntity
  8
DimExtent095
100
AcDbBlockBegin
  2
*DimExtent095
 70
   1
 10
0
 20
0
 30
0
  3
*DimExtent095
  1
 
  0
LINE
  5
AD2
330
AD0
100
AcDbEntity
  8
DimExtent095
100
AcDbLine
 10
279.5
 20
189.203
 30
0
 11
271.447
 21
189.203
 31
0
  0
LINE
  5
AD3
330
AD0
100
AcDbEntity
  8
DimExtent095
100
AcDbLine
 10
377.606
 20
260.791
 30
0
 11
271.447
 21
260.791
 31
0
  0
LINE
  5
AD4
330
AD0
100
AcDbEntity
  8
DimExtent095
100
AcDbLine
 10
271.447
 20
260.791
 30
0
 11
271.447
 21
189.203
 31
0
  0
TEXT
  5
AD5
330
AD0
100
AcDbEntity
  8
DimExtent095
100
AcDbText
 10
268.5
 20
224.85
 30
0
 40
3.5
  1
358
  7
STANDARD
 72
1
 11
271.447
 21
228.889
 31
0
100
AcDbText
  0
SOLID
  5
AD6
330
AD0
100
AcDbEntity
  8
0
 62
     0
100
AcDbTrace
 10
271.031
 20
265.791
 30
0
 11
271.864
 21
265.791
 31
0
 12
271.447
 22
260.791
 32
0
 13
271.447
 23
260.791
 33
0
  0
SOLID
  5
AD7
330
AD0
100
AcDbEntity
  8
0
 62
     0
100
AcDbTrace
 10
271.031
 20
184.203
 30
0
 11
271.864
 21
184.203
 31
0
 12
271.447
 22
189.203
 32
0
 13
271.447
 23
189.203
 33
0
  0
ENDBLK
  5
AD8
330
AD0
100
AcDbEntity
  8
DimExtent095
100
AcDbBlockEnd
  0
BLOCK
  5
ADB
330
ADA
100
AcDbEntity
  8
DimExtent096
100
AcDbBlockBegin
  2
*DimExtent096
 70
   1
 10
0
 20
0
 30
0
  3
*DimExtent096
  1
 
  0
LINE
  5
ADC
330
ADA
100
AcDbEntity
  8
DimExtent096
100
AcDbLine
 10
279.5
 20
104.203
 30
0
 11
276.92
 21
104.203
 31
0
  0
LINE
  5
ADD
330
ADA
100
AcDbEntity
  8
DimExtent096
100
AcDbLine
 10
377.606
 20
175.791
 30
0
 11
276.92
 21
175.791
 31
0
  0
LINE
  5
ADE
330
ADA
100
AcDbEntity
  8
DimExtent096
100
AcDbLine
 10
276.92
 20
175.791
 30
0
 11
276.92
 21
104.203
 31
0
  0
TEXT
  5
ADF
330
ADA
100
AcDbEntity
  8
DimExtent096
100
AcDbText
 10
273.973
 20
140.03
 30
0
 40
3.5
  1
358
  7
STANDARD
 72
1
 11
276.92
 21
144.069
 31
0
100
AcDbText
  0
SOLID
  5
AE0
330
ADA
100
AcDbEntity
  8
0
 62
     0
100
AcDbTrace
 10
276.504
 20
180.791
 30
0
 11
277.337
 21
180.791
 31
0
 12
276.92
 22
175.791
 32
0
 13
276.92
 23
175.791
 33
0
  0
SOLID
  5
AE1
330
ADA
100
AcDbEntity
  8
0
 62
     0
100
AcDbTrace
 10
276.504
 20
99.2034
 30
0
 11
277.337
 21
99.2034
 31
0
 12
276.92
 22
104.203
 32
0
 13
276.92
 23
104.203
 33
0
  0
ENDBLK
  5
AE2
330
ADA
100
AcDbEntity
  8
DimExtent096
100
AcDbBlockEnd
  0
ENDSEC
  0
SECTION
  2
ENTITIES
  0
SPLINE
  5
A08
330
A02
100
AcDbEntity
  8
S03_FrontWing_Top
100
AcDbSpline
210
0
220
0
230
1
 70
8
 71
3
 72
26
 73
22
 74
0
 40
0.507288422
 40
0.507288422
 40
0.507288422
 40
0.507288422
 40
0.512722871
 40
0.512722871
 40
0.512722871
 40
0.518969229
 40
0.518969229
 40
0.518969229
 40
0.527575212
 40
0.527575212
 40
0.527575212
 40
0.552329641
 40
0.552329641
 40
0.552329641
 40
0.606497895
 40
0.606497895
 40
0.606497895
 40
0.701480410
 40
0.701480410
 40
0.701480410
 40
0.894332014
 40
0.894332014
 40
0.894332014
 40
0.894332014
 10
238.500000000
 20
202.247246571
 30
0.000000000
 10
238.500000000
 20
202.246293524
 30
0.000000000
 10
238.500000000
 20
202.295967767
 30
0.000000000
 10
238.500000000
 20
202.361035377
 30
0.000000000
 10
238.500000000
 20
202.438446687
 30
0.000000000
 10
238.500000000
 20
202.527209293
 30
0.000000000
 10
238.500000000
 20
202.627323196
 30
0.000000000
 10
238.500000000
 20
202.762077426
 30
0.000000000
 10
238.500000000
 20
202.900706952
 30
0.000000000
 10
238.500000000
 20
203.043211774
 30
0.000000000
 10
238.500000000
 20
203.454430034
 30
0.000000000
 10
238.500000000
 20
203.870861273
 30
0.000000000
 10
238.500000000
 20
204.292505491
 30
0.000000000
 10
238.500000000
 20
205.213115059
 30
0.000000000
 10
238.500000000
 20
206.135446266
 30
0.000000000
 10
238.500000000
 20
207.059499110
 30
0.000000000
 10
238.500000000
 20
208.679258986
 30
0.000000000
 10
238.500000000
 20
210.297852802
 30
0.000000000
 10
238.500000000
 20
211.915280555
 30
0.000000000
 10
238.500000000
 20
215.199006145
 30
0.000000000
 10
238.500000000
 20
218.476654046
 30
0.000000000
 10
238.500000000
 20
221.748224260
 30
0.000000000
  0
SPLINE
  5
A09
330
A02
100
AcDbEntity
  8
S03_FrontWing_Top
100
AcDbSpline
210
0
220
0
230
1
 70
8
 71
3
 72
26
 73
22
 74
0
 40
0.507288422
 40
0.507288422
 40
0.507288422
 40
0.507288422
 40
0.512722871
 40
0.512722871
 40
0.512722871
 40
0.518969229
 40
0.518969229
 40
0.518969229
 40
0.527575212
 40
0.527575212
 40
0.527575212
 40
0.552329641
 40
0.552329641
 40
0.552329641
 40
0.606497895
 40
0.606497895
 40
0.606497895
 40
0.701480410
 40
0.701480410
 40
0.701480410
 40
0.894332014
 40
0.894332014
 40
0.894332014
 40
0.894332014
 10
41.500000000
 20
202.247246571
 30
0.000000000
 10
41.500000000
 20
202.246293524
 30
0.000000000
 10
41.500000000
 20
202.295967767
 30
0.000000000
 10
41.500000000
 20
202.361035377
 30
0.000000000
 10
41.500000000
 20
202.438446687
 30
0.000000000
 10
41.500000000
 20
202.527209293
 30
0.000000000
 10
41.500000000
 20
202.627323196
 30
0.000000000
 10
41.500000000
 20
202.762077426
 30
0.000000000
 10
41.500000000
 20
202.900706952
 30
0.000000000
 10
41.500000000
 20
203.043211774
 30
0.000000000
 10
41.500000000
 20
203.454430034
 30
0.000000000
 10
41.500000000
 20
203.870861273
 30
0.000000000
 10
41.500000000
 20
204.292505491
 30
0.000000000
 10
41.500000000
 20
205.213115059
 30
0.000000000
 10
41.500000000
 20
206.135446266
 30
0.000000000
 10
41.500000000
 20
207.059499110
 30
0.000000000
 10
41.500000000
 20
208.679258986
 30
0.000000000
 10
41.500000000
 20
210.297852802
 30
0.000000000
 10
41.500000000
 20
211.915280555
 30
0.000000000
 10
41.500000000
 20
215.199006145
 30
0.000000000
 10
41.500000000
 20
218.476654046
 30
0.000000000
 10
41.500000000
 20
221.748224260
 30
0.000000000
  0
SPLINE
  5
A0A
330
A02
100
AcDbEntity
  8
S03_FrontWing_Top
100
AcDbSpline
210
0
220
0
230
1
 70
8
 71
3
 72
29
 73
25
 74
0
 40
0.162143770
 40
0.162143770
 40
0.162143770
 40
0.162143770
 40
0.248621079
 40
0.248621079
 40
0.248621079
 40
0.331139030
 40
0.331139030
 40
0.331139030
 40
0.426809779
 40
0.426809779
 40
0.426809779
 40
0.462710472
 40
0.462710472
 40
0.462710472
 40
0.488357785
 40
0.488357785
 40
0.488357785
 40
0.497135370
 40
0.497135370
 40
0.497135370
 40
0.503435361
 40
0.503435361
 40
0.503435361
 40
0.508876114
 40
0.508876114
 40
0.508876114
 40
0.508876114
 10
238.500000000
 20
232.242319350
 30
0.000000000
 10
238.500000000
 20
231.435475097
 30
0.000000000
 10
238.500000000
 20
230.611073005
 30
0.000000000
 10
238.500000000
 20
229.769113075
 30
0.000000000
 10
238.500000000
 20
228.964693921
 30
0.000000000
 10
238.500000000
 20
228.149028593
 30
0.000000000
 10
238.500000000
 20
227.304266504
 30
0.000000000
 10
238.500000000
 20
226.323539132
 30
0.000000000
 10
238.500000000
 20
225.314405912
 30
0.000000000
 10
238.500000000
 20
224.276866844
 30
0.000000000
 10
238.500000000
 20
223.888019656
 30
0.000000000
 10
238.500000000
 20
223.497316871
 30
0.000000000
 10
238.500000000
 20
223.104758490
 30
0.000000000
 10
238.500000000
 20
222.823548915
 30
0.000000000
 10
238.500000000
 20
222.545106676
 30
0.000000000
 10
238.500000000
 20
222.269431771
 30
0.000000000
 10
238.500000000
 20
222.175447933
 30
0.000000000
 10
238.500000000
 20
222.083981435
 30
0.000000000
 10
238.500000000
 20
221.995032279
 30
0.000000000
 10
238.500000000
 20
221.929627871
 30
0.000000000
 10
238.500000000
 20
221.871751521
 30
0.000000000
 10
238.500000000
 20
221.821403229
 30
0.000000000
 10
238.500000000
 20
221.779447321
 30
0.000000000
 10
238.500000000
 20
221.747607022
 30
0.000000000
 10
238.500000000
 20
221.748224260
 30
0.000000000
  0
SPLINE
  5
A0B
330
A02
100
AcDbEntity
  8
S03_FrontWing_Top
100
AcDbSpline
210
0
220
0
230
1
 70
8
 71
3
 72
26
 73
22
 74
0
 40
0.508876114
 40
0.508876114
 40
0.508876114
 40
0.508876114
 40
0.518969229
 40
0.518969229
 40
0.518969229
 40
0.527575212
 40
0.527575212
 40
0.527575212
 40
0.552329641
 40
0.552329641
 40
0.552329641
 40
0.586423404
 40
0.586423404
 40
0.586423404
 40
0.676034133
 40
0.676034133
 40
0.676034133
 40
0.755025134
 40
0.755025134
 40
0.755025134
 40
0.856103003
 40
0.856103003
 40
0.856103003
 40
0.856103003
 10
238.500000000
 20
221.748224260
 30
0.000000000
 10
238.500000000
 20
221.750918690
 30
0.000000000
 10
238.500000000
 20
221.831386890
 30
0.000000000
 10
238.500000000
 20
221.913890656
 30
0.000000000
 10
238.500000000
 20
221.986185769
 30
0.000000000
 10
238.500000000
 20
222.062953311
 30
0.000000000
 10
238.500000000
 20
222.144193283
 30
0.000000000
 10
238.500000000
 20
222.379683322
 30
0.000000000
 10
238.500000000
 20
222.623868746
 30
0.000000000
 10
238.500000000
 20
222.876749554
 30
0.000000000
 10
238.500000000
 20
223.223277671
 30
0.000000000
 10
238.500000000
 20
223.573269648
 30
0.000000000
 10
238.500000000
 20
223.926725485
 30
0.000000000
 10
238.500000000
 20
224.857087129
 30
0.000000000
 10
238.500000000
 20
225.786338617
 30
0.000000000
 10
238.500000000
 20
226.714479948
 30
0.000000000
 10
238.500000000
 20
227.528917234
 30
0.000000000
 10
238.500000000
 20
228.340273907
 30
0.000000000
 10
238.500000000
 20
229.148549966
 30
0.000000000
 10
238.500000000
 20
230.184732396
 30
0.000000000
 10
238.500000000
 20
231.215988857
 30
0.000000000
 10
238.500000000
 20
232.242319350
 30
0.000000000
  0
SPLINE
  5
A0C
330
A02
100
AcDbEntity
  8
S03_FrontWing_Top
100
AcDbSpline
210
0
220
0
230
1
 70
8
 71
3
 72
29
 73
25
 74
0
 40
0.162143770
 40
0.162143770
 40
0.162143770
 40
0.162143770
 40
0.248621079
 40
0.248621079
 40
0.248621079
 40
0.331139030
 40
0.331139030
 40
0.331139030
 40
0.426809779
 40
0.426809779
 40
0.426809779
 40
0.462710472
 40
0.462710472
 40
0.462710472
 40
0.488357785
 40
0.488357785
 40
0.488357785
 40
0.497135370
 40
0.497135370
 40
0.497135370
 40
0.503435361
 40
0.503435361
 40
0.503435361
 40
0.508876114
 40
0.508876114
 40
0.508876114
 40
0.508876114
 10
41.500000000
 20
232.242319350
 30
0.000000000
 10
41.500000000
 20
231.435475097
 30
0.000000000
 10
41.500000000
 20
230.611073005
 30
0.000000000
 10
41.500000000
 20
229.769113075
 30
0.000000000
 10
41.500000000
 20
228.964693921
 30
0.000000000
 10
41.500000000
 20
228.149028593
 30
0.000000000
 10
41.500000000
 20
227.304266504
 30
0.000000000
 10
41.500000000
 20
226.323539132
 30
0.000000000
 10
41.500000000
 20
225.314405912
 30
0.000000000
 10
41.500000000
 20
224.276866844
 30
0.000000000
 10
41.500000000
 20
223.888019656
 30
0.000000000
 10
41.500000000
 20
223.497316871
 30
0.000000000
 10
41.500000000
 20
223.104758490
 30
0.000000000
 10
41.500000000
 20
222.823548915
 30
0.000000000
 10
41.500000000
 20
222.545106676
 30
0.000000000
 10
41.500000000
 20
222.269431771
 30
0.000000000
 10
41.500000000
 20
222.175447933
 30
0.000000000
 10
41.500000000
 20
222.083981435
 30
0.000000000
 10
41.500000000
 20
221.995032279
 30
0.000000000
 10
41.500000000
 20
221.929627871
 30
0.000000000
 10
41.500000000
 20
221.871751521
 30
0.000000000
 10
41.500000000
 20
221.821403229
 30
0.000000000
 10
41.500000000
 20
221.779447321
 30
0.000000000
 10
41.500000000
 20
221.747607022
 30
0.000000000
 10
41.500000000
 20
221.748224260
 30
0.000000000
  0
SPLINE
  5
A0D
330
A02
100
AcDbEntity
  8
S03_FrontWing_Top
100
AcDbSpline
210
0
220
0
230
1
 70
8
 71
3
 72
26
 73
22
 74
0
 40
0.508876114
 40
0.508876114
 40
0.508876114
 40
0.508876114
 40
0.518969229
 40
0.518969229
 40
0.518969229
 40
0.527575212
 40
0.527575212
 40
0.527575212
 40
0.552329641
 40
0.552329641
 40
0.552329641
 40
0.586423404
 40
0.586423404
 40
0.586423404
 40
0.676034133
 40
0.676034133
 40
0.676034133
 40
0.755025134
 40
0.755025134
 40
0.755025134
 40
0.856103003
 40
0.856103003
 40
0.856103003
 40
0.856103003
 10
41.500000000
 20
221.748224260
 30
0.000000000
 10
41.500000000
 20
221.750918690
 30
0.000000000
 10
41.500000000
 20
221.831386890
 30
0.000000000
 10
41.500000000
 20
221.913890656
 30
0.000000000
 10
41.500000000
 20
221.986185769
 30
0.000000000
 10
41.500000000
 20
222.062953311
 30
0.000000000
 10
41.500000000
 20
222.144193283
 30
0.000000000
 10
41.500000000
 20
222.379683322
 30
0.000000000
 10
41.500000000
 20
222.623868746
 30
0.000000000
 10
41.500000000
 20
222.876749554
 30
0.000000000
 10
41.500000000
 20
223.223277671
 30
0.000000000
 10
41.500000000
 20
223.573269648
 30
0.000000000
 10
41.500000000
 20
223.926725485
 30
0.000000000
 10
41.500000000
 20
224.857087129
 30
0.000000000
 10
41.500000000
 20
225.786338617
 30
0.000000000
 10
41.500000000
 20
226.714479948
 30
0.000000000
 10
41.500000000
 20
227.528917234
 30
0.000000000
 10
41.500000000
 20
228.340273907
 30
0.000000000
 10
41.500000000
 20
229.148549966
 30
0.000000000
 10
41.500000000
 20
230.184732396
 30
0.000000000
 10
41.500000000
 20
231.215988857
 30
0.000000000
 10
41.500000000
 20
232.242319350
 30
0.000000000
  0
SPLINE
  5
A0E
330
A02
100
AcDbEntity
  8
S03_FrontWing_Top
100
AcDbSpline
210
0
220
0
230
1
 70
8
 71
3
 72
26
 73
22
 74
0
 40
0.111118678
 40
0.111118678
 40
0.111118678
 40
0.111118678
 40
0.303912933
 40
0.303912933
 40
0.303912933
 40
0.405481639
 40
0.405481639
 40
0.405481639
 40
0.462710472
 40
0.462710472
 40
0.462710472
 40
0.488357785
 40
0.488357785
 40
0.488357785
 40
0.497135370
 40
0.497135370
 40
0.497135370
 40
0.503435361
 40
0.503435361
 40
0.503435361
 40
0.510034349
 40
0.510034349
 40
0.510034349
 40
0.510034349
 10
238.500000000
 20
241.231468426
 30
0.000000000
 10
238.500000000
 20
239.993371983
 30
0.000000000
 10
238.500000000
 20
238.668969860
 30
0.000000000
 10
238.500000000
 20
237.244515130
 30
0.000000000
 10
238.500000000
 20
236.491191082
 30
0.000000000
 10
238.500000000
 20
235.693976118
 30
0.000000000
 10
238.500000000
 20
234.852870238
 30
0.000000000
 10
238.500000000
 20
234.379158503
 30
0.000000000
 10
238.500000000
 20
233.892078985
 30
0.000000000
 10
238.500000000
 20
233.391631683
 30
0.000000000
 10
238.500000000
 20
233.167049359
 30
0.000000000
 10
238.500000000
 20
232.940638575
 30
0.000000000
 10
238.500000000
 20
232.712399331
 30
0.000000000
 10
238.500000000
 20
232.635180962
 30
0.000000000
 10
238.500000000
 20
232.557962594
 30
0.000000000
 10
238.500000000
 20
232.480744225
 30
0.000000000
 10
238.500000000
 20
232.424817452
 30
0.000000000
 10
238.500000000
 20
232.373265009
 30
0.000000000
 10
238.500000000
 20
232.326086896
 30
0.000000000
 10
238.500000000
 20
232.277191481
 30
0.000000000
 10
238.500000000
 20
232.240278748
 30
0.000000000
 10
238.500000000
 20
232.242319350
 30
0.000000000
  0
SPLINE
  5
A0F
330
A02
100
AcDbEntity
  8
S03_FrontWing_Top
100
AcDbSpline
210
0
220
0
230
1
 70
8
 71
3
 72
23
 73
19
 74
0
 40
0.510034349
 40
0.510034349
 40
0.510034349
 40
0.510034349
 40
0.518969229
 40
0.518969229
 40
0.518969229
 40
0.527575212
 40
0.527575212
 40
0.527575212
 40
0.552329641
 40
0.552329641
 40
0.552329641
 40
0.606497895
 40
0.606497895
 40
0.606497895
 40
0.701480410
 40
0.701480410
 40
0.701480410
 40
0.908144520
 40
0.908144520
 40
0.908144520
 40
0.908144520
 10
238.500000000
 20
232.242319350
 30
0.000000000
 10
238.500000000
 20
232.243208782
 30
0.000000000
 10
238.500000000
 20
232.287983126
 30
0.000000000
 10
238.500000000
 20
232.338169606
 30
0.000000000
 10
238.500000000
 20
232.387444185
 30
0.000000000
 10
238.500000000
 20
232.441228482
 30
0.000000000
 10
238.500000000
 20
232.499522496
 30
0.000000000
 10
238.500000000
 20
232.666305248
 30
0.000000000
 10
238.500000000
 20
232.851026096
 30
0.000000000
 10
238.500000000
 20
233.036865592
 30
0.000000000
 10
238.500000000
 20
233.448576094
 30
0.000000000
 10
238.500000000
 20
233.867575379
 30
0.000000000
 10
238.500000000
 20
234.293863447
 30
0.000000000
 10
238.500000000
 20
235.040724208
 30
0.000000000
 10
238.500000000
 20
235.781186164
 30
0.000000000
 10
238.500000000
 20
236.515249315
 30
0.000000000
 10
238.500000000
 20
238.104761668
 30
0.000000000
 10
238.500000000
 20
239.687250963
 30
0.000000000
 10
238.500000000
 20
241.231468426
 30
0.000000000
  0
SPLINE
  5
A10
330
A02
100
AcDbEntity
  8
S03_FrontWing_Top
100
AcDbSpline
210
0
220
0
230
1
 70
8
 71
3
 72
17
 73
13
 74
0
 40
0.361413247
 40
0.361413247
 40
0.361413247
 40
0.361413247
 40
0.398892018
 40
0.398892018
 40
0.398892018
 40
0.500000000
 40
0.500000000
 40
0.500000000
 40
0.601107982
 40
0.601107982
 40
0.601107982
 40
0.638863003
 40
0.638863003
 40
0.638863003
 40
0.638863003
 10
167.404486515
 20
239.464229380
 30
0.000000000
 10
164.937412696
 20
239.322896236
 30
0.000000000
 10
162.469250524
 20
239.162586195
 30
0.000000000
 10
160.000000000
 20
238.983299255
 30
0.000000000
 10
153.338605385
 20
238.495795072
 30
0.000000000
 10
146.669302693
 20
237.839146417
 30
0.000000000
 10
140.000000000
 20
237.839146417
 30
0.000000000
 10
133.330697307
 20
237.839146417
 30
0.000000000
 10
126.661394615
 20
238.495795072
 30
0.000000000
 10
120.000000000
 20
238.983299255
 30
0.000000000
 10
117.512548969
 20
239.163886507
 30
0.000000000
 10
115.026202407
 20
239.325247974
 30
0.000000000
 10
112.540960314
 20
239.467383656
 30
0.000000000
  0
SPLINE
  5
A11
330
A02
100
AcDbEntity
  8
S03_FrontWing_Top
100
AcDbSpline
210
0
220
0
230
1
 70
8
 71
3
 72
26
 73
22
 74
0
 40
0.111118678
 40
0.111118678
 40
0.111118678
 40
0.111118678
 40
0.303912933
 40
0.303912933
 40
0.303912933
 40
0.405481639
 40
0.405481639
 40
0.405481639
 40
0.462710472
 40
0.462710472
 40
0.462710472
 40
0.488357785
 40
0.488357785
 40
0.488357785
 40
0.497135370
 40
0.497135370
 40
0.497135370
 40
0.503435361
 40
0.503435361
 40
0.503435361
 40
0.510034349
 40
0.510034349
 40
0.510034349
 40
0.510034349
 10
41.500000000
 20
241.231468426
 30
0.000000000
 10
41.500000000
 20
239.993371983
 30
0.000000000
 10
41.500000000
 20
238.668969860
 30
0.000000000
 10
41.500000000
 20
237.244515130
 30
0.000000000
 10
41.500000000
 20
236.491191082
 30
0.000000000
 10
41.500000000
 20
235.693976118
 30
0.000000000
 10
41.500000000
 20
234.852870238
 30
0.000000000
 10
41.500000000
 20
234.379158503
 30
0.000000000
 10
41.500000000
 20
233.892078985
 30
0.000000000
 10
41.500000000
 20
233.391631683
 30
0.000000000
 10
41.500000000
 20
233.167049359
 30
0.000000000
 10
41.500000000
 20
232.940638575
 30
0.000000000
 10
41.500000000
 20
232.712399331
 30
0.000000000
 10
41.500000000
 20
232.635180962
 30
0.000000000
 10
41.500000000
 20
232.557962594
 30
0.000000000
 10
41.500000000
 20
232.480744225
 30
0.000000000
 10
41.500000000
 20
232.424817452
 30
0.000000000
 10
41.500000000
 20
232.373265009
 30
0.000000000
 10
41.500000000
 20
232.326086896
 30
0.000000000
 10
41.500000000
 20
232.277191481
 30
0.000000000
 10
41.500000000
 20
232.240278748
 30
0.000000000
 10
41.500000000
 20
232.242319350
 30
0.000000000
  0
SPLINE
  5
A12
330
A02
100
AcDbEntity
  8
S03_FrontWing_Top
100
AcDbSpline
210
0
220
0
230
1
 70
8
 71
3
 72
23
 73
19
 74
0
 40
0.510034349
 40
0.510034349
 40
0.510034349
 40
0.510034349
 40
0.518969229
 40
0.518969229
 40
0.518969229
 40
0.527575212
 40
0.527575212
 40
0.527575212
 40
0.552329641
 40
0.552329641
 40
0.552329641
 40
0.606497895
 40
0.606497895
 40
0.606497895
 40
0.701480410
 40
0.701480410
 40
0.701480410
 40
0.908144520
 40
0.908144520
 40
0.908144520
 40
0.908144520
 10
41.500000000
 20
232.242319350
 30
0.000000000
 10
41.500000000
 20
232.243208782
 30
0.000000000
 10
41.500000000
 20
232.287983126
 30
0.000000000
 10
41.500000000
 20
232.338169606
 30
0.000000000
 10
41.500000000
 20
232.387444185
 30
0.000000000
 10
41.500000000
 20
232.441228482
 30
0.000000000
 10
41.500000000
 20
232.499522496
 30
0.000000000
 10
41.500000000
 20
232.666305248
 30
0.000000000
 10
41.500000000
 20
232.851026096
 30
0.000000000
 10
41.500000000
 20
233.036865592
 30
0.000000000
 10
41.500000000
 20
233.448576094
 30
0.000000000
 10
41.500000000
 20
233.867575379
 30
0.000000000
 10
41.500000000
 20
234.293863447
 30
0.000000000
 10
41.500000000
 20
235.040724208
 30
0.000000000
 10
41.500000000
 20
235.781186164
 30
0.000000000
 10
41.500000000
 20
236.515249315
 30
0.000000000
 10
41.500000000
 20
238.104761668
 30
0.000000000
 10
41.500000000
 20
239.687250963
 30
0.000000000
 10
41.500000000
 20
241.231468426
 30
0.000000000
  0
SPLINE
  5
A13
330
A02
100
AcDbEntity
  8
S03_FrontWing_Top
100
AcDbSpline
210
0
220
0
230
1
 70
8
 71
3
 72
26
 73
22
 74
0
 40
0.000000000
 40
0.000000000
 40
0.000000000
 40
0.000000000
 40
0.248621079
 40
0.248621079
 40
0.248621079
 40
0.382234349
 40
0.382234349
 40
0.382234349
 40
0.445960682
 40
0.445960682
 40
0.445960682
 40
0.476880725
 40
0.476880725
 40
0.476880725
 40
0.497135370
 40
0.497135370
 40
0.497135370
 40
0.503435361
 40
0.503435361
 40
0.503435361
 40
0.511787678
 40
0.511787678
 40
0.511787678
 40
0.511787678
 10
238.500000000
 20
248.803067904
 30
0.000000000
 10
238.500000000
 20
247.934144195
 30
0.000000000
 10
238.500000000
 20
246.914642249
 30
0.000000000
 10
238.500000000
 20
245.744562064
 30
0.000000000
 10
238.500000000
 20
245.116348550
 30
0.000000000
 10
238.500000000
 20
244.443674366
 30
0.000000000
 10
238.500000000
 20
243.668966215
 30
0.000000000
 10
238.500000000
 20
243.301648186
 30
0.000000000
 10
238.500000000
 20
242.913183171
 30
0.000000000
 10
238.500000000
 20
242.503571172
 30
0.000000000
 10
238.500000000
 20
242.304754068
 30
0.000000000
 10
238.500000000
 20
242.099381758
 30
0.000000000
 10
238.500000000
 20
241.887454243
 30
0.000000000
 10
238.500000000
 20
241.748309818
 30
0.000000000
 10
238.500000000
 20
241.605665232
 30
0.000000000
 10
238.500000000
 20
241.459520487
 30
0.000000000
 10
238.500000000
 20
241.413463701
 30
0.000000000
 10
238.500000000
 20
241.369113720
 30
0.000000000
 10
238.500000000
 20
241.326470545
 30
0.000000000
 10
238.500000000
 20
241.268225496
 30
0.000000000
 10
238.500000000
 20
241.228118785
 30
0.000000000
 10
238.500000000
 20
241.231468426
 30
0.000000000
  0
SPLINE
  5
A14
330
A02
100
AcDbEntity
  8
S03_FrontWing_Top
100
AcDbSpline
210
0
220
0
230
1
 70
8
 71
3
 72
47
 73
43
 74
0
 40
0.511787678
 40
0.511787678
 40
0.511787678
 40
0.511787678
 40
0.518969229
 40
0.518969229
 40
0.518969229
 40
0.527575212
 40
0.527575212
 40
0.527575212
 40
0.538710268
 40
0.538710268
 40
0.538710268
 40
0.568295958
 40
0.568295958
 40
0.568295958
 40
0.628287889
 40
0.628287889
 40
0.628287889
 40
0.701480410
 40
0.701480410
 40
0.701480410
 40
0.755025134
 40
0.755025134
 40
0.755025134
 40
0.884328732
 40
0.884328732
 40
0.884328732
 40
0.945791059
 40
0.945791059
 40
0.945791059
 40
0.975325505
 40
0.975325505
 40
0.975325505
 40
0.986003487
 40
0.986003487
 40
0.986003487
 40
0.993741764
 40
0.993741764
 40
0.993741764
 40
0.998429767
 40
0.998429767
 40
0.998429767
 40
1.000000000
 40
1.000000000
 40
1.000000000
 40
1.000000000
 10
238.500000000
 20
241.231468426
 30
0.000000000
 10
238.500000000
 20
241.234067599
 30
0.000000000
 10
238.500000000
 20
241.248529020
 30
0.000000000
 10
238.500000000
 20
241.274852691
 30
0.000000000
 10
238.500000000
 20
241.303904316
 30
0.000000000
 10
238.500000000
 20
241.337299572
 30
0.000000000
 10
238.500000000
 20
241.375038460
 30
0.000000000
 10
238.500000000
 20
241.423580471
 30
0.000000000
 10
238.500000000
 20
241.475213907
 30
0.000000000
 10
238.500000000
 20
241.529938765
 30
0.000000000
 10
238.500000000
 20
241.675909209
 30
0.000000000
 10
238.500000000
 20
241.828546409
 30
0.000000000
 10
238.500000000
 20
241.987850366
 30
0.000000000
 10
238.500000000
 20
242.310859461
 30
0.000000000
 10
238.500000000
 20
242.638034302
 30
0.000000000
 10
238.500000000
 20
242.969374887
 30
0.000000000
 10
238.500000000
 20
243.372722012
 30
0.000000000
 10
238.500000000
 20
243.770584720
 30
0.000000000
 10
238.500000000
 20
244.162963013
 30
0.000000000
 10
238.500000000
 20
244.447854095
 30
0.000000000
 10
238.500000000
 20
244.732745177
 30
0.000000000
 10
238.500000000
 20
245.017636260
 30
0.000000000
 10
238.500000000
 20
245.705202259
 30
0.000000000
 10
238.500000000
 20
246.381982311
 30
0.000000000
 10
238.500000000
 20
247.047976417
 30
0.000000000
 10
238.500000000
 20
247.364112919
 30
0.000000000
 10
238.500000000
 20
247.677368980
 30
0.000000000
 10
238.500000000
 20
247.987744599
 30
0.000000000
 10
238.500000000
 20
248.137042176
 30
0.000000000
 10
238.500000000
 20
248.285593202
 30
0.000000000
 10
238.500000000
 20
248.433397680
 30
0.000000000
 10
238.500000000
 20
248.484547258
 30
0.000000000
 10
238.500000000
 20
248.537965807
 30
0.000000000
 10
238.500000000
 20
248.593653326
 30
0.000000000
 10
238.500000000
 20
248.637848389
 30
0.000000000
 10
238.500000000
 20
248.676470778
 30
0.000000000
 10
238.500000000
 20
248.709520491
 30
0.000000000
 10
238.500000000
 20
248.727773506
 30
0.000000000
 10
238.500000000
 20
248.740765865
 30
0.000000000
 10
238.500000000
 20
248.779609272
 30
0.000000000
 10
238.500000000
 20
248.792619760
 30
0.000000000
 10
238.500000000
 20
248.808530468
 30
0.000000000
 10
238.500000000
 20
248.803067904
 30
0.000000000
  0
SPLINE
  5
A15
330
A02
100
AcDbEntity
  8
S03_FrontWing_Top
100
AcDbSpline
210
0
220
0
230
1
 70
8
 71
3
 72
35
 73
31
 74
0
 40
0.000000000
 40
0.000000000
 40
0.000000000
 40
0.000000000
 40
0.094589569
 40
0.094589569
 40
0.094589569
 40
0.196477778
 40
0.196477778
 40
0.196477778
 40
0.297996097
 40
0.297996097
 40
0.297996097
 40
0.399163739
 40
0.399163739
 40
0.399163739
 40
0.500000000
 40
0.500000000
 40
0.500000000
 40
0.600836261
 40
0.600836261
 40
0.600836261
 40
0.702003903
 40
0.702003903
 40
0.702003903
 40
0.803522222
 40
0.803522222
 40
0.803522222
 40
0.905410431
 40
0.905410431
 40
0.905410431
 40
1.000000000
 40
1.000000000
 40
1.000000000
 40
1.000000000
 10
238.500000000
 20
248.803067904
 30
0.000000000
 10
232.294732070
 20
247.504432864
 30
0.000000000
 10
226.163798473
 20
248.005898928
 30
0.000000000
 10
220.000000000
 20
248.037506514
 30
0.000000000
 10
213.360595772
 20
248.071552978
 30
0.000000000
 10
206.683059212
 20
247.560433864
 30
0.000000000
 10
200.000000000
 20
247.178087922
 30
0.000000000
 10
193.341202586
 20
246.797130027
 30
0.000000000
 10
186.676922546
 20
246.544012021
 30
0.000000000
 10
180.000000000
 20
246.286754543
 30
0.000000000
 10
173.346141742
 20
246.030385717
 30
0.000000000
 10
166.679728171
 20
245.769905969
 30
0.000000000
 10
160.000000000
 20
245.364688964
 30
0.000000000
 10
153.342151678
 20
244.960799272
 30
0.000000000
 10
146.671075839
 20
244.413118961
 30
0.000000000
 10
140.000000000
 20
244.413118961
 30
0.000000000
 10
133.328924161
 20
244.413118961
 30
0.000000000
 10
126.657848322
 20
244.960799272
 30
0.000000000
 10
120.000000000
 20
245.364688964
 30
0.000000000
 10
113.320271829
 20
245.769905969
 30
0.000000000
 10
106.653858258
 20
246.030385717
 30
0.000000000
 10
100.000000000
 20
246.286754543
 30
0.000000000
 10
93.323077454
 20
246.544012021
 30
0.000000000
 10
86.658797414
 20
246.797130027
 30
0.000000000
 10
80.000000000
 20
247.178087922
 30
0.000000000
 10
73.316940788
 20
247.560433864
 30
0.000000000
 10
66.639404228
 20
248.071552978
 30
0.000000000
 10
60.000000000
 20
248.037506514
 30
0.000000000
 10
53.836201527
 20
248.005898928
 30
0.000000000
 10
47.705267931
 20
247.504432864
 30
0.000000000
 10
41.500000000
 20
248.803067904
 30
0.000000000
  0
SPLINE
  5
A16
330
A02
100
AcDbEntity
  8
S03_FrontWing_Top
100
AcDbSpline
210
0
220
0
230
1
 70
8
 71
3
 72
26
 73
22
 74
0
 40
0.000000000
 40
0.000000000
 40
0.000000000
 40
0.000000000
 40
0.248621079
 40
0.248621079
 40
0.248621079
 40
0.382234349
 40
0.382234349
 40
0.382234349
 40
0.445960682
 40
0.445960682
 40
0.445960682
 40
0.476880725
 40
0.476880725
 40
0.476880725
 40
0.497135370
 40
0.497135370
 40
0.497135370
 40
0.503435361
 40
0.503435361
 40
0.503435361
 40
0.511787678
 40
0.511787678
 40
0.511787678
 40
0.511787678
 10
41.500000000
 20
248.803067904
 30
0.000000000
 10
41.500000000
 20
247.934144195
 30
0.000000000
 10
41.500000000
 20
246.914642249
 30
0.000000000
 10
41.500000000
 20
245.744562064
 30
0.000000000
 10
41.500000000
 20
245.116348550
 30
0.000000000
 10
41.500000000
 20
244.443674366
 30
0.000000000
 10
41.500000000
 20
243.668966215
 30
0.000000000
 10
41.500000000
 20
243.301648186
 30
0.000000000
 10
41.500000000
 20
242.913183171
 30
0.000000000
 10
41.500000000
 20
242.503571172
 30
0.000000000
 10
41.500000000
 20
242.304754068
 30
0.000000000
 10
41.500000000
 20
242.099381758
 30
0.000000000
 10
41.500000000
 20
241.887454243
 30
0.000000000
 10
41.500000000
 20
241.748309818
 30
0.000000000
 10
41.500000000
 20
241.605665232
 30
0.000000000
 10
41.500000000
 20
241.459520487
 30
0.000000000
 10
41.500000000
 20
241.413463701
 30
0.000000000
 10
41.500000000
 20
241.369113720
 30
0.000000000
 10
41.500000000
 20
241.326470545
 30
0.000000000
 10
41.500000000
 20
241.268225496
 30
0.000000000
 10
41.500000000
 20
241.228118785
 30
0.000000000
 10
41.500000000
 20
241.231468426
 30
0.000000000
  0
SPLINE
  5
A17
330
A02
100
AcDbEntity
  8
S03_FrontWing_Top
100
AcDbSpline
210
0
220
0
230
1
 70
8
 71
3
 72
47
 73
43
 74
0
 40
0.511787678
 40
0.511787678
 40
0.511787678
 40
0.511787678
 40
0.518969229
 40
0.518969229
 40
0.518969229
 40
0.527575212
 40
0.527575212
 40
0.527575212
 40
0.538710268
 40
0.538710268
 40
0.538710268
 40
0.568295958
 40
0.568295958
 40
0.568295958
 40
0.628287889
 40
0.628287889
 40
0.628287889
 40
0.701480410
 40
0.701480410
 40
0.701480410
 40
0.755025134
 40
0.755025134
 40
0.755025134
 40
0.884328732
 40
0.884328732
 40
0.884328732
 40
0.945791059
 40
0.945791059
 40
0.945791059
 40
0.975325505
 40
0.975325505
 40
0.975325505
 40
0.986003487
 40
0.986003487
 40
0.986003487
 40
0.993741764
 40
0.993741764
 40
0.993741764
 40
0.998429767
 40
0.998429767
 40
0.998429767
 40
1.000000000
 40
1.000000000
 40
1.000000000
 40
1.000000000
 10
41.500000000
 20
241.231468426
 30
0.000000000
 10
41.500000000
 20
241.234067599
 30
0.000000000
 10
41.500000000
 20
241.248529020
 30
0.000000000
 10
41.500000000
 20
241.274852691
 30
0.000000000
 10
41.500000000
 20
241.303904316
 30
0.000000000
 10
41.500000000
 20
241.337299572
 30
0.000000000
 10
41.500000000
 20
241.375038460
 30
0.000000000
 10
41.500000000
 20
241.423580471
 30
0.000000000
 10
41.500000000
 20
241.475213907
 30
0.000000000
 10
41.500000000
 20
241.529938765
 30
0.000000000
 10
41.500000000
 20
241.675909209
 30
0.000000000
 10
41.500000000
 20
241.828546409
 30
0.000000000
 10
41.500000000
 20
241.987850366
 30
0.000000000
 10
41.500000000
 20
242.310859461
 30
0.000000000
 10
41.500000000
 20
242.638034302
 30
0.000000000
 10
41.500000000
 20
242.969374887
 30
0.000000000
 10
41.500000000
 20
243.372722012
 30
0.000000000
 10
41.500000000
 20
243.770584720
 30
0.000000000
 10
41.500000000
 20
244.162963013
 30
0.000000000
 10
41.500000000
 20
244.447854095
 30
0.000000000
 10
41.500000000
 20
244.732745177
 30
0.000000000
 10
41.500000000
 20
245.017636260
 30
0.000000000
 10
41.500000000
 20
245.705202259
 30
0.000000000
 10
41.500000000
 20
246.381982311
 30
0.000000000
 10
41.500000000
 20
247.047976417
 30
0.000000000
 10
41.500000000
 20
247.364112919
 30
0.000000000
 10
41.500000000
 20
247.677368980
 30
0.000000000
 10
41.500000000
 20
247.987744599
 30
0.000000000
 10
41.500000000
 20
248.137042176
 30
0.000000000
 10
41.500000000
 20
248.285593202
 30
0.000000000
 10
41.500000000
 20
248.433397680
 30
0.000000000
 10
41.500000000
 20
248.484547258
 30
0.000000000
 10
41.500000000
 20
248.537965807
 30
0.000000000
 10
41.500000000
 20
248.593653326
 30
0.000000000
 10
41.500000000
 20
248.637848389
 30
0.000000000
 10
41.500000000
 20
248.676470778
 30
0.000000000
 10
41.500000000
 20
248.709520491
 30
0.000000000
 10
41.500000000
 20
248.727773506
 30
0.000000000
 10
41.500000000
 20
248.740765865
 30
0.000000000
 10
41.500000000
 20
248.779609272
 30
0.000000000
 10
41.500000000
 20
248.792619760
 30
0.000000000
 10
41.500000000
 20
248.808530468
 30
0.000000000
 10
41.500000000
 20
248.803067904
 30
0.000000000
  0
LINE
  5
A18
330
A02
100
AcDbEntity
  8
S03_FrontWing_Top
100
AcDbLine
 10
41.000000000
 20
199.750000000
 30
0.000000000
 11
40.000000000
 21
199.750000000
 31
0.000000000
  0
LINE
  5
A19
330
A02
100
AcDbEntity
  8
S03_FrontWing_Top
100
AcDbLine
 10
41.000000000
 20
252.250000000
 30
0.000000000
 11
40.000000000
 21
252.250000000
 31
0.000000000
  0
LINE
  5
A1A
330
A02
100
AcDbEntity
  8
S03_FrontWing_Top
100
AcDbLine
 10
41.000000000
 20
209.750000000
 30
0.000000000
 11
41.000000000
 21
199.750000000
 31
0.000000000
  0
LINE
  5
A1B
330
A02
100
AcDbEntity
  8
S03_FrontWing_Top
100
AcDbLine
 10
41.000000000
 20
239.750000000
 30
0.000000000
 11
41.000000000
 21
209.750000000
 31
0.000000000
  0
LINE
  5
A1C
330
A02
100
AcDbEntity
  8
S03_FrontWing_Top
100
AcDbLine
 10
41.000000000
 20
251.250000000
 30
0.000000000
 11
41.000000000
 21
239.750000000
 31
0.000000000
  0
LINE
  5
A1D
330
A02
100
AcDbEntity
  8
S03_FrontWing_Top
100
AcDbLine
 10
41.000000000
 20
252.250000000
 30
0.000000000
 11
41.000000000
 21
251.250000000
 31
0.000000000
  0
LINE
  5
A1E
330
A02
100
AcDbEntity
  8
S03_FrontWing_Top
100
AcDbLine
 10
40.000000000
 20
252.250000000
 30
0.000000000
 11
40.000000000
 21
251.250000000
 31
0.000000000
  0
LINE
  5
A1F
330
A02
100
AcDbEntity
  8
S03_FrontWing_Top
100
AcDbLine
 10
40.000000000
 20
251.250000000
 30
0.000000000
 11
40.000000000
 21
239.750000000
 31
0.000000000
  0
LINE
  5
A20
330
A02
100
AcDbEntity
  8
S03_FrontWing_Top
100
AcDbLine
 10
40.000000000
 20
239.750000000
 30
0.000000000
 11
40.000000000
 21
209.750000000
 31
0.000000000
  0
LINE
  5
A21
330
A02
100
AcDbEntity
  8
S03_FrontWing_Top
100
AcDbLine
 10
40.000000000
 20
209.750000000
 30
0.000000000
 11
40.000000000
 21
199.750000000
 31
0.000000000
  0
LINE
  5
A22
330
A02
100
AcDbEntity
  8
S03_FrontWing_Top
100
AcDbLine
 10
41.000000000
 20
209.750000000
 30
0.000000000
 11
40.000000000
 21
209.750000000
 31
0.000000000
  0
LINE
  5
A23
330
A02
100
AcDbEntity
  8
S03_FrontWing_Top
100
AcDbLine
 10
41.000000000
 20
197.750000000
 30
0.000000000
 11
41.000000000
 21
199.750000000
 31
0.000000000
  0
LINE
  5
A24
330
A02
100
AcDbEntity
  8
S03_FrontWing_Top
100
AcDbLine
 10
41.000000000
 20
251.250000000
 30
0.000000000
 11
40.000000000
 21
251.250000000
 31
0.000000000
  0
LINE
  5
A25
330
A02
100
AcDbEntity
  8
S03_FrontWing_Top
100
AcDbLine
 10
47.000000000
 20
197.750000000
 30
0.000000000
 11
41.000000000
 21
197.750000000
 31
0.000000000
  0
LINE
  5
A26
330
A02
100
AcDbEntity
  8
S03_FrontWing_Top
100
AcDbLine
 10
41.500000000
 20
243.750000000
 30
0.000000000
 11
41.000000000
 21
243.750000000
 31
0.000000000
  0
LINE
  5
A27
330
A02
100
AcDbEntity
  8
S03_FrontWing_Top
100
AcDbLine
 10
47.000000000
 20
197.750000000
 30
0.000000000
 11
47.000000000
 21
201.850123793
 31
0.000000000
  0
LINE
  5
A28
330
A02
100
AcDbEntity
  8
S03_FrontWing_Top
100
AcDbLine
 10
41.000000000
 20
239.750000000
 30
0.000000000
 11
40.000000000
 21
239.750000000
 31
0.000000000
  0
LINE
  5
A29
330
A02
100
AcDbEntity
  8
S03_FrontWing_Top
100
AcDbLine
 10
240.000000000
 20
199.750000000
 30
0.000000000
 11
239.000000000
 21
199.750000000
 31
0.000000000
  0
LINE
  5
A2A
330
A02
100
AcDbEntity
  8
S03_FrontWing_Top
100
AcDbLine
 10
240.000000000
 20
252.250000000
 30
0.000000000
 11
239.000000000
 21
252.250000000
 31
0.000000000
  0
LINE
  5
A2B
330
A02
100
AcDbEntity
  8
S03_FrontWing_Top
100
AcDbLine
 10
240.000000000
 20
252.250000000
 30
0.000000000
 11
240.000000000
 21
251.250000000
 31
0.000000000
  0
LINE
  5
A2C
330
A02
100
AcDbEntity
  8
S03_FrontWing_Top
100
AcDbLine
 10
240.000000000
 20
251.250000000
 30
0.000000000
 11
240.000000000
 21
239.750000000
 31
0.000000000
  0
LINE
  5
A2D
330
A02
100
AcDbEntity
  8
S03_FrontWing_Top
100
AcDbLine
 10
240.000000000
 20
239.750000000
 30
0.000000000
 11
240.000000000
 21
209.750000000
 31
0.000000000
  0
LINE
  5
A2E
330
A02
100
AcDbEntity
  8
S03_FrontWing_Top
100
AcDbLine
 10
240.000000000
 20
209.750000000
 30
0.000000000
 11
240.000000000
 21
199.750000000
 31
0.000000000
  0
LINE
  5
A2F
330
A02
100
AcDbEntity
  8
S03_FrontWing_Top
100
AcDbLine
 10
239.000000000
 20
209.750000000
 30
0.000000000
 11
239.000000000
 21
199.750000000
 31
0.000000000
  0
LINE
  5
A30
330
A02
100
AcDbEntity
  8
S03_FrontWing_Top
100
AcDbLine
 10
239.000000000
 20
239.750000000
 30
0.000000000
 11
239.000000000
 21
209.750000000
 31
0.000000000
  0
LINE
  5
A31
330
A02
100
AcDbEntity
  8
S03_FrontWing_Top
100
AcDbLine
 10
239.000000000
 20
251.250000000
 30
0.000000000
 11
239.000000000
 21
239.750000000
 31
0.000000000
  0
LINE
  5
A32
330
A02
100
AcDbEntity
  8
S03_FrontWing_Top
100
AcDbLine
 10
239.000000000
 20
252.250000000
 30
0.000000000
 11
239.000000000
 21
251.250000000
 31
0.000000000
  0
LINE
  5
A33
330
A02
100
AcDbEntity
  8
S03_FrontWing_Top
100
AcDbLine
 10
240.000000000
 20
209.750000000
 30
0.000000000
 11
239.000000000
 21
209.750000000
 31
0.000000000
  0
LINE
  5
A34
330
A02
100
AcDbEntity
  8
S03_FrontWing_Top
100
AcDbLine
 10
239.000000000
 20
197.750000000
 30
0.000000000
 11
239.000000000
 21
199.750000000
 31
0.000000000
  0
LINE
  5
A35
330
A02
100
AcDbEntity
  8
S03_FrontWing_Top
100
AcDbLine
 10
240.000000000
 20
251.250000000
 30
0.000000000
 11
239.000000000
 21
251.250000000
 31
0.000000000
  0
LINE
  5
A36
330
A02
100
AcDbEntity
  8
S03_FrontWing_Top
100
AcDbLine
 10
240.000000000
 20
239.750000000
 30
0.000000000
 11
239.000000000
 21
239.750000000
 31
0.000000000
  0
LINE
  5
A37
330
A02
100
AcDbEntity
  8
S03_FrontWing_Top
100
AcDbLine
 10
239.000000000
 20
197.750000000
 30
0.000000000
 11
233.000000000
 21
197.750000000
 31
0.000000000
  0
LINE
  5
A38
330
A02
100
AcDbEntity
  8
S03_FrontWing_Top
100
AcDbLine
 10
233.000000000
 20
197.750000000
 30
0.000000000
 11
233.000000000
 21
201.846401914
 31
0.000000000
  0
LINE
  5
A39
330
A02
100
AcDbEntity
  8
S03_FrontWing_Top
100
AcDbLine
 10
239.000000000
 20
243.750000000
 30
0.000000000
 11
238.500000000
 21
243.750000000
 31
0.000000000
  0
LINE
  5
A3A
330
A02
100
AcDbEntity
  8
S03_FrontWing_Top
100
AcDbLine
 10
144.500000000
 20
219.750000000
 30
0.000000000
 11
143.700000000
 21
219.750000000
 31
0.000000000
  0
LINE
  5
A3B
330
A02
100
AcDbEntity
  8
S03_FrontWing_Top
100
AcDbLine
 10
144.500000000
 20
222.750000000
 30
0.000000000
 11
144.500000000
 21
219.750000000
 31
0.000000000
  0
LINE
  5
A3C
330
A02
100
AcDbEntity
  8
S03_FrontWing_Top
100
AcDbLine
 10
143.700000000
 20
222.750000000
 30
0.000000000
 11
143.700000000
 21
219.750000000
 31
0.000000000
  0
LINE
  5
A3D
330
A02
100
AcDbEntity
  8
S03_FrontWing_Top
100
AcDbLine
 10
144.500000000
 20
208.750000000
 30
0.000000000
 11
143.700000000
 21
208.750000000
 31
0.000000000
  0
LINE
  5
A3E
330
A02
100
AcDbEntity
  8
S03_FrontWing_Top
100
AcDbLine
 10
144.500000000
 20
219.750000000
 30
0.000000000
 11
144.500000000
 21
208.750000000
 31
0.000000000
  0
LINE
  5
A3F
330
A02
100
AcDbEntity
  8
S03_FrontWing_Top
100
AcDbLine
 10
143.700000000
 20
219.750000000
 30
0.000000000
 11
143.700000000
 21
208.750000000
 31
0.000000000
  0
LINE
  5
A40
330
A02
100
AcDbEntity
  8
S03_FrontWing_Top
100
AcDbLine
 10
136.300000000
 20
219.750000000
 30
0.000000000
 11
135.500000000
 21
219.750000000
 31
0.000000000
  0
LINE
  5
A41
330
A02
100
AcDbEntity
  8
S03_FrontWing_Top
100
AcDbLine
 10
136.300000000
 20
222.750000000
 30
0.000000000
 11
136.300000000
 21
219.750000000
 31
0.000000000
  0
LINE
  5
A42
330
A02
100
AcDbEntity
  8
S03_FrontWing_Top
100
AcDbLine
 10
135.500000000
 20
222.750000000
 30
0.000000000
 11
135.500000000
 21
219.750000000
 31
0.000000000
  0
LINE
  5
A43
330
A02
100
AcDbEntity
  8
S03_FrontWing_Top
100
AcDbLine
 10
136.300000000
 20
208.750000000
 30
0.000000000
 11
135.500000000
 21
208.750000000
 31
0.000000000
  0
LINE
  5
A44
330
A02
100
AcDbEntity
  8
S03_FrontWing_Top
100
AcDbLine
 10
136.300000000
 20
219.750000000
 30
0.000000000
 11
136.300000000
 21
208.750000000
 31
0.000000000
  0
LINE
  5
A45
330
A02
100
AcDbEntity
  8
S03_FrontWing_Top
100
AcDbLine
 10
135.500000000
 20
219.750000000
 30
0.000000000
 11
135.500000000
 21
208.750000000
 31
0.000000000
  0
SPLINE
  5
A46
330
A02
100
AcDbEntity
  8
S03_FrontWing_Top
100
AcDbSpline
210
0
220
0
230
1
 70
8
 71
3
 72
47
 73
43
 74
0
 40
0.000000000
 40
0.000000000
 40
0.000000000
 40
0.000000000
 40
0.062874796
 40
0.062874796
 40
0.062874796
 40
0.125749591
 40
0.125749591
 40
0.125749591
 40
0.251499183
 40
0.251499183
 40
0.251499183
 40
0.371252043
 40
0.371252043
 40
0.371252043
 40
0.497001634
 40
0.497001634
 40
0.497001634
 40
0.559876430
 40
0.559876430
 40
0.559876430
 40
0.622751226
 40
0.622751226
 40
0.622751226
 40
0.685626021
 40
0.685626021
 40
0.685626021
 40
0.748500817
 40
0.748500817
 40
0.748500817
 40
0.874250409
 40
0.874250409
 40
0.874250409
 40
0.905687806
 40
0.905687806
 40
0.905687806
 40
0.937125204
 40
0.937125204
 40
0.937125204
 40
0.968562602
 40
0.968562602
 40
0.968562602
 40
1.000000000
 40
1.000000000
 40
1.000000000
 40
1.000000000
 10
41.500000000
 20
202.247246571
 30
0.000000000
 10
44.589166996
 20
201.907162693
 30
0.000000000
 10
47.698982201
 20
201.790999095
 30
0.000000000
 10
50.808129757
 20
201.760460085
 30
0.000000000
 10
53.918102635
 20
201.729586330
 30
0.000000000
 10
57.027407864
 20
201.784337165
 30
0.000000000
 10
60.137838634
 20
201.777044022
 30
0.000000000
 10
67.034276453
 20
201.761236900
 30
0.000000000
 10
73.924359445
 20
201.458929251
 30
0.000000000
 10
80.816935927
 20
201.243089479
 30
0.000000000
 10
87.381391878
 20
201.037290032
 30
0.000000000
 10
93.948792425
 20
200.893636593
 30
0.000000000
 10
100.516774860
 20
200.749857074
 30
0.000000000
 10
108.071045881
 20
200.585547388
 30
0.000000000
 10
115.626474417
 20
200.416174882
 30
0.000000000
 10
123.179460927
 20
200.145223034
 30
0.000000000
 10
127.920730565
 20
199.987933078
 30
0.000000000
 10
132.664268119
 20
199.799224065
 30
0.000000000
 10
137.409407641
 20
199.759320138
 30
0.000000000
 10
142.154348467
 20
199.709814880
 30
0.000000000
 10
146.900891261
 20
199.809114706
 30
0.000000000
 10
151.642806570
 20
199.968606507
 30
0.000000000
 10
156.241068711
 20
200.125196932
 30
0.000000000
 10
160.838789029
 20
200.289159977
 30
0.000000000
 10
165.437340336
 20
200.416125981
 30
0.000000000
 10
170.035781513
 20
200.546405679
 30
0.000000000
 10
174.635053679
 20
200.639688336
 30
0.000000000
 10
179.233445998
 20
200.744387747
 30
0.000000000
 10
187.444583329
 20
200.922412171
 30
0.000000000
 10
195.654765401
 20
201.106034085
 30
0.000000000
 10
203.859587028
 20
201.398587252
 30
0.000000000
 10
206.748278930
 20
201.489423320
 30
0.000000000
 10
209.634613113
 20
201.603354170
 30
0.000000000
 10
212.522170257
 20
201.672969066
 30
0.000000000
 10
215.409630528
 20
201.743225191
 30
0.000000000
 10
218.298195366
 20
201.775909405
 30
0.000000000
 10
221.187864773
 20
201.771021708
 30
0.000000000
 10
224.077358378
 20
201.771271271
 30
0.000000000
 10
226.967838157
 20
201.740692967
 30
0.000000000
 10
229.855249859
 20
201.773673712
 30
0.000000000
 10
232.742525224
 20
201.809543702
 30
0.000000000
 10
235.626732510
 20
201.908972741
 30
0.000000000
 10
238.500000000
 20
202.247246571
 30
0.000000000
  0
SPLINE
  5
A47
330
A02
100
AcDbEntity
  8
S03_FrontWing_Top
100
AcDbSpline
210
0
220
0
230
1
 70
8
 71
3
 72
23
 73
19
 74
0
 40
0.000000000
 40
0.000000000
 40
0.000000000
 40
0.000000000
 40
0.054489595
 40
0.054489595
 40
0.054489595
 40
0.108979189
 40
0.108979189
 40
0.108979189
 40
0.217958379
 40
0.217958379
 40
0.217958379
 40
0.321757386
 40
0.321757386
 40
0.321757386
 40
0.430736575
 40
0.430736575
 40
0.430736575
 40
0.509595348
 40
0.509595348
 40
0.509595348
 40
0.509595348
 10
41.500000000
 20
221.748224260
 30
0.000000000
 10
44.594797231
 20
221.405450835
 30
0.000000000
 10
47.714659931
 20
221.289130998
 30
0.000000000
 10
50.835016800
 20
221.259562171
 30
0.000000000
 10
53.956265795
 20
221.229588419
 30
0.000000000
 10
57.078008958
 20
221.286365676
 30
0.000000000
 10
60.200654528
 20
221.278853442
 30
0.000000000
 10
67.092996238
 20
221.262825760
 30
0.000000000
 10
73.977391521
 20
220.959604272
 30
0.000000000
 10
80.867107962
 20
220.744309095
 30
0.000000000
 10
87.429890852
 20
220.538944505
 30
0.000000000
 10
93.997776172
 20
220.395897818
 30
0.000000000
 10
100.567511106
 20
220.252390799
 30
0.000000000
 10
108.125436428
 20
220.088424863
 30
0.000000000
 10
115.686218839
 20
219.918646724
 30
0.000000000
 10
123.245767683
 20
219.647387425
 30
0.000000000
 10
127.328920948
 20
219.505659667
 30
0.000000000
 10
131.413109158
 20
219.358639169
 30
0.000000000
 10
135.500000000
 20
219.289845038
 30
0.000000000
  0
SPLINE
  5
A48
330
A02
100
AcDbEntity
  8
S03_FrontWing_Top
100
AcDbSpline
210
0
220
0
230
1
 70
8
 71
2
 72
6
 73
3
 74
0
 40
0.514740869
 40
0.514740869
 40
0.514740869
 40
0.562331449
 40
0.562331449
 40
0.562331449
 10
136.300000000
 20
219.277403724
 30
0.000000000
 10
140.000053575
 20
219.222818432
 30
0.000000000
 10
143.700000000
 20
219.277396362
 30
0.000000000
  0
SPLINE
  5
A49
330
A02
100
AcDbEntity
  8
S03_FrontWing_Top
100
AcDbSpline
210
0
220
0
230
1
 70
8
 71
3
 72
26
 73
22
 74
0
 40
0.567477111
 40
0.567477111
 40
0.567477111
 40
0.567477111
 40
0.673062432
 40
0.673062432
 40
0.673062432
 40
0.782041621
 40
0.782041621
 40
0.782041621
 40
0.891020811
 40
0.891020811
 40
0.891020811
 40
0.918265608
 40
0.918265608
 40
0.918265608
 40
0.945510405
 40
0.945510405
 40
0.945510405
 40
0.972755203
 40
0.972755203
 40
0.972755203
 40
1.000000000
 40
1.000000000
 40
1.000000000
 40
1.000000000
 10
144.500000000
 20
219.289839034
 30
0.000000000
 10
149.972009787
 20
219.381996988
 30
0.000000000
 10
155.438647468
 20
219.614201449
 30
0.000000000
 10
160.905479855
 20
219.786478180
 30
0.000000000
 10
167.149912965
 20
219.984005246
 30
0.000000000
 10
173.394701943
 20
220.120489000
 30
0.000000000
 10
179.637491513
 20
220.256869579
 30
0.000000000
 10
187.850969688
 20
220.433952440
 30
0.000000000
 10
196.061285443
 20
220.620756987
 30
0.000000000
 10
204.262626759
 20
220.915234622
 30
0.000000000
 10
207.118855942
 20
221.006834304
 30
0.000000000
 10
209.972071081
 20
221.116900887
 30
0.000000000
 10
212.826749112
 20
221.182874486
 30
0.000000000
 10
215.681321498
 20
221.249085206
 30
0.000000000
 10
218.537149657
 20
221.278828466
 30
0.000000000
 10
221.394233586
 20
221.272104264
 30
0.000000000
 10
224.251073790
 20
221.270700865
 30
0.000000000
 10
227.108962645
 20
221.240455529
 30
0.000000000
 10
229.962594727
 20
221.274430232
 30
0.000000000
 10
232.816052124
 20
221.311183898
 30
0.000000000
 10
235.665252749
 20
221.412157604
 30
0.000000000
 10
238.500000000
 20
221.748224260
 30
0.000000000
  0
SPLINE
  5
A4A
330
A02
100
AcDbEntity
  8
S03_FrontWing_Top
100
AcDbSpline
210
0
220
0
230
1
 70
8
 71
3
 72
47
 73
43
 74
0
 40
0.000000000
 40
0.000000000
 40
0.000000000
 40
0.000000000
 40
0.054050568
 40
0.054050568
 40
0.054050568
 40
0.108101135
 40
0.108101135
 40
0.108101135
 40
0.216202270
 40
0.216202270
 40
0.216202270
 40
0.329728103
 40
0.329728103
 40
0.329728103
 40
0.443306603
 40
0.443306603
 40
0.443306603
 40
0.551407738
 40
0.551407738
 40
0.551407738
 40
0.667638369
 40
0.667638369
 40
0.667638369
 40
0.783797730
 40
0.783797730
 40
0.783797730
 40
0.837848297
 40
0.837848297
 40
0.837848297
 40
0.891898865
 40
0.891898865
 40
0.891898865
 40
0.918924149
 40
0.918924149
 40
0.918924149
 40
0.945949432
 40
0.945949432
 40
0.945949432
 40
0.972974716
 40
0.972974716
 40
0.972974716
 40
1.000000000
 40
1.000000000
 40
1.000000000
 40
1.000000000
 10
41.500000000
 20
232.242319350
 30
0.000000000
 10
44.641784509
 20
231.889598334
 30
0.000000000
 10
47.819950564
 20
231.774244341
 30
0.000000000
 10
51.001570559
 20
231.748258720
 30
0.000000000
 10
54.184239440
 20
231.721709195
 30
0.000000000
 10
57.370362261
 20
231.784528042
 30
0.000000000
 10
60.556380234
 20
231.772927318
 30
0.000000000
 10
67.113092823
 20
231.750896065
 30
0.000000000
 10
73.659264887
 20
231.470609987
 30
0.000000000
 10
80.215659960
 20
231.260872015
 30
0.000000000
 10
87.101598989
 20
231.040308027
 30
0.000000000
 10
93.999219352
 20
230.892072787
 30
0.000000000
 10
100.902144892
 20
230.741537067
 30
0.000000000
 10
107.808304170
 20
230.591256553
 30
0.000000000
 10
114.720370492
 20
230.437570225
 30
0.000000000
 10
121.633974816
 20
230.200087381
 30
0.000000000
 10
127.760306594
 20
229.991890592
 30
0.000000000
 10
133.893323806
 20
229.746897605
 30
0.000000000
 10
140.032950338
 20
229.747703916
 30
0.000000000
 10
146.634434069
 20
229.748744527
 30
0.000000000
 10
153.227358937
 20
230.032693121
 30
0.000000000
 10
159.813914177
 20
230.248497936
 30
0.000000000
 10
166.397635825
 20
230.464279684
 30
0.000000000
 10
172.979664610
 20
230.608319739
 30
0.000000000
 10
179.556268985
 20
230.751599510
 30
0.000000000
 10
183.830188568
 20
230.846202520
 30
0.000000000
 10
188.102304627
 20
230.936219826
 30
0.000000000
 10
192.370567165
 20
231.047790330
 30
0.000000000
 10
196.638953891
 20
231.158690773
 30
0.000000000
 10
200.903292469
 20
231.290138434
 30
0.000000000
 10
205.163582900
 20
231.442133313
 30
0.000000000
 10
207.947041169
 20
231.534745291
 30
0.000000000
 10
210.726401433
 20
231.636358553
 30
0.000000000
 10
213.507816740
 20
231.694552672
 30
0.000000000
 10
216.288976517
 20
231.755292296
 30
0.000000000
 10
219.072191337
 20
231.772612778
 30
0.000000000
 10
221.856459430
 20
231.765367827
 30
0.000000000
 10
224.640471993
 20
231.760668382
 30
0.000000000
 10
227.425537830
 20
231.731403503
 30
0.000000000
 10
230.203500354
 20
231.767701035
 30
0.000000000
 10
232.981207349
 20
231.806544071
 30
0.000000000
 10
235.751811031
 20
231.910949517
 30
0.000000000
 10
238.500000000
 20
232.242319350
 30
0.000000000
  0
SPLINE
  5
A4B
330
A02
100
AcDbEntity
  8
S03_FrontWing_Top
100
AcDbSpline
210
0
220
0
230
1
 70
8
 71
3
 72
50
 73
46
 74
0
 40
0.000000000
 40
0.000000000
 40
0.000000000
 40
0.000000000
 40
0.062500000
 40
0.062500000
 40
0.062500000
 40
0.125000000
 40
0.125000000
 40
0.125000000
 40
0.250000000
 40
0.250000000
 40
0.250000000
 40
0.375000000
 40
0.375000000
 40
0.375000000
 40
0.437500000
 40
0.437500000
 40
0.437500000
 40
0.500000000
 40
0.500000000
 40
0.500000000
 40
0.562500000
 40
0.562500000
 40
0.562500000
 40
0.625000000
 40
0.625000000
 40
0.625000000
 40
0.750000000
 40
0.750000000
 40
0.750000000
 40
0.812500000
 40
0.812500000
 40
0.812500000
 40
0.875000000
 40
0.875000000
 40
0.875000000
 40
0.906250000
 40
0.906250000
 40
0.906250000
 40
0.937500000
 40
0.937500000
 40
0.937500000
 40
0.968750000
 40
0.968750000
 40
0.968750000
 40
1.000000000
 40
1.000000000
 40
1.000000000
 40
1.000000000
 10
41.500000000
 20
241.231468426
 30
0.000000000
 10
44.601760444
 20
240.878097536
 30
0.000000000
 10
47.751874009
 20
240.760171048
 30
0.000000000
 10
50.909373352
 20
240.734056178
 30
0.000000000
 10
54.068023005
 20
240.707195732
 30
0.000000000
 10
57.234058436
 20
240.772146904
 30
0.000000000
 10
60.398720976
 20
240.764400749
 30
0.000000000
 10
67.274761480
 20
240.748935013
 30
0.000000000
 10
74.134004136
 20
240.441653172
 30
0.000000000
 10
81.013667846
 20
240.227975436
 30
0.000000000
 10
87.567523918
 20
240.023198098
 30
0.000000000
 10
94.137942332
 20
239.882230726
 30
0.000000000
 10
100.716849050
 20
239.739457012
 30
0.000000000
 10
105.985129412
 20
239.618689022
 30
0.000000000
 10
111.260309134
 20
239.516775729
 30
0.000000000
 10
116.537722116
 20
239.355681198
 30
0.000000000
 10
121.815558661
 20
239.202089702
 30
0.000000000
 10
127.095628466
 20
238.989316969
 30
0.000000000
 10
132.385125187
 20
238.849412067
 30
0.000000000
 10
136.299537937
 20
238.741943453
 30
0.000000000
 10
140.215219720
 20
238.717888033
 30
0.000000000
 10
144.132170535
 20
238.777245808
 30
0.000000000
 10
148.047702865
 20
238.834001929
 30
0.000000000
 10
151.959211776
 20
238.977847129
 30
0.000000000
 10
155.865790996
 20
239.108978641
 30
0.000000000
 10
163.785067011
 20
239.397262422
 30
0.000000000
 10
171.698511274
 20
239.577195526
 30
0.000000000
 10
179.599209002
 20
239.746315853
 30
0.000000000
 10
184.041135693
 20
239.844963203
 30
0.000000000
 10
188.479841318
 20
239.936541022
 30
0.000000000
 10
192.911494811
 20
240.054329577
 30
0.000000000
 10
197.343230147
 20
240.172487337
 30
0.000000000
 10
201.768123278
 20
240.310907922
 30
0.000000000
 10
206.186174204
 20
240.469591332
 30
0.000000000
 10
208.886576411
 20
240.562468732
 30
0.000000000
 10
211.582331557
 20
240.653874485
 30
0.000000000
 10
214.280851189
 20
240.702993947
 30
0.000000000
 10
216.979037215
 20
240.754384485
 30
0.000000000
 10
219.679987727
 20
240.763488731
 30
0.000000000
 10
222.381773278
 20
240.753082187
 30
0.000000000
 10
225.083225221
 20
240.744946719
 30
0.000000000
 10
227.785512202
 20
240.717300461
 30
0.000000000
 10
230.477363775
 20
240.756509056
 30
0.000000000
 10
233.168881740
 20
240.797988729
 30
0.000000000
 10
235.849964297
 20
240.906323255
 30
0.000000000
 10
238.500000000
 20
241.231468426
 30
0.000000000
  0
SPLINE
  5
A4C
330
A02
100
AcDbEntity
  8
S03_FrontWing_Front
100
AcDbSpline
210
0
220
0
230
1
 70
8
 71
3
 72
62
 73
58
 74
0
 40
0.369098099
 40
0.369098099
 40
0.369098099
 40
0.369098099
 40
0.445960682
 40
0.445960682
 40
0.445960682
 40
0.476880725
 40
0.476880725
 40
0.476880725
 40
0.497135370
 40
0.497135370
 40
0.497135370
 40
0.503435361
 40
0.503435361
 40
0.503435361
 40
0.508080493
 40
0.508080493
 40
0.508080493
 40
0.512722871
 40
0.512722871
 40
0.512722871
 40
0.518969229
 40
0.518969229
 40
0.518969229
 40
0.538710268
 40
0.538710268
 40
0.538710268
 40
0.568295958
 40
0.568295958
 40
0.568295958
 40
0.606497895
 40
0.606497895
 40
0.606497895
 40
0.676034133
 40
0.676034133
 40
0.676034133
 40
0.755025134
 40
0.755025134
 40
0.755025134
 40
0.835075584
 40
0.835075584
 40
0.835075584
 40
0.927343182
 40
0.927343182
 40
0.927343182
 40
0.961858751
 40
0.961858751
 40
0.961858751
 40
0.986003487
 40
0.986003487
 40
0.986003487
 40
0.993741764
 40
0.993741764
 40
0.993741764
 40
0.998429767
 40
0.998429767
 40
0.998429767
 40
1.000000000
 40
1.000000000
 40
1.000000000
 40
1.000000000
 10
238.500000000
 20
139.323925754
 30
0.000000000
 10
238.500000000
 20
139.325697362
 30
0.000000000
 10
238.500000000
 20
139.427652606
 30
0.000000000
 10
238.500000000
 20
139.697606278
 30
0.000000000
 10
238.500000000
 20
139.807921182
 30
0.000000000
 10
238.500000000
 20
139.944992708
 30
0.000000000
 10
238.500000000
 20
140.136102458
 30
0.000000000
 10
238.500000000
 20
140.263271802
 30
0.000000000
 10
238.500000000
 20
140.408675674
 30
0.000000000
 10
238.500000000
 20
140.626970076
 30
0.000000000
 10
238.500000000
 20
140.693388375
 30
0.000000000
 10
238.500000000
 20
140.774122097
 30
0.000000000
 10
238.500000000
 20
140.869171244
 30
0.000000000
 10
238.500000000
 20
140.943469895
 30
0.000000000
 10
238.500000000
 20
141.020976193
 30
0.000000000
 10
238.500000000
 20
141.101690140
 30
0.000000000
 10
238.500000000
 20
141.181292925
 30
0.000000000
 10
238.500000000
 20
141.251299727
 30
0.000000000
 10
238.500000000
 20
141.311710549
 30
0.000000000
 10
238.500000000
 20
141.387893776
 30
0.000000000
 10
238.500000000
 20
141.446833194
 30
0.000000000
 10
238.500000000
 20
141.488528802
 30
0.000000000
 10
238.500000000
 20
141.627351778
 30
0.000000000
 10
238.500000000
 20
141.693327381
 30
0.000000000
 10
238.500000000
 20
141.748612568
 30
0.000000000
 10
238.500000000
 20
141.828160108
 30
0.000000000
 10
238.500000000
 20
141.870617377
 30
0.000000000
 10
238.500000000
 20
141.904720162
 30
0.000000000
 10
238.500000000
 20
141.944984161
 30
0.000000000
 10
238.500000000
 20
141.975565056
 30
0.000000000
 10
238.500000000
 20
141.996462847
 30
0.000000000
 10
238.500000000
 20
142.038154628
 30
0.000000000
 10
238.500000000
 20
142.073012514
 30
0.000000000
 10
238.500000000
 20
142.132739872
 30
0.000000000
 10
238.500000000
 20
142.199014454
 30
0.000000000
 10
238.500000000
 20
142.305683737
 30
0.000000000
 10
238.500000000
 20
142.400468176
 30
0.000000000
 10
238.500000000
 20
142.499177934
 30
0.000000000
 10
238.500000000
 20
142.610613145
 30
0.000000000
 10
238.500000000
 20
142.734773808
 30
0.000000000
 10
238.500000000
 20
142.878842142
 30
0.000000000
 10
238.500000000
 20
143.044965327
 30
0.000000000
 10
238.500000000
 20
143.233143362
 30
0.000000000
 10
238.500000000
 20
143.303497306
 30
0.000000000
 10
238.500000000
 20
143.376793087
 30
0.000000000
 10
238.500000000
 20
143.453030705
 30
0.000000000
 10
238.500000000
 20
143.510219683
 30
0.000000000
 10
238.500000000
 20
143.556334427
 30
0.000000000
 10
238.500000000
 20
143.616679169
 30
0.000000000
 10
238.500000000
 20
143.640465918
 30
0.000000000
 10
238.500000000
 20
143.658471318
 30
0.000000000
 10
238.500000000
 20
143.670695370
 30
0.000000000
 10
238.500000000
 20
143.676213964
 30
0.000000000
 10
238.500000000
 20
143.676181186
 30
0.000000000
 10
238.500000000
 20
143.703767269
 30
0.000000000
 10
238.500000000
 20
143.713007149
 30
0.000000000
 10
238.500000000
 20
143.725345578
 30
0.000000000
 10
238.500000000
 20
143.714901722
 30
0.000000000
  0
SPLINE
  5
A4D
330
A02
100
AcDbEntity
  8
S03_FrontWing_Front
100
AcDbSpline
210
0
220
0
230
1
 70
8
 71
3
 72
35
 73
31
 74
0
 40
0.000000000
 40
0.000000000
 40
0.000000000
 40
0.000000000
 40
0.093967862
 40
0.093967862
 40
0.093967862
 40
0.195522842
 40
0.195522842
 40
0.195522842
 40
0.297045794
 40
0.297045794
 40
0.297045794
 40
0.398537967
 40
0.398537967
 40
0.398537967
 40
0.500000000
 40
0.500000000
 40
0.500000000
 40
0.601462033
 40
0.601462033
 40
0.601462033
 40
0.702954206
 40
0.702954206
 40
0.702954206
 40
0.804477158
 40
0.804477158
 40
0.804477158
 40
0.906032138
 40
0.906032138
 40
0.906032138
 40
1.000000000
 40
1.000000000
 40
1.000000000
 40
1.000000000
 10
238.500000000
 20
143.714901722
 30
0.000000000
 10
232.302197166
 20
142.969841964
 30
0.000000000
 10
226.158698636
 20
142.855891905
 30
0.000000000
 10
220.000000000
 20
142.603117206
 30
0.000000000
 10
213.344038084
 20
142.329933069
 30
0.000000000
 10
206.670322406
 20
141.894601413
 30
0.000000000
 10
200.000000000
 20
141.529928501
 30
0.000000000
 10
193.331781197
 20
141.165370594
 30
0.000000000
 10
186.666953526
 20
140.871426870
 30
0.000000000
 10
180.000000000
 20
140.606357319
 30
0.000000000
 10
173.335067789
 20
140.341368134
 30
0.000000000
 10
166.668011012
 20
140.105235616
 30
0.000000000
 10
160.000000000
 20
139.859293881
 30
0.000000000
 10
153.333969112
 20
139.613425181
 30
0.000000000
 10
146.666984556
 20
139.357753090
 30
0.000000000
 10
140.000000000
 20
139.357753090
 30
0.000000000
 10
133.333015444
 20
139.357753090
 30
0.000000000
 10
126.666030888
 20
139.613425181
 30
0.000000000
 10
120.000000000
 20
139.859293881
 30
0.000000000
 10
113.331988988
 20
140.105235616
 30
0.000000000
 10
106.664932211
 20
140.341368134
 30
0.000000000
 10
100.000000000
 20
140.606357319
 30
0.000000000
 10
93.333046474
 20
140.871426870
 30
0.000000000
 10
86.668218803
 20
141.165370594
 30
0.000000000
 10
80.000000000
 20
141.529928501
 30
0.000000000
 10
73.329677594
 20
141.894601413
 30
0.000000000
 10
66.655961916
 20
142.329933069
 30
0.000000000
 10
60.000000000
 20
142.603117206
 30
0.000000000
 10
53.841301364
 20
142.855891905
 30
0.000000000
 10
47.697802834
 20
142.969841964
 30
0.000000000
 10
41.500000000
 20
143.714901722
 30
0.000000000
  0
SPLINE
  5
A4E
330
A02
100
AcDbEntity
  8
S03_FrontWing_Front
100
AcDbSpline
210
0
220
0
230
1
 70
8
 71
3
 72
62
 73
58
 74
0
 40
0.369098099
 40
0.369098099
 40
0.369098099
 40
0.369098099
 40
0.445960682
 40
0.445960682
 40
0.445960682
 40
0.476880725
 40
0.476880725
 40
0.476880725
 40
0.497135370
 40
0.497135370
 40
0.497135370
 40
0.503435361
 40
0.503435361
 40
0.503435361
 40
0.508080493
 40
0.508080493
 40
0.508080493
 40
0.512722871
 40
0.512722871
 40
0.512722871
 40
0.518969229
 40
0.518969229
 40
0.518969229
 40
0.538710268
 40
0.538710268
 40
0.538710268
 40
0.568295958
 40
0.568295958
 40
0.568295958
 40
0.606497895
 40
0.606497895
 40
0.606497895
 40
0.676034133
 40
0.676034133
 40
0.676034133
 40
0.755025134
 40
0.755025134
 40
0.755025134
 40
0.835075584
 40
0.835075584
 40
0.835075584
 40
0.927343182
 40
0.927343182
 40
0.927343182
 40
0.961858751
 40
0.961858751
 40
0.961858751
 40
0.986003487
 40
0.986003487
 40
0.986003487
 40
0.993741764
 40
0.993741764
 40
0.993741764
 40
0.998429767
 40
0.998429767
 40
0.998429767
 40
1.000000000
 40
1.000000000
 40
1.000000000
 40
1.000000000
 10
41.500000000
 20
139.323925754
 30
0.000000000
 10
41.500000000
 20
139.325697362
 30
0.000000000
 10
41.500000000
 20
139.427652606
 30
0.000000000
 10
41.500000000
 20
139.697606278
 30
0.000000000
 10
41.500000000
 20
139.807921182
 30
0.000000000
 10
41.500000000
 20
139.944992708
 30
0.000000000
 10
41.500000000
 20
140.136102458
 30
0.000000000
 10
41.500000000
 20
140.263271802
 30
0.000000000
 10
41.500000000
 20
140.408675674
 30
0.000000000
 10
41.500000000
 20
140.626970076
 30
0.000000000
 10
41.500000000
 20
140.693388375
 30
0.000000000
 10
41.500000000
 20
140.774122097
 30
0.000000000
 10
41.500000000
 20
140.869171244
 30
0.000000000
 10
41.500000000
 20
140.943469895
 30
0.000000000
 10
41.500000000
 20
141.020976193
 30
0.000000000
 10
41.500000000
 20
141.101690140
 30
0.000000000
 10
41.500000000
 20
141.181292925
 30
0.000000000
 10
41.500000000
 20
141.251299727
 30
0.000000000
 10
41.500000000
 20
141.311710549
 30
0.000000000
 10
41.500000000
 20
141.387893776
 30
0.000000000
 10
41.500000000
 20
141.446833194
 30
0.000000000
 10
41.500000000
 20
141.488528802
 30
0.000000000
 10
41.500000000
 20
141.627351778
 30
0.000000000
 10
41.500000000
 20
141.693327381
 30
0.000000000
 10
41.500000000
 20
141.748612568
 30
0.000000000
 10
41.500000000
 20
141.828160108
 30
0.000000000
 10
41.500000000
 20
141.870617377
 30
0.000000000
 10
41.500000000
 20
141.904720162
 30
0.000000000
 10
41.500000000
 20
141.944984161
 30
0.000000000
 10
41.500000000
 20
141.975565056
 30
0.000000000
 10
41.500000000
 20
141.996462847
 30
0.000000000
 10
41.500000000
 20
142.038154628
 30
0.000000000
 10
41.500000000
 20
142.073012514
 30
0.000000000
 10
41.500000000
 20
142.132739872
 30
0.000000000
 10
41.500000000
 20
142.199014454
 30
0.000000000
 10
41.500000000
 20
142.305683737
 30
0.000000000
 10
41.500000000
 20
142.400468176
 30
0.000000000
 10
41.500000000
 20
142.499177934
 30
0.000000000
 10
41.500000000
 20
142.610613145
 30
0.000000000
 10
41.500000000
 20
142.734773808
 30
0.000000000
 10
41.500000000
 20
142.878842142
 30
0.000000000
 10
41.500000000
 20
143.044965327
 30
0.000000000
 10
41.500000000
 20
143.233143362
 30
0.000000000
 10
41.500000000
 20
143.303497306
 30
0.000000000
 10
41.500000000
 20
143.376793087
 30
0.000000000
 10
41.500000000
 20
143.453030705
 30
0.000000000
 10
41.500000000
 20
143.510219683
 30
0.000000000
 10
41.500000000
 20
143.556334427
 30
0.000000000
 10
41.500000000
 20
143.616679169
 30
0.000000000
 10
41.500000000
 20
143.640465918
 30
0.000000000
 10
41.500000000
 20
143.658471318
 30
0.000000000
 10
41.500000000
 20
143.670695370
 30
0.000000000
 10
41.500000000
 20
143.676213964
 30
0.000000000
 10
41.500000000
 20
143.676181186
 30
0.000000000
 10
41.500000000
 20
143.703767269
 30
0.000000000
 10
41.500000000
 20
143.713007149
 30
0.000000000
 10
41.500000000
 20
143.725345578
 30
0.000000000
 10
41.500000000
 20
143.714901722
 30
0.000000000
  0
SPLINE
  5
A4F
330
A02
100
AcDbEntity
  8
S03_FrontWing_Front
100
AcDbSpline
210
0
220
0
230
1
 70
9
 71
3
 72
65
 73
61
 74
0
 40
0.000000000
 40
0.000000000
 40
0.000000000
 40
0.000000000
 40
0.248621079
 40
0.248621079
 40
0.248621079
 40
0.303912933
 40
0.303912933
 40
0.303912933
 40
0.382234349
 40
0.382234349
 40
0.382234349
 40
0.445960682
 40
0.445960682
 40
0.445960682
 40
0.476880725
 40
0.476880725
 40
0.476880725
 40
0.497135370
 40
0.497135370
 40
0.497135370
 40
0.503435361
 40
0.503435361
 40
0.503435361
 40
0.512722871
 40
0.512722871
 40
0.512722871
 40
0.527575212
 40
0.527575212
 40
0.527575212
 40
0.568295958
 40
0.568295958
 40
0.568295958
 40
0.628287889
 40
0.628287889
 40
0.628287889
 40
0.701480410
 40
0.701480410
 40
0.701480410
 40
0.755025134
 40
0.755025134
 40
0.755025134
 40
0.884328732
 40
0.884328732
 40
0.884328732
 40
0.945791059
 40
0.945791059
 40
0.945791059
 40
0.975325505
 40
0.975325505
 40
0.975325505
 40
0.986003487
 40
0.986003487
 40
0.986003487
 40
0.993741764
 40
0.993741764
 40
0.993741764
 40
0.998429767
 40
0.998429767
 40
0.998429767
 40
1.000000000
 40
1.000000000
 40
1.000000000
 40
1.000000000
 10
238.500000000
 20
152.595395635
 30
0.000000000
 10
238.500000000
 20
150.893081404
 30
0.000000000
 10
238.500000000
 20
149.399246919
 30
0.000000000
 10
238.500000000
 20
148.166894018
 30
0.000000000
 10
238.500000000
 20
147.893058230
 30
0.000000000
 10
238.500000000
 20
147.635461365
 30
0.000000000
 10
238.500000000
 20
147.394103424
 30
0.000000000
 10
238.500000000
 20
147.052726676
 30
0.000000000
 10
238.500000000
 20
146.774573605
 30
0.000000000
 10
238.500000000
 20
146.559644210
 30
0.000000000
 10
238.500000000
 20
146.388223960
 30
0.000000000
 10
238.500000000
 20
146.262127362
 30
0.000000000
 10
238.500000000
 20
146.212537337
 30
0.000000000
 10
238.500000000
 20
146.189430558
 30
0.000000000
 10
238.500000000
 20
146.183595392
 30
0.000000000
 10
238.500000000
 20
146.214341754
 30
0.000000000
 10
238.500000000
 20
146.235986772
 30
0.000000000
 10
238.500000000
 20
146.269353474
 30
0.000000000
 10
238.500000000
 20
146.355887366
 30
0.000000000
 10
238.500000000
 20
146.381353701
 30
0.000000000
 10
238.500000000
 20
146.418509763
 30
0.000000000
 10
238.500000000
 20
146.467355550
 30
0.000000000
 10
238.500000000
 20
146.541281224
 30
0.000000000
 10
238.500000000
 20
146.657591640
 30
0.000000000
 10
238.500000000
 20
146.750483786
 30
0.000000000
 10
238.500000000
 20
146.894350863
 30
0.000000000
 10
238.500000000
 20
146.983168070
 30
0.000000000
 10
238.500000000
 20
147.068726372
 30
0.000000000
 10
238.500000000
 20
147.292399637
 30
0.000000000
 10
238.500000000
 20
147.446496375
 30
0.000000000
 10
238.500000000
 20
147.599680565
 30
0.000000000
 10
238.500000000
 20
147.820656342
 30
0.000000000
 10
238.500000000
 20
148.018189802
 30
0.000000000
 10
238.500000000
 20
148.220647972
 30
0.000000000
 10
238.500000000
 20
148.463936382
 30
0.000000000
 10
238.500000000
 20
148.719366688
 30
0.000000000
 10
238.500000000
 20
148.986938891
 30
0.000000000
 10
238.500000000
 20
149.185811506
 30
0.000000000
 10
238.500000000
 20
149.386133796
 30
0.000000000
 10
238.500000000
 20
149.587905761
 30
0.000000000
 10
238.500000000
 20
150.072743669
 30
0.000000000
 10
238.500000000
 20
150.580027574
 30
0.000000000
 10
238.500000000
 20
151.109757479
 30
0.000000000
 10
238.500000000
 20
151.362403786
 30
0.000000000
 10
238.500000000
 20
151.620791789
 30
0.000000000
 10
238.500000000
 20
151.884921487
 30
0.000000000
 10
238.500000000
 20
152.012009077
 30
0.000000000
 10
238.500000000
 20
152.140096909
 30
0.000000000
 10
238.500000000
 20
152.269184984
 30
0.000000000
 10
238.500000000
 20
152.312788299
 30
0.000000000
 10
238.500000000
 20
152.359663464
 30
0.000000000
 10
238.500000000
 20
152.409810478
 30
0.000000000
 10
238.500000000
 20
152.447377097
 30
0.000000000
 10
238.500000000
 20
152.489326035
 30
0.000000000
 10
238.500000000
 20
152.512244966
 30
0.000000000
 10
238.500000000
 20
152.526129715
 30
0.000000000
 10
238.500000000
 20
152.533030110
 30
0.000000000
 10
238.500000000
 20
152.574507309
 30
0.000000000
 10
238.500000000
 20
152.588399979
 30
0.000000000
 10
238.500000000
 20
152.606171807
 30
0.000000000
 10
238.500000000
 20
152.595395635
 30
0.000000000
  0
SPLINE
  5
A50
330
A02
100
AcDbEntity
  8
S03_FrontWing_Front
100
AcDbSpline
210
0
220
0
230
1
 70
8
 71
3
 72
20
 73
16
 74
0
 40
0.000000000
 40
0.000000000
 40
0.000000000
 40
0.000000000
 40
0.094089184
 40
0.094089184
 40
0.094089184
 40
0.195709003
 40
0.195709003
 40
0.195709003
 40
0.297231074
 40
0.297231074
 40
0.297231074
 40
0.398660281
 40
0.398660281
 40
0.398660281
 40
0.477202216
 40
0.477202216
 40
0.477202216
 40
0.477202216
 10
238.500000000
 20
152.595395635
 30
0.000000000
 10
232.300777405
 20
151.215313379
 30
0.000000000
 10
226.159712874
 20
151.013062922
 30
0.000000000
 10
220.000000000
 20
150.552279390
 30
0.000000000
 10
213.347280946
 20
150.054616034
 30
0.000000000
 10
206.672808965
 20
149.255378923
 30
0.000000000
 10
200.000000000
 20
148.588107432
 30
0.000000000
 10
193.333609610
 20
147.921477790
 30
0.000000000
 10
186.668879038
 20
147.386560014
 30
0.000000000
 10
180.000000000
 20
146.905037279
 30
0.000000000
 10
173.337221090
 20
146.423954999
 30
0.000000000
 10
166.670301301
 20
145.996170122
 30
0.000000000
 10
160.000000000
 20
145.548400297
 30
0.000000000
 10
154.834837132
 20
145.201668722
 30
0.000000000
 10
149.667646637
 20
144.842953744
 30
0.000000000
 10
144.500000000
 20
144.699105528
 30
0.000000000
  0
SPLINE
  5
A51
330
A02
100
AcDbEntity
  8
S03_FrontWing_Front
100
AcDbSpline
210
0
220
0
230
1
 70
8
 71
2
 72
6
 73
3
 74
0
 40
0.481255207
 40
0.481255207
 40
0.481255207
 40
0.518744793
 40
0.518744793
 40
0.518744793
 10
143.700000000
 20
144.678584226
 30
0.000000000
 10
140.000000000
 20
144.589396090
 30
0.000000000
 10
136.300000000
 20
144.678584226
 30
0.000000000
  0
SPLINE
  5
A52
330
A02
100
AcDbEntity
  8
S03_FrontWing_Front
100
AcDbSpline
210
0
220
0
230
1
 70
8
 71
3
 72
20
 73
16
 74
0
 40
0.522797784
 40
0.522797784
 40
0.522797784
 40
0.522797784
 40
0.601339719
 40
0.601339719
 40
0.601339719
 40
0.702768926
 40
0.702768926
 40
0.702768926
 40
0.804290997
 40
0.804290997
 40
0.804290997
 40
0.905910816
 40
0.905910816
 40
0.905910816
 40
1.000000000
 40
1.000000000
 40
1.000000000
 40
1.000000000
 10
135.500000000
 20
144.699105528
 30
0.000000000
 10
130.332353363
 20
144.842953744
 30
0.000000000
 10
125.165162868
 20
145.201668722
 30
0.000000000
 10
120.000000000
 20
145.548400297
 30
0.000000000
 10
113.329698699
 20
145.996170122
 30
0.000000000
 10
106.662778910
 20
146.423954999
 30
0.000000000
 10
100.000000000
 20
146.905037279
 30
0.000000000
 10
93.331120962
 20
147.386560014
 30
0.000000000
 10
86.666390390
 20
147.921477790
 30
0.000000000
 10
80.000000000
 20
148.588107432
 30
0.000000000
 10
73.327191035
 20
149.255378923
 30
0.000000000
 10
66.652719054
 20
150.054616034
 30
0.000000000
 10
60.000000000
 20
150.552279390
 30
0.000000000
 10
53.840287126
 20
151.013062922
 30
0.000000000
 10
47.699222595
 20
151.215313379
 30
0.000000000
 10
41.500000000
 20
152.595395635
 30
0.000000000
  0
SPLINE
  5
A53
330
A02
100
AcDbEntity
  8
S03_FrontWing_Front
100
AcDbSpline
210
0
220
0
230
1
 70
9
 71
3
 72
65
 73
61
 74
0
 40
0.000000000
 40
0.000000000
 40
0.000000000
 40
0.000000000
 40
0.248621079
 40
0.248621079
 40
0.248621079
 40
0.303912933
 40
0.303912933
 40
0.303912933
 40
0.382234349
 40
0.382234349
 40
0.382234349
 40
0.445960682
 40
0.445960682
 40
0.445960682
 40
0.476880725
 40
0.476880725
 40
0.476880725
 40
0.497135370
 40
0.497135370
 40
0.497135370
 40
0.503435361
 40
0.503435361
 40
0.503435361
 40
0.512722871
 40
0.512722871
 40
0.512722871
 40
0.527575212
 40
0.527575212
 40
0.527575212
 40
0.568295958
 40
0.568295958
 40
0.568295958
 40
0.628287889
 40
0.628287889
 40
0.628287889
 40
0.701480410
 40
0.701480410
 40
0.701480410
 40
0.755025134
 40
0.755025134
 40
0.755025134
 40
0.884328732
 40
0.884328732
 40
0.884328732
 40
0.945791059
 40
0.945791059
 40
0.945791059
 40
0.975325505
 40
0.975325505
 40
0.975325505
 40
0.986003487
 40
0.986003487
 40
0.986003487
 40
0.993741764
 40
0.993741764
 40
0.993741764
 40
0.998429767
 40
0.998429767
 40
0.998429767
 40
1.000000000
 40
1.000000000
 40
1.000000000
 40
1.000000000
 10
41.500000000
 20
152.595395635
 30
0.000000000
 10
41.500000000
 20
150.893081404
 30
0.000000000
 10
41.500000000
 20
149.399246919
 30
0.000000000
 10
41.500000000
 20
148.166894018
 30
0.000000000
 10
41.500000000
 20
147.893058230
 30
0.000000000
 10
41.500000000
 20
147.635461365
 30
0.000000000
 10
41.500000000
 20
147.394103424
 30
0.000000000
 10
41.500000000
 20
147.052726676
 30
0.000000000
 10
41.500000000
 20
146.774573605
 30
0.000000000
 10
41.500000000
 20
146.559644210
 30
0.000000000
 10
41.500000000
 20
146.388223960
 30
0.000000000
 10
41.500000000
 20
146.262127362
 30
0.000000000
 10
41.500000000
 20
146.212537337
 30
0.000000000
 10
41.500000000
 20
146.189430558
 30
0.000000000
 10
41.500000000
 20
146.183595392
 30
0.000000000
 10
41.500000000
 20
146.214341754
 30
0.000000000
 10
41.500000000
 20
146.235986772
 30
0.000000000
 10
41.500000000
 20
146.269353474
 30
0.000000000
 10
41.500000000
 20
146.355887366
 30
0.000000000
 10
41.500000000
 20
146.381353701
 30
0.000000000
 10
41.500000000
 20
146.418509763
 30
0.000000000
 10
41.500000000
 20
146.467355550
 30
0.000000000
 10
41.500000000
 20
146.541281224
 30
0.000000000
 10
41.500000000
 20
146.657591640
 30
0.000000000
 10
41.500000000
 20
146.750483786
 30
0.000000000
 10
41.500000000
 20
146.894350863
 30
0.000000000
 10
41.500000000
 20
146.983168070
 30
0.000000000
 10
41.500000000
 20
147.068726372
 30
0.000000000
 10
41.500000000
 20
147.292399637
 30
0.000000000
 10
41.500000000
 20
147.446496375
 30
0.000000000
 10
41.500000000
 20
147.599680565
 30
0.000000000
 10
41.500000000
 20
147.820656342
 30
0.000000000
 10
41.500000000
 20
148.018189802
 30
0.000000000
 10
41.500000000
 20
148.220647972
 30
0.000000000
 10
41.500000000
 20
148.463936382
 30
0.000000000
 10
41.500000000
 20
148.719366688
 30
0.000000000
 10
41.500000000
 20
148.986938891
 30
0.000000000
 10
41.500000000
 20
149.185811506
 30
0.000000000
 10
41.500000000
 20
149.386133796
 30
0.000000000
 10
41.500000000
 20
149.587905761
 30
0.000000000
 10
41.500000000
 20
150.072743669
 30
0.000000000
 10
41.500000000
 20
150.580027574
 30
0.000000000
 10
41.500000000
 20
151.109757479
 30
0.000000000
 10
41.500000000
 20
151.362403786
 30
0.000000000
 10
41.500000000
 20
151.620791789
 30
0.000000000
 10
41.500000000
 20
151.884921487
 30
0.000000000
 10
41.500000000
 20
152.012009077
 30
0.000000000
 10
41.500000000
 20
152.140096909
 30
0.000000000
 10
41.500000000
 20
152.269184984
 30
0.000000000
 10
41.500000000
 20
152.312788299
 30
0.000000000
 10
41.500000000
 20
152.359663464
 30
0.000000000
 10
41.500000000
 20
152.409810478
 30
0.000000000
 10
41.500000000
 20
152.447377097
 30
0.000000000
 10
41.500000000
 20
152.489326035
 30
0.000000000
 10
41.500000000
 20
152.512244966
 30
0.000000000
 10
41.500000000
 20
152.526129715
 30
0.000000000
 10
41.500000000
 20
152.533030110
 30
0.000000000
 10
41.500000000
 20
152.574507309
 30
0.000000000
 10
41.500000000
 20
152.588399979
 30
0.000000000
 10
41.500000000
 20
152.606171807
 30
0.000000000
 10
41.500000000
 20
152.595395635
 30
0.000000000
  0
SPLINE
  5
A54
330
A02
100
AcDbEntity
  8
S03_FrontWing_Front
100
AcDbSpline
210
0
220
0
230
1
 70
8
 71
3
 72
50
 73
46
 74
0
 40
0.485074099
 40
0.485074099
 40
0.485074099
 40
0.485074099
 40
0.497135370
 40
0.497135370
 40
0.497135370
 40
0.503435361
 40
0.503435361
 40
0.503435361
 40
0.512722871
 40
0.512722871
 40
0.512722871
 40
0.518969229
 40
0.518969229
 40
0.518969229
 40
0.552329641
 40
0.552329641
 40
0.552329641
 40
0.628287889
 40
0.628287889
 40
0.628287889
 40
0.701480410
 40
0.701480410
 40
0.701480410
 40
0.755025134
 40
0.755025134
 40
0.755025134
 40
0.884328732
 40
0.884328732
 40
0.884328732
 40
0.945791059
 40
0.945791059
 40
0.945791059
 40
0.975325505
 40
0.975325505
 40
0.975325505
 40
0.986003487
 40
0.986003487
 40
0.986003487
 40
0.993741764
 40
0.993741764
 40
0.993741764
 40
0.998429767
 40
0.998429767
 40
0.998429767
 40
1.000000000
 40
1.000000000
 40
1.000000000
 40
1.000000000
 10
238.500000000
 20
153.407833177
 30
0.000000000
 10
238.500000000
 20
153.406170410
 30
0.000000000
 10
238.500000000
 20
153.416752983
 30
0.000000000
 10
238.500000000
 20
153.439580897
 30
0.000000000
 10
238.500000000
 20
153.450730093
 30
0.000000000
 10
238.500000000
 20
153.472295025
 30
0.000000000
 10
238.500000000
 20
153.504275692
 30
0.000000000
 10
238.500000000
 20
153.552319214
 30
0.000000000
 10
238.500000000
 20
153.643101171
 30
0.000000000
 10
238.500000000
 20
153.725158835
 30
0.000000000
 10
238.500000000
 20
153.778410952
 30
0.000000000
 10
238.500000000
 20
153.826191340
 30
0.000000000
 10
238.500000000
 20
153.868500002
 30
0.000000000
 10
238.500000000
 20
154.094216279
 30
0.000000000
 10
238.500000000
 20
154.252334242
 30
0.000000000
 10
238.500000000
 20
154.411215924
 30
0.000000000
 10
238.500000000
 20
154.763745468
 30
0.000000000
 10
238.500000000
 20
155.070566089
 30
0.000000000
 10
238.500000000
 20
155.388080237
 30
0.000000000
 10
238.500000000
 20
155.690144416
 30
0.000000000
 10
238.500000000
 20
156.001344431
 30
0.000000000
 10
238.500000000
 20
156.321680283
 30
0.000000000
 10
238.500000000
 20
156.558362891
 30
0.000000000
 10
238.500000000
 20
156.796130952
 30
0.000000000
 10
238.500000000
 20
157.034984464
 30
0.000000000
 10
238.500000000
 20
157.609999148
 30
0.000000000
 10
238.500000000
 20
158.201752627
 30
0.000000000
 10
238.500000000
 20
158.810244901
 30
0.000000000
 10
238.500000000
 20
159.100108124
 30
0.000000000
 10
238.500000000
 20
159.394224989
 30
0.000000000
 10
238.500000000
 20
159.692595497
 30
0.000000000
 10
238.500000000
 20
159.834084693
 30
0.000000000
 10
238.500000000
 20
159.982449962
 30
0.000000000
 10
238.500000000
 20
160.125307679
 30
0.000000000
 10
238.500000000
 20
160.174543128
 30
0.000000000
 10
238.500000000
 20
160.227109199
 30
0.000000000
 10
238.500000000
 20
160.283005892
 30
0.000000000
 10
238.500000000
 20
160.324777185
 30
0.000000000
 10
238.500000000
 20
160.371044089
 30
0.000000000
 10
238.500000000
 20
160.397675616
 30
0.000000000
 10
238.500000000
 20
160.413809529
 30
0.000000000
 10
238.500000000
 20
160.422736906
 30
0.000000000
 10
238.500000000
 20
160.467296411
 30
0.000000000
 10
238.500000000
 20
160.482221491
 30
0.000000000
 10
238.500000000
 20
160.501144124
 30
0.000000000
 10
238.500000000
 20
160.490640575
 30
0.000000000
  0
SPLINE
  5
A55
330
A02
100
AcDbEntity
  8
S03_FrontWing_Front
100
AcDbSpline
210
0
220
0
230
1
 70
8
 71
3
 72
35
 73
31
 74
0
 40
0.000000000
 40
0.000000000
 40
0.000000000
 40
0.000000000
 40
0.094319576
 40
0.094319576
 40
0.094319576
 40
0.196062860
 40
0.196062860
 40
0.196062860
 40
0.297583158
 40
0.297583158
 40
0.297583158
 40
0.398892018
 40
0.398892018
 40
0.398892018
 40
0.500000000
 40
0.500000000
 40
0.500000000
 40
0.601107982
 40
0.601107982
 40
0.601107982
 40
0.702416842
 40
0.702416842
 40
0.702416842
 40
0.803937140
 40
0.803937140
 40
0.803937140
 40
0.905680424
 40
0.905680424
 40
0.905680424
 40
1.000000000
 40
1.000000000
 40
1.000000000
 40
1.000000000
 10
238.500000000
 20
160.490640575
 30
0.000000000
 10
232.298152901
 20
158.697269324
 30
0.000000000
 10
226.161644399
 20
158.308205024
 30
0.000000000
 10
220.000000000
 20
157.622016962
 30
0.000000000
 10
213.353384663
 20
156.881820384
 30
0.000000000
 10
206.677520920
 20
155.795887318
 30
0.000000000
 10
200.000000000
 20
154.879570907
 30
0.000000000
 10
193.337113991
 20
153.965262758
 30
0.000000000
 10
186.672578061
 20
153.219828593
 30
0.000000000
 10
180.000000000
 20
152.552711730
 30
0.000000000
 10
173.341318956
 20
151.886984275
 30
0.000000000
 10
166.674629244
 20
151.299248238
 30
0.000000000
 10
160.000000000
 20
150.713681394
 30
0.000000000
 10
153.338605385
 20
150.129275628
 30
0.000000000
 10
146.669302693
 20
149.547030461
 30
0.000000000
 10
140.000000000
 20
149.547030461
 30
0.000000000
 10
133.330697307
 20
149.547030461
 30
0.000000000
 10
126.661394615
 20
150.129275628
 30
0.000000000
 10
120.000000000
 20
150.713681394
 30
0.000000000
 10
113.325370756
 20
151.299248238
 30
0.000000000
 10
106.658681044
 20
151.886984275
 30
0.000000000
 10
100.000000000
 20
152.552711730
 30
0.000000000
 10
93.327421939
 20
153.219828593
 30
0.000000000
 10
86.662886009
 20
153.965262758
 30
0.000000000
 10
80.000000000
 20
154.879570907
 30
0.000000000
 10
73.322479080
 20
155.795887318
 30
0.000000000
 10
66.646615337
 20
156.881820384
 30
0.000000000
 10
60.000000000
 20
157.622016962
 30
0.000000000
 10
53.838355601
 20
158.308205024
 30
0.000000000
 10
47.701847099
 20
158.697269324
 30
0.000000000
 10
41.500000000
 20
160.490640575
 30
0.000000000
  0
SPLINE
  5
A56
330
A02
100
AcDbEntity
  8
S03_FrontWing_Front
100
AcDbSpline
210
0
220
0
230
1
 70
8
 71
3
 72
50
 73
46
 74
0
 40
0.485074099
 40
0.485074099
 40
0.485074099
 40
0.485074099
 40
0.497135370
 40
0.497135370
 40
0.497135370
 40
0.503435361
 40
0.503435361
 40
0.503435361
 40
0.512722871
 40
0.512722871
 40
0.512722871
 40
0.518969229
 40
0.518969229
 40
0.518969229
 40
0.552329641
 40
0.552329641
 40
0.552329641
 40
0.628287889
 40
0.628287889
 40
0.628287889
 40
0.701480410
 40
0.701480410
 40
0.701480410
 40
0.755025134
 40
0.755025134
 40
0.755025134
 40
0.884328732
 40
0.884328732
 40
0.884328732
 40
0.945791059
 40
0.945791059
 40
0.945791059
 40
0.975325505
 40
0.975325505
 40
0.975325505
 40
0.986003487
 40
0.986003487
 40
0.986003487
 40
0.993741764
 40
0.993741764
 40
0.993741764
 40
0.998429767
 40
0.998429767
 40
0.998429767
 40
1.000000000
 40
1.000000000
 40
1.000000000
 40
1.000000000
 10
41.500000000
 20
153.407833177
 30
0.000000000
 10
41.500000000
 20
153.406170410
 30
0.000000000
 10
41.500000000
 20
153.416752983
 30
0.000000000
 10
41.500000000
 20
153.439580897
 30
0.000000000
 10
41.500000000
 20
153.450730093
 30
0.000000000
 10
41.500000000
 20
153.472295025
 30
0.000000000
 10
41.500000000
 20
153.504275692
 30
0.000000000
 10
41.500000000
 20
153.552319214
 30
0.000000000
 10
41.500000000
 20
153.643101171
 30
0.000000000
 10
41.500000000
 20
153.725158835
 30
0.000000000
 10
41.500000000
 20
153.778410952
 30
0.000000000
 10
41.500000000
 20
153.826191340
 30
0.000000000
 10
41.500000000
 20
153.868500002
 30
0.000000000
 10
41.500000000
 20
154.094216279
 30
0.000000000
 10
41.500000000
 20
154.252334242
 30
0.000000000
 10
41.500000000
 20
154.411215924
 30
0.000000000
 10
41.500000000
 20
154.763745468
 30
0.000000000
 10
41.500000000
 20
155.070566089
 30
0.000000000
 10
41.500000000
 20
155.388080237
 30
0.000000000
 10
41.500000000
 20
155.690144416
 30
0.000000000
 10
41.500000000
 20
156.001344431
 30
0.000000000
 10
41.500000000
 20
156.321680283
 30
0.000000000
 10
41.500000000
 20
156.558362891
 30
0.000000000
 10
41.500000000
 20
156.796130952
 30
0.000000000
 10
41.500000000
 20
157.034984464
 30
0.000000000
 10
41.500000000
 20
157.609999148
 30
0.000000000
 10
41.500000000
 20
158.201752627
 30
0.000000000
 10
41.500000000
 20
158.810244901
 30
0.000000000
 10
41.500000000
 20
159.100108124
 30
0.000000000
 10
41.500000000
 20
159.394224989
 30
0.000000000
 10
41.500000000
 20
159.692595497
 30
0.000000000
 10
41.500000000
 20
159.834084693
 30
0.000000000
 10
41.500000000
 20
159.982449962
 30
0.000000000
 10
41.500000000
 20
160.125307679
 30
0.000000000
 10
41.500000000
 20
160.174543128
 30
0.000000000
 10
41.500000000
 20
160.227109199
 30
0.000000000
 10
41.500000000
 20
160.283005892
 30
0.000000000
 10
41.500000000
 20
160.324777185
 30
0.000000000
 10
41.500000000
 20
160.371044089
 30
0.000000000
 10
41.500000000
 20
160.397675616
 30
0.000000000
 10
41.500000000
 20
160.413809529
 30
0.000000000
 10
41.500000000
 20
160.422736906
 30
0.000000000
 10
41.500000000
 20
160.467296411
 30
0.000000000
 10
41.500000000
 20
160.482221491
 30
0.000000000
 10
41.500000000
 20
160.501144124
 30
0.000000000
 10
41.500000000
 20
160.490640575
 30
0.000000000
  0
SPLINE
  5
A57
330
A02
100
AcDbEntity
  8
S03_FrontWing_Front
100
AcDbSpline
210
0
220
0
230
1
 70
8
 71
3
 72
20
 73
16
 74
0
 40
0.000000000
 40
0.000000000
 40
0.000000000
 40
0.000000000
 40
0.248621079
 40
0.248621079
 40
0.248621079
 40
0.382234349
 40
0.382234349
 40
0.382234349
 40
0.445960682
 40
0.445960682
 40
0.445960682
 40
0.476880725
 40
0.476880725
 40
0.476880725
 40
0.496300755
 40
0.496300755
 40
0.496300755
 40
0.496300755
 10
238.500000000
 20
167.895603030
 30
0.000000000
 10
238.500000000
 20
166.340254735
 30
0.000000000
 10
238.500000000
 20
164.869834495
 30
0.000000000
 10
238.500000000
 20
163.525444275
 30
0.000000000
 10
238.500000000
 20
162.804529808
 30
0.000000000
 10
238.500000000
 20
162.114451250
 30
0.000000000
 10
238.500000000
 20
161.549256307
 30
0.000000000
 10
238.500000000
 20
161.279251022
 30
0.000000000
 10
238.500000000
 20
161.033591056
 30
0.000000000
 10
238.500000000
 20
160.832727920
 30
0.000000000
 10
238.500000000
 20
160.733767996
 30
0.000000000
 10
238.500000000
 20
160.651217912
 30
0.000000000
 10
238.500000000
 20
160.585077668
 30
0.000000000
 10
238.500000000
 20
160.545764487
 30
0.000000000
 10
238.500000000
 20
160.513177661
 30
0.000000000
 10
238.500000000
 20
160.512158497
 30
0.000000000
  0
SPLINE
  5
A58
330
A02
100
AcDbEntity
  8
S03_FrontWing_Front
100
AcDbSpline
210
0
220
0
230
1
 70
8
 71
3
 72
47
 73
43
 74
0
 40
0.496300755
 40
0.496300755
 40
0.496300755
 40
0.496300755
 40
0.503435361
 40
0.503435361
 40
0.503435361
 40
0.512722871
 40
0.512722871
 40
0.512722871
 40
0.527575212
 40
0.527575212
 40
0.527575212
 40
0.568295958
 40
0.568295958
 40
0.568295958
 40
0.628287889
 40
0.628287889
 40
0.628287889
 40
0.701480410
 40
0.701480410
 40
0.701480410
 40
0.755025134
 40
0.755025134
 40
0.755025134
 40
0.884328732
 40
0.884328732
 40
0.884328732
 40
0.945791059
 40
0.945791059
 40
0.945791059
 40
0.975325505
 40
0.975325505
 40
0.975325505
 40
0.986003487
 40
0.986003487
 40
0.986003487
 40
0.993741764
 40
0.993741764
 40
0.993741764
 40
0.998429767
 40
0.998429767
 40
0.998429767
 40
1.000000000
 40
1.000000000
 40
1.000000000
 40
1.000000000
 10
238.500000000
 20
160.512158497
 30
0.000000000
 10
238.500000000
 20
160.509928685
 30
0.000000000
 10
238.500000000
 20
160.518377779
 30
0.000000000
 10
238.500000000
 20
160.537505778
 30
0.000000000
 10
238.500000000
 20
160.563131197
 30
0.000000000
 10
238.500000000
 20
160.629921307
 30
0.000000000
 10
238.500000000
 20
160.699910729
 30
0.000000000
 10
238.500000000
 20
160.805440015
 30
0.000000000
 10
238.500000000
 20
160.899727038
 30
0.000000000
 10
238.500000000
 20
160.982771796
 30
0.000000000
 10
238.500000000
 20
161.213560987
 30
0.000000000
 10
238.500000000
 20
161.410557098
 30
0.000000000
 10
238.500000000
 20
161.606167109
 30
0.000000000
 10
238.500000000
 20
161.889729043
 30
0.000000000
 10
238.500000000
 20
162.168420774
 30
0.000000000
 10
238.500000000
 20
162.442242300
 30
0.000000000
 10
238.500000000
 20
162.777401837
 30
0.000000000
 10
238.500000000
 20
163.118939419
 30
0.000000000
 10
238.500000000
 20
163.466855048
 30
0.000000000
 10
238.500000000
 20
163.723744315
 30
0.000000000
 10
238.500000000
 20
163.980633582
 30
0.000000000
 10
238.500000000
 20
164.237522849
 30
0.000000000
 10
238.500000000
 20
164.858480204
 30
0.000000000
 10
238.500000000
 20
165.490966771
 30
0.000000000
 10
238.500000000
 20
166.134982550
 30
0.000000000
 10
238.500000000
 20
166.441530120
 30
0.000000000
 10
238.500000000
 20
166.750977822
 30
0.000000000
 10
238.500000000
 20
167.063325655
 30
0.000000000
 10
238.500000000
 20
167.213596916
 30
0.000000000
 10
238.500000000
 20
167.364274511
 30
0.000000000
 10
238.500000000
 20
167.515358442
 30
0.000000000
 10
238.500000000
 20
167.566886135
 30
0.000000000
 10
238.500000000
 20
167.621646328
 30
0.000000000
 10
238.500000000
 20
167.679639023
 30
0.000000000
 10
238.500000000
 20
167.722904336
 30
0.000000000
 10
238.500000000
 20
167.770559505
 30
0.000000000
 10
238.500000000
 20
167.798954341
 30
0.000000000
 10
238.500000000
 20
167.816156502
 30
0.000000000
 10
238.500000000
 20
167.826289776
 30
0.000000000
 10
238.500000000
 20
167.871340612
 30
0.000000000
 10
238.500000000
 20
167.886430262
 30
0.000000000
 10
238.500000000
 20
167.905437299
 30
0.000000000
 10
238.500000000
 20
167.895603030
 30
0.000000000
  0
SPLINE
  5
A59
330
A02
100
AcDbEntity
  8
S03_FrontWing_Front
100
AcDbSpline
210
0
220
0
230
1
 70
8
 71
3
 72
35
 73
31
 74
0
 40
0.000000000
 40
0.000000000
 40
0.000000000
 40
0.000000000
 40
0.094589569
 40
0.094589569
 40
0.094589569
 40
0.196477778
 40
0.196477778
 40
0.196477778
 40
0.297996097
 40
0.297996097
 40
0.297996097
 40
0.399163739
 40
0.399163739
 40
0.399163739
 40
0.500000000
 40
0.500000000
 40
0.500000000
 40
0.600836261
 40
0.600836261
 40
0.600836261
 40
0.702003903
 40
0.702003903
 40
0.702003903
 40
0.803522222
 40
0.803522222
 40
0.803522222
 40
0.905410431
 40
0.905410431
 40
0.905410431
 40
1.000000000
 40
1.000000000
 40
1.000000000
 40
1.000000000
 10
238.500000000
 20
167.895603030
 30
0.000000000
 10
232.294732070
 20
165.694299871
 30
0.000000000
 10
226.163798473
 20
165.160203476
 30
0.000000000
 10
220.000000000
 20
164.278191735
 30
0.000000000
 10
213.360595772
 20
163.328122958
 30
0.000000000
 10
206.683059212
 20
161.974376309
 30
0.000000000
 10
200.000000000
 20
160.827962681
 30
0.000000000
 10
193.341202586
 20
159.685710929
 30
0.000000000
 10
186.676922546
 20
158.749289551
 30
0.000000000
 10
180.000000000
 20
157.912820192
 30
0.000000000
 10
173.346141742
 20
157.079240274
 30
0.000000000
 10
166.679728171
 20
156.344923033
 30
0.000000000
 10
160.000000000
 20
155.628014016
 30
0.000000000
 10
153.342151678
 20
154.913453278
 30
0.000000000
 10
146.671075839
 20
154.216186906
 30
0.000000000
 10
140.000000000
 20
154.216186906
 30
0.000000000
 10
133.328924161
 20
154.216186906
 30
0.000000000
 10
126.657848322
 20
154.913453278
 30
0.000000000
 10
120.000000000
 20
155.628014016
 30
0.000000000
 10
113.320271829
 20
156.344923033
 30
0.000000000
 10
106.653858258
 20
157.079240274
 30
0.000000000
 10
100.000000000
 20
157.912820192
 30
0.000000000
 10
93.323077454
 20
158.749289551
 30
0.000000000
 10
86.658797414
 20
159.685710929
 30
0.000000000
 10
80.000000000
 20
160.827962681
 30
0.000000000
 10
73.316940788
 20
161.974376309
 30
0.000000000
 10
66.639404228
 20
163.328122958
 30
0.000000000
 10
60.000000000
 20
164.278191735
 30
0.000000000
 10
53.836201527
 20
165.160203476
 30
0.000000000
 10
47.705267931
 20
165.694299871
 30
0.000000000
 10
41.500000000
 20
167.895603030
 30
0.000000000
  0
SPLINE
  5
A5A
330
A02
100
AcDbEntity
  8
S03_FrontWing_Front
100
AcDbSpline
210
0
220
0
230
1
 70
8
 71
3
 72
20
 73
16
 74
0
 40
0.000000000
 40
0.000000000
 40
0.000000000
 40
0.000000000
 40
0.248621079
 40
0.248621079
 40
0.248621079
 40
0.382234349
 40
0.382234349
 40
0.382234349
 40
0.445960682
 40
0.445960682
 40
0.445960682
 40
0.476880725
 40
0.476880725
 40
0.476880725
 40
0.496300755
 40
0.496300755
 40
0.496300755
 40
0.496300755
 10
41.500000000
 20
167.895603030
 30
0.000000000
 10
41.500000000
 20
166.340254735
 30
0.000000000
 10
41.500000000
 20
164.869834495
 30
0.000000000
 10
41.500000000
 20
163.525444275
 30
0.000000000
 10
41.500000000
 20
162.804529808
 30
0.000000000
 10
41.500000000
 20
162.114451250
 30
0.000000000
 10
41.500000000
 20
161.549256307
 30
0.000000000
 10
41.500000000
 20
161.279251022
 30
0.000000000
 10
41.500000000
 20
161.033591056
 30
0.000000000
 10
41.500000000
 20
160.832727920
 30
0.000000000
 10
41.500000000
 20
160.733767996
 30
0.000000000
 10
41.500000000
 20
160.651217912
 30
0.000000000
 10
41.500000000
 20
160.585077668
 30
0.000000000
 10
41.500000000
 20
160.545764487
 30
0.000000000
 10
41.500000000
 20
160.513177661
 30
0.000000000
 10
41.500000000
 20
160.512158497
 30
0.000000000
  0
SPLINE
  5
A5B
330
A02
100
AcDbEntity
  8
S03_FrontWing_Front
100
AcDbSpline
210
0
220
0
230
1
 70
8
 71
3
 72
47
 73
43
 74
0
 40
0.496300755
 40
0.496300755
 40
0.496300755
 40
0.496300755
 40
0.503435361
 40
0.503435361
 40
0.503435361
 40
0.512722871
 40
0.512722871
 40
0.512722871
 40
0.527575212
 40
0.527575212
 40
0.527575212
 40
0.568295958
 40
0.568295958
 40
0.568295958
 40
0.628287889
 40
0.628287889
 40
0.628287889
 40
0.701480410
 40
0.701480410
 40
0.701480410
 40
0.755025134
 40
0.755025134
 40
0.755025134
 40
0.884328732
 40
0.884328732
 40
0.884328732
 40
0.945791059
 40
0.945791059
 40
0.945791059
 40
0.975325505
 40
0.975325505
 40
0.975325505
 40
0.986003487
 40
0.986003487
 40
0.986003487
 40
0.993741764
 40
0.993741764
 40
0.993741764
 40
0.998429767
 40
0.998429767
 40
0.998429767
 40
1.000000000
 40
1.000000000
 40
1.000000000
 40
1.000000000
 10
41.500000000
 20
160.512158497
 30
0.000000000
 10
41.500000000
 20
160.509928685
 30
0.000000000
 10
41.500000000
 20
160.518377779
 30
0.000000000
 10
41.500000000
 20
160.537505778
 30
0.000000000
 10
41.500000000
 20
160.563131197
 30
0.000000000
 10
41.500000000
 20
160.629921307
 30
0.000000000
 10
41.500000000
 20
160.699910729
 30
0.000000000
 10
41.500000000
 20
160.805440015
 30
0.000000000
 10
41.500000000
 20
160.899727038
 30
0.000000000
 10
41.500000000
 20
160.982771796
 30
0.000000000
 10
41.500000000
 20
161.213560987
 30
0.000000000
 10
41.500000000
 20
161.410557098
 30
0.000000000
 10
41.500000000
 20
161.606167109
 30
0.000000000
 10
41.500000000
 20
161.889729043
 30
0.000000000
 10
41.500000000
 20
162.168420774
 30
0.000000000
 10
41.500000000
 20
162.442242300
 30
0.000000000
 10
41.500000000
 20
162.777401837
 30
0.000000000
 10
41.500000000
 20
163.118939419
 30
0.000000000
 10
41.500000000
 20
163.466855048
 30
0.000000000
 10
41.500000000
 20
163.723744315
 30
0.000000000
 10
41.500000000
 20
163.980633582
 30
0.000000000
 10
41.500000000
 20
164.237522849
 30
0.000000000
 10
41.500000000
 20
164.858480204
 30
0.000000000
 10
41.500000000
 20
165.490966771
 30
0.000000000
 10
41.500000000
 20
166.134982550
 30
0.000000000
 10
41.500000000
 20
166.441530120
 30
0.000000000
 10
41.500000000
 20
166.750977822
 30
0.000000000
 10
41.500000000
 20
167.063325655
 30
0.000000000
 10
41.500000000
 20
167.213596916
 30
0.000000000
 10
41.500000000
 20
167.364274511
 30
0.000000000
 10
41.500000000
 20
167.515358442
 30
0.000000000
 10
41.500000000
 20
167.566886135
 30
0.000000000
 10
41.500000000
 20
167.621646328
 30
0.000000000
 10
41.500000000
 20
167.679639023
 30
0.000000000
 10
41.500000000
 20
167.722904336
 30
0.000000000
 10
41.500000000
 20
167.770559505
 30
0.000000000
 10
41.500000000
 20
167.798954341
 30
0.000000000
 10
41.500000000
 20
167.816156502
 30
0.000000000
 10
41.500000000
 20
167.826289776
 30
0.000000000
 10
41.500000000
 20
167.871340612
 30
0.000000000
 10
41.500000000
 20
167.886430262
 30
0.000000000
 10
41.500000000
 20
167.905437299
 30
0.000000000
 10
41.500000000
 20
167.895603030
 30
0.000000000
  0
LINE
  5
A5C
330
A02
100
AcDbEntity
  8
S03_FrontWing_Front
100
AcDbLine
 10
41.000000000
 20
132.101690140
 30
0.000000000
 11
40.000000000
 21
132.101690140
 31
0.000000000
  0
LINE
  5
A5D
330
A02
100
AcDbEntity
  8
S03_FrontWing_Front
100
AcDbLine
 10
41.000000000
 20
145.601690140
 30
0.000000000
 11
40.000000000
 21
145.601690140
 31
0.000000000
  0
LINE
  5
A5E
330
A02
100
AcDbEntity
  8
S03_FrontWing_Front
100
AcDbLine
 10
41.000000000
 20
145.601690140
 30
0.000000000
 11
41.000000000
 21
133.101690140
 31
0.000000000
  0
LINE
  5
A5F
330
A02
100
AcDbEntity
  8
S03_FrontWing_Front
100
AcDbLine
 10
40.000000000
 20
145.601690140
 30
0.000000000
 11
40.000000000
 21
132.101690140
 31
0.000000000
  0
LINE
  5
A60
330
A02
100
AcDbEntity
  8
S03_FrontWing_Front
100
AcDbLine
 10
47.000000000
 20
132.101690140
 30
0.000000000
 11
41.000000000
 21
132.101690140
 31
0.000000000
  0
LINE
  5
A61
330
A02
100
AcDbEntity
  8
S03_FrontWing_Front
100
AcDbLine
 10
41.000000000
 20
155.601690140
 30
0.000000000
 11
41.000000000
 21
145.601690140
 31
0.000000000
  0
LINE
  5
A62
330
A02
100
AcDbEntity
  8
S03_FrontWing_Front
100
AcDbLine
 10
41.000000000
 20
164.601690140
 30
0.000000000
 11
41.000000000
 21
155.601690140
 31
0.000000000
  0
LINE
  5
A63
330
A02
100
AcDbEntity
  8
S03_FrontWing_Front
100
AcDbLine
 10
40.000000000
 20
164.601690140
 30
0.000000000
 11
40.000000000
 21
155.601690140
 31
0.000000000
  0
LINE
  5
A64
330
A02
100
AcDbEntity
  8
S03_FrontWing_Front
100
AcDbLine
 10
40.000000000
 20
155.601690140
 30
0.000000000
 11
40.000000000
 21
145.601690140
 31
0.000000000
  0
LINE
  5
A65
330
A02
100
AcDbEntity
  8
S03_FrontWing_Front
100
AcDbLine
 10
41.000000000
 20
155.601690140
 30
0.000000000
 11
40.000000000
 21
155.601690140
 31
0.000000000
  0
LINE
  5
A66
330
A02
100
AcDbEntity
  8
S03_FrontWing_Front
100
AcDbLine
 10
41.000000000
 20
132.101690140
 30
0.000000000
 11
41.000000000
 21
133.101690140
 31
0.000000000
  0
LINE
  5
A67
330
A02
100
AcDbEntity
  8
S03_FrontWing_Front
100
AcDbLine
 10
47.000000000
 20
132.101690140
 30
0.000000000
 11
47.000000000
 21
133.101690140
 31
0.000000000
  0
LINE
  5
A68
330
A02
100
AcDbEntity
  8
S03_FrontWing_Front
100
AcDbLine
 10
47.000000000
 20
133.101690140
 30
0.000000000
 11
41.000000000
 21
133.101690140
 31
0.000000000
  0
LINE
  5
A69
330
A02
100
AcDbEntity
  8
S03_FrontWing_Front
100
AcDbLine
 10
41.000000000
 20
164.601690140
 30
0.000000000
 11
40.000000000
 21
164.601690140
 31
0.000000000
  0
LINE
  5
A6A
330
A02
100
AcDbEntity
  8
S03_FrontWing_Front
100
AcDbLine
 10
240.000000000
 20
132.101690140
 30
0.000000000
 11
239.000000000
 21
132.101690140
 31
0.000000000
  0
LINE
  5
A6B
330
A02
100
AcDbEntity
  8
S03_FrontWing_Front
100
AcDbLine
 10
240.000000000
 20
145.601690140
 30
0.000000000
 11
239.000000000
 21
145.601690140
 31
0.000000000
  0
LINE
  5
A6C
330
A02
100
AcDbEntity
  8
S03_FrontWing_Front
100
AcDbLine
 10
240.000000000
 20
145.601690140
 30
0.000000000
 11
240.000000000
 21
132.101690140
 31
0.000000000
  0
LINE
  5
A6D
330
A02
100
AcDbEntity
  8
S03_FrontWing_Front
100
AcDbLine
 10
239.000000000
 20
145.601690140
 30
0.000000000
 11
239.000000000
 21
133.101690140
 31
0.000000000
  0
LINE
  5
A6E
330
A02
100
AcDbEntity
  8
S03_FrontWing_Front
100
AcDbLine
 10
240.000000000
 20
164.601690140
 30
0.000000000
 11
240.000000000
 21
155.601690140
 31
0.000000000
  0
LINE
  5
A6F
330
A02
100
AcDbEntity
  8
S03_FrontWing_Front
100
AcDbLine
 10
240.000000000
 20
155.601690140
 30
0.000000000
 11
240.000000000
 21
145.601690140
 31
0.000000000
  0
LINE
  5
A70
330
A02
100
AcDbEntity
  8
S03_FrontWing_Front
100
AcDbLine
 10
239.000000000
 20
132.101690140
 30
0.000000000
 11
233.000000000
 21
132.101690140
 31
0.000000000
  0
LINE
  5
A71
330
A02
100
AcDbEntity
  8
S03_FrontWing_Front
100
AcDbLine
 10
239.000000000
 20
155.601690140
 30
0.000000000
 11
239.000000000
 21
145.601690140
 31
0.000000000
  0
LINE
  5
A72
330
A02
100
AcDbEntity
  8
S03_FrontWing_Front
100
AcDbLine
 10
239.000000000
 20
164.601690140
 30
0.000000000
 11
239.000000000
 21
155.601690140
 31
0.000000000
  0
LINE
  5
A73
330
A02
100
AcDbEntity
  8
S03_FrontWing_Front
100
AcDbLine
 10
240.000000000
 20
155.601690140
 30
0.000000000
 11
239.000000000
 21
155.601690140
 31
0.000000000
  0
LINE
  5
A74
330
A02
100
AcDbEntity
  8
S03_FrontWing_Front
100
AcDbLine
 10
239.000000000
 20
132.101690140
 30
0.000000000
 11
239.000000000
 21
133.101690140
 31
0.000000000
  0
LINE
  5
A75
330
A02
100
AcDbEntity
  8
S03_FrontWing_Front
100
AcDbLine
 10
240.000000000
 20
164.601690140
 30
0.000000000
 11
239.000000000
 21
164.601690140
 31
0.000000000
  0
LINE
  5
A76
330
A02
100
AcDbEntity
  8
S03_FrontWing_Front
100
AcDbLine
 10
239.000000000
 20
133.101690140
 30
0.000000000
 11
233.000000000
 21
133.101690140
 31
0.000000000
  0
LINE
  5
A77
330
A02
100
AcDbEntity
  8
S03_FrontWing_Front
100
AcDbLine
 10
233.000000000
 20
132.101690140
 30
0.000000000
 11
233.000000000
 21
133.101690140
 31
0.000000000
  0
LINE
  5
A78
330
A02
100
AcDbEntity
  8
S03_FrontWing_Front
100
AcDbLine
 10
144.500000000
 20
139.601690140
 30
0.000000000
 11
143.700000000
 21
139.601690140
 31
0.000000000
  0
LINE
  5
A79
330
A02
100
AcDbEntity
  8
S03_FrontWing_Front
100
AcDbLine
 10
144.500000000
 20
148.601690140
 30
0.000000000
 11
143.700000000
 21
148.601690140
 31
0.000000000
  0
LINE
  5
A7A
330
A02
100
AcDbEntity
  8
S03_FrontWing_Front
100
AcDbLine
 10
144.500000000
 20
147.601690140
 30
0.000000000
 11
143.700000000
 21
147.601690140
 31
0.000000000
  0
LINE
  5
A7B
330
A02
100
AcDbEntity
  8
S03_FrontWing_Front
100
AcDbLine
 10
144.500000000
 20
148.601690140
 30
0.000000000
 11
144.500000000
 21
147.601690140
 31
0.000000000
  0
LINE
  5
A7C
330
A02
100
AcDbEntity
  8
S03_FrontWing_Front
100
AcDbLine
 10
143.700000000
 20
148.601690140
 30
0.000000000
 11
143.700000000
 21
147.601690140
 31
0.000000000
  0
LINE
  5
A7D
330
A02
100
AcDbEntity
  8
S03_FrontWing_Front
100
AcDbLine
 10
144.500000000
 20
147.601690140
 30
0.000000000
 11
144.500000000
 21
139.601690140
 31
0.000000000
  0
LINE
  5
A7E
330
A02
100
AcDbEntity
  8
S03_FrontWing_Front
100
AcDbLine
 10
143.700000000
 20
147.601690140
 30
0.000000000
 11
143.700000000
 21
139.601690140
 31
0.000000000
  0
LINE
  5
A7F
330
A02
100
AcDbEntity
  8
S03_FrontWing_Front
100
AcDbLine
 10
136.300000000
 20
139.601690140
 30
0.000000000
 11
135.500000000
 21
139.601690140
 31
0.000000000
  0
LINE
  5
A80
330
A02
100
AcDbEntity
  8
S03_FrontWing_Front
100
AcDbLine
 10
136.300000000
 20
148.601690140
 30
0.000000000
 11
135.500000000
 21
148.601690140
 31
0.000000000
  0
LINE
  5
A81
330
A02
100
AcDbEntity
  8
S03_FrontWing_Front
100
AcDbLine
 10
136.300000000
 20
147.601690140
 30
0.000000000
 11
135.500000000
 21
147.601690140
 31
0.000000000
  0
LINE
  5
A82
330
A02
100
AcDbEntity
  8
S03_FrontWing_Front
100
AcDbLine
 10
136.300000000
 20
148.601690140
 30
0.000000000
 11
136.300000000
 21
147.601690140
 31
0.000000000
  0
LINE
  5
A83
330
A02
100
AcDbEntity
  8
S03_FrontWing_Front
100
AcDbLine
 10
135.500000000
 20
148.601690140
 30
0.000000000
 11
135.500000000
 21
147.601690140
 31
0.000000000
  0
LINE
  5
A84
330
A02
100
AcDbEntity
  8
S03_FrontWing_Front
100
AcDbLine
 10
136.300000000
 20
147.601690140
 30
0.000000000
 11
136.300000000
 21
139.601690140
 31
0.000000000
  0
LINE
  5
A85
330
A02
100
AcDbEntity
  8
S03_FrontWing_Front
100
AcDbLine
 10
135.500000000
 20
147.601690140
 30
0.000000000
 11
135.500000000
 21
139.601690140
 31
0.000000000
  0
SPLINE
  5
A86
330
A02
100
AcDbEntity
  8
S03_FrontWing_Front
100
AcDbSpline
210
0
220
0
230
1
 70
8
 71
3
 72
35
 73
31
 74
0
 40
0.000000000
 40
0.000000000
 40
0.000000000
 40
0.000000000
 40
0.104878719
 40
0.104878719
 40
0.104878719
 40
0.220062267
 40
0.220062267
 40
0.220062267
 40
0.450416506
 40
0.450416506
 40
0.450416506
 40
0.555295224
 40
0.555295224
 40
0.555295224
 40
0.681814648
 40
0.681814648
 40
0.681814648
 40
0.790242563
 40
0.790242563
 40
0.790242563
 40
0.895121281
 40
0.895121281
 40
0.895121281
 40
0.921340961
 40
0.921340961
 40
0.921340961
 40
0.947560641
 40
0.947560641
 40
0.947560641
 40
1.000000000
 40
1.000000000
 40
1.000000000
 40
1.000000000
 10
41.500000000
 20
139.323925754
 30
0.000000000
 10
47.753240291
 20
138.867197401
 30
0.000000000
 10
54.042188814
 20
138.660018300
 30
0.000000000
 10
60.317060529
 20
138.409935280
 30
0.000000000
 10
67.212642842
 20
138.133872906
 30
0.000000000
 10
74.103724585
 20
137.808460357
 30
0.000000000
 10
80.997322266
 20
137.530966858
 30
0.000000000
 10
94.784434680
 20
136.977752762
 30
0.000000000
 10
108.580904077
 20
136.590386054
 30
0.000000000
 10
122.374652886
 20
136.274317325
 30
0.000000000
 10
128.092538117
 20
136.145156975
 30
0.000000000
 10
133.811740527
 20
136.039524100
 30
0.000000000
 10
139.533041986
 20
136.033897966
 30
0.000000000
 10
146.435051904
 20
136.027288918
 30
0.000000000
 10
153.333755777
 20
136.172153100
 30
0.000000000
 10
160.231332506
 20
136.334624278
 30
0.000000000
 10
166.143194045
 20
136.472928441
 30
0.000000000
 10
172.054929047
 20
136.629252301
 30
0.000000000
 10
177.966537513
 20
136.803595859
 30
0.000000000
 10
186.834618692
 20
137.065885986
 30
0.000000000
 10
195.701483256
 20
137.377896623
 30
0.000000000
 10
204.563582060
 20
137.763342120
 30
0.000000000
 10
207.393263630
 20
137.880385760
 30
0.000000000
 10
210.220843821
 20
138.011839669
 30
0.000000000
 10
213.049508594
 20
138.133737184
 30
0.000000000
 10
215.878111661
 20
138.255791197
 30
0.000000000
 10
218.707510669
 20
138.371757283
 30
0.000000000
 10
221.537705618
 20
138.481635442
 30
0.000000000
 10
227.197456454
 20
138.706858242
 30
0.000000000
 10
232.860899870
 20
138.909899842
 30
0.000000000
 10
238.500000000
 20
139.323925754
 30
0.000000000
  0
SPLINE
  5
A87
330
A02
100
AcDbEntity
  8
S03_FrontWing_Front
100
AcDbSpline
210
0
220
0
230
1
 70
8
 71
3
 72
23
 73
19
 74
0
 40
0.000000000
 40
0.000000000
 40
0.000000000
 40
0.000000000
 40
0.055513583
 40
0.055513583
 40
0.055513583
 40
0.111027165
 40
0.111027165
 40
0.111027165
 40
0.222054331
 40
0.222054331
 40
0.222054331
 40
0.327819307
 40
0.327819307
 40
0.327819307
 40
0.438922843
 40
0.438922843
 40
0.438922843
 40
0.522304558
 40
0.522304558
 40
0.522304558
 40
0.522304558
 10
41.500000000
 20
153.407833177
 30
0.000000000
 10
44.544833661
 20
152.906825775
 30
0.000000000
 10
47.624460059
 20
152.501214451
 30
0.000000000
 10
50.707388659
 20
152.142489637
 30
0.000000000
 10
53.791338040
 20
151.783396947
 30
0.000000000
 10
56.878589622
 20
151.471190768
 30
0.000000000
 10
59.966234770
 20
151.147061031
 30
0.000000000
 10
66.850409803
 20
150.424665319
 30
0.000000000
 10
73.723264191
 20
149.646042237
 30
0.000000000
 10
80.607405002
 20
148.969186466
 30
0.000000000
 10
87.166788988
 20
148.327115214
 30
0.000000000
 10
93.733820893
 20
147.764351381
 30
0.000000000
 10
100.308500718
 20
147.280894968
 30
0.000000000
 10
107.214819485
 20
146.769666981
 30
0.000000000
 10
114.125007315
 20
146.337836867
 30
0.000000000
 10
121.039064209
 20
145.985404626
 30
0.000000000
 10
125.855896511
 20
145.740465180
 30
0.000000000
 10
130.675089901
 20
145.539535902
 30
0.000000000
 10
135.500000000
 20
145.457834374
 30
0.000000000
  0
SPLINE
  5
A88
330
A02
100
AcDbEntity
  8
S03_FrontWing_Front
100
AcDbSpline
210
0
220
0
230
1
 70
8
 71
2
 72
6
 73
3
 74
0
 40
0.526913107
 40
0.526913107
 40
0.526913107
 40
0.569534688
 40
0.569534688
 40
0.569534688
 10
136.300000000
 20
145.445400388
 30
0.000000000
 10
140.000006788
 20
145.392026586
 30
0.000000000
 10
143.700000000
 20
145.445394149
 30
0.000000000
  0
SPLINE
  5
A89
330
A02
100
AcDbEntity
  8
S03_FrontWing_Front
100
AcDbSpline
210
0
220
0
230
1
 70
8
 71
3
 72
26
 73
22
 74
0
 40
0.574143281
 40
0.574143281
 40
0.574143281
 40
0.574143281
 40
0.663986199
 40
0.663986199
 40
0.663986199
 40
0.777945669
 40
0.777945669
 40
0.777945669
 40
0.888972835
 40
0.888972835
 40
0.888972835
 40
0.916729626
 40
0.916729626
 40
0.916729626
 40
0.944486417
 40
0.944486417
 40
0.944486417
 40
0.972243209
 40
0.972243209
 40
0.972243209
 40
1.000000000
 40
1.000000000
 40
1.000000000
 40
1.000000000
 10
144.500000000
 20
145.457828785
 30
0.000000000
 10
149.698781940
 20
145.545881760
 30
0.000000000
 10
154.890769358
 20
145.772291750
 30
0.000000000
 10
160.080614838
 20
146.043119971
 30
0.000000000
 10
166.664756824
 20
146.386998761
 30
0.000000000
 10
173.245269647
 20
146.802817050
 30
0.000000000
 10
179.822153307
 20
147.290574840
 30
0.000000000
 10
188.370267529
 20
147.922257855
 30
0.000000000
 10
196.908933545
 20
148.681499934
 30
0.000000000
 10
205.428978551
 20
149.585083369
 30
0.000000000
 10
208.190355548
 20
149.874828012
 30
0.000000000
 10
210.947759448
 20
150.177151702
 30
0.000000000
 10
213.707103872
 20
150.472741041
 30
0.000000000
 10
216.466367800
 20
150.768053876
 30
0.000000000
 10
219.227073197
 20
151.060321743
 30
0.000000000
 10
221.989220063
 20
151.349544644
 30
0.000000000
 10
224.750953729
 20
151.640950632
 30
0.000000000
 10
227.513629808
 20
151.933001039
 30
0.000000000
 10
230.269338458
 20
152.259766806
 30
0.000000000
 10
233.024800260
 20
152.587485865
 30
0.000000000
 10
235.773294632
 20
152.949920284
 30
0.000000000
 10
238.500000000
 20
153.407833177
 30
0.000000000
  0
SPLINE
  5
A8A
330
A02
100
AcDbEntity
  8
S03_FrontWing_Front
100
AcDbSpline
210
0
220
0
230
1
 70
8
 71
3
 72
50
 73
46
 74
0
 40
0.000000000
 40
0.000000000
 40
0.000000000
 40
0.000000000
 40
0.062871842
 40
0.062871842
 40
0.062871842
 40
0.125743685
 40
0.125743685
 40
0.125743685
 40
0.251487369
 40
0.251487369
 40
0.251487369
 40
0.371281577
 40
0.371281577
 40
0.371281577
 40
0.434153419
 40
0.434153419
 40
0.434153419
 40
0.497025262
 40
0.497025262
 40
0.497025262
 40
0.559897104
 40
0.559897104
 40
0.559897104
 40
0.622768946
 40
0.622768946
 40
0.622768946
 40
0.748512631
 40
0.748512631
 40
0.748512631
 40
0.811384473
 40
0.811384473
 40
0.811384473
 40
0.874256315
 40
0.874256315
 40
0.874256315
 40
0.905692237
 40
0.905692237
 40
0.905692237
 40
0.937128158
 40
0.937128158
 40
0.937128158
 40
0.968564079
 40
0.968564079
 40
0.968564079
 40
1.000000000
 40
1.000000000
 40
1.000000000
 40
1.000000000
 10
41.500000000
 20
160.512158497
 30
0.000000000
 10
44.555080157
 20
159.845974473
 30
0.000000000
 10
47.656750856
 20
159.309127409
 30
0.000000000
 10
50.765560538
 20
158.836108475
 30
0.000000000
 10
53.875494130
 20
158.362483121
 30
0.000000000
 10
56.992566705
 20
157.952685896
 30
0.000000000
 10
60.108796164
 20
157.524228195
 30
0.000000000
 10
66.984223367
 20
156.579373721
 30
0.000000000
 10
73.843381484
 20
155.556414214
 30
0.000000000
 10
80.721874738
 20
154.668780597
 30
0.000000000
 10
87.275487066
 20
153.822921320
 30
0.000000000
 10
93.845594227
 20
153.092545332
 30
0.000000000
 10
100.424255718
 20
152.454450450
 30
0.000000000
 10
105.692269226
 20
151.939477740
 30
0.000000000
 10
110.967242842
 20
151.496238484
 30
0.000000000
 10
116.244476548
 20
151.100754938
 30
0.000000000
 10
121.522120072
 20
150.709616978
 30
0.000000000
 10
126.802023686
 20
150.366234728
 30
0.000000000
 10
132.090962290
 20
150.168306883
 30
0.000000000
 10
136.199773220
 20
150.010678827
 30
0.000000000
 10
140.309929476
 20
149.976366727
 30
0.000000000
 10
144.421431059
 20
150.065370581
 30
0.000000000
 10
148.531357826
 20
150.151989104
 30
0.000000000
 10
152.636674991
 20
150.364315149
 30
0.000000000
 10
156.736957173
 20
150.618021308
 30
0.000000000
 10
164.326456353
 20
151.101575773
 30
0.000000000
 10
171.907401706
 20
151.710618629
 30
0.000000000
 10
179.479793233
 20
152.445149877
 30
0.000000000
 10
183.922302116
 20
152.874254211
 30
0.000000000
 10
188.359733279
 20
153.348862402
 30
0.000000000
 10
192.792086720
 20
153.868974448
 30
0.000000000
 10
197.223925152
 20
154.392103580
 30
0.000000000
 10
201.648968033
 20
154.963089436
 30
0.000000000
 10
206.067215363
 20
155.581932013
 30
0.000000000
 10
208.777671377
 20
155.959062382
 30
0.000000000
 10
211.483365467
 20
156.348510110
 30
0.000000000
 10
214.191712166
 20
156.728386508
 30
0.000000000
 10
216.900033344
 20
157.107571399
 30
0.000000000
 10
219.610093507
 20
157.482810079
 30
0.000000000
 10
222.321892656
 20
157.854102547
 30
0.000000000
 10
225.033057200
 20
158.228453587
 30
0.000000000
 10
227.745047105
 20
158.604483534
 30
0.000000000
 10
230.446793336
 20
159.026581550
 30
0.000000000
 10
233.148209504
 20
159.449863100
 30
0.000000000
 10
235.839381998
 20
159.919212719
 30
0.000000000
 10
238.500000000
 20
160.512158497
 30
0.000000000
  0
SPLINE
  5
A8B
330
A02
100
AcDbEntity
  8
S03_FrontWing_Side
100
AcDbSpline
210
0
220
0
230
1
 70
8
 71
3
 72
8
 73
4
 74
0
 40
0.000000000
 40
0.000000000
 40
0.000000000
 40
0.000000000
 40
0.217104589
 40
0.217104589
 40
0.217104589
 40
0.217104589
 10
377.606135807
 20
260.791206059
 30
0.000000000
 10
376.092666783
 20
258.073599608
 30
0.000000000
 10
374.337528434
 20
255.489870403
 30
0.000000000
 10
372.364641187
 20
253.084715829
 30
0.000000000
  0
SPLINE
  5
A8C
330
A02
100
AcDbEntity
  8
S03_FrontWing_Side
100
AcDbSpline
210
0
220
0
230
1
 70
8
 71
3
 72
29
 73
25
 74
0
 40
0.749086983
 40
0.749086983
 40
0.749086983
 40
0.749086983
 40
0.884328732
 40
0.884328732
 40
0.884328732
 40
0.945791059
 40
0.945791059
 40
0.945791059
 40
0.961858751
 40
0.961858751
 40
0.961858751
 40
0.975325505
 40
0.975325505
 40
0.975325505
 40
0.986003487
 40
0.986003487
 40
0.986003487
 40
0.993741764
 40
0.993741764
 40
0.993741764
 40
0.998429767
 40
0.998429767
 40
0.998429767
 40
1.000000000
 40
1.000000000
 40
1.000000000
 40
1.000000000
 10
369.846054798
 20
253.303723341
 30
0.000000000
 10
371.283373752
 20
254.603379918
 30
0.000000000
 10
372.705118034
 20
255.920557044
 30
0.000000000
 10
374.095952834
 20
257.269965100
 30
0.000000000
 10
374.728225839
 20
257.883060240
 30
0.000000000
 10
375.354737961
 20
258.501955643
 30
0.000000000
 10
375.975489199
 20
259.126651309
 30
0.000000000
 10
376.137182638
 20
259.289123003
 30
0.000000000
 10
376.299115725
 20
259.452774316
 30
0.000000000
 10
376.461288460
 20
259.617605247
 30
0.000000000
 10
376.598453664
 20
259.757432245
 30
0.000000000
 10
376.733622631
 20
259.895136124
 30
0.000000000
 10
376.866795360
 20
260.030716884
 30
0.000000000
 10
376.971628925
 20
260.137189754
 30
0.000000000
 10
377.073397207
 20
260.239875172
 30
0.000000000
 10
377.187306653
 20
260.359278046
 30
0.000000000
 10
377.269856220
 20
260.445808672
 30
0.000000000
 10
377.358782113
 20
260.541119010
 30
0.000000000
 10
377.419040982
 20
260.597908682
 30
0.000000000
 10
377.455547012
 20
260.632313004
 30
0.000000000
 10
377.481531730
 20
260.652579551
 30
0.000000000
 10
377.559218544
 20
260.742681225
 30
0.000000000
 10
377.585239521
 20
260.772860524
 30
0.000000000
 10
377.617060935
 20
260.810874598
 30
0.000000000
 10
377.606135807
 20
260.791206059
 30
0.000000000
  0
SPLINE
  5
A8D
330
A02
100
AcDbEntity
  8
S03_FrontWing_Side
100
AcDbSpline
210
0
220
0
230
1
 70
8
 71
3
 72
29
 73
25
 74
0
 40
0.749086983
 40
0.749086983
 40
0.749086983
 40
0.749086983
 40
0.884328732
 40
0.884328732
 40
0.884328732
 40
0.945791059
 40
0.945791059
 40
0.945791059
 40
0.961858751
 40
0.961858751
 40
0.961858751
 40
0.975325505
 40
0.975325505
 40
0.975325505
 40
0.986003487
 40
0.986003487
 40
0.986003487
 40
0.993741764
 40
0.993741764
 40
0.993741764
 40
0.998429767
 40
0.998429767
 40
0.998429767
 40
1.000000000
 40
1.000000000
 40
1.000000000
 40
1.000000000
 10
369.846054798
 20
253.303723341
 30
0.000000000
 10
371.283373752
 20
254.603379918
 30
0.000000000
 10
372.705118034
 20
255.920557044
 30
0.000000000
 10
374.095952834
 20
257.269965100
 30
0.000000000
 10
374.728225839
 20
257.883060240
 30
0.000000000
 10
375.354737961
 20
258.501955643
 30
0.000000000
 10
375.975489199
 20
259.126651309
 30
0.000000000
 10
376.137182638
 20
259.289123003
 30
0.000000000
 10
376.299115725
 20
259.452774316
 30
0.000000000
 10
376.461288460
 20
259.617605247
 30
0.000000000
 10
376.598453664
 20
259.757432245
 30
0.000000000
 10
376.733622631
 20
259.895136124
 30
0.000000000
 10
376.866795360
 20
260.030716884
 30
0.000000000
 10
376.971628925
 20
260.137189754
 30
0.000000000
 10
377.073397207
 20
260.239875172
 30
0.000000000
 10
377.187306653
 20
260.359278046
 30
0.000000000
 10
377.269856220
 20
260.445808672
 30
0.000000000
 10
377.358782113
 20
260.541119010
 30
0.000000000
 10
377.419040982
 20
260.597908682
 30
0.000000000
 10
377.455547012
 20
260.632313004
 30
0.000000000
 10
377.481531730
 20
260.652579551
 30
0.000000000
 10
377.559218544
 20
260.742681225
 30
0.000000000
 10
377.585239521
 20
260.772860524
 30
0.000000000
 10
377.617060935
 20
260.810874598
 30
0.000000000
 10
377.606135807
 20
260.791206059
 30
0.000000000
  0
LINE
  5
A8E
330
A02
100
AcDbEntity
  8
S03_FrontWing_Side
100
AcDbLine
 10
279.500000000
 20
189.203380280
 30
0.000000000
 11
371.500000000
 21
189.203380280
 31
0.000000000
  0
LINE
  5
A8F
330
A02
100
AcDbEntity
  8
S03_FrontWing_Side
100
AcDbLine
 10
279.500000000
 20
216.203380280
 30
0.000000000
 11
279.500000000
 21
189.203380280
 31
0.000000000
  0
LINE
  5
A90
330
A02
100
AcDbEntity
  8
S03_FrontWing_Side
100
AcDbLine
 10
371.500000000
 20
189.203380280
 30
0.000000000
 11
384.500000000
 21
208.203380280
 31
0.000000000
  0
LINE
  5
A91
330
A02
100
AcDbEntity
  8
S03_FrontWing_Side
100
AcDbLine
 10
384.500000000
 20
208.203380280
 30
0.000000000
 11
382.500000000
 21
252.203380280
 31
0.000000000
  0
LINE
  5
A92
330
A02
100
AcDbEntity
  8
S03_FrontWing_Side
100
AcDbLine
 10
382.500000000
 20
252.203380280
 30
0.000000000
 11
359.500000000
 21
254.203380280
 31
0.000000000
  0
LINE
  5
A93
330
A02
100
AcDbEntity
  8
S03_FrontWing_Side
100
AcDbLine
 10
359.500000000
 20
254.203380280
 30
0.000000000
 11
299.500000000
 21
236.203380280
 31
0.000000000
  0
LINE
  5
A94
330
A02
100
AcDbEntity
  8
S03_FrontWing_Side
100
AcDbLine
 10
299.500000000
 20
236.203380280
 30
0.000000000
 11
279.500000000
 21
216.203380280
 31
0.000000000
  0
LINE
  5
A95
330
A02
100
AcDbEntity
  8
S03_FrontWing_Side
100
AcDbLine
 10
275.500000000
 20
189.203380280
 30
0.000000000
 11
279.500000000
 21
189.203380280
 31
0.000000000
  0
LINE
  5
A96
330
A02
100
AcDbEntity
  8
S03_FrontWing_Side
100
AcDbLine
 10
275.500000000
 20
191.203380280
 30
0.000000000
 11
279.500000000
 21
191.203380280
 31
0.000000000
  0
LINE
  5
A97
330
A02
100
AcDbEntity
  8
S03_FrontWing_Side
100
AcDbLine
 10
275.500000000
 20
189.203380280
 30
0.000000000
 11
275.500000000
 21
191.203380280
 31
0.000000000
  0
SPLINE
  5
A98
330
A02
100
AcDbEntity
  8
S03_FrontWing_SecB
100
AcDbSpline
210
0
220
0
230
1
 70
8
 71
3
 72
14
 73
10
 74
0
 40
0.005718922
 40
0.005718922
 40
0.005718922
 40
0.005718922
 40
0.056879842
 40
0.056879842
 40
0.056879842
 40
0.094589569
 40
0.094589569
 40
0.094589569
 40
0.108040762
 40
0.108040762
 40
0.108040762
 40
0.108040762
 10
377.173517726
 20
175.028331885
 30
0.000000000
 10
375.995212218
 20
172.857193595
 30
0.000000000
 10
375.789823006
 20
171.590231660
 30
0.000000000
 10
375.839004524
 20
170.589745727
 30
0.000000000
 10
375.875255272
 20
169.852306851
 30
0.000000000
 10
376.049811234
 20
169.259641180
 30
0.000000000
 10
376.075013028
 20
168.556383470
 30
0.000000000
 10
376.083485694
 20
168.305060316
 30
0.000000000
 10
376.074505633
 20
168.041071634
 30
0.000000000
 10
376.048072845
 20
167.764417424
 30
0.000000000
  0
SPLINE
  5
A99
330
A02
100
AcDbEntity
  8
S03_FrontWing_SecB
100
AcDbSpline
210
0
220
0
230
1
 70
8
 71
2
 72
6
 73
3
 74
0
 40
0.000000000
 40
0.000000000
 40
0.000000000
 40
0.038012425
 40
0.038012425
 40
0.038012425
 10
377.606135807
 20
175.791206059
 30
0.000000000
 10
377.209293778
 20
175.076986754
 30
0.000000000
 10
376.789482931
 20
174.376014462
 30
0.000000000
  0
SPLINE
  5
A9A
330
A02
100
AcDbEntity
  8
S03_FrontWing_SecB
100
AcDbSpline
210
0
220
0
230
1
 70
8
 71
3
 72
8
 73
4
 74
0
 40
0.038012425
 40
0.038012425
 40
0.038012425
 40
0.038012425
 40
0.217104589
 40
0.217104589
 40
0.217104589
 40
0.217104589
 10
376.789482931
 20
174.376014462
 30
0.000000000
 10
375.469887452
 20
172.175337128
 30
0.000000000
 10
373.993164635
 20
170.068027806
 30
0.000000000
 10
372.364641187
 20
168.084715829
 30
0.000000000
  0
SPLINE
  5
A9B
330
A02
100
AcDbEntity
  8
S03_FrontWing_SecB
100
AcDbSpline
210
0
220
0
230
1
 70
8
 71
3
 72
29
 73
25
 74
0
 40
0.749086983
 40
0.749086983
 40
0.749086983
 40
0.749086983
 40
0.884328732
 40
0.884328732
 40
0.884328732
 40
0.945791059
 40
0.945791059
 40
0.945791059
 40
0.961858751
 40
0.961858751
 40
0.961858751
 40
0.975325505
 40
0.975325505
 40
0.975325505
 40
0.986003487
 40
0.986003487
 40
0.986003487
 40
0.993741764
 40
0.993741764
 40
0.993741764
 40
0.998429767
 40
0.998429767
 40
0.998429767
 40
1.000000000
 40
1.000000000
 40
1.000000000
 40
1.000000000
 10
369.846054798
 20
168.303723341
 30
0.000000000
 10
371.283373752
 20
169.603379918
 30
0.000000000
 10
372.705118034
 20
170.920557044
 30
0.000000000
 10
374.095952834
 20
172.269965100
 30
0.000000000
 10
374.728225839
 20
172.883060240
 30
0.000000000
 10
375.354737961
 20
173.501955643
 30
0.000000000
 10
375.975489199
 20
174.126651309
 30
0.000000000
 10
376.137182638
 20
174.289123003
 30
0.000000000
 10
376.299115725
 20
174.452774316
 30
0.000000000
 10
376.461288460
 20
174.617605247
 30
0.000000000
 10
376.598453664
 20
174.757432245
 30
0.000000000
 10
376.733622631
 20
174.895136124
 30
0.000000000
 10
376.866795360
 20
175.030716884
 30
0.000000000
 10
376.971628925
 20
175.137189754
 30
0.000000000
 10
377.073397207
 20
175.239875172
 30
0.000000000
 10
377.187306653
 20
175.359278046
 30
0.000000000
 10
377.269856220
 20
175.445808672
 30
0.000000000
 10
377.358782113
 20
175.541119010
 30
0.000000000
 10
377.419040982
 20
175.597908682
 30
0.000000000
 10
377.455547012
 20
175.632313004
 30
0.000000000
 10
377.481531730
 20
175.652579551
 30
0.000000000
 10
377.559218544
 20
175.742681225
 30
0.000000000
 10
377.585239521
 20
175.772860524
 30
0.000000000
 10
377.617060935
 20
175.810874598
 30
0.000000000
 10
377.606135807
 20
175.791206059
 30
0.000000000
  0
LINE
  5
A9C
330
A02
100
AcDbEntity
  8
S03_FrontWing_SecB
100
AcDbLine
 10
279.500000000
 20
104.203380280
 30
0.000000000
 11
371.500000000
 21
104.203380280
 31
0.000000000
  0
LINE
  5
A9D
330
A02
100
AcDbEntity
  8
S03_FrontWing_SecB
100
AcDbLine
 10
279.500000000
 20
131.203380280
 30
0.000000000
 11
279.500000000
 21
104.203380280
 31
0.000000000
  0
LINE
  5
A9E
330
A02
100
AcDbEntity
  8
S03_FrontWing_SecB
100
AcDbLine
 10
371.500000000
 20
104.203380280
 30
0.000000000
 11
384.500000000
 21
123.203380280
 31
0.000000000
  0
LINE
  5
A9F
330
A02
100
AcDbEntity
  8
S03_FrontWing_SecB
100
AcDbLine
 10
384.500000000
 20
123.203380280
 30
0.000000000
 11
382.500000000
 21
167.203380280
 31
0.000000000
  0
LINE
  5
AA0
330
A02
100
AcDbEntity
  8
S03_FrontWing_SecB
100
AcDbLine
 10
382.500000000
 20
167.203380280
 30
0.000000000
 11
359.500000000
 21
169.203380280
 31
0.000000000
  0
LINE
  5
AA1
330
A02
100
AcDbEntity
  8
S03_FrontWing_SecB
100
AcDbLine
 10
359.500000000
 20
169.203380280
 30
0.000000000
 11
299.500000000
 21
151.203380280
 31
0.000000000
  0
LINE
  5
AA2
330
A02
100
AcDbEntity
  8
S03_FrontWing_SecB
100
AcDbLine
 10
299.500000000
 20
151.203380280
 30
0.000000000
 11
279.500000000
 21
131.203380280
 31
0.000000000
  0
LINE
  5
AA3
330
A02
100
AcDbEntity
  8
S03_FrontWing_SecB
100
AcDbLine
 10
275.500000000
 20
104.203380280
 30
0.000000000
 11
279.500000000
 21
104.203380280
 31
0.000000000
  0
LINE
  5
AA4
330
A02
100
AcDbEntity
  8
S03_FrontWing_SecB
100
AcDbLine
 10
275.500000000
 20
106.203380280
 30
0.000000000
 11
279.500000000
 21
106.203380280
 31
0.000000000
  0
LINE
  5
AA5
330
A02
100
AcDbEntity
  8
S03_FrontWing_SecB
100
AcDbLine
 10
275.500000000
 20
104.203380280
 30
0.000000000
 11
275.500000000
 21
106.203380280
 31
0.000000000
  0
SPLINE
  5
AA6
330
A02
100
AcDbEntity
  8
S03_FrontWing_SecB
100
AcDbSpline
210
0
220
0
230
1
 70
8
 71
2
 72
6
 73
3
 74
0
 40
0.048981803
 40
0.048981803
 40
0.048981803
 40
0.060047765
 40
0.060047765
 40
0.060047765
 10
279.500000000
 20
116.192097981
 30
0.000000000
 10
279.481515675
 20
116.084131762
 30
0.000000000
 10
279.500000000
 20
115.974367865
 30
0.000000000
  0
DIMENSION
  5
AA7
330
A02
100
AcDbEntity
  8
DimExtent
100
AcDbDimension
  2
*DimExtent
 10
140.000000000
 20
254.250000000
 30
0.000000000
 11
140.000000000
 21
259.250000000
 31
0.000000000
 70
32
  1
2000
  3
STANDARD
100
AcDbAlignedDimension
 13
40.000000000
 23
199.750000000
 33
0.000000000
 14
240.000000000
 24
199.750000000
 34
0.000000000
100
AcDbRotatedDimension
  0
DIMENSION
  5
AB1
330
A02
100
AcDbEntity
  8
DimExtent092
100
AcDbDimension
  2
*DimExtent092
 10
38.000000000
 20
225.000000000
 30
0.000000000
 11
33.000000000
 21
225.000000000
 31
0.000000000
 70
32
  1
545
  3
STANDARD
100
AcDbAlignedDimension
 13
41.000000000
 23
252.250000000
 33
0.000000000
 14
41.000000000
 24
197.750000000
 34
0.000000000
 50
90
100
AcDbRotatedDimension
  0
DIMENSION
  5
ABB
330
A02
100
AcDbEntity
  8
DimExtent093
100
AcDbDimension
  2
*DimExtent093
 10
33.891649702
 20
154.844626592
 30
0.000000000
 11
33.000000000
 21
149.924772854
 31
0.000000000
 70
32
  1
358
  3
STANDARD
100
AcDbAlignedDimension
 13
238.500000000
 23
167.895603030
 33
0.000000000
 14
41.000000000
 24
132.101690140
 34
0.000000000
 50
90
100
AcDbRotatedDimension
  0
DIMENSION
  5
AC5
330
A02
100
AcDbEntity
  8
DimExtent094
100
AcDbDimension
  2
*DimExtent094
 10
329.141387083
 20
262.717731864
 30
0.000000000
 11
330.000000000
 21
267.643458598
 31
0.000000000
 70
32
  1
545
  3
STANDARD
100
AcDbAlignedDimension
 13
275.500000000
 23
189.203380280
 33
0.000000000
 14
384.500000000
 24
208.203380280
 34
0.000000000
100
AcDbRotatedDimension
  0
DIMENSION
  5
ACF
330
A02
100
AcDbEntity
  8
DimExtent095
100
AcDbDimension
  2
*DimExtent095
 10
271.447261044
 20
228.888561967
 30
0.000000000
 11
268.500000000
 21
224.849545708
 31
0.000000000
 70
32
  1
358
  3
STANDARD
100
AcDbAlignedDimension
 13
377.606135807
 23
260.791206059
 33
0.000000000
 14
279.500000000
 24
189.203380280
 34
0.000000000
 50
90
100
AcDbRotatedDimension
  0
DIMENSION
  5
AD9
330
A02
100
AcDbEntity
  8
DimExtent096
100
AcDbDimension
  2
*DimExtent096
 10
276.920359137
 20
144.068809230
 30
0.000000000
 11
273.973098093
 21
140.029792972
 31
0.000000000
 70
32
  1
358
  3
STANDARD
100
AcDbAlignedDimension
 13
377.606135807
 23
175.791206059
 33
0.000000000
 14
279.500000000
 24
104.203380280
 34
0.000000000
 50
90
100
AcDbRotatedDimension
  0
TEXT
  5
AE3
330
A02
100
AcDbEntity
  8
S03_FrontWing_Tab
100
AcDbText
 10
90.000000000
 20
75.000000000
 30
0.000000000
 40
3.200000000
  1
翼素の諸元（翼弦・迎角は 中央 → 翼端）
  7
STANDARD
 72
1
 11
90.000000000
 21
75.000000000
 31
0.000000000
100
AcDbText
  0
ENDSEC
  0
SECTION
  2
OBJECTS
  0
DICTIONARY
  5
F000
330
0
100
AcDbDictionary
  3
ACAD_GROUP
350
F001
  0
DICTIONARY
  5
F001
330
F000
100
AcDbDictionary
  0
ENDSEC
  0
EOF