999
FreeCAD v1.1 20260725 (Git shallow)
  0
SECTION
  2
HEADER
  9
$ACADVER
  1
AC1014
  9
$ACADMAINTVER
 70
     9
  9
$DWGCODEPAGE
  3
ANSI_1252
  9
$TEXTSTYLE
  7
STANDARD
  9
$DIMSTYLE
  2
STANDARD
  9
$DIMTXSTY
  7
STANDARD
  9
$CMLSTYLE
  2
STANDARD
  9
$LUNITS
 70
2
  9
$INSUNITS
 70
4
  9
$PEXTMAX
 10
50
 20
50
 30
50
  9
$PEXTMIN
 10
0
 20
0
 30
0
  9
$HANDSEED
  5
FFFF
  0
ENDSEC
  0
SECTION
  2
CLASSES
  0
CLASS
  1
ACDBDICTIONARYWDFLT
  2
AcDbDictionaryWithDefault
  3
ObjectDBX Classes
 90
        0
280
     0
281
     0
  0
CLASS
  1
XRECORD
  2
AcDbXrecord
  3
ObjectDBX Classes
 90
        0
280
     0
281
     0
  0
CLASS
  1
LWPOLYLINE
  2
AcDbPolyline
  3
ObjectDBX Classes
 90
        0
280
     0
281
     1
  0
ENDSEC
  0
SECTION
  2
TABLES
  0
TABLE
  2
VPORT
  5
20
330
0
100
AcDbSymbolTable
 70
     1
  0
VPORT
  5
21
330
20
100
AcDbSymbolTableRecord
100
AcDbViewportTableRecord
  2
*ACTIVE
 70
     0
  0
ENDTAB
  0
TABLE
  2
LTYPE
  5
22
330
0
100
AcDbSymbolTable
 70
     1
  0
LTYPE
  5
23
330
21
100
AcDbSymbolTableRecord
100
AcDbLinetypeTableRecord
  2
BYBLOCK
 70
     0
  3

 72
    65
 73
     0
 40
0.0
  0
LTYPE
  5
24
330
21
100
AcDbSymbolTableRecord
100
AcDbLinetypeTableRecord
  2
BYLAYER
 70
     0
  3

 72
    65
 73
     0
 40
0.0
  0
LTYPE
  5
25
330
21
100
AcDbSymbolTableRecord
100
AcDbLinetypeTableRecord
  2
CONTINUOUS
 70
     0
  3
Solid line
 72
    65
 73
     0
 40
0.0
  0
ENDTAB
  0
TABLE
  2
LAYER
  5
AAD
330
0
100
AcDbSymbolTable
 70
12
  0
LAYER
  5
AAE
330
AAD
100
AcDbSymbolTableRecord
100
AcDbLayerTableRecord
  2
0
 70
   0
 62
   7
  6
CONTINUOUS
  0
LAYER
  5
AAF
330
AAD
100
AcDbSymbolTableRecord
100
AcDbLayerTableRecord
  2
S04_RearWing_Top
 70
    0
 62
    7
  6
CONTINUOUS
  0
LAYER
  5
AB0
330
AAD
100
AcDbSymbolTableRecord
100
AcDbLayerTableRecord
  2
S04_RearWing_Rear
 70
    0
 62
    7
  6
CONTINUOUS
  0
LAYER
  5
AB1
330
AAD
100
AcDbSymbolTableRecord
100
AcDbLayerTableRecord
  2
S04_RearWing_Side
 70
    0
 62
    7
  6
CONTINUOUS
  0
LAYER
  5
AB2
330
AAD
100
AcDbSymbolTableRecord
100
AcDbLayerTableRecord
  2
S04_RearWing_SecC
 70
    0
 62
    7
  6
CONTINUOUS
  0
LAYER
  5
AB3
330
AAD
100
AcDbSymbolTableRecord
100
AcDbLayerTableRecord
  2
DimExtent068
 70
    0
 62
    7
  6
CONTINUOUS
  0
LAYER
  5
AB4
330
AAD
100
AcDbSymbolTableRecord
100
AcDbLayerTableRecord
  2
DimExtent069
 70
    0
 62
    7
  6
CONTINUOUS
  0
LAYER
  5
AB5
330
AAD
100
AcDbSymbolTableRecord
100
AcDbLayerTableRecord
  2
DimExtent070
 70
    0
 62
    7
  6
CONTINUOUS
  0
LAYER
  5
AB6
330
AAD
100
AcDbSymbolTableRecord
100
AcDbLayerTableRecord
  2
DimExtent071
 70
    0
 62
    7
  6
CONTINUOUS
  0
LAYER
  5
AB7
330
AAD
100
AcDbSymbolTableRecord
100
AcDbLayerTableRecord
  2
DimExtent072
 70
    0
 62
    7
  6
CONTINUOUS
  0
LAYER
  5
AB8
330
AAD
100
AcDbSymbolTableRecord
100
AcDbLayerTableRecord
  2
DimExtent073
 70
    0
 62
    7
  6
CONTINUOUS
  0
LAYER
  5
AB9
330
AAD
100
AcDbSymbolTableRecord
100
AcDbLayerTableRecord
  2
S04_RearWing_Tab
 70
    0
 62
    7
  6
CONTINUOUS
  0
ENDTAB
  0
TABLE
  2
STYLE
  5
70
330
0
100
AcDbSymbolTable
 70
     2
  0
STYLE
  5
71
330
70
100
AcDbSymbolTableRecord
100
AcDbTextStyleTableRecord
  2
STANDARD
 70
     0
 40
0.0
 41
1.0
 50
0.0
 71
     0
 42
2.5
  3
arial.ttf
  4

  0
STYLE
  5
72
330
70
100
AcDbSymbolTableRecord
100
AcDbTextStyleTableRecord
  2
ANNOTATIVE
 70
     0
 40
0.0
 41
1.0
 50
0.0
 71
     0
 42
2.5
  3
arial.ttf
  4

  0
ENDTAB
  0
TABLE
  2
VIEW
  5
73
330
0
100
AcDbSymbolTable
 70
     0
  0
ENDTAB
  0
TABLE
  2
UCS
  5
74
330
0
100
AcDbSymbolTable
 70
     0
  0
ENDTAB
  0
TABLE
  2
APPID
  5
75
330
0
100
AcDbSymbolTable
 70
     2
  0
APPID
  5
76
330
75
100
AcDbSymbolTableRecord
100
AcDbRegAppTableRecord
  2
ACAD
 70
     0
  0
APPID
  5
77
330
75
100
AcDbSymbolTableRecord
100
AcDbRegAppTableRecord
  2
ACADANNOTATIVE
 70
     0
  0
ENDTAB
  0
TABLE
  2
DIMSTYLE
  5
78
330
0
100
AcDbSymbolTable
 70
     2
  0
DIMSTYLE
105
79
330
78
100
AcDbSymbolTableRecord
100
AcDbDimStyleTableRecord
  2
STANDARD
 70
     0
  3

  4

  5

  6

  7

 40
0.0
 41
2.5
 42
0.625
 43
3.75
 44
1.25
 45
0.0
 46
0.0
 47
0.0
 48
0.0
140
2.5
141
2.5
142
0.0
143
0.03937007874016
144
1.0
145
0.0
146
1.0
147
0.625
 71
     0
 72
     0
 73
     0
 74
     0
 75
     0
 76
     0
 77
     1
 78
     8
170
     0
171
     3
172
     1
173
     0
174
     0
175
     0
176
     0
177
     0
178
     0
270
     2
271
     2
272
     2
273
     2
274
     3
340
71
275
     0
280
     0
281
     0
282
     0
283
     0
284
     8
285
     0
286
     0
287
     3
288
     0
  0
ENDTAB
  0
TABLE
  2
BLOCK_RECORD
  5
A01
330
0
100
AcDbSymbolTable
  70
5
  0
BLOCK_RECORD
  5
A02
330
A01
100
AcDbSymbolTableRecord
100
AcDbBlockTableRecord
  2
*MODEL_SPACE
  0
BLOCK_RECORD
  5
A03
330
A01
100
AcDbSymbolTableRecord
100
AcDbBlockTableRecord
  2
*PAPER_SPACE
  0
BLOCK_RECORD
  5
A71
330
A01
100
AcDbSymbolTableRecord
100
AcDbBlockTableRecord
  2
*DimExtent068
  0
BLOCK_RECORD
  5
A7B
330
A01
100
AcDbSymbolTableRecord
100
AcDbBlockTableRecord
  2
*DimExtent069
  0
BLOCK_RECORD
  5
A85
330
A01
100
AcDbSymbolTableRecord
100
AcDbBlockTableRecord
  2
*DimExtent070
  0
BLOCK_RECORD
  5
A8F
330
A01
100
AcDbSymbolTableRecord
100
AcDbBlockTableRecord
  2
*DimExtent071
  0
BLOCK_RECORD
  5
A99
330
A01
100
AcDbSymbolTableRecord
100
AcDbBlockTableRecord
  2
*DimExtent072
  0
BLOCK_RECORD
  5
AA3
330
A01
100
AcDbSymbolTableRecord
100
AcDbBlockTableRecord
  2
*DimExtent073
  0
ENDTAB
  0
ENDSEC
  0
SECTION
  2
BLOCKS
  0
BLOCK
  5
A04
330
A02
100
AcDbEntity
  8
0
100
AcDbBlockBegin
  2
*MODEL_SPACE
 70
   0
 10
0
 20
0
 30
0
  3
*MODEL_SPACE
  1
 
  0
ENDBLK
  5
A05
330
A02
100
AcDbEntity
  8
0
100
AcDbBlockEnd
  0
BLOCK
  5
A06
330
A03
100
AcDbEntity
 67
1
  8
0
100
AcDbBlockBegin
  2
*PAPER_SPACE
 70
   0
 10
0
 20
0
 30
0
  3
*PAPER_SPACE
  1
 
  0
ENDBLK
  5
A07
330
A03
100
AcDbEntity
 67
    1
  8
0
100
AcDbBlockEnd
  0
BLOCK
  5
A72
330
A71
100
AcDbEntity
  8
DimExtent068
100
AcDbBlockBegin
  2
*DimExtent068
 70
   1
 10
0
 20
0
 30
0
  3
*DimExtent068
  1
 
  0
LINE
  5
A73
330
A71
100
AcDbEntity
  8
DimExtent068
100
AcDbLine
 10
162.5
 20
262
 30
0
 11
162.5
 21
264
 31
0
  0
LINE
  5
A74
330
A71
100
AcDbEntity
  8
DimExtent068
100
AcDbLine
 10
57.5
 20
262
 30
0
 11
57.5
 21
264
 31
0
  0
LINE
  5
A75
330
A71
100
AcDbEntity
  8
DimExtent068
100
AcDbLine
 10
57.5
 20
264
 30
0
 11
162.5
 21
264
 31
0
  0
TEXT
  5
A76
330
A71
100
AcDbEntity
  8
DimExtent068
100
AcDbText
 10
110
 20
269
 30
0
 40
3.5
  1
1050
  7
STANDARD
 72
1
 11
110
 21
264
 31
0
100
AcDbText
  0
SOLID
  5
A77
330
A71
100
AcDbEntity
  8
0
 62
     0
100
AcDbTrace
 10
52.5
 20
264.417
 30
0
 11
52.5
 21
263.583
 31
0
 12
57.5
 22
264
 32
0
 13
57.5
 23
264
 33
0
  0
SOLID
  5
A78
330
A71
100
AcDbEntity
  8
0
 62
     0
100
AcDbTrace
 10
167.5
 20
264.417
 30
0
 11
167.5
 21
263.583
 31
0
 12
162.5
 22
264
 32
0
 13
162.5
 23
264
 33
0
  0
ENDBLK
  5
A79
330
A71
100
AcDbEntity
  8
DimExtent068
100
AcDbBlockEnd
  0
BLOCK
  5
A7C
330
A7B
100
AcDbEntity
  8
DimExtent069
100
AcDbBlockBegin
  2
*DimExtent069
 70
   1
 10
0
 20
0
 30
0
  3
*DimExtent069
  1
 
  0
LINE
  5
A7D
330
A7B
100
AcDbEntity
  8
DimExtent069
100
AcDbLine
 10
162.5
 20
133.25
 30
0
 11
162.5
 21
170.75
 31
0
  0
LINE
  5
A7E
330
A7B
100
AcDbEntity
  8
DimExtent069
100
AcDbLine
 10
57.5
 20
133.25
 30
0
 11
57.5
 21
170.75
 31
0
  0
LINE
  5
A7F
330
A7B
100
AcDbEntity
  8
DimExtent069
100
AcDbLine
 10
57.5
 20
170.75
 30
0
 11
162.5
 21
170.75
 31
0
  0
TEXT
  5
A80
330
A7B
100
AcDbEntity
  8
DimExtent069
100
AcDbText
 10
110
 20
175.75
 30
0
 40
3.5
  1
1050
  7
STANDARD
 72
1
 11
110
 21
170.75
 31
0
100
AcDbText
  0
SOLID
  5
A81
330
A7B
100
AcDbEntity
  8
0
 62
     0
100
AcDbTrace
 10
52.5
 20
171.167
 30
0
 11
52.5
 21
170.333
 31
0
 12
57.5
 22
170.75
 32
0
 13
57.5
 23
170.75
 33
0
  0
SOLID
  5
A82
330
A7B
100
AcDbEntity
  8
0
 62
     0
100
AcDbTrace
 10
167.5
 20
171.167
 30
0
 11
167.5
 21
170.333
 31
0
 12
162.5
 22
170.75
 32
0
 13
162.5
 23
170.75
 33
0
  0
ENDBLK
  5
A83
330
A7B
100
AcDbEntity
  8
DimExtent069
100
AcDbBlockEnd
  0
BLOCK
  5
A86
330
A85
100
AcDbEntity
  8
DimExtent070
100
AcDbBlockBegin
  2
*DimExtent070
 70
   1
 10
0
 20
0
 30
0
  3
*DimExtent070
  1
 
  0
LINE
  5
A87
330
A85
100
AcDbEntity
  8
DimExtent070
100
AcDbLine
 10
105
 20
111.25
 30
0
 11
54.0664
 21
111.25
 31
0
  0
LINE
  5
A88
330
A85
100
AcDbEntity
  8
DimExtent070
100
AcDbLine
 10
161.5
 20
168.75
 30
0
 11
54.0664
 21
168.75
 31
0
  0
LINE
  5
A89
330
A85
100
AcDbEntity
  8
DimExtent070
100
AcDbLine
 10
54.0664
 20
168.75
 30
0
 11
54.0664
 21
111.25
 31
0
  0
TEXT
  5
A8A
330
A85
100
AcDbEntity
  8
DimExtent070
100
AcDbText
 10
50.5
 20
140
 30
0
 40
3.5
  1
575
  7
STANDARD
 72
1
 11
54.0664
 21
143.504
 31
0
100
AcDbText
  0
SOLID
  5
A8B
330
A85
100
AcDbEntity
  8
0
 62
     0
100
AcDbTrace
 10
53.6497
 20
173.75
 30
0
 11
54.4831
 21
173.75
 31
0
 12
54.0664
 22
168.75
 32
0
 13
54.0664
 23
168.75
 33
0
  0
SOLID
  5
A8C
330
A85
100
AcDbEntity
  8
0
 62
     0
100
AcDbTrace
 10
53.6497
 20
106.25
 30
0
 11
54.4831
 21
106.25
 31
0
 12
54.0664
 22
111.25
 32
0
 13
54.0664
 23
111.25
 33
0
  0
ENDBLK
  5
A8D
330
A85
100
AcDbEntity
  8
DimExtent070
100
AcDbBlockEnd
  0
BLOCK
  5
A90
330
A8F
100
AcDbEntity
  8
DimExtent071
100
AcDbBlockBegin
  2
*DimExtent071
 70
   1
 10
0
 20
0
 30
0
  3
*DimExtent071
  1
 
  0
LINE
  5
A91
330
A8F
100
AcDbEntity
  8
DimExtent071
100
AcDbLine
 10
290.5
 20
247.375
 30
0
 11
290.5
 21
251.686
 31
0
  0
LINE
  5
A92
330
A8F
100
AcDbEntity
  8
DimExtent071
100
AcDbLine
 10
209.5
 20
161.875
 30
0
 11
209.5
 21
251.686
 31
0
  0
LINE
  5
A93
330
A8F
100
AcDbEntity
  8
DimExtent071
100
AcDbLine
 10
209.5
 20
251.686
 30
0
 11
290.5
 21
251.686
 31
0
  0
TEXT
  5
A94
330
A8F
100
AcDbEntity
  8
DimExtent071
100
AcDbText
 10
250
 20
255.125
 30
0
 40
3.5
  1
540
  7
STANDARD
 72
1
 11
246.37
 21
251.686
 31
0
100
AcDbText
  0
SOLID
  5
A95
330
A8F
100
AcDbEntity
  8
0
 62
     0
100
AcDbTrace
 10
204.5
 20
252.103
 30
0
 11
204.5
 21
251.27
 31
0
 12
209.5
 22
251.686
 32
0
 13
209.5
 23
251.686
 33
0
  0
SOLID
  5
A96
330
A8F
100
AcDbEntity
  8
0
 62
     0
100
AcDbTrace
 10
295.5
 20
252.103
 30
0
 11
295.5
 21
251.27
 31
0
 12
290.5
 22
251.686
 32
0
 13
290.5
 23
251.686
 33
0
  0
ENDBLK
  5
A97
330
A8F
100
AcDbEntity
  8
DimExtent071
100
AcDbBlockEnd
  0
BLOCK
  5
A9A
330
A99
100
AcDbEntity
  8
DimExtent072
100
AcDbBlockBegin
  2
*DimExtent072
 70
   1
 10
0
 20
0
 30
0
  3
*DimExtent072
  1
 
  0
LINE
  5
A9B
330
A99
100
AcDbEntity
  8
DimExtent072
100
AcDbLine
 10
209.5
 20
161.875
 30
0
 11
207.272
 21
161.875
 31
0
  0
LINE
  5
A9C
330
A99
100
AcDbEntity
  8
DimExtent072
100
AcDbLine
 10
236.5
 20
248.125
 30
0
 11
207.272
 21
248.125
 31
0
  0
LINE
  5
A9D
330
A99
100
AcDbEntity
  8
DimExtent072
100
AcDbLine
 10
207.272
 20
248.125
 30
0
 11
207.272
 21
161.875
 31
0
  0
TEXT
  5
A9E
330
A99
100
AcDbEntity
  8
DimExtent072
100
AcDbText
 10
202.5
 20
205
 30
0
 40
3.5
  1
575
  7
STANDARD
 72
1
 11
207.272
 21
206.494
 31
0
100
AcDbText
  0
SOLID
  5
A9F
330
A99
100
AcDbEntity
  8
0
 62
     0
100
AcDbTrace
 10
206.855
 20
253.125
 30
0
 11
207.688
 21
253.125
 31
0
 12
207.272
 22
248.125
 32
0
 13
207.272
 23
248.125
 33
0
  0
SOLID
  5
AA0
330
A99
100
AcDbEntity
  8
0
 62
     0
100
AcDbTrace
 10
206.855
 20
156.875
 30
0
 11
207.688
 21
156.875
 31
0
 12
207.272
 22
161.875
 32
0
 13
207.272
 23
161.875
 33
0
  0
ENDBLK
  5
AA1
330
A99
100
AcDbEntity
  8
DimExtent072
100
AcDbBlockEnd
  0
BLOCK
  5
AA4
330
AA3
100
AcDbEntity
  8
DimExtent073
100
AcDbBlockBegin
  2
*DimExtent073
 70
   1
 10
0
 20
0
 30
0
  3
*DimExtent073
  1
 
  0
LINE
  5
AA5
330
AA3
100
AcDbEntity
  8
DimExtent073
100
AcDbLine
 10
395.5
 20
247.375
 30
0
 11
395.5
 21
251.686
 31
0
  0
LINE
  5
AA6
330
AA3
100
AcDbEntity
  8
DimExtent073
100
AcDbLine
 10
314.5
 20
161.875
 30
0
 11
314.5
 21
251.686
 31
0
  0
LINE
  5
AA7
330
AA3
100
AcDbEntity
  8
DimExtent073
100
AcDbLine
 10
314.5
 20
251.686
 30
0
 11
395.5
 21
251.686
 31
0
  0
TEXT
  5
AA8
330
AA3
100
AcDbEntity
  8
DimExtent073
100
AcDbText
 10
355
 20
255.125
 30
0
 40
3.5
  1
540
  7
STANDARD
 72
1
 11
351.37
 21
251.686
 31
0
100
AcDbText
  0
SOLID
  5
AA9
330
AA3
100
AcDbEntity
  8
0
 62
     0
100
AcDbTrace
 10
309.5
 20
252.103
 30
0
 11
309.5
 21
251.27
 31
0
 12
314.5
 22
251.686
 32
0
 13
314.5
 23
251.686
 33
0
  0
SOLID
  5
AAA
330
AA3
100
AcDbEntity
  8
0
 62
     0
100
AcDbTrace
 10
400.5
 20
252.103
 30
0
 11
400.5
 21
251.27
 31
0
 12
395.5
 22
251.686
 32
0
 13
395.5
 23
251.686
 33
0
  0
ENDBLK
  5
AAB
330
AA3
100
AcDbEntity
  8
DimExtent073
100
AcDbBlockEnd
  0
ENDSEC
  0
SECTION
  2
ENTITIES
  0
SPLINE
  5
A08
330
A02
100
AcDbEntity
  8
S04_RearWing_Top
100
AcDbSpline
210
0
220
0
230
1
 70
8
 71
1
 72
4
 73
2
 74
0
 40
0.000000000
 40
0.000000000
 40
1.000000000
 40
1.000000000
 10
161.500000000
 20
259.188889779
 30
0.000000000
 10
58.500000000
 20
259.188889779
 30
0.000000000
  0
LINE
  5
A09
330
A02
100
AcDbEntity
  8
S04_RearWing_Top
100
AcDbLine
 10
58.500000000
 20
262.000000000
 30
0.000000000
 11
57.500000000
 21
262.000000000
 31
0.000000000
  0
LINE
  5
A0A
330
A02
100
AcDbEntity
  8
S04_RearWing_Top
100
AcDbLine
 10
58.500000000
 20
226.000000000
 30
0.000000000
 11
57.500000000
 21
226.000000000
 31
0.000000000
  0
LINE
  5
A0B
330
A02
100
AcDbEntity
  8
S04_RearWing_Top
100
AcDbLine
 10
58.500000000
 20
262.000000000
 30
0.000000000
 11
58.500000000
 21
226.000000000
 31
0.000000000
  0
LINE
  5
A0C
330
A02
100
AcDbEntity
  8
S04_RearWing_Top
100
AcDbLine
 10
57.500000000
 20
262.000000000
 30
0.000000000
 11
57.500000000
 21
226.000000000
 31
0.000000000
  0
LINE
  5
A0D
330
A02
100
AcDbEntity
  8
S04_RearWing_Top
100
AcDbLine
 10
58.500000000
 20
222.000000000
 30
0.000000000
 11
57.500000000
 21
222.000000000
 31
0.000000000
  0
LINE
  5
A0E
330
A02
100
AcDbEntity
  8
S04_RearWing_Top
100
AcDbLine
 10
58.500000000
 20
226.000000000
 30
0.000000000
 11
58.500000000
 21
222.000000000
 31
0.000000000
  0
LINE
  5
A0F
330
A02
100
AcDbEntity
  8
S04_RearWing_Top
100
AcDbLine
 10
57.500000000
 20
226.000000000
 30
0.000000000
 11
57.500000000
 21
222.000000000
 31
0.000000000
  0
LINE
  5
A10
330
A02
100
AcDbEntity
  8
S04_RearWing_Top
100
AcDbLine
 10
162.500000000
 20
262.000000000
 30
0.000000000
 11
161.500000000
 21
262.000000000
 31
0.000000000
  0
LINE
  5
A11
330
A02
100
AcDbEntity
  8
S04_RearWing_Top
100
AcDbLine
 10
162.500000000
 20
226.000000000
 30
0.000000000
 11
161.500000000
 21
226.000000000
 31
0.000000000
  0
LINE
  5
A12
330
A02
100
AcDbEntity
  8
S04_RearWing_Top
100
AcDbLine
 10
162.500000000
 20
262.000000000
 30
0.000000000
 11
162.500000000
 21
226.000000000
 31
0.000000000
  0
LINE
  5
A13
330
A02
100
AcDbEntity
  8
S04_RearWing_Top
100
AcDbLine
 10
161.500000000
 20
262.000000000
 30
0.000000000
 11
161.500000000
 21
226.000000000
 31
0.000000000
  0
LINE
  5
A14
330
A02
100
AcDbEntity
  8
S04_RearWing_Top
100
AcDbLine
 10
162.500000000
 20
222.000000000
 30
0.000000000
 11
161.500000000
 21
222.000000000
 31
0.000000000
  0
LINE
  5
A15
330
A02
100
AcDbEntity
  8
S04_RearWing_Top
100
AcDbLine
 10
162.500000000
 20
226.000000000
 30
0.000000000
 11
162.500000000
 21
222.000000000
 31
0.000000000
  0
LINE
  5
A16
330
A02
100
AcDbEntity
  8
S04_RearWing_Top
100
AcDbLine
 10
161.500000000
 20
226.000000000
 30
0.000000000
 11
161.500000000
 21
222.000000000
 31
0.000000000
  0
LINE
  5
A17
330
A02
100
AcDbEntity
  8
S04_RearWing_Top
100
AcDbLine
 10
115.000000000
 20
208.000000000
 30
0.000000000
 11
114.200000000
 21
208.000000000
 31
0.000000000
  0
LINE
  5
A18
330
A02
100
AcDbEntity
  8
S04_RearWing_Top
100
AcDbLine
 10
115.000000000
 20
243.000000000
 30
0.000000000
 11
114.200000000
 21
243.000000000
 31
0.000000000
  0
LINE
  5
A19
330
A02
100
AcDbEntity
  8
S04_RearWing_Top
100
AcDbLine
 10
115.000000000
 20
233.000000000
 30
0.000000000
 11
114.200000000
 21
233.000000000
 31
0.000000000
  0
LINE
  5
A1A
330
A02
100
AcDbEntity
  8
S04_RearWing_Top
100
AcDbLine
 10
115.000000000
 20
243.000000000
 30
0.000000000
 11
115.000000000
 21
233.000000000
 31
0.000000000
  0
LINE
  5
A1B
330
A02
100
AcDbEntity
  8
S04_RearWing_Top
100
AcDbLine
 10
114.200000000
 20
243.000000000
 30
0.000000000
 11
114.200000000
 21
233.000000000
 31
0.000000000
  0
LINE
  5
A1C
330
A02
100
AcDbEntity
  8
S04_RearWing_Top
100
AcDbLine
 10
115.000000000
 20
224.991363503
 30
0.000000000
 11
115.000000000
 21
208.000000000
 31
0.000000000
  0
LINE
  5
A1D
330
A02
100
AcDbEntity
  8
S04_RearWing_Top
100
AcDbLine
 10
114.200000000
 20
224.991363503
 30
0.000000000
 11
114.200000000
 21
208.000000000
 31
0.000000000
  0
LINE
  5
A1E
330
A02
100
AcDbEntity
  8
S04_RearWing_Top
100
AcDbLine
 10
105.800000000
 20
208.000000000
 30
0.000000000
 11
105.000000000
 21
208.000000000
 31
0.000000000
  0
LINE
  5
A1F
330
A02
100
AcDbEntity
  8
S04_RearWing_Top
100
AcDbLine
 10
105.800000000
 20
243.000000000
 30
0.000000000
 11
105.000000000
 21
243.000000000
 31
0.000000000
  0
LINE
  5
A20
330
A02
100
AcDbEntity
  8
S04_RearWing_Top
100
AcDbLine
 10
105.800000000
 20
233.000000000
 30
0.000000000
 11
105.000000000
 21
233.000000000
 31
0.000000000
  0
LINE
  5
A21
330
A02
100
AcDbEntity
  8
S04_RearWing_Top
100
AcDbLine
 10
105.800000000
 20
243.000000000
 30
0.000000000
 11
105.800000000
 21
233.000000000
 31
0.000000000
  0
LINE
  5
A22
330
A02
100
AcDbEntity
  8
S04_RearWing_Top
100
AcDbLine
 10
105.000000000
 20
243.000000000
 30
0.000000000
 11
105.000000000
 21
233.000000000
 31
0.000000000
  0
LINE
  5
A23
330
A02
100
AcDbEntity
  8
S04_RearWing_Top
100
AcDbLine
 10
105.800000000
 20
224.991363503
 30
0.000000000
 11
105.800000000
 21
208.000000000
 31
0.000000000
  0
LINE
  5
A24
330
A02
100
AcDbEntity
  8
S04_RearWing_Top
100
AcDbLine
 10
105.000000000
 20
224.991363503
 30
0.000000000
 11
105.000000000
 21
208.000000000
 31
0.000000000
  0
ELLIPSE
  5
A25
330
A02
100
AcDbEntity
  8
S04_RearWing_Top
100
AcDbEllipse
 10
110.000000000
 20
248.000000000
 30
0.000000000
 11
1.400000000
 21
0.000000000
 31
0.000000000
 40
0.640184400
 41
4.712388980
 42
0.000000000
  0
ELLIPSE
  5
A26
330
A02
100
AcDbEntity
  8
S04_RearWing_Top
100
AcDbEllipse
 10
110.000000000
 20
248.000000000
 30
0.000000000
 11
1.400000000
 21
0.000000000
 31
0.000000000
 40
0.640184400
 41
3.141592654
 42
4.712388980
  0
ELLIPSE
  5
A27
330
A02
100
AcDbEntity
  8
S04_RearWing_Top
100
AcDbEllipse
 10
110.000000000
 20
236.000000000
 30
0.000000000
 11
1.400000000
 21
0.000000000
 31
0.000000000
 40
0.640184400
 41
3.141592654
 42
4.712388980
  0
SPLINE
  5
A28
330
A02
100
AcDbEntity
  8
S04_RearWing_Top
100
AcDbSpline
210
0
220
0
230
1
 70
8
 71
3
 72
23
 73
19
 74
0
 40
0.000000000
 40
0.000000000
 40
0.000000000
 40
0.000000000
 40
0.137687441
 40
0.137687441
 40
0.137687441
 40
0.275374881
 40
0.275374881
 40
0.275374881
 40
0.499990630
 40
0.499990630
 40
0.499990630
 40
0.724622673
 40
0.724622673
 40
0.724622673
 40
0.862312559
 40
0.862312559
 40
0.862312559
 40
1.000000000
 40
1.000000000
 40
1.000000000
 40
1.000000000
 10
161.500000000
 20
224.991363503
 30
0.000000000
 10
156.560723342
 20
224.991363503
 30
0.000000000
 10
151.550721236
 20
224.991363503
 30
0.000000000
 10
146.565000000
 20
224.991363503
 30
0.000000000
 10
141.929999941
 20
224.991363503
 30
0.000000000
 10
137.294999882
 20
224.991363503
 30
0.000000000
 10
132.659999824
 20
224.991363503
 30
0.000000000
 10
125.099595188
 20
224.991363503
 30
0.000000000
 10
117.564496486
 20
224.991363503
 30
0.000000000
 10
110.000000000
 20
224.991363503
 30
0.000000000
 10
102.435589707
 20
224.991363503
 30
0.000000000
 10
94.901131126
 20
224.991363503
 30
0.000000000
 10
87.340000068
 20
224.991363503
 30
0.000000000
 10
82.705000045
 20
224.991363503
 30
0.000000000
 10
78.070000023
 20
224.991363503
 30
0.000000000
 10
73.435000000
 20
224.991363503
 30
0.000000000
 10
68.449278764
 20
224.991363503
 30
0.000000000
 10
63.439276658
 20
224.991363503
 30
0.000000000
 10
58.500000000
 20
224.991363503
 30
0.000000000
  0
SPLINE
  5
A29
330
A02
100
AcDbEntity
  8
S04_RearWing_Top
100
AcDbSpline
210
0
220
0
230
1
 70
8
 71
3
 72
23
 73
19
 74
0
 40
0.000000000
 40
0.000000000
 40
0.000000000
 40
0.000000000
 40
0.145049035
 40
0.145049035
 40
0.145049035
 40
0.280007376
 40
0.280007376
 40
0.280007376
 40
0.499997395
 40
0.499997395
 40
0.499997395
 40
0.719991396
 40
0.719991396
 40
0.719991396
 40
0.854950328
 40
0.854950328
 40
0.854950328
 40
1.000000000
 40
1.000000000
 40
1.000000000
 40
1.000000000
 10
161.500000000
 20
243.493736277
 30
0.000000000
 10
156.531499434
 20
243.493736277
 30
0.000000000
 10
151.545162290
 20
243.493736277
 30
0.000000000
 10
146.564999958
 20
243.493736277
 30
0.000000000
 10
141.929999969
 20
243.493736277
 30
0.000000000
 10
137.294999979
 20
243.493736277
 30
0.000000000
 10
132.659999989
 20
243.493736277
 30
0.000000000
 10
125.107179041
 20
243.493736277
 30
0.000000000
 10
117.553845711
 20
243.493736277
 30
0.000000000
 10
110.000000000
 20
243.493736277
 30
0.000000000
 10
102.446255861
 20
243.493736277
 30
0.000000000
 10
94.892922529
 20
243.493736277
 30
0.000000000
 10
87.340000004
 20
243.493736277
 30
0.000000000
 10
82.705000017
 20
243.493736277
 30
0.000000000
 10
78.070000029
 20
243.493736277
 30
0.000000000
 10
73.435000042
 20
243.493736277
 30
0.000000000
 10
68.454837710
 20
243.493736277
 30
0.000000000
 10
63.468500566
 20
243.493736277
 30
0.000000000
 10
58.500000000
 20
243.493736277
 30
0.000000000
  0
SPLINE
  5
A2A
330
A02
100
AcDbEntity
  8
S04_RearWing_Top
100
AcDbSpline
210
0
220
0
230
1
 70
8
 71
3
 72
23
 73
19
 74
0
 40
0.000000000
 40
0.000000000
 40
0.000000000
 40
0.000000000
 40
0.145049035
 40
0.145049035
 40
0.145049035
 40
0.280007376
 40
0.280007376
 40
0.280007376
 40
0.499997395
 40
0.499997395
 40
0.499997395
 40
0.719991396
 40
0.719991396
 40
0.719991396
 40
0.854950328
 40
0.854950328
 40
0.854950328
 40
1.000000000
 40
1.000000000
 40
1.000000000
 40
1.000000000
 10
161.500000000
 20
259.191690257
 30
0.000000000
 10
156.531499434
 20
259.191690256
 30
0.000000000
 10
151.545162290
 20
259.191690256
 30
0.000000000
 10
146.564999958
 20
259.191690256
 30
0.000000000
 10
141.929999969
 20
259.191690256
 30
0.000000000
 10
137.294999979
 20
259.191690257
 30
0.000000000
 10
132.659999989
 20
259.191690257
 30
0.000000000
 10
125.107179041
 20
259.191690257
 30
0.000000000
 10
117.553845711
 20
259.191690257
 30
0.000000000
 10
110.000000000
 20
259.191690256
 30
0.000000000
 10
102.446255861
 20
259.191690257
 30
0.000000000
 10
94.892922529
 20
259.191690257
 30
0.000000000
 10
87.340000004
 20
259.191690257
 30
0.000000000
 10
82.705000017
 20
259.191690257
 30
0.000000000
 10
78.070000029
 20
259.191690256
 30
0.000000000
 10
73.435000042
 20
259.191690256
 30
0.000000000
 10
68.454837710
 20
259.191690256
 30
0.000000000
 10
63.468500566
 20
259.191690256
 30
0.000000000
 10
58.500000000
 20
259.191690257
 30
0.000000000
  0
LINE
  5
A2B
330
A02
100
AcDbEntity
  8
S04_RearWing_Top
100
AcDbLine
 10
111.400000000
 20
236.000000000
 30
0.000000000
 11
111.400000000
 21
248.000000000
 31
0.000000000
  0
LINE
  5
A2C
330
A02
100
AcDbEntity
  8
S04_RearWing_Top
100
AcDbLine
 10
108.600000000
 20
236.000000000
 30
0.000000000
 11
108.600000000
 21
248.000000000
 31
0.000000000
  0
SPLINE
  5
A2D
330
A02
100
AcDbEntity
  8
S04_RearWing_Rear
100
AcDbSpline
210
0
220
0
230
1
 70
8
 71
3
 72
29
 73
25
 74
0
 40
0.000000000
 40
0.000000000
 40
0.000000000
 40
0.000000000
 40
0.125000000
 40
0.125000000
 40
0.125000000
 40
0.250000000
 40
0.250000000
 40
0.250000000
 40
0.375000000
 40
0.375000000
 40
0.375000000
 40
0.500000000
 40
0.500000000
 40
0.500000000
 40
0.625000000
 40
0.625000000
 40
0.625000000
 40
0.750000000
 40
0.750000000
 40
0.750000000
 40
0.875000000
 40
0.875000000
 40
0.875000000
 40
1.000000000
 40
1.000000000
 40
1.000000000
 40
1.000000000
 10
58.500000000
 20
154.646846827
 30
0.000000000
 10
62.791666667
 20
153.989419217
 30
0.000000000
 10
67.083333333
 20
153.878583713
 30
0.000000000
 10
71.375000000
 20
153.838233546
 30
0.000000000
 10
75.666666667
 20
153.807750380
 30
0.000000000
 10
79.958333333
 20
153.847752550
 30
0.000000000
 10
84.250000000
 20
153.758409327
 30
0.000000000
 10
88.541666667
 20
153.678933105
 30
0.000000000
 10
92.833333333
 20
153.470111491
 30
0.000000000
 10
97.125000000
 20
153.208389796
 30
0.000000000
 10
101.416666667
 20
152.956535102
 30
0.000000000
 10
105.708333333
 20
152.651780328
 30
0.000000000
 10
110.000000000
 20
152.646846827
 30
0.000000000
 10
114.291666667
 20
152.651780328
 30
0.000000000
 10
118.583333333
 20
152.956535102
 30
0.000000000
 10
122.875000000
 20
153.208389796
 30
0.000000000
 10
127.166666667
 20
153.470111491
 30
0.000000000
 10
131.458333333
 20
153.678933105
 30
0.000000000
 10
135.750000000
 20
153.758409327
 30
0.000000000
 10
140.041666667
 20
153.847752550
 30
0.000000000
 10
144.333333333
 20
153.807750380
 30
0.000000000
 10
148.625000000
 20
153.838233546
 30
0.000000000
 10
152.916666667
 20
153.878583713
 30
0.000000000
 10
157.208333333
 20
153.989419217
 30
0.000000000
 10
161.500000000
 20
154.646846827
 30
0.000000000
  0
SPLINE
  5
A2E
330
A02
100
AcDbEntity
  8
S04_RearWing_Rear
100
AcDbSpline
210
0
220
0
230
1
 70
8
 71
3
 72
29
 73
25
 74
0
 40
0.000000000
 40
0.000000000
 40
0.000000000
 40
0.000000000
 40
0.125000000
 40
0.125000000
 40
0.125000000
 40
0.250000000
 40
0.250000000
 40
0.250000000
 40
0.375000000
 40
0.375000000
 40
0.375000000
 40
0.500000000
 40
0.500000000
 40
0.500000000
 40
0.625000000
 40
0.625000000
 40
0.625000000
 40
0.750000000
 40
0.750000000
 40
0.750000000
 40
0.875000000
 40
0.875000000
 40
0.875000000
 40
1.000000000
 40
1.000000000
 40
1.000000000
 40
1.000000000
 10
58.500000000
 20
166.553506388
 30
0.000000000
 10
62.791666667
 20
166.224792583
 30
0.000000000
 10
67.083333333
 20
166.169374831
 30
0.000000000
 10
71.375000000
 20
166.149199748
 30
0.000000000
 10
75.666666667
 20
166.133958165
 30
0.000000000
 10
79.958333333
 20
166.153959250
 30
0.000000000
 10
84.250000000
 20
166.109287638
 30
0.000000000
 10
88.541666667
 20
166.069549528
 30
0.000000000
 10
92.833333333
 20
165.965138720
 30
0.000000000
 10
97.125000000
 20
165.834277873
 30
0.000000000
 10
101.416666667
 20
165.708350526
 30
0.000000000
 10
105.708333333
 20
165.555973139
 30
0.000000000
 10
110.000000000
 20
165.553506388
 30
0.000000000
 10
114.291666667
 20
165.555973139
 30
0.000000000
 10
118.583333333
 20
165.708350526
 30
0.000000000
 10
122.875000000
 20
165.834277873
 30
0.000000000
 10
127.166666667
 20
165.965138720
 30
0.000000000
 10
131.458333333
 20
166.069549528
 30
0.000000000
 10
135.750000000
 20
166.109287638
 30
0.000000000
 10
140.041666667
 20
166.153959250
 30
0.000000000
 10
144.333333333
 20
166.133958165
 30
0.000000000
 10
148.625000000
 20
166.149199748
 30
0.000000000
 10
152.916666667
 20
166.169374831
 30
0.000000000
 10
157.208333333
 20
166.224792583
 30
0.000000000
 10
161.500000000
 20
166.553506388
 30
0.000000000
  0
LINE
  5
A2F
330
A02
100
AcDbEntity
  8
S04_RearWing_Rear
100
AcDbLine
 10
161.500000000
 20
133.250000000
 30
0.000000000
 11
162.500000000
 21
133.250000000
 31
0.000000000
  0
LINE
  5
A30
330
A02
100
AcDbEntity
  8
S04_RearWing_Rear
100
AcDbLine
 10
161.500000000
 20
168.250000000
 30
0.000000000
 11
162.500000000
 21
168.250000000
 31
0.000000000
  0
LINE
  5
A31
330
A02
100
AcDbEntity
  8
S04_RearWing_Rear
100
AcDbLine
 10
161.500000000
 20
133.250000000
 30
0.000000000
 11
161.500000000
 21
168.250000000
 31
0.000000000
  0
LINE
  5
A32
330
A02
100
AcDbEntity
  8
S04_RearWing_Rear
100
AcDbLine
 10
162.500000000
 20
133.250000000
 30
0.000000000
 11
162.500000000
 21
168.250000000
 31
0.000000000
  0
LINE
  5
A33
330
A02
100
AcDbEntity
  8
S04_RearWing_Rear
100
AcDbLine
 10
161.500000000
 20
168.750000000
 30
0.000000000
 11
162.500000000
 21
168.750000000
 31
0.000000000
  0
LINE
  5
A34
330
A02
100
AcDbEntity
  8
S04_RearWing_Rear
100
AcDbLine
 10
161.500000000
 20
168.250000000
 30
0.000000000
 11
161.500000000
 21
168.750000000
 31
0.000000000
  0
LINE
  5
A35
330
A02
100
AcDbEntity
  8
S04_RearWing_Rear
100
AcDbLine
 10
162.500000000
 20
168.250000000
 30
0.000000000
 11
162.500000000
 21
168.750000000
 31
0.000000000
  0
LINE
  5
A36
330
A02
100
AcDbEntity
  8
S04_RearWing_Rear
100
AcDbLine
 10
57.500000000
 20
133.250000000
 30
0.000000000
 11
58.500000000
 21
133.250000000
 31
0.000000000
  0
LINE
  5
A37
330
A02
100
AcDbEntity
  8
S04_RearWing_Rear
100
AcDbLine
 10
57.500000000
 20
168.250000000
 30
0.000000000
 11
58.500000000
 21
168.250000000
 31
0.000000000
  0
LINE
  5
A38
330
A02
100
AcDbEntity
  8
S04_RearWing_Rear
100
AcDbLine
 10
57.500000000
 20
133.250000000
 30
0.000000000
 11
57.500000000
 21
168.250000000
 31
0.000000000
  0
LINE
  5
A39
330
A02
100
AcDbEntity
  8
S04_RearWing_Rear
100
AcDbLine
 10
58.500000000
 20
133.250000000
 30
0.000000000
 11
58.500000000
 21
168.250000000
 31
0.000000000
  0
LINE
  5
A3A
330
A02
100
AcDbEntity
  8
S04_RearWing_Rear
100
AcDbLine
 10
57.500000000
 20
168.750000000
 30
0.000000000
 11
58.500000000
 21
168.750000000
 31
0.000000000
  0
LINE
  5
A3B
330
A02
100
AcDbEntity
  8
S04_RearWing_Rear
100
AcDbLine
 10
57.500000000
 20
168.250000000
 30
0.000000000
 11
57.500000000
 21
168.750000000
 31
0.000000000
  0
LINE
  5
A3C
330
A02
100
AcDbEntity
  8
S04_RearWing_Rear
100
AcDbLine
 10
58.500000000
 20
168.250000000
 30
0.000000000
 11
58.500000000
 21
168.750000000
 31
0.000000000
  0
LINE
  5
A3D
330
A02
100
AcDbEntity
  8
S04_RearWing_Rear
100
AcDbLine
 10
105.000000000
 20
111.250000000
 30
0.000000000
 11
105.800000000
 21
111.250000000
 31
0.000000000
  0
LINE
  5
A3E
330
A02
100
AcDbEntity
  8
S04_RearWing_Rear
100
AcDbLine
 10
105.000000000
 20
111.250000000
 30
0.000000000
 11
105.000000000
 21
112.355667946
 31
0.000000000
  0
LINE
  5
A3F
330
A02
100
AcDbEntity
  8
S04_RearWing_Rear
100
AcDbLine
 10
105.000000000
 20
116.787652494
 30
0.000000000
 11
105.000000000
 21
152.750000000
 31
0.000000000
  0
LINE
  5
A40
330
A02
100
AcDbEntity
  8
S04_RearWing_Rear
100
AcDbLine
 10
105.800000000
 20
111.250000000
 30
0.000000000
 11
105.800000000
 21
112.355667946
 31
0.000000000
  0
LINE
  5
A41
330
A02
100
AcDbEntity
  8
S04_RearWing_Rear
100
AcDbLine
 10
105.800000000
 20
116.787652494
 30
0.000000000
 11
105.800000000
 21
152.750000000
 31
0.000000000
  0
LINE
  5
A42
330
A02
100
AcDbEntity
  8
S04_RearWing_Rear
100
AcDbLine
 10
105.000000000
 20
153.250000000
 30
0.000000000
 11
105.800000000
 21
153.250000000
 31
0.000000000
  0
LINE
  5
A43
330
A02
100
AcDbEntity
  8
S04_RearWing_Rear
100
AcDbLine
 10
105.000000000
 20
152.750000000
 30
0.000000000
 11
105.000000000
 21
153.250000000
 31
0.000000000
  0
LINE
  5
A44
330
A02
100
AcDbEntity
  8
S04_RearWing_Rear
100
AcDbLine
 10
105.800000000
 20
152.750000000
 30
0.000000000
 11
105.800000000
 21
153.250000000
 31
0.000000000
  0
LINE
  5
A45
330
A02
100
AcDbEntity
  8
S04_RearWing_Rear
100
AcDbLine
 10
114.200000000
 20
111.250000000
 30
0.000000000
 11
115.000000000
 21
111.250000000
 31
0.000000000
  0
LINE
  5
A46
330
A02
100
AcDbEntity
  8
S04_RearWing_Rear
100
AcDbLine
 10
114.200000000
 20
111.250000000
 30
0.000000000
 11
114.200000000
 21
112.355667946
 31
0.000000000
  0
LINE
  5
A47
330
A02
100
AcDbEntity
  8
S04_RearWing_Rear
100
AcDbLine
 10
114.200000000
 20
116.787652494
 30
0.000000000
 11
114.200000000
 21
152.750000000
 31
0.000000000
  0
LINE
  5
A48
330
A02
100
AcDbEntity
  8
S04_RearWing_Rear
100
AcDbLine
 10
115.000000000
 20
111.250000000
 30
0.000000000
 11
115.000000000
 21
112.355667946
 31
0.000000000
  0
LINE
  5
A49
330
A02
100
AcDbEntity
  8
S04_RearWing_Rear
100
AcDbLine
 10
115.000000000
 20
116.787652494
 30
0.000000000
 11
115.000000000
 21
152.750000000
 31
0.000000000
  0
LINE
  5
A4A
330
A02
100
AcDbEntity
  8
S04_RearWing_Rear
100
AcDbLine
 10
114.200000000
 20
153.250000000
 30
0.000000000
 11
115.000000000
 21
153.250000000
 31
0.000000000
  0
LINE
  5
A4B
330
A02
100
AcDbEntity
  8
S04_RearWing_Rear
100
AcDbLine
 10
114.200000000
 20
152.750000000
 30
0.000000000
 11
114.200000000
 21
153.250000000
 31
0.000000000
  0
LINE
  5
A4C
330
A02
100
AcDbEntity
  8
S04_RearWing_Rear
100
AcDbLine
 10
115.000000000
 20
152.750000000
 30
0.000000000
 11
115.000000000
 21
153.250000000
 31
0.000000000
  0
SPLINE
  5
A4D
330
A02
100
AcDbEntity
  8
S04_RearWing_Rear
100
AcDbSpline
210
0
220
0
230
1
 70
8
 71
3
 72
14
 73
10
 74
0
 40
0.000000000
 40
0.000000000
 40
0.000000000
 40
0.000000000
 40
0.193222632
 40
0.193222632
 40
0.193222632
 40
0.303617093
 40
0.303617093
 40
0.303617093
 40
0.410340257
 40
0.410340257
 40
0.410340257
 40
0.410340257
 10
60.000000000
 20
116.784498744
 30
0.000000000
 10
60.000000000
 20
115.674069347
 30
0.000000000
 10
60.000000000
 20
114.730003810
 30
0.000000000
 10
60.000000000
 20
113.952302132
 30
0.000000000
 10
60.000000000
 20
113.510800128
 30
0.000000000
 10
60.000000000
 20
113.124471556
 30
0.000000000
 10
60.000000000
 20
112.820680448
 30
0.000000000
 10
60.000000000
 20
112.532692861
 30
0.000000000
 10
60.000000000
 20
112.357372767
 30
0.000000000
 10
60.000000000
 20
112.355667946
 30
0.000000000
  0
SPLINE
  5
A4E
330
A02
100
AcDbEntity
  8
S04_RearWing_Rear
100
AcDbSpline
210
0
220
0
230
1
 70
8
 71
1
 72
4
 73
2
 74
0
 40
0.999228920
 40
0.999228920
 40
0.999613210
 40
0.999613210
 10
60.000000000
 20
116.785251780
 30
0.000000000
 10
60.000000000
 20
116.787652494
 30
0.000000000
  0
SPLINE
  5
A4F
330
A02
100
AcDbEntity
  8
S04_RearWing_Rear
100
AcDbSpline
210
0
220
0
230
1
 70
8
 71
1
 72
4
 73
2
 74
0
 40
0.999613210
 40
0.999613210
 40
1.000000000
 40
1.000000000
 10
60.000000000
 20
116.787652494
 30
0.000000000
 10
60.000000000
 20
116.784498744
 30
0.000000000
  0
SPLINE
  5
A50
330
A02
100
AcDbEntity
  8
S04_RearWing_Rear
100
AcDbSpline
210
0
220
0
230
1
 70
8
 71
3
 72
14
 73
10
 74
0
 40
0.000000000
 40
0.000000000
 40
0.000000000
 40
0.000000000
 40
0.193222632
 40
0.193222632
 40
0.193222632
 40
0.303617093
 40
0.303617093
 40
0.303617093
 40
0.410340257
 40
0.410340257
 40
0.410340257
 40
0.410340257
 10
160.000000000
 20
116.784498744
 30
0.000000000
 10
160.000000000
 20
115.674069347
 30
0.000000000
 10
160.000000000
 20
114.730003810
 30
0.000000000
 10
160.000000000
 20
113.952302132
 30
0.000000000
 10
160.000000000
 20
113.510800128
 30
0.000000000
 10
160.000000000
 20
113.124471556
 30
0.000000000
 10
160.000000000
 20
112.820680448
 30
0.000000000
 10
160.000000000
 20
112.532692861
 30
0.000000000
 10
160.000000000
 20
112.357372767
 30
0.000000000
 10
160.000000000
 20
112.355667946
 30
0.000000000
  0
SPLINE
  5
A51
330
A02
100
AcDbEntity
  8
S04_RearWing_Rear
100
AcDbSpline
210
0
220
0
230
1
 70
8
 71
1
 72
4
 73
2
 74
0
 40
0.999228920
 40
0.999228920
 40
0.999613210
 40
0.999613210
 10
160.000000000
 20
116.785251780
 30
0.000000000
 10
160.000000000
 20
116.787652494
 30
0.000000000
  0
SPLINE
  5
A52
330
A02
100
AcDbEntity
  8
S04_RearWing_Rear
100
AcDbSpline
210
0
220
0
230
1
 70
8
 71
1
 72
4
 73
2
 74
0
 40
0.999613210
 40
0.999613210
 40
1.000000000
 40
1.000000000
 10
160.000000000
 20
116.787652494
 30
0.000000000
 10
160.000000000
 20
116.784498744
 30
0.000000000
  0
SPLINE
  5
A53
330
A02
100
AcDbEntity
  8
S04_RearWing_Rear
100
AcDbSpline
210
0
220
0
230
1
 70
8
 71
3
 72
23
 73
19
 74
0
 40
0.000000000
 40
0.000000000
 40
0.000000000
 40
0.000000000
 40
0.105699919
 40
0.105699919
 40
0.105699919
 40
0.204860399
 40
0.204860399
 40
0.204860399
 40
0.288372567
 40
0.288372567
 40
0.288372567
 40
0.358919264
 40
0.358919264
 40
0.358919264
 40
0.429465962
 40
0.429465962
 40
0.429465962
 40
0.471846079
 40
0.471846079
 40
0.471846079
 40
0.471846079
 10
58.500000000
 20
148.251448861
 30
0.000000000
 10
61.938168859
 20
147.722049115
 30
0.000000000
 10
65.419322986
 20
147.548281594
 30
0.000000000
 10
68.893637766
 20
147.476866483
 30
0.000000000
 10
72.154905730
 20
147.412632152
 30
0.000000000
 10
75.416968795
 20
147.436618344
 30
0.000000000
 10
78.678636365
 20
147.423055536
 30
0.000000000
 10
81.425662072
 20
147.413852350
 30
0.000000000
 10
84.172775427
 20
147.379933723
 30
0.000000000
 10
86.918636472
 20
147.297037995
 30
0.000000000
 10
89.238255705
 20
147.226266002
 30
0.000000000
 10
91.556667764
 20
147.127111710
 30
0.000000000
 10
93.873872649
 20
146.999575119
 30
0.000000000
 10
96.191118435
 20
146.874731384
 30
0.000000000
 10
98.507041020
 20
146.727095937
 30
0.000000000
 10
100.823636473
 20
146.591071112
 30
0.000000000
 10
102.215215894
 20
146.507733967
 30
0.000000000
 10
103.607337069
 20
146.434900711
 30
0.000000000
 10
105.000000000
 20
146.372571344
 30
0.000000000
  0
SPLINE
  5
A54
330
A02
100
AcDbEntity
  8
S04_RearWing_Rear
100
AcDbSpline
210
0
220
0
230
1
 70
8
 71
2
 72
8
 73
5
 74
0
 40
0.479959736
 40
0.479959736
 40
0.479959736
 40
0.523481962
 40
0.523481962
 40
0.565109020
 40
0.565109020
 40
0.565109020
 10
105.800000000
 20
146.339831421
 30
0.000000000
 10
107.945974006
 20
146.253352776
 30
0.000000000
 10
110.093636387
 20
146.251479967
 30
0.000000000
 10
112.147680726
 20
146.257465516
 30
0.000000000
 10
114.200000000
 20
146.339828151
 30
0.000000000
  0
SPLINE
  5
A55
330
A02
100
AcDbEntity
  8
S04_RearWing_Rear
100
AcDbSpline
210
0
220
0
230
1
 70
8
 71
3
 72
23
 73
19
 74
0
 40
0.573223169
 40
0.573223169
 40
0.573223169
 40
0.573223169
 40
0.654106267
 40
0.654106267
 40
0.654106267
 40
0.753379913
 40
0.753379913
 40
0.753379913
 40
0.823839997
 40
0.823839997
 40
0.823839997
 40
0.894300081
 40
0.894300081
 40
0.894300081
 40
0.947150041
 40
0.947150041
 40
0.947150041
 40
1.000000000
 40
1.000000000
 40
1.000000000
 40
1.000000000
 10
115.000000000
 20
146.372568665
 30
0.000000000
 10
117.658050162
 20
146.488481529
 30
0.000000000
 10
120.312922624
 20
146.660648961
 30
0.000000000
 10
122.968636720
 20
146.818584483
 30
0.000000000
 10
126.228186427
 20
147.014976626
 30
0.000000000
 10
129.489558599
 20
147.186915856
 30
0.000000000
 10
132.753636267
 20
147.287031836
 30
0.000000000
 10
135.070393176
 20
147.357786475
 30
0.000000000
 10
137.387674929
 20
147.400277353
 30
0.000000000
 10
139.705481527
 20
147.414504469
 30
0.000000000
 10
142.023165305
 20
147.431453650
 30
0.000000000
 10
144.340919795
 20
147.425780915
 30
0.000000000
 10
146.658636364
 20
147.432330537
 30
0.000000000
 10
149.138458712
 20
147.440517775
 30
0.000000000
 10
151.618112378
 20
147.461760929
 30
0.000000000
 10
154.095955549
 20
147.569486123
 30
0.000000000
 10
156.573075760
 20
147.678047282
 30
0.000000000
 10
159.048385476
 20
147.873090483
 30
0.000000000
 10
161.500000000
 20
148.251448861
 30
0.000000000
  0
SPLINE
  5
A56
330
A02
100
AcDbEntity
  8
S04_RearWing_Rear
100
AcDbSpline
210
0
220
0
230
1
 70
8
 71
3
 72
29
 73
25
 74
0
 40
0.000000000
 40
0.000000000
 40
0.000000000
 40
0.000000000
 40
0.145049035
 40
0.145049035
 40
0.145049035
 40
0.280007376
 40
0.280007376
 40
0.280007376
 40
0.410008128
 40
0.410008128
 40
0.410008128
 40
0.499997395
 40
0.499997395
 40
0.499997395
 40
0.639995828
 40
0.639995828
 40
0.639995828
 40
0.719991396
 40
0.719991396
 40
0.719991396
 40
0.854950328
 40
0.854950328
 40
0.854950328
 40
1.000000000
 40
1.000000000
 40
1.000000000
 40
1.000000000
 10
58.500000000
 20
156.485908033
 30
0.000000000
 10
63.468500566
 20
156.106704075
 30
0.000000000
 10
68.454837710
 20
156.087567958
 30
0.000000000
 10
73.435000042
 20
156.076241173
 30
0.000000000
 10
78.070061888
 20
156.072979525
 30
0.000000000
 10
82.705407582
 20
156.078676289
 30
0.000000000
 10
87.340000011
 20
156.002230644
 30
0.000000000
 10
91.804427943
 20
155.934707577
 30
0.000000000
 10
96.267205841
 20
155.792322035
 30
0.000000000
 10
100.730000006
 20
155.658462861
 30
0.000000000
 10
103.819235121
 20
155.568463109
 30
0.000000000
 10
106.909228144
 20
155.486575525
 30
0.000000000
 10
110.000000000
 20
155.485907980
 30
0.000000000
 10
114.808491805
 20
155.489816696
 30
0.000000000
 10
119.614074345
 20
155.677293467
 30
0.000000000
 10
124.420000037
 20
155.812183096
 30
0.000000000
 10
127.166246935
 20
155.893939072
 30
0.000000000
 10
129.912913588
 20
155.957288110
 30
0.000000000
 10
132.659999996
 20
156.002230209
 30
0.000000000
 10
137.294592416
 20
156.078676403
 30
0.000000000
 10
141.929938112
 20
156.072979494
 30
0.000000000
 10
146.564999958
 20
156.076241173
 30
0.000000000
 10
151.545162290
 20
156.087567958
 30
0.000000000
 10
156.531499434
 20
156.106704075
 30
0.000000000
 10
161.500000000
 20
156.485908033
 30
0.000000000
  0
SPLINE
  5
A57
330
A02
100
AcDbEntity
  8
S04_RearWing_Rear
100
AcDbSpline
210
0
220
0
230
1
 70
8
 71
3
 72
29
 73
25
 74
0
 40
0.000000000
 40
0.000000000
 40
0.000000000
 40
0.000000000
 40
0.145049035
 40
0.145049035
 40
0.145049035
 40
0.280007376
 40
0.280007376
 40
0.280007376
 40
0.410008128
 40
0.410008128
 40
0.410008128
 40
0.499997395
 40
0.499997395
 40
0.499997395
 40
0.639995828
 40
0.639995828
 40
0.639995828
 40
0.719991396
 40
0.719991396
 40
0.719991396
 40
0.854950328
 40
0.854950328
 40
0.854950328
 40
1.000000000
 40
1.000000000
 40
1.000000000
 40
1.000000000
 10
58.500000000
 20
166.557828180
 30
0.000000000
 10
63.468500566
 20
166.178624221
 30
0.000000000
 10
68.454837710
 20
166.159488105
 30
0.000000000
 10
73.435000042
 20
166.148161320
 30
0.000000000
 10
78.070061888
 20
166.144899672
 30
0.000000000
 10
82.705407582
 20
166.150596436
 30
0.000000000
 10
87.340000011
 20
166.074150791
 30
0.000000000
 10
91.804427943
 20
166.006627723
 30
0.000000000
 10
96.267205841
 20
165.864242182
 30
0.000000000
 10
100.730000006
 20
165.730383008
 30
0.000000000
 10
103.819235121
 20
165.640383256
 30
0.000000000
 10
106.909228144
 20
165.558495672
 30
0.000000000
 10
110.000000000
 20
165.557828127
 30
0.000000000
 10
114.808491805
 20
165.561736843
 30
0.000000000
 10
119.614074345
 20
165.749213613
 30
0.000000000
 10
124.420000037
 20
165.884103242
 30
0.000000000
 10
127.166246935
 20
165.965859219
 30
0.000000000
 10
129.912913588
 20
166.029208257
 30
0.000000000
 10
132.659999996
 20
166.074150356
 30
0.000000000
 10
137.294592416
 20
166.150596550
 30
0.000000000
 10
141.929938112
 20
166.144899641
 30
0.000000000
 10
146.564999958
 20
166.148161320
 30
0.000000000
 10
151.545162290
 20
166.159488105
 30
0.000000000
 10
156.531499434
 20
166.178624221
 30
0.000000000
 10
161.500000000
 20
166.557828180
 30
0.000000000
  0
LINE
  5
A58
330
A02
100
AcDbEntity
  8
S04_RearWing_Rear
100
AcDbLine
 10
111.400000000
 20
149.250000000
 30
0.000000000
 11
111.400000000
 21
155.491410956
 31
0.000000000
  0
LINE
  5
A59
330
A02
100
AcDbEntity
  8
S04_RearWing_Rear
100
AcDbLine
 10
108.600000000
 20
149.250000000
 30
0.000000000
 11
108.600000000
 21
155.491410658
 31
0.000000000
  0
SPLINE
  5
A5A
330
A02
100
AcDbEntity
  8
S04_RearWing_Rear
100
AcDbSpline
210
0
220
0
230
1
 70
8
 71
1
 72
4
 73
2
 74
0
 40
0.000000000
 40
0.000000000
 40
1.000000000
 40
1.000000000
 10
60.000000000
 20
112.355667946
 30
0.000000000
 10
160.000000000
 20
112.355667946
 30
0.000000000
  0
SPLINE
  5
A5B
330
A02
100
AcDbEntity
  8
S04_RearWing_Rear
100
AcDbSpline
210
0
220
0
230
1
 70
8
 71
1
 72
4
 73
2
 74
0
 40
0.000000000
 40
0.000000000
 40
1.000000000
 40
1.000000000
 10
60.000000000
 20
116.787652494
 30
0.000000000
 10
160.000000000
 20
116.787652494
 30
0.000000000
  0
SPLINE
  5
A5C
330
A02
100
AcDbEntity
  8
S04_RearWing_Rear
100
AcDbSpline
210
0
220
0
230
1
 70
8
 71
1
 72
4
 73
2
 74
0
 40
0.000000000
 40
0.000000000
 40
1.000000000
 40
1.000000000
 10
60.000000000
 20
116.784498744
 30
0.000000000
 10
160.000000000
 20
116.784498744
 30
0.000000000
  0
LINE
  5
A5D
330
A02
100
AcDbEntity
  8
S04_RearWing_Side
100
AcDbLine
 10
232.000000000
 20
194.875000000
 30
0.000000000
 11
283.000000000
 21
194.875000000
 31
0.000000000
  0
LINE
  5
A5E
330
A02
100
AcDbEntity
  8
S04_RearWing_Side
100
AcDbLine
 10
283.000000000
 20
194.875000000
 30
0.000000000
 11
290.500000000
 21
247.375000000
 31
0.000000000
  0
LINE
  5
A5F
330
A02
100
AcDbEntity
  8
S04_RearWing_Side
100
AcDbLine
 10
290.500000000
 20
247.375000000
 30
0.000000000
 11
236.500000000
 21
248.125000000
 31
0.000000000
  0
LINE
  5
A60
330
A02
100
AcDbEntity
  8
S04_RearWing_Side
100
AcDbLine
 10
236.500000000
 20
248.125000000
 30
0.000000000
 11
230.500000000
 21
236.875000000
 31
0.000000000
  0
LINE
  5
A61
330
A02
100
AcDbEntity
  8
S04_RearWing_Side
100
AcDbLine
 10
230.500000000
 20
236.875000000
 30
0.000000000
 11
232.000000000
 21
194.875000000
 31
0.000000000
  0
LINE
  5
A62
330
A02
100
AcDbEntity
  8
S04_RearWing_Side
100
AcDbLine
 10
209.500000000
 20
161.875000000
 30
0.000000000
 11
230.500000000
 21
161.875000000
 31
0.000000000
  0
LINE
  5
A63
330
A02
100
AcDbEntity
  8
S04_RearWing_Side
100
AcDbLine
 10
230.500000000
 20
161.875000000
 30
0.000000000
 11
247.198795181
 21
194.875000000
 31
0.000000000
  0
LINE
  5
A64
330
A02
100
AcDbEntity
  8
S04_RearWing_Side
100
AcDbLine
 10
231.838274933
 20
199.403301887
 30
0.000000000
 11
209.500000000
 21
161.875000000
 31
0.000000000
  0
SPLINE
  5
A65
330
A02
100
AcDbEntity
  8
S04_RearWing_Side
100
AcDbSpline
210
0
220
0
230
1
 70
9
 71
3
 72
80
 73
76
 74
0
 40
0.000000000
 40
0.000000000
 40
0.000000000
 40
0.000000000
 40
0.116436643
 40
0.116436643
 40
0.116436643
 40
0.248376052
 40
0.248376052
 40
0.248376052
 40
0.303617093
 40
0.303617093
 40
0.303617093
 40
0.381973669
 40
0.381973669
 40
0.381973669
 40
0.445745319
 40
0.445745319
 40
0.445745319
 40
0.476751690
 40
0.476751690
 40
0.476751690
 40
0.497237700
 40
0.497237700
 40
0.497237700
 40
0.503775290
 40
0.503775290
 40
0.503775290
 40
0.508782589
 40
0.508782589
 40
0.508782589
 40
0.513787116
 40
0.513787116
 40
0.513787116
 40
0.520268607
 40
0.520268607
 40
0.520268607
 40
0.529006589
 40
0.529006589
 40
0.529006589
 40
0.553829772
 40
0.553829772
 40
0.553829772
 40
0.569761901
 40
0.569761901
 40
0.569761901
 40
0.629472515
 40
0.629472515
 40
0.629472515
 40
0.702248337
 40
0.702248337
 40
0.702248337
 40
0.755588640
 40
0.755588640
 40
0.755588640
 40
0.884519473
 40
0.884519473
 40
0.884519473
 40
0.945861181
 40
0.945861181
 40
0.945861181
 40
0.961904254
 40
0.961904254
 40
0.961904254
 40
0.975352789
 40
0.975352789
 40
0.975352789
 40
0.986017967
 40
0.986017967
 40
0.986017967
 40
0.993747907
 40
0.993747907
 40
0.993747907
 40
0.998431257
 40
0.998431257
 40
0.998431257
 40
1.000000000
 40
1.000000000
 40
1.000000000
 40
1.000000000
 10
264.442763819
 20
170.176748116
 30
0.000000000
 10
262.674806476
 20
169.173690819
 30
0.000000000
 10
260.861519962
 20
168.260554706
 30
0.000000000
 10
259.002904276
 20
167.437339776
 30
0.000000000
 10
256.898870591
 20
166.505063918
 30
0.000000000
 10
254.744540459
 20
165.683993636
 30
0.000000000
 10
252.545867293
 20
165.003156979
 30
0.000000000
 10
251.624860573
 20
164.720200997
 30
0.000000000
 10
250.697401755
 20
164.456463108
 30
0.000000000
 10
249.760484504
 20
164.231020673
 30
0.000000000
 10
248.431297317
 20
163.913042125
 30
0.000000000
 10
247.078275638
 20
163.688725335
 30
0.000000000
 10
245.714693126
 20
163.588952819
 30
0.000000000
 10
244.605547002
 20
163.509230177
 30
0.000000000
 10
243.487928212
 20
163.507441182
 30
0.000000000
 10
242.382155282
 20
163.634978933
 30
0.000000000
 10
241.845159965
 20
163.698583462
 30
0.000000000
 10
241.310231134
 20
163.791496308
 30
0.000000000
 10
240.791019650
 20
163.945193454
 30
0.000000000
 10
240.449765042
 20
164.049187837
 30
0.000000000
 10
240.109413391
 20
164.173439278
 30
0.000000000
 10
239.815426597
 20
164.381105994
 30
0.000000000
 10
239.722261903
 20
164.448166618
 30
0.000000000
 10
239.634852601
 20
164.524969866
 30
0.000000000
 10
239.574194936
 20
164.623691785
 30
0.000000000
 10
239.527735750
 20
164.699305310
 30
0.000000000
 10
239.496970150
 20
164.787777209
 30
0.000000000
 10
239.500000000
 20
164.875000000
 30
0.000000000
 10
239.503028172
 20
164.962174494
 30
0.000000000
 10
239.539814378
 20
165.048101263
 30
0.000000000
 10
239.590941246
 20
165.120589864
 30
0.000000000
 10
239.657156969
 20
165.214471716
 30
0.000000000
 10
239.747427012
 20
165.285813048
 30
0.000000000
 10
239.842651302
 20
165.347927994
 30
0.000000000
 10
239.971981909
 20
165.430227514
 30
0.000000000
 10
240.107453071
 20
165.500079208
 30
0.000000000
 10
240.249064790
 20
165.557483076
 30
0.000000000
 10
240.649803867
 20
165.722848252
 30
0.000000000
 10
241.071347108
 20
165.831426155
 30
0.000000000
 10
241.492581648
 20
165.929260686
 30
0.000000000
 10
241.763682050
 20
165.990593820
 30
0.000000000
 10
242.035924658
 20
166.046428995
 30
0.000000000
 10
242.309309473
 20
166.096766213
 30
0.000000000
 10
243.333711948
 20
166.285854108
 30
0.000000000
 10
244.365727339
 20
166.429141265
 30
0.000000000
 10
245.396568074
 20
166.577478618
 30
0.000000000
 10
246.653347317
 20
166.756178979
 30
0.000000000
 10
247.909952703
 20
166.937321414
 30
0.000000000
 10
249.161746869
 20
167.148677804
 30
0.000000000
 10
250.078835547
 20
167.305690118
 30
0.000000000
 10
250.995701344
 20
167.463997587
 30
0.000000000
 10
251.912344259
 20
167.623600210
 30
0.000000000
 10
254.128040993
 20
168.008925937
 30
0.000000000
 10
256.340118173
 20
168.416169910
 30
0.000000000
 10
258.543089446
 20
168.869033602
 30
0.000000000
 10
259.591291766
 20
169.084199626
 30
0.000000000
 10
260.637538711
 20
169.308364098
 30
0.000000000
 10
261.681830284
 20
169.541527020
 30
0.000000000
 10
261.953809892
 20
169.602019829
 30
0.000000000
 10
262.226812152
 20
169.663523901
 30
0.000000000
 10
262.500837061
 20
169.726039236
 30
0.000000000
 10
262.732905166
 20
169.779371193
 30
0.000000000
 10
262.961566252
 20
169.831766485
 30
0.000000000
 10
263.186820318
 20
169.883225114
 30
0.000000000
 10
263.364008470
 20
169.923461630
 30
0.000000000
 10
263.535612533
 20
169.961748117
 30
0.000000000
 10
263.730476818
 20
170.009410472
 30
0.000000000
 10
263.871711160
 20
170.043955342
 30
0.000000000
 10
264.025164341
 20
170.083425455
 30
0.000000000
 10
264.124323803
 20
170.101665447
 30
0.000000000
 10
264.184401687
 20
170.112716537
 30
0.000000000
 10
264.224549423
 20
170.115974471
 30
0.000000000
 10
264.362871456
 20
170.157870753
 30
0.000000000
 10
264.409204043
 20
170.171904404
 30
0.000000000
 10
264.466551724
 20
170.190273253
 30
0.000000000
 10
264.442763819
 20
170.176748116
 30
0.000000000
  0
SPLINE
  5
A66
330
A02
100
AcDbEntity
  8
S04_RearWing_Side
100
AcDbSpline
210
0
220
0
230
1
 70
8
 71
3
 72
50
 73
46
 74
0
 40
0.511815046
 40
0.511815046
 40
0.511815046
 40
0.511815046
 40
0.520268607
 40
0.520268607
 40
0.520268607
 40
0.529006589
 40
0.529006589
 40
0.529006589
 40
0.540202500
 40
0.540202500
 40
0.540202500
 40
0.569761901
 40
0.569761901
 40
0.569761901
 40
0.629472515
 40
0.629472515
 40
0.629472515
 40
0.702248337
 40
0.702248337
 40
0.702248337
 40
0.755588640
 40
0.755588640
 40
0.755588640
 40
0.884519473
 40
0.884519473
 40
0.884519473
 40
0.945861181
 40
0.945861181
 40
0.945861181
 40
0.961904254
 40
0.961904254
 40
0.961904254
 40
0.975352789
 40
0.975352789
 40
0.975352789
 40
0.986017967
 40
0.986017967
 40
0.986017967
 40
0.993747907
 40
0.993747907
 40
0.993747907
 40
0.998431257
 40
0.998431257
 40
0.998431257
 40
1.000000000
 40
1.000000000
 40
1.000000000
 40
1.000000000
 10
239.538369150
 20
165.029381733
 30
0.000000000
 10
239.601930497
 20
165.168905274
 30
0.000000000
 10
239.718806768
 20
165.267522239
 30
0.000000000
 10
239.842651302
 20
165.347927994
 30
0.000000000
 10
239.971981909
 20
165.430227514
 30
0.000000000
 10
240.107453071
 20
165.500079208
 30
0.000000000
 10
240.249064790
 20
165.557483076
 30
0.000000000
 10
240.429895516
 20
165.631731236
 30
0.000000000
 10
240.614282513
 20
165.696083097
 30
0.000000000
 10
240.802225781
 20
165.750538661
 30
0.000000000
 10
241.297138636
 20
165.896475845
 30
0.000000000
 10
241.802628610
 20
166.001651129
 30
0.000000000
 10
242.309309473
 20
166.096766213
 30
0.000000000
 10
243.333711948
 20
166.285854108
 30
0.000000000
 10
244.365727339
 20
166.429141265
 30
0.000000000
 10
245.396568074
 20
166.577478618
 30
0.000000000
 10
246.653347317
 20
166.756178979
 30
0.000000000
 10
247.909952703
 20
166.937321414
 30
0.000000000
 10
249.161746869
 20
167.148677804
 30
0.000000000
 10
250.078835547
 20
167.305690118
 30
0.000000000
 10
250.995701344
 20
167.463997587
 30
0.000000000
 10
251.912344259
 20
167.623600210
 30
0.000000000
 10
254.128040993
 20
168.008925937
 30
0.000000000
 10
256.340118173
 20
168.416169910
 30
0.000000000
 10
258.543089446
 20
168.869033602
 30
0.000000000
 10
259.591291766
 20
169.084199626
 30
0.000000000
 10
260.637538711
 20
169.308364098
 30
0.000000000
 10
261.681830284
 20
169.541527020
 30
0.000000000
 10
261.953809892
 20
169.602019829
 30
0.000000000
 10
262.226812152
 20
169.663523901
 30
0.000000000
 10
262.500837061
 20
169.726039236
 30
0.000000000
 10
262.732905166
 20
169.779371193
 30
0.000000000
 10
262.961566252
 20
169.831766485
 30
0.000000000
 10
263.186820318
 20
169.883225114
 30
0.000000000
 10
263.364008470
 20
169.923461630
 30
0.000000000
 10
263.535612533
 20
169.961748117
 30
0.000000000
 10
263.730476818
 20
170.009410472
 30
0.000000000
 10
263.871711160
 20
170.043955342
 30
0.000000000
 10
264.025164341
 20
170.083425455
 30
0.000000000
 10
264.124323803
 20
170.101665447
 30
0.000000000
 10
264.184401687
 20
170.112716537
 30
0.000000000
 10
264.224549423
 20
170.115974471
 30
0.000000000
 10
264.362871456
 20
170.157870753
 30
0.000000000
 10
264.409204043
 20
170.171904404
 30
0.000000000
 10
264.466551724
 20
170.190273253
 30
0.000000000
 10
264.442763819
 20
170.176748116
 30
0.000000000
  0
LINE
  5
A67
330
A02
100
AcDbEntity
  8
S04_RearWing_SecC
100
AcDbLine
 10
337.000000000
 20
194.875000000
 30
0.000000000
 11
388.000000000
 21
194.875000000
 31
0.000000000
  0
LINE
  5
A68
330
A02
100
AcDbEntity
  8
S04_RearWing_SecC
100
AcDbLine
 10
388.000000000
 20
194.875000000
 30
0.000000000
 11
395.500000000
 21
247.375000000
 31
0.000000000
  0
LINE
  5
A69
330
A02
100
AcDbEntity
  8
S04_RearWing_SecC
100
AcDbLine
 10
395.500000000
 20
247.375000000
 30
0.000000000
 11
341.500000000
 21
248.125000000
 31
0.000000000
  0
LINE
  5
A6A
330
A02
100
AcDbEntity
  8
S04_RearWing_SecC
100
AcDbLine
 10
341.500000000
 20
248.125000000
 30
0.000000000
 11
335.500000000
 21
236.875000000
 31
0.000000000
  0
LINE
  5
A6B
330
A02
100
AcDbEntity
  8
S04_RearWing_SecC
100
AcDbLine
 10
335.500000000
 20
236.875000000
 30
0.000000000
 11
337.000000000
 21
194.875000000
 31
0.000000000
  0
LINE
  5
A6C
330
A02
100
AcDbEntity
  8
S04_RearWing_SecC
100
AcDbLine
 10
314.500000000
 20
161.875000000
 30
0.000000000
 11
335.500000000
 21
161.875000000
 31
0.000000000
  0
LINE
  5
A6D
330
A02
100
AcDbEntity
  8
S04_RearWing_SecC
100
AcDbLine
 10
335.500000000
 20
161.875000000
 30
0.000000000
 11
352.198795181
 21
194.875000000
 31
0.000000000
  0
LINE
  5
A6E
330
A02
100
AcDbEntity
  8
S04_RearWing_SecC
100
AcDbLine
 10
336.838274933
 20
199.403301887
 30
0.000000000
 11
314.500000000
 21
161.875000000
 31
0.000000000
  0
SPLINE
  5
A6F
330
A02
100
AcDbEntity
  8
S04_RearWing_SecC
100
AcDbSpline
210
0
220
0
230
1
 70
9
 71
3
 72
80
 73
76
 74
0
 40
0.000000000
 40
0.000000000
 40
0.000000000
 40
0.000000000
 40
0.116436643
 40
0.116436643
 40
0.116436643
 40
0.248376052
 40
0.248376052
 40
0.248376052
 40
0.303617093
 40
0.303617093
 40
0.303617093
 40
0.381973669
 40
0.381973669
 40
0.381973669
 40
0.445745319
 40
0.445745319
 40
0.445745319
 40
0.476751690
 40
0.476751690
 40
0.476751690
 40
0.497237700
 40
0.497237700
 40
0.497237700
 40
0.503775290
 40
0.503775290
 40
0.503775290
 40
0.508782589
 40
0.508782589
 40
0.508782589
 40
0.513787116
 40
0.513787116
 40
0.513787116
 40
0.520268607
 40
0.520268607
 40
0.520268607
 40
0.529006589
 40
0.529006589
 40
0.529006589
 40
0.553829772
 40
0.553829772
 40
0.553829772
 40
0.569761901
 40
0.569761901
 40
0.569761901
 40
0.629472515
 40
0.629472515
 40
0.629472515
 40
0.702248337
 40
0.702248337
 40
0.702248337
 40
0.755588640
 40
0.755588640
 40
0.755588640
 40
0.884519473
 40
0.884519473
 40
0.884519473
 40
0.945861181
 40
0.945861181
 40
0.945861181
 40
0.961904254
 40
0.961904254
 40
0.961904254
 40
0.975352789
 40
0.975352789
 40
0.975352789
 40
0.986017967
 40
0.986017967
 40
0.986017967
 40
0.993747907
 40
0.993747907
 40
0.993747907
 40
0.998431257
 40
0.998431257
 40
0.998431257
 40
1.000000000
 40
1.000000000
 40
1.000000000
 40
1.000000000
 10
369.442763819
 20
170.176748116
 30
0.000000000
 10
367.674806476
 20
169.173690819
 30
0.000000000
 10
365.861519962
 20
168.260554706
 30
0.000000000
 10
364.002904276
 20
167.437339776
 30
0.000000000
 10
361.898870591
 20
166.505063918
 30
0.000000000
 10
359.744540459
 20
165.683993636
 30
0.000000000
 10
357.545867293
 20
165.003156979
 30
0.000000000
 10
356.624860573
 20
164.720200997
 30
0.000000000
 10
355.697401755
 20
164.456463108
 30
0.000000000
 10
354.760484504
 20
164.231020673
 30
0.000000000
 10
353.431297317
 20
163.913042125
 30
0.000000000
 10
352.078275638
 20
163.688725335
 30
0.000000000
 10
350.714693126
 20
163.588952819
 30
0.000000000
 10
349.605547002
 20
163.509230177
 30
0.000000000
 10
348.487928212
 20
163.507441182
 30
0.000000000
 10
347.382155282
 20
163.634978933
 30
0.000000000
 10
346.845159965
 20
163.698583462
 30
0.000000000
 10
346.310231134
 20
163.791496308
 30
0.000000000
 10
345.791019650
 20
163.945193454
 30
0.000000000
 10
345.449765042
 20
164.049187837
 30
0.000000000
 10
345.109413391
 20
164.173439278
 30
0.000000000
 10
344.815426597
 20
164.381105994
 30
0.000000000
 10
344.722261903
 20
164.448166618
 30
0.000000000
 10
344.634852601
 20
164.524969866
 30
0.000000000
 10
344.574194936
 20
164.623691785
 30
0.000000000
 10
344.527735750
 20
164.699305310
 30
0.000000000
 10
344.496970150
 20
164.787777209
 30
0.000000000
 10
344.500000000
 20
164.875000000
 30
0.000000000
 10
344.503028172
 20
164.962174494
 30
0.000000000
 10
344.539814378
 20
165.048101263
 30
0.000000000
 10
344.590941246
 20
165.120589864
 30
0.000000000
 10
344.657156969
 20
165.214471716
 30
0.000000000
 10
344.747427012
 20
165.285813048
 30
0.000000000
 10
344.842651302
 20
165.347927994
 30
0.000000000
 10
344.971981909
 20
165.430227514
 30
0.000000000
 10
345.107453071
 20
165.500079208
 30
0.000000000
 10
345.249064790
 20
165.557483076
 30
0.000000000
 10
345.649803867
 20
165.722848252
 30
0.000000000
 10
346.071347108
 20
165.831426155
 30
0.000000000
 10
346.492581648
 20
165.929260686
 30
0.000000000
 10
346.763682050
 20
165.990593820
 30
0.000000000
 10
347.035924658
 20
166.046428995
 30
0.000000000
 10
347.309309473
 20
166.096766213
 30
0.000000000
 10
348.333711948
 20
166.285854108
 30
0.000000000
 10
349.365727339
 20
166.429141265
 30
0.000000000
 10
350.396568074
 20
166.577478618
 30
0.000000000
 10
351.653347317
 20
166.756178979
 30
0.000000000
 10
352.909952703
 20
166.937321414
 30
0.000000000
 10
354.161746869
 20
167.148677804
 30
0.000000000
 10
355.078835547
 20
167.305690118
 30
0.000000000
 10
355.995701344
 20
167.463997587
 30
0.000000000
 10
356.912344259
 20
167.623600210
 30
0.000000000
 10
359.128040993
 20
168.008925937
 30
0.000000000
 10
361.340118173
 20
168.416169910
 30
0.000000000
 10
363.543089446
 20
168.869033602
 30
0.000000000
 10
364.591291766
 20
169.084199626
 30
0.000000000
 10
365.637538711
 20
169.308364098
 30
0.000000000
 10
366.681830284
 20
169.541527020
 30
0.000000000
 10
366.953809892
 20
169.602019829
 30
0.000000000
 10
367.226812152
 20
169.663523901
 30
0.000000000
 10
367.500837061
 20
169.726039236
 30
0.000000000
 10
367.732905166
 20
169.779371193
 30
0.000000000
 10
367.961566252
 20
169.831766485
 30
0.000000000
 10
368.186820318
 20
169.883225114
 30
0.000000000
 10
368.364008470
 20
169.923461630
 30
0.000000000
 10
368.535612533
 20
169.961748117
 30
0.000000000
 10
368.730476818
 20
170.009410472
 30
0.000000000
 10
368.871711160
 20
170.043955342
 30
0.000000000
 10
369.025164341
 20
170.083425455
 30
0.000000000
 10
369.124323803
 20
170.101665447
 30
0.000000000
 10
369.184401687
 20
170.112716537
 30
0.000000000
 10
369.224549423
 20
170.115974471
 30
0.000000000
 10
369.362871456
 20
170.157870753
 30
0.000000000
 10
369.409204043
 20
170.171904404
 30
0.000000000
 10
369.466551724
 20
170.190273253
 30
0.000000000
 10
369.442763819
 20
170.176748116
 30
0.000000000
  0
DIMENSION
  5
A70
330
A02
100
AcDbEntity
  8
DimExtent068
100
AcDbDimension
  2
*DimExtent068
 10
110.000000000
 20
264.000000000
 30
0.000000000
 11
110.000000000
 21
269.000000000
 31
0.000000000
 70
32
  1
1050
  3
STANDARD
100
AcDbAlignedDimension
 13
57.500000000
 23
262.000000000
 33
0.000000000
 14
162.500000000
 24
262.000000000
 34
0.000000000
100
AcDbRotatedDimension
  0
DIMENSION
  5
A7A
330
A02
100
AcDbEntity
  8
DimExtent069
100
AcDbDimension
  2
*DimExtent069
 10
110.000000000
 20
170.750000000
 30
0.000000000
 11
110.000000000
 21
175.750000000
 31
0.000000000
 70
32
  1
1050
  3
STANDARD
100
AcDbAlignedDimension
 13
57.500000000
 23
133.250000000
 33
0.000000000
 14
162.500000000
 24
133.250000000
 34
0.000000000
100
AcDbRotatedDimension
  0
DIMENSION
  5
A84
330
A02
100
AcDbEntity
  8
DimExtent070
100
AcDbDimension
  2
*DimExtent070
 10
54.066410152
 20
143.504385628
 30
0.000000000
 11
50.500000000
 21
140.000000000
 31
0.000000000
 70
32
  1
575
  3
STANDARD
100
AcDbAlignedDimension
 13
161.500000000
 23
168.750000000
 33
0.000000000
 14
105.000000000
 24
111.250000000
 34
0.000000000
 50
90
100
AcDbRotatedDimension
  0
DIMENSION
  5
A8E
330
A02
100
AcDbEntity
  8
DimExtent071
100
AcDbDimension
  2
*DimExtent071
 10
246.370236580
 20
251.686276760
 30
0.000000000
 11
250.000000000
 21
255.125000000
 31
0.000000000
 70
32
  1
540
  3
STANDARD
100
AcDbAlignedDimension
 13
209.500000000
 23
161.875000000
 33
0.000000000
 14
290.500000000
 24
247.375000000
 34
0.000000000
100
AcDbRotatedDimension
  0
DIMENSION
  5
A98
330
A02
100
AcDbEntity
  8
DimExtent072
100
AcDbDimension
  2
*DimExtent072
 10
207.271661001
 20
206.493737357
 30
0.000000000
 11
202.500000000
 21
205.000000000
 31
0.000000000
 70
32
  1
575
  3
STANDARD
100
AcDbAlignedDimension
 13
236.500000000
 23
248.125000000
 33
0.000000000
 14
209.500000000
 24
161.875000000
 34
0.000000000
 50
90
100
AcDbRotatedDimension
  0
DIMENSION
  5
AA2
330
A02
100
AcDbEntity
  8
DimExtent073
100
AcDbDimension
  2
*DimExtent073
 10
351.370236580
 20
251.686276760
 30
0.000000000
 11
355.000000000
 21
255.125000000
 31
0.000000000
 70
32
  1
540
  3
STANDARD
100
AcDbAlignedDimension
 13
314.500000000
 23
161.875000000
 33
0.000000000
 14
395.500000000
 24
247.375000000
 34
0.000000000
100
AcDbRotatedDimension
  0
TEXT
  5
AAC
330
A02
100
AcDbEntity
  8
S04_RearWing_Tab
100
AcDbText
 10
100.000000000
 20
60.000000000
 30
0.000000000
 40
3.200000000
  1
メインプレーン  翼弦 280  迎角 8°   逆NACA t0.13 m0.07
  7
STANDARD
 72
1
 11
100.000000000
 21
60.000000000
 31
0.000000000
100
AcDbText
  0
ENDSEC
  0
SECTION
  2
OBJECTS
  0
DICTIONARY
  5
F000
330
0
100
AcDbDictionary
  3
ACAD_GROUP
350
F001
  0
DICTIONARY
  5
F001
330
F000
100
AcDbDictionary
  0
ENDSEC
  0
EOF