999
FreeCAD v1.1 20260725 (Git shallow)
  0
SECTION
  2
HEADER
  9
$ACADVER
  1
AC1014
  9
$ACADMAINTVER
 70
     9
  9
$DWGCODEPAGE
  3
ANSI_1252
  9
$TEXTSTYLE
  7
STANDARD
  9
$DIMSTYLE
  2
STANDARD
  9
$DIMTXSTY
  7
STANDARD
  9
$CMLSTYLE
  2
STANDARD
  9
$LUNITS
 70
2
  9
$INSUNITS
 70
4
  9
$PEXTMAX
 10
50
 20
50
 30
50
  9
$PEXTMIN
 10
0
 20
0
 30
0
  9
$HANDSEED
  5
FFFF
  0
ENDSEC
  0
SECTION
  2
CLASSES
  0
CLASS
  1
ACDBDICTIONARYWDFLT
  2
AcDbDictionaryWithDefault
  3
ObjectDBX Classes
 90
        0
280
     0
281
     0
  0
CLASS
  1
XRECORD
  2
AcDbXrecord
  3
ObjectDBX Classes
 90
        0
280
     0
281
     0
  0
CLASS
  1
LWPOLYLINE
  2
AcDbPolyline
  3
ObjectDBX Classes
 90
        0
280
     0
281
     1
  0
ENDSEC
  0
SECTION
  2
TABLES
  0
TABLE
  2
VPORT
  5
20
330
0
100
AcDbSymbolTable
 70
     1
  0
VPORT
  5
21
330
20
100
AcDbSymbolTableRecord
100
AcDbViewportTableRecord
  2
*ACTIVE
 70
     0
  0
ENDTAB
  0
TABLE
  2
LTYPE
  5
22
330
0
100
AcDbSymbolTable
 70
     1
  0
LTYPE
  5
23
330
21
100
AcDbSymbolTableRecord
100
AcDbLinetypeTableRecord
  2
BYBLOCK
 70
     0
  3

 72
    65
 73
     0
 40
0.0
  0
LTYPE
  5
24
330
21
100
AcDbSymbolTableRecord
100
AcDbLinetypeTableRecord
  2
BYLAYER
 70
     0
  3

 72
    65
 73
     0
 40
0.0
  0
LTYPE
  5
25
330
21
100
AcDbSymbolTableRecord
100
AcDbLinetypeTableRecord
  2
CONTINUOUS
 70
     0
  3
Solid line
 72
    65
 73
     0
 40
0.0
  0
ENDTAB
  0
TABLE
  2
LAYER
  5
CAB
330
0
100
AcDbSymbolTable
 70
16
  0
LAYER
  5
CAC
330
CAB
100
AcDbSymbolTableRecord
100
AcDbLayerTableRecord
  2
0
 70
   0
 62
   7
  6
CONTINUOUS
  0
LAYER
  5
CAD
330
CAB
100
AcDbSymbolTableRecord
100
AcDbLayerTableRecord
  2
S05_Chassis_Top
 70
    0
 62
    7
  6
CONTINUOUS
  0
LAYER
  5
CAE
330
CAB
100
AcDbSymbolTableRecord
100
AcDbLayerTableRecord
  2
S05_Chassis_Side
 70
    0
 62
    7
  6
CONTINUOUS
  0
LAYER
  5
CAF
330
CAB
100
AcDbSymbolTableRecord
100
AcDbLayerTableRecord
  2
S05_Chassis_SecD
 70
    0
 62
    7
  6
CONTINUOUS
  0
LAYER
  5
CB0
330
CAB
100
AcDbSymbolTableRecord
100
AcDbLayerTableRecord
  2
S05_Chassis_SecE
 70
    0
 62
    7
  6
CONTINUOUS
  0
LAYER
  5
CB1
330
CAB
100
AcDbSymbolTableRecord
100
AcDbLayerTableRecord
  2
S05_Chassis_SecF
 70
    0
 62
    7
  6
CONTINUOUS
  0
LAYER
  5
CB2
330
CAB
100
AcDbSymbolTableRecord
100
AcDbLayerTableRecord
  2
DimExtent052
 70
    0
 62
    7
  6
CONTINUOUS
  0
LAYER
  5
CB3
330
CAB
100
AcDbSymbolTableRecord
100
AcDbLayerTableRecord
  2
DimExtent053
 70
    0
 62
    7
  6
CONTINUOUS
  0
LAYER
  5
CB4
330
CAB
100
AcDbSymbolTableRecord
100
AcDbLayerTableRecord
  2
DimExtent054
 70
    0
 62
    7
  6
CONTINUOUS
  0
LAYER
  5
CB5
330
CAB
100
AcDbSymbolTableRecord
100
AcDbLayerTableRecord
  2
DimExtent055
 70
    0
 62
    7
  6
CONTINUOUS
  0
LAYER
  5
CB6
330
CAB
100
AcDbSymbolTableRecord
100
AcDbLayerTableRecord
  2
DimExtent056
 70
    0
 62
    7
  6
CONTINUOUS
  0
LAYER
  5
CB7
330
CAB
100
AcDbSymbolTableRecord
100
AcDbLayerTableRecord
  2
DimExtent057
 70
    0
 62
    7
  6
CONTINUOUS
  0
LAYER
  5
CB8
330
CAB
100
AcDbSymbolTableRecord
100
AcDbLayerTableRecord
  2
DimExtent058
 70
    0
 62
    7
  6
CONTINUOUS
  0
LAYER
  5
CB9
330
CAB
100
AcDbSymbolTableRecord
100
AcDbLayerTableRecord
  2
DimExtent059
 70
    0
 62
    7
  6
CONTINUOUS
  0
LAYER
  5
CBA
330
CAB
100
AcDbSymbolTableRecord
100
AcDbLayerTableRecord
  2
DimExtent060
 70
    0
 62
    7
  6
CONTINUOUS
  0
LAYER
  5
CBB
330
CAB
100
AcDbSymbolTableRecord
100
AcDbLayerTableRecord
  2
S05_Chassis_Tab
 70
    0
 62
    7
  6
CONTINUOUS
  0
ENDTAB
  0
TABLE
  2
STYLE
  5
70
330
0
100
AcDbSymbolTable
 70
     2
  0
STYLE
  5
71
330
70
100
AcDbSymbolTableRecord
100
AcDbTextStyleTableRecord
  2
STANDARD
 70
     0
 40
0.0
 41
1.0
 50
0.0
 71
     0
 42
2.5
  3
arial.ttf
  4

  0
STYLE
  5
72
330
70
100
AcDbSymbolTableRecord
100
AcDbTextStyleTableRecord
  2
ANNOTATIVE
 70
     0
 40
0.0
 41
1.0
 50
0.0
 71
     0
 42
2.5
  3
arial.ttf
  4

  0
ENDTAB
  0
TABLE
  2
VIEW
  5
73
330
0
100
AcDbSymbolTable
 70
     0
  0
ENDTAB
  0
TABLE
  2
UCS
  5
74
330
0
100
AcDbSymbolTable
 70
     0
  0
ENDTAB
  0
TABLE
  2
APPID
  5
75
330
0
100
AcDbSymbolTable
 70
     2
  0
APPID
  5
76
330
75
100
AcDbSymbolTableRecord
100
AcDbRegAppTableRecord
  2
ACAD
 70
     0
  0
APPID
  5
77
330
75
100
AcDbSymbolTableRecord
100
AcDbRegAppTableRecord
  2
ACADANNOTATIVE
 70
     0
  0
ENDTAB
  0
TABLE
  2
DIMSTYLE
  5
78
330
0
100
AcDbSymbolTable
 70
     2
  0
DIMSTYLE
105
79
330
78
100
AcDbSymbolTableRecord
100
AcDbDimStyleTableRecord
  2
STANDARD
 70
     0
  3

  4

  5

  6

  7

 40
0.0
 41
2.5
 42
0.625
 43
3.75
 44
1.25
 45
0.0
 46
0.0
 47
0.0
 48
0.0
140
2.5
141
2.5
142
0.0
143
0.03937007874016
144
1.0
145
0.0
146
1.0
147
0.625
 71
     0
 72
     0
 73
     0
 74
     0
 75
     0
 76
     0
 77
     1
 78
     8
170
     0
171
     3
172
     1
173
     0
174
     0
175
     0
176
     0
177
     0
178
     0
270
     2
271
     2
272
     2
273
     2
274
     3
340
71
275
     0
280
     0
281
     0
282
     0
283
     0
284
     8
285
     0
286
     0
287
     3
288
     0
  0
ENDTAB
  0
TABLE
  2
BLOCK_RECORD
  5
A01
330
0
100
AcDbSymbolTable
  70
5
  0
BLOCK_RECORD
  5
A02
330
A01
100
AcDbSymbolTableRecord
100
AcDbBlockTableRecord
  2
*MODEL_SPACE
  0
BLOCK_RECORD
  5
A03
330
A01
100
AcDbSymbolTableRecord
100
AcDbBlockTableRecord
  2
*PAPER_SPACE
  0
BLOCK_RECORD
  5
C51
330
A01
100
AcDbSymbolTableRecord
100
AcDbBlockTableRecord
  2
*DimExtent052
  0
BLOCK_RECORD
  5
C5B
330
A01
100
AcDbSymbolTableRecord
100
AcDbBlockTableRecord
  2
*DimExtent053
  0
BLOCK_RECORD
  5
C65
330
A01
100
AcDbSymbolTableRecord
100
AcDbBlockTableRecord
  2
*DimExtent054
  0
BLOCK_RECORD
  5
C6F
330
A01
100
AcDbSymbolTableRecord
100
AcDbBlockTableRecord
  2
*DimExtent055
  0
BLOCK_RECORD
  5
C79
330
A01
100
AcDbSymbolTableRecord
100
AcDbBlockTableRecord
  2
*DimExtent056
  0
BLOCK_RECORD
  5
C83
330
A01
100
AcDbSymbolTableRecord
100
AcDbBlockTableRecord
  2
*DimExtent057
  0
BLOCK_RECORD
  5
C8D
330
A01
100
AcDbSymbolTableRecord
100
AcDbBlockTableRecord
  2
*DimExtent058
  0
BLOCK_RECORD
  5
C97
330
A01
100
AcDbSymbolTableRecord
100
AcDbBlockTableRecord
  2
*DimExtent059
  0
BLOCK_RECORD
  5
CA1
330
A01
100
AcDbSymbolTableRecord
100
AcDbBlockTableRecord
  2
*DimExtent060
  0
ENDTAB
  0
ENDSEC
  0
SECTION
  2
BLOCKS
  0
BLOCK
  5
A04
330
A02
100
AcDbEntity
  8
0
100
AcDbBlockBegin
  2
*MODEL_SPACE
 70
   0
 10
0
 20
0
 30
0
  3
*MODEL_SPACE
  1
 
  0
ENDBLK
  5
A05
330
A02
100
AcDbEntity
  8
0
100
AcDbBlockEnd
  0
BLOCK
  5
A06
330
A03
100
AcDbEntity
 67
1
  8
0
100
AcDbBlockBegin
  2
*PAPER_SPACE
 70
   0
 10
0
 20
0
 30
0
  3
*PAPER_SPACE
  1
 
  0
ENDBLK
  5
A07
330
A03
100
AcDbEntity
 67
    1
  8
0
100
AcDbBlockEnd
  0
BLOCK
  5
C52
330
C51
100
AcDbEntity
  8
DimExtent052
100
AcDbBlockBegin
  2
*DimExtent052
 70
   1
 10
0
 20
0
 30
0
  3
*DimExtent052
  1
 
  0
LINE
  5
C53
330
C51
100
AcDbEntity
  8
DimExtent052
100
AcDbLine
 10
197.5
 20
216.022
 30
0
 11
197.5
 21
249.065
 31
0
  0
LINE
  5
C54
330
C51
100
AcDbEntity
  8
DimExtent052
100
AcDbLine
 10
42.5
 20
227.501
 30
0
 11
42.5
 21
249.065
 31
0
  0
LINE
  5
C55
330
C51
100
AcDbEntity
  8
DimExtent052
100
AcDbLine
 10
42.5
 20
249.065
 30
0
 11
197.5
 21
249.065
 31
0
  0
TEXT
  5
C56
330
C51
100
AcDbEntity
  8
DimExtent052
100
AcDbText
 10
119.948
 20
254.052
 30
0
 40
3.5
  1
3100
  7
STANDARD
 72
1
 11
120.318
 21
249.065
 31
0
100
AcDbText
  0
SOLID
  5
C57
330
C51
100
AcDbEntity
  8
0
 62
     0
100
AcDbTrace
 10
37.5
 20
249.482
 30
0
 11
37.5
 21
248.649
 31
0
 12
42.5
 22
249.065
 32
0
 13
42.5
 23
249.065
 33
0
  0
SOLID
  5
C58
330
C51
100
AcDbEntity
  8
0
 62
     0
100
AcDbTrace
 10
202.5
 20
249.482
 30
0
 11
202.5
 21
248.649
 31
0
 12
197.5
 22
249.065
 32
0
 13
197.5
 23
249.065
 33
0
  0
ENDBLK
  5
C59
330
C51
100
AcDbEntity
  8
DimExtent052
100
AcDbBlockEnd
  0
BLOCK
  5
C5C
330
C5B
100
AcDbEntity
  8
DimExtent053
100
AcDbBlockBegin
  2
*DimExtent053
 70
   1
 10
0
 20
0
 30
0
  3
*DimExtent053
  1
 
  0
LINE
  5
C5D
330
C5B
100
AcDbEntity
  8
DimExtent053
100
AcDbLine
 10
169.736
 20
212.948
 30
0
 11
40.4467
 21
212.948
 31
0
  0
LINE
  5
C5E
330
C5B
100
AcDbEntity
  8
DimExtent053
100
AcDbLine
 10
170.617
 20
247.052
 30
0
 11
40.4467
 21
247.052
 31
0
  0
LINE
  5
C5F
330
C5B
100
AcDbEntity
  8
DimExtent053
100
AcDbLine
 10
40.4467
 20
247.052
 30
0
 11
40.4467
 21
212.948
 31
0
  0
TEXT
  5
C60
330
C5B
100
AcDbEntity
  8
DimExtent053
100
AcDbText
 10
35.4484
 20
230
 30
0
 40
3.5
  1
682
  7
STANDARD
 72
1
 11
40.4467
 21
230.129
 31
0
100
AcDbText
  0
SOLID
  5
C61
330
C5B
100
AcDbEntity
  8
0
 62
     0
100
AcDbTrace
 10
40.03
 20
252.052
 30
0
 11
40.8634
 21
252.052
 31
0
 12
40.4467
 22
247.052
 32
0
 13
40.4467
 23
247.052
 33
0
  0
SOLID
  5
C62
330
C5B
100
AcDbEntity
  8
0
 62
     0
100
AcDbTrace
 10
40.03
 20
207.948
 30
0
 11
40.8634
 21
207.948
 31
0
 12
40.4467
 22
212.948
 32
0
 13
40.4467
 23
212.948
 33
0
  0
ENDBLK
  5
C63
330
C5B
100
AcDbEntity
  8
DimExtent053
100
AcDbBlockEnd
  0
BLOCK
  5
C66
330
C65
100
AcDbEntity
  8
DimExtent054
100
AcDbBlockBegin
  2
*DimExtent054
 70
   1
 10
0
 20
0
 30
0
  3
*DimExtent054
  1
 
  0
LINE
  5
C67
330
C65
100
AcDbEntity
  8
DimExtent054
100
AcDbLine
 10
157.198
 20
135.726
 30
0
 11
39.8232
 21
135.726
 31
0
  0
LINE
  5
C68
330
C65
100
AcDbEntity
  8
DimExtent054
100
AcDbLine
 10
173
 20
164.282
 30
0
 11
39.8232
 21
164.282
 31
0
  0
LINE
  5
C69
330
C65
100
AcDbEntity
  8
DimExtent054
100
AcDbLine
 10
39.8232
 20
164.282
 30
0
 11
39.8232
 21
135.726
 31
0
  0
TEXT
  5
C6A
330
C65
100
AcDbEntity
  8
DimExtent054
100
AcDbText
 10
35.4484
 20
150
 30
0
 40
3.5
  1
571
  7
STANDARD
 72
1
 11
39.8232
 21
152.421
 31
0
100
AcDbText
  0
SOLID
  5
C6B
330
C65
100
AcDbEntity
  8
0
 62
     0
100
AcDbTrace
 10
39.4065
 20
169.282
 30
0
 11
40.2399
 21
169.282
 31
0
 12
39.8232
 22
164.282
 32
0
 13
39.8232
 23
164.282
 33
0
  0
SOLID
  5
C6C
330
C65
100
AcDbEntity
  8
0
 62
     0
100
AcDbTrace
 10
39.4065
 20
130.726
 30
0
 11
40.2399
 21
130.726
 31
0
 12
39.8232
 22
135.726
 32
0
 13
39.8232
 23
135.726
 33
0
  0
ENDBLK
  5
C6D
330
C65
100
AcDbEntity
  8
DimExtent054
100
AcDbBlockEnd
  0
BLOCK
  5
C70
330
C6F
100
AcDbEntity
  8
DimExtent055
100
AcDbBlockBegin
  2
*DimExtent055
 70
   1
 10
0
 20
0
 30
0
  3
*DimExtent055
  1
 
  0
LINE
  5
C71
330
C6F
100
AcDbEntity
  8
DimExtent055
100
AcDbLine
 10
302.79
 20
237.47
 30
0
 11
302.79
 21
241.645
 31
0
  0
LINE
  5
C72
330
C6F
100
AcDbEntity
  8
DimExtent055
100
AcDbLine
 10
273.013
 20
224.992
 30
0
 11
273.013
 21
241.645
 31
0
  0
LINE
  5
C73
330
C6F
100
AcDbEntity
  8
DimExtent055
100
AcDbLine
 10
273.013
 20
241.645
 30
0
 11
302.79
 21
241.645
 31
0
  0
TEXT
  5
C74
330
C6F
100
AcDbEntity
  8
DimExtent055
100
AcDbText
 10
290
 20
246.257
 30
0
 40
3.5
  1
596
  7
STANDARD
 72
1
 11
288.068
 21
241.645
 31
0
100
AcDbText
  0
SOLID
  5
C75
330
C6F
100
AcDbEntity
  8
0
 62
     0
100
AcDbTrace
 10
268.013
 20
242.062
 30
0
 11
268.013
 21
241.229
 31
0
 12
273.013
 22
241.645
 32
0
 13
273.013
 23
241.645
 33
0
  0
SOLID
  5
C76
330
C6F
100
AcDbEntity
  8
0
 62
     0
100
AcDbTrace
 10
307.79
 20
242.062
 30
0
 11
307.79
 21
241.229
 31
0
 12
302.79
 22
241.645
 32
0
 13
302.79
 23
241.645
 33
0
  0
ENDBLK
  5
C77
330
C6F
100
AcDbEntity
  8
DimExtent055
100
AcDbBlockEnd
  0
BLOCK
  5
C7A
330
C79
100
AcDbEntity
  8
DimExtent056
100
AcDbBlockBegin
  2
*DimExtent056
 70
   1
 10
0
 20
0
 30
0
  3
*DimExtent056
  1
 
  0
LINE
  5
C7B
330
C79
100
AcDbEntity
  8
DimExtent056
100
AcDbLine
 10
290.013
 20
216.242
 30
0
 11
270.935
 21
216.242
 31
0
  0
LINE
  5
C7C
330
C79
100
AcDbEntity
  8
DimExtent056
100
AcDbLine
 10
291.722
 20
239.241
 30
0
 11
270.935
 21
239.241
 31
0
  0
LINE
  5
C7D
330
C79
100
AcDbEntity
  8
DimExtent056
100
AcDbLine
 10
270.935
 20
239.241
 30
0
 11
270.935
 21
216.242
 31
0
  0
TEXT
  5
C7E
330
C79
100
AcDbEntity
  8
DimExtent056
100
AcDbText
 10
265.948
 20
225
 30
0
 40
3.5
  1
460
  7
STANDARD
 72
1
 11
270.935
 21
225.371
 31
0
100
AcDbText
  0
SOLID
  5
C7F
330
C79
100
AcDbEntity
  8
0
 62
     0
100
AcDbTrace
 10
270.518
 20
244.241
 30
0
 11
271.351
 21
244.241
 31
0
 12
270.935
 22
239.241
 32
0
 13
270.935
 23
239.241
 33
0
  0
SOLID
  5
C80
330
C79
100
AcDbEntity
  8
0
 62
     0
100
AcDbTrace
 10
270.518
 20
211.242
 30
0
 11
271.351
 21
211.242
 31
0
 12
270.935
 22
216.242
 32
0
 13
270.935
 23
216.242
 33
0
  0
ENDBLK
  5
C81
330
C79
100
AcDbEntity
  8
DimExtent056
100
AcDbBlockEnd
  0
BLOCK
  5
C84
330
C83
100
AcDbEntity
  8
DimExtent057
100
AcDbBlockBegin
  2
*DimExtent057
 70
   1
 10
0
 20
0
 30
0
  3
*DimExtent057
  1
 
  0
LINE
  5
C85
330
C83
100
AcDbEntity
  8
DimExtent057
100
AcDbLine
 10
306.988
 20
146.45
 30
0
 11
306.988
 21
166.257
 31
0
  0
LINE
  5
C86
330
C83
100
AcDbEntity
  8
DimExtent057
100
AcDbLine
 10
273.017
 20
146.712
 30
0
 11
273.017
 21
166.257
 31
0
  0
LINE
  5
C87
330
C83
100
AcDbEntity
  8
DimExtent057
100
AcDbLine
 10
273.017
 20
166.257
 30
0
 11
306.988
 21
166.257
 31
0
  0
TEXT
  5
C88
330
C83
100
AcDbEntity
  8
DimExtent057
100
AcDbText
 10
290
 20
171.257
 30
0
 40
3.5
  1
679
  7
STANDARD
 72
1
 11
290.039
 21
166.257
 31
0
100
AcDbText
  0
SOLID
  5
C89
330
C83
100
AcDbEntity
  8
0
 62
     0
100
AcDbTrace
 10
268.017
 20
166.674
 30
0
 11
268.017
 21
165.84
 31
0
 12
273.017
 22
166.257
 32
0
 13
273.017
 23
166.257
 33
0
  0
SOLID
  5
C8A
330
C83
100
AcDbEntity
  8
0
 62
     0
100
AcDbTrace
 10
311.988
 20
166.674
 30
0
 11
311.988
 21
165.84
 31
0
 12
306.988
 22
166.257
 32
0
 13
306.988
 23
166.257
 33
0
  0
ENDBLK
  5
C8B
330
C83
100
AcDbEntity
  8
DimExtent057
100
AcDbBlockEnd
  0
BLOCK
  5
C8E
330
C8D
100
AcDbEntity
  8
DimExtent058
100
AcDbBlockBegin
  2
*DimExtent058
 70
   1
 10
0
 20
0
 30
0
  3
*DimExtent058
  1
 
  0
LINE
  5
C8F
330
C8D
100
AcDbEntity
  8
DimExtent058
100
AcDbLine
 10
291.387
 20
135.754
 30
0
 11
270.948
 21
135.754
 31
0
  0
LINE
  5
C90
330
C8D
100
AcDbEntity
  8
DimExtent058
100
AcDbLine
 10
291.722
 20
164.259
 30
0
 11
270.948
 21
164.259
 31
0
  0
LINE
  5
C91
330
C8D
100
AcDbEntity
  8
DimExtent058
100
AcDbLine
 10
270.948
 20
164.259
 30
0
 11
270.948
 21
135.754
 31
0
  0
TEXT
  5
C92
330
C8D
100
AcDbEntity
  8
DimExtent058
100
AcDbText
 10
265.948
 20
150
 30
0
 40
3.5
  1
570
  7
STANDARD
 72
1
 11
270.948
 21
150.059
 31
0
100
AcDbText
  0
SOLID
  5
C93
330
C8D
100
AcDbEntity
  8
0
 62
     0
100
AcDbTrace
 10
270.531
 20
169.259
 30
0
 11
271.365
 21
169.259
 31
0
 12
270.948
 22
164.259
 32
0
 13
270.948
 23
164.259
 33
0
  0
SOLID
  5
C94
330
C8D
100
AcDbEntity
  8
0
 62
     0
100
AcDbTrace
 10
270.531
 20
130.754
 30
0
 11
271.365
 21
130.754
 31
0
 12
270.948
 22
135.754
 32
0
 13
270.948
 23
135.754
 33
0
  0
ENDBLK
  5
C95
330
C8D
100
AcDbEntity
  8
DimExtent058
100
AcDbBlockEnd
  0
BLOCK
  5
C98
330
C97
100
AcDbEntity
  8
DimExtent059
100
AcDbBlockBegin
  2
*DimExtent059
 70
   1
 10
0
 20
0
 30
0
  3
*DimExtent059
  1
 
  0
LINE
  5
C99
330
C97
100
AcDbEntity
  8
DimExtent059
100
AcDbLine
 10
386.04
 20
146.679
 30
0
 11
386.04
 21
166.257
 31
0
  0
LINE
  5
C9A
330
C97
100
AcDbEntity
  8
DimExtent059
100
AcDbLine
 10
353.96
 20
146.852
 30
0
 11
353.96
 21
166.257
 31
0
  0
LINE
  5
C9B
330
C97
100
AcDbEntity
  8
DimExtent059
100
AcDbLine
 10
353.96
 20
166.257
 30
0
 11
386.04
 21
166.257
 31
0
  0
TEXT
  5
C9C
330
C97
100
AcDbEntity
  8
DimExtent059
100
AcDbText
 10
370
 20
171.257
 30
0
 40
3.5
  1
642
  7
STANDARD
 72
1
 11
370.027
 21
166.257
 31
0
100
AcDbText
  0
SOLID
  5
C9D
330
C97
100
AcDbEntity
  8
0
 62
     0
100
AcDbTrace
 10
348.96
 20
166.673
 30
0
 11
348.96
 21
165.84
 31
0
 12
353.96
 22
166.257
 32
0
 13
353.96
 23
166.257
 33
0
  0
SOLID
  5
C9E
330
C97
100
AcDbEntity
  8
0
 62
     0
100
AcDbTrace
 10
391.04
 20
166.673
 30
0
 11
391.04
 21
165.84
 31
0
 12
386.04
 22
166.257
 32
0
 13
386.04
 23
166.257
 33
0
  0
ENDBLK
  5
C9F
330
C97
100
AcDbEntity
  8
DimExtent059
100
AcDbBlockEnd
  0
BLOCK
  5
CA2
330
CA1
100
AcDbEntity
  8
DimExtent060
100
AcDbBlockBegin
  2
*DimExtent060
 70
   1
 10
0
 20
0
 30
0
  3
*DimExtent060
  1
 
  0
LINE
  5
CA3
330
CA1
100
AcDbEntity
  8
DimExtent060
100
AcDbLine
 10
368.862
 20
136.374
 30
0
 11
350.948
 21
136.374
 31
0
  0
LINE
  5
CA4
330
CA1
100
AcDbEntity
  8
DimExtent060
100
AcDbLine
 10
368.867
 20
163.626
 30
0
 11
350.948
 21
163.626
 31
0
  0
LINE
  5
CA5
330
CA1
100
AcDbEntity
  8
DimExtent060
100
AcDbLine
 10
350.948
 20
163.626
 30
0
 11
350.948
 21
136.374
 31
0
  0
TEXT
  5
CA6
330
CA1
100
AcDbEntity
  8
DimExtent060
100
AcDbText
 10
345.948
 20
150
 30
0
 40
3.5
  1
545
  7
STANDARD
 72
1
 11
350.948
 21
150.001
 31
0
100
AcDbText
  0
SOLID
  5
CA7
330
CA1
100
AcDbEntity
  8
0
 62
     0
100
AcDbTrace
 10
350.532
 20
168.626
 30
0
 11
351.365
 21
168.626
 31
0
 12
350.948
 22
163.626
 32
0
 13
350.948
 23
163.626
 33
0
  0
SOLID
  5
CA8
330
CA1
100
AcDbEntity
  8
0
 62
     0
100
AcDbTrace
 10
350.532
 20
131.374
 30
0
 11
351.365
 21
131.374
 31
0
 12
350.948
 22
136.374
 32
0
 13
350.948
 23
136.374
 33
0
  0
ENDBLK
  5
CA9
330
CA1
100
AcDbEntity
  8
DimExtent060
100
AcDbBlockEnd
  0
ENDSEC
  0
SECTION
  2
ENTITIES
  0
LINE
  5
A08
330
A02
100
AcDbEntity
  8
S05_Chassis_Top
100
AcDbLine
 10
95.000000000
 20
219.742662392
 30
0.000000000
 11
95.000000000
 21
219.737334435
 31
0.000000000
  0
LINE
  5
A09
330
A02
100
AcDbEntity
  8
S05_Chassis_Top
100
AcDbLine
 10
95.000000000
 20
219.826813834
 30
0.000000000
 11
95.000000000
 21
219.742662392
 31
0.000000000
  0
LINE
  5
A0A
330
A02
100
AcDbEntity
  8
S05_Chassis_Top
100
AcDbLine
 10
95.000000000
 20
220.031660356
 30
0.000000000
 11
95.000000000
 21
219.826813834
 31
0.000000000
  0
LINE
  5
A0B
330
A02
100
AcDbEntity
  8
S05_Chassis_Top
100
AcDbLine
 10
95.000000000
 20
220.419293631
 30
0.000000000
 11
95.000000000
 21
220.031660356
 31
0.000000000
  0
LINE
  5
A0C
330
A02
100
AcDbEntity
  8
S05_Chassis_Top
100
AcDbLine
 10
95.000000000
 20
221.015017702
 30
0.000000000
 11
95.000000000
 21
220.419293631
 31
0.000000000
  0
LINE
  5
A0D
330
A02
100
AcDbEntity
  8
S05_Chassis_Top
100
AcDbLine
 10
95.000000000
 20
221.863957118
 30
0.000000000
 11
95.000000000
 21
221.015017702
 31
0.000000000
  0
LINE
  5
A0E
330
A02
100
AcDbEntity
  8
S05_Chassis_Top
100
AcDbLine
 10
95.000000000
 20
222.514563124
 30
0.000000000
 11
95.000000000
 21
221.863957118
 31
0.000000000
  0
LINE
  5
A0F
330
A02
100
AcDbEntity
  8
S05_Chassis_Top
100
AcDbLine
 10
95.000000000
 20
223.251138871
 30
0.000000000
 11
95.000000000
 21
222.514563124
 31
0.000000000
  0
LINE
  5
A10
330
A02
100
AcDbEntity
  8
S05_Chassis_Top
100
AcDbLine
 10
95.000000000
 20
224.998458310
 30
0.000000000
 11
95.000000000
 21
223.251138871
 31
0.000000000
  0
LINE
  5
A11
330
A02
100
AcDbEntity
  8
S05_Chassis_Top
100
AcDbLine
 10
95.000000000
 20
227.072102837
 30
0.000000000
 11
95.000000000
 21
224.998458310
 31
0.000000000
  0
LINE
  5
A12
330
A02
100
AcDbEntity
  8
S05_Chassis_Top
100
AcDbLine
 10
95.000000000
 20
231.820655596
 30
0.000000000
 11
95.000000000
 21
227.072102837
 31
0.000000000
  0
LINE
  5
A13
330
A02
100
AcDbEntity
  8
S05_Chassis_Top
100
AcDbLine
 10
95.000000000
 20
234.288455889
 30
0.000000000
 11
95.000000000
 21
231.820655596
 31
0.000000000
  0
LINE
  5
A14
330
A02
100
AcDbEntity
  8
S05_Chassis_Top
100
AcDbLine
 10
95.000000000
 20
236.161057693
 30
0.000000000
 11
95.000000000
 21
234.288455889
 31
0.000000000
  0
LINE
  5
A15
330
A02
100
AcDbEntity
  8
S05_Chassis_Top
100
AcDbLine
 10
95.000000000
 20
237.347200975
 30
0.000000000
 11
95.000000000
 21
236.161057693
 31
0.000000000
  0
LINE
  5
A16
330
A02
100
AcDbEntity
  8
S05_Chassis_Top
100
AcDbLine
 10
95.000000000
 20
238.164842122
 30
0.000000000
 11
95.000000000
 21
237.347200975
 31
0.000000000
  0
LINE
  5
A17
330
A02
100
AcDbEntity
  8
S05_Chassis_Top
100
AcDbLine
 10
95.000000000
 20
238.878362322
 30
0.000000000
 11
95.000000000
 21
238.164842122
 31
0.000000000
  0
LINE
  5
A18
330
A02
100
AcDbEntity
  8
S05_Chassis_Top
100
AcDbLine
 10
95.000000000
 20
239.498560684
 30
0.000000000
 11
95.000000000
 21
238.878362322
 31
0.000000000
  0
LINE
  5
A19
330
A02
100
AcDbEntity
  8
S05_Chassis_Top
100
AcDbLine
 10
95.000000000
 20
239.967966924
 30
0.000000000
 11
95.000000000
 21
239.498560684
 31
0.000000000
  0
LINE
  5
A1A
330
A02
100
AcDbEntity
  8
S05_Chassis_Top
100
AcDbLine
 10
95.000000000
 20
240.157818513
 30
0.000000000
 11
95.000000000
 21
239.967966924
 31
0.000000000
  0
LINE
  5
A1B
330
A02
100
AcDbEntity
  8
S05_Chassis_Top
100
AcDbLine
 10
95.000000000
 20
240.237860415
 30
0.000000000
 11
95.000000000
 21
240.157818513
 31
0.000000000
  0
LINE
  5
A1C
330
A02
100
AcDbEntity
  8
S05_Chassis_Top
100
AcDbLine
 10
69.911768636
 20
236.132384356
 30
0.000000000
 11
73.037493849
 21
236.571383738
 31
0.000000000
  0
LINE
  5
A1D
330
A02
100
AcDbEntity
  8
S05_Chassis_Top
100
AcDbLine
 10
63.076407262
 20
235.218350586
 30
0.000000000
 11
65.440649779
 21
235.508939186
 31
0.000000000
  0
LINE
  5
A1E
330
A02
100
AcDbEntity
  8
S05_Chassis_Top
100
AcDbLine
 10
42.500000000
 20
227.500938294
 30
0.000000000
 11
42.500000000
 21
227.487268374
 31
0.000000000
  0
LINE
  5
A1F
330
A02
100
AcDbEntity
  8
S05_Chassis_Top
100
AcDbLine
 10
42.500000000
 20
227.572198211
 30
0.000000000
 11
42.500000000
 21
227.500938294
 31
0.000000000
  0
LINE
  5
A20
330
A02
100
AcDbEntity
  8
S05_Chassis_Top
100
AcDbLine
 10
42.500000000
 20
227.722211101
 30
0.000000000
 11
42.500000000
 21
227.572198211
 31
0.000000000
  0
LINE
  5
A21
330
A02
100
AcDbEntity
  8
S05_Chassis_Top
100
AcDbLine
 10
42.500000000
 20
227.953881319
 30
0.000000000
 11
42.500000000
 21
227.722211101
 31
0.000000000
  0
LINE
  5
A22
330
A02
100
AcDbEntity
  8
S05_Chassis_Top
100
AcDbLine
 10
42.500000000
 20
228.291683398
 30
0.000000000
 11
42.500000000
 21
227.953881319
 31
0.000000000
  0
LINE
  5
A23
330
A02
100
AcDbEntity
  8
S05_Chassis_Top
100
AcDbLine
 10
42.500000000
 20
228.770305237
 30
0.000000000
 11
42.500000000
 21
228.291683398
 31
0.000000000
  0
LINE
  5
A24
330
A02
100
AcDbEntity
  8
S05_Chassis_Top
100
AcDbLine
 10
42.500000000
 20
229.399921159
 30
0.000000000
 11
42.500000000
 21
228.770305237
 31
0.000000000
  0
LINE
  5
A25
330
A02
100
AcDbEntity
  8
S05_Chassis_Top
100
AcDbLine
 10
42.500000000
 20
230.208314634
 30
0.000000000
 11
42.500000000
 21
229.399921159
 31
0.000000000
  0
LINE
  5
A26
330
A02
100
AcDbEntity
  8
S05_Chassis_Top
100
AcDbLine
 10
42.500000000
 20
230.747898095
 30
0.000000000
 11
42.500000000
 21
230.208314634
 31
0.000000000
  0
LINE
  5
A27
330
A02
100
AcDbEntity
  8
S05_Chassis_Top
100
AcDbLine
 10
42.500000000
 20
231.214766364
 30
0.000000000
 11
42.500000000
 21
230.747898095
 31
0.000000000
  0
LINE
  5
A28
330
A02
100
AcDbEntity
  8
S05_Chassis_Top
100
AcDbLine
 10
42.500000000
 20
231.544918379
 30
0.000000000
 11
42.500000000
 21
231.214766364
 31
0.000000000
  0
LINE
  5
A29
330
A02
100
AcDbEntity
  8
S05_Chassis_Top
100
AcDbLine
 10
42.500000000
 20
231.844007581
 30
0.000000000
 11
42.500000000
 21
231.544918379
 31
0.000000000
  0
LINE
  5
A2A
330
A02
100
AcDbEntity
  8
S05_Chassis_Top
100
AcDbLine
 10
42.500000000
 20
232.096507614
 30
0.000000000
 11
42.500000000
 21
231.844007581
 31
0.000000000
  0
LINE
  5
A2B
330
A02
100
AcDbEntity
  8
S05_Chassis_Top
100
AcDbLine
 10
42.500000000
 20
232.305502502
 30
0.000000000
 11
42.500000000
 21
232.096507614
 31
0.000000000
  0
LINE
  5
A2C
330
A02
100
AcDbEntity
  8
S05_Chassis_Top
100
AcDbLine
 10
42.500000000
 20
232.437853747
 30
0.000000000
 11
42.500000000
 21
232.305502502
 31
0.000000000
  0
LINE
  5
A2D
330
A02
100
AcDbEntity
  8
S05_Chassis_Top
100
AcDbLine
 10
42.500000000
 20
232.487692704
 30
0.000000000
 11
42.500000000
 21
232.437853747
 31
0.000000000
  0
LINE
  5
A2E
330
A02
100
AcDbEntity
  8
S05_Chassis_Top
100
AcDbLine
 10
138.139216991
 20
221.368420119
 30
0.000000000
 11
136.000000000
 21
222.487549162
 31
0.000000000
  0
LINE
  5
A2F
330
A02
100
AcDbEntity
  8
S05_Chassis_Top
100
AcDbLine
 10
140.335745567
 20
220.373552717
 30
0.000000000
 11
138.139216991
 21
221.368420119
 31
0.000000000
  0
LINE
  5
A30
330
A02
100
AcDbEntity
  8
S05_Chassis_Top
100
AcDbLine
 10
143.749965187
 20
219.116685124
 30
0.000000000
 11
140.335745567
 21
220.373552717
 31
0.000000000
  0
LINE
  5
A31
330
A02
100
AcDbEntity
  8
S05_Chassis_Top
100
AcDbLine
 10
147.585287812
 20
218.097543353
 30
0.000000000
 11
143.749965187
 21
219.116685124
 31
0.000000000
  0
LINE
  5
A32
330
A02
100
AcDbEntity
  8
S05_Chassis_Top
100
AcDbLine
 10
151.351468156
 20
217.477543904
 30
0.000000000
 11
147.585287812
 21
218.097543353
 31
0.000000000
  0
LINE
  5
A33
330
A02
100
AcDbEntity
  8
S05_Chassis_Top
100
AcDbLine
 10
155.064659019
 20
217.220500937
 30
0.000000000
 11
151.351468156
 21
217.477543904
 31
0.000000000
  0
LINE
  5
A34
330
A02
100
AcDbEntity
  8
S05_Chassis_Top
100
AcDbLine
 10
158.449549793
 20
217.286944506
 30
0.000000000
 11
155.064659019
 21
217.220500937
 31
0.000000000
  0
LINE
  5
A35
330
A02
100
AcDbEntity
  8
S05_Chassis_Top
100
AcDbLine
 10
161.938741933
 20
217.657231933
 30
0.000000000
 11
158.449549793
 21
217.286944506
 31
0.000000000
  0
LINE
  5
A36
330
A02
100
AcDbEntity
  8
S05_Chassis_Top
100
AcDbLine
 10
165.484283304
 20
218.355773478
 30
0.000000000
 11
161.938741933
 21
217.657231933
 31
0.000000000
  0
LINE
  5
A37
330
A02
100
AcDbEntity
  8
S05_Chassis_Top
100
AcDbLine
 10
169.303066720
 20
219.488795233
 30
0.000000000
 11
165.484283304
 21
218.355773478
 31
0.000000000
  0
LINE
  5
A38
330
A02
100
AcDbEntity
  8
S05_Chassis_Top
100
AcDbLine
 10
173.000000000
 20
220.987638031
 30
0.000000000
 11
169.303066720
 21
219.488795233
 31
0.000000000
  0
LINE
  5
A39
330
A02
100
AcDbEntity
  8
S05_Chassis_Top
100
AcDbLine
 10
136.000000000
 20
235.625387347
 30
0.000000000
 11
136.000000000
 21
237.489968541
 31
0.000000000
  0
LINE
  5
A3A
330
A02
100
AcDbEntity
  8
S05_Chassis_Top
100
AcDbLine
 10
136.000000000
 20
233.358166375
 30
0.000000000
 11
136.000000000
 21
235.625387347
 31
0.000000000
  0
LINE
  5
A3B
330
A02
100
AcDbEntity
  8
S05_Chassis_Top
100
AcDbLine
 10
136.000000000
 20
229.213558135
 30
0.000000000
 11
136.000000000
 21
233.358166375
 31
0.000000000
  0
LINE
  5
A3C
330
A02
100
AcDbEntity
  8
S05_Chassis_Top
100
AcDbLine
 10
136.000000000
 20
225.363505198
 30
0.000000000
 11
136.000000000
 21
229.213558135
 31
0.000000000
  0
LINE
  5
A3D
330
A02
100
AcDbEntity
  8
S05_Chassis_Top
100
AcDbLine
 10
136.000000000
 20
222.487549162
 30
0.000000000
 11
136.000000000
 21
225.363505198
 31
0.000000000
  0
LINE
  5
A3E
330
A02
100
AcDbEntity
  8
S05_Chassis_Top
100
AcDbLine
 10
170.781284456
 20
239.939498545
 30
0.000000000
 11
173.000000000
 21
238.990254832
 31
0.000000000
  0
LINE
  5
A3F
330
A02
100
AcDbEntity
  8
S05_Chassis_Top
100
AcDbLine
 10
168.514178892
 20
240.757519991
 30
0.000000000
 11
170.781284456
 21
239.939498545
 31
0.000000000
  0
LINE
  5
A40
330
A02
100
AcDbEntity
  8
S05_Chassis_Top
100
AcDbLine
 10
164.666408636
 20
241.813988547
 30
0.000000000
 11
168.514178892
 21
240.757519991
 31
0.000000000
  0
LINE
  5
A41
330
A02
100
AcDbEntity
  8
S05_Chassis_Top
100
AcDbLine
 10
160.879469284
 20
242.467119315
 30
0.000000000
 11
164.666408636
 21
241.813988547
 31
0.000000000
  0
LINE
  5
A42
330
A02
100
AcDbEntity
  8
S05_Chassis_Top
100
AcDbLine
 10
157.162211267
 20
242.751216010
 30
0.000000000
 11
160.879469284
 21
242.467119315
 31
0.000000000
  0
LINE
  5
A43
330
A02
100
AcDbEntity
  8
S05_Chassis_Top
100
AcDbLine
 10
153.791449532
 20
242.709557119
 30
0.000000000
 11
157.162211267
 21
242.751216010
 31
0.000000000
  0
LINE
  5
A44
330
A02
100
AcDbEntity
  8
S05_Chassis_Top
100
AcDbLine
 10
150.327609848
 20
242.369442955
 30
0.000000000
 11
153.791449532
 21
242.709557119
 31
0.000000000
  0
LINE
  5
A45
330
A02
100
AcDbEntity
  8
S05_Chassis_Top
100
AcDbLine
 10
146.792972890
 20
241.703877045
 30
0.000000000
 11
150.327609848
 21
242.369442955
 31
0.000000000
  0
LINE
  5
A46
330
A02
100
AcDbEntity
  8
S05_Chassis_Top
100
AcDbLine
 10
143.294591360
 20
240.714138711
 30
0.000000000
 11
146.792972890
 21
241.703877045
 31
0.000000000
  0
LINE
  5
A47
330
A02
100
AcDbEntity
  8
S05_Chassis_Top
100
AcDbLine
 10
139.574245899
 20
239.276886492
 30
0.000000000
 11
143.294591360
 21
240.714138711
 31
0.000000000
  0
LINE
  5
A48
330
A02
100
AcDbEntity
  8
S05_Chassis_Top
100
AcDbLine
 10
136.000000000
 20
237.489968541
 30
0.000000000
 11
139.574245899
 21
239.276886492
 31
0.000000000
  0
LINE
  5
A49
330
A02
100
AcDbEntity
  8
S05_Chassis_Top
100
AcDbLine
 10
173.000000000
 20
237.423306284
 30
0.000000000
 11
173.000000000
 21
238.990254832
 31
0.000000000
  0
LINE
  5
A4A
330
A02
100
AcDbEntity
  8
S05_Chassis_Top
100
AcDbLine
 10
173.000000000
 20
235.578727957
 30
0.000000000
 11
173.000000000
 21
237.423306284
 31
0.000000000
  0
LINE
  5
A4B
330
A02
100
AcDbEntity
  8
S05_Chassis_Top
100
AcDbLine
 10
173.000000000
 20
232.148994472
 30
0.000000000
 11
173.000000000
 21
235.578727957
 31
0.000000000
  0
LINE
  5
A4C
330
A02
100
AcDbEntity
  8
S05_Chassis_Top
100
AcDbLine
 10
173.000000000
 20
227.374070346
 30
0.000000000
 11
173.000000000
 21
232.148994472
 31
0.000000000
  0
LINE
  5
A4D
330
A02
100
AcDbEntity
  8
S05_Chassis_Top
100
AcDbLine
 10
173.000000000
 20
223.715227713
 30
0.000000000
 11
173.000000000
 21
227.374070346
 31
0.000000000
  0
LINE
  5
A4E
330
A02
100
AcDbEntity
  8
S05_Chassis_Top
100
AcDbLine
 10
173.000000000
 20
220.987638031
 30
0.000000000
 11
173.000000000
 21
223.715227713
 31
0.000000000
  0
LINE
  5
A4F
330
A02
100
AcDbEntity
  8
S05_Chassis_Top
100
AcDbLine
 10
95.000000000
 20
219.737334435
 30
0.000000000
 11
95.000000000
 21
219.737333646
 31
0.000000000
  0
LINE
  5
A50
330
A02
100
AcDbEntity
  8
S05_Chassis_Top
100
AcDbLine
 10
95.000000000
 20
219.826813834
 30
0.000000000
 11
95.000000000
 21
219.742662392
 31
0.000000000
  0
LINE
  5
A51
330
A02
100
AcDbEntity
  8
S05_Chassis_Top
100
AcDbLine
 10
95.000000000
 20
220.031660356
 30
0.000000000
 11
95.000000000
 21
219.826813834
 31
0.000000000
  0
LINE
  5
A52
330
A02
100
AcDbEntity
  8
S05_Chassis_Top
100
AcDbLine
 10
95.000000000
 20
220.419293631
 30
0.000000000
 11
95.000000000
 21
220.031660356
 31
0.000000000
  0
LINE
  5
A53
330
A02
100
AcDbEntity
  8
S05_Chassis_Top
100
AcDbLine
 10
95.000000000
 20
221.015017702
 30
0.000000000
 11
95.000000000
 21
220.419293631
 31
0.000000000
  0
LINE
  5
A54
330
A02
100
AcDbEntity
  8
S05_Chassis_Top
100
AcDbLine
 10
95.000000000
 20
221.863957118
 30
0.000000000
 11
95.000000000
 21
221.015017702
 31
0.000000000
  0
LINE
  5
A55
330
A02
100
AcDbEntity
  8
S05_Chassis_Top
100
AcDbLine
 10
95.000000000
 20
222.514563124
 30
0.000000000
 11
95.000000000
 21
221.863957118
 31
0.000000000
  0
LINE
  5
A56
330
A02
100
AcDbEntity
  8
S05_Chassis_Top
100
AcDbLine
 10
95.000000000
 20
223.251138871
 30
0.000000000
 11
95.000000000
 21
222.514563124
 31
0.000000000
  0
LINE
  5
A57
330
A02
100
AcDbEntity
  8
S05_Chassis_Top
100
AcDbLine
 10
95.000000000
 20
224.998458310
 30
0.000000000
 11
95.000000000
 21
223.251138871
 31
0.000000000
  0
LINE
  5
A58
330
A02
100
AcDbEntity
  8
S05_Chassis_Top
100
AcDbLine
 10
95.000000000
 20
227.072102838
 30
0.000000000
 11
95.000000000
 21
224.998458310
 31
0.000000000
  0
LINE
  5
A59
330
A02
100
AcDbEntity
  8
S05_Chassis_Top
100
AcDbLine
 10
95.000000000
 20
231.820655596
 30
0.000000000
 11
95.000000000
 21
227.072102838
 31
0.000000000
  0
LINE
  5
A5A
330
A02
100
AcDbEntity
  8
S05_Chassis_Top
100
AcDbLine
 10
95.000000000
 20
234.288455889
 30
0.000000000
 11
95.000000000
 21
231.820655596
 31
0.000000000
  0
LINE
  5
A5B
330
A02
100
AcDbEntity
  8
S05_Chassis_Top
100
AcDbLine
 10
95.000000000
 20
236.161057693
 30
0.000000000
 11
95.000000000
 21
234.288455889
 31
0.000000000
  0
LINE
  5
A5C
330
A02
100
AcDbEntity
  8
S05_Chassis_Top
100
AcDbLine
 10
95.000000000
 20
237.347200975
 30
0.000000000
 11
95.000000000
 21
236.161057693
 31
0.000000000
  0
LINE
  5
A5D
330
A02
100
AcDbEntity
  8
S05_Chassis_Top
100
AcDbLine
 10
95.000000000
 20
238.164842122
 30
0.000000000
 11
95.000000000
 21
237.347200975
 31
0.000000000
  0
LINE
  5
A5E
330
A02
100
AcDbEntity
  8
S05_Chassis_Top
100
AcDbLine
 10
95.000000000
 20
238.878362322
 30
0.000000000
 11
95.000000000
 21
238.164842122
 31
0.000000000
  0
LINE
  5
A5F
330
A02
100
AcDbEntity
  8
S05_Chassis_Top
100
AcDbLine
 10
95.000000000
 20
239.498560684
 30
0.000000000
 11
95.000000000
 21
238.878362322
 31
0.000000000
  0
LINE
  5
A60
330
A02
100
AcDbEntity
  8
S05_Chassis_Top
100
AcDbLine
 10
95.000000000
 20
239.967966924
 30
0.000000000
 11
95.000000000
 21
239.498560684
 31
0.000000000
  0
LINE
  5
A61
330
A02
100
AcDbEntity
  8
S05_Chassis_Top
100
AcDbLine
 10
95.000000000
 20
240.157818513
 30
0.000000000
 11
95.000000000
 21
239.967966924
 31
0.000000000
  0
LINE
  5
A62
330
A02
100
AcDbEntity
  8
S05_Chassis_Top
100
AcDbLine
 10
197.500000000
 20
216.021755606
 30
0.000000000
 11
197.500000000
 21
215.962996772
 31
0.000000000
  0
LINE
  5
A63
330
A02
100
AcDbEntity
  8
S05_Chassis_Top
100
AcDbLine
 10
197.500000000
 20
216.239293655
 30
0.000000000
 11
197.500000000
 21
216.021755606
 31
0.000000000
  0
LINE
  5
A64
330
A02
100
AcDbEntity
  8
S05_Chassis_Top
100
AcDbLine
 10
197.500000000
 20
216.700090885
 30
0.000000000
 11
197.500000000
 21
216.239293655
 31
0.000000000
  0
LINE
  5
A65
330
A02
100
AcDbEntity
  8
S05_Chassis_Top
100
AcDbLine
 10
197.500000000
 20
217.275076957
 30
0.000000000
 11
197.500000000
 21
216.700090885
 31
0.000000000
  0
LINE
  5
A66
330
A02
100
AcDbEntity
  8
S05_Chassis_Top
100
AcDbLine
 10
197.500000000
 20
218.072609054
 30
0.000000000
 11
197.500000000
 21
217.275076957
 31
0.000000000
  0
LINE
  5
A67
330
A02
100
AcDbEntity
  8
S05_Chassis_Top
100
AcDbLine
 10
197.500000000
 20
219.203368106
 30
0.000000000
 11
197.500000000
 21
218.072609054
 31
0.000000000
  0
LINE
  5
A68
330
A02
100
AcDbEntity
  8
S05_Chassis_Top
100
AcDbLine
 10
197.500000000
 20
220.673822950
 30
0.000000000
 11
197.500000000
 21
219.203368106
 31
0.000000000
  0
LINE
  5
A69
330
A02
100
AcDbEntity
  8
S05_Chassis_Top
100
AcDbLine
 10
197.500000000
 20
222.586514924
 30
0.000000000
 11
197.500000000
 21
220.673822950
 31
0.000000000
  0
LINE
  5
A6A
330
A02
100
AcDbEntity
  8
S05_Chassis_Top
100
AcDbLine
 10
197.500000000
 20
224.860985152
 30
0.000000000
 11
197.500000000
 21
222.586514924
 31
0.000000000
  0
LINE
  5
A6B
330
A02
100
AcDbEntity
  8
S05_Chassis_Top
100
AcDbLine
 10
197.500000000
 20
227.990936678
 30
0.000000000
 11
197.500000000
 21
224.860985152
 31
0.000000000
  0
LINE
  5
A6C
330
A02
100
AcDbEntity
  8
S05_Chassis_Top
100
AcDbLine
 10
197.500000000
 20
233.046855017
 30
0.000000000
 11
197.500000000
 21
227.990936678
 31
0.000000000
  0
LINE
  5
A6D
330
A02
100
AcDbEntity
  8
S05_Chassis_Top
100
AcDbLine
 10
197.500000000
 20
235.713059359
 30
0.000000000
 11
197.500000000
 21
233.046855017
 31
0.000000000
  0
LINE
  5
A6E
330
A02
100
AcDbEntity
  8
S05_Chassis_Top
100
AcDbLine
 10
197.500000000
 20
237.835454357
 30
0.000000000
 11
197.500000000
 21
235.713059359
 31
0.000000000
  0
LINE
  5
A6F
330
A02
100
AcDbEntity
  8
S05_Chassis_Top
100
AcDbLine
 10
197.500000000
 20
239.573644397
 30
0.000000000
 11
197.500000000
 21
237.835454357
 31
0.000000000
  0
LINE
  5
A70
330
A02
100
AcDbEntity
  8
S05_Chassis_Top
100
AcDbLine
 10
197.500000000
 20
241.002247046
 30
0.000000000
 11
197.500000000
 21
239.573644397
 31
0.000000000
  0
LINE
  5
A71
330
A02
100
AcDbEntity
  8
S05_Chassis_Top
100
AcDbLine
 10
197.500000000
 20
242.163239916
 30
0.000000000
 11
197.500000000
 21
241.002247046
 31
0.000000000
  0
LINE
  5
A72
330
A02
100
AcDbEntity
  8
S05_Chassis_Top
100
AcDbLine
 10
197.500000000
 20
242.987998434
 30
0.000000000
 11
197.500000000
 21
242.163239916
 31
0.000000000
  0
LINE
  5
A73
330
A02
100
AcDbEntity
  8
S05_Chassis_Top
100
AcDbLine
 10
197.500000000
 20
243.593831240
 30
0.000000000
 11
197.500000000
 21
242.987998434
 31
0.000000000
  0
LINE
  5
A74
330
A02
100
AcDbEntity
  8
S05_Chassis_Top
100
AcDbLine
 10
197.500000000
 20
243.871658141
 30
0.000000000
 11
197.500000000
 21
243.593831240
 31
0.000000000
  0
LINE
  5
A75
330
A02
100
AcDbEntity
  8
S05_Chassis_Top
100
AcDbLine
 10
197.500000000
 20
243.987247975
 30
0.000000000
 11
197.500000000
 21
243.871658141
 31
0.000000000
  0
LINE
  5
A76
330
A02
100
AcDbEntity
  8
S05_Chassis_Top
100
AcDbLine
 10
101.802192345
 20
240.554428171
 30
0.000000000
 11
103.634490355
 21
240.804710529
 31
0.000000000
  0
LINE
  5
A77
330
A02
100
AcDbEntity
  8
S05_Chassis_Top
100
AcDbLine
 10
101.615688942
 20
240.537807976
 30
0.000000000
 11
101.798570144
 21
240.554105379
 31
0.000000000
  0
LINE
  5
A78
330
A02
100
AcDbEntity
  8
S05_Chassis_Top
100
AcDbLine
 10
49.055114949
 20
233.491211066
 30
0.000000000
 11
49.622344585
 21
233.473289539
 31
0.000000000
  0
LINE
  5
A79
330
A02
100
AcDbEntity
  8
S05_Chassis_Top
100
AcDbLine
 10
90.210449649
 20
239.457370667
 30
0.000000000
 11
90.698000477
 21
239.540415624
 31
0.000000000
  0
LINE
  5
A7A
330
A02
100
AcDbEntity
  8
S05_Chassis_Top
100
AcDbLine
 10
82.695533933
 20
221.827656599
 30
0.000000000
 11
82.013848837
 21
221.945314862
 31
0.000000000
  0
LINE
  5
A7B
330
A02
100
AcDbEntity
  8
S05_Chassis_Top
100
AcDbLine
 10
82.695533933
 20
221.827656599
 30
0.000000000
 11
83.824552506
 21
221.631019904
 31
0.000000000
  0
LINE
  5
A7C
330
A02
100
AcDbEntity
  8
S05_Chassis_Top
100
AcDbLine
 10
42.600402154
 20
232.505361169
 30
0.000000000
 11
42.500000000
 21
232.487692704
 31
0.000000000
  0
LINE
  5
A7D
330
A02
100
AcDbEntity
  8
S05_Chassis_Top
100
AcDbLine
 10
48.750504311
 20
233.450063472
 30
0.000000000
 11
49.055114949
 21
233.491211066
 31
0.000000000
  0
LINE
  5
A7E
330
A02
100
AcDbEntity
  8
S05_Chassis_Top
100
AcDbLine
 10
42.767384109
 20
232.534628919
 30
0.000000000
 11
48.750504311
 21
233.450063472
 31
0.000000000
  0
LINE
  5
A7F
330
A02
100
AcDbEntity
  8
S05_Chassis_Top
100
AcDbLine
 10
42.767384109
 20
232.534628919
 30
0.000000000
 11
42.600402154
 21
232.505361169
 31
0.000000000
  0
LINE
  5
A80
330
A02
100
AcDbEntity
  8
S05_Chassis_Top
100
AcDbLine
 10
49.622344585
 20
233.473289539
 30
0.000000000
 11
52.056686091
 21
233.800560802
 31
0.000000000
  0
LINE
  5
A81
330
A02
100
AcDbEntity
  8
S05_Chassis_Top
100
AcDbLine
 10
52.691979769
 20
233.885969264
 30
0.000000000
 11
57.724465843
 21
234.562533365
 31
0.000000000
  0
LINE
  5
A82
330
A02
100
AcDbEntity
  8
S05_Chassis_Top
100
AcDbLine
 10
83.246638284
 20
238.364357840
 30
0.000000000
 11
83.952518435
 21
238.367575999
 31
0.000000000
  0
LINE
  5
A83
330
A02
100
AcDbEntity
  8
S05_Chassis_Top
100
AcDbLine
 10
83.246638284
 20
238.364357840
 30
0.000000000
 11
72.950344131
 21
236.556078128
 31
0.000000000
  0
LINE
  5
A84
330
A02
100
AcDbEntity
  8
S05_Chassis_Top
100
AcDbLine
 10
90.698000477
 20
239.540415624
 30
0.000000000
 11
94.808146392
 21
240.208470289
 31
0.000000000
  0
LINE
  5
A85
330
A02
100
AcDbEntity
  8
S05_Chassis_Top
100
AcDbLine
 10
94.943578943
 20
240.229118563
 30
0.000000000
 11
94.808146392
 21
240.208470289
 31
0.000000000
  0
LINE
  5
A86
330
A02
100
AcDbEntity
  8
S05_Chassis_Top
100
AcDbLine
 10
94.943578943
 20
240.229118563
 30
0.000000000
 11
95.000000000
 21
240.237860415
 31
0.000000000
  0
LINE
  5
A87
330
A02
100
AcDbEntity
  8
S05_Chassis_Top
100
AcDbLine
 10
88.476587425
 20
220.817381541
 30
0.000000000
 11
87.037789565
 21
221.068062736
 31
0.000000000
  0
LINE
  5
A88
330
A02
100
AcDbEntity
  8
S05_Chassis_Top
100
AcDbLine
 10
88.583025014
 20
220.799182198
 30
0.000000000
 11
88.476587425
 21
220.817381541
 31
0.000000000
  0
LINE
  5
A89
330
A02
100
AcDbEntity
  8
S05_Chassis_Top
100
AcDbLine
 10
88.583025014
 20
220.799182198
 30
0.000000000
 11
90.163369379
 21
220.526521368
 31
0.000000000
  0
LINE
  5
A8A
330
A02
100
AcDbEntity
  8
S05_Chassis_Top
100
AcDbLine
 10
42.980856505
 20
227.403349168
 30
0.000000000
 11
42.500000000
 21
227.487268374
 31
0.000000000
  0
LINE
  5
A8B
330
A02
100
AcDbEntity
  8
S05_Chassis_Top
100
AcDbLine
 10
49.155764239
 20
226.470814810
 30
0.000000000
 11
49.918756402
 21
226.369556056
 31
0.000000000
  0
LINE
  5
A8C
330
A02
100
AcDbEntity
  8
S05_Chassis_Top
100
AcDbLine
 10
54.925498081
 20
225.746525173
 30
0.000000000
 11
55.825765196
 21
225.638616714
 31
0.000000000
  0
LINE
  5
A8D
330
A02
100
AcDbEntity
  8
S05_Chassis_Top
100
AcDbLine
 10
85.486326025
 20
221.340374674
 30
0.000000000
 11
83.824552506
 21
221.631019904
 31
0.000000000
  0
LINE
  5
A8E
330
A02
100
AcDbEntity
  8
S05_Chassis_Top
100
AcDbLine
 10
85.486326025
 20
221.340374674
 30
0.000000000
 11
87.037789565
 21
221.068062736
 31
0.000000000
  0
LINE
  5
A8F
330
A02
100
AcDbEntity
  8
S05_Chassis_Top
100
AcDbLine
 10
93.078625397
 20
220.040709305
 30
0.000000000
 11
93.304155754
 21
220.004087926
 31
0.000000000
  0
LINE
  5
A90
330
A02
100
AcDbEntity
  8
S05_Chassis_Top
100
AcDbLine
 10
92.194858812
 20
220.184966940
 30
0.000000000
 11
93.078625397
 21
220.040709305
 31
0.000000000
  0
LINE
  5
A91
330
A02
100
AcDbEntity
  8
S05_Chassis_Top
100
AcDbLine
 10
91.387203786
 20
220.320601039
 30
0.000000000
 11
92.194858812
 21
220.184966940
 31
0.000000000
  0
LINE
  5
A92
330
A02
100
AcDbEntity
  8
S05_Chassis_Top
100
AcDbLine
 10
91.387203786
 20
220.320601039
 30
0.000000000
 11
90.163369379
 21
220.526521368
 31
0.000000000
  0
LINE
  5
A93
330
A02
100
AcDbEntity
  8
S05_Chassis_Top
100
AcDbLine
 10
94.106541373
 20
219.876379857
 30
0.000000000
 11
93.304155754
 21
220.004087926
 31
0.000000000
  0
LINE
  5
A94
330
A02
100
AcDbEntity
  8
S05_Chassis_Top
100
AcDbLine
 10
94.597351483
 20
219.799383198
 30
0.000000000
 11
95.000000000
 21
219.737334435
 31
0.000000000
  0
LINE
  5
A95
330
A02
100
AcDbEntity
  8
S05_Chassis_Top
100
AcDbLine
 10
94.597351483
 20
219.799383198
 30
0.000000000
 11
94.106541373
 21
219.876379857
 31
0.000000000
  0
LINE
  5
A96
330
A02
100
AcDbEntity
  8
S05_Chassis_Top
100
AcDbLine
 10
43.605564179
 20
227.297250541
 30
0.000000000
 11
42.980856505
 21
227.403349168
 31
0.000000000
  0
LINE
  5
A97
330
A02
100
AcDbEntity
  8
S05_Chassis_Top
100
AcDbLine
 10
43.881835214
 20
227.251280962
 30
0.000000000
 11
43.605564179
 21
227.297250541
 31
0.000000000
  0
LINE
  5
A98
330
A02
100
AcDbEntity
  8
S05_Chassis_Top
100
AcDbLine
 10
44.159099644
 20
227.205830480
 30
0.000000000
 11
43.881835214
 21
227.251280962
 31
0.000000000
  0
LINE
  5
A99
330
A02
100
AcDbEntity
  8
S05_Chassis_Top
100
AcDbLine
 10
45.035155611
 20
227.065844093
 30
0.000000000
 11
44.159099644
 21
227.205830480
 31
0.000000000
  0
LINE
  5
A9A
330
A02
100
AcDbEntity
  8
S05_Chassis_Top
100
AcDbLine
 10
45.822182913
 20
226.945089509
 30
0.000000000
 11
45.035155611
 21
227.065844093
 31
0.000000000
  0
LINE
  5
A9B
330
A02
100
AcDbEntity
  8
S05_Chassis_Top
100
AcDbLine
 10
46.497723663
 20
226.843827491
 30
0.000000000
 11
45.822182913
 21
226.945089509
 31
0.000000000
  0
LINE
  5
A9C
330
A02
100
AcDbEntity
  8
S05_Chassis_Top
100
AcDbLine
 10
47.488093768
 20
226.700921465
 30
0.000000000
 11
46.497723663
 21
226.843827491
 31
0.000000000
  0
LINE
  5
A9D
330
A02
100
AcDbEntity
  8
S05_Chassis_Top
100
AcDbLine
 10
48.911643341
 20
226.503726953
 30
0.000000000
 11
47.488093768
 21
226.700921465
 31
0.000000000
  0
LINE
  5
A9E
330
A02
100
AcDbEntity
  8
S05_Chassis_Top
100
AcDbLine
 10
49.034696074
 20
226.487223976
 30
0.000000000
 11
48.911643341
 21
226.503726953
 31
0.000000000
  0
LINE
  5
A9F
330
A02
100
AcDbEntity
  8
S05_Chassis_Top
100
AcDbLine
 10
49.034696074
 20
226.487223976
 30
0.000000000
 11
49.155764239
 21
226.470814810
 31
0.000000000
  0
LINE
  5
AA0
330
A02
100
AcDbEntity
  8
S05_Chassis_Top
100
AcDbLine
 10
50.956638991
 20
226.236014787
 30
0.000000000
 11
52.474642161
 21
226.044282376
 31
0.000000000
  0
LINE
  5
AA1
330
A02
100
AcDbEntity
  8
S05_Chassis_Top
100
AcDbLine
 10
50.455045279
 20
226.300457032
 30
0.000000000
 11
49.918756402
 21
226.369556056
 31
0.000000000
  0
LINE
  5
AA2
330
A02
100
AcDbEntity
  8
S05_Chassis_Top
100
AcDbLine
 10
50.455045279
 20
226.300457032
 30
0.000000000
 11
50.956638991
 21
226.236014787
 31
0.000000000
  0
LINE
  5
AA3
330
A02
100
AcDbEntity
  8
S05_Chassis_Top
100
AcDbLine
 10
54.615871390
 20
225.784203230
 30
0.000000000
 11
54.925498081
 21
225.746525173
 31
0.000000000
  0
LINE
  5
AA4
330
A02
100
AcDbEntity
  8
S05_Chassis_Top
100
AcDbLine
 10
54.087897601
 20
225.848102436
 30
0.000000000
 11
54.615871390
 21
225.784203230
 31
0.000000000
  0
LINE
  5
AA5
330
A02
100
AcDbEntity
  8
S05_Chassis_Top
100
AcDbLine
 10
54.087897601
 20
225.848102436
 30
0.000000000
 11
52.474642161
 21
226.044282376
 31
0.000000000
  0
LINE
  5
AA6
330
A02
100
AcDbEntity
  8
S05_Chassis_Top
100
AcDbLine
 10
77.606087814
 20
222.689261414
 30
0.000000000
 11
77.907011407
 21
222.639065598
 31
0.000000000
  0
LINE
  5
AA7
330
A02
100
AcDbEntity
  8
S05_Chassis_Top
100
AcDbLine
 10
77.489388006
 20
222.707822599
 30
0.000000000
 11
75.547681958
 21
223.019042609
 31
0.000000000
  0
LINE
  5
AA8
330
A02
100
AcDbEntity
  8
S05_Chassis_Top
100
AcDbLine
 10
77.489388006
 20
222.707822599
 30
0.000000000
 11
77.606087814
 21
222.689261414
 31
0.000000000
  0
LINE
  5
AA9
330
A02
100
AcDbEntity
  8
S05_Chassis_Top
100
AcDbLine
 10
78.744769573
 20
222.500308915
 30
0.000000000
 11
77.907011407
 21
222.639065598
 31
0.000000000
  0
LINE
  5
AAA
330
A02
100
AcDbEntity
  8
S05_Chassis_Top
100
AcDbLine
 10
79.468028385
 20
222.379461599
 30
0.000000000
 11
79.920946123
 21
222.304388074
 31
0.000000000
  0
LINE
  5
AAB
330
A02
100
AcDbEntity
  8
S05_Chassis_Top
100
AcDbLine
 10
79.468028385
 20
222.379461599
 30
0.000000000
 11
78.744769573
 21
222.500308915
 31
0.000000000
  0
LINE
  5
AAC
330
A02
100
AcDbEntity
  8
S05_Chassis_Top
100
AcDbLine
 10
80.064697361
 20
222.279629702
 30
0.000000000
 11
79.920946123
 21
222.304388074
 31
0.000000000
  0
LINE
  5
AAD
330
A02
100
AcDbEntity
  8
S05_Chassis_Top
100
AcDbLine
 10
80.656122306
 20
222.178948365
 30
0.000000000
 11
80.064697361
 21
222.279629702
 31
0.000000000
  0
LINE
  5
AAE
330
A02
100
AcDbEntity
  8
S05_Chassis_Top
100
AcDbLine
 10
80.656122306
 20
222.178948365
 30
0.000000000
 11
82.013848837
 21
221.945314862
 31
0.000000000
  0
LINE
  5
AAF
330
A02
100
AcDbEntity
  8
S05_Chassis_Top
100
AcDbLine
 10
56.753087698
 20
225.528750657
 30
0.000000000
 11
55.825765196
 21
225.638616714
 31
0.000000000
  0
LINE
  5
AB0
330
A02
100
AcDbEntity
  8
S05_Chassis_Top
100
AcDbLine
 10
61.543352715
 20
224.955811564
 30
0.000000000
 11
62.461379683
 21
224.842981266
 31
0.000000000
  0
LINE
  5
AB1
330
A02
100
AcDbEntity
  8
S05_Chassis_Top
100
AcDbLine
 10
63.385573601
 20
224.728780757
 30
0.000000000
 11
62.461379683
 21
224.842981266
 31
0.000000000
  0
LINE
  5
AB2
330
A02
100
AcDbEntity
  8
S05_Chassis_Top
100
AcDbLine
 10
68.122195713
 20
224.111895043
 30
0.000000000
 11
69.036529604
 21
223.985726583
 31
0.000000000
  0
LINE
  5
AB3
330
A02
100
AcDbEntity
  8
S05_Chassis_Top
100
AcDbLine
 10
71.037590173
 20
223.702307174
 30
0.000000000
 11
69.036529604
 21
223.985726583
 31
0.000000000
  0
LINE
  5
AB4
330
A02
100
AcDbEntity
  8
S05_Chassis_Top
100
AcDbLine
 10
71.421138699
 20
223.646436955
 30
0.000000000
 11
71.037590173
 21
223.702307174
 31
0.000000000
  0
LINE
  5
AB5
330
A02
100
AcDbEntity
  8
S05_Chassis_Top
100
AcDbLine
 10
72.343858828
 20
223.511218105
 30
0.000000000
 11
71.421138699
 21
223.646436955
 31
0.000000000
  0
LINE
  5
AB6
330
A02
100
AcDbEntity
  8
S05_Chassis_Top
100
AcDbLine
 10
72.983267396
 20
223.414842459
 30
0.000000000
 11
72.343858828
 21
223.511218105
 31
0.000000000
  0
LINE
  5
AB7
330
A02
100
AcDbEntity
  8
S05_Chassis_Top
100
AcDbLine
 10
73.504601956
 20
223.336064846
 30
0.000000000
 11
75.547681958
 21
223.019042609
 31
0.000000000
  0
LINE
  5
AB8
330
A02
100
AcDbEntity
  8
S05_Chassis_Top
100
AcDbLine
 10
73.504601956
 20
223.336064846
 30
0.000000000
 11
72.983267396
 21
223.414842459
 31
0.000000000
  0
LINE
  5
AB9
330
A02
100
AcDbEntity
  8
S05_Chassis_Top
100
AcDbLine
 10
56.935072222
 20
225.507388567
 30
0.000000000
 11
56.753087698
 21
225.528750657
 31
0.000000000
  0
LINE
  5
ABA
330
A02
100
AcDbEntity
  8
S05_Chassis_Top
100
AcDbLine
 10
57.011463112
 20
225.498175200
 30
0.000000000
 11
56.935072222
 21
225.507388567
 31
0.000000000
  0
LINE
  5
ABB
330
A02
100
AcDbEntity
  8
S05_Chassis_Top
100
AcDbLine
 10
57.489296517
 20
225.441568452
 30
0.000000000
 11
57.011463112
 21
225.498175200
 31
0.000000000
  0
LINE
  5
ABC
330
A02
100
AcDbEntity
  8
S05_Chassis_Top
100
AcDbLine
 10
57.489296517
 20
225.441568452
 30
0.000000000
 11
59.150029030
 21
225.243552504
 31
0.000000000
  0
LINE
  5
ABD
330
A02
100
AcDbEntity
  8
S05_Chassis_Top
100
AcDbLine
 10
60.807511231
 20
225.045320132
 30
0.000000000
 11
59.150029030
 21
225.243552504
 31
0.000000000
  0
LINE
  5
ABE
330
A02
100
AcDbEntity
  8
S05_Chassis_Top
100
AcDbLine
 10
61.285726022
 20
224.987326585
 30
0.000000000
 11
60.807511231
 21
225.045320132
 31
0.000000000
  0
LINE
  5
ABF
330
A02
100
AcDbEntity
  8
S05_Chassis_Top
100
AcDbLine
 10
61.285726022
 20
224.987326585
 30
0.000000000
 11
61.543352715
 21
224.955811564
 31
0.000000000
  0
LINE
  5
AC0
330
A02
100
AcDbEntity
  8
S05_Chassis_Top
100
AcDbLine
 10
63.561811403
 20
224.707013335
 30
0.000000000
 11
63.385573601
 21
224.728780757
 31
0.000000000
  0
LINE
  5
AC1
330
A02
100
AcDbEntity
  8
S05_Chassis_Top
100
AcDbLine
 10
63.635468617
 20
224.697615633
 30
0.000000000
 11
63.561811403
 21
224.707013335
 31
0.000000000
  0
LINE
  5
AC2
330
A02
100
AcDbEntity
  8
S05_Chassis_Top
100
AcDbLine
 10
64.111359016
 20
224.637831078
 30
0.000000000
 11
65.757261927
 21
224.426220918
 31
0.000000000
  0
LINE
  5
AC3
330
A02
100
AcDbEntity
  8
S05_Chassis_Top
100
AcDbLine
 10
64.111359016
 20
224.637831078
 30
0.000000000
 11
63.635468617
 21
224.697615633
 31
0.000000000
  0
LINE
  5
AC4
330
A02
100
AcDbEntity
  8
S05_Chassis_Top
100
AcDbLine
 10
67.398989180
 20
224.209991487
 30
0.000000000
 11
65.757261927
 21
224.426220918
 31
0.000000000
  0
LINE
  5
AC5
330
A02
100
AcDbEntity
  8
S05_Chassis_Top
100
AcDbLine
 10
67.875019335
 20
224.145684171
 30
0.000000000
 11
68.122195713
 21
224.111895043
 31
0.000000000
  0
LINE
  5
AC6
330
A02
100
AcDbEntity
  8
S05_Chassis_Top
100
AcDbLine
 10
67.875019335
 20
224.145684171
 30
0.000000000
 11
67.398989180
 21
224.209991487
 31
0.000000000
  0
LINE
  5
AC7
330
A02
100
AcDbEntity
  8
S05_Chassis_Top
100
AcDbLine
 10
101.697651356
 20
219.426463566
 30
0.000000000
 11
104.956868679
 21
218.949141540
 31
0.000000000
  0
LINE
  5
AC8
330
A02
100
AcDbEntity
  8
S05_Chassis_Top
100
AcDbLine
 10
140.754173584
 20
213.437147148
 30
0.000000000
 11
142.050959010
 21
213.339293207
 31
0.000000000
  0
LINE
  5
AC9
330
A02
100
AcDbEntity
  8
S05_Chassis_Top
100
AcDbLine
 10
166.062468492
 20
212.994836869
 30
0.000000000
 11
169.736155099
 21
212.947873758
 31
0.000000000
  0
LINE
  5
ACA
330
A02
100
AcDbEntity
  8
S05_Chassis_Top
100
AcDbLine
 10
182.542975433
 20
246.809379478
 30
0.000000000
 11
182.025704727
 21
246.837090682
 31
0.000000000
  0
LINE
  5
ACB
330
A02
100
AcDbEntity
  8
S05_Chassis_Top
100
AcDbLine
 10
192.432531631
 20
245.559528386
 30
0.000000000
 11
192.695705410
 21
245.465994308
 31
0.000000000
  0
LINE
  5
ACC
330
A02
100
AcDbEntity
  8
S05_Chassis_Top
100
AcDbLine
 10
145.404839999
 20
213.236000786
 30
0.000000000
 11
149.241636516
 21
213.133832691
 31
0.000000000
  0
LINE
  5
ACD
330
A02
100
AcDbEntity
  8
S05_Chassis_Top
100
AcDbLine
 10
151.545555228
 20
213.092592486
 30
0.000000000
 11
153.417998660
 21
213.057479959
 31
0.000000000
  0
LINE
  5
ACE
330
A02
100
AcDbEntity
  8
S05_Chassis_Top
100
AcDbLine
 10
151.545555228
 20
213.092592486
 30
0.000000000
 11
149.241636516
 21
213.133832691
 31
0.000000000
  0
LINE
  5
ACF
330
A02
100
AcDbEntity
  8
S05_Chassis_Top
100
AcDbLine
 10
193.119030276
 20
214.582850514
 30
0.000000000
 11
193.569144627
 21
214.694275539
 31
0.000000000
  0
LINE
  5
AD0
330
A02
100
AcDbEntity
  8
S05_Chassis_Top
100
AcDbLine
 10
167.624425026
 20
247.049400851
 30
0.000000000
 11
162.458915590
 21
247.031263754
 31
0.000000000
  0
LINE
  5
AD1
330
A02
100
AcDbEntity
  8
S05_Chassis_Top
100
AcDbLine
 10
95.000000000
 20
240.237858121
 30
0.000000000
 11
98.271619770
 21
240.244635260
 31
0.000000000
  0
LINE
  5
AD2
330
A02
100
AcDbEntity
  8
S05_Chassis_Top
100
AcDbLine
 10
95.000000000
 20
219.737333646
 30
0.000000000
 11
97.129488603
 21
219.766293613
 31
0.000000000
  0
LINE
  5
AD3
330
A02
100
AcDbEntity
  8
S05_Chassis_Top
100
AcDbLine
 10
134.378936047
 20
246.091534483
 30
0.000000000
 11
133.862025481
 21
246.045685297
 31
0.000000000
  0
LINE
  5
AD4
330
A02
100
AcDbEntity
  8
S05_Chassis_Top
100
AcDbLine
 10
136.950597095
 20
246.318568520
 30
0.000000000
 11
134.378936047
 21
246.091534483
 31
0.000000000
  0
LINE
  5
AD5
330
A02
100
AcDbEntity
  8
S05_Chassis_Top
100
AcDbLine
 10
108.471384491
 20
218.313711396
 30
0.000000000
 11
104.956868679
 21
218.949141540
 31
0.000000000
  0
LINE
  5
AD6
330
A02
100
AcDbEntity
  8
S05_Chassis_Top
100
AcDbLine
 10
112.359684542
 20
217.521173290
 30
0.000000000
 11
108.471384491
 21
218.313711396
 31
0.000000000
  0
LINE
  5
AD7
330
A02
100
AcDbEntity
  8
S05_Chassis_Top
100
AcDbLine
 10
115.280290136
 20
216.921929777
 30
0.000000000
 11
112.359684542
 21
217.521173290
 31
0.000000000
  0
LINE
  5
AD8
330
A02
100
AcDbEntity
  8
S05_Chassis_Top
100
AcDbLine
 10
115.280290136
 20
216.921929777
 30
0.000000000
 11
118.522547381
 21
216.258602903
 31
0.000000000
  0
LINE
  5
AD9
330
A02
100
AcDbEntity
  8
S05_Chassis_Top
100
AcDbLine
 10
120.395773899
 20
215.908979067
 30
0.000000000
 11
118.522547381
 21
216.258602903
 31
0.000000000
  0
LINE
  5
ADA
330
A02
100
AcDbEntity
  8
S05_Chassis_Top
100
AcDbLine
 10
122.343350594
 20
215.544531918
 30
0.000000000
 11
120.395773899
 21
215.908979067
 31
0.000000000
  0
LINE
  5
ADB
330
A02
100
AcDbEntity
  8
S05_Chassis_Top
100
AcDbLine
 10
124.405671380
 20
215.196770086
 30
0.000000000
 11
125.513709343
 21
215.024090951
 31
0.000000000
  0
LINE
  5
ADC
330
A02
100
AcDbEntity
  8
S05_Chassis_Top
100
AcDbLine
 10
124.405671380
 20
215.196770086
 30
0.000000000
 11
122.343350594
 21
215.544531918
 31
0.000000000
  0
LINE
  5
ADD
330
A02
100
AcDbEntity
  8
S05_Chassis_Top
100
AcDbLine
 10
126.690325209
 20
214.837321179
 30
0.000000000
 11
125.513709343
 21
215.024090951
 31
0.000000000
  0
LINE
  5
ADE
330
A02
100
AcDbEntity
  8
S05_Chassis_Top
100
AcDbLine
 10
128.926558581
 20
214.548468891
 30
0.000000000
 11
126.690325209
 21
214.837321179
 31
0.000000000
  0
LINE
  5
ADF
330
A02
100
AcDbEntity
  8
S05_Chassis_Top
100
AcDbLine
 10
130.633379140
 20
214.305466798
 30
0.000000000
 11
132.622371679
 21
214.067296020
 31
0.000000000
  0
LINE
  5
AE0
330
A02
100
AcDbEntity
  8
S05_Chassis_Top
100
AcDbLine
 10
129.729560345
 20
214.431110815
 30
0.000000000
 11
130.633379140
 21
214.305466798
 31
0.000000000
  0
LINE
  5
AE1
330
A02
100
AcDbEntity
  8
S05_Chassis_Top
100
AcDbLine
 10
129.729560345
 20
214.431110815
 30
0.000000000
 11
128.926558581
 21
214.548468891
 31
0.000000000
  0
LINE
  5
AE2
330
A02
100
AcDbEntity
  8
S05_Chassis_Top
100
AcDbLine
 10
135.756619022
 20
213.777886456
 30
0.000000000
 11
132.622371679
 21
214.067296020
 31
0.000000000
  0
LINE
  5
AE3
330
A02
100
AcDbEntity
  8
S05_Chassis_Top
100
AcDbLine
 10
111.087495111
 20
242.198957249
 30
0.000000000
 11
112.577195172
 21
242.616947217
 31
0.000000000
  0
LINE
  5
AE4
330
A02
100
AcDbEntity
  8
S05_Chassis_Top
100
AcDbLine
 10
115.751478043
 20
243.148235917
 30
0.000000000
 11
112.577195172
 21
242.616947217
 31
0.000000000
  0
LINE
  5
AE5
330
A02
100
AcDbEntity
  8
S05_Chassis_Top
100
AcDbLine
 10
116.747744519
 20
243.344335744
 30
0.000000000
 11
115.751478043
 21
243.148235917
 31
0.000000000
  0
LINE
  5
AE6
330
A02
100
AcDbEntity
  8
S05_Chassis_Top
100
AcDbLine
 10
123.849500489
 20
244.677735525
 30
0.000000000
 11
116.747744519
 21
243.344335744
 31
0.000000000
  0
LINE
  5
AE7
330
A02
100
AcDbEntity
  8
S05_Chassis_Top
100
AcDbLine
 10
125.262376608
 20
244.923763650
 30
0.000000000
 11
123.849500489
 21
244.677735525
 31
0.000000000
  0
LINE
  5
AE8
330
A02
100
AcDbEntity
  8
S05_Chassis_Top
100
AcDbLine
 10
125.262376608
 20
244.923763650
 30
0.000000000
 11
128.740441213
 21
245.443422591
 31
0.000000000
  0
LINE
  5
AE9
330
A02
100
AcDbEntity
  8
S05_Chassis_Top
100
AcDbLine
 10
131.585003967
 20
245.789579981
 30
0.000000000
 11
128.740441213
 21
245.443422591
 31
0.000000000
  0
LINE
  5
AEA
330
A02
100
AcDbEntity
  8
S05_Chassis_Top
100
AcDbLine
 10
131.585003967
 20
245.789579981
 30
0.000000000
 11
133.862025481
 21
246.045685297
 31
0.000000000
  0
LINE
  5
AEB
330
A02
100
AcDbEntity
  8
S05_Chassis_Top
100
AcDbLine
 10
138.050586249
 20
246.403509599
 30
0.000000000
 11
136.950597095
 21
246.318568520
 31
0.000000000
  0
LINE
  5
AEC
330
A02
100
AcDbEntity
  8
S05_Chassis_Top
100
AcDbLine
 10
138.050586249
 20
246.403509599
 30
0.000000000
 11
140.903393220
 21
246.587978416
 31
0.000000000
  0
LINE
  5
AED
330
A02
100
AcDbEntity
  8
S05_Chassis_Top
100
AcDbLine
 10
177.178286409
 20
213.019584273
 30
0.000000000
 11
183.741973202
 21
213.260007100
 31
0.000000000
  0
LINE
  5
AEE
330
A02
100
AcDbEntity
  8
S05_Chassis_Top
100
AcDbLine
 10
187.504752010
 20
213.604565551
 30
0.000000000
 11
183.741973202
 21
213.260007100
 31
0.000000000
  0
LINE
  5
AEF
330
A02
100
AcDbEntity
  8
S05_Chassis_Top
100
AcDbLine
 10
188.455193450
 20
213.726357422
 30
0.000000000
 11
187.504752010
 21
213.604565551
 31
0.000000000
  0
LINE
  5
AF0
330
A02
100
AcDbEntity
  8
S05_Chassis_Top
100
AcDbLine
 10
190.888690371
 20
214.135891840
 30
0.000000000
 11
188.455193450
 21
213.726357422
 31
0.000000000
  0
LINE
  5
AF1
330
A02
100
AcDbEntity
  8
S05_Chassis_Top
100
AcDbLine
 10
176.975793260
 20
247.001747760
 30
0.000000000
 11
173.330385352
 21
247.038617011
 31
0.000000000
  0
LINE
  5
AF2
330
A02
100
AcDbEntity
  8
S05_Chassis_Top
100
AcDbLine
 10
176.975793260
 20
247.001747760
 30
0.000000000
 11
179.926241832
 21
246.926503213
 31
0.000000000
  0
LINE
  5
AF3
330
A02
100
AcDbEntity
  8
S05_Chassis_Top
100
AcDbLine
 10
170.616666988
 20
247.051980985
 30
0.000000000
 11
173.330385352
 21
247.038617011
 31
0.000000000
  0
LINE
  5
AF4
330
A02
100
AcDbEntity
  8
S05_Chassis_Top
100
AcDbLine
 10
168.397097481
 20
247.050928710
 30
0.000000000
 11
170.616666988
 21
247.051980985
 31
0.000000000
  0
LINE
  5
AF5
330
A02
100
AcDbEntity
  8
S05_Chassis_Top
100
AcDbLine
 10
168.397097481
 20
247.050928710
 30
0.000000000
 11
167.624425026
 21
247.049400851
 31
0.000000000
  0
LINE
  5
AF6
330
A02
100
AcDbEntity
  8
S05_Chassis_Top
100
AcDbLine
 10
182.025704727
 20
246.837090682
 30
0.000000000
 11
179.926241832
 21
246.926503213
 31
0.000000000
  0
LINE
  5
AF7
330
A02
100
AcDbEntity
  8
S05_Chassis_Top
100
AcDbLine
 10
192.695705410
 20
245.465994308
 30
0.000000000
 11
194.786149165
 21
244.947744431
 31
0.000000000
  0
LINE
  5
AF8
330
A02
100
AcDbEntity
  8
S05_Chassis_Top
100
AcDbLine
 10
195.277521372
 20
244.797430549
 30
0.000000000
 11
197.500000000
 21
243.987247975
 31
0.000000000
  0
LINE
  5
AF9
330
A02
100
AcDbEntity
  8
S05_Chassis_Top
100
AcDbLine
 10
195.277521372
 20
244.797430549
 30
0.000000000
 11
194.786149165
 21
244.947744431
 31
0.000000000
  0
LINE
  5
AFA
330
A02
100
AcDbEntity
  8
S05_Chassis_Top
100
AcDbLine
 10
98.844790622
 20
219.695246819
 30
0.000000000
 11
101.697651356
 21
219.426463566
 31
0.000000000
  0
LINE
  5
AFB
330
A02
100
AcDbEntity
  8
S05_Chassis_Top
100
AcDbLine
 10
98.335940911
 20
219.724293429
 30
0.000000000
 11
98.844790622
 21
219.695246819
 31
0.000000000
  0
LINE
  5
AFC
330
A02
100
AcDbEntity
  8
S05_Chassis_Top
100
AcDbLine
 10
98.335940911
 20
219.724293429
 30
0.000000000
 11
97.129488603
 21
219.766293613
 31
0.000000000
  0
LINE
  5
AFD
330
A02
100
AcDbEntity
  8
S05_Chassis_Top
100
AcDbLine
 10
136.049608861
 20
213.752818431
 30
0.000000000
 11
135.756619022
 21
213.777886456
 31
0.000000000
  0
LINE
  5
AFE
330
A02
100
AcDbEntity
  8
S05_Chassis_Top
100
AcDbLine
 10
136.263730348
 20
213.733985576
 30
0.000000000
 11
136.049608861
 21
213.752818431
 31
0.000000000
  0
LINE
  5
AFF
330
A02
100
AcDbEntity
  8
S05_Chassis_Top
100
AcDbLine
 10
136.263730348
 20
213.733985576
 30
0.000000000
 11
140.754173584
 21
213.437147148
 31
0.000000000
  0
LINE
  5
B00
330
A02
100
AcDbEntity
  8
S05_Chassis_Top
100
AcDbLine
 10
106.643448796
 20
241.307839347
 30
0.000000000
 11
103.634490355
 21
240.804710529
 31
0.000000000
  0
LINE
  5
B01
330
A02
100
AcDbEntity
  8
S05_Chassis_Top
100
AcDbLine
 10
106.643448796
 20
241.307839347
 30
0.000000000
 11
106.903002878
 21
241.358914240
 31
0.000000000
  0
LINE
  5
B02
330
A02
100
AcDbEntity
  8
S05_Chassis_Top
100
AcDbLine
 10
143.002739934
 20
213.296048834
 30
0.000000000
 11
142.050959010
 21
213.339293207
 31
0.000000000
  0
LINE
  5
B03
330
A02
100
AcDbEntity
  8
S05_Chassis_Top
100
AcDbLine
 10
143.002739934
 20
213.296048834
 30
0.000000000
 11
145.404839999
 21
213.236000786
 31
0.000000000
  0
LINE
  5
B04
330
A02
100
AcDbEntity
  8
S05_Chassis_Top
100
AcDbLine
 10
153.417998660
 20
213.057479959
 30
0.000000000
 11
155.904953915
 21
213.003939594
 31
0.000000000
  0
LINE
  5
B05
330
A02
100
AcDbEntity
  8
S05_Chassis_Top
100
AcDbLine
 10
171.411724917
 20
212.952639802
 30
0.000000000
 11
176.532164038
 21
213.007253299
 31
0.000000000
  0
LINE
  5
B06
330
A02
100
AcDbEntity
  8
S05_Chassis_Top
100
AcDbLine
 10
176.806805205
 20
213.012941497
 30
0.000000000
 11
176.532164038
 21
213.007253299
 31
0.000000000
  0
LINE
  5
B07
330
A02
100
AcDbEntity
  8
S05_Chassis_Top
100
AcDbLine
 10
176.806805205
 20
213.012941497
 30
0.000000000
 11
177.178286409
 21
213.019584273
 31
0.000000000
  0
LINE
  5
B08
330
A02
100
AcDbEntity
  8
S05_Chassis_Top
100
AcDbLine
 10
147.467802705
 20
246.853545427
 30
0.000000000
 11
140.903393220
 21
246.587978416
 31
0.000000000
  0
LINE
  5
B09
330
A02
100
AcDbEntity
  8
S05_Chassis_Top
100
AcDbLine
 10
148.442192270
 20
246.879293050
 30
0.000000000
 11
147.467802705
 21
246.853545427
 31
0.000000000
  0
LINE
  5
B0A
330
A02
100
AcDbEntity
  8
S05_Chassis_Top
100
AcDbLine
 10
153.453180564
 20
246.966212593
 30
0.000000000
 11
152.132137962
 21
246.949193632
 31
0.000000000
  0
LINE
  5
B0B
330
A02
100
AcDbEntity
  8
S05_Chassis_Top
100
AcDbLine
 10
192.726580519
 20
214.489624482
 30
0.000000000
 11
193.119030276
 21
214.582850514
 31
0.000000000
  0
LINE
  5
B0C
330
A02
100
AcDbEntity
  8
S05_Chassis_Top
100
AcDbLine
 10
192.726580519
 20
214.489624482
 30
0.000000000
 11
190.888690371
 21
214.135891840
 31
0.000000000
  0
LINE
  5
B0D
330
A02
100
AcDbEntity
  8
S05_Chassis_Top
100
AcDbLine
 10
193.569144627
 20
214.694275539
 30
0.000000000
 11
194.225049978
 21
214.870016139
 31
0.000000000
  0
LINE
  5
B0E
330
A02
100
AcDbEntity
  8
S05_Chassis_Top
100
AcDbLine
 10
194.548995199
 20
214.963699720
 30
0.000000000
 11
197.500000000
 21
215.962996772
 31
0.000000000
  0
LINE
  5
B0F
330
A02
100
AcDbEntity
  8
S05_Chassis_Top
100
AcDbLine
 10
194.548995199
 20
214.963699720
 30
0.000000000
 11
194.225049978
 21
214.870016139
 31
0.000000000
  0
LINE
  5
B10
330
A02
100
AcDbEntity
  8
S05_Chassis_Top
100
AcDbLine
 10
185.173048352
 20
246.624200126
 30
0.000000000
 11
182.542975433
 21
246.809379478
 31
0.000000000
  0
LINE
  5
B11
330
A02
100
AcDbEntity
  8
S05_Chassis_Top
100
AcDbLine
 10
186.459605099
 20
246.502349396
 30
0.000000000
 11
185.173048352
 21
246.624200126
 31
0.000000000
  0
LINE
  5
B12
330
A02
100
AcDbEntity
  8
S05_Chassis_Top
100
AcDbLine
 10
187.693762497
 20
246.361159980
 30
0.000000000
 11
186.459605099
 21
246.502349396
 31
0.000000000
  0
LINE
  5
B13
330
A02
100
AcDbEntity
  8
S05_Chassis_Top
100
AcDbLine
 10
188.822717129
 20
246.213421155
 30
0.000000000
 11
187.693762497
 21
246.361159980
 31
0.000000000
  0
LINE
  5
B14
330
A02
100
AcDbEntity
  8
S05_Chassis_Top
100
AcDbLine
 10
190.314686407
 20
245.975327224
 30
0.000000000
 11
192.432531631
 21
245.559528386
 31
0.000000000
  0
LINE
  5
B15
330
A02
100
AcDbEntity
  8
S05_Chassis_Top
100
AcDbLine
 10
190.314686407
 20
245.975327224
 30
0.000000000
 11
188.822717129
 21
246.213421155
 31
0.000000000
  0
LINE
  5
B16
330
A02
100
AcDbEntity
  8
S05_Chassis_Top
100
AcDbLine
 10
161.227666845
 20
213.012988708
 30
0.000000000
 11
166.062468492
 21
212.994836869
 31
0.000000000
  0
LINE
  5
B17
330
A02
100
AcDbEntity
  8
S05_Chassis_Top
100
AcDbLine
 10
161.227666845
 20
213.012988708
 30
0.000000000
 11
155.904953915
 21
213.003939594
 31
0.000000000
  0
LINE
  5
B18
330
A02
100
AcDbEntity
  8
S05_Chassis_Top
100
AcDbLine
 10
170.966352417
 20
212.952076115
 30
0.000000000
 11
169.736155099
 21
212.947873758
 31
0.000000000
  0
LINE
  5
B19
330
A02
100
AcDbEntity
  8
S05_Chassis_Top
100
AcDbLine
 10
170.966352417
 20
212.952076115
 30
0.000000000
 11
171.411724917
 21
212.952639802
 31
0.000000000
  0
LINE
  5
B1A
330
A02
100
AcDbEntity
  8
S05_Chassis_Top
100
AcDbLine
 10
156.831416060
 20
246.995690379
 30
0.000000000
 11
153.453180564
 21
246.966212593
 31
0.000000000
  0
LINE
  5
B1B
330
A02
100
AcDbEntity
  8
S05_Chassis_Top
100
AcDbLine
 10
157.931336528
 20
247.001601521
 30
0.000000000
 11
156.831416060
 21
246.995690379
 31
0.000000000
  0
LINE
  5
B1C
330
A02
100
AcDbEntity
  8
S05_Chassis_Top
100
AcDbLine
 10
158.831995109
 20
247.007077969
 30
0.000000000
 11
162.458915590
 21
247.031263754
 31
0.000000000
  0
LINE
  5
B1D
330
A02
100
AcDbEntity
  8
S05_Chassis_Top
100
AcDbLine
 10
158.831995109
 20
247.007077969
 30
0.000000000
 11
157.931336528
 21
247.001601521
 31
0.000000000
  0
LINE
  5
B1E
330
A02
100
AcDbEntity
  8
S05_Chassis_Top
100
AcDbLine
 10
150.756863921
 20
246.926369612
 30
0.000000000
 11
148.442192270
 21
246.879293050
 31
0.000000000
  0
LINE
  5
B1F
330
A02
100
AcDbEntity
  8
S05_Chassis_Top
100
AcDbLine
 10
150.926779351
 20
246.929485836
 30
0.000000000
 11
150.756863921
 21
246.926369612
 31
0.000000000
  0
LINE
  5
B20
330
A02
100
AcDbEntity
  8
S05_Chassis_Top
100
AcDbLine
 10
151.066764719
 20
246.932120202
 30
0.000000000
 11
152.132137962
 21
246.949193632
 31
0.000000000
  0
LINE
  5
B21
330
A02
100
AcDbEntity
  8
S05_Chassis_Top
100
AcDbLine
 10
151.066764719
 20
246.932120202
 30
0.000000000
 11
150.926779351
 21
246.929485836
 31
0.000000000
  0
LINE
  5
B22
330
A02
100
AcDbEntity
  8
S05_Chassis_Top
100
AcDbLine
 10
194.786149165
 20
244.917799095
 30
0.000000000
 11
197.500000000
 21
243.987247975
 31
0.000000000
  0
LINE
  5
B23
330
A02
100
AcDbEntity
  8
S05_Chassis_Top
100
AcDbLine
 10
192.028263358
 20
245.608266444
 30
0.000000000
 11
194.786149165
 21
244.917799095
 31
0.000000000
  0
LINE
  5
B24
330
A02
100
AcDbEntity
  8
S05_Chassis_Top
100
AcDbLine
 10
187.742178522
 20
246.307392315
 30
0.000000000
 11
192.028263358
 21
245.608266444
 31
0.000000000
  0
LINE
  5
B25
330
A02
100
AcDbEntity
  8
S05_Chassis_Top
100
AcDbLine
 10
182.664591555
 20
246.741895589
 30
0.000000000
 11
187.742178522
 21
246.307392315
 31
0.000000000
  0
LINE
  5
B26
330
A02
100
AcDbEntity
  8
S05_Chassis_Top
100
AcDbLine
 10
176.253525754
 20
246.949595966
 30
0.000000000
 11
182.664591555
 21
246.741895589
 31
0.000000000
  0
LINE
  5
B27
330
A02
100
AcDbEntity
  8
S05_Chassis_Top
100
AcDbLine
 10
158.087710270
 20
246.948625621
 30
0.000000000
 11
176.253525754
 21
246.949595966
 31
0.000000000
  0
LINE
  5
B28
330
A02
100
AcDbEntity
  8
S05_Chassis_Top
100
AcDbLine
 10
147.687556038
 20
246.807525154
 30
0.000000000
 11
158.087710270
 21
246.948625621
 31
0.000000000
  0
LINE
  5
B29
330
A02
100
AcDbEntity
  8
S05_Chassis_Top
100
AcDbLine
 10
139.485302619
 20
246.455393137
 30
0.000000000
 11
147.687556038
 21
246.807525154
 31
0.000000000
  0
LINE
  5
B2A
330
A02
100
AcDbEntity
  8
S05_Chassis_Top
100
AcDbLine
 10
131.968188719
 20
245.801885040
 30
0.000000000
 11
139.485302619
 21
246.455393137
 31
0.000000000
  0
LINE
  5
B2B
330
A02
100
AcDbEntity
  8
S05_Chassis_Top
100
AcDbLine
 10
116.042277345
 20
243.193637115
 30
0.000000000
 11
124.876202642
 21
244.830675566
 31
0.000000000
  0
LINE
  5
B2C
330
A02
100
AcDbEntity
  8
S05_Chassis_Top
100
AcDbLine
 10
106.672493732
 20
241.312639188
 30
0.000000000
 11
116.042277345
 21
243.193637115
 31
0.000000000
  0
LINE
  5
B2D
330
A02
100
AcDbEntity
  8
S05_Chassis_Top
100
AcDbLine
 10
103.634490355
 20
240.804710529
 30
0.000000000
 11
106.672493732
 21
241.312639188
 31
0.000000000
  0
LINE
  5
B2E
330
A02
100
AcDbEntity
  8
S05_Chassis_Side
100
AcDbLine
 10
95.000000000
 20
144.849787372
 30
0.000000000
 11
95.000000000
 21
144.742276119
 31
0.000000000
  0
LINE
  5
B2F
330
A02
100
AcDbEntity
  8
S05_Chassis_Side
100
AcDbLine
 10
95.000000000
 20
145.163803559
 30
0.000000000
 11
95.000000000
 21
144.849787372
 31
0.000000000
  0
LINE
  5
B30
330
A02
100
AcDbEntity
  8
S05_Chassis_Side
100
AcDbLine
 10
95.000000000
 20
145.570914492
 30
0.000000000
 11
95.000000000
 21
145.163803559
 31
0.000000000
  0
LINE
  5
B31
330
A02
100
AcDbEntity
  8
S05_Chassis_Side
100
AcDbLine
 10
95.000000000
 20
146.021320930
 30
0.000000000
 11
95.000000000
 21
145.570914492
 31
0.000000000
  0
LINE
  5
B32
330
A02
100
AcDbEntity
  8
S05_Chassis_Side
100
AcDbLine
 10
95.000000000
 20
146.620966587
 30
0.000000000
 11
95.000000000
 21
146.021320930
 31
0.000000000
  0
LINE
  5
B33
330
A02
100
AcDbEntity
  8
S05_Chassis_Side
100
AcDbLine
 10
95.000000000
 20
147.374476458
 30
0.000000000
 11
95.000000000
 21
146.620966587
 31
0.000000000
  0
LINE
  5
B34
330
A02
100
AcDbEntity
  8
S05_Chassis_Side
100
AcDbLine
 10
95.000000000
 20
148.330277384
 30
0.000000000
 11
95.000000000
 21
147.374476458
 31
0.000000000
  0
LINE
  5
B35
330
A02
100
AcDbEntity
  8
S05_Chassis_Side
100
AcDbLine
 10
95.000000000
 20
149.185762784
 30
0.000000000
 11
95.000000000
 21
148.330277384
 31
0.000000000
  0
LINE
  5
B36
330
A02
100
AcDbEntity
  8
S05_Chassis_Side
100
AcDbLine
 10
95.000000000
 20
150.763721058
 30
0.000000000
 11
95.000000000
 21
149.185762784
 31
0.000000000
  0
LINE
  5
B37
330
A02
100
AcDbEntity
  8
S05_Chassis_Side
100
AcDbLine
 10
95.000000000
 20
152.983213683
 30
0.000000000
 11
95.000000000
 21
150.763721058
 31
0.000000000
  0
LINE
  5
B38
330
A02
100
AcDbEntity
  8
S05_Chassis_Side
100
AcDbLine
 10
95.000000000
 20
154.301205596
 30
0.000000000
 11
95.000000000
 21
152.983213683
 31
0.000000000
  0
LINE
  5
B39
330
A02
100
AcDbEntity
  8
S05_Chassis_Side
100
AcDbLine
 10
95.000000000
 20
155.343177329
 30
0.000000000
 11
95.000000000
 21
154.301205596
 31
0.000000000
  0
LINE
  5
B3A
330
A02
100
AcDbEntity
  8
S05_Chassis_Side
100
AcDbLine
 10
95.000000000
 20
156.331445178
 30
0.000000000
 11
95.000000000
 21
155.343177329
 31
0.000000000
  0
LINE
  5
B3B
330
A02
100
AcDbEntity
  8
S05_Chassis_Side
100
AcDbLine
 10
95.000000000
 20
157.209635830
 30
0.000000000
 11
95.000000000
 21
156.331445178
 31
0.000000000
  0
LINE
  5
B3C
330
A02
100
AcDbEntity
  8
S05_Chassis_Side
100
AcDbLine
 10
95.000000000
 20
157.979122243
 30
0.000000000
 11
95.000000000
 21
157.209635830
 31
0.000000000
  0
LINE
  5
B3D
330
A02
100
AcDbEntity
  8
S05_Chassis_Side
100
AcDbLine
 10
95.000000000
 20
158.380105719
 30
0.000000000
 11
95.000000000
 21
157.979122243
 31
0.000000000
  0
LINE
  5
B3E
330
A02
100
AcDbEntity
  8
S05_Chassis_Side
100
AcDbLine
 10
95.000000000
 20
158.715247489
 30
0.000000000
 11
95.000000000
 21
158.380105719
 31
0.000000000
  0
LINE
  5
B3F
330
A02
100
AcDbEntity
  8
S05_Chassis_Side
100
AcDbLine
 10
95.000000000
 20
159.196810712
 30
0.000000000
 11
95.000000000
 21
158.715247489
 31
0.000000000
  0
LINE
  5
B40
330
A02
100
AcDbEntity
  8
S05_Chassis_Side
100
AcDbLine
 10
95.000000000
 20
159.434878163
 30
0.000000000
 11
95.000000000
 21
159.196810712
 31
0.000000000
  0
LINE
  5
B41
330
A02
100
AcDbEntity
  8
S05_Chassis_Side
100
AcDbLine
 10
95.000000000
 20
159.491618556
 30
0.000000000
 11
95.000000000
 21
159.434878163
 31
0.000000000
  0
LINE
  5
B42
330
A02
100
AcDbEntity
  8
S05_Chassis_Side
100
AcDbLine
 10
42.500000000
 20
139.760138787
 30
0.000000000
 11
42.500000000
 21
139.741887671
 31
0.000000000
  0
LINE
  5
B43
330
A02
100
AcDbEntity
  8
S05_Chassis_Side
100
AcDbLine
 10
42.500000000
 20
139.846538240
 30
0.000000000
 11
42.500000000
 21
139.760138787
 31
0.000000000
  0
LINE
  5
B44
330
A02
100
AcDbEntity
  8
S05_Chassis_Side
100
AcDbLine
 10
42.500000000
 20
139.973769915
 30
0.000000000
 11
42.500000000
 21
139.846538240
 31
0.000000000
  0
LINE
  5
B45
330
A02
100
AcDbEntity
  8
S05_Chassis_Side
100
AcDbLine
 10
42.500000000
 20
140.164512073
 30
0.000000000
 11
42.500000000
 21
139.973769915
 31
0.000000000
  0
LINE
  5
B46
330
A02
100
AcDbEntity
  8
S05_Chassis_Side
100
AcDbLine
 10
42.500000000
 20
140.422269322
 30
0.000000000
 11
42.500000000
 21
140.164512073
 31
0.000000000
  0
LINE
  5
B47
330
A02
100
AcDbEntity
  8
S05_Chassis_Side
100
AcDbLine
 10
42.500000000
 20
140.741009250
 30
0.000000000
 11
42.500000000
 21
140.422269322
 31
0.000000000
  0
LINE
  5
B48
330
A02
100
AcDbEntity
  8
S05_Chassis_Side
100
AcDbLine
 10
42.500000000
 20
141.146241835
 30
0.000000000
 11
42.500000000
 21
140.741009250
 31
0.000000000
  0
LINE
  5
B49
330
A02
100
AcDbEntity
  8
S05_Chassis_Side
100
AcDbLine
 10
42.500000000
 20
141.609068038
 30
0.000000000
 11
42.500000000
 21
141.146241835
 31
0.000000000
  0
LINE
  5
B4A
330
A02
100
AcDbEntity
  8
S05_Chassis_Side
100
AcDbLine
 10
42.500000000
 20
142.213833698
 30
0.000000000
 11
42.500000000
 21
141.609068038
 31
0.000000000
  0
LINE
  5
B4B
330
A02
100
AcDbEntity
  8
S05_Chassis_Side
100
AcDbLine
 10
42.500000000
 20
142.607306645
 30
0.000000000
 11
42.500000000
 21
142.213833698
 31
0.000000000
  0
LINE
  5
B4C
330
A02
100
AcDbEntity
  8
S05_Chassis_Side
100
AcDbLine
 10
42.500000000
 20
142.977924723
 30
0.000000000
 11
42.500000000
 21
142.607306645
 31
0.000000000
  0
LINE
  5
B4D
330
A02
100
AcDbEntity
  8
S05_Chassis_Side
100
AcDbLine
 10
42.500000000
 20
143.303678017
 30
0.000000000
 11
42.500000000
 21
142.977924723
 31
0.000000000
  0
LINE
  5
B4E
330
A02
100
AcDbEntity
  8
S05_Chassis_Side
100
AcDbLine
 10
42.500000000
 20
143.591806702
 30
0.000000000
 11
42.500000000
 21
143.303678017
 31
0.000000000
  0
LINE
  5
B4F
330
A02
100
AcDbEntity
  8
S05_Chassis_Side
100
AcDbLine
 10
42.500000000
 20
143.825544068
 30
0.000000000
 11
42.500000000
 21
143.591806702
 31
0.000000000
  0
LINE
  5
B50
330
A02
100
AcDbEntity
  8
S05_Chassis_Side
100
AcDbLine
 10
42.500000000
 20
143.964279338
 30
0.000000000
 11
42.500000000
 21
143.825544068
 31
0.000000000
  0
LINE
  5
B51
330
A02
100
AcDbEntity
  8
S05_Chassis_Side
100
AcDbLine
 10
42.500000000
 20
143.991714132
 30
0.000000000
 11
42.500000000
 21
143.964279338
 31
0.000000000
  0
LINE
  5
B52
330
A02
100
AcDbEntity
  8
S05_Chassis_Side
100
AcDbLine
 10
138.139216991
 20
163.725227267
 30
0.000000000
 11
136.000000000
 21
163.849396448
 31
0.000000000
  0
LINE
  5
B53
330
A02
100
AcDbEntity
  8
S05_Chassis_Side
100
AcDbLine
 10
140.335745567
 20
163.553047777
 30
0.000000000
 11
138.139216991
 21
163.725227267
 31
0.000000000
  0
LINE
  5
B54
330
A02
100
AcDbEntity
  8
S05_Chassis_Side
100
AcDbLine
 10
143.749965187
 20
163.231244726
 30
0.000000000
 11
140.335745567
 21
163.553047777
 31
0.000000000
  0
LINE
  5
B55
330
A02
100
AcDbEntity
  8
S05_Chassis_Side
100
AcDbLine
 10
147.585287812
 20
162.863716055
 30
0.000000000
 11
143.749965187
 21
163.231244726
 31
0.000000000
  0
LINE
  5
B56
330
A02
100
AcDbEntity
  8
S05_Chassis_Side
100
AcDbLine
 10
151.351468156
 20
162.585915571
 30
0.000000000
 11
147.585287812
 21
162.863716055
 31
0.000000000
  0
LINE
  5
B57
330
A02
100
AcDbEntity
  8
S05_Chassis_Side
100
AcDbLine
 10
155.064659019
 20
162.469325268
 30
0.000000000
 11
151.351468156
 21
162.585915571
 31
0.000000000
  0
LINE
  5
B58
330
A02
100
AcDbEntity
  8
S05_Chassis_Side
100
AcDbLine
 10
158.449549793
 20
162.532030734
 30
0.000000000
 11
155.064659019
 21
162.469325268
 31
0.000000000
  0
LINE
  5
B59
330
A02
100
AcDbEntity
  8
S05_Chassis_Side
100
AcDbLine
 10
161.938741933
 20
162.753841150
 30
0.000000000
 11
158.449549793
 21
162.532030734
 31
0.000000000
  0
LINE
  5
B5A
330
A02
100
AcDbEntity
  8
S05_Chassis_Side
100
AcDbLine
 10
165.484283304
 20
163.090243428
 30
0.000000000
 11
161.938741933
 21
162.753841150
 31
0.000000000
  0
LINE
  5
B5B
330
A02
100
AcDbEntity
  8
S05_Chassis_Side
100
AcDbLine
 10
169.303066720
 20
163.491052143
 30
0.000000000
 11
165.484283304
 21
163.090243428
 31
0.000000000
  0
LINE
  5
B5C
330
A02
100
AcDbEntity
  8
S05_Chassis_Side
100
AcDbLine
 10
173.000000000
 20
163.827636637
 30
0.000000000
 11
169.303066720
 21
163.491052143
 31
0.000000000
  0
LINE
  5
B5D
330
A02
100
AcDbEntity
  8
S05_Chassis_Side
100
AcDbLine
 10
136.000000000
 20
164.101609941
 30
0.000000000
 11
136.000000000
 21
164.160306354
 31
0.000000000
  0
LINE
  5
B5E
330
A02
100
AcDbEntity
  8
S05_Chassis_Side
100
AcDbLine
 10
136.000000000
 20
163.849396448
 30
0.000000000
 11
136.000000000
 21
164.101609941
 31
0.000000000
  0
LINE
  5
B5F
330
A02
100
AcDbEntity
  8
S05_Chassis_Side
100
AcDbLine
 10
170.781284456
 20
163.635427119
 30
0.000000000
 11
172.785295846
 21
163.808089060
 31
0.000000000
  0
LINE
  5
B60
330
A02
100
AcDbEntity
  8
S05_Chassis_Side
100
AcDbLine
 10
168.514178892
 20
163.408658337
 30
0.000000000
 11
168.596431997
 21
163.416885760
 31
0.000000000
  0
LINE
  5
B61
330
A02
100
AcDbEntity
  8
S05_Chassis_Side
100
AcDbLine
 10
169.691062748
 20
163.526376948
 30
0.000000000
 11
170.781284456
 21
163.635427119
 31
0.000000000
  0
LINE
  5
B62
330
A02
100
AcDbEntity
  8
S05_Chassis_Side
100
AcDbLine
 10
165.376779295
 20
163.080043408
 30
0.000000000
 11
168.514178892
 21
163.408658337
 31
0.000000000
  0
LINE
  5
B63
330
A02
100
AcDbEntity
  8
S05_Chassis_Side
100
AcDbLine
 10
161.491455825
 20
162.725406855
 30
0.000000000
 11
163.607825063
 21
162.912204375
 31
0.000000000
  0
LINE
  5
B64
330
A02
100
AcDbEntity
  8
S05_Chassis_Side
100
AcDbLine
 10
157.803533251
 20
162.520063208
 30
0.000000000
 11
159.828119809
 21
162.619667407
 31
0.000000000
  0
LINE
  5
B65
330
A02
100
AcDbEntity
  8
S05_Chassis_Side
100
AcDbLine
 10
154.468546478
 20
162.488042577
 30
0.000000000
 11
156.090286850
 21
162.488325134
 31
0.000000000
  0
LINE
  5
B66
330
A02
100
AcDbEntity
  8
S05_Chassis_Side
100
AcDbLine
 10
150.820641909
 20
162.625070304
 30
0.000000000
 11
152.343607617
 21
162.554763431
 31
0.000000000
  0
LINE
  5
B67
330
A02
100
AcDbEntity
  8
S05_Chassis_Side
100
AcDbLine
 10
147.110090693
 20
162.909252919
 30
0.000000000
 11
148.510443962
 21
162.795474813
 31
0.000000000
  0
LINE
  5
B68
330
A02
100
AcDbEntity
  8
S05_Chassis_Side
100
AcDbLine
 10
143.294591360
 20
163.275186446
 30
0.000000000
 11
143.636985400
 21
163.241893496
 31
0.000000000
  0
LINE
  5
B69
330
A02
100
AcDbEntity
  8
S05_Chassis_Side
100
AcDbLine
 10
139.574245899
 20
163.616051027
 30
0.000000000
 11
139.824460389
 21
163.593125936
 31
0.000000000
  0
LINE
  5
B6A
330
A02
100
AcDbEntity
  8
S05_Chassis_Side
100
AcDbLine
 10
142.906666109
 20
163.310728839
 30
0.000000000
 11
143.294591360
 21
163.275186446
 31
0.000000000
  0
LINE
  5
B6B
330
A02
100
AcDbEntity
  8
S05_Chassis_Side
100
AcDbLine
 10
139.325696903
 20
163.632222556
 30
0.000000000
 11
139.574245899
 21
163.616051027
 31
0.000000000
  0
LINE
  5
B6C
330
A02
100
AcDbEntity
  8
S05_Chassis_Side
100
AcDbLine
 10
173.000000000
 20
164.238671386
 30
0.000000000
 11
173.000426041
 21
164.282037244
 31
0.000000000
  0
LINE
  5
B6D
330
A02
100
AcDbEntity
  8
S05_Chassis_Side
100
AcDbLine
 10
173.000000000
 20
164.130980260
 30
0.000000000
 11
173.000000000
 21
164.238671386
 31
0.000000000
  0
LINE
  5
B6E
330
A02
100
AcDbEntity
  8
S05_Chassis_Side
100
AcDbLine
 10
173.000000000
 20
163.827636637
 30
0.000000000
 11
173.000000000
 21
164.130980260
 31
0.000000000
  0
LINE
  5
B6F
330
A02
100
AcDbEntity
  8
S05_Chassis_Side
100
AcDbLine
 10
95.000000000
 20
144.742276119
 30
0.000000000
 11
95.000000000
 21
144.742275652
 31
0.000000000
  0
LINE
  5
B70
330
A02
100
AcDbEntity
  8
S05_Chassis_Side
100
AcDbLine
 10
95.000000000
 20
145.163803559
 30
0.000000000
 11
95.000000000
 21
144.849787372
 31
0.000000000
  0
LINE
  5
B71
330
A02
100
AcDbEntity
  8
S05_Chassis_Side
100
AcDbLine
 10
95.000000000
 20
145.570914492
 30
0.000000000
 11
95.000000000
 21
145.163803559
 31
0.000000000
  0
LINE
  5
B72
330
A02
100
AcDbEntity
  8
S05_Chassis_Side
100
AcDbLine
 10
95.000000000
 20
146.021320929
 30
0.000000000
 11
95.000000000
 21
145.570914492
 31
0.000000000
  0
LINE
  5
B73
330
A02
100
AcDbEntity
  8
S05_Chassis_Side
100
AcDbLine
 10
95.000000000
 20
146.620966587
 30
0.000000000
 11
95.000000000
 21
146.021320929
 31
0.000000000
  0
LINE
  5
B74
330
A02
100
AcDbEntity
  8
S05_Chassis_Side
100
AcDbLine
 10
95.000000000
 20
147.374476458
 30
0.000000000
 11
95.000000000
 21
146.620966587
 31
0.000000000
  0
LINE
  5
B75
330
A02
100
AcDbEntity
  8
S05_Chassis_Side
100
AcDbLine
 10
95.000000000
 20
148.330277384
 30
0.000000000
 11
95.000000000
 21
147.374476458
 31
0.000000000
  0
LINE
  5
B76
330
A02
100
AcDbEntity
  8
S05_Chassis_Side
100
AcDbLine
 10
95.000000000
 20
149.185762784
 30
0.000000000
 11
95.000000000
 21
148.330277384
 31
0.000000000
  0
LINE
  5
B77
330
A02
100
AcDbEntity
  8
S05_Chassis_Side
100
AcDbLine
 10
95.000000000
 20
150.763721058
 30
0.000000000
 11
95.000000000
 21
149.185762784
 31
0.000000000
  0
LINE
  5
B78
330
A02
100
AcDbEntity
  8
S05_Chassis_Side
100
AcDbLine
 10
95.000000000
 20
152.983213683
 30
0.000000000
 11
95.000000000
 21
150.763721058
 31
0.000000000
  0
LINE
  5
B79
330
A02
100
AcDbEntity
  8
S05_Chassis_Side
100
AcDbLine
 10
95.000000000
 20
154.301205596
 30
0.000000000
 11
95.000000000
 21
152.983213683
 31
0.000000000
  0
LINE
  5
B7A
330
A02
100
AcDbEntity
  8
S05_Chassis_Side
100
AcDbLine
 10
95.000000000
 20
155.343177329
 30
0.000000000
 11
95.000000000
 21
154.301205596
 31
0.000000000
  0
LINE
  5
B7B
330
A02
100
AcDbEntity
  8
S05_Chassis_Side
100
AcDbLine
 10
95.000000000
 20
156.331445178
 30
0.000000000
 11
95.000000000
 21
155.343177329
 31
0.000000000
  0
LINE
  5
B7C
330
A02
100
AcDbEntity
  8
S05_Chassis_Side
100
AcDbLine
 10
95.000000000
 20
157.209635830
 30
0.000000000
 11
95.000000000
 21
156.331445178
 31
0.000000000
  0
LINE
  5
B7D
330
A02
100
AcDbEntity
  8
S05_Chassis_Side
100
AcDbLine
 10
95.000000000
 20
157.979122243
 30
0.000000000
 11
95.000000000
 21
157.209635830
 31
0.000000000
  0
LINE
  5
B7E
330
A02
100
AcDbEntity
  8
S05_Chassis_Side
100
AcDbLine
 10
95.000000000
 20
158.380105719
 30
0.000000000
 11
95.000000000
 21
157.979122243
 31
0.000000000
  0
LINE
  5
B7F
330
A02
100
AcDbEntity
  8
S05_Chassis_Side
100
AcDbLine
 10
95.000000000
 20
158.715247489
 30
0.000000000
 11
95.000000000
 21
158.380105719
 31
0.000000000
  0
LINE
  5
B80
330
A02
100
AcDbEntity
  8
S05_Chassis_Side
100
AcDbLine
 10
95.000000000
 20
159.196810712
 30
0.000000000
 11
95.000000000
 21
158.715247489
 31
0.000000000
  0
LINE
  5
B81
330
A02
100
AcDbEntity
  8
S05_Chassis_Side
100
AcDbLine
 10
95.000000000
 20
159.434878163
 30
0.000000000
 11
95.000000000
 21
159.196810712
 31
0.000000000
  0
LINE
  5
B82
330
A02
100
AcDbEntity
  8
S05_Chassis_Side
100
AcDbLine
 10
197.500000000
 20
136.744258836
 30
0.000000000
 11
197.500000000
 21
136.742174159
 31
0.000000000
  0
LINE
  5
B83
330
A02
100
AcDbEntity
  8
S05_Chassis_Side
100
AcDbLine
 10
197.500000000
 20
136.860119346
 30
0.000000000
 11
197.500000000
 21
136.744258836
 31
0.000000000
  0
LINE
  5
B84
330
A02
100
AcDbEntity
  8
S05_Chassis_Side
100
AcDbLine
 10
197.500000000
 20
137.182006575
 30
0.000000000
 11
197.500000000
 21
136.860119346
 31
0.000000000
  0
LINE
  5
B85
330
A02
100
AcDbEntity
  8
S05_Chassis_Side
100
AcDbLine
 10
197.500000000
 20
137.690425453
 30
0.000000000
 11
197.500000000
 21
137.182006575
 31
0.000000000
  0
LINE
  5
B86
330
A02
100
AcDbEntity
  8
S05_Chassis_Side
100
AcDbLine
 10
197.500000000
 20
138.228284827
 30
0.000000000
 11
197.500000000
 21
137.690425453
 31
0.000000000
  0
LINE
  5
B87
330
A02
100
AcDbEntity
  8
S05_Chassis_Side
100
AcDbLine
 10
197.500000000
 20
138.774479614
 30
0.000000000
 11
197.500000000
 21
138.228284827
 31
0.000000000
  0
LINE
  5
B88
330
A02
100
AcDbEntity
  8
S05_Chassis_Side
100
AcDbLine
 10
197.500000000
 20
139.462576327
 30
0.000000000
 11
197.500000000
 21
138.774479614
 31
0.000000000
  0
LINE
  5
B89
330
A02
100
AcDbEntity
  8
S05_Chassis_Side
100
AcDbLine
 10
197.500000000
 20
140.385174186
 30
0.000000000
 11
197.500000000
 21
139.462576327
 31
0.000000000
  0
LINE
  5
B8A
330
A02
100
AcDbEntity
  8
S05_Chassis_Side
100
AcDbLine
 10
197.500000000
 20
141.643440559
 30
0.000000000
 11
197.500000000
 21
140.385174186
 31
0.000000000
  0
LINE
  5
B8B
330
A02
100
AcDbEntity
  8
S05_Chassis_Side
100
AcDbLine
 10
197.500000000
 20
143.551720777
 30
0.000000000
 11
197.500000000
 21
141.643440559
 31
0.000000000
  0
LINE
  5
B8C
330
A02
100
AcDbEntity
  8
S05_Chassis_Side
100
AcDbLine
 10
197.500000000
 20
146.753368213
 30
0.000000000
 11
197.500000000
 21
143.551720777
 31
0.000000000
  0
LINE
  5
B8D
330
A02
100
AcDbEntity
  8
S05_Chassis_Side
100
AcDbLine
 10
197.500000000
 20
151.298745296
 30
0.000000000
 11
197.500000000
 21
146.753368213
 31
0.000000000
  0
LINE
  5
B8E
330
A02
100
AcDbEntity
  8
S05_Chassis_Side
100
AcDbLine
 10
197.500000000
 20
153.597982169
 30
0.000000000
 11
197.500000000
 21
151.298745296
 31
0.000000000
  0
LINE
  5
B8F
330
A02
100
AcDbEntity
  8
S05_Chassis_Side
100
AcDbLine
 10
197.500000000
 20
155.428555597
 30
0.000000000
 11
197.500000000
 21
153.597982169
 31
0.000000000
  0
LINE
  5
B90
330
A02
100
AcDbEntity
  8
S05_Chassis_Side
100
AcDbLine
 10
197.500000000
 20
156.722550926
 30
0.000000000
 11
197.500000000
 21
155.428555597
 31
0.000000000
  0
LINE
  5
B91
330
A02
100
AcDbEntity
  8
S05_Chassis_Side
100
AcDbLine
 10
197.500000000
 20
157.892536754
 30
0.000000000
 11
197.500000000
 21
156.722550926
 31
0.000000000
  0
LINE
  5
B92
330
A02
100
AcDbEntity
  8
S05_Chassis_Side
100
AcDbLine
 10
197.500000000
 20
158.985563614
 30
0.000000000
 11
197.500000000
 21
157.892536754
 31
0.000000000
  0
LINE
  5
B93
330
A02
100
AcDbEntity
  8
S05_Chassis_Side
100
AcDbLine
 10
197.500000000
 20
159.897595091
 30
0.000000000
 11
197.500000000
 21
158.985563614
 31
0.000000000
  0
LINE
  5
B94
330
A02
100
AcDbEntity
  8
S05_Chassis_Side
100
AcDbLine
 10
197.500000000
 20
160.606322925
 30
0.000000000
 11
197.500000000
 21
159.897595091
 31
0.000000000
  0
LINE
  5
B95
330
A02
100
AcDbEntity
  8
S05_Chassis_Side
100
AcDbLine
 10
197.500000000
 20
161.038107222
 30
0.000000000
 11
197.500000000
 21
160.606322925
 31
0.000000000
  0
LINE
  5
B96
330
A02
100
AcDbEntity
  8
S05_Chassis_Side
100
AcDbLine
 10
197.500000000
 20
161.230200845
 30
0.000000000
 11
197.500000000
 21
161.038107222
 31
0.000000000
  0
LINE
  5
B97
330
A02
100
AcDbEntity
  8
S05_Chassis_Side
100
AcDbLine
 10
197.500000000
 20
161.241712560
 30
0.000000000
 11
197.500000000
 21
161.230200845
 31
0.000000000
  0
LINE
  5
B98
330
A02
100
AcDbEntity
  8
S05_Chassis_Side
100
AcDbLine
 10
88.476587425
 20
157.572509485
 30
0.000000000
 11
85.902147013
 21
156.683732187
 31
0.000000000
  0
LINE
  5
B99
330
A02
100
AcDbEntity
  8
S05_Chassis_Side
100
AcDbLine
 10
82.013848837
 20
155.265851617
 30
0.000000000
 11
85.902147013
 21
156.683732187
 31
0.000000000
  0
LINE
  5
B9A
330
A02
100
AcDbEntity
  8
S05_Chassis_Side
100
AcDbLine
 10
72.729380317
 20
141.268067941
 30
0.000000000
 11
69.036529604
 21
140.891081814
 31
0.000000000
  0
LINE
  5
B9B
330
A02
100
AcDbEntity
  8
S05_Chassis_Side
100
AcDbLine
 10
90.152819973
 20
158.117959258
 30
0.000000000
 11
88.476587425
 21
157.572509485
 31
0.000000000
  0
LINE
  5
B9C
330
A02
100
AcDbEntity
  8
S05_Chassis_Side
100
AcDbLine
 10
90.640501737
 20
158.270477136
 30
0.000000000
 11
90.152819973
 21
158.117959258
 31
0.000000000
  0
LINE
  5
B9D
330
A02
100
AcDbEntity
  8
S05_Chassis_Side
100
AcDbLine
 10
73.383698985
 20
141.343750613
 30
0.000000000
 11
72.729380317
 21
141.268067941
 31
0.000000000
  0
LINE
  5
B9E
330
A02
100
AcDbEntity
  8
S05_Chassis_Side
100
AcDbLine
 10
73.383698985
 20
141.343750613
 30
0.000000000
 11
75.547681958
 21
141.611890681
 31
0.000000000
  0
LINE
  5
B9F
330
A02
100
AcDbEntity
  8
S05_Chassis_Side
100
AcDbLine
 10
77.706480988
 20
141.907224596
 30
0.000000000
 11
75.547681958
 21
141.611890681
 31
0.000000000
  0
LINE
  5
BA0
330
A02
100
AcDbEntity
  8
S05_Chassis_Side
100
AcDbLine
 10
78.420431846
 20
142.010079406
 30
0.000000000
 11
77.706480988
 21
141.907224596
 31
0.000000000
  0
LINE
  5
BA1
330
A02
100
AcDbEntity
  8
S05_Chassis_Side
100
AcDbLine
 10
82.013848837
 20
142.564976345
 30
0.000000000
 11
78.420431846
 21
142.010079406
 31
0.000000000
  0
LINE
  5
BA2
330
A02
100
AcDbEntity
  8
S05_Chassis_Side
100
AcDbLine
 10
47.095515323
 20
144.823939900
 30
0.000000000
 11
49.058836998
 21
145.204530201
 31
0.000000000
  0
LINE
  5
BA3
330
A02
100
AcDbEntity
  8
S05_Chassis_Side
100
AcDbLine
 10
51.377919934
 20
145.681190952
 30
0.000000000
 11
49.058836998
 21
145.204530201
 31
0.000000000
  0
LINE
  5
BA4
330
A02
100
AcDbEntity
  8
S05_Chassis_Side
100
AcDbLine
 10
51.896422183
 20
145.792009471
 30
0.000000000
 11
51.377919934
 21
145.681190952
 31
0.000000000
  0
LINE
  5
BA5
330
A02
100
AcDbEntity
  8
S05_Chassis_Side
100
AcDbLine
 10
43.615104534
 20
139.801022473
 30
0.000000000
 11
42.500000000
 21
139.741887671
 31
0.000000000
  0
LINE
  5
BA6
330
A02
100
AcDbEntity
  8
S05_Chassis_Side
100
AcDbLine
 10
45.652548088
 20
139.888830832
 30
0.000000000
 11
43.615104534
 21
139.801022473
 31
0.000000000
  0
LINE
  5
BA7
330
A02
100
AcDbEntity
  8
S05_Chassis_Side
100
AcDbLine
 10
46.243433726
 20
139.910409403
 30
0.000000000
 11
45.652548088
 21
139.888830832
 31
0.000000000
  0
LINE
  5
BA8
330
A02
100
AcDbEntity
  8
S05_Chassis_Side
100
AcDbLine
 10
46.243433726
 20
139.910409403
 30
0.000000000
 11
49.107848981
 21
139.996710970
 31
0.000000000
  0
LINE
  5
BA9
330
A02
100
AcDbEntity
  8
S05_Chassis_Side
100
AcDbLine
 10
55.825765196
 20
140.164509939
 30
0.000000000
 11
54.365229572
 21
140.125352133
 31
0.000000000
  0
LINE
  5
BAA
330
A02
100
AcDbEntity
  8
S05_Chassis_Side
100
AcDbLine
 10
52.098557371
 20
140.070327528
 30
0.000000000
 11
49.107848981
 21
139.996710970
 31
0.000000000
  0
LINE
  5
BAB
330
A02
100
AcDbEntity
  8
S05_Chassis_Side
100
AcDbLine
 10
52.641660017
 20
140.083043750
 30
0.000000000
 11
54.365229572
 21
140.125352133
 31
0.000000000
  0
LINE
  5
BAC
330
A02
100
AcDbEntity
  8
S05_Chassis_Side
100
AcDbLine
 10
52.641660017
 20
140.083043750
 30
0.000000000
 11
52.098557371
 21
140.070327528
 31
0.000000000
  0
LINE
  5
BAD
330
A02
100
AcDbEntity
  8
S05_Chassis_Side
100
AcDbLine
 10
69.036529604
 20
150.535542058
 30
0.000000000
 11
70.746569630
 21
151.122820030
 31
0.000000000
  0
LINE
  5
BAE
330
A02
100
AcDbEntity
  8
S05_Chassis_Side
100
AcDbLine
 10
62.461379683
 20
140.424099177
 30
0.000000000
 11
61.806488915
 21
140.390593192
 31
0.000000000
  0
LINE
  5
BAF
330
A02
100
AcDbEntity
  8
S05_Chassis_Side
100
AcDbLine
 10
57.489296517
 20
140.215059386
 30
0.000000000
 11
59.150029030
 21
140.273937992
 31
0.000000000
  0
LINE
  5
BB0
330
A02
100
AcDbEntity
  8
S05_Chassis_Side
100
AcDbLine
 10
56.483128348
 20
140.183730792
 30
0.000000000
 11
57.489296517
 21
140.215059386
 31
0.000000000
  0
LINE
  5
BB1
330
A02
100
AcDbEntity
  8
S05_Chassis_Side
100
AcDbLine
 10
56.483128348
 20
140.183730792
 30
0.000000000
 11
55.825765196
 21
140.164509939
 31
0.000000000
  0
LINE
  5
BB2
330
A02
100
AcDbEntity
  8
S05_Chassis_Side
100
AcDbLine
 10
80.301296234
 20
154.626022747
 30
0.000000000
 11
82.013848837
 21
155.265851617
 31
0.000000000
  0
LINE
  5
BB3
330
A02
100
AcDbEntity
  8
S05_Chassis_Side
100
AcDbLine
 10
63.111635859
 20
140.459733356
 30
0.000000000
 11
62.461379683
 21
140.424099177
 31
0.000000000
  0
LINE
  5
BB4
330
A02
100
AcDbEntity
  8
S05_Chassis_Side
100
AcDbLine
 10
60.807511231
 20
140.343066270
 30
0.000000000
 11
61.806488915
 21
140.390593192
 31
0.000000000
  0
LINE
  5
BB5
330
A02
100
AcDbEntity
  8
S05_Chassis_Side
100
AcDbLine
 10
60.807511231
 20
140.343066270
 30
0.000000000
 11
59.150029030
 21
140.273937992
 31
0.000000000
  0
LINE
  5
BB6
330
A02
100
AcDbEntity
  8
S05_Chassis_Side
100
AcDbLine
 10
64.111359016
 20
140.518426117
 30
0.000000000
 11
63.111635859
 21
140.459733356
 31
0.000000000
  0
LINE
  5
BB7
330
A02
100
AcDbEntity
  8
S05_Chassis_Side
100
AcDbLine
 10
64.111359016
 20
140.518426117
 30
0.000000000
 11
65.757261927
 21
140.627170935
 31
0.000000000
  0
LINE
  5
BB8
330
A02
100
AcDbEntity
  8
S05_Chassis_Side
100
AcDbLine
 10
68.291746561
 20
140.825444663
 30
0.000000000
 11
69.036529604
 21
140.891081814
 31
0.000000000
  0
LINE
  5
BB9
330
A02
100
AcDbEntity
  8
S05_Chassis_Side
100
AcDbLine
 10
67.398989180
 20
140.751191922
 30
0.000000000
 11
68.291746561
 21
140.825444663
 31
0.000000000
  0
LINE
  5
BBA
330
A02
100
AcDbEntity
  8
S05_Chassis_Side
100
AcDbLine
 10
67.398989180
 20
140.751191922
 30
0.000000000
 11
65.757261927
 21
140.627170935
 31
0.000000000
  0
LINE
  5
BBB
330
A02
100
AcDbEntity
  8
S05_Chassis_Side
100
AcDbLine
 10
83.005944681
 20
142.727261819
 30
0.000000000
 11
82.013848837
 21
142.564976345
 31
0.000000000
  0
LINE
  5
BBC
330
A02
100
AcDbEntity
  8
S05_Chassis_Side
100
AcDbLine
 10
84.477913120
 20
142.973973307
 30
0.000000000
 11
83.005944681
 21
142.727261819
 31
0.000000000
  0
LINE
  5
BBD
330
A02
100
AcDbEntity
  8
S05_Chassis_Side
100
AcDbLine
 10
85.215187360
 20
143.100073562
 30
0.000000000
 11
84.477913120
 21
142.973973307
 31
0.000000000
  0
LINE
  5
BBE
330
A02
100
AcDbEntity
  8
S05_Chassis_Side
100
AcDbLine
 10
53.358786231
 20
146.113477106
 30
0.000000000
 11
51.896422183
 21
145.792009471
 31
0.000000000
  0
LINE
  5
BBF
330
A02
100
AcDbEntity
  8
S05_Chassis_Side
100
AcDbLine
 10
53.601115325
 20
146.168142314
 30
0.000000000
 11
54.221641448
 21
146.310104598
 31
0.000000000
  0
LINE
  5
BC0
330
A02
100
AcDbEntity
  8
S05_Chassis_Side
100
AcDbLine
 10
53.601115325
 20
146.168142314
 30
0.000000000
 11
53.358786231
 21
146.113477106
 31
0.000000000
  0
LINE
  5
BC1
330
A02
100
AcDbEntity
  8
S05_Chassis_Side
100
AcDbLine
 10
55.825765196
 20
146.689228860
 30
0.000000000
 11
54.221641448
 21
146.310104598
 31
0.000000000
  0
LINE
  5
BC2
330
A02
100
AcDbEntity
  8
S05_Chassis_Side
100
AcDbLine
 10
72.622190364
 20
151.785314427
 30
0.000000000
 11
70.746569630
 21
151.122820030
 31
0.000000000
  0
LINE
  5
BC3
330
A02
100
AcDbEntity
  8
S05_Chassis_Side
100
AcDbLine
 10
73.014831235
 20
151.925995062
 30
0.000000000
 11
75.547681958
 21
152.850637242
 31
0.000000000
  0
LINE
  5
BC4
330
A02
100
AcDbEntity
  8
S05_Chassis_Side
100
AcDbLine
 10
73.014831235
 20
151.925995062
 30
0.000000000
 11
72.622190364
 21
151.785314427
 31
0.000000000
  0
LINE
  5
BC5
330
A02
100
AcDbEntity
  8
S05_Chassis_Side
100
AcDbLine
 10
78.292930422
 20
153.872813708
 30
0.000000000
 11
80.301296234
 21
154.626022747
 31
0.000000000
  0
LINE
  5
BC6
330
A02
100
AcDbEntity
  8
S05_Chassis_Side
100
AcDbLine
 10
77.780767164
 20
153.680550044
 30
0.000000000
 11
78.292930422
 21
153.872813708
 31
0.000000000
  0
LINE
  5
BC7
330
A02
100
AcDbEntity
  8
S05_Chassis_Side
100
AcDbLine
 10
77.780767164
 20
153.680550044
 30
0.000000000
 11
75.547681958
 21
152.850637242
 31
0.000000000
  0
LINE
  5
BC8
330
A02
100
AcDbEntity
  8
S05_Chassis_Side
100
AcDbLine
 10
85.638443930
 20
143.171076648
 30
0.000000000
 11
85.215187360
 21
143.100073562
 31
0.000000000
  0
LINE
  5
BC9
330
A02
100
AcDbEntity
  8
S05_Chassis_Side
100
AcDbLine
 10
86.430328972
 20
143.307231587
 30
0.000000000
 11
88.358488670
 21
143.640654540
 31
0.000000000
  0
LINE
  5
BCA
330
A02
100
AcDbEntity
  8
S05_Chassis_Side
100
AcDbLine
 10
86.430328972
 20
143.307231587
 30
0.000000000
 11
85.638443930
 21
143.171076648
 31
0.000000000
  0
LINE
  5
BCB
330
A02
100
AcDbEntity
  8
S05_Chassis_Side
100
AcDbLine
 10
88.476587425
 20
143.661052463
 30
0.000000000
 11
88.358488670
 21
143.640654540
 31
0.000000000
  0
LINE
  5
BCC
330
A02
100
AcDbEntity
  8
S05_Chassis_Side
100
AcDbLine
 10
88.590634222
 20
143.680771230
 30
0.000000000
 11
88.476587425
 21
143.661052463
 31
0.000000000
  0
LINE
  5
BCD
330
A02
100
AcDbEntity
  8
S05_Chassis_Side
100
AcDbLine
 10
90.746521603
 20
144.050569316
 30
0.000000000
 11
88.590634222
 21
143.680771230
 31
0.000000000
  0
LINE
  5
BCE
330
A02
100
AcDbEntity
  8
S05_Chassis_Side
100
AcDbLine
 10
91.804044698
 20
144.228769266
 30
0.000000000
 11
90.746521603
 21
144.050569316
 31
0.000000000
  0
LINE
  5
BCF
330
A02
100
AcDbEntity
  8
S05_Chassis_Side
100
AcDbLine
 10
92.211162936
 20
144.296814742
 30
0.000000000
 11
95.000000000
 21
144.742276119
 31
0.000000000
  0
LINE
  5
BD0
330
A02
100
AcDbEntity
  8
S05_Chassis_Side
100
AcDbLine
 10
92.211162936
 20
144.296814742
 30
0.000000000
 11
91.804044698
 21
144.228769266
 31
0.000000000
  0
LINE
  5
BD1
330
A02
100
AcDbEntity
  8
S05_Chassis_Side
100
AcDbLine
 10
57.479157423
 20
147.099124632
 30
0.000000000
 11
55.825765196
 21
146.689228860
 31
0.000000000
  0
LINE
  5
BD2
330
A02
100
AcDbEntity
  8
S05_Chassis_Side
100
AcDbLine
 10
62.461379683
 20
148.458998019
 30
0.000000000
 11
61.881419278
 21
148.290853516
 31
0.000000000
  0
LINE
  5
BD3
330
A02
100
AcDbEntity
  8
S05_Chassis_Side
100
AcDbLine
 10
62.461379683
 20
148.458998019
 30
0.000000000
 11
65.224914199
 21
149.294082099
 31
0.000000000
  0
LINE
  5
BD4
330
A02
100
AcDbEntity
  8
S05_Chassis_Side
100
AcDbLine
 10
67.743107824
 20
150.103077563
 30
0.000000000
 11
69.036529604
 21
150.535542058
 31
0.000000000
  0
LINE
  5
BD5
330
A02
100
AcDbEntity
  8
S05_Chassis_Side
100
AcDbLine
 10
42.626483712
 20
144.013466983
 30
0.000000000
 11
42.500000000
 21
143.991714132
 31
0.000000000
  0
LINE
  5
BD6
330
A02
100
AcDbEntity
  8
S05_Chassis_Side
100
AcDbLine
 10
42.626483712
 20
144.013466983
 30
0.000000000
 11
47.095515323
 21
144.823939900
 31
0.000000000
  0
LINE
  5
BD7
330
A02
100
AcDbEntity
  8
S05_Chassis_Side
100
AcDbLine
 10
94.308254036
 20
159.317913192
 30
0.000000000
 11
95.000000000
 21
159.491618556
 31
0.000000000
  0
LINE
  5
BD8
330
A02
100
AcDbEntity
  8
S05_Chassis_Side
100
AcDbLine
 10
90.948424368
 20
158.365948160
 30
0.000000000
 11
90.640501737
 21
158.270477136
 31
0.000000000
  0
LINE
  5
BD9
330
A02
100
AcDbEntity
  8
S05_Chassis_Side
100
AcDbLine
 10
92.664266689
 20
158.872715919
 30
0.000000000
 11
90.948424368
 21
158.365948160
 31
0.000000000
  0
LINE
  5
BDA
330
A02
100
AcDbEntity
  8
S05_Chassis_Side
100
AcDbLine
 10
92.845207932
 20
158.923920042
 30
0.000000000
 11
92.664266689
 21
158.872715919
 31
0.000000000
  0
LINE
  5
BDB
330
A02
100
AcDbEntity
  8
S05_Chassis_Side
100
AcDbLine
 10
93.061597181
 20
158.984336507
 30
0.000000000
 11
92.845207932
 21
158.923920042
 31
0.000000000
  0
LINE
  5
BDC
330
A02
100
AcDbEntity
  8
S05_Chassis_Side
100
AcDbLine
 10
93.810615442
 20
159.187723097
 30
0.000000000
 11
94.308254036
 21
159.317913192
 31
0.000000000
  0
LINE
  5
BDD
330
A02
100
AcDbEntity
  8
S05_Chassis_Side
100
AcDbLine
 10
93.810615442
 20
159.187723097
 30
0.000000000
 11
93.061597181
 21
158.984336507
 31
0.000000000
  0
LINE
  5
BDE
330
A02
100
AcDbEntity
  8
S05_Chassis_Side
100
AcDbLine
 10
58.166831092
 20
147.275267667
 30
0.000000000
 11
57.479157423
 21
147.099124632
 31
0.000000000
  0
LINE
  5
BDF
330
A02
100
AcDbEntity
  8
S05_Chassis_Side
100
AcDbLine
 10
58.378355377
 20
147.330198982
 30
0.000000000
 11
58.166831092
 21
147.275267667
 31
0.000000000
  0
LINE
  5
BE0
330
A02
100
AcDbEntity
  8
S05_Chassis_Side
100
AcDbLine
 10
58.662273251
 20
147.404599784
 30
0.000000000
 11
58.378355377
 21
147.330198982
 31
0.000000000
  0
LINE
  5
BE1
330
A02
100
AcDbEntity
  8
S05_Chassis_Side
100
AcDbLine
 10
61.237150267
 20
148.106849023
 30
0.000000000
 11
58.662273251
 21
147.404599784
 31
0.000000000
  0
LINE
  5
BE2
330
A02
100
AcDbEntity
  8
S05_Chassis_Side
100
AcDbLine
 10
61.237150267
 20
148.106849023
 30
0.000000000
 11
61.881419278
 21
148.290853516
 31
0.000000000
  0
LINE
  5
BE3
330
A02
100
AcDbEntity
  8
S05_Chassis_Side
100
AcDbLine
 10
67.397983549
 20
149.989221036
 30
0.000000000
 11
67.743107824
 21
150.103077563
 31
0.000000000
  0
LINE
  5
BE4
330
A02
100
AcDbEntity
  8
S05_Chassis_Side
100
AcDbLine
 10
67.304321371
 20
149.958490500
 30
0.000000000
 11
67.397983549
 21
149.989221036
 31
0.000000000
  0
LINE
  5
BE5
330
A02
100
AcDbEntity
  8
S05_Chassis_Side
100
AcDbLine
 10
67.304321371
 20
149.958490500
 30
0.000000000
 11
65.224914199
 21
149.294082099
 31
0.000000000
  0
LINE
  5
BE6
330
A02
100
AcDbEntity
  8
S05_Chassis_Side
100
AcDbLine
 10
132.340583214
 20
137.001190722
 30
0.000000000
 11
135.756619022
 21
136.609357914
 31
0.000000000
  0
LINE
  5
BE7
330
A02
100
AcDbEntity
  8
S05_Chassis_Side
100
AcDbLine
 10
130.633379140
 20
137.231297881
 30
0.000000000
 11
132.340583214
 21
137.001190722
 31
0.000000000
  0
LINE
  5
BE8
330
A02
100
AcDbEntity
  8
S05_Chassis_Side
100
AcDbLine
 10
187.504752010
 20
163.596005750
 30
0.000000000
 11
190.888690371
 21
163.086245708
 31
0.000000000
  0
LINE
  5
BE9
330
A02
100
AcDbEntity
  8
S05_Chassis_Side
100
AcDbLine
 10
187.504752010
 20
135.884191353
 30
0.000000000
 11
190.888690371
 21
136.042532869
 31
0.000000000
  0
LINE
  5
BEA
330
A02
100
AcDbEntity
  8
S05_Chassis_Side
100
AcDbLine
 10
190.888690371
 20
163.086245708
 30
0.000000000
 11
194.225049978
 21
162.326455910
 31
0.000000000
  0
LINE
  5
BEB
330
A02
100
AcDbEntity
  8
S05_Chassis_Side
100
AcDbLine
 10
195.324262922
 20
162.005108992
 30
0.000000000
 11
194.225049978
 21
162.326455910
 31
0.000000000
  0
LINE
  5
BEC
330
A02
100
AcDbEntity
  8
S05_Chassis_Side
100
AcDbLine
 10
190.888690371
 20
136.042532869
 30
0.000000000
 11
194.225049978
 21
136.313175314
 31
0.000000000
  0
LINE
  5
BED
330
A02
100
AcDbEntity
  8
S05_Chassis_Side
100
AcDbLine
 10
197.500000000
 20
161.241712560
 30
0.000000000
 11
195.324262922
 21
162.005108992
 31
0.000000000
  0
LINE
  5
BEE
330
A02
100
AcDbEntity
  8
S05_Chassis_Side
100
AcDbLine
 10
95.000000000
 20
159.491616751
 30
0.000000000
 11
101.177597626
 21
160.249031233
 31
0.000000000
  0
LINE
  5
BEF
330
A02
100
AcDbEntity
  8
S05_Chassis_Side
100
AcDbLine
 10
173.000426041
 20
164.282037244
 30
0.000000000
 11
177.178286409
 21
164.198252387
 31
0.000000000
  0
LINE
  5
BF0
330
A02
100
AcDbEntity
  8
S05_Chassis_Side
100
AcDbLine
 10
105.078036315
 20
160.857062870
 30
0.000000000
 11
101.177597626
 21
160.249031233
 31
0.000000000
  0
LINE
  5
BF1
330
A02
100
AcDbEntity
  8
S05_Chassis_Side
100
AcDbLine
 10
120.395773899
 20
163.092267397
 30
0.000000000
 11
115.280290136
 21
162.443496033
 31
0.000000000
  0
LINE
  5
BF2
330
A02
100
AcDbEntity
  8
S05_Chassis_Side
100
AcDbLine
 10
120.897609680
 20
163.148375637
 30
0.000000000
 11
120.395773899
 21
163.092267397
 31
0.000000000
  0
LINE
  5
BF3
330
A02
100
AcDbEntity
  8
S05_Chassis_Side
100
AcDbLine
 10
120.897609680
 20
163.148375637
 30
0.000000000
 11
125.513709343
 21
163.593561296
 31
0.000000000
  0
LINE
  5
BF4
330
A02
100
AcDbEntity
  8
S05_Chassis_Side
100
AcDbLine
 10
130.655471162
 20
163.944002469
 30
0.000000000
 11
125.513709343
 21
163.593561296
 31
0.000000000
  0
LINE
  5
BF5
330
A02
100
AcDbEntity
  8
S05_Chassis_Side
100
AcDbLine
 10
130.655471162
 20
163.944002469
 30
0.000000000
 11
136.000000000
 21
164.160306354
 31
0.000000000
  0
LINE
  5
BF6
330
A02
100
AcDbEntity
  8
S05_Chassis_Side
100
AcDbLine
 10
101.697651356
 20
143.621267474
 30
0.000000000
 11
105.078036315
 21
142.842323403
 31
0.000000000
  0
LINE
  5
BF7
330
A02
100
AcDbEntity
  8
S05_Chassis_Side
100
AcDbLine
 10
108.471384491
 20
141.996057297
 30
0.000000000
 11
115.280290136
 21
140.274856384
 31
0.000000000
  0
LINE
  5
BF8
330
A02
100
AcDbEntity
  8
S05_Chassis_Side
100
AcDbLine
 10
108.471384491
 20
141.996057297
 30
0.000000000
 11
105.078036315
 21
142.842323403
 31
0.000000000
  0
LINE
  5
BF9
330
A02
100
AcDbEntity
  8
S05_Chassis_Side
100
AcDbLine
 10
120.395773899
 20
139.085081803
 30
0.000000000
 11
115.280290136
 21
140.274856384
 31
0.000000000
  0
LINE
  5
BFA
330
A02
100
AcDbEntity
  8
S05_Chassis_Side
100
AcDbLine
 10
120.395773899
 20
139.085081803
 30
0.000000000
 11
125.513709343
 21
138.059143784
 31
0.000000000
  0
LINE
  5
BFB
330
A02
100
AcDbEntity
  8
S05_Chassis_Side
100
AcDbLine
 10
128.926558581
 20
137.484137304
 30
0.000000000
 11
125.513709343
 21
138.059143784
 31
0.000000000
  0
LINE
  5
BFC
330
A02
100
AcDbEntity
  8
S05_Chassis_Side
100
AcDbLine
 10
128.926558581
 20
137.484137304
 30
0.000000000
 11
130.633379140
 21
137.231297881
 31
0.000000000
  0
LINE
  5
BFD
330
A02
100
AcDbEntity
  8
S05_Chassis_Side
100
AcDbLine
 10
184.085183052
 20
163.917265687
 30
0.000000000
 11
177.178286409
 21
164.198252387
 31
0.000000000
  0
LINE
  5
BFE
330
A02
100
AcDbEntity
  8
S05_Chassis_Side
100
AcDbLine
 10
184.085183052
 20
163.917265687
 30
0.000000000
 11
187.504752010
 21
163.596005750
 31
0.000000000
  0
LINE
  5
BFF
330
A02
100
AcDbEntity
  8
S05_Chassis_Side
100
AcDbLine
 10
184.085183052
 20
135.800081213
 30
0.000000000
 11
177.178286409
 21
135.749376108
 31
0.000000000
  0
LINE
  5
C00
330
A02
100
AcDbEntity
  8
S05_Chassis_Side
100
AcDbLine
 10
184.085183052
 20
135.800081213
 30
0.000000000
 11
187.504752010
 21
135.884191353
 31
0.000000000
  0
LINE
  5
C01
330
A02
100
AcDbEntity
  8
S05_Chassis_Side
100
AcDbLine
 10
110.171482450
 20
161.677702583
 30
0.000000000
 11
115.280290136
 21
162.443496033
 31
0.000000000
  0
LINE
  5
C02
330
A02
100
AcDbEntity
  8
S05_Chassis_Side
100
AcDbLine
 10
108.095229411
 20
161.345629283
 30
0.000000000
 11
110.171482450
 21
161.677702583
 31
0.000000000
  0
LINE
  5
C03
330
A02
100
AcDbEntity
  8
S05_Chassis_Side
100
AcDbLine
 10
108.095229411
 20
161.345629283
 30
0.000000000
 11
105.078036315
 21
160.857062870
 31
0.000000000
  0
LINE
  5
C04
330
A02
100
AcDbEntity
  8
S05_Chassis_Side
100
AcDbLine
 10
100.912173179
 20
143.787093314
 30
0.000000000
 11
101.697651356
 21
143.621267474
 31
0.000000000
  0
LINE
  5
C05
330
A02
100
AcDbEntity
  8
S05_Chassis_Side
100
AcDbLine
 10
97.625717702
 20
144.293685434
 30
0.000000000
 11
95.000000000
 21
144.742275652
 31
0.000000000
  0
LINE
  5
C06
330
A02
100
AcDbEntity
  8
S05_Chassis_Side
100
AcDbLine
 10
97.625717702
 20
144.293685434
 30
0.000000000
 11
100.912173179
 21
143.787093314
 31
0.000000000
  0
LINE
  5
C07
330
A02
100
AcDbEntity
  8
S05_Chassis_Side
100
AcDbLine
 10
140.062422458
 20
136.237075153
 30
0.000000000
 11
135.756619022
 21
136.609357914
 31
0.000000000
  0
LINE
  5
C08
330
A02
100
AcDbEntity
  8
S05_Chassis_Side
100
AcDbLine
 10
140.217589872
 20
136.226056176
 30
0.000000000
 11
140.062422458
 21
136.237075153
 31
0.000000000
  0
LINE
  5
C09
330
A02
100
AcDbEntity
  8
S05_Chassis_Side
100
AcDbLine
 10
141.413410117
 20
136.146357098
 30
0.000000000
 11
142.599206901
 21
136.075358258
 31
0.000000000
  0
LINE
  5
C0A
330
A02
100
AcDbEntity
  8
S05_Chassis_Side
100
AcDbLine
 10
141.413410117
 20
136.146357098
 30
0.000000000
 11
140.217589872
 21
136.226056176
 31
0.000000000
  0
LINE
  5
C0B
330
A02
100
AcDbEntity
  8
S05_Chassis_Side
100
AcDbLine
 10
145.697942754
 20
135.928906218
 30
0.000000000
 11
148.351690015
 21
135.841000875
 31
0.000000000
  0
LINE
  5
C0C
330
A02
100
AcDbEntity
  8
S05_Chassis_Side
100
AcDbLine
 10
145.697942754
 20
135.928906218
 30
0.000000000
 11
142.599206901
 21
136.075358258
 31
0.000000000
  0
LINE
  5
C0D
330
A02
100
AcDbEntity
  8
S05_Chassis_Side
100
AcDbLine
 10
149.195734841
 20
135.819184035
 30
0.000000000
 11
148.351690015
 21
135.841000875
 31
0.000000000
  0
LINE
  5
C0E
330
A02
100
AcDbEntity
  8
S05_Chassis_Side
100
AcDbLine
 10
151.370833688
 20
135.776389832
 30
0.000000000
 11
149.195734841
 21
135.819184035
 31
0.000000000
  0
LINE
  5
C0F
330
A02
100
AcDbEntity
  8
S05_Chassis_Side
100
AcDbLine
 10
153.054149664
 20
135.752898283
 30
0.000000000
 11
151.370833688
 21
135.776389832
 31
0.000000000
  0
LINE
  5
C10
330
A02
100
AcDbEntity
  8
S05_Chassis_Side
100
AcDbLine
 10
155.302395083
 20
135.734079035
 30
0.000000000
 11
156.357926881
 21
135.728604976
 31
0.000000000
  0
LINE
  5
C11
330
A02
100
AcDbEntity
  8
S05_Chassis_Side
100
AcDbLine
 10
155.302395083
 20
135.734079035
 30
0.000000000
 11
153.054149664
 21
135.752898283
 31
0.000000000
  0
LINE
  5
C12
330
A02
100
AcDbEntity
  8
S05_Chassis_Side
100
AcDbLine
 10
157.198265157
 20
135.725645954
 30
0.000000000
 11
163.283066003
 21
135.727288271
 31
0.000000000
  0
LINE
  5
C13
330
A02
100
AcDbEntity
  8
S05_Chassis_Side
100
AcDbLine
 10
157.198265157
 20
135.725645954
 30
0.000000000
 11
156.357926881
 21
135.728604976
 31
0.000000000
  0
LINE
  5
C14
330
A02
100
AcDbEntity
  8
S05_Chassis_Side
100
AcDbLine
 10
196.213564545
 20
136.550137865
 30
0.000000000
 11
194.225049978
 21
136.313175314
 31
0.000000000
  0
LINE
  5
C15
330
A02
100
AcDbEntity
  8
S05_Chassis_Side
100
AcDbLine
 10
196.213564545
 20
136.550137865
 30
0.000000000
 11
197.500000000
 21
136.742174159
 31
0.000000000
  0
LINE
  5
C16
330
A02
100
AcDbEntity
  8
S05_Chassis_Side
100
AcDbLine
 10
167.526689398
 20
135.737643326
 30
0.000000000
 11
163.283066003
 21
135.727288271
 31
0.000000000
  0
LINE
  5
C17
330
A02
100
AcDbEntity
  8
S05_Chassis_Side
100
AcDbLine
 10
169.717987397
 20
135.740715109
 30
0.000000000
 11
167.526689398
 21
135.737643326
 31
0.000000000
  0
LINE
  5
C18
330
A02
100
AcDbEntity
  8
S05_Chassis_Side
100
AcDbLine
 10
170.383219152
 20
135.741874890
 30
0.000000000
 11
169.717987397
 21
135.740715109
 31
0.000000000
  0
LINE
  5
C19
330
A02
100
AcDbEntity
  8
S05_Chassis_Side
100
AcDbLine
 10
171.102642244
 20
135.742591869
 30
0.000000000
 11
170.383219152
 21
135.741874890
 31
0.000000000
  0
LINE
  5
C1A
330
A02
100
AcDbEntity
  8
S05_Chassis_Side
100
AcDbLine
 10
171.102642244
 20
135.742591869
 30
0.000000000
 11
177.178286409
 21
135.749376108
 31
0.000000000
  0
SPLINE
  5
C1B
330
A02
100
AcDbEntity
  8
S05_Chassis_SecD
100
AcDbSpline
210
0
220
0
230
1
 70
9
 71
3
 72
65
 73
61
 74
0
 40
0.000000000
 40
0.000000000
 40
0.000000000
 40
0.000000000
 40
0.032684371
 40
0.032684371
 40
0.032684371
 40
0.069399723
 40
0.069399723
 40
0.069399723
 40
0.127532334
 40
0.127532334
 40
0.127532334
 40
0.191629181
 40
0.191629181
 40
0.191629181
 40
0.249992639
 40
0.249992639
 40
0.249992639
 40
0.316553198
 40
0.316553198
 40
0.316553198
 40
0.384457442
 40
0.384457442
 40
0.384457442
 40
0.421881909
 40
0.421881909
 40
0.421881909
 40
0.443594453
 40
0.443594453
 40
0.443594453
 40
0.499992076
 40
0.499992076
 40
0.499992076
 40
0.556089384
 40
0.556089384
 40
0.556089384
 40
0.595514554
 40
0.595514554
 40
0.595514554
 40
0.627430630
 40
0.627430630
 40
0.627430630
 40
0.691528251
 40
0.691528251
 40
0.691528251
 40
0.749992379
 40
0.749992379
 40
0.749992379
 40
0.816553742
 40
0.816553742
 40
0.816553742
 40
0.880857405
 40
0.880857405
 40
0.880857405
 40
0.904470998
 40
0.904470998
 40
0.904470998
 40
0.940797057
 40
0.940797057
 40
0.940797057
 40
1.000000000
 40
1.000000000
 40
1.000000000
 40
1.000000000
 10
283.512752025
 20
221.491869029
 30
0.000000000
 10
283.519422616
 20
221.069437271
 30
0.000000000
 10
283.522922717
 20
220.645732129
 30
0.000000000
 10
283.575124464
 20
220.225880263
 30
0.000000000
 10
283.633642509
 20
219.754972965
 30
0.000000000
 10
283.754338731
 20
219.289906143
 30
0.000000000
 10
283.952386707
 20
218.857902430
 30
0.000000000
 10
284.262542376
 20
218.171307500
 30
0.000000000
 10
284.787801664
 20
217.590642312
 30
0.000000000
 10
285.424078459
 20
217.190562015
 30
0.000000000
 10
286.125889752
 20
216.744242673
 30
0.000000000
 10
286.937532312
 20
216.500362391
 30
0.000000000
 10
287.754412561
 20
216.373676527
 30
0.000000000
 10
288.501018015
 20
216.256980120
 30
0.000000000
 10
289.258521479
 20
216.241485160
 30
0.000000000
 10
290.012752025
 20
216.241869026
 30
0.000000000
 10
290.872525740
 20
216.240944332
 30
0.000000000
 10
291.738116907
 20
216.262633791
 30
0.000000000
 10
292.584398131
 20
216.428318349
 30
0.000000000
 10
293.443469131
 20
216.594314664
 30
0.000000000
 10
294.291972056
 20
216.909331962
 30
0.000000000
 10
294.980185624
 20
217.461236008
 30
0.000000000
 10
295.358251718
 20
217.763408438
 30
0.000000000
 10
295.680420624
 20
218.136104060
 30
0.000000000
 10
295.919235663
 20
218.557373988
 30
0.000000000
 10
296.057912961
 20
218.802683131
 30
0.000000000
 10
296.169899756
 20
219.059655328
 30
0.000000000
 10
296.255196047
 20
219.328290579
 30
0.000000000
 10
296.481065660
 20
220.025259269
 30
0.000000000
 10
296.515233942
 20
220.764708871
 30
0.000000000
 10
296.512752034
 20
221.491869029
 30
0.000000000
 10
296.515165238
 20
222.215191099
 30
0.000000000
 10
296.481526512
 20
222.950543069
 30
0.000000000
 10
296.258732833
 20
223.644349917
 30
0.000000000
 10
296.105662461
 20
224.130523136
 30
0.000000000
 10
295.862661205
 20
224.589759951
 30
0.000000000
 10
295.534626800
 20
224.980721084
 30
0.000000000
 10
295.269924078
 20
225.297716718
 30
0.000000000
 10
294.952823787
 20
225.569538124
 30
0.000000000
 10
294.604697526
 20
225.791088889
 30
0.000000000
 10
293.903273547
 20
226.238029007
 30
0.000000000
 10
293.091745179
 20
226.482423907
 30
0.000000000
 10
292.274924140
 20
226.609465795
 30
0.000000000
 10
291.527087247
 20
226.726696719
 30
0.000000000
 10
290.768270862
 20
226.742257973
 30
0.000000000
 10
290.012752025
 20
226.741869032
 30
0.000000000
 10
289.152978296
 20
226.742793839
 30
0.000000000
 10
288.287387141
 20
226.721104176
 30
0.000000000
 10
287.441105898
 20
226.555419691
 30
0.000000000
 10
286.627159411
 20
226.397895048
 30
0.000000000
 10
285.824295238
 20
226.107962962
 30
0.000000000
 10
285.155795640
 20
225.608047632
 30
0.000000000
 10
284.909796402
 20
225.424721719
 30
0.000000000
 10
284.688156926
 20
225.215612861
 30
0.000000000
 10
284.490877213
 20
224.980721056
 30
0.000000000
 10
284.188938383
 20
224.620415884
 30
0.000000000
 10
283.958115762
 20
224.202411418
 30
0.000000000
 10
283.804652756
 20
223.758490130
 30
0.000000000
 10
283.553550925
 20
223.032179661
 30
0.000000000
 10
283.501829575
 20
222.254959413
 30
0.000000000
 10
283.512752025
 20
221.491869029
 30
0.000000000
  0
SPLINE
  5
C1C
330
A02
100
AcDbEntity
  8
S05_Chassis_SecD
100
AcDbSpline
210
0
220
0
230
1
 70
8
 71
3
 72
11
 73
7
 74
0
 40
0.566351215
 40
0.566351215
 40
0.566351215
 40
0.566351215
 40
0.783175608
 40
0.783175608
 40
0.783175608
 40
1.000000000
 40
1.000000000
 40
1.000000000
 40
1.000000000
 10
283.512752025
 20
221.491869029
 30
0.000000000
 10
282.952998255
 20
222.373519311
 30
0.000000000
 10
282.326107994
 20
223.375085077
 30
0.000000000
 10
281.673369881
 20
224.373008287
 30
0.000000000
 10
281.023336652
 20
225.367208169
 30
0.000000000
 10
280.347455571
 20
226.357765495
 30
0.000000000
 10
279.762752025
 20
227.116869029
 30
0.000000000
  0
SPLINE
  5
C1D
330
A02
100
AcDbEntity
  8
S05_Chassis_SecD
100
AcDbSpline
210
0
220
0
230
1
 70
8
 71
3
 72
53
 73
49
 74
0
 40
0.000000000
 40
0.000000000
 40
0.000000000
 40
0.000000000
 40
0.035937750
 40
0.035937750
 40
0.035937750
 40
0.075902541
 40
0.075902541
 40
0.075902541
 40
0.117743527
 40
0.117743527
 40
0.117743527
 40
0.157513681
 40
0.157513681
 40
0.157513681
 40
0.204909147
 40
0.204909147
 40
0.204909147
 40
0.250000000
 40
0.250000000
 40
0.250000000
 40
0.318416462
 40
0.318416462
 40
0.318416462
 40
0.352273134
 40
0.352273134
 40
0.352273134
 40
0.390952763
 40
0.390952763
 40
0.390952763
 40
0.428213334
 40
0.428213334
 40
0.428213334
 40
0.470422231
 40
0.470422231
 40
0.470422231
 40
0.500000000
 40
0.500000000
 40
0.500000000
 40
0.529577769
 40
0.529577769
 40
0.529577769
 40
0.555421423
 40
0.555421423
 40
0.555421423
 40
0.596597269
 40
0.596597269
 40
0.596597269
 40
0.640614232
 40
0.640614232
 40
0.640614232
 40
0.640614232
 10
279.762752025
 20
227.116869029
 30
0.000000000
 10
279.758329177
 20
227.816153418
 30
0.000000000
 10
279.761421041
 20
228.545119527
 30
0.000000000
 10
279.847055279
 20
229.258034932
 30
0.000000000
 10
279.939750619
 20
230.048229889
 30
0.000000000
 10
280.146193387
 20
230.830578371
 30
0.000000000
 10
280.549452111
 20
231.521504525
 30
0.000000000
 10
280.966288638
 20
232.245548631
 30
0.000000000
 10
281.593315828
 20
232.835534602
 30
0.000000000
 10
282.312557438
 20
233.253224937
 30
0.000000000
 10
282.996721597
 20
233.653972868
 30
0.000000000
 10
283.753565598
 20
233.915154111
 30
0.000000000
 10
284.523051824
 20
234.093075835
 30
0.000000000
 10
285.442454846
 20
234.304302272
 30
0.000000000
 10
286.384060322
 20
234.399694051
 30
0.000000000
 10
287.324345937
 20
234.447260631
 30
0.000000000
 10
288.219368860
 20
234.492199140
 30
0.000000000
 10
289.116060433
 20
234.491869071
 30
0.000000000
 10
290.012752025
 20
234.491869029
 30
0.000000000
 10
291.372769183
 20
234.491493508
 30
0.000000000
 10
292.735024399
 20
234.493447794
 30
0.000000000
 10
294.087526364
 20
234.334127212
 30
0.000000000
 10
294.755635532
 20
234.254457190
 30
0.000000000
 10
295.420911438
 20
234.134935198
 30
0.000000000
 10
296.067392716
 20
233.945745877
 30
0.000000000
 10
296.804649297
 20
233.729910001
 30
0.000000000
 10
297.521925888
 20
233.420714685
 30
0.000000000
 10
298.148182417
 20
232.970410408
 30
0.000000000
 10
298.751829483
 20
232.539488718
 30
0.000000000
 10
299.257340409
 20
231.968018834
 30
0.000000000
 10
299.593955241
 20
231.305798246
 30
0.000000000
 10
299.980427106
 20
230.555973103
 30
0.000000000
 10
300.150267223
 20
229.714394188
 30
0.000000000
 10
300.215913051
 20
228.880745741
 30
0.000000000
 10
300.263053302
 20
228.295078906
 30
0.000000000
 10
300.262752025
 20
227.705973968
 30
0.000000000
 10
300.262752025
 20
227.116869029
 30
0.000000000
 10
300.262752025
 20
226.527764091
 30
0.000000000
 10
300.263053302
 20
225.938659152
 30
0.000000000
 10
300.215913051
 20
225.352992317
 30
0.000000000
 10
300.174776855
 20
224.841791265
 30
0.000000000
 10
300.097073344
 20
224.329733386
 30
0.000000000
 10
299.952631028
 20
223.835860143
 30
0.000000000
 10
299.726823917
 20
223.048277623
 30
0.000000000
 10
299.308790655
 20
222.311361663
 30
0.000000000
 10
298.717812546
 20
221.740429515
 30
0.000000000
 10
298.089110092
 20
221.125486359
 30
0.000000000
 10
297.297320080
 20
220.701779723
 30
0.000000000
 10
296.471836899
 20
220.416898400
 30
0.000000000
  0
SPLINE
  5
C1E
330
A02
100
AcDbEntity
  8
S05_Chassis_SecD
100
AcDbSpline
210
0
220
0
230
1
 70
8
 71
3
 72
17
 73
13
 74
0
 40
0.859369253
 40
0.859369253
 40
0.859369253
 40
0.859369253
 40
0.890952763
 40
0.890952763
 40
0.890952763
 40
0.928213334
 40
0.928213334
 40
0.928213334
 40
0.964062250
 40
0.964062250
 40
0.964062250
 40
1.000000000
 40
1.000000000
 40
1.000000000
 40
1.000000000
 10
283.554598963
 20
220.416576993
 30
0.000000000
 10
282.961496590
 20
220.621762320
 30
0.000000000
 10
282.388137108
 20
220.895819392
 30
0.000000000
 10
281.877321634
 20
221.263327650
 30
0.000000000
 10
281.273706814
 20
221.694369589
 30
0.000000000
 10
280.768107999
 20
222.265511728
 30
0.000000000
 10
280.431567618
 20
222.928009951
 30
0.000000000
 10
280.104404710
 20
223.565678637
 30
0.000000000
 10
279.929631394
 20
224.266062307
 30
0.000000000
 10
279.847055279
 20
224.975703126
 30
0.000000000
 10
279.763193469
 20
225.688618530
 30
0.000000000
 10
279.767174874
 20
226.417584640
 30
0.000000000
 10
279.762752025
 20
227.116869029
 30
0.000000000
  0
SPLINE
  5
C1F
330
A02
100
AcDbEntity
  8
S05_Chassis_SecD
100
AcDbSpline
210
0
220
0
230
1
 70
8
 71
3
 72
26
 73
22
 74
0
 40
0.031109335
 40
0.031109335
 40
0.031109335
 40
0.031109335
 40
0.126321005
 40
0.126321005
 40
0.126321005
 40
0.221532676
 40
0.221532676
 40
0.221532676
 40
0.316744347
 40
0.316744347
 40
0.316744347
 40
0.411956018
 40
0.411956018
 40
0.411956018
 40
0.602379360
 40
0.602379360
 40
0.602379360
 40
0.697591031
 40
0.697591031
 40
0.697591031
 40
0.792802702
 40
0.792802702
 40
0.792802702
 40
0.792802702
 10
279.763033526
 20
227.070542012
 30
0.000000000
 10
279.618732697
 20
227.003601269
 30
0.000000000
 10
279.097010808
 20
226.881119801
 30
0.000000000
 10
278.485631908
 20
226.734020448
 30
0.000000000
 10
277.869526018
 20
226.586689721
 30
0.000000000
 10
277.161238281
 20
226.414794889
 30
0.000000000
 10
276.516177015
 20
226.242780285
 30
0.000000000
 10
275.867572277
 20
226.070509095
 30
0.000000000
 10
275.279669174
 20
225.898171913
 30
0.000000000
 10
274.808658789
 20
225.743028688
 30
0.000000000
 10
274.336936392
 20
225.586042052
 30
0.000000000
 10
273.974638048
 20
225.450988004
 30
0.000000000
 10
273.721763759
 20
225.337866546
 30
0.000000000
 10
273.209626972
 20
225.111824163
 30
0.000000000
 10
273.109962877
 20
225.003657731
 30
0.000000000
 10
273.061058224
 20
224.982771497
 30
0.000000000
 10
273.038215783
 20
224.970799805
 30
0.000000000
 10
273.026821517
 20
224.977852077
 30
0.000000000
 10
273.017582537
 20
224.985392055
 30
0.000000000
 10
273.010717672
 20
224.992549400
 30
0.000000000
 10
273.003483255
 20
225.000248233
 30
0.000000000
 10
273.053061642
 20
224.979238572
 30
0.000000000
  0
SPLINE
  5
C20
330
A02
100
AcDbEntity
  8
S05_Chassis_SecD
100
AcDbSpline
210
0
220
0
230
1
 70
8
 71
3
 72
53
 73
49
 74
0
 40
0.000000000
 40
0.000000000
 40
0.000000000
 40
0.000000000
 40
0.041680714
 40
0.041680714
 40
0.041680714
 40
0.082418769
 40
0.082418769
 40
0.082418769
 40
0.127354879
 40
0.127354879
 40
0.127354879
 40
0.165473874
 40
0.165473874
 40
0.165473874
 40
0.245621064
 40
0.245621064
 40
0.245621064
 40
0.320867968
 40
0.320867968
 40
0.320867968
 40
0.363316169
 40
0.363316169
 40
0.363316169
 40
0.407652823
 40
0.407652823
 40
0.407652823
 40
0.428743651
 40
0.428743651
 40
0.428743651
 40
0.449977055
 40
0.449977055
 40
0.449977055
 40
0.491242128
 40
0.491242128
 40
0.491242128
 40
0.535937750
 40
0.535937750
 40
0.535937750
 40
0.560535921
 40
0.560535921
 40
0.560535921
 40
0.578976445
 40
0.578976445
 40
0.578976445
 40
0.604246000
 40
0.604246000
 40
0.604246000
 40
0.640614232
 40
0.640614232
 40
0.640614232
 40
0.640614232
 10
279.762752025
 20
227.116869029
 30
0.000000000
 10
279.757651362
 20
227.927931049
 30
0.000000000
 10
279.762541754
 20
228.778798529
 30
0.000000000
 10
279.894785846
 20
229.598445172
 30
0.000000000
 10
280.020637724
 20
230.396594697
 30
0.000000000
 10
280.289037227
 20
231.184207875
 30
0.000000000
 10
280.759407107
 20
231.849280929
 30
0.000000000
 10
281.272649345
 20
232.586448927
 30
0.000000000
 10
282.011740553
 20
233.143540526
 30
0.000000000
 10
282.820421197
 20
233.520118973
 30
0.000000000
 10
283.507758839
 20
233.842605695
 30
0.000000000
 10
284.243791332
 20
234.049866438
 30
0.000000000
 10
284.987953758
 20
234.190101351
 30
0.000000000
 10
286.558491318
 20
234.481738753
 30
0.000000000
 10
288.160091794
 20
234.489513120
 30
0.000000000
 10
289.751510646
 20
234.491836616
 30
0.000000000
 10
291.247103726
 20
234.490668778
 30
0.000000000
 10
292.746357282
 20
234.504644193
 30
0.000000000
 10
294.232654455
 20
234.316215837
 30
0.000000000
 10
295.069052092
 20
234.208609122
 30
0.000000000
 10
295.901559553
 20
234.035989204
 30
0.000000000
 10
296.692383870
 20
233.736917083
 30
0.000000000
 10
297.515274895
 20
233.426361731
 30
0.000000000
 10
298.296313607
 20
232.964620319
 30
0.000000000
 10
298.894568614
 20
232.311138101
 30
0.000000000
 10
299.180123829
 20
231.999442146
 30
0.000000000
 10
299.418038145
 20
231.654917617
 30
0.000000000
 10
299.608311561
 20
231.277564513
 30
0.000000000
 10
299.797454706
 20
230.897226374
 30
0.000000000
 10
299.939579019
 20
230.500105801
 30
0.000000000
 10
300.034684501
 20
230.086202794
 30
0.000000000
 10
300.223183393
 20
229.283995570
 30
0.000000000
 10
300.256131065
 20
228.460238548
 30
0.000000000
 10
300.261591878
 20
227.640075400
 30
0.000000000
 10
300.260464908
 20
226.750321381
 30
0.000000000
 10
300.282424022
 20
225.858242746
 30
0.000000000
 10
300.178448772
 20
224.975703126
 30
0.000000000
 10
300.120471361
 20
224.490016980
 30
0.000000000
 10
300.022461106
 20
224.007146005
 30
0.000000000
 10
299.858865098
 20
223.545129522
 30
0.000000000
 10
299.737018366
 20
223.196932552
 30
0.000000000
 10
299.577566852
 20
222.867031971
 30
0.000000000
 10
299.380510556
 20
222.555427779
 30
0.000000000
 10
299.110506019
 20
222.130315014
 30
0.000000000
 10
298.768089803
 20
221.752793186
 30
0.000000000
 10
298.376200360
 20
221.437234427
 30
0.000000000
 10
297.812093748
 20
220.981291648
 30
0.000000000
 10
297.154463964
 20
220.653079353
 30
0.000000000
 10
296.471836899
 20
220.416898400
 30
0.000000000
  0
SPLINE
  5
C21
330
A02
100
AcDbEntity
  8
S05_Chassis_SecD
100
AcDbSpline
210
0
220
0
230
1
 70
8
 71
3
 72
17
 73
13
 74
0
 40
0.859369253
 40
0.859369253
 40
0.859369253
 40
0.859369253
 40
0.899948383
 40
0.899948383
 40
0.899948383
 40
0.931879787
 40
0.931879787
 40
0.931879787
 40
0.964062250
 40
0.964062250
 40
0.964062250
 40
1.000000000
 40
1.000000000
 40
1.000000000
 40
1.000000000
 10
283.554598963
 20
220.416576993
 30
0.000000000
 10
282.793242442
 20
220.679628508
 30
0.000000000
 10
282.061631553
 20
221.058764723
 30
0.000000000
 10
281.458440300
 20
221.599563615
 30
0.000000000
 10
280.983586303
 20
222.022392741
 30
0.000000000
 10
280.598563369
 20
222.545779084
 30
0.000000000
 10
280.336173216
 20
223.125195376
 30
0.000000000
 10
280.068958188
 20
223.709966122
 30
0.000000000
 10
279.921605580
 20
224.338052379
 30
0.000000000
 10
279.847055279
 20
224.975703126
 30
0.000000000
 10
279.763193469
 20
225.688618530
 30
0.000000000
 10
279.767174874
 20
226.417584640
 30
0.000000000
 10
279.762752025
 20
227.116869029
 30
0.000000000
  0
SPLINE
  5
C22
330
A02
100
AcDbEntity
  8
S05_Chassis_SecD
100
AcDbSpline
210
0
220
0
230
1
 70
8
 71
3
 72
17
 73
13
 74
0
 40
0.270393728
 40
0.270393728
 40
0.270393728
 40
0.270393728
 40
0.385054577
 40
0.385054577
 40
0.385054577
 40
0.523476948
 40
0.523476948
 40
0.523476948
 40
0.657276271
 40
0.657276271
 40
0.657276271
 40
0.776614432
 40
0.776614432
 40
0.776614432
 40
0.776614432
 10
299.012361969
 20
238.827636638
 30
0.000000000
 10
297.668898190
 20
239.057999727
 30
0.000000000
 10
296.305941077
 20
239.146384004
 30
0.000000000
 10
294.945278862
 20
239.196308158
 30
0.000000000
 10
293.301503693
 20
239.254303023
 30
0.000000000
 10
291.656448228
 20
239.238916939
 30
0.000000000
 10
290.011982885
 20
239.238915646
 30
0.000000000
 10
288.422421384
 20
239.238902533
 30
0.000000000
 10
286.832376422
 20
239.253201279
 30
0.000000000
 10
285.243373024
 20
239.201649443
 30
0.000000000
 10
283.827140195
 20
239.153345190
 30
0.000000000
 10
282.408056989
 20
239.066454531
 30
0.000000000
 10
281.009745168
 20
238.826587576
 30
0.000000000
  0
SPLINE
  5
C23
330
A02
100
AcDbEntity
  8
S05_Chassis_SecD
100
AcDbSpline
210
0
220
0
230
1
 70
8
 71
3
 72
20
 73
16
 74
0
 40
0.000000000
 40
0.000000000
 40
0.000000000
 40
0.000000000
 40
0.246385918
 40
0.246385918
 40
0.246385918
 40
0.363116434
 40
0.363116434
 40
0.363116434
 40
0.536367749
 40
0.536367749
 40
0.536367749
 40
0.764876813
 40
0.764876813
 40
0.764876813
 40
1.000000000
 40
1.000000000
 40
1.000000000
 40
1.000000000
 10
282.510031459
 20
238.848604859
 30
0.000000000
 10
280.963597222
 20
238.724523941
 30
0.000000000
 10
279.725576162
 20
238.436372256
 30
0.000000000
 10
278.842746946
 20
238.134956601
 30
0.000000000
 10
278.424208557
 20
237.993663193
 30
0.000000000
 10
278.084810094
 20
237.852786930
 30
0.000000000
 10
277.827606117
 20
237.737862705
 30
0.000000000
 10
277.445701201
 20
237.565982692
 30
0.000000000
 10
277.245412364
 20
237.458333408
 30
0.000000000
 10
277.231851934
 20
237.468249563
 30
0.000000000
 10
277.213329255
 20
237.474627340
 30
0.000000000
 10
277.520540726
 20
237.696152732
 30
0.000000000
 10
278.139975947
 20
237.984596268
 30
0.000000000
 10
278.776629400
 20
238.280190830
 30
0.000000000
 10
279.743898250
 20
238.618791298
 30
0.000000000
 10
281.009745168
 20
238.826587576
 30
0.000000000
  0
SPLINE
  5
C24
330
A02
100
AcDbEntity
  8
S05_Chassis_SecD
100
AcDbSpline
210
0
220
0
230
1
 70
8
 71
3
 72
17
 73
13
 74
0
 40
0.184921761
 40
0.184921761
 40
0.184921761
 40
0.184921761
 40
0.268115129
 40
0.268115129
 40
0.268115129
 40
0.407104278
 40
0.407104278
 40
0.407104278
 40
0.515458866
 40
0.515458866
 40
0.515458866
 40
0.629545010
 40
0.629545010
 40
0.629545010
 40
0.629545010
 10
297.512450838
 20
238.849396449
 30
0.000000000
 10
296.584477078
 20
238.982810116
 30
0.000000000
 10
295.648697599
 20
239.053990487
 30
0.000000000
 10
294.712587955
 20
239.098126746
 30
0.000000000
 10
293.148042237
 20
239.171093834
 30
0.000000000
 10
291.581358516
 20
239.159819557
 30
0.000000000
 10
290.015580650
 20
239.159814520
 30
0.000000000
 10
288.794817191
 20
239.159804677
 30
0.000000000
 10
287.573827292
 20
239.166676354
 30
0.000000000
 10
286.353347015
 20
239.135196543
 30
0.000000000
 10
285.068904072
 20
239.100490363
 30
0.000000000
 10
283.782925942
 20
239.030833196
 30
0.000000000
 10
282.510031460
 20
238.848604857
 30
0.000000000
  0
SPLINE
  5
C25
330
A02
100
AcDbEntity
  8
S05_Chassis_SecD
100
AcDbSpline
210
0
220
0
230
1
 70
8
 71
3
 72
20
 73
16
 74
0
 40
0.000000000
 40
0.000000000
 40
0.000000000
 40
0.000000000
 40
0.290711651
 40
0.290711651
 40
0.290711651
 40
0.404683870
 40
0.404683870
 40
0.404683870
 40
0.528416610
 40
0.528416610
 40
0.528416610
 40
0.776905594
 40
0.776905594
 40
0.776905594
 40
1.000000000
 40
1.000000000
 40
1.000000000
 40
1.000000000
 10
299.012361969
 20
238.827636637
 30
0.000000000
 10
300.577218916
 20
238.572789838
 30
0.000000000
 10
301.684059513
 20
238.109137922
 30
0.000000000
 10
302.277263240
 20
237.789166502
 30
0.000000000
 10
302.510416791
 20
237.661765656
 30
0.000000000
 10
302.664167230
 20
237.570140976
 30
0.000000000
 10
302.738514557
 20
237.514292461
 30
0.000000000
 10
302.818960390
 20
237.456536314
 30
0.000000000
 10
302.804696340
 20
237.453075583
 30
0.000000000
 10
302.695722406
 20
237.503910269
 30
0.000000000
 10
302.477415126
 20
237.602396038
 30
0.000000000
 10
301.876172338
 20
237.920256717
 30
0.000000000
 10
300.918453108
 20
238.220305032
 30
0.000000000
 10
300.059297676
 20
238.491586133
 30
0.000000000
 10
298.912176414
 20
238.736469040
 30
0.000000000
 10
297.512450838
 20
238.849396448
 30
0.000000000
  0
SPLINE
  5
C26
330
A02
100
AcDbEntity
  8
S05_Chassis_SecD
100
AcDbSpline
210
0
220
0
230
1
 70
8
 71
1
 72
4
 73
2
 74
0
 40
0.510076534
 40
0.510076534
 40
0.511847625
 40
0.511847625
 10
299.012361969
 20
238.827636637
 30
0.000000000
 10
299.012105960
 20
238.666952812
 30
0.000000000
  0
SPLINE
  5
C27
330
A02
100
AcDbEntity
  8
S05_Chassis_SecD
100
AcDbSpline
210
0
220
0
230
1
 70
8
 71
1
 72
4
 73
2
 74
0
 40
0.988108752
 40
0.988108752
 40
0.989881791
 40
0.989881791
 10
281.009675953
 20
238.665990070
 30
0.000000000
 10
281.009745168
 20
238.826587576
 30
0.000000000
  0
SPLINE
  5
C28
330
A02
100
AcDbEntity
  8
S05_Chassis_SecE
100
AcDbSpline
210
0
220
0
230
1
 70
8
 71
3
 72
77
 73
73
 74
0
 40
0.000000000
 40
0.000000000
 40
0.000000000
 40
0.000000000
 40
0.038596517
 40
0.038596517
 40
0.038596517
 40
0.061555817
 40
0.061555817
 40
0.061555817
 40
0.076901914
 40
0.076901914
 40
0.076901914
 40
0.096600961
 40
0.096600961
 40
0.096600961
 40
0.116233384
 40
0.116233384
 40
0.116233384
 40
0.136545446
 40
0.136545446
 40
0.136545446
 40
0.156039633
 40
0.156039633
 40
0.156039633
 40
0.195716688
 40
0.195716688
 40
0.195716688
 40
0.236289486
 40
0.236289486
 40
0.236289486
 40
0.272672117
 40
0.272672117
 40
0.272672117
 40
0.312045656
 40
0.312045656
 40
0.312045656
 40
0.352323099
 40
0.352323099
 40
0.352323099
 40
0.370318591
 40
0.370318591
 40
0.370318591
 40
0.389530157
 40
0.389530157
 40
0.389530157
 40
0.407462050
 40
0.407462050
 40
0.407462050
 40
0.425685874
 40
0.425685874
 40
0.425685874
 40
0.443995995
 40
0.443995995
 40
0.443995995
 40
0.463181967
 40
0.463181967
 40
0.463181967
 40
0.503879543
 40
0.503879543
 40
0.503879543
 40
0.546068341
 40
0.546068341
 40
0.546068341
 40
0.570760061
 40
0.570760061
 40
0.570760061
 40
0.591665521
 40
0.591665521
 40
0.591665521
 40
0.610082329
 40
0.610082329
 40
0.610082329
 40
0.634644055
 40
0.634644055
 40
0.634644055
 40
0.634644055
 10
273.074030713
 20
150.008476334
 30
0.000000000
 10
273.037198584
 20
148.601993180
 30
0.000000000
 10
273.000407974
 20
147.194923790
 30
0.000000000
 10
273.023894701
 20
145.787877363
 30
0.000000000
 10
273.035672284
 20
144.950622072
 30
0.000000000
 10
273.075107202
 20
144.114697123
 30
0.000000000
 10
273.142199455
 20
143.280102516
 30
0.000000000
 10
273.189863066
 20
142.722814921
 30
0.000000000
 10
273.245903338
 20
142.165550942
 30
0.000000000
 10
273.339814079
 20
141.613906117
 30
0.000000000
 10
273.460111826
 20
140.906998618
 30
0.000000000
 10
273.657028158
 20
140.206988978
 30
0.000000000
 10
273.989658575
 20
139.568986427
 30
0.000000000
 10
274.318528149
 20
138.932895090
 30
0.000000000
 10
274.789521392
 20
138.372450179
 30
0.000000000
 10
275.353760128
 20
137.932208697
 30
0.000000000
 10
275.937420937
 20
137.474688726
 30
0.000000000
 10
276.606287047
 20
137.136437827
 30
0.000000000
 10
277.298958922
 20
136.877479202
 30
0.000000000
 10
277.964847937
 20
136.628557654
 30
0.000000000
 10
278.654945230
 20
136.449524025
 30
0.000000000
 10
279.351546307
 20
136.310691028
 30
0.000000000
 10
280.771283103
 20
136.030435444
 30
0.000000000
 10
282.217090353
 20
135.910815745
 30
0.000000000
 10
283.660752562
 20
135.840606627
 30
0.000000000
 10
285.138112593
 20
135.770800045
 30
0.000000000
 10
286.617395873
 20
135.756616870
 30
0.000000000
 10
288.096186300
 20
135.754248611
 30
0.000000000
 10
289.422343558
 20
135.754324580
 30
0.000000000
 10
290.748500816
 20
135.754400550
 30
0.000000000
 10
292.074658074
 20
135.754476519
 30
0.000000000
 10
293.509741887
 20
135.757546069
 30
0.000000000
 10
294.945267373
 20
135.773059043
 30
0.000000000
 10
296.378938802
 20
135.841066696
 30
0.000000000
 10
297.844363193
 20
135.912760238
 30
0.000000000
 10
299.312240936
 20
136.035172700
 30
0.000000000
 10
300.752277767
 20
136.325917249
 30
0.000000000
 10
301.394830605
 20
136.456815149
 30
0.000000000
 10
302.031296489
 20
136.622904908
 30
0.000000000
 10
302.647843447
 20
136.847524405
 30
0.000000000
 10
303.305246354
 20
137.086972344
 30
0.000000000
 10
303.941995456
 20
137.395304257
 30
0.000000000
 10
304.509140012
 20
137.807729158
 30
0.000000000
 10
305.038883548
 20
138.190595988
 30
0.000000000
 10
305.497972490
 20
138.672882881
 30
0.000000000
 10
305.843483493
 20
139.228350727
 30
0.000000000
 10
306.195444646
 20
139.792924848
 30
0.000000000
 10
306.428127169
 20
140.424896170
 30
0.000000000
 10
306.578584278
 20
141.070993734
 30
0.000000000
 10
306.730047672
 20
141.721514974
 30
0.000000000
 10
306.804177990
 20
142.386836593
 30
0.000000000
 10
306.863438335
 20
143.051172201
 30
0.000000000
 10
306.922200675
 20
143.748251743
 30
0.000000000
 10
306.959070327
 20
144.446506591
 30
0.000000000
 10
306.974047292
 20
145.145936745
 30
0.000000000
 10
307.009455161
 20
146.629204053
 30
0.000000000
 10
306.969846374
 20
148.112735867
 30
0.000000000
 10
306.954993599
 20
149.595994954
 30
0.000000000
 10
306.937646453
 20
151.133444682
 30
0.000000000
 10
306.971307156
 20
152.672442722
 30
0.000000000
 10
306.882692863
 20
154.208290661
 30
0.000000000
 10
306.830000231
 20
155.106390977
 30
0.000000000
 10
306.739455604
 20
156.004339607
 30
0.000000000
 10
306.560078354
 20
156.886733043
 30
0.000000000
 10
306.407995864
 20
157.632967768
 30
0.000000000
 10
306.191533541
 20
158.368575129
 30
0.000000000
 10
305.878995187
 20
159.064077456
 30
0.000000000
 10
305.603939819
 20
159.676180644
 30
0.000000000
 10
305.254065411
 20
160.256140140
 30
0.000000000
 10
304.826530168
 20
160.774054414
 30
0.000000000
 10
304.257823990
 20
161.466565197
 30
0.000000000
 10
303.553894573
 20
162.042581179
 30
0.000000000
 10
302.777982397
 20
162.488200635
 30
0.000000000
  0
SPLINE
  5
C29
330
A02
100
AcDbEntity
  8
S05_Chassis_SecE
100
AcDbSpline
210
0
220
0
230
1
 70
8
 71
3
 72
14
 73
10
 74
0
 40
0.000000000
 40
0.000000000
 40
0.000000000
 40
0.000000000
 40
0.233526160
 40
0.233526160
 40
0.233526160
 40
0.348005528
 40
0.348005528
 40
0.348005528
 40
0.482425901
 40
0.482425901
 40
0.482425901
 40
0.482425901
 10
299.012361969
 20
163.846106263
 30
0.000000000
 10
300.269108236
 20
163.639655850
 30
0.000000000
 10
301.231279033
 20
163.304286878
 30
0.000000000
 10
301.867904092
 20
163.009895378
 30
0.000000000
 10
302.180168450
 20
162.866505071
 30
0.000000000
 10
302.414549727
 20
162.735926922
 30
0.000000000
 10
302.568689179
 20
162.642582627
 30
0.000000000
 10
302.749987186
 20
162.529704050
 30
0.000000000
 10
302.819751593
 20
162.478243388
 30
0.000000000
 10
302.777982400
 20
162.488200640
 30
0.000000000
  0
SPLINE
  5
C2A
330
A02
100
AcDbEntity
  8
S05_Chassis_SecE
100
AcDbSpline
210
0
220
0
230
1
 70
8
 71
3
 72
17
 73
13
 74
0
 40
0.270393728
 40
0.270393728
 40
0.270393728
 40
0.270393728
 40
0.385054577
 40
0.385054577
 40
0.385054577
 40
0.523476948
 40
0.523476948
 40
0.523476948
 40
0.657276271
 40
0.657276271
 40
0.657276271
 40
0.776614432
 40
0.776614432
 40
0.776614432
 40
0.776614432
 10
299.012361969
 20
163.846106263
 30
0.000000000
 10
297.668898190
 20
164.076469352
 30
0.000000000
 10
296.305941077
 20
164.164853630
 30
0.000000000
 10
294.945278862
 20
164.214777783
 30
0.000000000
 10
293.301503693
 20
164.272772648
 30
0.000000000
 10
291.656448228
 20
164.257386564
 30
0.000000000
 10
290.011982885
 20
164.257385272
 30
0.000000000
 10
288.422421384
 20
164.257372159
 30
0.000000000
 10
286.832376422
 20
164.271670904
 30
0.000000000
 10
285.243373024
 20
164.220119068
 30
0.000000000
 10
283.827140195
 20
164.171814815
 30
0.000000000
 10
282.408056989
 20
164.084924157
 30
0.000000000
 10
281.009745168
 20
163.845057201
 30
0.000000000
  0
SPLINE
  5
C2B
330
A02
100
AcDbEntity
  8
S05_Chassis_SecE
100
AcDbSpline
210
0
220
0
230
1
 70
8
 71
3
 72
14
 73
10
 74
0
 40
0.517576382
 40
0.517576382
 40
0.517576382
 40
0.517576382
 40
0.650416314
 40
0.650416314
 40
0.650416314
 40
0.764876813
 40
0.764876813
 40
0.764876813
 40
1.000000000
 40
1.000000000
 40
1.000000000
 40
1.000000000
 10
277.242873042
 20
162.487826529
 30
0.000000000
 10
277.201598865
 20
162.477877233
 30
0.000000000
 10
277.269245022
 20
162.527978433
 30
0.000000000
 10
277.445811515
 20
162.638130131
 30
0.000000000
 10
277.597702906
 20
162.730358532
 30
0.000000000
 10
277.829854379
 20
162.860108987
 30
0.000000000
 10
278.139975947
 20
163.003065894
 30
0.000000000
 10
278.776629400
 20
163.298660455
 30
0.000000000
 10
279.743898250
 20
163.637260923
 30
0.000000000
 10
281.009745168
 20
163.845057201
 30
0.000000000
  0
SPLINE
  5
C2C
330
A02
100
AcDbEntity
  8
S05_Chassis_SecE
100
AcDbSpline
210
0
220
0
230
1
 70
8
 71
3
 72
20
 73
16
 74
0
 40
0.873020445
 40
0.873020445
 40
0.873020445
 40
0.873020445
 40
0.885963006
 40
0.885963006
 40
0.885963006
 40
0.905489238
 40
0.905489238
 40
0.905489238
 40
0.936010563
 40
0.936010563
 40
0.936010563
 40
0.969412315
 40
0.969412315
 40
0.969412315
 40
1.000000000
 40
1.000000000
 40
1.000000000
 40
1.000000000
 10
277.242873043
 20
162.487826528
 30
0.000000000
 10
276.832699300
 20
162.252230230
 30
0.000000000
 10
276.446999185
 20
161.981798827
 30
0.000000000
 10
276.085772697
 20
161.676532321
 30
0.000000000
 10
275.543365506
 20
161.215836492
 30
0.000000000
 10
275.069879109
 20
160.673987111
 30
0.000000000
 10
274.687869013
 20
160.073463875
 30
0.000000000
 10
274.086398531
 20
159.134652245
 30
0.000000000
 10
273.713442097
 20
158.066947726
 30
0.000000000
 10
273.483512205
 20
156.980692585
 30
0.000000000
 10
273.230075679
 20
155.788705313
 30
0.000000000
 10
273.146068779
 20
154.568424862
 30
0.000000000
 10
273.114965502
 20
153.352541669
 30
0.000000000
 10
273.086162045
 20
152.238059477
 30
0.000000000
 10
273.102708481
 20
151.122959440
 30
0.000000000
 10
273.074030713
 20
150.008476334
 30
0.000000000
  0
SPLINE
  5
C2D
330
A02
100
AcDbEntity
  8
S05_Chassis_SecE
100
AcDbSpline
210
0
220
0
230
1
 70
8
 71
3
 72
11
 73
7
 74
0
 40
0.586893107
 40
0.586893107
 40
0.586893107
 40
0.586893107
 40
0.695338613
 40
0.695338613
 40
0.695338613
 40
0.803784118
 40
0.803784118
 40
0.803784118
 40
0.803784118
 10
273.074030713
 20
150.008476334
 30
0.000000000
 10
273.041434178
 20
149.987690788
 30
0.000000000
 10
273.029533928
 20
149.994636116
 30
0.000000000
 10
273.018184264
 20
150.003339120
 30
0.000000000
 10
273.010783129
 20
150.011399155
 30
0.000000000
 10
272.999092635
 20
150.021319960
 30
0.000000000
 10
273.073525880
 20
149.989125189
 30
0.000000000
  0
SPLINE
  5
C2E
330
A02
100
AcDbEntity
  8
S05_Chassis_SecE
100
AcDbSpline
210
0
220
0
230
1
 70
8
 71
3
 72
11
 73
7
 74
0
 40
0.093830096
 40
0.093830096
 40
0.093830096
 40
0.093830096
 40
0.116369999
 40
0.116369999
 40
0.116369999
 40
0.144821795
 40
0.144821795
 40
0.144821795
 40
0.144821795
 10
277.574804318
 20
157.199468670
 30
0.000000000
 10
277.942382400
 20
157.769017371
 30
0.000000000
 10
278.390627287
 20
158.286746429
 30
0.000000000
 10
278.900944662
 20
158.733170098
 30
0.000000000
 10
279.545164070
 20
159.297360637
 30
0.000000000
 10
280.286135980
 20
159.745875270
 30
0.000000000
 10
281.069731446
 20
160.087202746
 30
0.000000000
  0
SPLINE
  5
C2F
330
A02
100
AcDbEntity
  8
S05_Chassis_SecE
100
AcDbSpline
210
0
220
0
230
1
 70
8
 71
3
 72
11
 73
7
 74
0
 40
0.346414337
 40
0.346414337
 40
0.346414337
 40
0.346414337
 40
0.372645121
 40
0.372645121
 40
0.372645121
 40
0.397414111
 40
0.397414111
 40
0.397414111
 40
0.397414111
 10
298.955276447
 20
160.087420218
 30
0.000000000
 10
299.677780024
 20
159.772638589
 30
0.000000000
 10
300.363848863
 20
159.367251851
 30
0.000000000
 10
300.971573829
 20
158.863434685
 30
0.000000000
 10
301.545443975
 20
158.388442790
 30
0.000000000
 10
302.046926894
 20
157.825275291
 30
0.000000000
 10
302.450819290
 20
157.199274361
 30
0.000000000
  0
SPLINE
  5
C30
330
A02
100
AcDbEntity
  8
S05_Chassis_SecE
100
AcDbSpline
210
0
220
0
230
1
 70
8
 71
3
 72
26
 73
22
 74
0
 40
0.043050513
 40
0.043050513
 40
0.043050513
 40
0.043050513
 40
0.155085036
 40
0.155085036
 40
0.155085036
 40
0.209488645
 40
0.209488645
 40
0.209488645
 40
0.262950274
 40
0.262950274
 40
0.262950274
 40
0.316647087
 40
0.316647087
 40
0.316647087
 40
0.369843204
 40
0.369843204
 40
0.369843204
 40
0.424918230
 40
0.424918230
 40
0.424918230
 40
0.474922752
 40
0.474922752
 40
0.474922752
 40
0.474922752
 10
277.242873043
 20
162.487826529
 30
0.000000000
 10
277.270923124
 20
160.517918239
 30
0.000000000
 10
277.353012537
 20
158.542254696
 30
0.000000000
 10
277.665044216
 20
156.594010277
 30
0.000000000
 10
277.818043395
 20
155.648592111
 30
0.000000000
 10
278.028380516
 20
154.711609169
 30
0.000000000
 10
278.325726505
 20
153.800169066
 30
0.000000000
 10
278.617864676
 20
152.904912399
 30
0.000000000
 10
278.995958316
 20
152.033422063
 30
0.000000000
 10
279.495796564
 20
151.225929414
 30
0.000000000
 10
279.995912062
 20
150.417244412
 30
0.000000000
 10
280.625928258
 20
149.676929400
 30
0.000000000
 10
281.379320926
 20
149.087796065
 30
0.000000000
 10
282.123554934
 20
148.502068045
 30
0.000000000
 10
282.987493267
 20
148.072108964
 30
0.000000000
 10
283.895677039
 20
147.802635447
 30
0.000000000
 10
284.837235207
 20
147.519465130
 30
0.000000000
 10
285.804515126
 20
147.398671417
 30
0.000000000
 10
286.764863685
 20
147.331735289
 30
0.000000000
 10
287.635691132
 20
147.273307551
 30
0.000000000
 10
288.507246030
 20
147.262975611
 30
0.000000000
 10
289.379093103
 20
147.260801905
 30
0.000000000
  0
SPLINE
  5
C31
330
A02
100
AcDbEntity
  8
S05_Chassis_SecE
100
AcDbSpline
210
0
220
0
230
1
 70
8
 71
1
 72
4
 73
2
 74
0
 40
0.474922752
 40
0.474922752
 40
0.499154960
 40
0.499154960
 10
289.379093103
 20
147.260801905
 30
0.000000000
 10
290.646485267
 20
147.260802091
 30
0.000000000
  0
SPLINE
  5
C32
330
A02
100
AcDbEntity
  8
S05_Chassis_SecE
100
AcDbSpline
210
0
220
0
230
1
 70
8
 71
3
 72
26
 73
22
 74
0
 40
0.499154960
 40
0.499154960
 40
0.499154960
 40
0.499154960
 40
0.553663161
 40
0.553663161
 40
0.553663161
 40
0.608194310
 40
0.608194310
 40
0.608194310
 40
0.658963095
 40
0.658963095
 40
0.658963095
 40
0.713571982
 40
0.713571982
 40
0.713571982
 40
0.763909690
 40
0.763909690
 40
0.763909690
 40
0.821222478
 40
0.821222478
 40
0.821222478
 40
0.936633573
 40
0.936633573
 40
0.936633573
 40
0.936633573
 10
290.646485267
 20
147.260802091
 30
0.000000000
 10
291.596768293
 20
147.263342311
 30
0.000000000
 10
292.547210265
 20
147.274903953
 30
0.000000000
 10
293.495911281
 20
147.348976174
 30
0.000000000
 10
294.446052681
 20
147.425261668
 30
0.000000000
 10
295.395921081
 20
147.561693716
 30
0.000000000
 10
296.309234933
 20
147.858681412
 30
0.000000000
 10
297.160083710
 20
148.130926682
 30
0.000000000
 10
297.968081991
 20
148.550530011
 30
0.000000000
 10
298.667437102
 20
149.104501643
 30
0.000000000
 10
299.420583911
 20
149.698469856
 30
0.000000000
 10
300.045462767
 20
150.438322446
 30
0.000000000
 10
300.543715058
 20
151.248606862
 30
0.000000000
 10
301.004376249
 20
151.997399140
 30
0.000000000
 10
301.360986786
 20
152.800580039
 30
0.000000000
 10
301.642005964
 20
153.626678922
 30
0.000000000
 10
301.961958275
 20
154.568035549
 30
0.000000000
 10
302.185879238
 20
155.538153871
 30
0.000000000
 10
302.347797394
 20
156.517043405
 30
0.000000000
 10
302.672722156
 20
158.490326681
 30
0.000000000
 10
302.753229838
 20
160.492985509
 30
0.000000000
 10
302.777982400
 20
162.488200640
 30
0.000000000
  0
SPLINE
  5
C33
330
A02
100
AcDbEntity
  8
S05_Chassis_SecE
100
AcDbSpline
210
0
220
0
230
1
 70
8
 71
3
 72
53
 73
49
 74
0
 40
0.510076534
 40
0.510076534
 40
0.510076534
 40
0.510076534
 40
0.558858070
 40
0.558858070
 40
0.558858070
 40
0.592728341
 40
0.592728341
 40
0.592728341
 40
0.627546089
 40
0.627546089
 40
0.627546089
 40
0.655783800
 40
0.655783800
 40
0.655783800
 40
0.688478802
 40
0.688478802
 40
0.688478802
 40
0.703932371
 40
0.703932371
 40
0.703932371
 40
0.721149050
 40
0.721149050
 40
0.721149050
 40
0.750000000
 40
0.750000000
 40
0.750000000
 40
0.778850950
 40
0.778850950
 40
0.778850950
 40
0.796067629
 40
0.796067629
 40
0.796067629
 40
0.811521198
 40
0.811521198
 40
0.811521198
 40
0.844216200
 40
0.844216200
 40
0.844216200
 40
0.872453911
 40
0.872453911
 40
0.872453911
 40
0.907271659
 40
0.907271659
 40
0.907271659
 40
0.941141930
 40
0.941141930
 40
0.941141930
 40
0.989881791
 40
0.989881791
 40
0.989881791
 40
0.989881791
 10
299.012361969
 20
163.846106263
 30
0.000000000
 10
299.010391645
 20
162.370847262
 30
0.000000000
 10
298.998511363
 20
160.895850660
 30
0.000000000
 10
298.926811515
 20
159.422433940
 30
0.000000000
 10
298.876984209
 20
158.399438196
 30
0.000000000
 10
298.797978452
 20
157.377498014
 30
0.000000000
 10
298.668089274
 20
156.361236361
 30
0.000000000
 10
298.534022731
 20
155.317046969
 30
0.000000000
 10
298.346628480
 20
154.278041309
 30
0.000000000
 10
298.065833205
 20
153.262386189
 30
0.000000000
 10
297.837055107
 20
152.440038702
 30
0.000000000
 10
297.546902920
 20
151.631116847
 30
0.000000000
 10
297.156056759
 20
150.870579450
 30
0.000000000
 10
296.705500924
 20
149.992026125
 30
0.000000000
 10
296.108680698
 20
149.172517714
 30
0.000000000
 10
295.329021900
 20
148.556224101
 30
0.000000000
 10
294.959277137
 20
148.264267963
 30
0.000000000
 10
294.558414625
 20
148.024229303
 30
0.000000000
 10
294.126434364
 20
147.836108123
 30
0.000000000
 10
293.647821268
 20
147.628221494
 30
0.000000000
 10
293.139448989
 20
147.490448054
 30
0.000000000
 10
292.625700246
 20
147.404271038
 30
0.000000000
 10
291.764782805
 20
147.259859403
 30
0.000000000
 10
290.888767410
 20
147.260338659
 30
0.000000000
 10
290.012752026
 20
147.260338654
 30
0.000000000
 10
289.136736641
 20
147.260338650
 30
0.000000000
 10
288.260721266
 20
147.259859385
 30
0.000000000
 10
287.399803805
 20
147.404271038
 30
0.000000000
 10
286.886055050
 20
147.490448065
 30
0.000000000
 10
286.377682743
 20
147.628221526
 30
0.000000000
 10
285.899069687
 20
147.836108123
 30
0.000000000
 10
285.467089506
 20
148.024229239
 30
0.000000000
 10
285.066226994
 20
148.264267898
 30
0.000000000
 10
284.696482150
 20
148.556224101
 30
0.000000000
 10
283.916821641
 20
149.172519089
 30
0.000000000
 10
283.320005648
 20
149.992024099
 30
0.000000000
 10
282.869447292
 20
150.870579450
 30
0.000000000
 10
282.478593994
 20
151.631122578
 30
0.000000000
 10
282.188441362
 20
152.440044791
 30
0.000000000
 10
281.959687460
 20
153.262372847
 30
0.000000000
 10
281.678965076
 20
154.277969432
 30
0.000000000
 10
281.491314945
 20
155.317180576
 30
0.000000000
 10
281.357341588
 20
156.361295136
 30
0.000000000
 10
281.227528471
 20
157.377495707
 30
0.000000000
 10
281.149502593
 20
158.398648997
 30
0.000000000
 10
281.098921774
 20
159.422249850
 30
0.000000000
 10
281.026256609
 20
160.895232184
 30
0.000000000
 10
281.008400865
 20
162.373733092
 30
0.000000000
 10
281.009745168
 20
163.845057201
 30
0.000000000
  0
SPLINE
  5
C34
330
A02
100
AcDbEntity
  8
S05_Chassis_SecE
100
AcDbSpline
210
0
220
0
230
1
 70
8
 71
3
 72
77
 73
73
 74
0
 40
0.000000000
 40
0.000000000
 40
0.000000000
 40
0.000000000
 40
0.038596517
 40
0.038596517
 40
0.038596517
 40
0.061555817
 40
0.061555817
 40
0.061555817
 40
0.076901914
 40
0.076901914
 40
0.076901914
 40
0.096600961
 40
0.096600961
 40
0.096600961
 40
0.116233384
 40
0.116233384
 40
0.116233384
 40
0.136545446
 40
0.136545446
 40
0.136545446
 40
0.156039633
 40
0.156039633
 40
0.156039633
 40
0.195716688
 40
0.195716688
 40
0.195716688
 40
0.236289486
 40
0.236289486
 40
0.236289486
 40
0.272672117
 40
0.272672117
 40
0.272672117
 40
0.312045656
 40
0.312045656
 40
0.312045656
 40
0.352323099
 40
0.352323099
 40
0.352323099
 40
0.370318591
 40
0.370318591
 40
0.370318591
 40
0.389530157
 40
0.389530157
 40
0.389530157
 40
0.407462050
 40
0.407462050
 40
0.407462050
 40
0.425685874
 40
0.425685874
 40
0.425685874
 40
0.443995995
 40
0.443995995
 40
0.443995995
 40
0.463181967
 40
0.463181967
 40
0.463181967
 40
0.503879543
 40
0.503879543
 40
0.503879543
 40
0.546068341
 40
0.546068341
 40
0.546068341
 40
0.570760061
 40
0.570760061
 40
0.570760061
 40
0.591665521
 40
0.591665521
 40
0.591665521
 40
0.610082329
 40
0.610082329
 40
0.610082329
 40
0.634644055
 40
0.634644055
 40
0.634644055
 40
0.634644055
 10
273.074030713
 20
150.008476334
 30
0.000000000
 10
273.037198584
 20
148.601993180
 30
0.000000000
 10
273.000407974
 20
147.194923790
 30
0.000000000
 10
273.023894701
 20
145.787877363
 30
0.000000000
 10
273.035672284
 20
144.950622072
 30
0.000000000
 10
273.075107202
 20
144.114697123
 30
0.000000000
 10
273.142199455
 20
143.280102516
 30
0.000000000
 10
273.189863066
 20
142.722814921
 30
0.000000000
 10
273.245903338
 20
142.165550942
 30
0.000000000
 10
273.339814079
 20
141.613906117
 30
0.000000000
 10
273.460111826
 20
140.906998618
 30
0.000000000
 10
273.657028158
 20
140.206988978
 30
0.000000000
 10
273.989658575
 20
139.568986427
 30
0.000000000
 10
274.318528149
 20
138.932895090
 30
0.000000000
 10
274.789521392
 20
138.372450179
 30
0.000000000
 10
275.353760128
 20
137.932208697
 30
0.000000000
 10
275.937420937
 20
137.474688726
 30
0.000000000
 10
276.606287047
 20
137.136437827
 30
0.000000000
 10
277.298958922
 20
136.877479202
 30
0.000000000
 10
277.964847937
 20
136.628557654
 30
0.000000000
 10
278.654945230
 20
136.449524025
 30
0.000000000
 10
279.351546307
 20
136.310691028
 30
0.000000000
 10
280.771283103
 20
136.030435444
 30
0.000000000
 10
282.217090353
 20
135.910815745
 30
0.000000000
 10
283.660752562
 20
135.840606627
 30
0.000000000
 10
285.138112593
 20
135.770800045
 30
0.000000000
 10
286.617395873
 20
135.756616870
 30
0.000000000
 10
288.096186300
 20
135.754248611
 30
0.000000000
 10
289.422343558
 20
135.754324580
 30
0.000000000
 10
290.748500816
 20
135.754400550
 30
0.000000000
 10
292.074658074
 20
135.754476519
 30
0.000000000
 10
293.509741887
 20
135.757546069
 30
0.000000000
 10
294.945267373
 20
135.773059043
 30
0.000000000
 10
296.378938802
 20
135.841066696
 30
0.000000000
 10
297.844363193
 20
135.912760238
 30
0.000000000
 10
299.312240936
 20
136.035172700
 30
0.000000000
 10
300.752277767
 20
136.325917249
 30
0.000000000
 10
301.394830605
 20
136.456815149
 30
0.000000000
 10
302.031296489
 20
136.622904908
 30
0.000000000
 10
302.647843447
 20
136.847524405
 30
0.000000000
 10
303.305246354
 20
137.086972344
 30
0.000000000
 10
303.941995456
 20
137.395304257
 30
0.000000000
 10
304.509140012
 20
137.807729158
 30
0.000000000
 10
305.038883548
 20
138.190595988
 30
0.000000000
 10
305.497972490
 20
138.672882881
 30
0.000000000
 10
305.843483493
 20
139.228350727
 30
0.000000000
 10
306.195444646
 20
139.792924848
 30
0.000000000
 10
306.428127169
 20
140.424896170
 30
0.000000000
 10
306.578584278
 20
141.070993734
 30
0.000000000
 10
306.730047672
 20
141.721514974
 30
0.000000000
 10
306.804177990
 20
142.386836593
 30
0.000000000
 10
306.863438335
 20
143.051172201
 30
0.000000000
 10
306.922200675
 20
143.748251743
 30
0.000000000
 10
306.959070327
 20
144.446506591
 30
0.000000000
 10
306.974047292
 20
145.145936745
 30
0.000000000
 10
307.009455161
 20
146.629204053
 30
0.000000000
 10
306.969846374
 20
148.112735867
 30
0.000000000
 10
306.954993599
 20
149.595994954
 30
0.000000000
 10
306.937646453
 20
151.133444682
 30
0.000000000
 10
306.971307156
 20
152.672442722
 30
0.000000000
 10
306.882692863
 20
154.208290661
 30
0.000000000
 10
306.830000231
 20
155.106390977
 30
0.000000000
 10
306.739455604
 20
156.004339607
 30
0.000000000
 10
306.560078354
 20
156.886733043
 30
0.000000000
 10
306.407995864
 20
157.632967768
 30
0.000000000
 10
306.191533541
 20
158.368575129
 30
0.000000000
 10
305.878995187
 20
159.064077456
 30
0.000000000
 10
305.603939819
 20
159.676180644
 30
0.000000000
 10
305.254065411
 20
160.256140140
 30
0.000000000
 10
304.826530168
 20
160.774054414
 30
0.000000000
 10
304.257823990
 20
161.466565197
 30
0.000000000
 10
303.553894573
 20
162.042581179
 30
0.000000000
 10
302.777982397
 20
162.488200635
 30
0.000000000
  0
SPLINE
  5
C35
330
A02
100
AcDbEntity
  8
S05_Chassis_SecE
100
AcDbSpline
210
0
220
0
230
1
 70
8
 71
3
 72
14
 73
10
 74
0
 40
0.000000000
 40
0.000000000
 40
0.000000000
 40
0.000000000
 40
0.233526160
 40
0.233526160
 40
0.233526160
 40
0.348005528
 40
0.348005528
 40
0.348005528
 40
0.482425901
 40
0.482425901
 40
0.482425901
 40
0.482425901
 10
299.012361969
 20
163.846106263
 30
0.000000000
 10
300.269108236
 20
163.639655850
 30
0.000000000
 10
301.231279033
 20
163.304286878
 30
0.000000000
 10
301.867904092
 20
163.009895378
 30
0.000000000
 10
302.180168450
 20
162.866505071
 30
0.000000000
 10
302.414549727
 20
162.735926922
 30
0.000000000
 10
302.568689179
 20
162.642582627
 30
0.000000000
 10
302.749987186
 20
162.529704050
 30
0.000000000
 10
302.819751593
 20
162.478243388
 30
0.000000000
 10
302.777982400
 20
162.488200640
 30
0.000000000
  0
SPLINE
  5
C36
330
A02
100
AcDbEntity
  8
S05_Chassis_SecE
100
AcDbSpline
210
0
220
0
230
1
 70
8
 71
3
 72
14
 73
10
 74
0
 40
0.517576382
 40
0.517576382
 40
0.517576382
 40
0.517576382
 40
0.650416314
 40
0.650416314
 40
0.650416314
 40
0.764876813
 40
0.764876813
 40
0.764876813
 40
1.000000000
 40
1.000000000
 40
1.000000000
 40
1.000000000
 10
277.242873042
 20
162.487826529
 30
0.000000000
 10
277.201598865
 20
162.477877233
 30
0.000000000
 10
277.269245022
 20
162.527978433
 30
0.000000000
 10
277.445811515
 20
162.638130131
 30
0.000000000
 10
277.597702906
 20
162.730358532
 30
0.000000000
 10
277.829854379
 20
162.860108987
 30
0.000000000
 10
278.139975947
 20
163.003065894
 30
0.000000000
 10
278.776629400
 20
163.298660455
 30
0.000000000
 10
279.743898250
 20
163.637260923
 30
0.000000000
 10
281.009745168
 20
163.845057201
 30
0.000000000
  0
SPLINE
  5
C37
330
A02
100
AcDbEntity
  8
S05_Chassis_SecE
100
AcDbSpline
210
0
220
0
230
1
 70
8
 71
3
 72
20
 73
16
 74
0
 40
0.873020445
 40
0.873020445
 40
0.873020445
 40
0.873020445
 40
0.885963006
 40
0.885963006
 40
0.885963006
 40
0.905489238
 40
0.905489238
 40
0.905489238
 40
0.936010563
 40
0.936010563
 40
0.936010563
 40
0.969412315
 40
0.969412315
 40
0.969412315
 40
1.000000000
 40
1.000000000
 40
1.000000000
 40
1.000000000
 10
277.242873043
 20
162.487826528
 30
0.000000000
 10
276.832699300
 20
162.252230230
 30
0.000000000
 10
276.446999185
 20
161.981798827
 30
0.000000000
 10
276.085772697
 20
161.676532321
 30
0.000000000
 10
275.543365506
 20
161.215836492
 30
0.000000000
 10
275.069879109
 20
160.673987111
 30
0.000000000
 10
274.687869013
 20
160.073463875
 30
0.000000000
 10
274.086398531
 20
159.134652245
 30
0.000000000
 10
273.713442097
 20
158.066947726
 30
0.000000000
 10
273.483512205
 20
156.980692585
 30
0.000000000
 10
273.230075679
 20
155.788705313
 30
0.000000000
 10
273.146068779
 20
154.568424862
 30
0.000000000
 10
273.114965502
 20
153.352541669
 30
0.000000000
 10
273.086162045
 20
152.238059477
 30
0.000000000
 10
273.102708481
 20
151.122959440
 30
0.000000000
 10
273.074030713
 20
150.008476334
 30
0.000000000
  0
SPLINE
  5
C38
330
A02
100
AcDbEntity
  8
S05_Chassis_SecE
100
AcDbSpline
210
0
220
0
230
1
 70
8
 71
3
 72
11
 73
7
 74
0
 40
0.586893107
 40
0.586893107
 40
0.586893107
 40
0.586893107
 40
0.695338613
 40
0.695338613
 40
0.695338613
 40
0.803784118
 40
0.803784118
 40
0.803784118
 40
0.803784118
 10
273.074030713
 20
150.008476334
 30
0.000000000
 10
273.041434178
 20
149.987690788
 30
0.000000000
 10
273.029533928
 20
149.994636116
 30
0.000000000
 10
273.018184264
 20
150.003339120
 30
0.000000000
 10
273.010783129
 20
150.011399155
 30
0.000000000
 10
272.999092635
 20
150.021319960
 30
0.000000000
 10
273.073525880
 20
149.989125189
 30
0.000000000
  0
SPLINE
  5
C39
330
A02
100
AcDbEntity
  8
S05_Chassis_SecE
100
AcDbSpline
210
0
220
0
230
1
 70
8
 71
3
 72
26
 73
22
 74
0
 40
0.043050513
 40
0.043050513
 40
0.043050513
 40
0.043050513
 40
0.155085036
 40
0.155085036
 40
0.155085036
 40
0.209488645
 40
0.209488645
 40
0.209488645
 40
0.262950274
 40
0.262950274
 40
0.262950274
 40
0.316647087
 40
0.316647087
 40
0.316647087
 40
0.369843204
 40
0.369843204
 40
0.369843204
 40
0.424918230
 40
0.424918230
 40
0.424918230
 40
0.474922752
 40
0.474922752
 40
0.474922752
 40
0.474922752
 10
277.242873043
 20
162.487826529
 30
0.000000000
 10
277.270923124
 20
160.517918239
 30
0.000000000
 10
277.353012537
 20
158.542254696
 30
0.000000000
 10
277.665044216
 20
156.594010277
 30
0.000000000
 10
277.818043395
 20
155.648592111
 30
0.000000000
 10
278.028380516
 20
154.711609169
 30
0.000000000
 10
278.325726505
 20
153.800169066
 30
0.000000000
 10
278.617864676
 20
152.904912399
 30
0.000000000
 10
278.995958316
 20
152.033422063
 30
0.000000000
 10
279.495796564
 20
151.225929414
 30
0.000000000
 10
279.995912062
 20
150.417244412
 30
0.000000000
 10
280.625928258
 20
149.676929400
 30
0.000000000
 10
281.379320926
 20
149.087796065
 30
0.000000000
 10
282.123554934
 20
148.502068045
 30
0.000000000
 10
282.987493267
 20
148.072108964
 30
0.000000000
 10
283.895677039
 20
147.802635447
 30
0.000000000
 10
284.837235207
 20
147.519465130
 30
0.000000000
 10
285.804515126
 20
147.398671417
 30
0.000000000
 10
286.764863685
 20
147.331735289
 30
0.000000000
 10
287.635691132
 20
147.273307551
 30
0.000000000
 10
288.507246030
 20
147.262975611
 30
0.000000000
 10
289.379093103
 20
147.260801905
 30
0.000000000
  0
SPLINE
  5
C3A
330
A02
100
AcDbEntity
  8
S05_Chassis_SecE
100
AcDbSpline
210
0
220
0
230
1
 70
8
 71
1
 72
4
 73
2
 74
0
 40
0.474922752
 40
0.474922752
 40
0.499154960
 40
0.499154960
 10
289.379093103
 20
147.260801905
 30
0.000000000
 10
290.646485267
 20
147.260802091
 30
0.000000000
  0
SPLINE
  5
C3B
330
A02
100
AcDbEntity
  8
S05_Chassis_SecE
100
AcDbSpline
210
0
220
0
230
1
 70
8
 71
3
 72
26
 73
22
 74
0
 40
0.499154960
 40
0.499154960
 40
0.499154960
 40
0.499154960
 40
0.553663161
 40
0.553663161
 40
0.553663161
 40
0.608194310
 40
0.608194310
 40
0.608194310
 40
0.658963095
 40
0.658963095
 40
0.658963095
 40
0.713571982
 40
0.713571982
 40
0.713571982
 40
0.763909690
 40
0.763909690
 40
0.763909690
 40
0.821222478
 40
0.821222478
 40
0.821222478
 40
0.936633573
 40
0.936633573
 40
0.936633573
 40
0.936633573
 10
290.646485267
 20
147.260802091
 30
0.000000000
 10
291.596768293
 20
147.263342311
 30
0.000000000
 10
292.547210265
 20
147.274903953
 30
0.000000000
 10
293.495911281
 20
147.348976174
 30
0.000000000
 10
294.446052681
 20
147.425261668
 30
0.000000000
 10
295.395921081
 20
147.561693716
 30
0.000000000
 10
296.309234933
 20
147.858681412
 30
0.000000000
 10
297.160083710
 20
148.130926682
 30
0.000000000
 10
297.968081991
 20
148.550530011
 30
0.000000000
 10
298.667437102
 20
149.104501643
 30
0.000000000
 10
299.420583911
 20
149.698469856
 30
0.000000000
 10
300.045462767
 20
150.438322446
 30
0.000000000
 10
300.543715058
 20
151.248606862
 30
0.000000000
 10
301.004376249
 20
151.997399140
 30
0.000000000
 10
301.360986786
 20
152.800580039
 30
0.000000000
 10
301.642005964
 20
153.626678922
 30
0.000000000
 10
301.961958275
 20
154.568035549
 30
0.000000000
 10
302.185879238
 20
155.538153871
 30
0.000000000
 10
302.347797394
 20
156.517043405
 30
0.000000000
 10
302.672722156
 20
158.490326681
 30
0.000000000
 10
302.753229838
 20
160.492985509
 30
0.000000000
 10
302.777982400
 20
162.488200640
 30
0.000000000
  0
SPLINE
  5
C3C
330
A02
100
AcDbEntity
  8
S05_Chassis_SecE
100
AcDbSpline
210
0
220
0
230
1
 70
8
 71
1
 72
4
 73
2
 74
0
 40
0.017726594
 40
0.017726594
 40
0.044320912
 40
0.044320912
 10
290.935625122
 20
147.261846731
 30
0.000000000
 10
291.370323688
 20
147.265311690
 30
0.000000000
  0
SPLINE
  5
C3D
330
A02
100
AcDbEntity
  8
S05_Chassis_SecE
100
AcDbSpline
210
0
220
0
230
1
 70
8
 71
1
 72
4
 73
2
 74
0
 40
0.078642849
 40
0.078642849
 40
0.107635480
 40
0.107635480
 10
291.931776062
 20
147.274691498
 30
0.000000000
 10
292.406105070
 20
147.288472947
 30
0.000000000
  0
SPLINE
  5
C3E
330
A02
100
AcDbEntity
  8
S05_Chassis_SecE
100
AcDbSpline
210
0
220
0
230
1
 70
8
 71
1
 72
4
 73
2
 74
0
 40
0.203108756
 40
0.203108756
 40
0.221346989
 40
0.221346989
 10
293.970663580
 20
147.392476881
 30
0.000000000
 10
294.313267155
 20
147.431977891
 30
0.000000000
  0
SPLINE
  5
C3F
330
A02
100
AcDbEntity
  8
S05_Chassis_SecE
100
AcDbSpline
210
0
220
0
230
1
 70
8
 71
2
 72
6
 73
3
 74
0
 40
0.936963197
 40
0.936963197
 40
0.936963197
 40
1.000000000
 40
1.000000000
 40
1.000000000
 10
302.789687736
 20
162.481433571
 30
0.000000000
 10
302.796652100
 20
163.105413381
 30
0.000000000
 10
302.797720166
 20
163.729438096
 30
0.000000000
  0
SPLINE
  5
C40
330
A02
100
AcDbEntity
  8
S05_Chassis_SecE
100
AcDbSpline
210
0
220
0
230
1
 70
8
 71
2
 72
6
 73
3
 74
0
 40
0.000000000
 40
0.000000000
 40
0.000000000
 40
0.055196434
 40
0.055196434
 40
0.055196434
 10
277.223777833
 20
163.730615944
 30
0.000000000
 10
277.223603649
 20
163.105810967
 30
0.000000000
 10
277.231180574
 20
162.481060720
 30
0.000000000
  0
SPLINE
  5
C41
330
A02
100
AcDbEntity
  8
S05_Chassis_SecE
100
AcDbSpline
210
0
220
0
230
1
 70
8
 71
1
 72
4
 73
2
 74
0
 40
0.783503885
 40
0.783503885
 40
0.799532417
 40
0.799532417
 10
285.571900883
 20
147.450341748
 30
0.000000000
 10
285.856132708
 20
147.414499978
 30
0.000000000
  0
SPLINE
  5
C42
330
A02
100
AcDbEntity
  8
S05_Chassis_SecE
100
AcDbSpline
210
0
220
0
230
1
 70
8
 71
1
 72
4
 73
2
 74
0
 40
0.850946542
 40
0.850946542
 40
0.866475771
 40
0.866475771
 10
286.756877290
 20
147.332277592
 30
0.000000000
 10
287.029497689
 20
147.315350490
 30
0.000000000
  0
SPLINE
  5
C43
330
A02
100
AcDbEntity
  8
S05_Chassis_SecE
100
AcDbSpline
210
0
220
0
230
1
 70
8
 71
1
 72
4
 73
2
 74
0
 40
0.901304455
 40
0.901304455
 40
0.928923802
 40
0.928923802
 10
287.642223280
 20
147.287664430
 30
0.000000000
 10
288.128661050
 20
147.273908741
 30
0.000000000
  0
SPLINE
  5
C44
330
A02
100
AcDbEntity
  8
S05_Chassis_SecE
100
AcDbSpline
210
0
220
0
230
1
 70
8
 71
1
 72
4
 73
2
 74
0
 40
0.960058445
 40
0.960058445
 40
0.983182053
 40
0.983182053
 10
288.676900411
 20
147.265071108
 30
0.000000000
 10
289.083761392
 20
147.261878034
 30
0.000000000
  0
SPLINE
  5
C45
330
A02
100
AcDbEntity
  8
S05_Chassis_SecE
100
AcDbSpline
210
0
220
0
230
1
 70
8
 71
1
 72
4
 73
2
 74
0
 40
0.017726594
 40
0.017726594
 40
0.044320912
 40
0.044320912
 10
290.935625122
 20
147.261846731
 30
0.000000000
 10
291.370323688
 20
147.265311690
 30
0.000000000
  0
SPLINE
  5
C46
330
A02
100
AcDbEntity
  8
S05_Chassis_SecE
100
AcDbSpline
210
0
220
0
230
1
 70
8
 71
1
 72
4
 73
2
 74
0
 40
0.078642849
 40
0.078642849
 40
0.107635480
 40
0.107635480
 10
291.931776062
 20
147.274691498
 30
0.000000000
 10
292.406105070
 20
147.288472947
 30
0.000000000
  0
SPLINE
  5
C47
330
A02
100
AcDbEntity
  8
S05_Chassis_SecE
100
AcDbSpline
210
0
220
0
230
1
 70
8
 71
1
 72
4
 73
2
 74
0
 40
0.203108756
 40
0.203108756
 40
0.221346989
 40
0.221346989
 10
293.970663580
 20
147.392476881
 30
0.000000000
 10
294.313267155
 20
147.431977891
 30
0.000000000
  0
SPLINE
  5
C48
330
A02
100
AcDbEntity
  8
S05_Chassis_SecE
100
AcDbSpline
210
0
220
0
230
1
 70
8
 71
2
 72
6
 73
3
 74
0
 40
0.936963197
 40
0.936963197
 40
0.936963197
 40
1.000000000
 40
1.000000000
 40
1.000000000
 10
302.789687736
 20
162.481433571
 30
0.000000000
 10
302.796652100
 20
163.105413381
 30
0.000000000
 10
302.797720166
 20
163.729438096
 30
0.000000000
  0
SPLINE
  5
C49
330
A02
100
AcDbEntity
  8
S05_Chassis_SecE
100
AcDbSpline
210
0
220
0
230
1
 70
8
 71
2
 72
6
 73
3
 74
0
 40
0.000000000
 40
0.000000000
 40
0.000000000
 40
0.055196434
 40
0.055196434
 40
0.055196434
 10
277.223777833
 20
163.730615944
 30
0.000000000
 10
277.223603649
 20
163.105810967
 30
0.000000000
 10
277.231180574
 20
162.481060720
 30
0.000000000
  0
SPLINE
  5
C4A
330
A02
100
AcDbEntity
  8
S05_Chassis_SecE
100
AcDbSpline
210
0
220
0
230
1
 70
8
 71
1
 72
4
 73
2
 74
0
 40
0.783503885
 40
0.783503885
 40
0.799532417
 40
0.799532417
 10
285.571900883
 20
147.450341748
 30
0.000000000
 10
285.856132708
 20
147.414499978
 30
0.000000000
  0
SPLINE
  5
C4B
330
A02
100
AcDbEntity
  8
S05_Chassis_SecE
100
AcDbSpline
210
0
220
0
230
1
 70
8
 71
1
 72
4
 73
2
 74
0
 40
0.850946542
 40
0.850946542
 40
0.866475771
 40
0.866475771
 10
286.756877290
 20
147.332277592
 30
0.000000000
 10
287.029497689
 20
147.315350490
 30
0.000000000
  0
SPLINE
  5
C4C
330
A02
100
AcDbEntity
  8
S05_Chassis_SecE
100
AcDbSpline
210
0
220
0
230
1
 70
8
 71
1
 72
4
 73
2
 74
0
 40
0.901304455
 40
0.901304455
 40
0.928923802
 40
0.928923802
 10
287.642223280
 20
147.287664430
 30
0.000000000
 10
288.128661050
 20
147.273908741
 30
0.000000000
  0
SPLINE
  5
C4D
330
A02
100
AcDbEntity
  8
S05_Chassis_SecE
100
AcDbSpline
210
0
220
0
230
1
 70
8
 71
1
 72
4
 73
2
 74
0
 40
0.960058445
 40
0.960058445
 40
0.983182053
 40
0.983182053
 10
288.676900411
 20
147.265071108
 30
0.000000000
 10
289.083761392
 20
147.261878034
 30
0.000000000
  0
SPLINE
  5
C4E
330
A02
100
AcDbEntity
  8
S05_Chassis_SecF
100
AcDbSpline
210
0
220
0
230
1
 70
9
 71
3
 72
101
 73
97
 74
0
 40
0.000000000
 40
0.000000000
 40
0.000000000
 40
0.000000000
 40
0.063461334
 40
0.063461334
 40
0.063461334
 40
0.084284873
 40
0.084284873
 40
0.084284873
 40
0.097305214
 40
0.097305214
 40
0.097305214
 40
0.110530778
 40
0.110530778
 40
0.110530778
 40
0.125650057
 40
0.125650057
 40
0.125650057
 40
0.151253594
 40
0.151253594
 40
0.151253594
 40
0.178842688
 40
0.178842688
 40
0.178842688
 40
0.217613663
 40
0.217613663
 40
0.217613663
 40
0.248889850
 40
0.248889850
 40
0.248889850
 40
0.307444953
 40
0.307444953
 40
0.307444953
 40
0.332528871
 40
0.332528871
 40
0.332528871
 40
0.370019504
 40
0.370019504
 40
0.370019504
 40
0.384529069
 40
0.384529069
 40
0.384529069
 40
0.407770866
 40
0.407770866
 40
0.407770866
 40
0.436203356
 40
0.436203356
 40
0.436203356
 40
0.497287546
 40
0.497287546
 40
0.497287546
 40
0.522994582
 40
0.522994582
 40
0.522994582
 40
0.553267273
 40
0.553267273
 40
0.553267273
 40
0.586478065
 40
0.586478065
 40
0.586478065
 40
0.607698141
 40
0.607698141
 40
0.607698141
 40
0.622716441
 40
0.622716441
 40
0.622716441
 40
0.652238253
 40
0.652238253
 40
0.652238253
 40
0.680039782
 40
0.680039782
 40
0.680039782
 40
0.708126695
 40
0.708126695
 40
0.708126695
 40
0.749597916
 40
0.749597916
 40
0.749597916
 40
0.806062186
 40
0.806062186
 40
0.806062186
 40
0.835953196
 40
0.835953196
 40
0.835953196
 40
0.870463121
 40
0.870463121
 40
0.870463121
 40
0.900195645
 40
0.900195645
 40
0.900195645
 40
0.934323965
 40
0.934323965
 40
0.934323965
 40
0.963063251
 40
0.963063251
 40
0.963063251
 40
1.000000000
 40
1.000000000
 40
1.000000000
 40
1.000000000
 10
354.006194293
 20
149.999875030
 30
0.000000000
 10
353.963282407
 20
147.812071746
 30
0.000000000
 10
353.896907309
 20
145.618136175
 30
0.000000000
 10
354.091418452
 20
143.435255906
 30
0.000000000
 10
354.156498423
 20
142.720494517
 30
0.000000000
 10
354.239316407
 20
142.003442984
 30
0.000000000
 10
354.427152556
 20
141.309032548
 30
0.000000000
 10
354.542665970
 20
140.872840434
 30
0.000000000
 10
354.705251286
 20
140.455088631
 30
0.000000000
 10
354.914908504
 20
140.055777141
 30
0.000000000
 10
355.131243758
 20
139.650653123
 30
0.000000000
 10
355.399201976
 20
139.283152222
 30
0.000000000
 10
355.718783160
 20
138.953274438
 30
0.000000000
 10
356.081740184
 20
138.578022062
 30
0.000000000
 10
356.505185185
 20
138.264586068
 30
0.000000000
 10
356.957144209
 20
138.004829583
 30
0.000000000
 10
357.724800582
 20
137.564934342
 30
0.000000000
 10
358.568743608
 20
137.274848606
 30
0.000000000
 10
359.424352779
 20
137.061365533
 30
0.000000000
 10
360.348629973
 20
136.832938394
 30
0.000000000
 10
361.292599420
 20
136.693281270
 30
0.000000000
 10
362.239129349
 20
136.597394593
 30
0.000000000
 10
363.570172264
 20
136.463809208
 30
0.000000000
 10
364.908110241
 20
136.416412962
 30
0.000000000
 10
366.245064322
 20
136.391832570
 30
0.000000000
 10
367.323880415
 20
136.376468251
 30
0.000000000
 10
368.402758614
 20
136.370751663
 30
0.000000000
 10
369.481698919
 20
136.374682806
 30
0.000000000
 10
371.501407246
 20
136.377405384
 30
0.000000000
 10
373.522149028
 20
136.357223404
 30
0.000000000
 10
375.540588901
 20
136.443480037
 30
0.000000000
 10
376.405630439
 20
136.477124977
 30
0.000000000
 10
377.268375221
 20
136.541148438
 30
0.000000000
 10
378.128823244
 20
136.635550420
 30
0.000000000
 10
379.411440360
 20
136.784266289
 30
0.000000000
 10
380.695641291
 20
137.012700625
 30
0.000000000
 10
381.908148167
 20
137.468528185
 30
0.000000000
 10
382.375994573
 20
137.645855650
 30
0.000000000
 10
382.831035148
 20
137.860082704
 30
0.000000000
 10
383.255967404
 20
138.124998705
 30
0.000000000
 10
383.937956463
 20
138.545323119
 30
0.000000000
 10
384.533753321
 20
139.113697523
 30
0.000000000
 10
384.951171389
 20
139.800035893
 30
0.000000000
 10
385.467185006
 20
140.640029311
 30
0.000000000
 10
385.706952977
 20
141.615664012
 30
0.000000000
 10
385.829964279
 20
142.584837220
 30
0.000000000
 10
386.091891398
 20
144.678439081
 30
0.000000000
 10
386.046588056
 20
146.793140326
 30
0.000000000
 10
386.018284110
 20
148.898111195
 30
0.000000000
 10
386.003774045
 20
149.784812446
 30
0.000000000
 10
386.003782469
 20
150.671638512
 30
0.000000000
 10
386.000768815
 20
151.558425655
 30
0.000000000
 10
385.995374772
 20
152.602445527
 30
0.000000000
 10
385.975962758
 20
153.647767197
 30
0.000000000
 10
385.879904634
 20
154.687961742
 30
0.000000000
 10
385.774735087
 20
155.827120959
 30
0.000000000
 10
385.575718929
 20
156.966518014
 30
0.000000000
 10
385.171995067
 20
158.040645536
 30
0.000000000
 10
384.914703380
 20
158.725595274
 30
0.000000000
 10
384.570281231
 20
159.379807068
 30
0.000000000
 10
384.131591447
 20
159.966285104
 30
0.000000000
 10
383.819694081
 20
160.382535531
 30
0.000000000
 10
383.466264260
 20
160.759901416
 30
0.000000000
 10
383.071301984
 20
161.098382759
 30
0.000000000
 10
382.297132477
 20
161.762462563
 30
0.000000000
 10
381.385734533
 20
162.252655381
 30
0.000000000
 10
380.430595951
 20
162.602204131
 30
0.000000000
 10
379.529699979
 20
162.932897438
 30
0.000000000
 10
378.589518433
 20
163.145931884
 30
0.000000000
 10
377.642106438
 20
163.291133182
 30
0.000000000
 10
376.684121674
 20
163.437669673
 30
0.000000000
 10
375.716848173
 20
163.514144634
 30
0.000000000
 10
374.749311158
 20
163.561060560
 30
0.000000000
 10
373.320137832
 20
163.629640609
 30
0.000000000
 10
371.888902874
 20
163.626352697
 30
0.000000000
 10
370.458464440
 20
163.625114692
 30
0.000000000
 10
368.511136283
 20
163.621580083
 30
0.000000000
 10
366.561574470
 20
163.649923938
 30
0.000000000
 10
364.617026875
 20
163.524897143
 30
0.000000000
 10
363.588381889
 20
163.458682630
 30
0.000000000
 10
362.560615964
 20
163.349287077
 30
0.000000000
 10
361.549211863
 20
163.146588846
 30
0.000000000
 10
360.384004963
 20
162.912362894
 30
0.000000000
 10
359.233551877
 20
162.551399555
 30
0.000000000
 10
358.193294741
 20
161.968246370
 30
0.000000000
 10
357.297996284
 20
161.468958757
 30
0.000000000
 10
356.497035264
 20
160.793205091
 30
0.000000000
 10
355.883438953
 20
159.969814900
 30
0.000000000
 10
355.173861382
 20
159.026295882
 30
0.000000000
 10
354.723515893
 20
157.910815580
 30
0.000000000
 10
354.456854842
 20
156.766583990
 30
0.000000000
 10
354.229241798
 20
155.800951331
 30
0.000000000
 10
354.122732703
 20
154.810998313
 30
0.000000000
 10
354.071608494
 20
153.821538724
 30
0.000000000
 10
354.005559320
 20
152.548699749
 30
0.000000000
 10
354.030486593
 20
151.273700341
 30
0.000000000
 10
354.006194293
 20
149.999875030
 30
0.000000000
  0
SPLINE
  5
C4F
330
A02
100
AcDbEntity
  8
S05_Chassis_SecF
100
AcDbSpline
210
0
220
0
230
1
 70
9
 71
3
 72
101
 73
97
 74
0
 40
0.000000000
 40
0.000000000
 40
0.000000000
 40
0.000000000
 40
0.063461334
 40
0.063461334
 40
0.063461334
 40
0.084284873
 40
0.084284873
 40
0.084284873
 40
0.097305214
 40
0.097305214
 40
0.097305214
 40
0.110530778
 40
0.110530778
 40
0.110530778
 40
0.125650057
 40
0.125650057
 40
0.125650057
 40
0.151253594
 40
0.151253594
 40
0.151253594
 40
0.178842688
 40
0.178842688
 40
0.178842688
 40
0.217613663
 40
0.217613663
 40
0.217613663
 40
0.248889850
 40
0.248889850
 40
0.248889850
 40
0.307444953
 40
0.307444953
 40
0.307444953
 40
0.332528871
 40
0.332528871
 40
0.332528871
 40
0.370019504
 40
0.370019504
 40
0.370019504
 40
0.384529069
 40
0.384529069
 40
0.384529069
 40
0.407770866
 40
0.407770866
 40
0.407770866
 40
0.436203356
 40
0.436203356
 40
0.436203356
 40
0.497287546
 40
0.497287546
 40
0.497287546
 40
0.522994582
 40
0.522994582
 40
0.522994582
 40
0.553267273
 40
0.553267273
 40
0.553267273
 40
0.586478065
 40
0.586478065
 40
0.586478065
 40
0.607698141
 40
0.607698141
 40
0.607698141
 40
0.622716441
 40
0.622716441
 40
0.622716441
 40
0.652238253
 40
0.652238253
 40
0.652238253
 40
0.680039782
 40
0.680039782
 40
0.680039782
 40
0.708126695
 40
0.708126695
 40
0.708126695
 40
0.749597916
 40
0.749597916
 40
0.749597916
 40
0.806062186
 40
0.806062186
 40
0.806062186
 40
0.835953196
 40
0.835953196
 40
0.835953196
 40
0.870463121
 40
0.870463121
 40
0.870463121
 40
0.900195645
 40
0.900195645
 40
0.900195645
 40
0.934323965
 40
0.934323965
 40
0.934323965
 40
0.963063251
 40
0.963063251
 40
0.963063251
 40
1.000000000
 40
1.000000000
 40
1.000000000
 40
1.000000000
 10
354.006194293
 20
149.999875030
 30
0.000000000
 10
353.963282407
 20
147.812071746
 30
0.000000000
 10
353.896907309
 20
145.618136175
 30
0.000000000
 10
354.091418452
 20
143.435255906
 30
0.000000000
 10
354.156498423
 20
142.720494517
 30
0.000000000
 10
354.239316407
 20
142.003442984
 30
0.000000000
 10
354.427152556
 20
141.309032548
 30
0.000000000
 10
354.542665970
 20
140.872840434
 30
0.000000000
 10
354.705251286
 20
140.455088631
 30
0.000000000
 10
354.914908504
 20
140.055777141
 30
0.000000000
 10
355.131243758
 20
139.650653123
 30
0.000000000
 10
355.399201976
 20
139.283152222
 30
0.000000000
 10
355.718783160
 20
138.953274438
 30
0.000000000
 10
356.081740184
 20
138.578022062
 30
0.000000000
 10
356.505185185
 20
138.264586068
 30
0.000000000
 10
356.957144209
 20
138.004829583
 30
0.000000000
 10
357.724800582
 20
137.564934342
 30
0.000000000
 10
358.568743608
 20
137.274848606
 30
0.000000000
 10
359.424352779
 20
137.061365533
 30
0.000000000
 10
360.348629973
 20
136.832938394
 30
0.000000000
 10
361.292599420
 20
136.693281270
 30
0.000000000
 10
362.239129349
 20
136.597394593
 30
0.000000000
 10
363.570172264
 20
136.463809208
 30
0.000000000
 10
364.908110241
 20
136.416412962
 30
0.000000000
 10
366.245064322
 20
136.391832570
 30
0.000000000
 10
367.323880415
 20
136.376468251
 30
0.000000000
 10
368.402758614
 20
136.370751663
 30
0.000000000
 10
369.481698919
 20
136.374682806
 30
0.000000000
 10
371.501407246
 20
136.377405384
 30
0.000000000
 10
373.522149028
 20
136.357223404
 30
0.000000000
 10
375.540588901
 20
136.443480037
 30
0.000000000
 10
376.405630439
 20
136.477124977
 30
0.000000000
 10
377.268375221
 20
136.541148438
 30
0.000000000
 10
378.128823244
 20
136.635550420
 30
0.000000000
 10
379.411440360
 20
136.784266289
 30
0.000000000
 10
380.695641291
 20
137.012700625
 30
0.000000000
 10
381.908148167
 20
137.468528185
 30
0.000000000
 10
382.375994573
 20
137.645855650
 30
0.000000000
 10
382.831035148
 20
137.860082704
 30
0.000000000
 10
383.255967404
 20
138.124998705
 30
0.000000000
 10
383.937956463
 20
138.545323119
 30
0.000000000
 10
384.533753321
 20
139.113697523
 30
0.000000000
 10
384.951171389
 20
139.800035893
 30
0.000000000
 10
385.467185006
 20
140.640029311
 30
0.000000000
 10
385.706952977
 20
141.615664012
 30
0.000000000
 10
385.829964279
 20
142.584837220
 30
0.000000000
 10
386.091891398
 20
144.678439081
 30
0.000000000
 10
386.046588056
 20
146.793140326
 30
0.000000000
 10
386.018284110
 20
148.898111195
 30
0.000000000
 10
386.003774045
 20
149.784812446
 30
0.000000000
 10
386.003782469
 20
150.671638512
 30
0.000000000
 10
386.000768815
 20
151.558425655
 30
0.000000000
 10
385.995374772
 20
152.602445527
 30
0.000000000
 10
385.975962758
 20
153.647767197
 30
0.000000000
 10
385.879904634
 20
154.687961742
 30
0.000000000
 10
385.774735087
 20
155.827120959
 30
0.000000000
 10
385.575718929
 20
156.966518014
 30
0.000000000
 10
385.171995067
 20
158.040645536
 30
0.000000000
 10
384.914703380
 20
158.725595274
 30
0.000000000
 10
384.570281231
 20
159.379807068
 30
0.000000000
 10
384.131591447
 20
159.966285104
 30
0.000000000
 10
383.819694081
 20
160.382535531
 30
0.000000000
 10
383.466264260
 20
160.759901416
 30
0.000000000
 10
383.071301984
 20
161.098382759
 30
0.000000000
 10
382.297132477
 20
161.762462563
 30
0.000000000
 10
381.385734533
 20
162.252655381
 30
0.000000000
 10
380.430595951
 20
162.602204131
 30
0.000000000
 10
379.529699979
 20
162.932897438
 30
0.000000000
 10
378.589518433
 20
163.145931884
 30
0.000000000
 10
377.642106438
 20
163.291133182
 30
0.000000000
 10
376.684121674
 20
163.437669673
 30
0.000000000
 10
375.716848173
 20
163.514144634
 30
0.000000000
 10
374.749311158
 20
163.561060560
 30
0.000000000
 10
373.320137832
 20
163.629640609
 30
0.000000000
 10
371.888902874
 20
163.626352697
 30
0.000000000
 10
370.458464440
 20
163.625114692
 30
0.000000000
 10
368.511136283
 20
163.621580083
 30
0.000000000
 10
366.561574470
 20
163.649923938
 30
0.000000000
 10
364.617026875
 20
163.524897143
 30
0.000000000
 10
363.588381889
 20
163.458682630
 30
0.000000000
 10
362.560615964
 20
163.349287077
 30
0.000000000
 10
361.549211863
 20
163.146588846
 30
0.000000000
 10
360.384004963
 20
162.912362894
 30
0.000000000
 10
359.233551877
 20
162.551399555
 30
0.000000000
 10
358.193294741
 20
161.968246370
 30
0.000000000
 10
357.297996284
 20
161.468958757
 30
0.000000000
 10
356.497035264
 20
160.793205091
 30
0.000000000
 10
355.883438953
 20
159.969814900
 30
0.000000000
 10
355.173861382
 20
159.026295882
 30
0.000000000
 10
354.723515893
 20
157.910815580
 30
0.000000000
 10
354.456854842
 20
156.766583990
 30
0.000000000
 10
354.229241798
 20
155.800951331
 30
0.000000000
 10
354.122732703
 20
154.810998313
 30
0.000000000
 10
354.071608494
 20
153.821538724
 30
0.000000000
 10
354.005559320
 20
152.548699749
 30
0.000000000
 10
354.030486593
 20
151.273700341
 30
0.000000000
 10
354.006194293
 20
149.999875030
 30
0.000000000
  0
DIMENSION
  5
C50
330
A02
100
AcDbEntity
  8
DimExtent052
100
AcDbDimension
  2
*DimExtent052
 10
120.317635784
 20
249.065174199
 30
0.000000000
 11
119.948350905
 21
254.051518419
 31
0.000000000
 70
32
  1
3100
  3
STANDARD
100
AcDbAlignedDimension
 13
42.500000000
 23
227.500938294
 33
0.000000000
 14
197.500000000
 24
216.021755606
 34
0.000000000
100
AcDbRotatedDimension
  0
DIMENSION
  5
C5A
330
A02
100
AcDbEntity
  8
DimExtent053
100
AcDbDimension
  2
*DimExtent053
 10
40.446685270
 20
230.129048762
 30
0.000000000
 11
35.448350905
 21
230.000000000
 31
0.000000000
 70
32
  1
682
  3
STANDARD
100
AcDbAlignedDimension
 13
170.616666988
 23
247.051980985
 33
0.000000000
 14
169.736155099
 24
212.947873758
 34
0.000000000
 50
90
100
AcDbRotatedDimension
  0
DIMENSION
  5
C64
330
A02
100
AcDbEntity
  8
DimExtent054
100
AcDbDimension
  2
*DimExtent054
 10
39.823196087
 20
152.420894388
 30
0.000000000
 11
35.448350905
 21
150.000000000
 31
0.000000000
 70
32
  1
571
  3
STANDARD
100
AcDbAlignedDimension
 13
173.000426041
 23
164.282037244
 33
0.000000000
 14
157.198265157
 24
135.725645954
 34
0.000000000
 50
90
100
AcDbRotatedDimension
  0
DIMENSION
  5
C6E
330
A02
100
AcDbEntity
  8
DimExtent055
100
AcDbDimension
  2
*DimExtent055
 10
288.067532870
 20
241.645242673
 30
0.000000000
 11
290.000000000
 21
246.256703482
 31
0.000000000
 70
32
  1
596
  3
STANDARD
100
AcDbAlignedDimension
 13
273.012743389
 23
224.991720245
 33
0.000000000
 14
302.789769917
 24
237.470005842
 34
0.000000000
100
AcDbRotatedDimension
  0
DIMENSION
  5
C78
330
A02
100
AcDbEntity
  8
DimExtent056
100
AcDbDimension
  2
*DimExtent056
 10
270.934730569
 20
225.370568518
 30
0.000000000
 11
265.948481581
 21
225.000000000
 31
0.000000000
 70
32
  1
460
  3
STANDARD
100
AcDbAlignedDimension
 13
291.721984547
 23
239.240765208
 33
0.000000000
 14
290.012750434
 24
216.241869026
 34
0.000000000
 50
90
100
AcDbRotatedDimension
  0
DIMENSION
  5
C82
330
A02
100
AcDbEntity
  8
DimExtent057
100
AcDbDimension
  2
*DimExtent057
 10
290.038582808
 20
166.256852347
 30
0.000000000
 11
290.000000000
 21
171.256703482
 31
0.000000000
 70
32
  1
679
  3
STANDARD
100
AcDbAlignedDimension
 13
273.016514509
 23
146.712063158
 33
0.000000000
 14
306.988360921
 24
146.449909505
 34
0.000000000
100
AcDbRotatedDimension
  0
DIMENSION
  5
C8C
330
A02
100
AcDbEntity
  8
DimExtent058
100
AcDbDimension
  2
*DimExtent058
 10
270.948135768
 20
150.058804834
 30
0.000000000
 11
265.948481581
 21
150.000000000
 31
0.000000000
 70
32
  1
570
  3
STANDARD
100
AcDbAlignedDimension
 13
291.721984547
 23
164.259234833
 33
0.000000000
 14
291.386710262
 24
135.753831938
 34
0.000000000
 50
90
100
AcDbRotatedDimension
  0
DIMENSION
  5
C96
330
A02
100
AcDbEntity
  8
DimExtent059
100
AcDbDimension
  2
*DimExtent059
 10
370.027008490
 20
166.256776428
 30
0.000000000
 11
370.000000000
 21
171.256703482
 31
0.000000000
 70
32
  1
642
  3
STANDARD
100
AcDbAlignedDimension
 13
353.959633249
 23
146.852100637
 33
0.000000000
 14
386.040366753
 24
146.678807675
 34
0.000000000
100
AcDbRotatedDimension
  0
DIMENSION
  5
CA0
330
A02
100
AcDbEntity
  8
DimExtent060
100
AcDbDimension
  2
*DimExtent060
 10
350.948481478
 20
150.001012619
 30
0.000000000
 11
345.948481581
 21
150.000000000
 31
0.000000000
 70
32
  1
545
  3
STANDARD
100
AcDbAlignedDimension
 13
368.867186004
 23
163.625564262
 33
0.000000000
 14
368.861667003
 24
136.374435722
 34
0.000000000
 50
90
100
AcDbRotatedDimension
  0
TEXT
  5
CAA
330
A02
100
AcDbEntity
  8
S05_Chassis_Tab
100
AcDbText
 10
100.000000000
 20
60.000000000
 30
0.000000000
 40
3.200000000
  1
断面はスーパー楕円（|y/a|^n + |z/b|^n = 1）をロフト
  7
STANDARD
 72
1
 11
100.000000000
 21
60.000000000
 31
0.000000000
100
AcDbText
  0
ENDSEC
  0
SECTION
  2
OBJECTS
  0
DICTIONARY
  5
F000
330
0
100
AcDbDictionary
  3
ACAD_GROUP
350
F001
  0
DICTIONARY
  5
F001
330
F000
100
AcDbDictionary
  0
ENDSEC
  0
EOF