999
FreeCAD v1.1 20260725 (Git shallow)
  0
SECTION
  2
HEADER
  9
$ACADVER
  1
AC1014
  9
$ACADMAINTVER
 70
     9
  9
$DWGCODEPAGE
  3
ANSI_1252
  9
$TEXTSTYLE
  7
STANDARD
  9
$DIMSTYLE
  2
STANDARD
  9
$DIMTXSTY
  7
STANDARD
  9
$CMLSTYLE
  2
STANDARD
  9
$LUNITS
 70
2
  9
$INSUNITS
 70
4
  9
$PEXTMAX
 10
50
 20
50
 30
50
  9
$PEXTMIN
 10
0
 20
0
 30
0
  9
$HANDSEED
  5
FFFF
  0
ENDSEC
  0
SECTION
  2
CLASSES
  0
CLASS
  1
ACDBDICTIONARYWDFLT
  2
AcDbDictionaryWithDefault
  3
ObjectDBX Classes
 90
        0
280
     0
281
     0
  0
CLASS
  1
XRECORD
  2
AcDbXrecord
  3
ObjectDBX Classes
 90
        0
280
     0
281
     0
  0
CLASS
  1
LWPOLYLINE
  2
AcDbPolyline
  3
ObjectDBX Classes
 90
        0
280
     0
281
     1
  0
ENDSEC
  0
SECTION
  2
TABLES
  0
TABLE
  2
VPORT
  5
20
330
0
100
AcDbSymbolTable
 70
     1
  0
VPORT
  5
21
330
20
100
AcDbSymbolTableRecord
100
AcDbViewportTableRecord
  2
*ACTIVE
 70
     0
  0
ENDTAB
  0
TABLE
  2
LTYPE
  5
22
330
0
100
AcDbSymbolTable
 70
     1
  0
LTYPE
  5
23
330
21
100
AcDbSymbolTableRecord
100
AcDbLinetypeTableRecord
  2
BYBLOCK
 70
     0
  3

 72
    65
 73
     0
 40
0.0
  0
LTYPE
  5
24
330
21
100
AcDbSymbolTableRecord
100
AcDbLinetypeTableRecord
  2
BYLAYER
 70
     0
  3

 72
    65
 73
     0
 40
0.0
  0
LTYPE
  5
25
330
21
100
AcDbSymbolTableRecord
100
AcDbLinetypeTableRecord
  2
CONTINUOUS
 70
     0
  3
Solid line
 72
    65
 73
     0
 40
0.0
  0
ENDTAB
  0
TABLE
  2
LAYER
  5
B66
330
0
100
AcDbSymbolTable
 70
14
  0
LAYER
  5
B67
330
B66
100
AcDbSymbolTableRecord
100
AcDbLayerTableRecord
  2
0
 70
   0
 62
   7
  6
CONTINUOUS
  0
LAYER
  5
B68
330
B66
100
AcDbSymbolTableRecord
100
AcDbLayerTableRecord
  2
S07_Wheels_FrontSide
 70
    0
 62
    7
  6
CONTINUOUS
  0
LAYER
  5
B69
330
B66
100
AcDbSymbolTableRecord
100
AcDbLayerTableRecord
  2
S07_Wheels_RearSide
 70
    0
 62
    7
  6
CONTINUOUS
  0
LAYER
  5
B6A
330
B66
100
AcDbSymbolTableRecord
100
AcDbLayerTableRecord
  2
S07_Wheels_SecJ
 70
    0
 62
    7
  6
CONTINUOUS
  0
LAYER
  5
B6B
330
B66
100
AcDbSymbolTableRecord
100
AcDbLayerTableRecord
  2
S07_Wheels_SecK
 70
    0
 62
    7
  6
CONTINUOUS
  0
LAYER
  5
B6C
330
B66
100
AcDbSymbolTableRecord
100
AcDbLayerTableRecord
  2
DimExtent086
 70
    0
 62
    7
  6
CONTINUOUS
  0
LAYER
  5
B6D
330
B66
100
AcDbSymbolTableRecord
100
AcDbLayerTableRecord
  2
DimExtent087
 70
    0
 62
    7
  6
CONTINUOUS
  0
LAYER
  5
B6E
330
B66
100
AcDbSymbolTableRecord
100
AcDbLayerTableRecord
  2
DimExtent088
 70
    0
 62
    7
  6
CONTINUOUS
  0
LAYER
  5
B6F
330
B66
100
AcDbSymbolTableRecord
100
AcDbLayerTableRecord
  2
DimExtent089
 70
    0
 62
    7
  6
CONTINUOUS
  0
LAYER
  5
B70
330
B66
100
AcDbSymbolTableRecord
100
AcDbLayerTableRecord
  2
DimExtent090
 70
    0
 62
    7
  6
CONTINUOUS
  0
LAYER
  5
B71
330
B66
100
AcDbSymbolTableRecord
100
AcDbLayerTableRecord
  2
DimExtent091
 70
    0
 62
    7
  6
CONTINUOUS
  0
LAYER
  5
B72
330
B66
100
AcDbSymbolTableRecord
100
AcDbLayerTableRecord
  2
Dimension002
 70
    0
 62
    7
  6
CONTINUOUS
  0
LAYER
  5
B73
330
B66
100
AcDbSymbolTableRecord
100
AcDbLayerTableRecord
  2
Dimension003
 70
    0
 62
    7
  6
CONTINUOUS
  0
LAYER
  5
B74
330
B66
100
AcDbSymbolTableRecord
100
AcDbLayerTableRecord
  2
S07_Wheels_Tab
 70
    0
 62
    7
  6
CONTINUOUS
  0
ENDTAB
  0
TABLE
  2
STYLE
  5
70
330
0
100
AcDbSymbolTable
 70
     2
  0
STYLE
  5
71
330
70
100
AcDbSymbolTableRecord
100
AcDbTextStyleTableRecord
  2
STANDARD
 70
     0
 40
0.0
 41
1.0
 50
0.0
 71
     0
 42
2.5
  3
arial.ttf
  4

  0
STYLE
  5
72
330
70
100
AcDbSymbolTableRecord
100
AcDbTextStyleTableRecord
  2
ANNOTATIVE
 70
     0
 40
0.0
 41
1.0
 50
0.0
 71
     0
 42
2.5
  3
arial.ttf
  4

  0
ENDTAB
  0
TABLE
  2
VIEW
  5
73
330
0
100
AcDbSymbolTable
 70
     0
  0
ENDTAB
  0
TABLE
  2
UCS
  5
74
330
0
100
AcDbSymbolTable
 70
     0
  0
ENDTAB
  0
TABLE
  2
APPID
  5
75
330
0
100
AcDbSymbolTable
 70
     2
  0
APPID
  5
76
330
75
100
AcDbSymbolTableRecord
100
AcDbRegAppTableRecord
  2
ACAD
 70
     0
  0
APPID
  5
77
330
75
100
AcDbSymbolTableRecord
100
AcDbRegAppTableRecord
  2
ACADANNOTATIVE
 70
     0
  0
ENDTAB
  0
TABLE
  2
DIMSTYLE
  5
78
330
0
100
AcDbSymbolTable
 70
     2
  0
DIMSTYLE
105
79
330
78
100
AcDbSymbolTableRecord
100
AcDbDimStyleTableRecord
  2
STANDARD
 70
     0
  3

  4

  5

  6

  7

 40
0.0
 41
2.5
 42
0.625
 43
3.75
 44
1.25
 45
0.0
 46
0.0
 47
0.0
 48
0.0
140
2.5
141
2.5
142
0.0
143
0.03937007874016
144
1.0
145
0.0
146
1.0
147
0.625
 71
     0
 72
     0
 73
     0
 74
     0
 75
     0
 76
     0
 77
     1
 78
     8
170
     0
171
     3
172
     1
173
     0
174
     0
175
     0
176
     0
177
     0
178
     0
270
     2
271
     2
272
     2
273
     2
274
     3
340
71
275
     0
280
     0
281
     0
282
     0
283
     0
284
     8
285
     0
286
     0
287
     3
288
     0
  0
ENDTAB
  0
TABLE
  2
BLOCK_RECORD
  5
A01
330
0
100
AcDbSymbolTable
  70
5
  0
BLOCK_RECORD
  5
A02
330
A01
100
AcDbSymbolTableRecord
100
AcDbBlockTableRecord
  2
*MODEL_SPACE
  0
BLOCK_RECORD
  5
A03
330
A01
100
AcDbSymbolTableRecord
100
AcDbBlockTableRecord
  2
*PAPER_SPACE
  0
BLOCK_RECORD
  5
B16
330
A01
100
AcDbSymbolTableRecord
100
AcDbBlockTableRecord
  2
*DimExtent086
  0
BLOCK_RECORD
  5
B20
330
A01
100
AcDbSymbolTableRecord
100
AcDbBlockTableRecord
  2
*DimExtent087
  0
BLOCK_RECORD
  5
B2A
330
A01
100
AcDbSymbolTableRecord
100
AcDbBlockTableRecord
  2
*DimExtent088
  0
BLOCK_RECORD
  5
B34
330
A01
100
AcDbSymbolTableRecord
100
AcDbBlockTableRecord
  2
*DimExtent089
  0
BLOCK_RECORD
  5
B3E
330
A01
100
AcDbSymbolTableRecord
100
AcDbBlockTableRecord
  2
*DimExtent090
  0
BLOCK_RECORD
  5
B48
330
A01
100
AcDbSymbolTableRecord
100
AcDbBlockTableRecord
  2
*DimExtent091
  0
BLOCK_RECORD
  5
B52
330
A01
100
AcDbSymbolTableRecord
100
AcDbBlockTableRecord
  2
*Dimension002
  0
BLOCK_RECORD
  5
B5C
330
A01
100
AcDbSymbolTableRecord
100
AcDbBlockTableRecord
  2
*Dimension003
  0
ENDTAB
  0
ENDSEC
  0
SECTION
  2
BLOCKS
  0
BLOCK
  5
A04
330
A02
100
AcDbEntity
  8
0
100
AcDbBlockBegin
  2
*MODEL_SPACE
 70
   0
 10
0
 20
0
 30
0
  3
*MODEL_SPACE
  1
 
  0
ENDBLK
  5
A05
330
A02
100
AcDbEntity
  8
0
100
AcDbBlockEnd
  0
BLOCK
  5
A06
330
A03
100
AcDbEntity
 67
1
  8
0
100
AcDbBlockBegin
  2
*PAPER_SPACE
 70
   0
 10
0
 20
0
 30
0
  3
*PAPER_SPACE
  1
 
  0
ENDBLK
  5
A07
330
A03
100
AcDbEntity
 67
    1
  8
0
100
AcDbBlockEnd
  0
BLOCK
  5
B17
330
B16
100
AcDbEntity
  8
DimExtent086
100
AcDbBlockBegin
  2
*DimExtent086
 70
   1
 10
0
 20
0
 30
0
  3
*DimExtent086
  1
 
  0
LINE
  5
B18
330
B16
100
AcDbEntity
  8
DimExtent086
100
AcDbLine
 10
126.25
 20
218
 30
0
 11
126.25
 21
261.25
 31
0
  0
LINE
  5
B19
330
B16
100
AcDbEntity
  8
DimExtent086
100
AcDbLine
 10
43.75
 20
218
 30
0
 11
43.75
 21
261.25
 31
0
  0
LINE
  5
B1A
330
B16
100
AcDbEntity
  8
DimExtent086
100
AcDbLine
 10
43.75
 20
261.25
 30
0
 11
126.25
 21
261.25
 31
0
  0
TEXT
  5
B1B
330
B16
100
AcDbEntity
  8
DimExtent086
100
AcDbText
 10
85
 20
266.25
 30
0
 40
3.5
  1
660
  7
STANDARD
 72
1
 11
85
 21
261.25
 31
0
100
AcDbText
  0
SOLID
  5
B1C
330
B16
100
AcDbEntity
  8
0
 62
     0
100
AcDbTrace
 10
38.75
 20
261.667
 30
0
 11
38.75
 21
260.833
 31
0
 12
43.75
 22
261.25
 32
0
 13
43.75
 23
261.25
 33
0
  0
SOLID
  5
B1D
330
B16
100
AcDbEntity
  8
0
 62
     0
100
AcDbTrace
 10
131.25
 20
261.667
 30
0
 11
131.25
 21
260.833
 31
0
 12
126.25
 22
261.25
 32
0
 13
126.25
 23
261.25
 33
0
  0
ENDBLK
  5
B1E
330
B16
100
AcDbEntity
  8
DimExtent086
100
AcDbBlockEnd
  0
BLOCK
  5
B21
330
B20
100
AcDbEntity
  8
DimExtent087
100
AcDbBlockBegin
  2
*DimExtent087
 70
   1
 10
0
 20
0
 30
0
  3
*DimExtent087
  1
 
  0
LINE
  5
B22
330
B20
100
AcDbEntity
  8
DimExtent087
100
AcDbLine
 10
256.875
 20
218
 30
0
 11
256.875
 21
261.875
 31
0
  0
LINE
  5
B23
330
B20
100
AcDbEntity
  8
DimExtent087
100
AcDbLine
 10
173.125
 20
218
 30
0
 11
173.125
 21
261.875
 31
0
  0
LINE
  5
B24
330
B20
100
AcDbEntity
  8
DimExtent087
100
AcDbLine
 10
173.125
 20
261.875
 30
0
 11
256.875
 21
261.875
 31
0
  0
TEXT
  5
B25
330
B20
100
AcDbEntity
  8
DimExtent087
100
AcDbText
 10
215
 20
266.875
 30
0
 40
3.5
  1
670
  7
STANDARD
 72
1
 11
215
 21
261.875
 31
0
100
AcDbText
  0
SOLID
  5
B26
330
B20
100
AcDbEntity
  8
0
 62
     0
100
AcDbTrace
 10
168.125
 20
262.292
 30
0
 11
168.125
 21
261.458
 31
0
 12
173.125
 22
261.875
 32
0
 13
173.125
 23
261.875
 33
0
  0
SOLID
  5
B27
330
B20
100
AcDbEntity
  8
0
 62
     0
100
AcDbTrace
 10
261.875
 20
262.292
 30
0
 11
261.875
 21
261.458
 31
0
 12
256.875
 22
261.875
 32
0
 13
256.875
 23
261.875
 33
0
  0
ENDBLK
  5
B28
330
B20
100
AcDbEntity
  8
DimExtent087
100
AcDbBlockEnd
  0
BLOCK
  5
B2B
330
B2A
100
AcDbEntity
  8
DimExtent088
100
AcDbBlockBegin
  2
*DimExtent088
 70
   1
 10
0
 20
0
 30
0
  3
*DimExtent088
  1
 
  0
LINE
  5
B2C
330
B2A
100
AcDbEntity
  8
DimExtent088
100
AcDbLine
 10
104.2
 20
87.175
 30
0
 11
104.2
 21
165.261
 31
0
  0
LINE
  5
B2D
330
B2A
100
AcDbEntity
  8
DimExtent088
100
AcDbLine
 10
65.8
 20
89.675
 30
0
 11
65.8
 21
165.261
 31
0
  0
LINE
  5
B2E
330
B2A
100
AcDbEntity
  8
DimExtent088
100
AcDbLine
 10
65.8
 20
165.261
 30
0
 11
104.2
 21
165.261
 31
0
  0
TEXT
  5
B2F
330
B2A
100
AcDbEntity
  8
DimExtent088
100
AcDbText
 10
85
 20
170.25
 30
0
 40
3.5
  1
307
  7
STANDARD
 72
1
 11
85.3248
 21
165.261
 31
0
100
AcDbText
  0
SOLID
  5
B30
330
B2A
100
AcDbEntity
  8
0
 62
     0
100
AcDbTrace
 10
60.8
 20
165.677
 30
0
 11
60.8
 21
164.844
 31
0
 12
65.8
 22
165.261
 32
0
 13
65.8
 23
165.261
 33
0
  0
SOLID
  5
B31
330
B2A
100
AcDbEntity
  8
0
 62
     0
100
AcDbTrace
 10
109.2
 20
165.677
 30
0
 11
109.2
 21
164.844
 31
0
 12
104.2
 22
165.261
 32
0
 13
104.2
 23
165.261
 33
0
  0
ENDBLK
  5
B32
330
B2A
100
AcDbEntity
  8
DimExtent088
100
AcDbBlockEnd
  0
BLOCK
  5
B35
330
B34
100
AcDbEntity
  8
DimExtent089
100
AcDbBlockBegin
  2
*DimExtent089
 70
   1
 10
0
 20
0
 30
0
  3
*DimExtent089
  1
 
  0
LINE
  5
B36
330
B34
100
AcDbEntity
  8
DimExtent089
100
AcDbLine
 10
97.2125
 20
80.75
 30
0
 11
63.8
 21
80.75
 31
0
  0
LINE
  5
B37
330
B34
100
AcDbEntity
  8
DimExtent089
100
AcDbLine
 10
97.2125
 20
163.25
 30
0
 11
63.8
 21
163.25
 31
0
  0
LINE
  5
B38
330
B34
100
AcDbEntity
  8
DimExtent089
100
AcDbLine
 10
63.8
 20
163.25
 30
0
 11
63.8
 21
80.75
 31
0
  0
TEXT
  5
B39
330
B34
100
AcDbEntity
  8
DimExtent089
100
AcDbText
 10
58.8
 20
122
 30
0
 40
3.5
  1
660
  7
STANDARD
 72
1
 11
63.8
 21
122
 31
0
100
AcDbText
  0
SOLID
  5
B3A
330
B34
100
AcDbEntity
  8
0
 62
     0
100
AcDbTrace
 10
63.3833
 20
168.25
 30
0
 11
64.2167
 21
168.25
 31
0
 12
63.8
 22
163.25
 32
0
 13
63.8
 23
163.25
 33
0
  0
SOLID
  5
B3B
330
B34
100
AcDbEntity
  8
0
 62
     0
100
AcDbTrace
 10
63.3833
 20
75.75
 30
0
 11
64.2167
 21
75.75
 31
0
 12
63.8
 22
80.75
 32
0
 13
63.8
 23
80.75
 33
0
  0
ENDBLK
  5
B3C
330
B34
100
AcDbEntity
  8
DimExtent089
100
AcDbBlockEnd
  0
BLOCK
  5
B3F
330
B3E
100
AcDbEntity
  8
DimExtent090
100
AcDbBlockBegin
  2
*DimExtent090
 70
   1
 10
0
 20
0
 30
0
  3
*DimExtent090
  1
 
  0
LINE
  5
B40
330
B3E
100
AcDbEntity
  8
DimExtent090
100
AcDbLine
 10
240.45
 20
87.175
 30
0
 11
240.45
 21
165.881
 31
0
  0
LINE
  5
B41
330
B3E
100
AcDbEntity
  8
DimExtent090
100
AcDbLine
 10
189.55
 20
89.675
 30
0
 11
189.55
 21
165.881
 31
0
  0
LINE
  5
B42
330
B3E
100
AcDbEntity
  8
DimExtent090
100
AcDbLine
 10
189.55
 20
165.881
 30
0
 11
240.45
 21
165.881
 31
0
  0
TEXT
  5
B43
330
B3E
100
AcDbEntity
  8
DimExtent090
100
AcDbText
 10
215
 20
170.875
 30
0
 40
3.5
  1
407
  7
STANDARD
 72
1
 11
215.245
 21
165.881
 31
0
100
AcDbText
  0
SOLID
  5
B44
330
B3E
100
AcDbEntity
  8
0
 62
     0
100
AcDbTrace
 10
184.55
 20
166.298
 30
0
 11
184.55
 21
165.464
 31
0
 12
189.55
 22
165.881
 32
0
 13
189.55
 23
165.881
 33
0
  0
SOLID
  5
B45
330
B3E
100
AcDbEntity
  8
0
 62
     0
100
AcDbTrace
 10
245.45
 20
166.298
 30
0
 11
245.45
 21
165.464
 31
0
 12
240.45
 22
165.881
 32
0
 13
240.45
 23
165.881
 33
0
  0
ENDBLK
  5
B46
330
B3E
100
AcDbEntity
  8
DimExtent090
100
AcDbBlockEnd
  0
BLOCK
  5
B49
330
B48
100
AcDbEntity
  8
DimExtent091
100
AcDbBlockBegin
  2
*DimExtent091
 70
   1
 10
0
 20
0
 30
0
  3
*DimExtent091
  1
 
  0
LINE
  5
B4A
330
B48
100
AcDbEntity
  8
DimExtent091
100
AcDbLine
 10
233.45
 20
80.125
 30
0
 11
187.55
 21
80.125
 31
0
  0
LINE
  5
B4B
330
B48
100
AcDbEntity
  8
DimExtent091
100
AcDbLine
 10
233.45
 20
163.875
 30
0
 11
187.55
 21
163.875
 31
0
  0
LINE
  5
B4C
330
B48
100
AcDbEntity
  8
DimExtent091
100
AcDbLine
 10
187.55
 20
163.875
 30
0
 11
187.55
 21
80.125
 31
0
  0
TEXT
  5
B4D
330
B48
100
AcDbEntity
  8
DimExtent091
100
AcDbText
 10
182.55
 20
122
 30
0
 40
3.5
  1
670
  7
STANDARD
 72
1
 11
187.55
 21
122
 31
0
100
AcDbText
  0
SOLID
  5
B4E
330
B48
100
AcDbEntity
  8
0
 62
     0
100
AcDbTrace
 10
187.133
 20
168.875
 30
0
 11
187.967
 21
168.875
 31
0
 12
187.55
 22
163.875
 32
0
 13
187.55
 23
163.875
 33
0
  0
SOLID
  5
B4F
330
B48
100
AcDbEntity
  8
0
 62
     0
100
AcDbTrace
 10
187.133
 20
75.125
 30
0
 11
187.967
 21
75.125
 31
0
 12
187.55
 22
80.125
 32
0
 13
187.55
 23
80.125
 33
0
  0
ENDBLK
  5
B50
330
B48
100
AcDbEntity
  8
DimExtent091
100
AcDbBlockEnd
  0
BLOCK
  5
B53
330
B52
100
AcDbEntity
  8
Dimension002
100
AcDbBlockBegin
  2
*Dimension002
 70
   1
 10
0
 20
0
 30
0
  3
*Dimension002
  1
 
  0
LINE
  5
B54
330
B52
100
AcDbEntity
  8
Dimension002
100
AcDbLine
 10
85.0125
 20
150.575
 30
0
 11
48.8
 21
150.575
 31
0
  0
LINE
  5
B55
330
B52
100
AcDbEntity
  8
Dimension002
100
AcDbLine
 10
85.0125
 20
93.425
 30
0
 11
48.8
 21
93.425
 31
0
  0
LINE
  5
B56
330
B52
100
AcDbEntity
  8
Dimension002
100
AcDbLine
 10
48.8
 20
93.425
 30
0
 11
48.8
 21
150.575
 31
0
  0
TEXT
  5
B57
330
B52
100
AcDbEntity
  8
Dimension002
100
AcDbText
 10
53.8
 20
122
 30
0
 40
3.5
  1
457
  7
STANDARD
 72
1
 11
48.8
 21
122
 31
0
100
AcDbText
  0
SOLID
  5
B58
330
B52
100
AcDbEntity
  8
0
 62
     0
100
AcDbTrace
 10
48.3833
 20
88.425
 30
0
 11
49.2167
 21
88.425
 31
0
 12
48.8
 22
93.425
 32
0
 13
48.8
 23
93.425
 33
0
  0
SOLID
  5
B59
330
B52
100
AcDbEntity
  8
0
 62
     0
100
AcDbTrace
 10
48.3833
 20
155.575
 30
0
 11
49.2167
 21
155.575
 31
0
 12
48.8
 22
150.575
 32
0
 13
48.8
 23
150.575
 33
0
  0
ENDBLK
  5
B5A
330
B52
100
AcDbEntity
  8
Dimension002
100
AcDbBlockEnd
  0
BLOCK
  5
B5D
330
B5C
100
AcDbEntity
  8
Dimension003
100
AcDbBlockBegin
  2
*Dimension003
 70
   1
 10
0
 20
0
 30
0
  3
*Dimension003
  1
 
  0
LINE
  5
B5E
330
B5C
100
AcDbEntity
  8
Dimension003
100
AcDbLine
 10
215.012
 20
150.575
 30
0
 11
172.55
 21
150.575
 31
0
  0
LINE
  5
B5F
330
B5C
100
AcDbEntity
  8
Dimension003
100
AcDbLine
 10
215.012
 20
93.425
 30
0
 11
172.55
 21
93.425
 31
0
  0
LINE
  5
B60
330
B5C
100
AcDbEntity
  8
Dimension003
100
AcDbLine
 10
172.55
 20
93.425
 30
0
 11
172.55
 21
150.575
 31
0
  0
TEXT
  5
B61
330
B5C
100
AcDbEntity
  8
Dimension003
100
AcDbText
 10
177.55
 20
122
 30
0
 40
3.5
  1
457
  7
STANDARD
 72
1
 11
172.55
 21
122
 31
0
100
AcDbText
  0
SOLID
  5
B62
330
B5C
100
AcDbEntity
  8
0
 62
     0
100
AcDbTrace
 10
172.133
 20
88.425
 30
0
 11
172.967
 21
88.425
 31
0
 12
172.55
 22
93.425
 32
0
 13
172.55
 23
93.425
 33
0
  0
SOLID
  5
B63
330
B5C
100
AcDbEntity
  8
0
 62
     0
100
AcDbTrace
 10
172.133
 20
155.575
 30
0
 11
172.967
 21
155.575
 31
0
 12
172.55
 22
150.575
 32
0
 13
172.55
 23
150.575
 33
0
  0
ENDBLK
  5
B64
330
B5C
100
AcDbEntity
  8
Dimension003
100
AcDbBlockEnd
  0
ENDSEC
  0
SECTION
  2
ENTITIES
  0
CIRCLE
  5
A08
330
A02
100
AcDbEntity
  8
S07_Wheels_FrontSide
100
AcDbCircle
 10
85.000000000
 20
217.999999994
 30
0.000000000
 40
41.250000000
  0
CIRCLE
  5
A09
330
A02
100
AcDbEntity
  8
S07_Wheels_FrontSide
100
AcDbCircle
 10
85.000000000
 20
217.999999994
 30
0.000000000
 40
28.575000000
  0
CIRCLE
  5
A0A
330
A02
100
AcDbEntity
  8
S07_Wheels_FrontSide
100
AcDbCircle
 10
85.000000000
 20
217.999999994
 30
0.000000000
 40
34.825000000
  0
CIRCLE
  5
A0B
330
A02
100
AcDbEntity
  8
S07_Wheels_FrontSide
100
AcDbCircle
 10
85.000000000
 20
217.999999994
 30
0.000000000
 40
32.325000000
  0
CIRCLE
  5
A0C
330
A02
100
AcDbEntity
  8
S07_Wheels_FrontSide
100
AcDbCircle
 10
85.000000000
 20
217.999999994
 30
0.000000000
 40
26.825000000
  0
CIRCLE
  5
A0D
330
A02
100
AcDbEntity
  8
S07_Wheels_FrontSide
100
AcDbCircle
 10
85.000000000
 20
217.999999994
 30
0.000000000
 40
5.250000000
  0
ARC
  5
A0E
330
A02
100
AcDbEntity
  8
S07_Wheels_FrontSide
100
AcDbCircle
 10
85.000000000
 20
217.999999994
 30
0.000000000
 40
18.750000000
100
AcDbArc
 50
153.578178478
 51
90.000000000
  0
ARC
  5
A0F
330
A02
100
AcDbEntity
  8
S07_Wheels_FrontSide
100
AcDbCircle
 10
85.000000000
 20
217.999999994
 30
0.000000000
 40
18.750000000
100
AcDbArc
 50
90.000000000
 51
106.421821522
  0
CIRCLE
  5
A10
330
A02
100
AcDbEntity
  8
S07_Wheels_FrontSide
100
AcDbCircle
 10
85.000000000
 20
217.999999994
 30
0.000000000
 40
11.875000000
  0
LINE
  5
A11
330
A02
100
AcDbEntity
  8
S07_Wheels_FrontSide
100
AcDbLine
 10
70.416337043
 20
223.712204014
 30
0.000000000
 11
64.791945459
 21
230.415092891
 31
0.000000000
  0
LINE
  5
A12
330
A02
100
AcDbEntity
  8
S07_Wheels_FrontSide
100
AcDbLine
 10
81.907003690
 20
233.354018159
 30
0.000000000
 11
76.282612105
 21
240.056907037
 31
0.000000000
  0
LINE
  5
A13
330
A02
100
AcDbEntity
  8
S07_Wheels_FrontSide
100
AcDbLine
 10
70.416337043
 20
223.712204014
 30
0.000000000
 11
81.907003690
 21
233.354018159
 31
0.000000000
  0
LINE
  5
A14
330
A02
100
AcDbEntity
  8
S07_Wheels_FrontSide
100
AcDbLine
 10
64.791945459
 20
230.415092891
 30
0.000000000
 11
76.282612105
 21
240.056907037
 31
0.000000000
  0
CIRCLE
  5
A15
330
A02
100
AcDbEntity
  8
S07_Wheels_FrontSide
100
AcDbCircle
 10
85.000000000
 20
217.999999994
 30
0.000000000
 40
41.250000000
  0
CIRCLE
  5
A16
330
A02
100
AcDbEntity
  8
S07_Wheels_RearSide
100
AcDbCircle
 10
215.000000000
 20
217.999999994
 30
0.000000000
 40
41.875000000
  0
CIRCLE
  5
A17
330
A02
100
AcDbEntity
  8
S07_Wheels_RearSide
100
AcDbCircle
 10
215.000000000
 20
217.999999994
 30
0.000000000
 40
28.575000000
  0
CIRCLE
  5
A18
330
A02
100
AcDbEntity
  8
S07_Wheels_RearSide
100
AcDbCircle
 10
215.000000000
 20
217.999999994
 30
0.000000000
 40
34.825000000
  0
CIRCLE
  5
A19
330
A02
100
AcDbEntity
  8
S07_Wheels_RearSide
100
AcDbCircle
 10
215.000000000
 20
217.999999994
 30
0.000000000
 40
32.325000000
  0
CIRCLE
  5
A1A
330
A02
100
AcDbEntity
  8
S07_Wheels_RearSide
100
AcDbCircle
 10
215.000000000
 20
217.999999994
 30
0.000000000
 40
26.825000000
  0
CIRCLE
  5
A1B
330
A02
100
AcDbEntity
  8
S07_Wheels_RearSide
100
AcDbCircle
 10
215.000000000
 20
217.999999994
 30
0.000000000
 40
5.250000000
  0
ARC
  5
A1C
330
A02
100
AcDbEntity
  8
S07_Wheels_RearSide
100
AcDbCircle
 10
215.000000000
 20
217.999999994
 30
0.000000000
 40
18.125000000
100
AcDbArc
 50
154.443335428
 51
90.000000000
  0
ARC
  5
A1D
330
A02
100
AcDbEntity
  8
S07_Wheels_RearSide
100
AcDbCircle
 10
215.000000000
 20
217.999999994
 30
0.000000000
 40
18.125000000
100
AcDbArc
 50
90.000000000
 51
105.556664572
  0
CIRCLE
  5
A1E
330
A02
100
AcDbEntity
  8
S07_Wheels_RearSide
100
AcDbCircle
 10
215.000000000
 20
217.999999994
 30
0.000000000
 40
11.250000000
  0
LINE
  5
A1F
330
A02
100
AcDbEntity
  8
S07_Wheels_RearSide
100
AcDbLine
 10
200.818079299
 20
223.233426237
 30
0.000000000
 11
195.193687715
 21
229.936315114
 31
0.000000000
  0
LINE
  5
A20
330
A02
100
AcDbEntity
  8
S07_Wheels_RearSide
100
AcDbLine
 10
212.308745946
 20
232.875240382
 30
0.000000000
 11
206.684354361
 21
239.578129260
 31
0.000000000
  0
LINE
  5
A21
330
A02
100
AcDbEntity
  8
S07_Wheels_RearSide
100
AcDbLine
 10
200.818079299
 20
223.233426237
 30
0.000000000
 11
212.308745946
 21
232.875240382
 31
0.000000000
  0
LINE
  5
A22
330
A02
100
AcDbEntity
  8
S07_Wheels_RearSide
100
AcDbLine
 10
195.193687715
 20
229.936315114
 30
0.000000000
 11
206.684354361
 21
239.578129260
 31
0.000000000
  0
CIRCLE
  5
A23
330
A02
100
AcDbEntity
  8
S07_Wheels_RearSide
100
AcDbCircle
 10
215.000000000
 20
217.999999994
 30
0.000000000
 40
41.875000000
  0
CIRCLE
  5
A24
330
A02
100
AcDbEntity
  8
S07_Wheels_RearSide
100
AcDbCircle
 10
215.000000000
 20
217.999999994
 30
0.000000000
 40
35.000000000
  0
LINE
  5
A25
330
A02
100
AcDbEntity
  8
S07_Wheels_SecJ
100
AcDbLine
 10
97.212500000
 20
163.250000000
 30
0.000000000
 11
72.812500000
 21
163.250000000
 31
0.000000000
  0
LINE
  5
A26
330
A02
100
AcDbEntity
  8
S07_Wheels_SecJ
100
AcDbLine
 10
97.212500000
 20
80.750000000
 30
0.000000000
 11
72.812500000
 21
80.750000000
 31
0.000000000
  0
ARC
  5
A27
330
A02
100
AcDbEntity
  8
S07_Wheels_SecJ
100
AcDbCircle
 10
97.212500000
 20
156.387500000
 30
0.000000000
 40
6.862500000
100
AcDbArc
 50
0.000000000
 51
90.000000000
  0
LINE
  5
A28
330
A02
100
AcDbEntity
  8
S07_Wheels_SecJ
100
AcDbLine
 10
104.075000000
 20
150.575000000
 30
0.000000000
 11
104.075000000
 21
156.387500000
 31
0.000000000
  0
LINE
  5
A29
330
A02
100
AcDbEntity
  8
S07_Wheels_SecJ
100
AcDbLine
 10
104.075000000
 20
150.575000000
 30
0.000000000
 11
65.950000000
 21
150.575000000
 31
0.000000000
  0
LINE
  5
A2A
330
A02
100
AcDbEntity
  8
S07_Wheels_SecJ
100
AcDbLine
 10
65.950000000
 20
150.575000000
 30
0.000000000
 11
65.950000000
 21
156.387500000
 31
0.000000000
  0
ARC
  5
A2B
330
A02
100
AcDbEntity
  8
S07_Wheels_SecJ
100
AcDbCircle
 10
72.812500000
 20
156.387500000
 30
0.000000000
 40
6.862500000
100
AcDbArc
 50
90.000000000
 51
180.000000000
  0
ARC
  5
A2C
330
A02
100
AcDbEntity
  8
S07_Wheels_SecJ
100
AcDbCircle
 10
72.812500000
 20
87.612500000
 30
0.000000000
 40
6.862500000
100
AcDbArc
 50
180.000000000
 51
-90.000000000
  0
LINE
  5
A2D
330
A02
100
AcDbEntity
  8
S07_Wheels_SecJ
100
AcDbLine
 10
65.950000000
 20
87.612500000
 30
0.000000000
 11
65.950000000
 21
93.425000000
 31
0.000000000
  0
LINE
  5
A2E
330
A02
100
AcDbEntity
  8
S07_Wheels_SecJ
100
AcDbLine
 10
104.075000000
 20
93.425000000
 30
0.000000000
 11
65.950000000
 21
93.425000000
 31
0.000000000
  0
LINE
  5
A2F
330
A02
100
AcDbEntity
  8
S07_Wheels_SecJ
100
AcDbLine
 10
104.075000000
 20
87.612500000
 30
0.000000000
 11
104.075000000
 21
93.425000000
 31
0.000000000
  0
ARC
  5
A30
330
A02
100
AcDbEntity
  8
S07_Wheels_SecJ
100
AcDbCircle
 10
97.212500000
 20
87.612500000
 30
0.000000000
 40
6.862500000
100
AcDbArc
 50
-90.000000000
 51
0.000000000
  0
SPLINE
  5
A31
330
A02
100
AcDbEntity
  8
S07_Wheels_SecJ
100
AcDbSpline
210
0
220
0
230
1
 70
8
 71
1
 72
17
 73
15
 74
0
 40
0.000000000
 40
0.000000000
 40
0.224399475
 40
0.448798951
 40
0.673198426
 40
0.897597901
 40
1.121997376
 40
1.346396852
 40
1.570796327
 40
1.795195802
 40
2.019595277
 40
2.243994753
 40
2.468394228
 40
2.692793703
 40
2.917193178
 40
3.141592654
 40
3.141592654
 10
104.075000000
 20
150.575000000
 30
0.000000000
 10
104.075000000
 20
149.858565091
 30
0.000000000
 10
104.075000000
 20
147.745185400
 30
0.000000000
 10
104.075000000
 20
144.340834612
 30
0.000000000
 10
104.075000000
 20
139.816221088
 30
0.000000000
 10
104.075000000
 20
134.398227845
 30
0.000000000
 10
104.075000000
 20
128.358535688
 30
0.000000000
 10
104.075000000
 20
122.000000000
 30
0.000000000
 10
104.075000000
 20
115.641464312
 30
0.000000000
 10
104.075000000
 20
109.601772155
 30
0.000000000
 10
104.075000000
 20
104.183778912
 30
0.000000000
 10
104.075000000
 20
99.659165388
 30
0.000000000
 10
104.075000000
 20
96.254814600
 30
0.000000000
 10
104.075000000
 20
94.141434909
 30
0.000000000
 10
104.075000000
 20
93.425000000
 30
0.000000000
  0
SPLINE
  5
A32
330
A02
100
AcDbEntity
  8
S07_Wheels_SecJ
100
AcDbSpline
210
0
220
0
230
1
 70
8
 71
1
 72
17
 73
15
 74
0
 40
0.000000000
 40
0.000000000
 40
0.099001402
 40
0.198002805
 40
0.297004207
 40
0.396005609
 40
0.495007011
 40
0.594008414
 40
0.693009816
 40
0.792011218
 40
0.891012621
 40
0.990014023
 40
1.089015425
 40
1.188016827
 40
1.287018230
 40
1.386019632
 40
1.386019632
 10
65.950000000
 20
150.575000000
 30
0.000000000
 10
65.950000000
 20
150.435078586
 30
0.000000000
 10
65.950000000
 20
150.016684631
 30
0.000000000
 10
65.950000000
 20
149.323915584
 30
0.000000000
 10
65.950000000
 20
148.363555921
 30
0.000000000
 10
65.950000000
 20
147.145010709
 30
0.000000000
 10
65.950000000
 20
145.680213497
 30
0.000000000
 10
65.950000000
 20
143.983509445
 30
0.000000000
 10
65.950000000
 20
142.071514842
 30
0.000000000
 10
65.950000000
 20
139.962954379
 30
0.000000000
 10
65.950000000
 20
137.678477766
 30
0.000000000
 10
65.950000000
 20
135.240457511
 30
0.000000000
 10
65.950000000
 20
132.672769816
 30
0.000000000
 10
65.950000000
 20
130.000560753
 30
0.000000000
 10
65.950000000
 20
127.250000000
 30
0.000000000
  0
SPLINE
  5
A33
330
A02
100
AcDbEntity
  8
S07_Wheels_SecJ
100
AcDbSpline
210
0
220
0
230
1
 70
8
 71
1
 72
17
 73
15
 74
0
 40
1.755573022
 40
1.755573022
 40
1.854574424
 40
1.953575826
 40
2.052577228
 40
2.151578631
 40
2.250580033
 40
2.349581435
 40
2.448582838
 40
2.547584240
 40
2.646585642
 40
2.745587044
 40
2.844588447
 40
2.943589849
 40
3.042591251
 40
3.141592654
 40
3.141592654
 10
65.950000000
 20
116.750000000
 30
0.000000000
 10
65.950000000
 20
113.999439247
 30
0.000000000
 10
65.950000000
 20
111.327230184
 30
0.000000000
 10
65.950000000
 20
108.759542489
 30
0.000000000
 10
65.950000000
 20
106.321522234
 30
0.000000000
 10
65.950000000
 20
104.037045621
 30
0.000000000
 10
65.950000000
 20
101.928485158
 30
0.000000000
 10
65.950000000
 20
100.016490555
 30
0.000000000
 10
65.950000000
 20
98.319786503
 30
0.000000000
 10
65.950000000
 20
96.854989291
 30
0.000000000
 10
65.950000000
 20
95.636444079
 30
0.000000000
 10
65.950000000
 20
94.676084416
 30
0.000000000
 10
65.950000000
 20
93.983315369
 30
0.000000000
 10
65.950000000
 20
93.564921414
 30
0.000000000
 10
65.950000000
 20
93.425000000
 30
0.000000000
  0
LINE
  5
A34
330
A02
100
AcDbEntity
  8
S07_Wheels_SecJ
100
AcDbLine
 10
97.212500000
 20
163.250000000
 30
0.000000000
 11
72.812500000
 21
163.250000000
 31
0.000000000
  0
LINE
  5
A35
330
A02
100
AcDbEntity
  8
S07_Wheels_SecJ
100
AcDbLine
 10
97.212500000
 20
80.750000000
 30
0.000000000
 11
72.812500000
 21
80.750000000
 31
0.000000000
  0
ARC
  5
A36
330
A02
100
AcDbEntity
  8
S07_Wheels_SecJ
100
AcDbCircle
 10
97.212500000
 20
156.387500000
 30
0.000000000
 40
6.862500000
100
AcDbArc
 50
0.000000000
 51
90.000000000
  0
LINE
  5
A37
330
A02
100
AcDbEntity
  8
S07_Wheels_SecJ
100
AcDbLine
 10
104.075000000
 20
150.575000000
 30
0.000000000
 11
104.075000000
 21
156.387500000
 31
0.000000000
  0
LINE
  5
A38
330
A02
100
AcDbEntity
  8
S07_Wheels_SecJ
100
AcDbLine
 10
104.075000000
 20
150.575000000
 30
0.000000000
 11
65.950000000
 21
150.575000000
 31
0.000000000
  0
LINE
  5
A39
330
A02
100
AcDbEntity
  8
S07_Wheels_SecJ
100
AcDbLine
 10
65.950000000
 20
150.575000000
 30
0.000000000
 11
65.950000000
 21
156.387500000
 31
0.000000000
  0
ARC
  5
A3A
330
A02
100
AcDbEntity
  8
S07_Wheels_SecJ
100
AcDbCircle
 10
72.812500000
 20
156.387500000
 30
0.000000000
 40
6.862500000
100
AcDbArc
 50
90.000000000
 51
180.000000000
  0
ARC
  5
A3B
330
A02
100
AcDbEntity
  8
S07_Wheels_SecJ
100
AcDbCircle
 10
72.812500000
 20
87.612500000
 30
0.000000000
 40
6.862500000
100
AcDbArc
 50
180.000000000
 51
-90.000000000
  0
LINE
  5
A3C
330
A02
100
AcDbEntity
  8
S07_Wheels_SecJ
100
AcDbLine
 10
65.950000000
 20
87.612500000
 30
0.000000000
 11
65.950000000
 21
93.425000000
 31
0.000000000
  0
LINE
  5
A3D
330
A02
100
AcDbEntity
  8
S07_Wheels_SecJ
100
AcDbLine
 10
104.075000000
 20
93.425000000
 30
0.000000000
 11
65.950000000
 21
93.425000000
 31
0.000000000
  0
LINE
  5
A3E
330
A02
100
AcDbEntity
  8
S07_Wheels_SecJ
100
AcDbLine
 10
104.075000000
 20
87.612500000
 30
0.000000000
 11
104.075000000
 21
93.425000000
 31
0.000000000
  0
ARC
  5
A3F
330
A02
100
AcDbEntity
  8
S07_Wheels_SecJ
100
AcDbCircle
 10
97.212500000
 20
87.612500000
 30
0.000000000
 40
6.862500000
100
AcDbArc
 50
-90.000000000
 51
0.000000000
  0
SPLINE
  5
A40
330
A02
100
AcDbEntity
  8
S07_Wheels_SecJ
100
AcDbSpline
210
0
220
0
230
1
 70
8
 71
1
 72
17
 73
15
 74
0
 40
0.000000000
 40
0.000000000
 40
0.224399475
 40
0.448798951
 40
0.673198426
 40
0.897597901
 40
1.121997376
 40
1.346396852
 40
1.570796327
 40
1.795195802
 40
2.019595277
 40
2.243994753
 40
2.468394228
 40
2.692793703
 40
2.917193178
 40
3.141592654
 40
3.141592654
 10
104.075000000
 20
150.575000000
 30
0.000000000
 10
104.075000000
 20
149.858565091
 30
0.000000000
 10
104.075000000
 20
147.745185400
 30
0.000000000
 10
104.075000000
 20
144.340834612
 30
0.000000000
 10
104.075000000
 20
139.816221088
 30
0.000000000
 10
104.075000000
 20
134.398227845
 30
0.000000000
 10
104.075000000
 20
128.358535688
 30
0.000000000
 10
104.075000000
 20
122.000000000
 30
0.000000000
 10
104.075000000
 20
115.641464312
 30
0.000000000
 10
104.075000000
 20
109.601772155
 30
0.000000000
 10
104.075000000
 20
104.183778912
 30
0.000000000
 10
104.075000000
 20
99.659165388
 30
0.000000000
 10
104.075000000
 20
96.254814600
 30
0.000000000
 10
104.075000000
 20
94.141434909
 30
0.000000000
 10
104.075000000
 20
93.425000000
 30
0.000000000
  0
SPLINE
  5
A41
330
A02
100
AcDbEntity
  8
S07_Wheels_SecJ
100
AcDbSpline
210
0
220
0
230
1
 70
8
 71
1
 72
17
 73
15
 74
0
 40
0.000000000
 40
0.000000000
 40
0.099001402
 40
0.198002805
 40
0.297004207
 40
0.396005609
 40
0.495007011
 40
0.594008414
 40
0.693009816
 40
0.792011218
 40
0.891012621
 40
0.990014023
 40
1.089015425
 40
1.188016827
 40
1.287018230
 40
1.386019632
 40
1.386019632
 10
65.950000000
 20
150.575000000
 30
0.000000000
 10
65.950000000
 20
150.435078586
 30
0.000000000
 10
65.950000000
 20
150.016684631
 30
0.000000000
 10
65.950000000
 20
149.323915584
 30
0.000000000
 10
65.950000000
 20
148.363555921
 30
0.000000000
 10
65.950000000
 20
147.145010709
 30
0.000000000
 10
65.950000000
 20
145.680213497
 30
0.000000000
 10
65.950000000
 20
143.983509445
 30
0.000000000
 10
65.950000000
 20
142.071514842
 30
0.000000000
 10
65.950000000
 20
139.962954379
 30
0.000000000
 10
65.950000000
 20
137.678477766
 30
0.000000000
 10
65.950000000
 20
135.240457511
 30
0.000000000
 10
65.950000000
 20
132.672769816
 30
0.000000000
 10
65.950000000
 20
130.000560753
 30
0.000000000
 10
65.950000000
 20
127.250000000
 30
0.000000000
  0
SPLINE
  5
A42
330
A02
100
AcDbEntity
  8
S07_Wheels_SecJ
100
AcDbSpline
210
0
220
0
230
1
 70
8
 71
1
 72
17
 73
15
 74
0
 40
1.755573022
 40
1.755573022
 40
1.854574424
 40
1.953575826
 40
2.052577228
 40
2.151578631
 40
2.250580033
 40
2.349581435
 40
2.448582838
 40
2.547584240
 40
2.646585642
 40
2.745587044
 40
2.844588447
 40
2.943589849
 40
3.042591251
 40
3.141592654
 40
3.141592654
 10
65.950000000
 20
116.750000000
 30
0.000000000
 10
65.950000000
 20
113.999439247
 30
0.000000000
 10
65.950000000
 20
111.327230184
 30
0.000000000
 10
65.950000000
 20
108.759542489
 30
0.000000000
 10
65.950000000
 20
106.321522234
 30
0.000000000
 10
65.950000000
 20
104.037045621
 30
0.000000000
 10
65.950000000
 20
101.928485158
 30
0.000000000
 10
65.950000000
 20
100.016490555
 30
0.000000000
 10
65.950000000
 20
98.319786503
 30
0.000000000
 10
65.950000000
 20
96.854989291
 30
0.000000000
 10
65.950000000
 20
95.636444079
 30
0.000000000
 10
65.950000000
 20
94.676084416
 30
0.000000000
 10
65.950000000
 20
93.983315369
 30
0.000000000
 10
65.950000000
 20
93.564921414
 30
0.000000000
 10
65.950000000
 20
93.425000000
 30
0.000000000
  0
LINE
  5
A43
330
A02
100
AcDbEntity
  8
S07_Wheels_SecJ
100
AcDbLine
 10
66.075000000
 20
87.175000000
 30
0.000000000
 11
65.800000000
 21
87.175000000
 31
0.000000000
  0
LINE
  5
A44
330
A02
100
AcDbEntity
  8
S07_Wheels_SecJ
100
AcDbLine
 10
66.075000000
 20
156.825000000
 30
0.000000000
 11
65.800000000
 21
156.825000000
 31
0.000000000
  0
LINE
  5
A45
330
A02
100
AcDbEntity
  8
S07_Wheels_SecJ
100
AcDbLine
 10
65.800000000
 20
154.325000000
 30
0.000000000
 11
65.800000000
 21
156.825000000
 31
0.000000000
  0
SPLINE
  5
A46
330
A02
100
AcDbEntity
  8
S07_Wheels_SecJ
100
AcDbSpline
210
0
220
0
230
1
 70
8
 71
1
 72
17
 73
15
 74
0
 40
0.000000000
 40
0.000000000
 40
0.224399475
 40
0.448798951
 40
0.673198426
 40
0.897597901
 40
1.121997376
 40
1.346396852
 40
1.570796327
 40
1.795195802
 40
2.019595277
 40
2.243994753
 40
2.468394228
 40
2.692793703
 40
2.917193178
 40
3.141592654
 40
3.141592654
 10
65.800000000
 20
154.325000000
 30
0.000000000
 10
65.800000000
 20
153.514544761
 30
0.000000000
 10
65.800000000
 20
151.123818655
 30
0.000000000
 10
65.800000000
 20
147.272702671
 30
0.000000000
 10
65.800000000
 20
142.154307845
 30
0.000000000
 10
65.800000000
 20
136.025291867
 30
0.000000000
 10
65.800000000
 20
129.192989190
 30
0.000000000
 10
65.800000000
 20
122.000000000
 30
0.000000000
 10
65.800000000
 20
114.807010810
 30
0.000000000
 10
65.800000000
 20
107.974708133
 30
0.000000000
 10
65.800000000
 20
101.845692155
 30
0.000000000
 10
65.800000000
 20
96.727297329
 30
0.000000000
 10
65.800000000
 20
92.876181345
 30
0.000000000
 10
65.800000000
 20
90.485455239
 30
0.000000000
 10
65.800000000
 20
89.675000000
 30
0.000000000
  0
LINE
  5
A47
330
A02
100
AcDbEntity
  8
S07_Wheels_SecJ
100
AcDbLine
 10
65.800000000
 20
87.175000000
 30
0.000000000
 11
65.800000000
 21
89.675000000
 31
0.000000000
  0
LINE
  5
A48
330
A02
100
AcDbEntity
  8
S07_Wheels_SecJ
100
AcDbLine
 10
66.075000000
 20
89.675000000
 30
0.000000000
 11
65.800000000
 21
89.675000000
 31
0.000000000
  0
LINE
  5
A49
330
A02
100
AcDbEntity
  8
S07_Wheels_SecJ
100
AcDbLine
 10
66.075000000
 20
87.175000000
 30
0.000000000
 11
66.075000000
 21
89.675000000
 31
0.000000000
  0
LINE
  5
A4A
330
A02
100
AcDbEntity
  8
S07_Wheels_SecJ
100
AcDbLine
 10
66.075000000
 20
154.325000000
 30
0.000000000
 11
66.075000000
 21
156.825000000
 31
0.000000000
  0
LINE
  5
A4B
330
A02
100
AcDbEntity
  8
S07_Wheels_SecJ
100
AcDbLine
 10
66.075000000
 20
154.325000000
 30
0.000000000
 11
65.800000000
 21
154.325000000
 31
0.000000000
  0
LINE
  5
A4C
330
A02
100
AcDbEntity
  8
S07_Wheels_SecJ
100
AcDbLine
 10
104.200000000
 20
87.175000000
 30
0.000000000
 11
103.925000000
 21
87.175000000
 31
0.000000000
  0
LINE
  5
A4D
330
A02
100
AcDbEntity
  8
S07_Wheels_SecJ
100
AcDbLine
 10
104.200000000
 20
156.825000000
 30
0.000000000
 11
103.925000000
 21
156.825000000
 31
0.000000000
  0
LINE
  5
A4E
330
A02
100
AcDbEntity
  8
S07_Wheels_SecJ
100
AcDbLine
 10
103.925000000
 20
154.325000000
 30
0.000000000
 11
103.925000000
 21
156.825000000
 31
0.000000000
  0
LINE
  5
A4F
330
A02
100
AcDbEntity
  8
S07_Wheels_SecJ
100
AcDbLine
 10
103.925000000
 20
87.175000000
 30
0.000000000
 11
103.925000000
 21
89.675000000
 31
0.000000000
  0
LINE
  5
A50
330
A02
100
AcDbEntity
  8
S07_Wheels_SecJ
100
AcDbLine
 10
104.200000000
 20
89.675000000
 30
0.000000000
 11
103.925000000
 21
89.675000000
 31
0.000000000
  0
LINE
  5
A51
330
A02
100
AcDbEntity
  8
S07_Wheels_SecJ
100
AcDbLine
 10
104.200000000
 20
87.175000000
 30
0.000000000
 11
104.200000000
 21
89.675000000
 31
0.000000000
  0
LINE
  5
A52
330
A02
100
AcDbEntity
  8
S07_Wheels_SecJ
100
AcDbLine
 10
104.200000000
 20
154.325000000
 30
0.000000000
 11
104.200000000
 21
156.825000000
 31
0.000000000
  0
SPLINE
  5
A53
330
A02
100
AcDbEntity
  8
S07_Wheels_SecJ
100
AcDbSpline
210
0
220
0
230
1
 70
8
 71
1
 72
17
 73
15
 74
0
 40
0.000000000
 40
0.000000000
 40
0.224399475
 40
0.448798951
 40
0.673198426
 40
0.897597901
 40
1.121997376
 40
1.346396852
 40
1.570796327
 40
1.795195802
 40
2.019595277
 40
2.243994753
 40
2.468394228
 40
2.692793703
 40
2.917193178
 40
3.141592654
 40
3.141592654
 10
104.200000000
 20
154.325000000
 30
0.000000000
 10
104.200000000
 20
153.514544761
 30
0.000000000
 10
104.200000000
 20
151.123818655
 30
0.000000000
 10
104.200000000
 20
147.272702671
 30
0.000000000
 10
104.200000000
 20
142.154307845
 30
0.000000000
 10
104.200000000
 20
136.025291867
 30
0.000000000
 10
104.200000000
 20
129.192989190
 30
0.000000000
 10
104.200000000
 20
122.000000000
 30
0.000000000
 10
104.200000000
 20
114.807010810
 30
0.000000000
 10
104.200000000
 20
107.974708133
 30
0.000000000
 10
104.200000000
 20
101.845692155
 30
0.000000000
 10
104.200000000
 20
96.727297329
 30
0.000000000
 10
104.200000000
 20
92.876181345
 30
0.000000000
 10
104.200000000
 20
90.485455239
 30
0.000000000
 10
104.200000000
 20
89.675000000
 30
0.000000000
  0
LINE
  5
A54
330
A02
100
AcDbEntity
  8
S07_Wheels_SecJ
100
AcDbLine
 10
104.200000000
 20
154.325000000
 30
0.000000000
 11
103.925000000
 21
154.325000000
 31
0.000000000
  0
LINE
  5
A55
330
A02
100
AcDbEntity
  8
S07_Wheels_SecJ
100
AcDbLine
 10
66.075000000
 20
87.175000000
 30
0.000000000
 11
65.800000000
 21
87.175000000
 31
0.000000000
  0
LINE
  5
A56
330
A02
100
AcDbEntity
  8
S07_Wheels_SecJ
100
AcDbLine
 10
66.075000000
 20
156.825000000
 30
0.000000000
 11
65.800000000
 21
156.825000000
 31
0.000000000
  0
LINE
  5
A57
330
A02
100
AcDbEntity
  8
S07_Wheels_SecJ
100
AcDbLine
 10
65.800000000
 20
154.325000000
 30
0.000000000
 11
65.800000000
 21
156.825000000
 31
0.000000000
  0
SPLINE
  5
A58
330
A02
100
AcDbEntity
  8
S07_Wheels_SecJ
100
AcDbSpline
210
0
220
0
230
1
 70
8
 71
1
 72
17
 73
15
 74
0
 40
0.000000000
 40
0.000000000
 40
0.224399475
 40
0.448798951
 40
0.673198426
 40
0.897597901
 40
1.121997376
 40
1.346396852
 40
1.570796327
 40
1.795195802
 40
2.019595277
 40
2.243994753
 40
2.468394228
 40
2.692793703
 40
2.917193178
 40
3.141592654
 40
3.141592654
 10
65.800000000
 20
154.325000000
 30
0.000000000
 10
65.800000000
 20
153.514544761
 30
0.000000000
 10
65.800000000
 20
151.123818655
 30
0.000000000
 10
65.800000000
 20
147.272702671
 30
0.000000000
 10
65.800000000
 20
142.154307845
 30
0.000000000
 10
65.800000000
 20
136.025291867
 30
0.000000000
 10
65.800000000
 20
129.192989190
 30
0.000000000
 10
65.800000000
 20
122.000000000
 30
0.000000000
 10
65.800000000
 20
114.807010810
 30
0.000000000
 10
65.800000000
 20
107.974708133
 30
0.000000000
 10
65.800000000
 20
101.845692155
 30
0.000000000
 10
65.800000000
 20
96.727297329
 30
0.000000000
 10
65.800000000
 20
92.876181345
 30
0.000000000
 10
65.800000000
 20
90.485455239
 30
0.000000000
 10
65.800000000
 20
89.675000000
 30
0.000000000
  0
LINE
  5
A59
330
A02
100
AcDbEntity
  8
S07_Wheels_SecJ
100
AcDbLine
 10
65.800000000
 20
87.175000000
 30
0.000000000
 11
65.800000000
 21
89.675000000
 31
0.000000000
  0
LINE
  5
A5A
330
A02
100
AcDbEntity
  8
S07_Wheels_SecJ
100
AcDbLine
 10
66.075000000
 20
89.675000000
 30
0.000000000
 11
65.800000000
 21
89.675000000
 31
0.000000000
  0
LINE
  5
A5B
330
A02
100
AcDbEntity
  8
S07_Wheels_SecJ
100
AcDbLine
 10
66.075000000
 20
87.175000000
 30
0.000000000
 11
66.075000000
 21
89.675000000
 31
0.000000000
  0
LINE
  5
A5C
330
A02
100
AcDbEntity
  8
S07_Wheels_SecJ
100
AcDbLine
 10
66.075000000
 20
154.325000000
 30
0.000000000
 11
66.075000000
 21
156.825000000
 31
0.000000000
  0
LINE
  5
A5D
330
A02
100
AcDbEntity
  8
S07_Wheels_SecJ
100
AcDbLine
 10
66.075000000
 20
154.325000000
 30
0.000000000
 11
65.800000000
 21
154.325000000
 31
0.000000000
  0
LINE
  5
A5E
330
A02
100
AcDbEntity
  8
S07_Wheels_SecJ
100
AcDbLine
 10
104.200000000
 20
87.175000000
 30
0.000000000
 11
103.925000000
 21
87.175000000
 31
0.000000000
  0
LINE
  5
A5F
330
A02
100
AcDbEntity
  8
S07_Wheels_SecJ
100
AcDbLine
 10
104.200000000
 20
156.825000000
 30
0.000000000
 11
103.925000000
 21
156.825000000
 31
0.000000000
  0
LINE
  5
A60
330
A02
100
AcDbEntity
  8
S07_Wheels_SecJ
100
AcDbLine
 10
103.925000000
 20
154.325000000
 30
0.000000000
 11
103.925000000
 21
156.825000000
 31
0.000000000
  0
LINE
  5
A61
330
A02
100
AcDbEntity
  8
S07_Wheels_SecJ
100
AcDbLine
 10
103.925000000
 20
87.175000000
 30
0.000000000
 11
103.925000000
 21
89.675000000
 31
0.000000000
  0
LINE
  5
A62
330
A02
100
AcDbEntity
  8
S07_Wheels_SecJ
100
AcDbLine
 10
104.200000000
 20
89.675000000
 30
0.000000000
 11
103.925000000
 21
89.675000000
 31
0.000000000
  0
LINE
  5
A63
330
A02
100
AcDbEntity
  8
S07_Wheels_SecJ
100
AcDbLine
 10
104.200000000
 20
87.175000000
 30
0.000000000
 11
104.200000000
 21
89.675000000
 31
0.000000000
  0
LINE
  5
A64
330
A02
100
AcDbEntity
  8
S07_Wheels_SecJ
100
AcDbLine
 10
104.200000000
 20
154.325000000
 30
0.000000000
 11
104.200000000
 21
156.825000000
 31
0.000000000
  0
SPLINE
  5
A65
330
A02
100
AcDbEntity
  8
S07_Wheels_SecJ
100
AcDbSpline
210
0
220
0
230
1
 70
8
 71
1
 72
17
 73
15
 74
0
 40
0.000000000
 40
0.000000000
 40
0.224399475
 40
0.448798951
 40
0.673198426
 40
0.897597901
 40
1.121997376
 40
1.346396852
 40
1.570796327
 40
1.795195802
 40
2.019595277
 40
2.243994753
 40
2.468394228
 40
2.692793703
 40
2.917193178
 40
3.141592654
 40
3.141592654
 10
104.200000000
 20
154.325000000
 30
0.000000000
 10
104.200000000
 20
153.514544761
 30
0.000000000
 10
104.200000000
 20
151.123818655
 30
0.000000000
 10
104.200000000
 20
147.272702671
 30
0.000000000
 10
104.200000000
 20
142.154307845
 30
0.000000000
 10
104.200000000
 20
136.025291867
 30
0.000000000
 10
104.200000000
 20
129.192989190
 30
0.000000000
 10
104.200000000
 20
122.000000000
 30
0.000000000
 10
104.200000000
 20
114.807010810
 30
0.000000000
 10
104.200000000
 20
107.974708133
 30
0.000000000
 10
104.200000000
 20
101.845692155
 30
0.000000000
 10
104.200000000
 20
96.727297329
 30
0.000000000
 10
104.200000000
 20
92.876181345
 30
0.000000000
 10
104.200000000
 20
90.485455239
 30
0.000000000
 10
104.200000000
 20
89.675000000
 30
0.000000000
  0
LINE
  5
A66
330
A02
100
AcDbEntity
  8
S07_Wheels_SecJ
100
AcDbLine
 10
104.200000000
 20
154.325000000
 30
0.000000000
 11
103.925000000
 21
154.325000000
 31
0.000000000
  0
LINE
  5
A67
330
A02
100
AcDbEntity
  8
S07_Wheels_SecJ
100
AcDbLine
 10
102.200000000
 20
93.425000000
 30
0.000000000
 11
67.825000000
 21
93.425000000
 31
0.000000000
  0
LINE
  5
A68
330
A02
100
AcDbEntity
  8
S07_Wheels_SecJ
100
AcDbLine
 10
102.200000000
 20
150.575000000
 30
0.000000000
 11
67.825000000
 21
150.575000000
 31
0.000000000
  0
LINE
  5
A69
330
A02
100
AcDbEntity
  8
S07_Wheels_SecJ
100
AcDbLine
 10
67.825000000
 20
148.825000000
 30
0.000000000
 11
67.825000000
 21
150.575000000
 31
0.000000000
  0
SPLINE
  5
A6A
330
A02
100
AcDbEntity
  8
S07_Wheels_SecJ
100
AcDbSpline
210
0
220
0
230
1
 70
8
 71
1
 72
17
 73
15
 74
0
 40
0.000000000
 40
0.000000000
 40
0.098129423
 40
0.196258845
 40
0.294388268
 40
0.392517690
 40
0.490647113
 40
0.588776535
 40
0.686905958
 40
0.785035380
 40
0.883164803
 40
0.981294225
 40
1.079423648
 40
1.177553070
 40
1.275682493
 40
1.373811915
 40
1.373811915
 10
67.825000000
 20
148.825000000
 30
0.000000000
 10
67.825000000
 20
148.695949499
 30
0.000000000
 10
67.825000000
 20
148.310039677
 30
0.000000000
 10
67.825000000
 20
147.670983625
 30
0.000000000
 10
67.825000000
 20
146.784930124
 30
0.000000000
 10
67.825000000
 20
145.660404478
 30
0.000000000
 10
67.825000000
 20
144.308226489
 30
0.000000000
 10
67.825000000
 20
142.741406353
 30
0.000000000
 10
67.825000000
 20
140.975019479
 30
0.000000000
 10
67.825000000
 20
139.026061438
 30
0.000000000
 10
67.825000000
 20
136.913284441
 30
0.000000000
 10
67.825000000
 20
134.657016907
 30
0.000000000
 10
67.825000000
 20
132.278967873
 30
0.000000000
 10
67.825000000
 20
129.802018115
 30
0.000000000
 10
67.825000000
 20
127.250000000
 30
0.000000000
  0
SPLINE
  5
A6B
330
A02
100
AcDbEntity
  8
S07_Wheels_SecJ
100
AcDbSpline
210
0
220
0
230
1
 70
8
 71
1
 72
17
 73
15
 74
0
 40
1.767780738
 40
1.767780738
 40
1.865910161
 40
1.964039583
 40
2.062169006
 40
2.160298428
 40
2.258427851
 40
2.356557273
 40
2.454686696
 40
2.552816118
 40
2.650945541
 40
2.749074963
 40
2.847204386
 40
2.945333809
 40
3.043463231
 40
3.141592654
 40
3.141592654
 10
67.825000000
 20
116.750000000
 30
0.000000000
 10
67.825000000
 20
114.197981885
 30
0.000000000
 10
67.825000000
 20
111.721032127
 30
0.000000000
 10
67.825000000
 20
109.342983093
 30
0.000000000
 10
67.825000000
 20
107.086715559
 30
0.000000000
 10
67.825000000
 20
104.973938562
 30
0.000000000
 10
67.825000000
 20
103.024980521
 30
0.000000000
 10
67.825000000
 20
101.258593647
 30
0.000000000
 10
67.825000000
 20
99.691773511
 30
0.000000000
 10
67.825000000
 20
98.339595522
 30
0.000000000
 10
67.825000000
 20
97.215069876
 30
0.000000000
 10
67.825000000
 20
96.329016375
 30
0.000000000
 10
67.825000000
 20
95.689960323
 30
0.000000000
 10
67.825000000
 20
95.304050501
 30
0.000000000
 10
67.825000000
 20
95.175000000
 30
0.000000000
  0
LINE
  5
A6C
330
A02
100
AcDbEntity
  8
S07_Wheels_SecJ
100
AcDbLine
 10
67.825000000
 20
93.425000000
 30
0.000000000
 11
67.825000000
 21
95.175000000
 31
0.000000000
  0
LINE
  5
A6D
330
A02
100
AcDbEntity
  8
S07_Wheels_SecJ
100
AcDbLine
 10
102.200000000
 20
148.825000000
 30
0.000000000
 11
102.200000000
 21
150.575000000
 31
0.000000000
  0
LINE
  5
A6E
330
A02
100
AcDbEntity
  8
S07_Wheels_SecJ
100
AcDbLine
 10
102.200000000
 20
148.825000000
 30
0.000000000
 11
69.700000000
 21
148.825000000
 31
0.000000000
  0
LINE
  5
A6F
330
A02
100
AcDbEntity
  8
S07_Wheels_SecJ
100
AcDbLine
 10
69.700000000
 20
95.175000000
 30
0.000000000
 11
69.700000000
 21
148.825000000
 31
0.000000000
  0
LINE
  5
A70
330
A02
100
AcDbEntity
  8
S07_Wheels_SecJ
100
AcDbLine
 10
102.200000000
 20
95.175000000
 30
0.000000000
 11
69.700000000
 21
95.175000000
 31
0.000000000
  0
LINE
  5
A71
330
A02
100
AcDbEntity
  8
S07_Wheels_SecJ
100
AcDbLine
 10
102.200000000
 20
93.425000000
 30
0.000000000
 11
102.200000000
 21
95.175000000
 31
0.000000000
  0
LINE
  5
A72
330
A02
100
AcDbEntity
  8
S07_Wheels_SecJ
100
AcDbLine
 10
68.950000000
 20
95.175000000
 30
0.000000000
 11
67.825000000
 21
95.175000000
 31
0.000000000
  0
LINE
  5
A73
330
A02
100
AcDbEntity
  8
S07_Wheels_SecJ
100
AcDbLine
 10
68.950000000
 20
95.175000000
 30
0.000000000
 11
68.950000000
 21
148.825000000
 31
0.000000000
  0
LINE
  5
A74
330
A02
100
AcDbEntity
  8
S07_Wheels_SecJ
100
AcDbLine
 10
68.950000000
 20
148.825000000
 30
0.000000000
 11
67.825000000
 21
148.825000000
 31
0.000000000
  0
SPLINE
  5
A75
330
A02
100
AcDbEntity
  8
S07_Wheels_SecJ
100
AcDbSpline
210
0
220
0
230
1
 70
8
 71
1
 72
17
 73
15
 74
0
 40
0.000000000
 40
0.000000000
 40
0.224399475
 40
0.448798951
 40
0.673198426
 40
0.897597901
 40
1.121997376
 40
1.346396852
 40
1.570796327
 40
1.795195802
 40
2.019595277
 40
2.243994753
 40
2.468394228
 40
2.692793703
 40
2.917193178
 40
3.141592654
 40
3.141592654
 10
102.200000000
 20
148.825000000
 30
0.000000000
 10
102.200000000
 20
148.152441244
 30
0.000000000
 10
102.200000000
 20
146.168489881
 30
0.000000000
 10
102.200000000
 20
142.972629517
 30
0.000000000
 10
102.200000000
 20
138.725113935
 30
0.000000000
 10
102.200000000
 20
133.638931302
 30
0.000000000
 10
102.200000000
 20
127.969124053
 30
0.000000000
 10
102.200000000
 20
122.000000000
 30
0.000000000
 10
102.200000000
 20
116.030875947
 30
0.000000000
 10
102.200000000
 20
110.361068698
 30
0.000000000
 10
102.200000000
 20
105.274886065
 30
0.000000000
 10
102.200000000
 20
101.027370483
 30
0.000000000
 10
102.200000000
 20
97.831510119
 30
0.000000000
 10
102.200000000
 20
95.847558756
 30
0.000000000
 10
102.200000000
 20
95.175000000
 30
0.000000000
  0
LINE
  5
A76
330
A02
100
AcDbEntity
  8
S07_Wheels_SecJ
100
AcDbLine
 10
102.200000000
 20
93.425000000
 30
0.000000000
 11
67.825000000
 21
93.425000000
 31
0.000000000
  0
LINE
  5
A77
330
A02
100
AcDbEntity
  8
S07_Wheels_SecJ
100
AcDbLine
 10
102.200000000
 20
150.575000000
 30
0.000000000
 11
67.825000000
 21
150.575000000
 31
0.000000000
  0
LINE
  5
A78
330
A02
100
AcDbEntity
  8
S07_Wheels_SecJ
100
AcDbLine
 10
67.825000000
 20
148.825000000
 30
0.000000000
 11
67.825000000
 21
150.575000000
 31
0.000000000
  0
SPLINE
  5
A79
330
A02
100
AcDbEntity
  8
S07_Wheels_SecJ
100
AcDbSpline
210
0
220
0
230
1
 70
8
 71
1
 72
17
 73
15
 74
0
 40
0.000000000
 40
0.000000000
 40
0.098129423
 40
0.196258845
 40
0.294388268
 40
0.392517690
 40
0.490647113
 40
0.588776535
 40
0.686905958
 40
0.785035380
 40
0.883164803
 40
0.981294225
 40
1.079423648
 40
1.177553070
 40
1.275682493
 40
1.373811915
 40
1.373811915
 10
67.825000000
 20
148.825000000
 30
0.000000000
 10
67.825000000
 20
148.695949499
 30
0.000000000
 10
67.825000000
 20
148.310039677
 30
0.000000000
 10
67.825000000
 20
147.670983625
 30
0.000000000
 10
67.825000000
 20
146.784930124
 30
0.000000000
 10
67.825000000
 20
145.660404478
 30
0.000000000
 10
67.825000000
 20
144.308226489
 30
0.000000000
 10
67.825000000
 20
142.741406353
 30
0.000000000
 10
67.825000000
 20
140.975019479
 30
0.000000000
 10
67.825000000
 20
139.026061438
 30
0.000000000
 10
67.825000000
 20
136.913284441
 30
0.000000000
 10
67.825000000
 20
134.657016907
 30
0.000000000
 10
67.825000000
 20
132.278967873
 30
0.000000000
 10
67.825000000
 20
129.802018115
 30
0.000000000
 10
67.825000000
 20
127.250000000
 30
0.000000000
  0
SPLINE
  5
A7A
330
A02
100
AcDbEntity
  8
S07_Wheels_SecJ
100
AcDbSpline
210
0
220
0
230
1
 70
8
 71
1
 72
17
 73
15
 74
0
 40
1.767780738
 40
1.767780738
 40
1.865910161
 40
1.964039583
 40
2.062169006
 40
2.160298428
 40
2.258427851
 40
2.356557273
 40
2.454686696
 40
2.552816118
 40
2.650945541
 40
2.749074963
 40
2.847204386
 40
2.945333809
 40
3.043463231
 40
3.141592654
 40
3.141592654
 10
67.825000000
 20
116.750000000
 30
0.000000000
 10
67.825000000
 20
114.197981885
 30
0.000000000
 10
67.825000000
 20
111.721032127
 30
0.000000000
 10
67.825000000
 20
109.342983093
 30
0.000000000
 10
67.825000000
 20
107.086715559
 30
0.000000000
 10
67.825000000
 20
104.973938562
 30
0.000000000
 10
67.825000000
 20
103.024980521
 30
0.000000000
 10
67.825000000
 20
101.258593647
 30
0.000000000
 10
67.825000000
 20
99.691773511
 30
0.000000000
 10
67.825000000
 20
98.339595522
 30
0.000000000
 10
67.825000000
 20
97.215069876
 30
0.000000000
 10
67.825000000
 20
96.329016375
 30
0.000000000
 10
67.825000000
 20
95.689960323
 30
0.000000000
 10
67.825000000
 20
95.304050501
 30
0.000000000
 10
67.825000000
 20
95.175000000
 30
0.000000000
  0
LINE
  5
A7B
330
A02
100
AcDbEntity
  8
S07_Wheels_SecJ
100
AcDbLine
 10
67.825000000
 20
93.425000000
 30
0.000000000
 11
67.825000000
 21
95.175000000
 31
0.000000000
  0
LINE
  5
A7C
330
A02
100
AcDbEntity
  8
S07_Wheels_SecJ
100
AcDbLine
 10
102.200000000
 20
148.825000000
 30
0.000000000
 11
102.200000000
 21
150.575000000
 31
0.000000000
  0
LINE
  5
A7D
330
A02
100
AcDbEntity
  8
S07_Wheels_SecJ
100
AcDbLine
 10
102.200000000
 20
148.825000000
 30
0.000000000
 11
69.700000000
 21
148.825000000
 31
0.000000000
  0
LINE
  5
A7E
330
A02
100
AcDbEntity
  8
S07_Wheels_SecJ
100
AcDbLine
 10
69.700000000
 20
95.175000000
 30
0.000000000
 11
69.700000000
 21
148.825000000
 31
0.000000000
  0
LINE
  5
A7F
330
A02
100
AcDbEntity
  8
S07_Wheels_SecJ
100
AcDbLine
 10
102.200000000
 20
95.175000000
 30
0.000000000
 11
69.700000000
 21
95.175000000
 31
0.000000000
  0
LINE
  5
A80
330
A02
100
AcDbEntity
  8
S07_Wheels_SecJ
100
AcDbLine
 10
102.200000000
 20
93.425000000
 30
0.000000000
 11
102.200000000
 21
95.175000000
 31
0.000000000
  0
LINE
  5
A81
330
A02
100
AcDbEntity
  8
S07_Wheels_SecJ
100
AcDbLine
 10
68.950000000
 20
95.175000000
 30
0.000000000
 11
67.825000000
 21
95.175000000
 31
0.000000000
  0
LINE
  5
A82
330
A02
100
AcDbEntity
  8
S07_Wheels_SecJ
100
AcDbLine
 10
68.950000000
 20
95.175000000
 30
0.000000000
 11
68.950000000
 21
148.825000000
 31
0.000000000
  0
LINE
  5
A83
330
A02
100
AcDbEntity
  8
S07_Wheels_SecJ
100
AcDbLine
 10
68.950000000
 20
148.825000000
 30
0.000000000
 11
67.825000000
 21
148.825000000
 31
0.000000000
  0
SPLINE
  5
A84
330
A02
100
AcDbEntity
  8
S07_Wheels_SecJ
100
AcDbSpline
210
0
220
0
230
1
 70
8
 71
1
 72
17
 73
15
 74
0
 40
0.000000000
 40
0.000000000
 40
0.224399475
 40
0.448798951
 40
0.673198426
 40
0.897597901
 40
1.121997376
 40
1.346396852
 40
1.570796327
 40
1.795195802
 40
2.019595277
 40
2.243994753
 40
2.468394228
 40
2.692793703
 40
2.917193178
 40
3.141592654
 40
3.141592654
 10
102.200000000
 20
148.825000000
 30
0.000000000
 10
102.200000000
 20
148.152441244
 30
0.000000000
 10
102.200000000
 20
146.168489881
 30
0.000000000
 10
102.200000000
 20
142.972629517
 30
0.000000000
 10
102.200000000
 20
138.725113935
 30
0.000000000
 10
102.200000000
 20
133.638931302
 30
0.000000000
 10
102.200000000
 20
127.969124053
 30
0.000000000
 10
102.200000000
 20
122.000000000
 30
0.000000000
 10
102.200000000
 20
116.030875947
 30
0.000000000
 10
102.200000000
 20
110.361068698
 30
0.000000000
 10
102.200000000
 20
105.274886065
 30
0.000000000
 10
102.200000000
 20
101.027370483
 30
0.000000000
 10
102.200000000
 20
97.831510119
 30
0.000000000
 10
102.200000000
 20
95.847558756
 30
0.000000000
 10
102.200000000
 20
95.175000000
 30
0.000000000
  0
LINE
  5
A85
330
A02
100
AcDbEntity
  8
S07_Wheels_SecJ
100
AcDbLine
 10
69.700000000
 20
116.750000000
 30
0.000000000
 11
65.950000000
 21
116.750000000
 31
0.000000000
  0
LINE
  5
A86
330
A02
100
AcDbEntity
  8
S07_Wheels_SecJ
100
AcDbLine
 10
69.700000000
 20
127.250000000
 30
0.000000000
 11
65.950000000
 21
127.250000000
 31
0.000000000
  0
LINE
  5
A87
330
A02
100
AcDbEntity
  8
S07_Wheels_SecJ
100
AcDbLine
 10
65.950000000
 20
116.750000000
 30
0.000000000
 11
65.950000000
 21
127.250000000
 31
0.000000000
  0
LINE
  5
A88
330
A02
100
AcDbEntity
  8
S07_Wheels_SecJ
100
AcDbLine
 10
69.700000000
 20
116.750000000
 30
0.000000000
 11
69.700000000
 21
127.250000000
 31
0.000000000
  0
LINE
  5
A89
330
A02
100
AcDbEntity
  8
S07_Wheels_SecJ
100
AcDbLine
 10
100.950000000
 20
103.250000000
 30
0.000000000
 11
96.950000000
 21
103.250000000
 31
0.000000000
  0
LINE
  5
A8A
330
A02
100
AcDbEntity
  8
S07_Wheels_SecJ
100
AcDbLine
 10
100.950000000
 20
140.750000000
 30
0.000000000
 11
96.950000000
 21
140.750000000
 31
0.000000000
  0
LINE
  5
A8B
330
A02
100
AcDbEntity
  8
S07_Wheels_SecJ
100
AcDbLine
 10
96.950000000
 20
133.875000000
 30
0.000000000
 11
96.950000000
 21
140.750000000
 31
0.000000000
  0
SPLINE
  5
A8C
330
A02
100
AcDbEntity
  8
S07_Wheels_SecJ
100
AcDbSpline
210
0
220
0
230
1
 70
8
 71
1
 72
17
 73
15
 74
0
 40
0.000000000
 40
0.000000000
 40
0.224399475
 40
0.448798951
 40
0.673198426
 40
0.897597901
 40
1.121997376
 40
1.346396852
 40
1.570796327
 40
1.795195802
 40
2.019595277
 40
2.243994753
 40
2.468394228
 40
2.692793703
 40
2.917193178
 40
3.141592654
 40
3.141592654
 10
96.950000000
 20
133.875000000
 30
0.000000000
 10
96.950000000
 20
133.577268957
 30
0.000000000
 10
96.950000000
 20
132.699005306
 30
0.000000000
 10
96.950000000
 20
131.284248854
 30
0.000000000
 10
96.950000000
 20
129.403941397
 30
0.000000000
 10
96.950000000
 20
127.152369402
 30
0.000000000
 10
96.950000000
 20
124.642436091
 30
0.000000000
 10
96.950000000
 20
122.000000000
 30
0.000000000
 10
96.950000000
 20
119.357563909
 30
0.000000000
 10
96.950000000
 20
116.847630598
 30
0.000000000
 10
96.950000000
 20
114.596058603
 30
0.000000000
 10
96.950000000
 20
112.715751146
 30
0.000000000
 10
96.950000000
 20
111.300994694
 30
0.000000000
 10
96.950000000
 20
110.422731043
 30
0.000000000
 10
96.950000000
 20
110.125000000
 30
0.000000000
  0
LINE
  5
A8D
330
A02
100
AcDbEntity
  8
S07_Wheels_SecJ
100
AcDbLine
 10
96.950000000
 20
103.250000000
 30
0.000000000
 11
96.950000000
 21
110.125000000
 31
0.000000000
  0
LINE
  5
A8E
330
A02
100
AcDbEntity
  8
S07_Wheels_SecJ
100
AcDbLine
 10
100.950000000
 20
110.125000000
 30
0.000000000
 11
96.950000000
 21
110.125000000
 31
0.000000000
  0
LINE
  5
A8F
330
A02
100
AcDbEntity
  8
S07_Wheels_SecJ
100
AcDbLine
 10
100.950000000
 20
103.250000000
 30
0.000000000
 11
100.950000000
 21
110.125000000
 31
0.000000000
  0
LINE
  5
A90
330
A02
100
AcDbEntity
  8
S07_Wheels_SecJ
100
AcDbLine
 10
100.950000000
 20
133.875000000
 30
0.000000000
 11
100.950000000
 21
140.750000000
 31
0.000000000
  0
SPLINE
  5
A91
330
A02
100
AcDbEntity
  8
S07_Wheels_SecJ
100
AcDbSpline
210
0
220
0
230
1
 70
8
 71
1
 72
17
 73
15
 74
0
 40
0.000000000
 40
0.000000000
 40
0.224399475
 40
0.448798951
 40
0.673198426
 40
0.897597901
 40
1.121997376
 40
1.346396852
 40
1.570796327
 40
1.795195802
 40
2.019595277
 40
2.243994753
 40
2.468394228
 40
2.692793703
 40
2.917193178
 40
3.141592654
 40
3.141592654
 10
100.950000000
 20
133.875000000
 30
0.000000000
 10
100.950000000
 20
133.577268957
 30
0.000000000
 10
100.950000000
 20
132.699005306
 30
0.000000000
 10
100.950000000
 20
131.284248854
 30
0.000000000
 10
100.950000000
 20
129.403941397
 30
0.000000000
 10
100.950000000
 20
127.152369402
 30
0.000000000
 10
100.950000000
 20
124.642436091
 30
0.000000000
 10
100.950000000
 20
122.000000000
 30
0.000000000
 10
100.950000000
 20
119.357563909
 30
0.000000000
 10
100.950000000
 20
116.847630598
 30
0.000000000
 10
100.950000000
 20
114.596058603
 30
0.000000000
 10
100.950000000
 20
112.715751146
 30
0.000000000
 10
100.950000000
 20
111.300994694
 30
0.000000000
 10
100.950000000
 20
110.422731043
 30
0.000000000
 10
100.950000000
 20
110.125000000
 30
0.000000000
  0
LINE
  5
A92
330
A02
100
AcDbEntity
  8
S07_Wheels_SecJ
100
AcDbLine
 10
100.950000000
 20
133.875000000
 30
0.000000000
 11
96.950000000
 21
133.875000000
 31
0.000000000
  0
LINE
  5
A93
330
A02
100
AcDbEntity
  8
S07_Wheels_SecJ
100
AcDbLine
 10
100.950000000
 20
103.250000000
 30
0.000000000
 11
96.950000000
 21
103.250000000
 31
0.000000000
  0
LINE
  5
A94
330
A02
100
AcDbEntity
  8
S07_Wheels_SecJ
100
AcDbLine
 10
100.950000000
 20
140.750000000
 30
0.000000000
 11
96.950000000
 21
140.750000000
 31
0.000000000
  0
LINE
  5
A95
330
A02
100
AcDbEntity
  8
S07_Wheels_SecJ
100
AcDbLine
 10
96.950000000
 20
133.875000000
 30
0.000000000
 11
96.950000000
 21
140.750000000
 31
0.000000000
  0
SPLINE
  5
A96
330
A02
100
AcDbEntity
  8
S07_Wheels_SecJ
100
AcDbSpline
210
0
220
0
230
1
 70
8
 71
1
 72
17
 73
15
 74
0
 40
0.000000000
 40
0.000000000
 40
0.224399475
 40
0.448798951
 40
0.673198426
 40
0.897597901
 40
1.121997376
 40
1.346396852
 40
1.570796327
 40
1.795195802
 40
2.019595277
 40
2.243994753
 40
2.468394228
 40
2.692793703
 40
2.917193178
 40
3.141592654
 40
3.141592654
 10
96.950000000
 20
133.875000000
 30
0.000000000
 10
96.950000000
 20
133.577268957
 30
0.000000000
 10
96.950000000
 20
132.699005306
 30
0.000000000
 10
96.950000000
 20
131.284248854
 30
0.000000000
 10
96.950000000
 20
129.403941397
 30
0.000000000
 10
96.950000000
 20
127.152369402
 30
0.000000000
 10
96.950000000
 20
124.642436091
 30
0.000000000
 10
96.950000000
 20
122.000000000
 30
0.000000000
 10
96.950000000
 20
119.357563909
 30
0.000000000
 10
96.950000000
 20
116.847630598
 30
0.000000000
 10
96.950000000
 20
114.596058603
 30
0.000000000
 10
96.950000000
 20
112.715751146
 30
0.000000000
 10
96.950000000
 20
111.300994694
 30
0.000000000
 10
96.950000000
 20
110.422731043
 30
0.000000000
 10
96.950000000
 20
110.125000000
 30
0.000000000
  0
LINE
  5
A97
330
A02
100
AcDbEntity
  8
S07_Wheels_SecJ
100
AcDbLine
 10
96.950000000
 20
103.250000000
 30
0.000000000
 11
96.950000000
 21
110.125000000
 31
0.000000000
  0
LINE
  5
A98
330
A02
100
AcDbEntity
  8
S07_Wheels_SecJ
100
AcDbLine
 10
100.950000000
 20
110.125000000
 30
0.000000000
 11
96.950000000
 21
110.125000000
 31
0.000000000
  0
LINE
  5
A99
330
A02
100
AcDbEntity
  8
S07_Wheels_SecJ
100
AcDbLine
 10
100.950000000
 20
103.250000000
 30
0.000000000
 11
100.950000000
 21
110.125000000
 31
0.000000000
  0
LINE
  5
A9A
330
A02
100
AcDbEntity
  8
S07_Wheels_SecJ
100
AcDbLine
 10
100.950000000
 20
133.875000000
 30
0.000000000
 11
100.950000000
 21
140.750000000
 31
0.000000000
  0
SPLINE
  5
A9B
330
A02
100
AcDbEntity
  8
S07_Wheels_SecJ
100
AcDbSpline
210
0
220
0
230
1
 70
8
 71
1
 72
17
 73
15
 74
0
 40
0.000000000
 40
0.000000000
 40
0.224399475
 40
0.448798951
 40
0.673198426
 40
0.897597901
 40
1.121997376
 40
1.346396852
 40
1.570796327
 40
1.795195802
 40
2.019595277
 40
2.243994753
 40
2.468394228
 40
2.692793703
 40
2.917193178
 40
3.141592654
 40
3.141592654
 10
100.950000000
 20
133.875000000
 30
0.000000000
 10
100.950000000
 20
133.577268957
 30
0.000000000
 10
100.950000000
 20
132.699005306
 30
0.000000000
 10
100.950000000
 20
131.284248854
 30
0.000000000
 10
100.950000000
 20
129.403941397
 30
0.000000000
 10
100.950000000
 20
127.152369402
 30
0.000000000
 10
100.950000000
 20
124.642436091
 30
0.000000000
 10
100.950000000
 20
122.000000000
 30
0.000000000
 10
100.950000000
 20
119.357563909
 30
0.000000000
 10
100.950000000
 20
116.847630598
 30
0.000000000
 10
100.950000000
 20
114.596058603
 30
0.000000000
 10
100.950000000
 20
112.715751146
 30
0.000000000
 10
100.950000000
 20
111.300994694
 30
0.000000000
 10
100.950000000
 20
110.422731043
 30
0.000000000
 10
100.950000000
 20
110.125000000
 30
0.000000000
  0
LINE
  5
A9C
330
A02
100
AcDbEntity
  8
S07_Wheels_SecJ
100
AcDbLine
 10
100.950000000
 20
133.875000000
 30
0.000000000
 11
96.950000000
 21
133.875000000
 31
0.000000000
  0
LINE
  5
A9D
330
A02
100
AcDbEntity
  8
S07_Wheels_SecK
100
AcDbLine
 10
233.450000000
 20
163.875000000
 30
0.000000000
 11
196.575000000
 21
163.875000000
 31
0.000000000
  0
LINE
  5
A9E
330
A02
100
AcDbEntity
  8
S07_Wheels_SecK
100
AcDbLine
 10
233.450000000
 20
80.125000000
 30
0.000000000
 11
196.575000000
 21
80.125000000
 31
0.000000000
  0
ARC
  5
A9F
330
A02
100
AcDbEntity
  8
S07_Wheels_SecK
100
AcDbCircle
 10
233.450000000
 20
157.000000000
 30
0.000000000
 40
6.875000000
100
AcDbArc
 50
0.000000000
 51
90.000000000
  0
LINE
  5
AA0
330
A02
100
AcDbEntity
  8
S07_Wheels_SecK
100
AcDbLine
 10
240.325000000
 20
150.575000000
 30
0.000000000
 11
240.325000000
 21
157.000000000
 31
0.000000000
  0
LINE
  5
AA1
330
A02
100
AcDbEntity
  8
S07_Wheels_SecK
100
AcDbLine
 10
240.325000000
 20
150.575000000
 30
0.000000000
 11
189.700000000
 21
150.575000000
 31
0.000000000
  0
LINE
  5
AA2
330
A02
100
AcDbEntity
  8
S07_Wheels_SecK
100
AcDbLine
 10
189.700000000
 20
150.575000000
 30
0.000000000
 11
189.700000000
 21
157.000000000
 31
0.000000000
  0
ARC
  5
AA3
330
A02
100
AcDbEntity
  8
S07_Wheels_SecK
100
AcDbCircle
 10
196.575000000
 20
157.000000000
 30
0.000000000
 40
6.875000000
100
AcDbArc
 50
90.000000000
 51
180.000000000
  0
ARC
  5
AA4
330
A02
100
AcDbEntity
  8
S07_Wheels_SecK
100
AcDbCircle
 10
196.575000000
 20
87.000000000
 30
0.000000000
 40
6.875000000
100
AcDbArc
 50
180.000000000
 51
-90.000000000
  0
LINE
  5
AA5
330
A02
100
AcDbEntity
  8
S07_Wheels_SecK
100
AcDbLine
 10
189.700000000
 20
87.000000000
 30
0.000000000
 11
189.700000000
 21
93.425000000
 31
0.000000000
  0
LINE
  5
AA6
330
A02
100
AcDbEntity
  8
S07_Wheels_SecK
100
AcDbLine
 10
240.325000000
 20
93.425000000
 30
0.000000000
 11
189.700000000
 21
93.425000000
 31
0.000000000
  0
LINE
  5
AA7
330
A02
100
AcDbEntity
  8
S07_Wheels_SecK
100
AcDbLine
 10
240.325000000
 20
87.000000000
 30
0.000000000
 11
240.325000000
 21
93.425000000
 31
0.000000000
  0
ARC
  5
AA8
330
A02
100
AcDbEntity
  8
S07_Wheels_SecK
100
AcDbCircle
 10
233.450000000
 20
87.000000000
 30
0.000000000
 40
6.875000000
100
AcDbArc
 50
-90.000000000
 51
0.000000000
  0
SPLINE
  5
AA9
330
A02
100
AcDbEntity
  8
S07_Wheels_SecK
100
AcDbSpline
210
0
220
0
230
1
 70
8
 71
1
 72
17
 73
15
 74
0
 40
0.000000000
 40
0.000000000
 40
0.224399475
 40
0.448798951
 40
0.673198426
 40
0.897597901
 40
1.121997376
 40
1.346396852
 40
1.570796327
 40
1.795195802
 40
2.019595277
 40
2.243994753
 40
2.468394228
 40
2.692793703
 40
2.917193178
 40
3.141592654
 40
3.141592654
 10
240.325000000
 20
150.575000000
 30
0.000000000
 10
240.325000000
 20
149.858565091
 30
0.000000000
 10
240.325000000
 20
147.745185400
 30
0.000000000
 10
240.325000000
 20
144.340834612
 30
0.000000000
 10
240.325000000
 20
139.816221088
 30
0.000000000
 10
240.325000000
 20
134.398227845
 30
0.000000000
 10
240.325000000
 20
128.358535688
 30
0.000000000
 10
240.325000000
 20
122.000000000
 30
0.000000000
 10
240.325000000
 20
115.641464312
 30
0.000000000
 10
240.325000000
 20
109.601772155
 30
0.000000000
 10
240.325000000
 20
104.183778912
 30
0.000000000
 10
240.325000000
 20
99.659165388
 30
0.000000000
 10
240.325000000
 20
96.254814600
 30
0.000000000
 10
240.325000000
 20
94.141434909
 30
0.000000000
 10
240.325000000
 20
93.425000000
 30
0.000000000
  0
SPLINE
  5
AAA
330
A02
100
AcDbEntity
  8
S07_Wheels_SecK
100
AcDbSpline
210
0
220
0
230
1
 70
8
 71
1
 72
17
 73
15
 74
0
 40
0.000000000
 40
0.000000000
 40
0.099001402
 40
0.198002805
 40
0.297004207
 40
0.396005609
 40
0.495007011
 40
0.594008414
 40
0.693009816
 40
0.792011218
 40
0.891012621
 40
0.990014023
 40
1.089015425
 40
1.188016827
 40
1.287018230
 40
1.386019632
 40
1.386019632
 10
189.700000000
 20
150.575000000
 30
0.000000000
 10
189.700000000
 20
150.435078586
 30
0.000000000
 10
189.700000000
 20
150.016684631
 30
0.000000000
 10
189.700000000
 20
149.323915584
 30
0.000000000
 10
189.700000000
 20
148.363555921
 30
0.000000000
 10
189.700000000
 20
147.145010709
 30
0.000000000
 10
189.700000000
 20
145.680213497
 30
0.000000000
 10
189.700000000
 20
143.983509445
 30
0.000000000
 10
189.700000000
 20
142.071514842
 30
0.000000000
 10
189.700000000
 20
139.962954379
 30
0.000000000
 10
189.700000000
 20
137.678477766
 30
0.000000000
 10
189.700000000
 20
135.240457511
 30
0.000000000
 10
189.700000000
 20
132.672769816
 30
0.000000000
 10
189.700000000
 20
130.000560753
 30
0.000000000
 10
189.700000000
 20
127.250000000
 30
0.000000000
  0
SPLINE
  5
AAB
330
A02
100
AcDbEntity
  8
S07_Wheels_SecK
100
AcDbSpline
210
0
220
0
230
1
 70
8
 71
1
 72
17
 73
15
 74
0
 40
1.755573022
 40
1.755573022
 40
1.854574424
 40
1.953575826
 40
2.052577228
 40
2.151578631
 40
2.250580033
 40
2.349581435
 40
2.448582838
 40
2.547584240
 40
2.646585642
 40
2.745587044
 40
2.844588447
 40
2.943589849
 40
3.042591251
 40
3.141592654
 40
3.141592654
 10
189.700000000
 20
116.750000000
 30
0.000000000
 10
189.700000000
 20
113.999439247
 30
0.000000000
 10
189.700000000
 20
111.327230184
 30
0.000000000
 10
189.700000000
 20
108.759542489
 30
0.000000000
 10
189.700000000
 20
106.321522234
 30
0.000000000
 10
189.700000000
 20
104.037045621
 30
0.000000000
 10
189.700000000
 20
101.928485158
 30
0.000000000
 10
189.700000000
 20
100.016490555
 30
0.000000000
 10
189.700000000
 20
98.319786503
 30
0.000000000
 10
189.700000000
 20
96.854989291
 30
0.000000000
 10
189.700000000
 20
95.636444079
 30
0.000000000
 10
189.700000000
 20
94.676084416
 30
0.000000000
 10
189.700000000
 20
93.983315369
 30
0.000000000
 10
189.700000000
 20
93.564921414
 30
0.000000000
 10
189.700000000
 20
93.425000000
 30
0.000000000
  0
LINE
  5
AAC
330
A02
100
AcDbEntity
  8
S07_Wheels_SecK
100
AcDbLine
 10
233.450000000
 20
163.875000000
 30
0.000000000
 11
196.575000000
 21
163.875000000
 31
0.000000000
  0
LINE
  5
AAD
330
A02
100
AcDbEntity
  8
S07_Wheels_SecK
100
AcDbLine
 10
233.450000000
 20
80.125000000
 30
0.000000000
 11
196.575000000
 21
80.125000000
 31
0.000000000
  0
ARC
  5
AAE
330
A02
100
AcDbEntity
  8
S07_Wheels_SecK
100
AcDbCircle
 10
233.450000000
 20
157.000000000
 30
0.000000000
 40
6.875000000
100
AcDbArc
 50
0.000000000
 51
90.000000000
  0
LINE
  5
AAF
330
A02
100
AcDbEntity
  8
S07_Wheels_SecK
100
AcDbLine
 10
240.325000000
 20
150.575000000
 30
0.000000000
 11
240.325000000
 21
157.000000000
 31
0.000000000
  0
LINE
  5
AB0
330
A02
100
AcDbEntity
  8
S07_Wheels_SecK
100
AcDbLine
 10
240.325000000
 20
150.575000000
 30
0.000000000
 11
189.700000000
 21
150.575000000
 31
0.000000000
  0
LINE
  5
AB1
330
A02
100
AcDbEntity
  8
S07_Wheels_SecK
100
AcDbLine
 10
189.700000000
 20
150.575000000
 30
0.000000000
 11
189.700000000
 21
157.000000000
 31
0.000000000
  0
ARC
  5
AB2
330
A02
100
AcDbEntity
  8
S07_Wheels_SecK
100
AcDbCircle
 10
196.575000000
 20
157.000000000
 30
0.000000000
 40
6.875000000
100
AcDbArc
 50
90.000000000
 51
180.000000000
  0
ARC
  5
AB3
330
A02
100
AcDbEntity
  8
S07_Wheels_SecK
100
AcDbCircle
 10
196.575000000
 20
87.000000000
 30
0.000000000
 40
6.875000000
100
AcDbArc
 50
180.000000000
 51
-90.000000000
  0
LINE
  5
AB4
330
A02
100
AcDbEntity
  8
S07_Wheels_SecK
100
AcDbLine
 10
189.700000000
 20
87.000000000
 30
0.000000000
 11
189.700000000
 21
93.425000000
 31
0.000000000
  0
LINE
  5
AB5
330
A02
100
AcDbEntity
  8
S07_Wheels_SecK
100
AcDbLine
 10
240.325000000
 20
93.425000000
 30
0.000000000
 11
189.700000000
 21
93.425000000
 31
0.000000000
  0
LINE
  5
AB6
330
A02
100
AcDbEntity
  8
S07_Wheels_SecK
100
AcDbLine
 10
240.325000000
 20
87.000000000
 30
0.000000000
 11
240.325000000
 21
93.425000000
 31
0.000000000
  0
ARC
  5
AB7
330
A02
100
AcDbEntity
  8
S07_Wheels_SecK
100
AcDbCircle
 10
233.450000000
 20
87.000000000
 30
0.000000000
 40
6.875000000
100
AcDbArc
 50
-90.000000000
 51
0.000000000
  0
SPLINE
  5
AB8
330
A02
100
AcDbEntity
  8
S07_Wheels_SecK
100
AcDbSpline
210
0
220
0
230
1
 70
8
 71
1
 72
17
 73
15
 74
0
 40
0.000000000
 40
0.000000000
 40
0.224399475
 40
0.448798951
 40
0.673198426
 40
0.897597901
 40
1.121997376
 40
1.346396852
 40
1.570796327
 40
1.795195802
 40
2.019595277
 40
2.243994753
 40
2.468394228
 40
2.692793703
 40
2.917193178
 40
3.141592654
 40
3.141592654
 10
240.325000000
 20
150.575000000
 30
0.000000000
 10
240.325000000
 20
149.858565091
 30
0.000000000
 10
240.325000000
 20
147.745185400
 30
0.000000000
 10
240.325000000
 20
144.340834612
 30
0.000000000
 10
240.325000000
 20
139.816221088
 30
0.000000000
 10
240.325000000
 20
134.398227845
 30
0.000000000
 10
240.325000000
 20
128.358535688
 30
0.000000000
 10
240.325000000
 20
122.000000000
 30
0.000000000
 10
240.325000000
 20
115.641464312
 30
0.000000000
 10
240.325000000
 20
109.601772155
 30
0.000000000
 10
240.325000000
 20
104.183778912
 30
0.000000000
 10
240.325000000
 20
99.659165388
 30
0.000000000
 10
240.325000000
 20
96.254814600
 30
0.000000000
 10
240.325000000
 20
94.141434909
 30
0.000000000
 10
240.325000000
 20
93.425000000
 30
0.000000000
  0
SPLINE
  5
AB9
330
A02
100
AcDbEntity
  8
S07_Wheels_SecK
100
AcDbSpline
210
0
220
0
230
1
 70
8
 71
1
 72
17
 73
15
 74
0
 40
0.000000000
 40
0.000000000
 40
0.099001402
 40
0.198002805
 40
0.297004207
 40
0.396005609
 40
0.495007011
 40
0.594008414
 40
0.693009816
 40
0.792011218
 40
0.891012621
 40
0.990014023
 40
1.089015425
 40
1.188016827
 40
1.287018230
 40
1.386019632
 40
1.386019632
 10
189.700000000
 20
150.575000000
 30
0.000000000
 10
189.700000000
 20
150.435078586
 30
0.000000000
 10
189.700000000
 20
150.016684631
 30
0.000000000
 10
189.700000000
 20
149.323915584
 30
0.000000000
 10
189.700000000
 20
148.363555921
 30
0.000000000
 10
189.700000000
 20
147.145010709
 30
0.000000000
 10
189.700000000
 20
145.680213497
 30
0.000000000
 10
189.700000000
 20
143.983509445
 30
0.000000000
 10
189.700000000
 20
142.071514842
 30
0.000000000
 10
189.700000000
 20
139.962954379
 30
0.000000000
 10
189.700000000
 20
137.678477766
 30
0.000000000
 10
189.700000000
 20
135.240457511
 30
0.000000000
 10
189.700000000
 20
132.672769816
 30
0.000000000
 10
189.700000000
 20
130.000560753
 30
0.000000000
 10
189.700000000
 20
127.250000000
 30
0.000000000
  0
SPLINE
  5
ABA
330
A02
100
AcDbEntity
  8
S07_Wheels_SecK
100
AcDbSpline
210
0
220
0
230
1
 70
8
 71
1
 72
17
 73
15
 74
0
 40
1.755573022
 40
1.755573022
 40
1.854574424
 40
1.953575826
 40
2.052577228
 40
2.151578631
 40
2.250580033
 40
2.349581435
 40
2.448582838
 40
2.547584240
 40
2.646585642
 40
2.745587044
 40
2.844588447
 40
2.943589849
 40
3.042591251
 40
3.141592654
 40
3.141592654
 10
189.700000000
 20
116.750000000
 30
0.000000000
 10
189.700000000
 20
113.999439247
 30
0.000000000
 10
189.700000000
 20
111.327230184
 30
0.000000000
 10
189.700000000
 20
108.759542489
 30
0.000000000
 10
189.700000000
 20
106.321522234
 30
0.000000000
 10
189.700000000
 20
104.037045621
 30
0.000000000
 10
189.700000000
 20
101.928485158
 30
0.000000000
 10
189.700000000
 20
100.016490555
 30
0.000000000
 10
189.700000000
 20
98.319786503
 30
0.000000000
 10
189.700000000
 20
96.854989291
 30
0.000000000
 10
189.700000000
 20
95.636444079
 30
0.000000000
 10
189.700000000
 20
94.676084416
 30
0.000000000
 10
189.700000000
 20
93.983315369
 30
0.000000000
 10
189.700000000
 20
93.564921414
 30
0.000000000
 10
189.700000000
 20
93.425000000
 30
0.000000000
  0
LINE
  5
ABB
330
A02
100
AcDbEntity
  8
S07_Wheels_SecK
100
AcDbLine
 10
189.825000000
 20
87.175000000
 30
0.000000000
 11
189.550000000
 21
87.175000000
 31
0.000000000
  0
LINE
  5
ABC
330
A02
100
AcDbEntity
  8
S07_Wheels_SecK
100
AcDbLine
 10
189.825000000
 20
156.825000000
 30
0.000000000
 11
189.550000000
 21
156.825000000
 31
0.000000000
  0
LINE
  5
ABD
330
A02
100
AcDbEntity
  8
S07_Wheels_SecK
100
AcDbLine
 10
189.550000000
 20
154.325000000
 30
0.000000000
 11
189.550000000
 21
156.825000000
 31
0.000000000
  0
SPLINE
  5
ABE
330
A02
100
AcDbEntity
  8
S07_Wheels_SecK
100
AcDbSpline
210
0
220
0
230
1
 70
8
 71
1
 72
17
 73
15
 74
0
 40
0.000000000
 40
0.000000000
 40
0.224399475
 40
0.448798951
 40
0.673198426
 40
0.897597901
 40
1.121997376
 40
1.346396852
 40
1.570796327
 40
1.795195802
 40
2.019595277
 40
2.243994753
 40
2.468394228
 40
2.692793703
 40
2.917193178
 40
3.141592654
 40
3.141592654
 10
189.550000000
 20
154.325000000
 30
0.000000000
 10
189.550000000
 20
153.514544761
 30
0.000000000
 10
189.550000000
 20
151.123818655
 30
0.000000000
 10
189.550000000
 20
147.272702671
 30
0.000000000
 10
189.550000000
 20
142.154307845
 30
0.000000000
 10
189.550000000
 20
136.025291867
 30
0.000000000
 10
189.550000000
 20
129.192989190
 30
0.000000000
 10
189.550000000
 20
122.000000000
 30
0.000000000
 10
189.550000000
 20
114.807010810
 30
0.000000000
 10
189.550000000
 20
107.974708133
 30
0.000000000
 10
189.550000000
 20
101.845692155
 30
0.000000000
 10
189.550000000
 20
96.727297329
 30
0.000000000
 10
189.550000000
 20
92.876181345
 30
0.000000000
 10
189.550000000
 20
90.485455239
 30
0.000000000
 10
189.550000000
 20
89.675000000
 30
0.000000000
  0
LINE
  5
ABF
330
A02
100
AcDbEntity
  8
S07_Wheels_SecK
100
AcDbLine
 10
189.550000000
 20
87.175000000
 30
0.000000000
 11
189.550000000
 21
89.675000000
 31
0.000000000
  0
LINE
  5
AC0
330
A02
100
AcDbEntity
  8
S07_Wheels_SecK
100
AcDbLine
 10
189.825000000
 20
89.675000000
 30
0.000000000
 11
189.550000000
 21
89.675000000
 31
0.000000000
  0
LINE
  5
AC1
330
A02
100
AcDbEntity
  8
S07_Wheels_SecK
100
AcDbLine
 10
189.825000000
 20
87.175000000
 30
0.000000000
 11
189.825000000
 21
89.675000000
 31
0.000000000
  0
LINE
  5
AC2
330
A02
100
AcDbEntity
  8
S07_Wheels_SecK
100
AcDbLine
 10
189.825000000
 20
154.325000000
 30
0.000000000
 11
189.825000000
 21
156.825000000
 31
0.000000000
  0
LINE
  5
AC3
330
A02
100
AcDbEntity
  8
S07_Wheels_SecK
100
AcDbLine
 10
189.825000000
 20
154.325000000
 30
0.000000000
 11
189.550000000
 21
154.325000000
 31
0.000000000
  0
LINE
  5
AC4
330
A02
100
AcDbEntity
  8
S07_Wheels_SecK
100
AcDbLine
 10
240.450000000
 20
87.175000000
 30
0.000000000
 11
240.175000000
 21
87.175000000
 31
0.000000000
  0
LINE
  5
AC5
330
A02
100
AcDbEntity
  8
S07_Wheels_SecK
100
AcDbLine
 10
240.450000000
 20
156.825000000
 30
0.000000000
 11
240.175000000
 21
156.825000000
 31
0.000000000
  0
LINE
  5
AC6
330
A02
100
AcDbEntity
  8
S07_Wheels_SecK
100
AcDbLine
 10
240.175000000
 20
154.325000000
 30
0.000000000
 11
240.175000000
 21
156.825000000
 31
0.000000000
  0
LINE
  5
AC7
330
A02
100
AcDbEntity
  8
S07_Wheels_SecK
100
AcDbLine
 10
240.175000000
 20
87.175000000
 30
0.000000000
 11
240.175000000
 21
89.675000000
 31
0.000000000
  0
LINE
  5
AC8
330
A02
100
AcDbEntity
  8
S07_Wheels_SecK
100
AcDbLine
 10
240.450000000
 20
89.675000000
 30
0.000000000
 11
240.175000000
 21
89.675000000
 31
0.000000000
  0
LINE
  5
AC9
330
A02
100
AcDbEntity
  8
S07_Wheels_SecK
100
AcDbLine
 10
240.450000000
 20
87.175000000
 30
0.000000000
 11
240.450000000
 21
89.675000000
 31
0.000000000
  0
LINE
  5
ACA
330
A02
100
AcDbEntity
  8
S07_Wheels_SecK
100
AcDbLine
 10
240.450000000
 20
154.325000000
 30
0.000000000
 11
240.450000000
 21
156.825000000
 31
0.000000000
  0
SPLINE
  5
ACB
330
A02
100
AcDbEntity
  8
S07_Wheels_SecK
100
AcDbSpline
210
0
220
0
230
1
 70
8
 71
1
 72
17
 73
15
 74
0
 40
0.000000000
 40
0.000000000
 40
0.224399475
 40
0.448798951
 40
0.673198426
 40
0.897597901
 40
1.121997376
 40
1.346396852
 40
1.570796327
 40
1.795195802
 40
2.019595277
 40
2.243994753
 40
2.468394228
 40
2.692793703
 40
2.917193178
 40
3.141592654
 40
3.141592654
 10
240.450000000
 20
154.325000000
 30
0.000000000
 10
240.450000000
 20
153.514544761
 30
0.000000000
 10
240.450000000
 20
151.123818655
 30
0.000000000
 10
240.450000000
 20
147.272702671
 30
0.000000000
 10
240.450000000
 20
142.154307845
 30
0.000000000
 10
240.450000000
 20
136.025291867
 30
0.000000000
 10
240.450000000
 20
129.192989190
 30
0.000000000
 10
240.450000000
 20
122.000000000
 30
0.000000000
 10
240.450000000
 20
114.807010810
 30
0.000000000
 10
240.450000000
 20
107.974708133
 30
0.000000000
 10
240.450000000
 20
101.845692155
 30
0.000000000
 10
240.450000000
 20
96.727297329
 30
0.000000000
 10
240.450000000
 20
92.876181345
 30
0.000000000
 10
240.450000000
 20
90.485455239
 30
0.000000000
 10
240.450000000
 20
89.675000000
 30
0.000000000
  0
LINE
  5
ACC
330
A02
100
AcDbEntity
  8
S07_Wheels_SecK
100
AcDbLine
 10
240.450000000
 20
154.325000000
 30
0.000000000
 11
240.175000000
 21
154.325000000
 31
0.000000000
  0
LINE
  5
ACD
330
A02
100
AcDbEntity
  8
S07_Wheels_SecK
100
AcDbLine
 10
189.825000000
 20
87.175000000
 30
0.000000000
 11
189.550000000
 21
87.175000000
 31
0.000000000
  0
LINE
  5
ACE
330
A02
100
AcDbEntity
  8
S07_Wheels_SecK
100
AcDbLine
 10
189.825000000
 20
156.825000000
 30
0.000000000
 11
189.550000000
 21
156.825000000
 31
0.000000000
  0
LINE
  5
ACF
330
A02
100
AcDbEntity
  8
S07_Wheels_SecK
100
AcDbLine
 10
189.550000000
 20
154.325000000
 30
0.000000000
 11
189.550000000
 21
156.825000000
 31
0.000000000
  0
SPLINE
  5
AD0
330
A02
100
AcDbEntity
  8
S07_Wheels_SecK
100
AcDbSpline
210
0
220
0
230
1
 70
8
 71
1
 72
17
 73
15
 74
0
 40
0.000000000
 40
0.000000000
 40
0.224399475
 40
0.448798951
 40
0.673198426
 40
0.897597901
 40
1.121997376
 40
1.346396852
 40
1.570796327
 40
1.795195802
 40
2.019595277
 40
2.243994753
 40
2.468394228
 40
2.692793703
 40
2.917193178
 40
3.141592654
 40
3.141592654
 10
189.550000000
 20
154.325000000
 30
0.000000000
 10
189.550000000
 20
153.514544761
 30
0.000000000
 10
189.550000000
 20
151.123818655
 30
0.000000000
 10
189.550000000
 20
147.272702671
 30
0.000000000
 10
189.550000000
 20
142.154307845
 30
0.000000000
 10
189.550000000
 20
136.025291867
 30
0.000000000
 10
189.550000000
 20
129.192989190
 30
0.000000000
 10
189.550000000
 20
122.000000000
 30
0.000000000
 10
189.550000000
 20
114.807010810
 30
0.000000000
 10
189.550000000
 20
107.974708133
 30
0.000000000
 10
189.550000000
 20
101.845692155
 30
0.000000000
 10
189.550000000
 20
96.727297329
 30
0.000000000
 10
189.550000000
 20
92.876181345
 30
0.000000000
 10
189.550000000
 20
90.485455239
 30
0.000000000
 10
189.550000000
 20
89.675000000
 30
0.000000000
  0
LINE
  5
AD1
330
A02
100
AcDbEntity
  8
S07_Wheels_SecK
100
AcDbLine
 10
189.550000000
 20
87.175000000
 30
0.000000000
 11
189.550000000
 21
89.675000000
 31
0.000000000
  0
LINE
  5
AD2
330
A02
100
AcDbEntity
  8
S07_Wheels_SecK
100
AcDbLine
 10
189.825000000
 20
89.675000000
 30
0.000000000
 11
189.550000000
 21
89.675000000
 31
0.000000000
  0
LINE
  5
AD3
330
A02
100
AcDbEntity
  8
S07_Wheels_SecK
100
AcDbLine
 10
189.825000000
 20
87.175000000
 30
0.000000000
 11
189.825000000
 21
89.675000000
 31
0.000000000
  0
LINE
  5
AD4
330
A02
100
AcDbEntity
  8
S07_Wheels_SecK
100
AcDbLine
 10
189.825000000
 20
154.325000000
 30
0.000000000
 11
189.825000000
 21
156.825000000
 31
0.000000000
  0
LINE
  5
AD5
330
A02
100
AcDbEntity
  8
S07_Wheels_SecK
100
AcDbLine
 10
189.825000000
 20
154.325000000
 30
0.000000000
 11
189.550000000
 21
154.325000000
 31
0.000000000
  0
LINE
  5
AD6
330
A02
100
AcDbEntity
  8
S07_Wheels_SecK
100
AcDbLine
 10
240.450000000
 20
87.175000000
 30
0.000000000
 11
240.175000000
 21
87.175000000
 31
0.000000000
  0
LINE
  5
AD7
330
A02
100
AcDbEntity
  8
S07_Wheels_SecK
100
AcDbLine
 10
240.450000000
 20
156.825000000
 30
0.000000000
 11
240.175000000
 21
156.825000000
 31
0.000000000
  0
LINE
  5
AD8
330
A02
100
AcDbEntity
  8
S07_Wheels_SecK
100
AcDbLine
 10
240.175000000
 20
154.325000000
 30
0.000000000
 11
240.175000000
 21
156.825000000
 31
0.000000000
  0
LINE
  5
AD9
330
A02
100
AcDbEntity
  8
S07_Wheels_SecK
100
AcDbLine
 10
240.175000000
 20
87.175000000
 30
0.000000000
 11
240.175000000
 21
89.675000000
 31
0.000000000
  0
LINE
  5
ADA
330
A02
100
AcDbEntity
  8
S07_Wheels_SecK
100
AcDbLine
 10
240.450000000
 20
89.675000000
 30
0.000000000
 11
240.175000000
 21
89.675000000
 31
0.000000000
  0
LINE
  5
ADB
330
A02
100
AcDbEntity
  8
S07_Wheels_SecK
100
AcDbLine
 10
240.450000000
 20
87.175000000
 30
0.000000000
 11
240.450000000
 21
89.675000000
 31
0.000000000
  0
LINE
  5
ADC
330
A02
100
AcDbEntity
  8
S07_Wheels_SecK
100
AcDbLine
 10
240.450000000
 20
154.325000000
 30
0.000000000
 11
240.450000000
 21
156.825000000
 31
0.000000000
  0
SPLINE
  5
ADD
330
A02
100
AcDbEntity
  8
S07_Wheels_SecK
100
AcDbSpline
210
0
220
0
230
1
 70
8
 71
1
 72
17
 73
15
 74
0
 40
0.000000000
 40
0.000000000
 40
0.224399475
 40
0.448798951
 40
0.673198426
 40
0.897597901
 40
1.121997376
 40
1.346396852
 40
1.570796327
 40
1.795195802
 40
2.019595277
 40
2.243994753
 40
2.468394228
 40
2.692793703
 40
2.917193178
 40
3.141592654
 40
3.141592654
 10
240.450000000
 20
154.325000000
 30
0.000000000
 10
240.450000000
 20
153.514544761
 30
0.000000000
 10
240.450000000
 20
151.123818655
 30
0.000000000
 10
240.450000000
 20
147.272702671
 30
0.000000000
 10
240.450000000
 20
142.154307845
 30
0.000000000
 10
240.450000000
 20
136.025291867
 30
0.000000000
 10
240.450000000
 20
129.192989190
 30
0.000000000
 10
240.450000000
 20
122.000000000
 30
0.000000000
 10
240.450000000
 20
114.807010810
 30
0.000000000
 10
240.450000000
 20
107.974708133
 30
0.000000000
 10
240.450000000
 20
101.845692155
 30
0.000000000
 10
240.450000000
 20
96.727297329
 30
0.000000000
 10
240.450000000
 20
92.876181345
 30
0.000000000
 10
240.450000000
 20
90.485455239
 30
0.000000000
 10
240.450000000
 20
89.675000000
 30
0.000000000
  0
LINE
  5
ADE
330
A02
100
AcDbEntity
  8
S07_Wheels_SecK
100
AcDbLine
 10
240.450000000
 20
154.325000000
 30
0.000000000
 11
240.175000000
 21
154.325000000
 31
0.000000000
  0
LINE
  5
ADF
330
A02
100
AcDbEntity
  8
S07_Wheels_SecK
100
AcDbLine
 10
238.450000000
 20
93.425000000
 30
0.000000000
 11
191.575000000
 21
93.425000000
 31
0.000000000
  0
LINE
  5
AE0
330
A02
100
AcDbEntity
  8
S07_Wheels_SecK
100
AcDbLine
 10
238.450000000
 20
150.575000000
 30
0.000000000
 11
191.575000000
 21
150.575000000
 31
0.000000000
  0
LINE
  5
AE1
330
A02
100
AcDbEntity
  8
S07_Wheels_SecK
100
AcDbLine
 10
191.575000000
 20
148.825000000
 30
0.000000000
 11
191.575000000
 21
150.575000000
 31
0.000000000
  0
SPLINE
  5
AE2
330
A02
100
AcDbEntity
  8
S07_Wheels_SecK
100
AcDbSpline
210
0
220
0
230
1
 70
8
 71
1
 72
17
 73
15
 74
0
 40
0.000000000
 40
0.000000000
 40
0.098129423
 40
0.196258845
 40
0.294388268
 40
0.392517690
 40
0.490647113
 40
0.588776535
 40
0.686905958
 40
0.785035380
 40
0.883164803
 40
0.981294225
 40
1.079423648
 40
1.177553070
 40
1.275682493
 40
1.373811915
 40
1.373811915
 10
191.575000000
 20
148.825000000
 30
0.000000000
 10
191.575000000
 20
148.695949499
 30
0.000000000
 10
191.575000000
 20
148.310039677
 30
0.000000000
 10
191.575000000
 20
147.670983625
 30
0.000000000
 10
191.575000000
 20
146.784930124
 30
0.000000000
 10
191.575000000
 20
145.660404478
 30
0.000000000
 10
191.575000000
 20
144.308226489
 30
0.000000000
 10
191.575000000
 20
142.741406353
 30
0.000000000
 10
191.575000000
 20
140.975019479
 30
0.000000000
 10
191.575000000
 20
139.026061438
 30
0.000000000
 10
191.575000000
 20
136.913284441
 30
0.000000000
 10
191.575000000
 20
134.657016907
 30
0.000000000
 10
191.575000000
 20
132.278967873
 30
0.000000000
 10
191.575000000
 20
129.802018115
 30
0.000000000
 10
191.575000000
 20
127.250000000
 30
0.000000000
  0
SPLINE
  5
AE3
330
A02
100
AcDbEntity
  8
S07_Wheels_SecK
100
AcDbSpline
210
0
220
0
230
1
 70
8
 71
1
 72
17
 73
15
 74
0
 40
1.767780738
 40
1.767780738
 40
1.865910161
 40
1.964039583
 40
2.062169006
 40
2.160298428
 40
2.258427851
 40
2.356557273
 40
2.454686696
 40
2.552816118
 40
2.650945541
 40
2.749074963
 40
2.847204386
 40
2.945333809
 40
3.043463231
 40
3.141592654
 40
3.141592654
 10
191.575000000
 20
116.750000000
 30
0.000000000
 10
191.575000000
 20
114.197981885
 30
0.000000000
 10
191.575000000
 20
111.721032127
 30
0.000000000
 10
191.575000000
 20
109.342983093
 30
0.000000000
 10
191.575000000
 20
107.086715559
 30
0.000000000
 10
191.575000000
 20
104.973938562
 30
0.000000000
 10
191.575000000
 20
103.024980521
 30
0.000000000
 10
191.575000000
 20
101.258593647
 30
0.000000000
 10
191.575000000
 20
99.691773511
 30
0.000000000
 10
191.575000000
 20
98.339595522
 30
0.000000000
 10
191.575000000
 20
97.215069876
 30
0.000000000
 10
191.575000000
 20
96.329016375
 30
0.000000000
 10
191.575000000
 20
95.689960323
 30
0.000000000
 10
191.575000000
 20
95.304050501
 30
0.000000000
 10
191.575000000
 20
95.175000000
 30
0.000000000
  0
LINE
  5
AE4
330
A02
100
AcDbEntity
  8
S07_Wheels_SecK
100
AcDbLine
 10
191.575000000
 20
93.425000000
 30
0.000000000
 11
191.575000000
 21
95.175000000
 31
0.000000000
  0
LINE
  5
AE5
330
A02
100
AcDbEntity
  8
S07_Wheels_SecK
100
AcDbLine
 10
238.450000000
 20
148.825000000
 30
0.000000000
 11
238.450000000
 21
150.575000000
 31
0.000000000
  0
LINE
  5
AE6
330
A02
100
AcDbEntity
  8
S07_Wheels_SecK
100
AcDbLine
 10
238.450000000
 20
148.825000000
 30
0.000000000
 11
193.450000000
 21
148.825000000
 31
0.000000000
  0
LINE
  5
AE7
330
A02
100
AcDbEntity
  8
S07_Wheels_SecK
100
AcDbLine
 10
193.450000000
 20
95.175000000
 30
0.000000000
 11
193.450000000
 21
148.825000000
 31
0.000000000
  0
LINE
  5
AE8
330
A02
100
AcDbEntity
  8
S07_Wheels_SecK
100
AcDbLine
 10
238.450000000
 20
95.175000000
 30
0.000000000
 11
193.450000000
 21
95.175000000
 31
0.000000000
  0
LINE
  5
AE9
330
A02
100
AcDbEntity
  8
S07_Wheels_SecK
100
AcDbLine
 10
238.450000000
 20
93.425000000
 30
0.000000000
 11
238.450000000
 21
95.175000000
 31
0.000000000
  0
LINE
  5
AEA
330
A02
100
AcDbEntity
  8
S07_Wheels_SecK
100
AcDbLine
 10
192.700000000
 20
95.175000000
 30
0.000000000
 11
191.575000000
 21
95.175000000
 31
0.000000000
  0
LINE
  5
AEB
330
A02
100
AcDbEntity
  8
S07_Wheels_SecK
100
AcDbLine
 10
192.700000000
 20
95.175000000
 30
0.000000000
 11
192.700000000
 21
148.825000000
 31
0.000000000
  0
LINE
  5
AEC
330
A02
100
AcDbEntity
  8
S07_Wheels_SecK
100
AcDbLine
 10
192.700000000
 20
148.825000000
 30
0.000000000
 11
191.575000000
 21
148.825000000
 31
0.000000000
  0
SPLINE
  5
AED
330
A02
100
AcDbEntity
  8
S07_Wheels_SecK
100
AcDbSpline
210
0
220
0
230
1
 70
8
 71
1
 72
17
 73
15
 74
0
 40
0.000000000
 40
0.000000000
 40
0.224399475
 40
0.448798951
 40
0.673198426
 40
0.897597901
 40
1.121997376
 40
1.346396852
 40
1.570796327
 40
1.795195802
 40
2.019595277
 40
2.243994753
 40
2.468394228
 40
2.692793703
 40
2.917193178
 40
3.141592654
 40
3.141592654
 10
238.450000000
 20
148.825000000
 30
0.000000000
 10
238.450000000
 20
148.152441244
 30
0.000000000
 10
238.450000000
 20
146.168489881
 30
0.000000000
 10
238.450000000
 20
142.972629517
 30
0.000000000
 10
238.450000000
 20
138.725113935
 30
0.000000000
 10
238.450000000
 20
133.638931302
 30
0.000000000
 10
238.450000000
 20
127.969124053
 30
0.000000000
 10
238.450000000
 20
122.000000000
 30
0.000000000
 10
238.450000000
 20
116.030875947
 30
0.000000000
 10
238.450000000
 20
110.361068698
 30
0.000000000
 10
238.450000000
 20
105.274886065
 30
0.000000000
 10
238.450000000
 20
101.027370483
 30
0.000000000
 10
238.450000000
 20
97.831510119
 30
0.000000000
 10
238.450000000
 20
95.847558756
 30
0.000000000
 10
238.450000000
 20
95.175000000
 30
0.000000000
  0
LINE
  5
AEE
330
A02
100
AcDbEntity
  8
S07_Wheels_SecK
100
AcDbLine
 10
238.450000000
 20
93.425000000
 30
0.000000000
 11
191.575000000
 21
93.425000000
 31
0.000000000
  0
LINE
  5
AEF
330
A02
100
AcDbEntity
  8
S07_Wheels_SecK
100
AcDbLine
 10
238.450000000
 20
150.575000000
 30
0.000000000
 11
191.575000000
 21
150.575000000
 31
0.000000000
  0
LINE
  5
AF0
330
A02
100
AcDbEntity
  8
S07_Wheels_SecK
100
AcDbLine
 10
191.575000000
 20
148.825000000
 30
0.000000000
 11
191.575000000
 21
150.575000000
 31
0.000000000
  0
SPLINE
  5
AF1
330
A02
100
AcDbEntity
  8
S07_Wheels_SecK
100
AcDbSpline
210
0
220
0
230
1
 70
8
 71
1
 72
17
 73
15
 74
0
 40
0.000000000
 40
0.000000000
 40
0.098129423
 40
0.196258845
 40
0.294388268
 40
0.392517690
 40
0.490647113
 40
0.588776535
 40
0.686905958
 40
0.785035380
 40
0.883164803
 40
0.981294225
 40
1.079423648
 40
1.177553070
 40
1.275682493
 40
1.373811915
 40
1.373811915
 10
191.575000000
 20
148.825000000
 30
0.000000000
 10
191.575000000
 20
148.695949499
 30
0.000000000
 10
191.575000000
 20
148.310039677
 30
0.000000000
 10
191.575000000
 20
147.670983625
 30
0.000000000
 10
191.575000000
 20
146.784930124
 30
0.000000000
 10
191.575000000
 20
145.660404478
 30
0.000000000
 10
191.575000000
 20
144.308226489
 30
0.000000000
 10
191.575000000
 20
142.741406353
 30
0.000000000
 10
191.575000000
 20
140.975019479
 30
0.000000000
 10
191.575000000
 20
139.026061438
 30
0.000000000
 10
191.575000000
 20
136.913284441
 30
0.000000000
 10
191.575000000
 20
134.657016907
 30
0.000000000
 10
191.575000000
 20
132.278967873
 30
0.000000000
 10
191.575000000
 20
129.802018115
 30
0.000000000
 10
191.575000000
 20
127.250000000
 30
0.000000000
  0
SPLINE
  5
AF2
330
A02
100
AcDbEntity
  8
S07_Wheels_SecK
100
AcDbSpline
210
0
220
0
230
1
 70
8
 71
1
 72
17
 73
15
 74
0
 40
1.767780738
 40
1.767780738
 40
1.865910161
 40
1.964039583
 40
2.062169006
 40
2.160298428
 40
2.258427851
 40
2.356557273
 40
2.454686696
 40
2.552816118
 40
2.650945541
 40
2.749074963
 40
2.847204386
 40
2.945333809
 40
3.043463231
 40
3.141592654
 40
3.141592654
 10
191.575000000
 20
116.750000000
 30
0.000000000
 10
191.575000000
 20
114.197981885
 30
0.000000000
 10
191.575000000
 20
111.721032127
 30
0.000000000
 10
191.575000000
 20
109.342983093
 30
0.000000000
 10
191.575000000
 20
107.086715559
 30
0.000000000
 10
191.575000000
 20
104.973938562
 30
0.000000000
 10
191.575000000
 20
103.024980521
 30
0.000000000
 10
191.575000000
 20
101.258593647
 30
0.000000000
 10
191.575000000
 20
99.691773511
 30
0.000000000
 10
191.575000000
 20
98.339595522
 30
0.000000000
 10
191.575000000
 20
97.215069876
 30
0.000000000
 10
191.575000000
 20
96.329016375
 30
0.000000000
 10
191.575000000
 20
95.689960323
 30
0.000000000
 10
191.575000000
 20
95.304050501
 30
0.000000000
 10
191.575000000
 20
95.175000000
 30
0.000000000
  0
LINE
  5
AF3
330
A02
100
AcDbEntity
  8
S07_Wheels_SecK
100
AcDbLine
 10
191.575000000
 20
93.425000000
 30
0.000000000
 11
191.575000000
 21
95.175000000
 31
0.000000000
  0
LINE
  5
AF4
330
A02
100
AcDbEntity
  8
S07_Wheels_SecK
100
AcDbLine
 10
238.450000000
 20
148.825000000
 30
0.000000000
 11
238.450000000
 21
150.575000000
 31
0.000000000
  0
LINE
  5
AF5
330
A02
100
AcDbEntity
  8
S07_Wheels_SecK
100
AcDbLine
 10
238.450000000
 20
148.825000000
 30
0.000000000
 11
193.450000000
 21
148.825000000
 31
0.000000000
  0
LINE
  5
AF6
330
A02
100
AcDbEntity
  8
S07_Wheels_SecK
100
AcDbLine
 10
193.450000000
 20
95.175000000
 30
0.000000000
 11
193.450000000
 21
148.825000000
 31
0.000000000
  0
LINE
  5
AF7
330
A02
100
AcDbEntity
  8
S07_Wheels_SecK
100
AcDbLine
 10
238.450000000
 20
95.175000000
 30
0.000000000
 11
193.450000000
 21
95.175000000
 31
0.000000000
  0
LINE
  5
AF8
330
A02
100
AcDbEntity
  8
S07_Wheels_SecK
100
AcDbLine
 10
238.450000000
 20
93.425000000
 30
0.000000000
 11
238.450000000
 21
95.175000000
 31
0.000000000
  0
LINE
  5
AF9
330
A02
100
AcDbEntity
  8
S07_Wheels_SecK
100
AcDbLine
 10
192.700000000
 20
95.175000000
 30
0.000000000
 11
191.575000000
 21
95.175000000
 31
0.000000000
  0
LINE
  5
AFA
330
A02
100
AcDbEntity
  8
S07_Wheels_SecK
100
AcDbLine
 10
192.700000000
 20
95.175000000
 30
0.000000000
 11
192.700000000
 21
148.825000000
 31
0.000000000
  0
LINE
  5
AFB
330
A02
100
AcDbEntity
  8
S07_Wheels_SecK
100
AcDbLine
 10
192.700000000
 20
148.825000000
 30
0.000000000
 11
191.575000000
 21
148.825000000
 31
0.000000000
  0
SPLINE
  5
AFC
330
A02
100
AcDbEntity
  8
S07_Wheels_SecK
100
AcDbSpline
210
0
220
0
230
1
 70
8
 71
1
 72
17
 73
15
 74
0
 40
0.000000000
 40
0.000000000
 40
0.224399475
 40
0.448798951
 40
0.673198426
 40
0.897597901
 40
1.121997376
 40
1.346396852
 40
1.570796327
 40
1.795195802
 40
2.019595277
 40
2.243994753
 40
2.468394228
 40
2.692793703
 40
2.917193178
 40
3.141592654
 40
3.141592654
 10
238.450000000
 20
148.825000000
 30
0.000000000
 10
238.450000000
 20
148.152441244
 30
0.000000000
 10
238.450000000
 20
146.168489881
 30
0.000000000
 10
238.450000000
 20
142.972629517
 30
0.000000000
 10
238.450000000
 20
138.725113935
 30
0.000000000
 10
238.450000000
 20
133.638931302
 30
0.000000000
 10
238.450000000
 20
127.969124053
 30
0.000000000
 10
238.450000000
 20
122.000000000
 30
0.000000000
 10
238.450000000
 20
116.030875947
 30
0.000000000
 10
238.450000000
 20
110.361068698
 30
0.000000000
 10
238.450000000
 20
105.274886065
 30
0.000000000
 10
238.450000000
 20
101.027370483
 30
0.000000000
 10
238.450000000
 20
97.831510119
 30
0.000000000
 10
238.450000000
 20
95.847558756
 30
0.000000000
 10
238.450000000
 20
95.175000000
 30
0.000000000
  0
LINE
  5
AFD
330
A02
100
AcDbEntity
  8
S07_Wheels_SecK
100
AcDbLine
 10
193.450000000
 20
116.750000000
 30
0.000000000
 11
189.700000000
 21
116.750000000
 31
0.000000000
  0
LINE
  5
AFE
330
A02
100
AcDbEntity
  8
S07_Wheels_SecK
100
AcDbLine
 10
193.450000000
 20
127.250000000
 30
0.000000000
 11
189.700000000
 21
127.250000000
 31
0.000000000
  0
LINE
  5
AFF
330
A02
100
AcDbEntity
  8
S07_Wheels_SecK
100
AcDbLine
 10
189.700000000
 20
116.750000000
 30
0.000000000
 11
189.700000000
 21
127.250000000
 31
0.000000000
  0
LINE
  5
B00
330
A02
100
AcDbEntity
  8
S07_Wheels_SecK
100
AcDbLine
 10
193.450000000
 20
116.750000000
 30
0.000000000
 11
193.450000000
 21
127.250000000
 31
0.000000000
  0
LINE
  5
B01
330
A02
100
AcDbEntity
  8
S07_Wheels_SecK
100
AcDbLine
 10
237.200000000
 20
103.875000000
 30
0.000000000
 11
233.200000000
 21
103.875000000
 31
0.000000000
  0
LINE
  5
B02
330
A02
100
AcDbEntity
  8
S07_Wheels_SecK
100
AcDbLine
 10
237.200000000
 20
140.125000000
 30
0.000000000
 11
233.200000000
 21
140.125000000
 31
0.000000000
  0
LINE
  5
B03
330
A02
100
AcDbEntity
  8
S07_Wheels_SecK
100
AcDbLine
 10
233.200000000
 20
133.250000000
 30
0.000000000
 11
233.200000000
 21
140.125000000
 31
0.000000000
  0
SPLINE
  5
B04
330
A02
100
AcDbEntity
  8
S07_Wheels_SecK
100
AcDbSpline
210
0
220
0
230
1
 70
8
 71
1
 72
17
 73
15
 74
0
 40
0.000000000
 40
0.000000000
 40
0.224399475
 40
0.448798951
 40
0.673198426
 40
0.897597901
 40
1.121997376
 40
1.346396852
 40
1.570796327
 40
1.795195802
 40
2.019595277
 40
2.243994753
 40
2.468394228
 40
2.692793703
 40
2.917193178
 40
3.141592654
 40
3.141592654
 10
233.200000000
 20
133.250000000
 30
0.000000000
 10
233.200000000
 20
132.967939012
 30
0.000000000
 10
233.200000000
 20
132.135899764
 30
0.000000000
 10
233.200000000
 20
130.795604178
 30
0.000000000
 10
233.200000000
 20
129.014260271
 30
0.000000000
 10
233.200000000
 20
126.881192065
 30
0.000000000
 10
233.200000000
 20
124.503360507
 30
0.000000000
 10
233.200000000
 20
122.000000000
 30
0.000000000
 10
233.200000000
 20
119.496639493
 30
0.000000000
 10
233.200000000
 20
117.118807935
 30
0.000000000
 10
233.200000000
 20
114.985739729
 30
0.000000000
 10
233.200000000
 20
113.204395822
 30
0.000000000
 10
233.200000000
 20
111.864100236
 30
0.000000000
 10
233.200000000
 20
111.032060988
 30
0.000000000
 10
233.200000000
 20
110.750000000
 30
0.000000000
  0
LINE
  5
B05
330
A02
100
AcDbEntity
  8
S07_Wheels_SecK
100
AcDbLine
 10
233.200000000
 20
103.875000000
 30
0.000000000
 11
233.200000000
 21
110.750000000
 31
0.000000000
  0
LINE
  5
B06
330
A02
100
AcDbEntity
  8
S07_Wheels_SecK
100
AcDbLine
 10
237.200000000
 20
110.750000000
 30
0.000000000
 11
233.200000000
 21
110.750000000
 31
0.000000000
  0
LINE
  5
B07
330
A02
100
AcDbEntity
  8
S07_Wheels_SecK
100
AcDbLine
 10
237.200000000
 20
103.875000000
 30
0.000000000
 11
237.200000000
 21
110.750000000
 31
0.000000000
  0
LINE
  5
B08
330
A02
100
AcDbEntity
  8
S07_Wheels_SecK
100
AcDbLine
 10
237.200000000
 20
133.250000000
 30
0.000000000
 11
237.200000000
 21
140.125000000
 31
0.000000000
  0
SPLINE
  5
B09
330
A02
100
AcDbEntity
  8
S07_Wheels_SecK
100
AcDbSpline
210
0
220
0
230
1
 70
8
 71
1
 72
17
 73
15
 74
0
 40
0.000000000
 40
0.000000000
 40
0.224399475
 40
0.448798951
 40
0.673198426
 40
0.897597901
 40
1.121997376
 40
1.346396852
 40
1.570796327
 40
1.795195802
 40
2.019595277
 40
2.243994753
 40
2.468394228
 40
2.692793703
 40
2.917193178
 40
3.141592654
 40
3.141592654
 10
237.200000000
 20
133.250000000
 30
0.000000000
 10
237.200000000
 20
132.967939012
 30
0.000000000
 10
237.200000000
 20
132.135899764
 30
0.000000000
 10
237.200000000
 20
130.795604178
 30
0.000000000
 10
237.200000000
 20
129.014260271
 30
0.000000000
 10
237.200000000
 20
126.881192065
 30
0.000000000
 10
237.200000000
 20
124.503360507
 30
0.000000000
 10
237.200000000
 20
122.000000000
 30
0.000000000
 10
237.200000000
 20
119.496639493
 30
0.000000000
 10
237.200000000
 20
117.118807935
 30
0.000000000
 10
237.200000000
 20
114.985739729
 30
0.000000000
 10
237.200000000
 20
113.204395822
 30
0.000000000
 10
237.200000000
 20
111.864100236
 30
0.000000000
 10
237.200000000
 20
111.032060988
 30
0.000000000
 10
237.200000000
 20
110.750000000
 30
0.000000000
  0
LINE
  5
B0A
330
A02
100
AcDbEntity
  8
S07_Wheels_SecK
100
AcDbLine
 10
237.200000000
 20
133.250000000
 30
0.000000000
 11
233.200000000
 21
133.250000000
 31
0.000000000
  0
LINE
  5
B0B
330
A02
100
AcDbEntity
  8
S07_Wheels_SecK
100
AcDbLine
 10
237.200000000
 20
103.875000000
 30
0.000000000
 11
233.200000000
 21
103.875000000
 31
0.000000000
  0
LINE
  5
B0C
330
A02
100
AcDbEntity
  8
S07_Wheels_SecK
100
AcDbLine
 10
237.200000000
 20
140.125000000
 30
0.000000000
 11
233.200000000
 21
140.125000000
 31
0.000000000
  0
LINE
  5
B0D
330
A02
100
AcDbEntity
  8
S07_Wheels_SecK
100
AcDbLine
 10
233.200000000
 20
133.250000000
 30
0.000000000
 11
233.200000000
 21
140.125000000
 31
0.000000000
  0
SPLINE
  5
B0E
330
A02
100
AcDbEntity
  8
S07_Wheels_SecK
100
AcDbSpline
210
0
220
0
230
1
 70
8
 71
1
 72
17
 73
15
 74
0
 40
0.000000000
 40
0.000000000
 40
0.224399475
 40
0.448798951
 40
0.673198426
 40
0.897597901
 40
1.121997376
 40
1.346396852
 40
1.570796327
 40
1.795195802
 40
2.019595277
 40
2.243994753
 40
2.468394228
 40
2.692793703
 40
2.917193178
 40
3.141592654
 40
3.141592654
 10
233.200000000
 20
133.250000000
 30
0.000000000
 10
233.200000000
 20
132.967939012
 30
0.000000000
 10
233.200000000
 20
132.135899764
 30
0.000000000
 10
233.200000000
 20
130.795604178
 30
0.000000000
 10
233.200000000
 20
129.014260271
 30
0.000000000
 10
233.200000000
 20
126.881192065
 30
0.000000000
 10
233.200000000
 20
124.503360507
 30
0.000000000
 10
233.200000000
 20
122.000000000
 30
0.000000000
 10
233.200000000
 20
119.496639493
 30
0.000000000
 10
233.200000000
 20
117.118807935
 30
0.000000000
 10
233.200000000
 20
114.985739729
 30
0.000000000
 10
233.200000000
 20
113.204395822
 30
0.000000000
 10
233.200000000
 20
111.864100236
 30
0.000000000
 10
233.200000000
 20
111.032060988
 30
0.000000000
 10
233.200000000
 20
110.750000000
 30
0.000000000
  0
LINE
  5
B0F
330
A02
100
AcDbEntity
  8
S07_Wheels_SecK
100
AcDbLine
 10
233.200000000
 20
103.875000000
 30
0.000000000
 11
233.200000000
 21
110.750000000
 31
0.000000000
  0
LINE
  5
B10
330
A02
100
AcDbEntity
  8
S07_Wheels_SecK
100
AcDbLine
 10
237.200000000
 20
110.750000000
 30
0.000000000
 11
233.200000000
 21
110.750000000
 31
0.000000000
  0
LINE
  5
B11
330
A02
100
AcDbEntity
  8
S07_Wheels_SecK
100
AcDbLine
 10
237.200000000
 20
103.875000000
 30
0.000000000
 11
237.200000000
 21
110.750000000
 31
0.000000000
  0
LINE
  5
B12
330
A02
100
AcDbEntity
  8
S07_Wheels_SecK
100
AcDbLine
 10
237.200000000
 20
133.250000000
 30
0.000000000
 11
237.200000000
 21
140.125000000
 31
0.000000000
  0
SPLINE
  5
B13
330
A02
100
AcDbEntity
  8
S07_Wheels_SecK
100
AcDbSpline
210
0
220
0
230
1
 70
8
 71
1
 72
17
 73
15
 74
0
 40
0.000000000
 40
0.000000000
 40
0.224399475
 40
0.448798951
 40
0.673198426
 40
0.897597901
 40
1.121997376
 40
1.346396852
 40
1.570796327
 40
1.795195802
 40
2.019595277
 40
2.243994753
 40
2.468394228
 40
2.692793703
 40
2.917193178
 40
3.141592654
 40
3.141592654
 10
237.200000000
 20
133.250000000
 30
0.000000000
 10
237.200000000
 20
132.967939012
 30
0.000000000
 10
237.200000000
 20
132.135899764
 30
0.000000000
 10
237.200000000
 20
130.795604178
 30
0.000000000
 10
237.200000000
 20
129.014260271
 30
0.000000000
 10
237.200000000
 20
126.881192065
 30
0.000000000
 10
237.200000000
 20
124.503360507
 30
0.000000000
 10
237.200000000
 20
122.000000000
 30
0.000000000
 10
237.200000000
 20
119.496639493
 30
0.000000000
 10
237.200000000
 20
117.118807935
 30
0.000000000
 10
237.200000000
 20
114.985739729
 30
0.000000000
 10
237.200000000
 20
113.204395822
 30
0.000000000
 10
237.200000000
 20
111.864100236
 30
0.000000000
 10
237.200000000
 20
111.032060988
 30
0.000000000
 10
237.200000000
 20
110.750000000
 30
0.000000000
  0
LINE
  5
B14
330
A02
100
AcDbEntity
  8
S07_Wheels_SecK
100
AcDbLine
 10
237.200000000
 20
133.250000000
 30
0.000000000
 11
233.200000000
 21
133.250000000
 31
0.000000000
  0
DIMENSION
  5
B15
330
A02
100
AcDbEntity
  8
DimExtent086
100
AcDbDimension
  2
*DimExtent086
 10
85.000000000
 20
261.250000000
 30
0.000000000
 11
85.000000000
 21
266.250000000
 31
0.000000000
 70
32
  1
660
  3
STANDARD
100
AcDbAlignedDimension
 13
43.750000000
 23
217.999999994
 33
0.000000000
 14
126.250000000
 24
217.999999994
 34
0.000000000
100
AcDbRotatedDimension
  0
DIMENSION
  5
B1F
330
A02
100
AcDbEntity
  8
DimExtent087
100
AcDbDimension
  2
*DimExtent087
 10
215.000000000
 20
261.875000000
 30
0.000000000
 11
215.000000000
 21
266.875000000
 31
0.000000000
 70
32
  1
670
  3
STANDARD
100
AcDbAlignedDimension
 13
173.125000000
 23
217.999999994
 33
0.000000000
 14
256.875000000
 24
217.999999994
 34
0.000000000
100
AcDbRotatedDimension
  0
DIMENSION
  5
B29
330
A02
100
AcDbEntity
  8
DimExtent088
100
AcDbDimension
  2
*DimExtent088
 10
85.324833150
 20
165.260562815
 30
0.000000000
 11
85.000000000
 21
170.250000000
 31
0.000000000
 70
32
  1
307
  3
STANDARD
100
AcDbAlignedDimension
 13
65.800000000
 23
89.675000000
 33
0.000000000
 14
104.200000000
 24
87.175000000
 34
0.000000000
100
AcDbRotatedDimension
  0
DIMENSION
  5
B33
330
A02
100
AcDbEntity
  8
DimExtent089
100
AcDbDimension
  2
*DimExtent089
 10
63.800000000
 20
122.000000000
 30
0.000000000
 11
58.800000000
 21
122.000000000
 31
0.000000000
 70
32
  1
660
  3
STANDARD
100
AcDbAlignedDimension
 13
97.212500000
 23
163.250000000
 33
0.000000000
 14
97.212500000
 24
80.750000000
 34
0.000000000
 50
90
100
AcDbRotatedDimension
  0
DIMENSION
  5
B3D
330
A02
100
AcDbEntity
  8
DimExtent090
100
AcDbDimension
  2
*DimExtent090
 10
215.245283888
 20
165.881020043
 30
0.000000000
 11
215.000000000
 21
170.875000000
 31
0.000000000
 70
32
  1
407
  3
STANDARD
100
AcDbAlignedDimension
 13
189.550000000
 23
89.675000000
 33
0.000000000
 14
240.450000000
 24
87.175000000
 34
0.000000000
100
AcDbRotatedDimension
  0
DIMENSION
  5
B47
330
A02
100
AcDbEntity
  8
DimExtent091
100
AcDbDimension
  2
*DimExtent091
 10
187.550000000
 20
122.000000000
 30
0.000000000
 11
182.550000000
 21
122.000000000
 31
0.000000000
 70
32
  1
670
  3
STANDARD
100
AcDbAlignedDimension
 13
233.450000000
 23
163.875000000
 33
0.000000000
 14
233.450000000
 24
80.125000000
 34
0.000000000
 50
90
100
AcDbRotatedDimension
  0
DIMENSION
  5
B51
330
A02
100
AcDbEntity
  8
Dimension002
100
AcDbDimension
  2
*Dimension002
 10
48.800000000
 20
122.000000000
 30
0.000000000
 11
53.800000000
 21
122.000000000
 31
0.000000000
 70
32
  1
457
  3
STANDARD
100
AcDbAlignedDimension
 13
85.012500000
 23
93.425000000
 33
0.000000000
 14
85.012500000
 24
150.575000000
 34
0.000000000
 50
90
100
AcDbRotatedDimension
  0
DIMENSION
  5
B5B
330
A02
100
AcDbEntity
  8
Dimension003
100
AcDbDimension
  2
*Dimension003
 10
172.550000000
 20
122.000000000
 30
0.000000000
 11
177.550000000
 21
122.000000000
 31
0.000000000
 70
32
  1
457
  3
STANDARD
100
AcDbAlignedDimension
 13
215.012500000
 23
93.425000000
 33
0.000000000
 14
215.012500000
 24
150.575000000
 34
0.000000000
 50
90
100
AcDbRotatedDimension
  0
TEXT
  5
B65
330
A02
100
AcDbEntity
  8
S07_Wheels_Tab
100
AcDbText
 10
340.000000000
 20
200.000000000
 30
0.000000000
 40
3.200000000
  1
        タイヤ        リム     ブレーキディスク
  7
STANDARD
 72
1
 11
340.000000000
 21
200.000000000
 31
0.000000000
100
AcDbText
  0
ENDSEC
  0
SECTION
  2
OBJECTS
  0
DICTIONARY
  5
F000
330
0
100
AcDbDictionary
  3
ACAD_GROUP
350
F001
  0
DICTIONARY
  5
F001
330
F000
100
AcDbDictionary
  0
ENDSEC
  0
EOF