999
FreeCAD v1.1 20260725 (Git shallow)
  0
SECTION
  2
HEADER
  9
$ACADVER
  1
AC1014
  9
$ACADMAINTVER
 70
     9
  9
$DWGCODEPAGE
  3
ANSI_1252
  9
$TEXTSTYLE
  7
STANDARD
  9
$DIMSTYLE
  2
STANDARD
  9
$DIMTXSTY
  7
STANDARD
  9
$CMLSTYLE
  2
STANDARD
  9
$LUNITS
 70
2
  9
$INSUNITS
 70
4
  9
$PEXTMAX
 10
50
 20
50
 30
50
  9
$PEXTMIN
 10
0
 20
0
 30
0
  9
$HANDSEED
  5
FFFF
  0
ENDSEC
  0
SECTION
  2
CLASSES
  0
CLASS
  1
ACDBDICTIONARYWDFLT
  2
AcDbDictionaryWithDefault
  3
ObjectDBX Classes
 90
        0
280
     0
281
     0
  0
CLASS
  1
XRECORD
  2
AcDbXrecord
  3
ObjectDBX Classes
 90
        0
280
     0
281
     0
  0
CLASS
  1
LWPOLYLINE
  2
AcDbPolyline
  3
ObjectDBX Classes
 90
        0
280
     0
281
     1
  0
ENDSEC
  0
SECTION
  2
TABLES
  0
TABLE
  2
VPORT
  5
20
330
0
100
AcDbSymbolTable
 70
     1
  0
VPORT
  5
21
330
20
100
AcDbSymbolTableRecord
100
AcDbViewportTableRecord
  2
*ACTIVE
 70
     0
  0
ENDTAB
  0
TABLE
  2
LTYPE
  5
22
330
0
100
AcDbSymbolTable
 70
     1
  0
LTYPE
  5
23
330
21
100
AcDbSymbolTableRecord
100
AcDbLinetypeTableRecord
  2
BYBLOCK
 70
     0
  3

 72
    65
 73
     0
 40
0.0
  0
LTYPE
  5
24
330
21
100
AcDbSymbolTableRecord
100
AcDbLinetypeTableRecord
  2
BYLAYER
 70
     0
  3

 72
    65
 73
     0
 40
0.0
  0
LTYPE
  5
25
330
21
100
AcDbSymbolTableRecord
100
AcDbLinetypeTableRecord
  2
CONTINUOUS
 70
     0
  3
Solid line
 72
    65
 73
     0
 40
0.0
  0
ENDTAB
  0
TABLE
  2
LAYER
  5
B38
330
0
100
AcDbSymbolTable
 70
11
  0
LAYER
  5
B39
330
B38
100
AcDbSymbolTableRecord
100
AcDbLayerTableRecord
  2
0
 70
   0
 62
   7
  6
CONTINUOUS
  0
LAYER
  5
B3A
330
B38
100
AcDbSymbolTableRecord
100
AcDbLayerTableRecord
  2
S09_PowerUnit_Side
 70
    0
 62
    7
  6
CONTINUOUS
  0
LAYER
  5
B3B
330
B38
100
AcDbSymbolTableRecord
100
AcDbLayerTableRecord
  2
S09_PowerUnit_Top
 70
    0
 62
    7
  6
CONTINUOUS
  0
LAYER
  5
B3C
330
B38
100
AcDbSymbolTableRecord
100
AcDbLayerTableRecord
  2
S09_PowerUnit_Front
 70
    0
 62
    7
  6
CONTINUOUS
  0
LAYER
  5
B3D
330
B38
100
AcDbSymbolTableRecord
100
AcDbLayerTableRecord
  2
S09_PowerUnit_SecL
 70
    0
 62
    7
  6
CONTINUOUS
  0
LAYER
  5
B3E
330
B38
100
AcDbSymbolTableRecord
100
AcDbLayerTableRecord
  2
DimExtent047
 70
    0
 62
    7
  6
CONTINUOUS
  0
LAYER
  5
B3F
330
B38
100
AcDbSymbolTableRecord
100
AcDbLayerTableRecord
  2
DimExtent048
 70
    0
 62
    7
  6
CONTINUOUS
  0
LAYER
  5
B40
330
B38
100
AcDbSymbolTableRecord
100
AcDbLayerTableRecord
  2
DimExtent049
 70
    0
 62
    7
  6
CONTINUOUS
  0
LAYER
  5
B41
330
B38
100
AcDbSymbolTableRecord
100
AcDbLayerTableRecord
  2
DimExtent050
 70
    0
 62
    7
  6
CONTINUOUS
  0
LAYER
  5
B42
330
B38
100
AcDbSymbolTableRecord
100
AcDbLayerTableRecord
  2
DimExtent051
 70
    0
 62
    7
  6
CONTINUOUS
  0
LAYER
  5
B43
330
B38
100
AcDbSymbolTableRecord
100
AcDbLayerTableRecord
  2
S09_PowerUnit_Tab
 70
    0
 62
    7
  6
CONTINUOUS
  0
ENDTAB
  0
TABLE
  2
STYLE
  5
70
330
0
100
AcDbSymbolTable
 70
     2
  0
STYLE
  5
71
330
70
100
AcDbSymbolTableRecord
100
AcDbTextStyleTableRecord
  2
STANDARD
 70
     0
 40
0.0
 41
1.0
 50
0.0
 71
     0
 42
2.5
  3
arial.ttf
  4

  0
STYLE
  5
72
330
70
100
AcDbSymbolTableRecord
100
AcDbTextStyleTableRecord
  2
ANNOTATIVE
 70
     0
 40
0.0
 41
1.0
 50
0.0
 71
     0
 42
2.5
  3
arial.ttf
  4

  0
ENDTAB
  0
TABLE
  2
VIEW
  5
73
330
0
100
AcDbSymbolTable
 70
     0
  0
ENDTAB
  0
TABLE
  2
UCS
  5
74
330
0
100
AcDbSymbolTable
 70
     0
  0
ENDTAB
  0
TABLE
  2
APPID
  5
75
330
0
100
AcDbSymbolTable
 70
     2
  0
APPID
  5
76
330
75
100
AcDbSymbolTableRecord
100
AcDbRegAppTableRecord
  2
ACAD
 70
     0
  0
APPID
  5
77
330
75
100
AcDbSymbolTableRecord
100
AcDbRegAppTableRecord
  2
ACADANNOTATIVE
 70
     0
  0
ENDTAB
  0
TABLE
  2
DIMSTYLE
  5
78
330
0
100
AcDbSymbolTable
 70
     2
  0
DIMSTYLE
105
79
330
78
100
AcDbSymbolTableRecord
100
AcDbDimStyleTableRecord
  2
STANDARD
 70
     0
  3

  4

  5

  6

  7

 40
0.0
 41
2.5
 42
0.625
 43
3.75
 44
1.25
 45
0.0
 46
0.0
 47
0.0
 48
0.0
140
2.5
141
2.5
142
0.0
143
0.03937007874016
144
1.0
145
0.0
146
1.0
147
0.625
 71
     0
 72
     0
 73
     0
 74
     0
 75
     0
 76
     0
 77
     1
 78
     8
170
     0
171
     3
172
     1
173
     0
174
     0
175
     0
176
     0
177
     0
178
     0
270
     2
271
     2
272
     2
273
     2
274
     3
340
71
275
     0
280
     0
281
     0
282
     0
283
     0
284
     8
285
     0
286
     0
287
     3
288
     0
  0
ENDTAB
  0
TABLE
  2
BLOCK_RECORD
  5
A01
330
0
100
AcDbSymbolTable
  70
5
  0
BLOCK_RECORD
  5
A02
330
A01
100
AcDbSymbolTableRecord
100
AcDbBlockTableRecord
  2
*MODEL_SPACE
  0
BLOCK_RECORD
  5
A03
330
A01
100
AcDbSymbolTableRecord
100
AcDbBlockTableRecord
  2
*PAPER_SPACE
  0
BLOCK_RECORD
  5
B06
330
A01
100
AcDbSymbolTableRecord
100
AcDbBlockTableRecord
  2
*DimExtent047
  0
BLOCK_RECORD
  5
B10
330
A01
100
AcDbSymbolTableRecord
100
AcDbBlockTableRecord
  2
*DimExtent048
  0
BLOCK_RECORD
  5
B1A
330
A01
100
AcDbSymbolTableRecord
100
AcDbBlockTableRecord
  2
*DimExtent049
  0
BLOCK_RECORD
  5
B24
330
A01
100
AcDbSymbolTableRecord
100
AcDbBlockTableRecord
  2
*DimExtent050
  0
BLOCK_RECORD
  5
B2E
330
A01
100
AcDbSymbolTableRecord
100
AcDbBlockTableRecord
  2
*DimExtent051
  0
ENDTAB
  0
ENDSEC
  0
SECTION
  2
BLOCKS
  0
BLOCK
  5
A04
330
A02
100
AcDbEntity
  8
0
100
AcDbBlockBegin
  2
*MODEL_SPACE
 70
   0
 10
0
 20
0
 30
0
  3
*MODEL_SPACE
  1
 
  0
ENDBLK
  5
A05
330
A02
100
AcDbEntity
  8
0
100
AcDbBlockEnd
  0
BLOCK
  5
A06
330
A03
100
AcDbEntity
 67
1
  8
0
100
AcDbBlockBegin
  2
*PAPER_SPACE
 70
   0
 10
0
 20
0
 30
0
  3
*PAPER_SPACE
  1
 
  0
ENDBLK
  5
A07
330
A03
100
AcDbEntity
 67
    1
  8
0
100
AcDbBlockEnd
  0
BLOCK
  5
B07
330
B06
100
AcDbEntity
  8
DimExtent047
100
AcDbBlockBegin
  2
*DimExtent047
 70
   1
 10
0
 20
0
 30
0
  3
*DimExtent047
  1
 
  0
LINE
  5
B08
330
B06
100
AcDbEntity
  8
DimExtent047
100
AcDbLine
 10
284
 20
211
 30
0
 11
284
 21
224.029
 31
0
  0
LINE
  5
B09
330
B06
100
AcDbEntity
  8
DimExtent047
100
AcDbLine
 10
16
 20
178
 30
0
 11
16
 21
224.029
 31
0
  0
LINE
  5
B0A
330
B06
100
AcDbEntity
  8
DimExtent047
100
AcDbLine
 10
16
 20
224.029
 30
0
 11
284
 21
224.029
 31
0
  0
TEXT
  5
B0B
330
B06
100
AcDbEntity
  8
DimExtent047
100
AcDbText
 10
149.972
 20
228.991
 30
0
 40
3.5
  1
2680
  7
STANDARD
 72
1
 11
149.361
 21
224.029
 31
0
100
AcDbText
  0
SOLID
  5
B0C
330
B06
100
AcDbEntity
  8
0
 62
     0
100
AcDbTrace
 10
11
 20
224.445
 30
0
 11
11
 21
223.612
 31
0
 12
16
 22
224.029
 32
0
 13
16
 23
224.029
 33
0
  0
SOLID
  5
B0D
330
B06
100
AcDbEntity
  8
0
 62
     0
100
AcDbTrace
 10
289
 20
224.445
 30
0
 11
289
 21
223.612
 31
0
 12
284
 22
224.029
 32
0
 13
284
 23
224.029
 33
0
  0
ENDBLK
  5
B0E
330
B06
100
AcDbEntity
  8
DimExtent047
100
AcDbBlockEnd
  0
BLOCK
  5
B11
330
B10
100
AcDbEntity
  8
DimExtent048
100
AcDbBlockBegin
  2
*DimExtent048
 70
   1
 10
0
 20
0
 30
0
  3
*DimExtent048
  1
 
  0
LINE
  5
B12
330
B10
100
AcDbEntity
  8
DimExtent048
100
AcDbLine
 10
16
 20
178
 30
0
 11
12.0959
 21
178
 31
0
  0
LINE
  5
B13
330
B10
100
AcDbEntity
  8
DimExtent048
100
AcDbLine
 10
71
 20
222
 30
0
 11
12.0959
 21
222
 31
0
  0
LINE
  5
B14
330
B10
100
AcDbEntity
  8
DimExtent048
100
AcDbLine
 10
12.0959
 20
222
 30
0
 11
12.0959
 21
178
 31
0
  0
TEXT
  5
B15
330
B10
100
AcDbEntity
  8
DimExtent048
100
AcDbText
 10
8.9724
 20
199.991
 30
0
 40
3.5
  1
440
  7
STANDARD
 72
1
 11
12.0959
 21
203.895
 31
0
100
AcDbText
  0
SOLID
  5
B16
330
B10
100
AcDbEntity
  8
0
 62
     0
100
AcDbTrace
 10
11.6792
 20
227
 30
0
 11
12.5125
 21
227
 31
0
 12
12.0959
 22
222
 32
0
 13
12.0959
 23
222
 33
0
  0
SOLID
  5
B17
330
B10
100
AcDbEntity
  8
0
 62
     0
100
AcDbTrace
 10
11.6792
 20
173
 30
0
 11
12.5125
 21
173
 31
0
 12
12.0959
 22
178
 32
0
 13
12.0959
 23
178
 33
0
  0
ENDBLK
  5
B18
330
B10
100
AcDbEntity
  8
DimExtent048
100
AcDbBlockEnd
  0
BLOCK
  5
B1B
330
B1A
100
AcDbEntity
  8
DimExtent049
100
AcDbBlockBegin
  2
*DimExtent049
 70
   1
 10
0
 20
0
 30
0
  3
*DimExtent049
  1
 
  0
LINE
  5
B1C
330
B1A
100
AcDbEntity
  8
DimExtent049
100
AcDbLine
 10
90
 20
86.5
 30
0
 11
11.6531
 21
86.5
 31
0
  0
LINE
  5
B1D
330
B1A
100
AcDbEntity
  8
DimExtent049
100
AcDbLine
 10
16
 20
133.5
 30
0
 11
11.6531
 21
133.5
 31
0
  0
LINE
  5
B1E
330
B1A
100
AcDbEntity
  8
DimExtent049
100
AcDbLine
 10
11.6531
 20
133.5
 30
0
 11
11.6531
 21
86.5
 31
0
  0
TEXT
  5
B1F
330
B1A
100
AcDbEntity
  8
DimExtent049
100
AcDbText
 10
8.9724
 20
109.985
 30
0
 40
3.5
  1
470
  7
STANDARD
 72
1
 11
11.6531
 21
105.764
 31
0
100
AcDbText
  0
SOLID
  5
B20
330
B1A
100
AcDbEntity
  8
0
 62
     0
100
AcDbTrace
 10
11.2364
 20
138.5
 30
0
 11
12.0697
 21
138.5
 31
0
 12
11.6531
 22
133.5
 32
0
 13
11.6531
 23
133.5
 33
0
  0
SOLID
  5
B21
330
B1A
100
AcDbEntity
  8
0
 62
     0
100
AcDbTrace
 10
11.2364
 20
81.5
 30
0
 11
12.0697
 21
81.5
 31
0
 12
11.6531
 22
86.5
 32
0
 13
11.6531
 23
86.5
 33
0
  0
ENDBLK
  5
B22
330
B1A
100
AcDbEntity
  8
DimExtent049
100
AcDbBlockEnd
  0
BLOCK
  5
B25
330
B24
100
AcDbEntity
  8
DimExtent050
100
AcDbBlockBegin
  2
*DimExtent050
 70
   1
 10
0
 20
0
 30
0
  3
*DimExtent050
  1
 
  0
LINE
  5
B26
330
B24
100
AcDbEntity
  8
DimExtent050
100
AcDbLine
 10
363.5
 20
196
 30
0
 11
363.5
 21
224.009
 31
0
  0
LINE
  5
B27
330
B24
100
AcDbEntity
  8
DimExtent050
100
AcDbLine
 10
316.5
 20
192
 30
0
 11
316.5
 21
224.009
 31
0
  0
LINE
  5
B28
330
B24
100
AcDbEntity
  8
DimExtent050
100
AcDbLine
 10
316.5
 20
224.009
 30
0
 11
363.5
 21
224.009
 31
0
  0
TEXT
  5
B29
330
B24
100
AcDbEntity
  8
DimExtent050
100
AcDbText
 10
340.015
 20
228.991
 30
0
 40
3.5
  1
470
  7
STANDARD
 72
1
 11
339.591
 21
224.009
 31
0
100
AcDbText
  0
SOLID
  5
B2A
330
B24
100
AcDbEntity
  8
0
 62
     0
100
AcDbTrace
 10
311.5
 20
224.426
 30
0
 11
311.5
 21
223.592
 31
0
 12
316.5
 22
224.009
 32
0
 13
316.5
 23
224.009
 33
0
  0
SOLID
  5
B2B
330
B24
100
AcDbEntity
  8
0
 62
     0
100
AcDbTrace
 10
368.5
 20
224.426
 30
0
 11
368.5
 21
223.592
 31
0
 12
363.5
 22
224.009
 32
0
 13
363.5
 23
224.009
 33
0
  0
ENDBLK
  5
B2C
330
B24
100
AcDbEntity
  8
DimExtent050
100
AcDbBlockEnd
  0
BLOCK
  5
B2F
330
B2E
100
AcDbEntity
  8
DimExtent051
100
AcDbBlockBegin
  2
*DimExtent051
 70
   1
 10
0
 20
0
 30
0
  3
*DimExtent051
  1
 
  0
LINE
  5
B30
330
B2E
100
AcDbEntity
  8
DimExtent051
100
AcDbLine
 10
360.7
 20
122.75
 30
0
 11
360.7
 21
133.991
 31
0
  0
LINE
  5
B31
330
B2E
100
AcDbEntity
  8
DimExtent051
100
AcDbLine
 10
319.3
 20
122.75
 30
0
 11
319.3
 21
133.991
 31
0
  0
LINE
  5
B32
330
B2E
100
AcDbEntity
  8
DimExtent051
100
AcDbLine
 10
319.3
 20
133.991
 30
0
 11
360.7
 21
133.991
 31
0
  0
TEXT
  5
B33
330
B2E
100
AcDbEntity
  8
DimExtent051
100
AcDbText
 10
340.015
 20
138.991
 30
0
 40
3.5
  1
414
  7
STANDARD
 72
1
 11
340.015
 21
133.991
 31
0
100
AcDbText
  0
SOLID
  5
B34
330
B2E
100
AcDbEntity
  8
0
 62
     0
100
AcDbTrace
 10
314.3
 20
134.408
 30
0
 11
314.3
 21
133.574
 31
0
 12
319.3
 22
133.991
 32
0
 13
319.3
 23
133.991
 33
0
  0
SOLID
  5
B35
330
B2E
100
AcDbEntity
  8
0
 62
     0
100
AcDbTrace
 10
365.7
 20
134.408
 30
0
 11
365.7
 21
133.574
 31
0
 12
360.7
 22
133.991
 32
0
 13
360.7
 23
133.991
 33
0
  0
ENDBLK
  5
B36
330
B2E
100
AcDbEntity
  8
DimExtent051
100
AcDbBlockEnd
  0
ENDSEC
  0
SECTION
  2
ENTITIES
  0
LINE
  5
A08
330
A02
100
AcDbEntity
  8
S09_PowerUnit_Side
100
AcDbLine
 10
71.999999995
 20
180.000000000
 30
0.000000000
 11
71.999999995
 21
200.000000000
 31
0.000000000
  0
LINE
  5
A09
330
A02
100
AcDbEntity
  8
S09_PowerUnit_Side
100
AcDbLine
 10
127.999999995
 20
180.000000000
 30
0.000000000
 11
127.999999995
 21
200.000000000
 31
0.000000000
  0
LINE
  5
A0A
330
A02
100
AcDbEntity
  8
S09_PowerUnit_Side
100
AcDbLine
 10
71.999999995
 20
180.000000000
 30
0.000000000
 11
127.999999995
 21
180.000000000
 31
0.000000000
  0
LINE
  5
A0B
330
A02
100
AcDbEntity
  8
S09_PowerUnit_Side
100
AcDbLine
 10
71.999999995
 20
200.000000000
 30
0.000000000
 11
127.999999995
 21
200.000000000
 31
0.000000000
  0
LINE
  5
A0C
330
A02
100
AcDbEntity
  8
S09_PowerUnit_Side
100
AcDbLine
 10
73.999999995
 20
217.349242405
 30
0.000000000
 11
73.999999995
 21
218.506096654
 31
0.000000000
  0
LINE
  5
A0D
330
A02
100
AcDbEntity
  8
S09_PowerUnit_Side
100
AcDbLine
 10
73.999999995
 20
200.000000000
 30
0.000000000
 11
73.999999995
 21
207.192388155
 31
0.000000000
  0
LINE
  5
A0E
330
A02
100
AcDbEntity
  8
S09_PowerUnit_Side
100
AcDbLine
 10
73.999999995
 20
218.506096654
 30
0.000000000
 11
125.999999995
 21
218.506096654
 31
0.000000000
  0
LINE
  5
A0F
330
A02
100
AcDbEntity
  8
S09_PowerUnit_Side
100
AcDbLine
 10
125.999999995
 20
217.349242405
 30
0.000000000
 11
125.999999995
 21
218.506096654
 31
0.000000000
  0
LINE
  5
A10
330
A02
100
AcDbEntity
  8
S09_PowerUnit_Side
100
AcDbLine
 10
73.999999995
 20
207.192388155
 30
0.000000000
 11
125.999999995
 21
207.192388155
 31
0.000000000
  0
LINE
  5
A11
330
A02
100
AcDbEntity
  8
S09_PowerUnit_Side
100
AcDbLine
 10
125.999999995
 20
200.000000000
 30
0.000000000
 11
125.999999995
 21
207.192388155
 31
0.000000000
  0
SPLINE
  5
A12
330
A02
100
AcDbEntity
  8
S09_PowerUnit_Side
100
AcDbSpline
210
0
220
0
230
1
 70
8
 71
1
 72
17
 73
15
 74
0
 40
0.000000000
 40
0.000000000
 40
0.168299606
 40
0.336599213
 40
0.504898819
 40
0.673198426
 40
0.841498032
 40
1.009797639
 40
1.178097245
 40
1.346396852
 40
1.514696458
 40
1.682996064
 40
1.851295671
 40
2.019595277
 40
2.187894884
 40
2.356194490
 40
2.356194490
 10
125.999999995
 20
216.031222920
 30
0.000000000
 10
125.999999995
 20
215.453263238
 30
0.000000000
 10
125.999999995
 20
214.801719231
 30
0.000000000
 10
125.999999995
 20
214.095002206
 30
0.000000000
 10
125.999999995
 20
213.353082547
 30
0.000000000
 10
125.999999995
 20
212.596925392
 30
0.000000000
 10
125.999999995
 20
211.847898202
 30
0.000000000
 10
125.999999995
 20
211.127166959
 30
0.000000000
 10
125.999999995
 20
210.455098061
 30
0.000000000
 10
125.999999995
 20
209.850682804
 30
0.000000000
 10
125.999999995
 20
209.331000734
 30
0.000000000
 10
125.999999995
 20
208.910737006
 30
0.000000000
 10
125.999999995
 20
208.601767419
 30
0.000000000
 10
125.999999995
 20
208.412822822
 30
0.000000000
 10
125.999999995
 20
208.349242405
 30
0.000000000
  0
SPLINE
  5
A13
330
A02
100
AcDbEntity
  8
S09_PowerUnit_Side
100
AcDbSpline
210
0
220
0
230
1
 70
8
 71
1
 72
17
 73
15
 74
0
 40
5.497787144
 40
5.497787144
 40
5.553887013
 40
5.609986881
 40
5.666086750
 40
5.722186619
 40
5.778286488
 40
5.834386357
 40
5.890486225
 40
5.946586094
 40
6.002685963
 40
6.058785832
 40
6.114885701
 40
6.170985570
 40
6.227085438
 40
6.283185307
 40
6.283185307
 10
125.999999995
 20
217.349242405
 30
0.000000000
 10
125.999999995
 20
217.342163072
 30
0.000000000
 10
125.999999995
 20
217.320947349
 30
0.000000000
 10
125.999999995
 20
217.285661988
 30
0.000000000
 10
125.999999995
 20
217.236418010
 30
0.000000000
 10
125.999999995
 20
217.173370354
 30
0.000000000
 10
125.999999995
 20
217.096717391
 30
0.000000000
 10
125.999999995
 20
217.006700301
 30
0.000000000
 10
125.999999995
 20
216.903602310
 30
0.000000000
 10
125.999999995
 20
216.787747804
 30
0.000000000
 10
125.999999995
 20
216.659501301
 30
0.000000000
 10
125.999999995
 20
216.519266315
 30
0.000000000
 10
125.999999995
 20
216.367484076
 30
0.000000000
 10
125.999999995
 20
216.204632147
 30
0.000000000
 10
125.999999995
 20
216.031222920
 30
0.000000000
  0
SPLINE
  5
A14
330
A02
100
AcDbEntity
  8
S09_PowerUnit_Side
100
AcDbSpline
210
0
220
0
230
1
 70
8
 71
1
 72
17
 73
15
 74
0
 40
0.000000000
 40
0.000000000
 40
0.168299606
 40
0.336599213
 40
0.504898819
 40
0.673198426
 40
0.841498032
 40
1.009797639
 40
1.178097245
 40
1.346396852
 40
1.514696458
 40
1.682996064
 40
1.851295671
 40
2.019595277
 40
2.187894884
 40
2.356194490
 40
2.356194490
 10
73.999999995
 20
216.031222920
 30
0.000000000
 10
73.999999995
 20
215.453263238
 30
0.000000000
 10
73.999999995
 20
214.801719231
 30
0.000000000
 10
73.999999995
 20
214.095002206
 30
0.000000000
 10
73.999999995
 20
213.353082547
 30
0.000000000
 10
73.999999995
 20
212.596925392
 30
0.000000000
 10
73.999999995
 20
211.847898202
 30
0.000000000
 10
73.999999995
 20
211.127166959
 30
0.000000000
 10
73.999999995
 20
210.455098061
 30
0.000000000
 10
73.999999995
 20
209.850682804
 30
0.000000000
 10
73.999999995
 20
209.331000734
 30
0.000000000
 10
73.999999995
 20
208.910737006
 30
0.000000000
 10
73.999999995
 20
208.601767419
 30
0.000000000
 10
73.999999995
 20
208.412822822
 30
0.000000000
 10
73.999999995
 20
208.349242405
 30
0.000000000
  0
SPLINE
  5
A15
330
A02
100
AcDbEntity
  8
S09_PowerUnit_Side
100
AcDbSpline
210
0
220
0
230
1
 70
8
 71
1
 72
17
 73
15
 74
0
 40
5.497787144
 40
5.497787144
 40
5.553887013
 40
5.609986881
 40
5.666086750
 40
5.722186619
 40
5.778286488
 40
5.834386357
 40
5.890486225
 40
5.946586094
 40
6.002685963
 40
6.058785832
 40
6.114885701
 40
6.170985570
 40
6.227085438
 40
6.283185307
 40
6.283185307
 10
73.999999995
 20
217.349242405
 30
0.000000000
 10
73.999999995
 20
217.342163072
 30
0.000000000
 10
73.999999995
 20
217.320947349
 30
0.000000000
 10
73.999999995
 20
217.285661988
 30
0.000000000
 10
73.999999995
 20
217.236418010
 30
0.000000000
 10
73.999999995
 20
217.173370354
 30
0.000000000
 10
73.999999995
 20
217.096717391
 30
0.000000000
 10
73.999999995
 20
217.006700301
 30
0.000000000
 10
73.999999995
 20
216.903602310
 30
0.000000000
 10
73.999999995
 20
216.787747804
 30
0.000000000
 10
73.999999995
 20
216.659501301
 30
0.000000000
 10
73.999999995
 20
216.519266315
 30
0.000000000
 10
73.999999995
 20
216.367484076
 30
0.000000000
 10
73.999999995
 20
216.204632147
 30
0.000000000
 10
73.999999995
 20
216.031222920
 30
0.000000000
  0
SPLINE
  5
A16
330
A02
100
AcDbEntity
  8
S09_PowerUnit_Side
100
AcDbSpline
210
0
220
0
230
1
 70
8
 71
1
 72
17
 73
15
 74
0
 40
0.000000000
 40
0.000000000
 40
0.224399475
 40
0.448798951
 40
0.673198426
 40
0.897597901
 40
1.121997376
 40
1.346396852
 40
1.570796327
 40
1.795195802
 40
2.019595277
 40
2.243994753
 40
2.468394228
 40
2.692793703
 40
2.917193178
 40
3.141592654
 40
3.141592654
 10
70.999999995
 20
222.000000000
 30
0.000000000
 10
70.999999995
 20
221.724207034
 30
0.000000000
 10
70.999999995
 20
220.910657547
 30
0.000000000
 10
70.999999995
 20
219.600146307
 30
0.000000000
 10
70.999999995
 20
217.858387820
 30
0.000000000
 10
70.999999995
 20
215.772721130
 30
0.000000000
 10
70.999999995
 20
213.447730274
 30
0.000000000
 10
70.999999995
 20
211.000000000
 30
0.000000000
 10
70.999999995
 20
208.552269726
 30
0.000000000
 10
70.999999995
 20
206.227278870
 30
0.000000000
 10
70.999999995
 20
204.141612180
 30
0.000000000
 10
70.999999995
 20
202.399853693
 30
0.000000000
 10
70.999999995
 20
201.089342453
 30
0.000000000
 10
70.999999995
 20
200.275792966
 30
0.000000000
 10
70.999999995
 20
200.000000000
 30
0.000000000
  0
LINE
  5
A17
330
A02
100
AcDbEntity
  8
S09_PowerUnit_Side
100
AcDbLine
 10
59.999999995
 20
222.000000000
 30
0.000000000
 11
70.999999995
 21
222.000000000
 31
0.000000000
  0
SPLINE
  5
A18
330
A02
100
AcDbEntity
  8
S09_PowerUnit_Side
100
AcDbSpline
210
0
220
0
230
1
 70
8
 71
1
 72
17
 73
15
 74
0
 40
0.000000000
 40
0.000000000
 40
0.224399475
 40
0.448798951
 40
0.673198426
 40
0.897597901
 40
1.121997376
 40
1.346396852
 40
1.570796327
 40
1.795195802
 40
2.019595277
 40
2.243994753
 40
2.468394228
 40
2.692793703
 40
2.917193178
 40
3.141592654
 40
3.141592654
 10
59.999999995
 20
222.000000000
 30
0.000000000
 10
59.999999995
 20
221.724207034
 30
0.000000000
 10
59.999999995
 20
220.910657547
 30
0.000000000
 10
59.999999995
 20
219.600146307
 30
0.000000000
 10
59.999999995
 20
217.858387820
 30
0.000000000
 10
59.999999995
 20
215.772721130
 30
0.000000000
 10
59.999999995
 20
213.447730274
 30
0.000000000
 10
59.999999995
 20
211.000000000
 30
0.000000000
 10
59.999999995
 20
208.552269726
 30
0.000000000
 10
59.999999995
 20
206.227278870
 30
0.000000000
 10
59.999999995
 20
204.141612180
 30
0.000000000
 10
59.999999995
 20
202.399853693
 30
0.000000000
 10
59.999999995
 20
201.089342453
 30
0.000000000
 10
59.999999995
 20
200.275792966
 30
0.000000000
 10
59.999999995
 20
200.000000000
 30
0.000000000
  0
SPLINE
  5
A19
330
A02
100
AcDbEntity
  8
S09_PowerUnit_Side
100
AcDbSpline
210
0
220
0
230
1
 70
8
 71
1
 72
17
 73
15
 74
0
 40
0.000000000
 40
0.000000000
 40
0.224399475
 40
0.448798951
 40
0.673198426
 40
0.897597901
 40
1.121997376
 40
1.346396852
 40
1.570796327
 40
1.795195802
 40
2.019595277
 40
2.243994753
 40
2.468394228
 40
2.692793703
 40
2.917193178
 40
3.141592654
 40
3.141592654
 10
139.999999995
 20
221.500000000
 30
0.000000000
 10
139.999999995
 20
221.236743078
 30
0.000000000
 10
139.999999995
 20
220.460173113
 30
0.000000000
 10
139.999999995
 20
219.209230566
 30
0.000000000
 10
139.999999995
 20
217.546642920
 30
0.000000000
 10
139.999999995
 20
215.555779261
 30
0.000000000
 10
139.999999995
 20
213.336469807
 30
0.000000000
 10
139.999999995
 20
211.000000000
 30
0.000000000
 10
139.999999995
 20
208.663530193
 30
0.000000000
 10
139.999999995
 20
206.444220739
 30
0.000000000
 10
139.999999995
 20
204.453357080
 30
0.000000000
 10
139.999999995
 20
202.790769434
 30
0.000000000
 10
139.999999995
 20
201.539826887
 30
0.000000000
 10
139.999999995
 20
200.763256922
 30
0.000000000
 10
139.999999995
 20
200.500000000
 30
0.000000000
  0
LINE
  5
A1A
330
A02
100
AcDbEntity
  8
S09_PowerUnit_Side
100
AcDbLine
 10
128.999999995
 20
221.500000000
 30
0.000000000
 11
139.999999995
 21
221.500000000
 31
0.000000000
  0
SPLINE
  5
A1B
330
A02
100
AcDbEntity
  8
S09_PowerUnit_Side
100
AcDbSpline
210
0
220
0
230
1
 70
8
 71
1
 72
17
 73
15
 74
0
 40
0.000000000
 40
0.000000000
 40
0.224399475
 40
0.448798951
 40
0.673198426
 40
0.897597901
 40
1.121997376
 40
1.346396852
 40
1.570796327
 40
1.795195802
 40
2.019595277
 40
2.243994753
 40
2.468394228
 40
2.692793703
 40
2.917193178
 40
3.141592654
 40
3.141592654
 10
128.999999995
 20
221.500000000
 30
0.000000000
 10
128.999999995
 20
221.236743078
 30
0.000000000
 10
128.999999995
 20
220.460173113
 30
0.000000000
 10
128.999999995
 20
219.209230566
 30
0.000000000
 10
128.999999995
 20
217.546642920
 30
0.000000000
 10
128.999999995
 20
215.555779261
 30
0.000000000
 10
128.999999995
 20
213.336469807
 30
0.000000000
 10
128.999999995
 20
211.000000000
 30
0.000000000
 10
128.999999995
 20
208.663530193
 30
0.000000000
 10
128.999999995
 20
206.444220739
 30
0.000000000
 10
128.999999995
 20
204.453357080
 30
0.000000000
 10
128.999999995
 20
202.790769434
 30
0.000000000
 10
128.999999995
 20
201.539826887
 30
0.000000000
 10
128.999999995
 20
200.763256922
 30
0.000000000
 10
128.999999995
 20
200.500000000
 30
0.000000000
  0
LINE
  5
A1C
330
A02
100
AcDbEntity
  8
S09_PowerUnit_Side
100
AcDbLine
 10
70.999999995
 20
216.500000000
 30
0.000000000
 11
73.999999995
 21
216.500000000
 31
0.000000000
  0
LINE
  5
A1D
330
A02
100
AcDbEntity
  8
S09_PowerUnit_Side
100
AcDbLine
 10
125.999999995
 20
216.500000000
 30
0.000000000
 11
128.999999995
 21
216.500000000
 31
0.000000000
  0
CIRCLE
  5
A1E
330
A02
100
AcDbEntity
  8
S09_PowerUnit_Side
100
AcDbCircle
 10
83.999999995
 20
190.000000000
 30
0.000000000
 40
6.000000000
  0
LINE
  5
A1F
330
A02
100
AcDbEntity
  8
S09_PowerUnit_Side
100
AcDbLine
 10
15.999999995
 20
178.000000000
 30
0.000000000
 11
15.999999995
 21
192.000000000
 31
0.000000000
  0
LINE
  5
A20
330
A02
100
AcDbEntity
  8
S09_PowerUnit_Side
100
AcDbLine
 10
58.999999995
 20
178.000000000
 30
0.000000000
 11
58.999999995
 21
192.000000000
 31
0.000000000
  0
LINE
  5
A21
330
A02
100
AcDbEntity
  8
S09_PowerUnit_Side
100
AcDbLine
 10
15.999999995
 20
178.000000000
 30
0.000000000
 11
58.999999995
 21
178.000000000
 31
0.000000000
  0
LINE
  5
A22
330
A02
100
AcDbEntity
  8
S09_PowerUnit_Side
100
AcDbLine
 10
15.999999995
 20
192.000000000
 30
0.000000000
 11
58.999999995
 21
192.000000000
 31
0.000000000
  0
ELLIPSE
  5
A23
330
A02
100
AcDbEntity
  8
S09_PowerUnit_Side
100
AcDbEllipse
 10
80.999999995
 20
213.500000000
 30
0.000000000
 11
-0.109862757
 21
-2.197255146
 31
0.000000000
 40
0.269317933
 41
-0.000000000
 42
-3.141592654
  0
ARC
  5
A24
330
A02
100
AcDbEntity
  8
S09_PowerUnit_Side
100
AcDbCircle
 10
80.999999995
 20
213.500000000
 30
0.000000000
 40
2.200000000
100
AcDbArc
 50
87.137594774
 51
90.000000000
  0
ELLIPSE
  5
A25
330
A02
100
AcDbEntity
  8
S09_PowerUnit_Side
100
AcDbEllipse
 10
98.999999995
 20
213.500000000
 30
0.000000000
 11
-0.171352868
 21
-2.193316711
 31
0.000000000
 40
0.399796074
 41
-0.000000000
 42
-3.141592654
  0
ARC
  5
A26
330
A02
100
AcDbEntity
  8
S09_PowerUnit_Side
100
AcDbCircle
 10
98.999999995
 20
213.500000000
 30
0.000000000
 40
2.200000000
100
AcDbArc
 50
85.532840939
 51
90.000000000
  0
ELLIPSE
  5
A27
330
A02
100
AcDbEntity
  8
S09_PowerUnit_Side
100
AcDbEllipse
 10
116.999999995
 20
213.500000000
 30
0.000000000
 11
-0.386739405
 21
-2.165740666
 31
0.000000000
 40
0.701536293
 41
-4.587763878
 42
-3.141592654
  0
ELLIPSE
  5
A28
330
A02
100
AcDbEntity
  8
S09_PowerUnit_Side
100
AcDbEllipse
 10
116.999999995
 20
213.500000000
 30
0.000000000
 11
-0.386739405
 21
-2.165740666
 31
0.000000000
 40
0.701536293
 41
-0.000000000
 42
-4.587763878
  0
ARC
  5
A29
330
A02
100
AcDbEntity
  8
S09_PowerUnit_Side
100
AcDbCircle
 10
116.999999995
 20
213.500000000
 30
0.000000000
 40
2.200000000
100
AcDbArc
 50
79.875328345
 51
90.000000000
  0
SPLINE
  5
A2A
330
A02
100
AcDbEntity
  8
S09_PowerUnit_Side
100
AcDbSpline
210
0
220
0
230
1
 70
8
 71
3
 72
53
 73
49
 74
0
 40
0.261354010
 40
0.261354010
 40
0.261354010
 40
0.261354010
 40
0.297551036
 40
0.297551036
 40
0.297551036
 40
0.325049790
 40
0.325049790
 40
0.325049790
 40
0.351018005
 40
0.351018005
 40
0.351018005
 40
0.382718456
 40
0.382718456
 40
0.382718456
 40
0.415913081
 40
0.415913081
 40
0.415913081
 40
0.439023727
 40
0.439023727
 40
0.439023727
 40
0.461492866
 40
0.461492866
 40
0.461492866
 40
0.500000000
 40
0.500000000
 40
0.500000000
 40
0.538507134
 40
0.538507134
 40
0.538507134
 40
0.560976273
 40
0.560976273
 40
0.560976273
 40
0.584086919
 40
0.584086919
 40
0.584086919
 40
0.617281544
 40
0.617281544
 40
0.617281544
 40
0.648981995
 40
0.648981995
 40
0.648981995
 40
0.674950210
 40
0.674950210
 40
0.674950210
 40
0.702448964
 40
0.702448964
 40
0.702448964
 40
0.738645990
 40
0.738645990
 40
0.738645990
 40
0.738645990
 10
127.999999995
 20
212.000708082
 30
0.000000000
 10
127.999999995
 20
212.000708082
 30
0.000000000
 10
127.999999995
 20
211.993511238
 30
0.000000000
 10
127.999999995
 20
211.933229321
 30
0.000000000
 10
127.999999995
 20
211.887014879
 30
0.000000000
 10
127.999999995
 20
211.813122927
 30
0.000000000
 10
127.999999995
 20
211.675932597
 30
0.000000000
 10
127.999999995
 20
211.546096593
 30
0.000000000
 10
127.999999995
 20
211.360889441
 30
0.000000000
 10
127.999999995
 20
211.081158346
 30
0.000000000
 10
127.999999995
 20
210.741000543
 30
0.000000000
 10
127.999999995
 20
210.253593573
 30
0.000000000
 10
127.999999995
 20
209.561479101
 30
0.000000000
 10
127.999999995
 20
208.841344358
 30
0.000000000
 10
127.999999995
 20
207.888797374
 30
0.000000000
 10
127.999999995
 20
206.818581526
 30
0.000000000
 10
127.999999995
 20
206.075169753
 30
0.000000000
 10
127.999999995
 20
205.281542456
 30
0.000000000
 10
127.999999995
 20
204.477000671
 30
0.000000000
 10
127.999999995
 20
203.691595807
 30
0.000000000
 10
127.999999995
 20
202.899935626
 30
0.000000000
 10
127.999999995
 20
202.102020129
 30
0.000000000
 10
127.999999995
 20
200.737217216
 30
0.000000000
 10
127.999999995
 20
199.369877175
 30
0.000000000
 10
127.999999995
 20
198.000000006
 30
0.000000000
 10
127.999999995
 20
196.630122833
 30
0.000000000
 10
127.999999995
 20
195.262782788
 30
0.000000000
 10
127.999999995
 20
193.897979871
 30
0.000000000
 10
127.999999995
 20
193.100064374
 30
0.000000000
 10
127.999999995
 20
192.308404193
 30
0.000000000
 10
127.999999995
 20
191.522999329
 30
0.000000000
 10
127.999999995
 20
190.718457544
 30
0.000000000
 10
127.999999995
 20
189.924830247
 30
0.000000000
 10
127.999999995
 20
189.181418474
 30
0.000000000
 10
127.999999995
 20
188.111202626
 30
0.000000000
 10
127.999999995
 20
187.158655642
 30
0.000000000
 10
127.999999995
 20
186.438520899
 30
0.000000000
 10
127.999999995
 20
185.746406427
 30
0.000000000
 10
127.999999995
 20
185.258999457
 30
0.000000000
 10
127.999999995
 20
184.918841654
 30
0.000000000
 10
127.999999995
 20
184.639110559
 30
0.000000000
 10
127.999999995
 20
184.453903407
 30
0.000000000
 10
127.999999995
 20
184.324067403
 30
0.000000000
 10
127.999999995
 20
184.186877073
 30
0.000000000
 10
127.999999995
 20
184.112985121
 30
0.000000000
 10
127.999999995
 20
184.066770679
 30
0.000000000
 10
127.999999995
 20
184.006488762
 30
0.000000000
 10
127.999999995
 20
183.999291918
 30
0.000000000
 10
127.999999995
 20
183.999291918
 30
0.000000000
  0
SPLINE
  5
A2B
330
A02
100
AcDbEntity
  8
S09_PowerUnit_Side
100
AcDbSpline
210
0
220
0
230
1
 70
8
 71
3
 72
41
 73
37
 74
0
 40
0.250607382
 40
0.250607382
 40
0.250607382
 40
0.250607382
 40
0.303599214
 40
0.303599214
 40
0.303599214
 40
0.368815936
 40
0.368815936
 40
0.368815936
 40
0.402587735
 40
0.402587735
 40
0.402587735
 40
0.434625649
 40
0.434625649
 40
0.434625649
 40
0.461492866
 40
0.461492866
 40
0.461492866
 40
0.500000000
 40
0.500000000
 40
0.500000000
 40
0.538507134
 40
0.538507134
 40
0.538507134
 40
0.565374351
 40
0.565374351
 40
0.565374351
 40
0.597412265
 40
0.597412265
 40
0.597412265
 40
0.631184064
 40
0.631184064
 40
0.631184064
 40
0.696400786
 40
0.696400786
 40
0.696400786
 40
0.749392618
 40
0.749392618
 40
0.749392618
 40
0.749392618
 10
233.999999995
 20
212.000000074
 30
0.000000000
 10
233.999999995
 20
211.999981046
 30
0.000000000
 10
233.999999995
 20
211.999475280
 30
0.000000000
 10
233.999999995
 20
211.899625304
 30
0.000000000
 10
233.999999995
 20
211.775063729
 30
0.000000000
 10
233.999999995
 20
211.505044954
 30
0.000000000
 10
233.999999995
 20
210.834395240
 30
0.000000000
 10
233.999999995
 20
210.486912124
 30
0.000000000
 10
233.999999995
 20
210.030237680
 30
0.000000000
 10
233.999999995
 20
209.464371906
 30
0.000000000
 10
233.999999995
 20
208.930345044
 30
0.000000000
 10
233.999999995
 20
208.308936105
 30
0.000000000
 10
233.999999995
 20
207.655848805
 30
0.000000000
 10
233.999999995
 20
207.104798405
 30
0.000000000
 10
233.999999995
 20
206.542110281
 30
0.000000000
 10
233.999999995
 20
205.967784431
 30
0.000000000
 10
233.999999995
 20
205.147984944
 30
0.000000000
 10
233.999999995
 20
204.325390134
 30
0.000000000
 10
233.999999995
 20
203.500000003
 30
0.000000000
 10
233.999999995
 20
202.674609868
 30
0.000000000
 10
233.999999995
 20
201.852015057
 30
0.000000000
 10
233.999999995
 20
201.032215569
 30
0.000000000
 10
233.999999995
 20
200.457889719
 30
0.000000000
 10
233.999999995
 20
199.895201595
 30
0.000000000
 10
233.999999995
 20
199.344151195
 30
0.000000000
 10
233.999999995
 20
198.691063895
 30
0.000000000
 10
233.999999995
 20
198.069654956
 30
0.000000000
 10
233.999999995
 20
197.535628094
 30
0.000000000
 10
233.999999995
 20
196.969762320
 30
0.000000000
 10
233.999999995
 20
196.513087876
 30
0.000000000
 10
233.999999995
 20
196.165604760
 30
0.000000000
 10
233.999999995
 20
195.494955046
 30
0.000000000
 10
233.999999995
 20
195.224936271
 30
0.000000000
 10
233.999999995
 20
195.100374696
 30
0.000000000
 10
233.999999995
 20
195.000524719
 30
0.000000000
 10
233.999999995
 20
195.000018954
 30
0.000000000
 10
233.999999995
 20
194.999999926
 30
0.000000000
  0
SPLINE
  5
A2C
330
A02
100
AcDbEntity
  8
S09_PowerUnit_Side
100
AcDbSpline
210
0
220
0
230
1
 70
8
 71
3
 72
41
 73
37
 74
0
 40
138.826398511
 40
138.826398511
 40
138.826398511
 40
138.826398511
 40
165.297203717
 40
165.297203717
 40
165.297203717
 40
203.720707969
 40
203.720707969
 40
203.720707969
 40
223.335900203
 40
223.335900203
 40
223.335900203
 40
243.831953684
 40
243.831953684
 40
243.831953684
 40
256.533735875
 40
256.533735875
 40
256.533735875
 40
278.320882653
 40
278.320882653
 40
278.320882653
 40
300.108029434
 40
300.108029434
 40
300.108029434
 40
312.809811625
 40
312.809811625
 40
312.809811625
 40
333.305865107
 40
333.305865107
 40
333.305865107
 40
352.921057340
 40
352.921057340
 40
352.921057340
 40
391.344561592
 40
391.344561592
 40
391.344561592
 40
417.815366975
 40
417.815366975
 40
417.815366975
 40
417.815366975
 10
233.999999995
 20
212.000000066
 30
0.000000000
 10
233.999999995
 20
211.999979872
 30
0.000000000
 10
233.999999995
 20
212.001193904
 30
0.000000000
 10
233.999999995
 20
211.938314693
 30
0.000000000
 10
233.999999995
 20
211.845781709
 30
0.000000000
 10
233.999999995
 20
211.625017705
 30
0.000000000
 10
233.999999995
 20
211.011779604
 30
0.000000000
 10
233.999999995
 20
210.698098448
 30
0.000000000
 10
233.999999995
 20
210.281732277
 30
0.000000000
 10
233.999999995
 20
209.762681094
 30
0.000000000
 10
233.999999995
 20
209.223719463
 30
0.000000000
 10
233.999999995
 20
208.588591310
 30
0.000000000
 10
233.999999995
 20
207.928068616
 30
0.000000000
 10
233.999999995
 20
207.517112747
 30
0.000000000
 10
233.999999995
 20
207.100242158
 30
0.000000000
 10
233.999999995
 20
206.677456851
 30
0.000000000
 10
233.999999995
 20
205.953963369
 30
0.000000000
 10
233.999999995
 20
205.228144418
 30
0.000000000
 10
233.999999995
 20
204.500000000
 30
0.000000000
 10
233.999999995
 20
203.771855582
 30
0.000000000
 10
233.999999995
 20
203.046036631
 30
0.000000000
 10
233.999999995
 20
202.322543149
 30
0.000000000
 10
233.999999995
 20
201.899757842
 30
0.000000000
 10
233.999999995
 20
201.482887253
 30
0.000000000
 10
233.999999995
 20
201.071931384
 30
0.000000000
 10
233.999999995
 20
200.411408690
 30
0.000000000
 10
233.999999995
 20
199.776280537
 30
0.000000000
 10
233.999999995
 20
199.237318906
 30
0.000000000
 10
233.999999995
 20
198.718267723
 30
0.000000000
 10
233.999999995
 20
198.301901552
 30
0.000000000
 10
233.999999995
 20
197.988220396
 30
0.000000000
 10
233.999999995
 20
197.374982295
 30
0.000000000
 10
233.999999995
 20
197.154218291
 30
0.000000000
 10
233.999999995
 20
197.061685307
 30
0.000000000
 10
233.999999995
 20
196.998806096
 30
0.000000000
 10
233.999999995
 20
197.000020128
 30
0.000000000
 10
233.999999995
 20
196.999999934
 30
0.000000000
  0
SPLINE
  5
A2D
330
A02
100
AcDbEntity
  8
S09_PowerUnit_Side
100
AcDbSpline
210
0
220
0
230
1
 70
8
 71
3
 72
29
 73
25
 74
0
 40
82.453160267
 40
82.453160267
 40
82.453160267
 40
82.453160267
 40
104.835880585
 40
104.835880585
 40
104.835880585
 40
126.743634279
 40
126.743634279
 40
126.743634279
 40
146.497229135
 40
146.497229135
 40
146.497229135
 40
164.906345570
 40
164.906345570
 40
164.906345570
 40
183.315462006
 40
183.315462006
 40
183.315462006
 40
203.069056862
 40
203.069056862
 40
203.069056862
 40
224.976810556
 40
224.976810556
 40
224.976810556
 40
247.359530874
 40
247.359530874
 40
247.359530874
 40
247.359530874
 10
283.999999995
 20
211.000000000
 30
0.000000000
 10
283.999999995
 20
211.000896402
 30
0.000000000
 10
283.999999995
 20
210.981105830
 30
0.000000000
 10
283.999999995
 20
210.829603727
 30
0.000000000
 10
283.999999995
 20
210.684057354
 30
0.000000000
 10
283.999999995
 20
210.412233085
 30
0.000000000
 10
283.999999995
 20
209.946924304
 30
0.000000000
 10
283.999999995
 20
209.531834559
 30
0.000000000
 10
283.999999995
 20
208.955398801
 30
0.000000000
 10
283.999999995
 20
208.323439067
 30
0.000000000
 10
283.999999995
 20
207.733522262
 30
0.000000000
 10
283.999999995
 20
207.113292319
 30
0.000000000
 10
283.999999995
 20
206.500000000
 30
0.000000000
 10
283.999999995
 20
205.886707681
 30
0.000000000
 10
283.999999995
 20
205.266477738
 30
0.000000000
 10
283.999999995
 20
204.676560933
 30
0.000000000
 10
283.999999995
 20
204.044601199
 30
0.000000000
 10
283.999999995
 20
203.468165441
 30
0.000000000
 10
283.999999995
 20
203.053075696
 30
0.000000000
 10
283.999999995
 20
202.587766915
 30
0.000000000
 10
283.999999995
 20
202.315942646
 30
0.000000000
 10
283.999999995
 20
202.170396273
 30
0.000000000
 10
283.999999995
 20
202.018894170
 30
0.000000000
 10
283.999999995
 20
201.999103598
 30
0.000000000
 10
283.999999995
 20
202.000000000
 30
0.000000000
  0
LINE
  5
A2E
330
A02
100
AcDbEntity
  8
S09_PowerUnit_Side
100
AcDbLine
 10
73.999999995
 20
217.349242405
 30
0.000000000
 11
125.999999995
 21
217.349242405
 31
0.000000000
  0
LINE
  5
A2F
330
A02
100
AcDbEntity
  8
S09_PowerUnit_Side
100
AcDbLine
 10
59.999999995
 20
200.000000000
 30
0.000000000
 11
70.999999995
 21
200.000000000
 31
0.000000000
  0
LINE
  5
A30
330
A02
100
AcDbEntity
  8
S09_PowerUnit_Side
100
AcDbLine
 10
70.999999995
 20
205.500000000
 30
0.000000000
 11
73.999999995
 21
205.500000000
 31
0.000000000
  0
LINE
  5
A31
330
A02
100
AcDbEntity
  8
S09_PowerUnit_Side
100
AcDbLine
 10
125.999999995
 20
205.500000000
 30
0.000000000
 11
128.999999995
 21
205.500000000
 31
0.000000000
  0
LINE
  5
A32
330
A02
100
AcDbEntity
  8
S09_PowerUnit_Side
100
AcDbLine
 10
125.999999995
 20
209.047251717
 30
0.000000000
 11
128.999999995
 21
208.897251717
 31
0.000000000
  0
LINE
  5
A33
330
A02
100
AcDbEntity
  8
S09_PowerUnit_Side
100
AcDbLine
 10
125.999999995
 20
209.658055869
 30
0.000000000
 11
128.606844580
 21
209.192547907
 31
0.000000000
  0
LINE
  5
A34
330
A02
100
AcDbEntity
  8
S09_PowerUnit_Side
100
AcDbLine
 10
125.999999995
 20
214.127658417
 30
0.000000000
 11
128.999999995
 21
213.591944131
 31
0.000000000
  0
SPLINE
  5
A35
330
A02
100
AcDbEntity
  8
S09_PowerUnit_Side
100
AcDbSpline
210
0
220
0
230
1
 70
8
 71
1
 72
4
 73
2
 74
0
 40
0.000000000
 40
0.000000000
 40
0.886789860
 40
0.886789860
 10
233.999999995
 20
212.000000077
 30
0.000000000
 10
139.999999995
 20
212.000520469
 30
0.000000000
  0
SPLINE
  5
A36
330
A02
100
AcDbEntity
  8
S09_PowerUnit_Side
100
AcDbSpline
210
0
220
0
230
1
 70
8
 71
1
 72
4
 73
2
 74
0
 40
0.113207516
 40
0.113207516
 40
1.000000000
 40
1.000000000
 10
139.999999995
 20
212.000000000
 30
0.000000000
 10
233.999999995
 20
212.000000000
 30
0.000000000
  0
SPLINE
  5
A37
330
A02
100
AcDbEntity
  8
S09_PowerUnit_Side
100
AcDbSpline
210
0
220
0
230
1
 70
8
 71
1
 72
4
 73
2
 74
0
 40
0.000000000
 40
0.000000000
 40
0.886789863
 40
0.886789863
 10
233.999999995
 20
212.000000074
 30
0.000000000
 10
139.999999995
 20
212.000520381
 30
0.000000000
  0
SPLINE
  5
A38
330
A02
100
AcDbEntity
  8
S09_PowerUnit_Side
100
AcDbSpline
210
0
220
0
230
1
 70
8
 71
3
 72
8
 73
4
 74
0
 40
0.000000000
 40
0.000000000
 40
0.000000000
 40
0.000000000
 40
1.000000000
 40
1.000000000
 40
1.000000000
 40
1.000000000
 10
127.999999995
 20
183.999291918
 30
0.000000000
 10
163.527497494
 20
185.256396566
 30
0.000000000
 10
198.968512969
 20
188.951261156
 30
0.000000000
 10
233.999999995
 20
194.999999926
 30
0.000000000
  0
SPLINE
  5
A39
330
A02
100
AcDbEntity
  8
S09_PowerUnit_Side
100
AcDbSpline
210
0
220
0
230
1
 70
8
 71
3
 72
8
 73
4
 74
0
 40
0.000000000
 40
0.000000000
 40
0.000000000
 40
0.000000000
 40
1.000000000
 40
1.000000000
 40
1.000000000
 40
1.000000000
 10
233.999999995
 20
195.000000000
 30
0.000000000
 10
198.968317289
 20
188.951278597
 30
0.000000000
 10
163.528548532
 20
185.256584088
 30
0.000000000
 10
127.999999995
 20
184.000000000
 30
0.000000000
  0
SPLINE
  5
A3A
330
A02
100
AcDbEntity
  8
S09_PowerUnit_Side
100
AcDbSpline
210
0
220
0
230
1
 70
8
 71
3
 72
8
 73
4
 74
0
 40
0.000000000
 40
0.000000000
 40
0.000000000
 40
0.000000000
 40
1.000000000
 40
1.000000000
 40
1.000000000
 40
1.000000000
 10
127.999999995
 20
183.999291813
 30
0.000000000
 10
163.527497544
 20
185.256396674
 30
0.000000000
 10
198.968508152
 20
188.951260396
 30
0.000000000
 10
233.999999995
 20
194.999999923
 30
0.000000000
  0
SPLINE
  5
A3B
330
A02
100
AcDbEntity
  8
S09_PowerUnit_Side
100
AcDbSpline
210
0
220
0
230
1
 70
8
 71
3
 72
20
 73
16
 74
0
 40
0.000000000
 40
0.000000000
 40
0.000000000
 40
0.000000000
 40
0.069799782
 40
0.069799782
 40
0.069799782
 40
0.139599563
 40
0.139599563
 40
0.139599563
 40
0.239291714
 40
0.239291714
 40
0.239291714
 40
0.448645147
 40
0.448645147
 40
0.448645147
 40
1.000000000
 40
1.000000000
 40
1.000000000
 40
1.000000000
 10
233.999999995
 20
212.000000066
 30
0.000000000
 10
235.113250518
 20
211.977734967
 30
0.000000000
 10
236.219334747
 20
211.955613310
 30
0.000000000
 10
237.346348960
 20
211.933073021
 30
0.000000000
 10
238.513270880
 20
211.909734582
 30
0.000000000
 10
239.680192799
 20
211.886396144
 30
0.000000000
 10
240.847114718
 20
211.863057706
 30
0.000000000
 10
242.513782058
 20
211.829724359
 30
0.000000000
 10
244.180449398
 20
211.796391012
 30
0.000000000
 10
245.847116738
 20
211.763057665
 30
0.000000000
 10
249.347116771
 20
211.693057664
 30
0.000000000
 10
252.847116805
 20
211.623057664
 30
0.000000000
 10
256.347116839
 20
211.553057663
 30
0.000000000
 10
265.564744558
 20
211.368705109
 30
0.000000000
 10
274.782372276
 20
211.184352554
 30
0.000000000
 10
283.999999995
 20
211.000000000
 30
0.000000000
  0
SPLINE
  5
A3C
330
A02
100
AcDbEntity
  8
S09_PowerUnit_Side
100
AcDbSpline
210
0
220
0
230
1
 70
8
 71
3
 72
20
 73
16
 74
0
 40
0.000000000
 40
0.000000000
 40
0.000000000
 40
0.000000000
 40
0.069799784
 40
0.069799784
 40
0.069799784
 40
0.139599568
 40
0.139599568
 40
0.139599568
 40
0.239291715
 40
0.239291715
 40
0.239291715
 40
0.448645140
 40
0.448645140
 40
0.448645140
 40
1.000000000
 40
1.000000000
 40
1.000000000
 40
1.000000000
 10
233.999999995
 20
196.999999934
 30
0.000000000
 10
235.113269999
 20
197.111327023
 30
0.000000000
 10
236.219442914
 20
197.221944287
 30
0.000000000
 10
237.346347352
 20
197.334634736
 30
0.000000000
 10
238.513269359
 20
197.451326936
 30
0.000000000
 10
239.680191367
 20
197.568019137
 30
0.000000000
 10
240.847113374
 20
197.684711338
 30
0.000000000
 10
242.513780714
 20
197.851378072
 30
0.000000000
 10
244.180448054
 20
198.018044806
 30
0.000000000
 10
245.847115394
 20
198.184711540
 30
0.000000000
 10
249.347115428
 20
198.534711543
 30
0.000000000
 10
252.847115462
 20
198.884711547
 30
0.000000000
 10
256.347115496
 20
199.234711550
 30
0.000000000
 10
265.564743662
 20
200.156474367
 30
0.000000000
 10
274.782371829
 20
201.078237183
 30
0.000000000
 10
283.999999995
 20
202.000000000
 30
0.000000000
  0
SPLINE
  5
A3D
330
A02
100
AcDbEntity
  8
S09_PowerUnit_Side
100
AcDbSpline
210
0
220
0
230
1
 70
8
 71
2
 72
10
 73
7
 74
0
 40
0.000000000
 40
0.000000000
 40
0.000000000
 40
0.250000000
 40
0.250000000
 40
0.500000000
 40
0.500000000
 40
1.000000000
 40
1.000000000
 40
1.000000000
 10
233.999999995
 20
212.000000000
 30
0.000000000
 10
234.531734376
 20
211.989365312
 30
0.000000000
 10
235.063468757
 20
211.978730625
 30
0.000000000
 10
235.596913519
 20
211.968061730
 30
0.000000000
 10
236.125939177
 20
211.957481216
 30
0.000000000
 10
236.126024502
 20
211.957479510
 30
0.000000000
 10
236.126109827
 20
211.957477803
 30
0.000000000
  0
SPLINE
  5
A3E
330
A02
100
AcDbEntity
  8
S09_PowerUnit_Side
100
AcDbSpline
210
0
220
0
230
1
 70
8
 71
3
 72
11
 73
7
 74
0
 40
0.000000000
 40
0.000000000
 40
0.000000000
 40
0.000000000
 40
0.500000000
 40
0.500000000
 40
0.500000000
 40
1.000000000
 40
1.000000000
 40
1.000000000
 40
1.000000000
 10
236.126109827
 20
211.957477803
 30
0.000000000
 10
235.778647136
 20
211.964427057
 30
0.000000000
 10
235.417996089
 20
211.971640080
 30
0.000000000
 10
235.064968571
 20
211.978700639
 30
0.000000000
 10
234.709979046
 20
211.985800447
 30
0.000000000
 10
234.354989520
 20
211.992900256
 30
0.000000000
 10
233.999999995
 20
212.000000064
 30
0.000000000
  0
SPLINE
  5
A3F
330
A02
100
AcDbEntity
  8
S09_PowerUnit_Side
100
AcDbSpline
210
0
220
0
230
1
 70
8
 71
3
 72
11
 73
7
 74
0
 40
0.000000000
 40
0.000000000
 40
0.000000000
 40
0.000000000
 40
0.500000000
 40
0.500000000
 40
0.500000000
 40
1.000000000
 40
1.000000000
 40
1.000000000
 40
1.000000000
 10
233.999999995
 20
196.999999936
 30
0.000000000
 10
234.354980102
 20
197.035497965
 30
0.000000000
 10
234.709960208
 20
197.070995993
 30
0.000000000
 10
235.064940315
 20
197.106494021
 30
0.000000000
 10
235.417976529
 20
197.141797652
 30
0.000000000
 10
235.778567759
 20
197.177856776
 30
0.000000000
 10
236.126086797
 20
197.212608680
 30
0.000000000
  0
SPLINE
  5
A40
330
A02
100
AcDbEntity
  8
S09_PowerUnit_Side
100
AcDbSpline
210
0
220
0
230
1
 70
8
 71
2
 72
8
 73
5
 74
0
 40
0.000000000
 40
0.000000000
 40
0.000000000
 40
0.500000000
 40
0.500000000
 40
1.000000000
 40
1.000000000
 40
1.000000000
 10
236.126086797
 20
197.212608680
 30
0.000000000
 10
236.124645067
 20
197.212464507
 30
0.000000000
 10
236.123203337
 20
197.212320334
 30
0.000000000
 10
235.062365806
 20
197.106236581
 30
0.000000000
 10
233.999999995
 20
197.000000000
 30
0.000000000
  0
LINE
  5
A41
330
A02
100
AcDbEntity
  8
S09_PowerUnit_Top
100
AcDbLine
 10
71.999999995
 20
97.500000000
 30
0.000000000
 11
71.999999995
 21
107.000000000
 31
0.000000000
  0
LINE
  5
A42
330
A02
100
AcDbEntity
  8
S09_PowerUnit_Top
100
AcDbLine
 10
71.999999995
 20
118.000000000
 30
0.000000000
 11
71.999999995
 21
127.500000000
 31
0.000000000
  0
LINE
  5
A43
330
A02
100
AcDbEntity
  8
S09_PowerUnit_Top
100
AcDbLine
 10
71.999999995
 20
97.500000000
 30
0.000000000
 11
73.999999995
 21
97.500000000
 31
0.000000000
  0
LINE
  5
A44
330
A02
100
AcDbEntity
  8
S09_PowerUnit_Top
100
AcDbLine
 10
125.999999995
 20
97.500000000
 30
0.000000000
 11
127.999999995
 21
97.500000000
 31
0.000000000
  0
LINE
  5
A45
330
A02
100
AcDbEntity
  8
S09_PowerUnit_Top
100
AcDbLine
 10
71.999999995
 20
127.500000000
 30
0.000000000
 11
73.999999995
 21
127.500000000
 31
0.000000000
  0
LINE
  5
A46
330
A02
100
AcDbEntity
  8
S09_PowerUnit_Top
100
AcDbLine
 10
125.999999995
 20
127.500000000
 30
0.000000000
 11
127.999999995
 21
127.500000000
 31
0.000000000
  0
LINE
  5
A47
330
A02
100
AcDbEntity
  8
S09_PowerUnit_Top
100
AcDbLine
 10
73.999999995
 20
91.993903346
 30
0.000000000
 11
73.999999995
 21
93.150757595
 31
0.000000000
  0
LINE
  5
A48
330
A02
100
AcDbEntity
  8
S09_PowerUnit_Top
100
AcDbLine
 10
73.999999995
 20
112.500000000
 30
0.000000000
 11
73.999999995
 21
103.307611845
 31
0.000000000
  0
LINE
  5
A49
330
A02
100
AcDbEntity
  8
S09_PowerUnit_Top
100
AcDbLine
 10
73.999999995
 20
103.307611845
 30
0.000000000
 11
125.999999995
 21
103.307611845
 31
0.000000000
  0
LINE
  5
A4A
330
A02
100
AcDbEntity
  8
S09_PowerUnit_Top
100
AcDbLine
 10
125.999999995
 20
91.993903346
 30
0.000000000
 11
125.999999995
 21
93.150757595
 31
0.000000000
  0
LINE
  5
A4B
330
A02
100
AcDbEntity
  8
S09_PowerUnit_Top
100
AcDbLine
 10
73.999999995
 20
91.993903346
 30
0.000000000
 11
80.096907412
 21
91.993903346
 31
0.000000000
  0
LINE
  5
A4C
330
A02
100
AcDbEntity
  8
S09_PowerUnit_Top
100
AcDbLine
 10
81.994700792
 20
91.993903346
 30
0.000000000
 11
98.096907412
 21
91.993903346
 31
0.000000000
  0
LINE
  5
A4D
330
A02
100
AcDbEntity
  8
S09_PowerUnit_Top
100
AcDbLine
 10
99.903400247
 20
91.993903346
 30
0.000000000
 11
116.096907412
 21
91.993903346
 31
0.000000000
  0
LINE
  5
A4E
330
A02
100
AcDbEntity
  8
S09_PowerUnit_Top
100
AcDbLine
 10
117.903092578
 20
91.993903346
 30
0.000000000
 11
125.999999995
 21
91.993903346
 31
0.000000000
  0
LINE
  5
A4F
330
A02
100
AcDbEntity
  8
S09_PowerUnit_Top
100
AcDbLine
 10
125.999999995
 20
112.500000000
 30
0.000000000
 11
125.999999995
 21
103.307611845
 31
0.000000000
  0
LINE
  5
A50
330
A02
100
AcDbEntity
  8
S09_PowerUnit_Top
100
AcDbLine
 10
125.999999995
 20
112.500000000
 30
0.000000000
 11
125.999999995
 21
121.692388155
 31
0.000000000
  0
LINE
  5
A51
330
A02
100
AcDbEntity
  8
S09_PowerUnit_Top
100
AcDbLine
 10
73.999999995
 20
121.692388155
 30
0.000000000
 11
125.999999995
 21
121.692388155
 31
0.000000000
  0
LINE
  5
A52
330
A02
100
AcDbEntity
  8
S09_PowerUnit_Top
100
AcDbLine
 10
73.999999995
 20
112.500000000
 30
0.000000000
 11
73.999999995
 21
121.692388155
 31
0.000000000
  0
LINE
  5
A53
330
A02
100
AcDbEntity
  8
S09_PowerUnit_Top
100
AcDbLine
 10
73.999999995
 20
131.849242405
 30
0.000000000
 11
73.999999995
 21
133.006096654
 31
0.000000000
  0
LINE
  5
A54
330
A02
100
AcDbEntity
  8
S09_PowerUnit_Top
100
AcDbLine
 10
125.999999995
 20
131.849242405
 30
0.000000000
 11
125.999999995
 21
133.006096654
 31
0.000000000
  0
LINE
  5
A55
330
A02
100
AcDbEntity
  8
S09_PowerUnit_Top
100
AcDbLine
 10
73.999999995
 20
133.006096654
 30
0.000000000
 11
80.096907412
 21
133.006096654
 31
0.000000000
  0
LINE
  5
A56
330
A02
100
AcDbEntity
  8
S09_PowerUnit_Top
100
AcDbLine
 10
81.994700792
 20
133.006096654
 30
0.000000000
 11
98.096907412
 21
133.006096654
 31
0.000000000
  0
LINE
  5
A57
330
A02
100
AcDbEntity
  8
S09_PowerUnit_Top
100
AcDbLine
 10
99.903400247
 20
133.006096654
 30
0.000000000
 11
116.096907412
 21
133.006096654
 31
0.000000000
  0
LINE
  5
A58
330
A02
100
AcDbEntity
  8
S09_PowerUnit_Top
100
AcDbLine
 10
117.903092578
 20
133.006096654
 30
0.000000000
 11
125.999999995
 21
133.006096654
 31
0.000000000
  0
SPLINE
  5
A59
330
A02
100
AcDbEntity
  8
S09_PowerUnit_Top
100
AcDbSpline
210
0
220
0
230
1
 70
8
 71
1
 72
17
 73
15
 74
0
 40
0.000000000
 40
0.000000000
 40
0.056099869
 40
0.112199738
 40
0.168299606
 40
0.224399475
 40
0.280499344
 40
0.336599213
 40
0.392699082
 40
0.448798951
 40
0.504898819
 40
0.560998688
 40
0.617098557
 40
0.673198426
 40
0.729298295
 40
0.785398163
 40
0.785398163
 10
125.999999995
 20
94.468777080
 30
0.000000000
 10
125.999999995
 20
94.295367853
 30
0.000000000
 10
125.999999995
 20
94.132515924
 30
0.000000000
 10
125.999999995
 20
93.980733685
 30
0.000000000
 10
125.999999995
 20
93.840498699
 30
0.000000000
 10
125.999999995
 20
93.712252196
 30
0.000000000
 10
125.999999995
 20
93.596397690
 30
0.000000000
 10
125.999999995
 20
93.493299699
 30
0.000000000
 10
125.999999995
 20
93.403282609
 30
0.000000000
 10
125.999999995
 20
93.326629646
 30
0.000000000
 10
125.999999995
 20
93.263581990
 30
0.000000000
 10
125.999999995
 20
93.214338012
 30
0.000000000
 10
125.999999995
 20
93.179052651
 30
0.000000000
 10
125.999999995
 20
93.157836928
 30
0.000000000
 10
125.999999995
 20
93.150757595
 30
0.000000000
  0
SPLINE
  5
A5A
330
A02
100
AcDbEntity
  8
S09_PowerUnit_Top
100
AcDbSpline
210
0
220
0
230
1
 70
8
 71
2
 72
30
 73
27
 74
0
 40
3.926990817
 40
3.926990817
 40
3.926990817
 40
4.095290423
 40
4.095290423
 40
4.263590030
 40
4.263590030
 40
4.431889636
 40
4.431889636
 40
4.600189243
 40
4.600189243
 40
4.768488849
 40
4.768488849
 40
4.936788456
 40
4.936788456
 40
5.105088062
 40
5.105088062
 40
5.273387669
 40
5.273387669
 40
5.609986881
 40
5.609986881
 40
5.778286488
 40
5.778286488
 40
5.946586094
 40
5.946586094
 40
6.114885701
 40
6.114885701
 40
6.283185307
 40
6.283185307
 40
6.283185307
 10
125.999999995
 20
102.150757595
 30
0.000000000
 10
125.999999995
 20
102.118967387
 30
0.000000000
 10
125.999999995
 20
102.087177178
 30
0.000000000
 10
125.999999995
 20
101.992704880
 30
0.000000000
 10
125.999999995
 20
101.898232581
 30
0.000000000
 10
125.999999995
 20
101.743747788
 30
0.000000000
 10
125.999999995
 20
101.589262994
 30
0.000000000
 10
125.999999995
 20
101.379131130
 30
0.000000000
 10
125.999999995
 20
101.168999266
 30
0.000000000
 10
125.999999995
 20
100.909158231
 30
0.000000000
 10
125.999999995
 20
100.649317196
 30
0.000000000
 10
125.999999995
 20
100.347109568
 30
0.000000000
 10
125.999999995
 20
100.044901939
 30
0.000000000
 10
125.999999995
 20
99.708867490
 30
0.000000000
 10
125.999999995
 20
99.372833041
 30
0.000000000
 10
125.999999995
 20
99.012467419
 30
0.000000000
 10
125.999999995
 20
98.652101798
 30
0.000000000
 10
125.999999995
 20
97.905073984
 30
0.000000000
 10
125.999999995
 20
97.146917453
 30
0.000000000
 10
125.999999995
 20
96.775957623
 30
0.000000000
 10
125.999999995
 20
96.404997794
 30
0.000000000
 10
125.999999995
 20
96.051639281
 30
0.000000000
 10
125.999999995
 20
95.698280769
 30
0.000000000
 10
125.999999995
 20
95.372508766
 30
0.000000000
 10
125.999999995
 20
95.046736762
 30
0.000000000
 10
125.999999995
 20
94.757756921
 30
0.000000000
 10
125.999999995
 20
94.468777080
 30
0.000000000
  0
SPLINE
  5
A5B
330
A02
100
AcDbEntity
  8
S09_PowerUnit_Top
100
AcDbSpline
210
0
220
0
230
1
 70
8
 71
1
 72
17
 73
15
 74
0
 40
0.000000000
 40
0.000000000
 40
0.056099869
 40
0.112199738
 40
0.168299606
 40
0.224399475
 40
0.280499344
 40
0.336599213
 40
0.392699082
 40
0.448798951
 40
0.504898819
 40
0.560998688
 40
0.617098557
 40
0.673198426
 40
0.729298295
 40
0.785398163
 40
0.785398163
 10
73.999999995
 20
94.468777080
 30
0.000000000
 10
73.999999995
 20
94.295367853
 30
0.000000000
 10
73.999999995
 20
94.132515924
 30
0.000000000
 10
73.999999995
 20
93.980733685
 30
0.000000000
 10
73.999999995
 20
93.840498699
 30
0.000000000
 10
73.999999995
 20
93.712252196
 30
0.000000000
 10
73.999999995
 20
93.596397690
 30
0.000000000
 10
73.999999995
 20
93.493299699
 30
0.000000000
 10
73.999999995
 20
93.403282609
 30
0.000000000
 10
73.999999995
 20
93.326629646
 30
0.000000000
 10
73.999999995
 20
93.263581990
 30
0.000000000
 10
73.999999995
 20
93.214338012
 30
0.000000000
 10
73.999999995
 20
93.179052651
 30
0.000000000
 10
73.999999995
 20
93.157836928
 30
0.000000000
 10
73.999999995
 20
93.150757595
 30
0.000000000
  0
SPLINE
  5
A5C
330
A02
100
AcDbEntity
  8
S09_PowerUnit_Top
100
AcDbSpline
210
0
220
0
230
1
 70
8
 71
2
 72
30
 73
27
 74
0
 40
3.926990817
 40
3.926990817
 40
3.926990817
 40
4.095290423
 40
4.095290423
 40
4.263590030
 40
4.263590030
 40
4.431889636
 40
4.431889636
 40
4.600189243
 40
4.600189243
 40
4.768488849
 40
4.768488849
 40
4.936788456
 40
4.936788456
 40
5.105088062
 40
5.105088062
 40
5.273387669
 40
5.273387669
 40
5.609986881
 40
5.609986881
 40
5.778286488
 40
5.778286488
 40
5.946586094
 40
5.946586094
 40
6.114885701
 40
6.114885701
 40
6.283185307
 40
6.283185307
 40
6.283185307
 10
73.999999995
 20
102.150757595
 30
0.000000000
 10
73.999999995
 20
102.118967387
 30
0.000000000
 10
73.999999995
 20
102.087177178
 30
0.000000000
 10
73.999999995
 20
101.992704880
 30
0.000000000
 10
73.999999995
 20
101.898232581
 30
0.000000000
 10
73.999999995
 20
101.743747788
 30
0.000000000
 10
73.999999995
 20
101.589262994
 30
0.000000000
 10
73.999999995
 20
101.379131130
 30
0.000000000
 10
73.999999995
 20
101.168999266
 30
0.000000000
 10
73.999999995
 20
100.909158231
 30
0.000000000
 10
73.999999995
 20
100.649317196
 30
0.000000000
 10
73.999999995
 20
100.347109568
 30
0.000000000
 10
73.999999995
 20
100.044901939
 30
0.000000000
 10
73.999999995
 20
99.708867490
 30
0.000000000
 10
73.999999995
 20
99.372833041
 30
0.000000000
 10
73.999999995
 20
99.012467419
 30
0.000000000
 10
73.999999995
 20
98.652101798
 30
0.000000000
 10
73.999999995
 20
97.905073984
 30
0.000000000
 10
73.999999995
 20
97.146917453
 30
0.000000000
 10
73.999999995
 20
96.775957623
 30
0.000000000
 10
73.999999995
 20
96.404997794
 30
0.000000000
 10
73.999999995
 20
96.051639281
 30
0.000000000
 10
73.999999995
 20
95.698280769
 30
0.000000000
 10
73.999999995
 20
95.372508766
 30
0.000000000
 10
73.999999995
 20
95.046736762
 30
0.000000000
 10
73.999999995
 20
94.757756921
 30
0.000000000
 10
73.999999995
 20
94.468777080
 30
0.000000000
  0
SPLINE
  5
A5D
330
A02
100
AcDbEntity
  8
S09_PowerUnit_Top
100
AcDbSpline
210
0
220
0
230
1
 70
8
 71
1
 72
17
 73
15
 74
0
 40
0.000000000
 40
0.000000000
 40
0.168299606
 40
0.336599213
 40
0.504898819
 40
0.673198426
 40
0.841498032
 40
1.009797639
 40
1.178097245
 40
1.346396852
 40
1.514696458
 40
1.682996064
 40
1.851295671
 40
2.019595277
 40
2.187894884
 40
2.356194490
 40
2.356194490
 10
125.999999995
 20
130.531222920
 30
0.000000000
 10
125.999999995
 20
129.953263238
 30
0.000000000
 10
125.999999995
 20
129.301719231
 30
0.000000000
 10
125.999999995
 20
128.595002206
 30
0.000000000
 10
125.999999995
 20
127.853082547
 30
0.000000000
 10
125.999999995
 20
127.096925392
 30
0.000000000
 10
125.999999995
 20
126.347898202
 30
0.000000000
 10
125.999999995
 20
125.627166959
 30
0.000000000
 10
125.999999995
 20
124.955098061
 30
0.000000000
 10
125.999999995
 20
124.350682804
 30
0.000000000
 10
125.999999995
 20
123.831000734
 30
0.000000000
 10
125.999999995
 20
123.410737006
 30
0.000000000
 10
125.999999995
 20
123.101767419
 30
0.000000000
 10
125.999999995
 20
122.912822822
 30
0.000000000
 10
125.999999995
 20
122.849242405
 30
0.000000000
  0
SPLINE
  5
A5E
330
A02
100
AcDbEntity
  8
S09_PowerUnit_Top
100
AcDbSpline
210
0
220
0
230
1
 70
8
 71
1
 72
17
 73
15
 74
0
 40
5.497787144
 40
5.497787144
 40
5.553887013
 40
5.609986881
 40
5.666086750
 40
5.722186619
 40
5.778286488
 40
5.834386357
 40
5.890486225
 40
5.946586094
 40
6.002685963
 40
6.058785832
 40
6.114885701
 40
6.170985570
 40
6.227085438
 40
6.283185307
 40
6.283185307
 10
125.999999995
 20
131.849242405
 30
0.000000000
 10
125.999999995
 20
131.842163072
 30
0.000000000
 10
125.999999995
 20
131.820947349
 30
0.000000000
 10
125.999999995
 20
131.785661988
 30
0.000000000
 10
125.999999995
 20
131.736418010
 30
0.000000000
 10
125.999999995
 20
131.673370354
 30
0.000000000
 10
125.999999995
 20
131.596717391
 30
0.000000000
 10
125.999999995
 20
131.506700301
 30
0.000000000
 10
125.999999995
 20
131.403602310
 30
0.000000000
 10
125.999999995
 20
131.287747804
 30
0.000000000
 10
125.999999995
 20
131.159501301
 30
0.000000000
 10
125.999999995
 20
131.019266315
 30
0.000000000
 10
125.999999995
 20
130.867484076
 30
0.000000000
 10
125.999999995
 20
130.704632147
 30
0.000000000
 10
125.999999995
 20
130.531222920
 30
0.000000000
  0
SPLINE
  5
A5F
330
A02
100
AcDbEntity
  8
S09_PowerUnit_Top
100
AcDbSpline
210
0
220
0
230
1
 70
8
 71
1
 72
17
 73
15
 74
0
 40
0.000000000
 40
0.000000000
 40
0.168299606
 40
0.336599213
 40
0.504898819
 40
0.673198426
 40
0.841498032
 40
1.009797639
 40
1.178097245
 40
1.346396852
 40
1.514696458
 40
1.682996064
 40
1.851295671
 40
2.019595277
 40
2.187894884
 40
2.356194490
 40
2.356194490
 10
73.999999995
 20
130.531222920
 30
0.000000000
 10
73.999999995
 20
129.953263238
 30
0.000000000
 10
73.999999995
 20
129.301719231
 30
0.000000000
 10
73.999999995
 20
128.595002206
 30
0.000000000
 10
73.999999995
 20
127.853082547
 30
0.000000000
 10
73.999999995
 20
127.096925392
 30
0.000000000
 10
73.999999995
 20
126.347898202
 30
0.000000000
 10
73.999999995
 20
125.627166959
 30
0.000000000
 10
73.999999995
 20
124.955098061
 30
0.000000000
 10
73.999999995
 20
124.350682804
 30
0.000000000
 10
73.999999995
 20
123.831000734
 30
0.000000000
 10
73.999999995
 20
123.410737006
 30
0.000000000
 10
73.999999995
 20
123.101767419
 30
0.000000000
 10
73.999999995
 20
122.912822822
 30
0.000000000
 10
73.999999995
 20
122.849242405
 30
0.000000000
  0
SPLINE
  5
A60
330
A02
100
AcDbEntity
  8
S09_PowerUnit_Top
100
AcDbSpline
210
0
220
0
230
1
 70
8
 71
1
 72
17
 73
15
 74
0
 40
5.497787144
 40
5.497787144
 40
5.553887013
 40
5.609986881
 40
5.666086750
 40
5.722186619
 40
5.778286488
 40
5.834386357
 40
5.890486225
 40
5.946586094
 40
6.002685963
 40
6.058785832
 40
6.114885701
 40
6.170985570
 40
6.227085438
 40
6.283185307
 40
6.283185307
 10
73.999999995
 20
131.849242405
 30
0.000000000
 10
73.999999995
 20
131.842163072
 30
0.000000000
 10
73.999999995
 20
131.820947349
 30
0.000000000
 10
73.999999995
 20
131.785661988
 30
0.000000000
 10
73.999999995
 20
131.736418010
 30
0.000000000
 10
73.999999995
 20
131.673370354
 30
0.000000000
 10
73.999999995
 20
131.596717391
 30
0.000000000
 10
73.999999995
 20
131.506700301
 30
0.000000000
 10
73.999999995
 20
131.403602310
 30
0.000000000
 10
73.999999995
 20
131.287747804
 30
0.000000000
 10
73.999999995
 20
131.159501301
 30
0.000000000
 10
73.999999995
 20
131.019266315
 30
0.000000000
 10
73.999999995
 20
130.867484076
 30
0.000000000
 10
73.999999995
 20
130.704632147
 30
0.000000000
 10
73.999999995
 20
130.531222920
 30
0.000000000
  0
SPLINE
  5
A61
330
A02
100
AcDbEntity
  8
S09_PowerUnit_Top
100
AcDbSpline
210
0
220
0
230
1
 70
8
 71
1
 72
17
 73
15
 74
0
 40
0.000000000
 40
0.000000000
 40
0.112199738
 40
0.224399475
 40
0.336599213
 40
0.448798951
 40
0.560998688
 40
0.673198426
 40
0.785398163
 40
0.897597901
 40
1.009797639
 40
1.121997376
 40
1.234197114
 40
1.346396852
 40
1.458596589
 40
1.570796327
 40
1.570796327
 10
70.999999995
 20
112.500000000
 30
0.000000000
 10
70.999999995
 20
111.268390763
 30
0.000000000
 10
70.999999995
 20
110.052269726
 30
0.000000000
 10
70.999999995
 20
108.866930318
 30
0.000000000
 10
70.999999995
 20
107.727278870
 30
0.000000000
 10
70.999999995
 20
106.647647158
 30
0.000000000
 10
70.999999995
 20
105.641612180
 30
0.000000000
 10
70.999999995
 20
104.721825407
 30
0.000000000
 10
70.999999995
 20
103.899853693
 30
0.000000000
 10
70.999999995
 20
103.186033808
 30
0.000000000
 10
70.999999995
 20
102.589342453
 30
0.000000000
 10
70.999999995
 20
102.117283367
 30
0.000000000
 10
70.999999995
 20
101.775792966
 30
0.000000000
 10
70.999999995
 20
101.569165691
 30
0.000000000
 10
70.999999995
 20
101.500000000
 30
0.000000000
  0
SPLINE
  5
A62
330
A02
100
AcDbEntity
  8
S09_PowerUnit_Top
100
AcDbSpline
210
0
220
0
230
1
 70
8
 71
1
 72
17
 73
15
 74
0
 40
4.712388980
 40
4.712388980
 40
4.824588718
 40
4.936788456
 40
5.048988193
 40
5.161187931
 40
5.273387669
 40
5.385587406
 40
5.497787144
 40
5.609986881
 40
5.722186619
 40
5.834386357
 40
5.946586094
 40
6.058785832
 40
6.170985570
 40
6.283185307
 40
6.283185307
 10
70.999999995
 20
123.500000000
 30
0.000000000
 10
70.999999995
 20
123.430834309
 30
0.000000000
 10
70.999999995
 20
123.224207034
 30
0.000000000
 10
70.999999995
 20
122.882716633
 30
0.000000000
 10
70.999999995
 20
122.410657547
 30
0.000000000
 10
70.999999995
 20
121.813966192
 30
0.000000000
 10
70.999999995
 20
121.100146307
 30
0.000000000
 10
70.999999995
 20
120.278174593
 30
0.000000000
 10
70.999999995
 20
119.358387820
 30
0.000000000
 10
70.999999995
 20
118.352352842
 30
0.000000000
 10
70.999999995
 20
117.272721130
 30
0.000000000
 10
70.999999995
 20
116.133069682
 30
0.000000000
 10
70.999999995
 20
114.947730274
 30
0.000000000
 10
70.999999995
 20
113.731609237
 30
0.000000000
 10
70.999999995
 20
112.500000000
 30
0.000000000
  0
SPLINE
  5
A63
330
A02
100
AcDbEntity
  8
S09_PowerUnit_Top
100
AcDbSpline
210
0
220
0
230
1
 70
8
 71
1
 72
17
 73
15
 74
0
 40
0.000000000
 40
0.000000000
 40
0.112199738
 40
0.224399475
 40
0.336599213
 40
0.448798951
 40
0.560998688
 40
0.673198426
 40
0.785398163
 40
0.897597901
 40
1.009797639
 40
1.121997376
 40
1.234197114
 40
1.346396852
 40
1.458596589
 40
1.570796327
 40
1.570796327
 10
59.999999995
 20
112.500000000
 30
0.000000000
 10
59.999999995
 20
111.268390763
 30
0.000000000
 10
59.999999995
 20
110.052269726
 30
0.000000000
 10
59.999999995
 20
108.866930318
 30
0.000000000
 10
59.999999995
 20
107.727278870
 30
0.000000000
 10
59.999999995
 20
106.647647158
 30
0.000000000
 10
59.999999995
 20
105.641612180
 30
0.000000000
 10
59.999999995
 20
104.721825407
 30
0.000000000
 10
59.999999995
 20
103.899853693
 30
0.000000000
 10
59.999999995
 20
103.186033808
 30
0.000000000
 10
59.999999995
 20
102.589342453
 30
0.000000000
 10
59.999999995
 20
102.117283367
 30
0.000000000
 10
59.999999995
 20
101.775792966
 30
0.000000000
 10
59.999999995
 20
101.569165691
 30
0.000000000
 10
59.999999995
 20
101.500000000
 30
0.000000000
  0
SPLINE
  5
A64
330
A02
100
AcDbEntity
  8
S09_PowerUnit_Top
100
AcDbSpline
210
0
220
0
230
1
 70
8
 71
1
 72
17
 73
15
 74
0
 40
4.712388980
 40
4.712388980
 40
4.824588718
 40
4.936788456
 40
5.048988193
 40
5.161187931
 40
5.273387669
 40
5.385587406
 40
5.497787144
 40
5.609986881
 40
5.722186619
 40
5.834386357
 40
5.946586094
 40
6.058785832
 40
6.170985570
 40
6.283185307
 40
6.283185307
 10
59.999999995
 20
123.500000000
 30
0.000000000
 10
59.999999995
 20
123.430834309
 30
0.000000000
 10
59.999999995
 20
123.224207034
 30
0.000000000
 10
59.999999995
 20
122.882716633
 30
0.000000000
 10
59.999999995
 20
122.410657547
 30
0.000000000
 10
59.999999995
 20
121.813966192
 30
0.000000000
 10
59.999999995
 20
121.100146307
 30
0.000000000
 10
59.999999995
 20
120.278174593
 30
0.000000000
 10
59.999999995
 20
119.358387820
 30
0.000000000
 10
59.999999995
 20
118.352352842
 30
0.000000000
 10
59.999999995
 20
117.272721130
 30
0.000000000
 10
59.999999995
 20
116.133069682
 30
0.000000000
 10
59.999999995
 20
114.947730274
 30
0.000000000
 10
59.999999995
 20
113.731609237
 30
0.000000000
 10
59.999999995
 20
112.500000000
 30
0.000000000
  0
SPLINE
  5
A65
330
A02
100
AcDbEntity
  8
S09_PowerUnit_Top
100
AcDbSpline
210
0
220
0
230
1
 70
8
 71
1
 72
17
 73
15
 74
0
 40
0.000000000
 40
0.000000000
 40
0.112199738
 40
0.224399475
 40
0.336599213
 40
0.448798951
 40
0.560998688
 40
0.673198426
 40
0.785398163
 40
0.897597901
 40
1.009797639
 40
1.121997376
 40
1.234197114
 40
1.346396852
 40
1.458596589
 40
1.570796327
 40
1.570796327
 10
139.999999995
 20
112.500000000
 30
0.000000000
 10
139.999999995
 20
111.324373001
 30
0.000000000
 10
139.999999995
 20
110.163530193
 30
0.000000000
 10
139.999999995
 20
109.032069849
 30
0.000000000
 10
139.999999995
 20
107.944220739
 30
0.000000000
 10
139.999999995
 20
106.913663197
 30
0.000000000
 10
139.999999995
 20
105.953357080
 30
0.000000000
 10
139.999999995
 20
105.075378798
 30
0.000000000
 10
139.999999995
 20
104.290769434
 30
0.000000000
 10
139.999999995
 20
103.609395908
 30
0.000000000
 10
139.999999995
 20
103.039826887
 30
0.000000000
 10
139.999999995
 20
102.589225032
 30
0.000000000
 10
139.999999995
 20
102.263256922
 30
0.000000000
 10
139.999999995
 20
102.066021796
 30
0.000000000
 10
139.999999995
 20
102.000000000
 30
0.000000000
  0
SPLINE
  5
A66
330
A02
100
AcDbEntity
  8
S09_PowerUnit_Top
100
AcDbSpline
210
0
220
0
230
1
 70
8
 71
1
 72
17
 73
15
 74
0
 40
4.712388980
 40
4.712388980
 40
4.824588718
 40
4.936788456
 40
5.048988193
 40
5.161187931
 40
5.273387669
 40
5.385587406
 40
5.497787144
 40
5.609986881
 40
5.722186619
 40
5.834386357
 40
5.946586094
 40
6.058785832
 40
6.170985570
 40
6.283185307
 40
6.283185307
 10
139.999999995
 20
123.000000000
 30
0.000000000
 10
139.999999995
 20
122.933978204
 30
0.000000000
 10
139.999999995
 20
122.736743078
 30
0.000000000
 10
139.999999995
 20
122.410774968
 30
0.000000000
 10
139.999999995
 20
121.960173113
 30
0.000000000
 10
139.999999995
 20
121.390604092
 30
0.000000000
 10
139.999999995
 20
120.709230566
 30
0.000000000
 10
139.999999995
 20
119.924621202
 30
0.000000000
 10
139.999999995
 20
119.046642920
 30
0.000000000
 10
139.999999995
 20
118.086336803
 30
0.000000000
 10
139.999999995
 20
117.055779261
 30
0.000000000
 10
139.999999995
 20
115.967930151
 30
0.000000000
 10
139.999999995
 20
114.836469807
 30
0.000000000
 10
139.999999995
 20
113.675626999
 30
0.000000000
 10
139.999999995
 20
112.500000000
 30
0.000000000
  0
SPLINE
  5
A67
330
A02
100
AcDbEntity
  8
S09_PowerUnit_Top
100
AcDbSpline
210
0
220
0
230
1
 70
8
 71
1
 72
17
 73
15
 74
0
 40
0.000000000
 40
0.000000000
 40
0.112199738
 40
0.224399475
 40
0.336599213
 40
0.448798951
 40
0.560998688
 40
0.673198426
 40
0.785398163
 40
0.897597901
 40
1.009797639
 40
1.121997376
 40
1.234197114
 40
1.346396852
 40
1.458596589
 40
1.570796327
 40
1.570796327
 10
128.999999995
 20
112.500000000
 30
0.000000000
 10
128.999999995
 20
111.324373001
 30
0.000000000
 10
128.999999995
 20
110.163530193
 30
0.000000000
 10
128.999999995
 20
109.032069849
 30
0.000000000
 10
128.999999995
 20
107.944220739
 30
0.000000000
 10
128.999999995
 20
106.913663197
 30
0.000000000
 10
128.999999995
 20
105.953357080
 30
0.000000000
 10
128.999999995
 20
105.075378798
 30
0.000000000
 10
128.999999995
 20
104.290769434
 30
0.000000000
 10
128.999999995
 20
103.609395908
 30
0.000000000
 10
128.999999995
 20
103.039826887
 30
0.000000000
 10
128.999999995
 20
102.589225032
 30
0.000000000
 10
128.999999995
 20
102.263256922
 30
0.000000000
 10
128.999999995
 20
102.066021796
 30
0.000000000
 10
128.999999995
 20
102.000000000
 30
0.000000000
  0
SPLINE
  5
A68
330
A02
100
AcDbEntity
  8
S09_PowerUnit_Top
100
AcDbSpline
210
0
220
0
230
1
 70
8
 71
1
 72
17
 73
15
 74
0
 40
4.712388980
 40
4.712388980
 40
4.824588718
 40
4.936788456
 40
5.048988193
 40
5.161187931
 40
5.273387669
 40
5.385587406
 40
5.497787144
 40
5.609986881
 40
5.722186619
 40
5.834386357
 40
5.946586094
 40
6.058785832
 40
6.170985570
 40
6.283185307
 40
6.283185307
 10
128.999999995
 20
123.000000000
 30
0.000000000
 10
128.999999995
 20
122.933978204
 30
0.000000000
 10
128.999999995
 20
122.736743078
 30
0.000000000
 10
128.999999995
 20
122.410774968
 30
0.000000000
 10
128.999999995
 20
121.960173113
 30
0.000000000
 10
128.999999995
 20
121.390604092
 30
0.000000000
 10
128.999999995
 20
120.709230566
 30
0.000000000
 10
128.999999995
 20
119.924621202
 30
0.000000000
 10
128.999999995
 20
119.046642920
 30
0.000000000
 10
128.999999995
 20
118.086336803
 30
0.000000000
 10
128.999999995
 20
117.055779261
 30
0.000000000
 10
128.999999995
 20
115.967930151
 30
0.000000000
 10
128.999999995
 20
114.836469807
 30
0.000000000
 10
128.999999995
 20
113.675626999
 30
0.000000000
 10
128.999999995
 20
112.500000000
 30
0.000000000
  0
SPLINE
  5
A69
330
A02
100
AcDbEntity
  8
S09_PowerUnit_Top
100
AcDbSpline
210
0
220
0
230
1
 70
8
 71
1
 72
17
 73
15
 74
0
 40
1.570796327
 40
1.570796327
 40
1.795195802
 40
2.019595277
 40
2.243994753
 40
2.468394228
 40
2.692793703
 40
2.917193178
 40
3.141592654
 40
3.365992129
 40
3.590391604
 40
3.814791079
 40
4.039190555
 40
4.263590030
 40
4.487989505
 40
4.712388980
 40
4.712388980
 10
89.999999995
 20
86.500000000
 30
0.000000000
 10
89.849567468
 20
86.500000000
 30
0.000000000
 10
89.405813202
 20
86.500000000
 30
0.000000000
 10
88.690988890
 20
86.500000000
 30
0.000000000
 10
87.740938806
 20
86.500000000
 30
0.000000000
 10
86.603302430
 20
86.500000000
 30
0.000000000
 10
85.335125599
 20
86.500000000
 30
0.000000000
 10
83.999999995
 20
86.500000000
 30
0.000000000
 10
82.664874391
 20
86.500000000
 30
0.000000000
 10
81.396697560
 20
86.500000000
 30
0.000000000
 10
80.259061184
 20
86.500000000
 30
0.000000000
 10
79.309011100
 20
86.500000000
 30
0.000000000
 10
78.594186788
 20
86.500000000
 30
0.000000000
 10
78.150432522
 20
86.500000000
 30
0.000000000
 10
77.999999995
 20
86.500000000
 30
0.000000000
  0
LINE
  5
A6A
330
A02
100
AcDbEntity
  8
S09_PowerUnit_Top
100
AcDbLine
 10
15.999999995
 20
91.500000000
 30
0.000000000
 11
15.999999995
 21
133.500000000
 31
0.000000000
  0
LINE
  5
A6B
330
A02
100
AcDbEntity
  8
S09_PowerUnit_Top
100
AcDbLine
 10
58.999999995
 20
91.500000000
 30
0.000000000
 11
58.999999995
 21
133.500000000
 31
0.000000000
  0
LINE
  5
A6C
330
A02
100
AcDbEntity
  8
S09_PowerUnit_Top
100
AcDbLine
 10
15.999999995
 20
91.500000000
 30
0.000000000
 11
58.999999995
 21
91.500000000
 31
0.000000000
  0
LINE
  5
A6D
330
A02
100
AcDbEntity
  8
S09_PowerUnit_Top
100
AcDbLine
 10
15.999999995
 20
133.500000000
 30
0.000000000
 11
58.999999995
 21
133.500000000
 31
0.000000000
  0
LINE
  5
A6E
330
A02
100
AcDbEntity
  8
S09_PowerUnit_Top
100
AcDbLine
 10
125.999999995
 20
108.884612877
 30
0.000000000
 11
127.999999995
 21
109.444612877
 31
0.000000000
  0
SPLINE
  5
A6F
330
A02
100
AcDbEntity
  8
S09_PowerUnit_Top
100
AcDbSpline
210
0
220
0
230
1
 70
8
 71
2
 72
6
 73
3
 74
0
 40
1.639007003
 40
1.639007003
 40
1.639007003
 40
1.742026323
 40
1.742026323
 40
1.742026323
 10
128.999999995
 20
107.672373157
 30
0.000000000
 10
127.490744535
 20
107.132607097
 30
0.000000000
 10
125.999999995
 20
106.597416434
 30
0.000000000
  0
ELLIPSE
  5
A70
330
A02
100
AcDbEntity
  8
S09_PowerUnit_Top
100
AcDbEllipse
 10
80.999999995
 20
94.000000000
 30
0.000000000
 11
0.593185836
 21
-2.118520843
 31
0.000000000
 40
0.048092488
 41
-0.000000000
 42
-4.725854063
  0
SPLINE
  5
A71
330
A02
100
AcDbEntity
  8
S09_PowerUnit_Top
100
AcDbSpline
210
0
220
0
230
1
 70
8
 71
3
 72
8
 73
4
 74
0
 40
1.778437618
 40
1.778437618
 40
1.778437618
 40
1.778437618
 40
2.112248604
 40
2.112248604
 40
2.112248604
 40
2.112248604
 10
128.999999995
 20
107.014853594
 30
0.000000000
 10
127.943682792
 20
106.285777885
 30
0.000000000
 10
126.925411307
 20
105.575574432
 30
0.000000000
 10
125.999999995
 20
104.922474114
 30
0.000000000
  0
ELLIPSE
  5
A72
330
A02
100
AcDbEntity
  8
S09_PowerUnit_Top
100
AcDbEllipse
 10
98.999999995
 20
94.000000000
 30
0.000000000
 11
0.881801435
 21
-2.015546137
 31
0.000000000
 40
0.071392156
 41
-0.000000000
 42
-4.743612898
  0
ELLIPSE
  5
A73
330
A02
100
AcDbEntity
  8
S09_PowerUnit_Top
100
AcDbEllipse
 10
116.999999995
 20
94.000000000
 30
0.000000000
 11
1.555634919
 21
-1.555634919
 31
0.000000000
 40
0.125274338
 41
-0.000000000
 42
-4.837014083
  0
LINE
  5
A74
330
A02
100
AcDbEntity
  8
S09_PowerUnit_Top
100
AcDbLine
 10
125.999999995
 20
99.888730163
 30
0.000000000
 11
128.999999995
 21
102.888730163
 31
0.000000000
  0
ELLIPSE
  5
A75
330
A02
100
AcDbEntity
  8
S09_PowerUnit_Top
100
AcDbEllipse
 10
80.999999995
 20
131.000000000
 30
0.000000000
 11
-0.593185836
 21
-2.118520843
 31
0.000000000
 40
0.048092488
 41
-4.698923898
 42
-3.141592654
  0
LINE
  5
A76
330
A02
100
AcDbEntity
  8
S09_PowerUnit_Top
100
AcDbLine
 10
81.593185831
 20
133.118520843
 30
0.000000000
 11
101.247954649
 21
127.615185574
 31
0.000000000
  0
SPLINE
  5
A77
330
A02
100
AcDbEntity
  8
S09_PowerUnit_Top
100
AcDbSpline
210
0
220
0
230
1
 70
8
 71
2
 72
6
 73
3
 74
0
 40
4.541158985
 40
4.541158985
 40
4.541158985
 40
4.644178304
 40
4.644178304
 40
4.644178304
 10
125.999999995
 20
118.402583566
 30
0.000000000
 10
127.490744535
 20
117.867392903
 30
0.000000000
 10
128.999999995
 20
117.327626843
 30
0.000000000
  0
ELLIPSE
  5
A78
330
A02
100
AcDbEntity
  8
S09_PowerUnit_Top
100
AcDbEllipse
 10
98.999999995
 20
131.000000000
 30
0.000000000
 11
-0.881801435
 21
-2.015546137
 31
0.000000000
 40
0.071392156
 41
-4.681165063
 42
-3.141592654
  0
LINE
  5
A79
330
A02
100
AcDbEntity
  8
S09_PowerUnit_Top
100
AcDbLine
 10
99.881801430
 20
133.015546137
 30
0.000000000
 11
121.199814925
 21
123.688915233
 31
0.000000000
  0
SPLINE
  5
A7A
330
A02
100
AcDbEntity
  8
S09_PowerUnit_Top
100
AcDbSpline
210
0
220
0
230
1
 70
8
 71
3
 72
8
 73
4
 74
0
 40
4.170936703
 40
4.170936703
 40
4.170936703
 40
4.170936703
 40
4.504747689
 40
4.504747689
 40
4.504747689
 40
4.504747689
 10
125.999999995
 20
120.077525886
 30
0.000000000
 10
126.925411307
 20
119.424425568
 30
0.000000000
 10
127.943682792
 20
118.714222115
 30
0.000000000
 10
128.999999995
 20
117.985146406
 30
0.000000000
  0
ELLIPSE
  5
A7B
330
A02
100
AcDbEntity
  8
S09_PowerUnit_Top
100
AcDbEllipse
 10
116.999999995
 20
131.000000000
 30
0.000000000
 11
-1.555634919
 21
-1.555634919
 31
0.000000000
 40
0.125274338
 41
-4.587763878
 42
-3.141592654
  0
SPLINE
  5
A7C
330
A02
100
AcDbEntity
  8
S09_PowerUnit_Top
100
AcDbSpline
210
0
220
0
230
1
 70
8
 71
3
 72
17
 73
13
 74
0
 40
0.000000000
 40
0.000000000
 40
0.000000000
 40
0.000000000
 40
0.079926329
 40
0.079926329
 40
0.079926329
 40
0.097412265
 40
0.097412265
 40
0.097412265
 40
0.114666251
 40
0.114666251
 40
0.114666251
 40
0.149691695
 40
0.149691695
 40
0.149691695
 40
0.149691695
 10
127.999999995
 20
129.500000000
 30
0.000000000
 10
127.999999995
 20
129.447342783
 30
0.000000000
 10
127.999999995
 20
129.630722461
 30
0.000000000
 10
127.999999995
 20
128.553484583
 30
0.000000000
 10
127.999999995
 20
128.318290193
 30
0.000000000
 10
127.999999995
 20
128.018958004
 30
0.000000000
 10
127.999999995
 20
127.655488018
 30
0.000000000
 10
127.999999995
 20
127.294160149
 30
0.000000000
 10
127.999999995
 20
126.876509112
 30
0.000000000
 10
127.999999995
 20
126.402534905
 30
0.000000000
 10
127.999999995
 20
125.444064129
 30
0.000000000
 10
127.999999995
 20
124.297971993
 30
0.000000000
 10
127.999999995
 20
123.111269837
 30
0.000000000
  0
SPLINE
  5
A7D
330
A02
100
AcDbEntity
  8
S09_PowerUnit_Top
100
AcDbSpline
210
0
220
0
230
1
 70
8
 71
3
 72
8
 73
4
 74
0
 40
0.201318416
 40
0.201318416
 40
0.201318416
 40
0.201318416
 40
0.298681585
 40
0.298681585
 40
0.298681585
 40
0.298681585
 10
127.999999995
 20
117.685487430
 30
0.000000000
 10
127.999999995
 20
114.232731550
 30
0.000000000
 10
127.999999995
 20
110.767268445
 30
0.000000000
 10
127.999999995
 20
107.314512570
 30
0.000000000
  0
SPLINE
  5
A7E
330
A02
100
AcDbEntity
  8
S09_PowerUnit_Top
100
AcDbSpline
210
0
220
0
230
1
 70
8
 71
3
 72
20
 73
16
 74
0
 40
0.350308305
 40
0.350308305
 40
0.350308305
 40
0.350308305
 40
0.385333749
 40
0.385333749
 40
0.385333749
 40
0.402587735
 40
0.402587735
 40
0.402587735
 40
0.420073671
 40
0.420073671
 40
0.420073671
 40
0.455851258
 40
0.455851258
 40
0.455851258
 40
0.490646176
 40
0.490646176
 40
0.490646176
 40
0.490646176
 10
127.999999995
 20
101.888730163
 30
0.000000000
 10
127.999999995
 20
100.702019416
 30
0.000000000
 10
127.999999995
 20
99.555947088
 30
0.000000000
 10
127.999999995
 20
98.597464332
 30
0.000000000
 10
127.999999995
 20
98.123465555
 30
0.000000000
 10
127.999999995
 20
97.705820130
 30
0.000000000
 10
127.999999995
 20
97.344528055
 30
0.000000000
 10
127.999999995
 20
96.981152176
 30
0.000000000
 10
127.999999995
 20
96.681777714
 30
0.000000000
 10
127.999999995
 20
96.446404671
 30
0.000000000
 10
127.999999995
 20
95.962390722
 30
0.000000000
 10
127.999999995
 20
95.738313848
 30
0.000000000
 10
127.999999995
 20
95.623430486
 30
0.000000000
 10
127.999999995
 20
95.511045182
 30
0.000000000
 10
127.999999995
 20
95.499139606
 30
0.000000000
 10
127.999999995
 20
95.499139606
 30
0.000000000
  0
SPLINE
  5
A7F
330
A02
100
AcDbEntity
  8
S09_PowerUnit_Top
100
AcDbSpline
210
0
220
0
230
1
 70
8
 71
1
 72
4
 73
2
 74
0
 40
0.490646176
 40
0.490646176
 40
0.500000000
 40
0.500000000
 10
127.999999995
 20
95.499139606
 30
0.000000000
 10
127.999999995
 20
95.500000000
 30
0.000000000
  0
SPLINE
  5
A80
330
A02
100
AcDbEntity
  8
S09_PowerUnit_Top
100
AcDbSpline
210
0
220
0
230
1
 70
8
 71
1
 72
4
 73
2
 74
0
 40
0.500000000
 40
0.500000000
 40
0.509353824
 40
0.509353824
 10
127.999999995
 20
95.500000000
 30
0.000000000
 10
127.999999995
 20
95.499139606
 30
0.000000000
  0
SPLINE
  5
A81
330
A02
100
AcDbEntity
  8
S09_PowerUnit_Top
100
AcDbSpline
210
0
220
0
230
1
 70
8
 71
3
 72
8
 73
4
 74
0
 40
0.509353824
 40
0.509353824
 40
0.509353824
 40
0.509353824
 40
0.557127450
 40
0.557127450
 40
0.557127450
 40
0.557127450
 10
127.999999995
 20
95.499139606
 30
0.000000000
 10
127.999999995
 20
95.500663988
 30
0.000000000
 10
127.999999995
 20
95.518255045
 30
0.000000000
 10
127.999999995
 20
95.798737494
 30
0.000000000
  0
SPLINE
  5
A82
330
A02
100
AcDbEntity
  8
S09_PowerUnit_Top
100
AcDbSpline
210
0
220
0
230
1
 70
8
 71
2
 72
6
 73
3
 74
0
 40
0.976015175
 40
0.976015175
 40
0.976015175
 40
0.987090084
 40
0.987090084
 40
0.987090084
 10
127.999999995
 20
129.500000000
 30
0.000000000
 10
127.999999995
 20
129.514582010
 30
0.000000000
 10
127.999999995
 20
129.514150643
 30
0.000000000
  0
SPLINE
  5
A83
330
A02
100
AcDbEntity
  8
S09_PowerUnit_Top
100
AcDbSpline
210
0
220
0
230
1
 70
8
 71
2
 72
6
 73
3
 74
0
 40
0.987090084
 40
0.987090084
 40
0.987090084
 40
1.000000000
 40
1.000000000
 40
1.000000000
 10
127.999999995
 20
129.514150643
 30
0.000000000
 10
127.999999995
 20
129.513467365
 30
0.000000000
 10
127.999999995
 20
129.500000000
 30
0.000000000
  0
SPLINE
  5
A84
330
A02
100
AcDbEntity
  8
S09_PowerUnit_Top
100
AcDbSpline
210
0
220
0
230
1
 70
8
 71
2
 72
6
 73
3
 74
0
 40
0.000000000
 40
0.000000000
 40
0.000000000
 40
1.000000000
 40
1.000000000
 40
1.000000000
 10
127.999999995
 20
129.500000000
 30
0.000000000
 10
181.186824067
 20
127.109087058
 30
0.000000000
 10
233.999999995
 20
123.000000000
 30
0.000000000
  0
SPLINE
  5
A85
330
A02
100
AcDbEntity
  8
S09_PowerUnit_Top
100
AcDbSpline
210
0
220
0
230
1
 70
8
 71
1
 72
4
 73
2
 74
0
 40
0.000000000
 40
0.000000000
 40
0.004069108
 40
0.004069108
 10
233.999999995
 20
123.000000000
 30
0.000000000
 10
233.999999995
 20
123.000265016
 30
0.000000000
  0
SPLINE
  5
A86
330
A02
100
AcDbEntity
  8
S09_PowerUnit_Top
100
AcDbSpline
210
0
220
0
230
1
 70
8
 71
3
 72
41
 73
37
 74
0
 40
0.004069108
 40
0.004069108
 40
0.004069108
 40
0.004069108
 40
0.066161466
 40
0.066161466
 40
0.066161466
 40
0.099731514
 40
0.099731514
 40
0.099731514
 40
0.131184064
 40
0.131184064
 40
0.131184064
 40
0.169852400
 40
0.169852400
 40
0.169852400
 40
0.196400786
 40
0.196400786
 40
0.196400786
 40
0.250000000
 40
0.250000000
 40
0.250000000
 40
0.303599214
 40
0.303599214
 40
0.303599214
 40
0.330147600
 40
0.330147600
 40
0.330147600
 40
0.368815936
 40
0.368815936
 40
0.368815936
 40
0.400268486
 40
0.400268486
 40
0.400268486
 40
0.433838534
 40
0.433838534
 40
0.433838534
 40
0.499570326
 40
0.499570326
 40
0.499570326
 40
0.499570326
 10
233.999999995
 20
123.000265016
 30
0.000000000
 10
233.999999995
 20
122.999461271
 30
0.000000000
 10
233.999999995
 20
122.974007297
 30
0.000000000
 10
233.999999995
 20
122.558191236
 30
0.000000000
 10
233.999999995
 20
122.335564274
 30
0.000000000
 10
233.999999995
 20
121.989917758
 30
0.000000000
 10
233.999999995
 20
121.521251685
 30
0.000000000
 10
233.999999995
 20
121.083352461
 30
0.000000000
 10
233.999999995
 20
120.543171877
 30
0.000000000
 10
233.999999995
 20
119.952493740
 30
0.000000000
 10
233.999999995
 20
119.225484559
 30
0.000000000
 10
233.999999995
 20
118.429003583
 30
0.000000000
 10
233.999999995
 20
117.620438159
 30
0.000000000
 10
233.999999995
 20
117.063395390
 30
0.000000000
 10
233.999999995
 20
116.501659248
 30
0.000000000
 10
233.999999995
 20
115.935229732
 30
0.000000000
 10
233.999999995
 20
114.792303627
 30
0.000000000
 10
233.999999995
 20
113.647227051
 30
0.000000000
 10
233.999999995
 20
112.500000002
 30
0.000000000
 10
233.999999995
 20
111.352772943
 30
0.000000000
 10
233.999999995
 20
110.207696367
 30
0.000000000
 10
233.999999995
 20
109.064770273
 30
0.000000000
 10
233.999999995
 20
108.498340771
 30
0.000000000
 10
233.999999995
 20
107.936604622
 30
0.000000000
 10
233.999999995
 20
107.379561827
 30
0.000000000
 10
233.999999995
 20
106.570996235
 30
0.000000000
 10
233.999999995
 20
105.774515739
 30
0.000000000
 10
233.999999995
 20
105.047506214
 30
0.000000000
 10
233.999999995
 20
104.456826655
 30
0.000000000
 10
233.999999995
 20
103.916649135
 30
0.000000000
 10
233.999999995
 20
103.478748962
 30
0.000000000
 10
233.999999995
 20
103.010076562
 30
0.000000000
 10
233.999999995
 20
102.664435027
 30
0.000000000
 10
233.999999995
 20
102.441824357
 30
0.000000000
 10
233.999999995
 20
102.000875263
 30
0.000000000
 10
233.999999995
 20
102.000214801
 30
0.000000000
 10
233.999999995
 20
101.999999939
 30
0.000000000
  0
SPLINE
  5
A87
330
A02
100
AcDbEntity
  8
S09_PowerUnit_Top
100
AcDbSpline
210
0
220
0
230
1
 70
8
 71
1
 72
4
 73
2
 74
0
 40
0.000000000
 40
0.000000000
 40
1.618109979
 40
1.618109979
 10
283.999999995
 20
118.000000000
 30
0.000000000
 10
283.999999995
 20
118.001256096
 30
0.000000000
  0
SPLINE
  5
A88
330
A02
100
AcDbEntity
  8
S09_PowerUnit_Top
100
AcDbSpline
210
0
220
0
230
1
 70
8
 71
3
 72
29
 73
25
 74
0
 40
1.618109979
 40
1.618109979
 40
1.618109979
 40
1.618109979
 40
25.201028270
 40
25.201028270
 40
25.201028270
 40
44.894682109
 40
44.894682109
 40
44.894682109
 40
60.070464986
 40
60.070464986
 40
60.070464986
 40
82.453172785
 40
82.453172785
 40
82.453172785
 40
104.835880585
 40
104.835880585
 40
104.835880585
 40
126.743634279
 40
126.743634279
 40
126.743634279
 40
146.497229135
 40
146.497229135
 40
146.497229135
 40
164.906345570
 40
164.906345570
 40
164.906345570
 40
164.906345570
 10
283.999999995
 20
118.001256096
 30
0.000000000
 10
283.999999995
 20
118.001843531
 30
0.000000000
 10
283.999999995
 20
117.908295913
 30
0.000000000
 10
283.999999995
 20
117.532798276
 30
0.000000000
 10
283.999999995
 20
117.225791562
 30
0.000000000
 10
283.999999995
 20
116.731127918
 30
0.000000000
 10
283.999999995
 20
116.154589493
 30
0.000000000
 10
283.999999995
 20
115.710650696
 30
0.000000000
 10
283.999999995
 20
115.224052484
 30
0.000000000
 10
283.999999995
 20
114.728647749
 30
0.000000000
 10
283.999999995
 20
113.995779295
 30
0.000000000
 10
283.999999995
 20
113.245807025
 30
0.000000000
 10
283.999999995
 20
112.500000000
 30
0.000000000
 10
283.999999995
 20
111.754192871
 30
0.000000000
 10
283.999999995
 20
111.004220821
 30
0.000000000
 10
283.999999995
 20
110.271352251
 30
0.000000000
 10
283.999999995
 20
109.557832793
 30
0.000000000
 10
283.999999995
 20
108.855398747
 30
0.000000000
 10
283.999999995
 20
108.287092517
 30
0.000000000
 10
283.999999995
 20
107.772952795
 30
0.000000000
 10
283.999999995
 20
107.397163329
 30
0.000000000
 10
283.999999995
 20
107.208262111
 30
0.000000000
 10
283.999999995
 20
107.025337089
 30
0.000000000
 10
283.999999995
 20
106.998188010
 30
0.000000000
 10
283.999999995
 20
107.000000000
 30
0.000000000
  0
LINE
  5
A89
330
A02
100
AcDbEntity
  8
S09_PowerUnit_Top
100
AcDbLine
 10
73.999999995
 20
93.150757595
 30
0.000000000
 11
78.970520422
 21
93.150757595
 31
0.000000000
  0
LINE
  5
A8A
330
A02
100
AcDbEntity
  8
S09_PowerUnit_Top
100
AcDbLine
 10
81.337845945
 20
93.150757595
 30
0.000000000
 11
96.970520422
 21
93.150757595
 31
0.000000000
  0
LINE
  5
A8B
330
A02
100
AcDbEntity
  8
S09_PowerUnit_Top
100
AcDbLine
 10
99.524705834
 20
93.150757595
 30
0.000000000
 11
118.148086131
 21
93.150757595
 31
0.000000000
  0
LINE
  5
A8C
330
A02
100
AcDbEntity
  8
S09_PowerUnit_Top
100
AcDbLine
 10
119.262027427
 20
93.150757595
 30
0.000000000
 11
125.999999995
 21
93.150757595
 31
0.000000000
  0
LINE
  5
A8D
330
A02
100
AcDbEntity
  8
S09_PowerUnit_Top
100
AcDbLine
 10
73.999999995
 20
131.849242405
 30
0.000000000
 11
78.970520422
 21
131.849242405
 31
0.000000000
  0
LINE
  5
A8E
330
A02
100
AcDbEntity
  8
S09_PowerUnit_Top
100
AcDbLine
 10
81.337845945
 20
131.849242405
 30
0.000000000
 11
96.970520422
 21
131.849242405
 31
0.000000000
  0
LINE
  5
A8F
330
A02
100
AcDbEntity
  8
S09_PowerUnit_Top
100
AcDbLine
 10
99.524705834
 20
131.849242405
 30
0.000000000
 11
118.148086131
 21
131.849242405
 31
0.000000000
  0
LINE
  5
A90
330
A02
100
AcDbEntity
  8
S09_PowerUnit_Top
100
AcDbLine
 10
119.262027427
 20
131.849242405
 30
0.000000000
 11
125.999999995
 21
131.849242405
 31
0.000000000
  0
LINE
  5
A91
330
A02
100
AcDbEntity
  8
S09_PowerUnit_Top
100
AcDbLine
 10
59.999999995
 20
101.500000000
 30
0.000000000
 11
70.999999995
 21
101.500000000
 31
0.000000000
  0
LINE
  5
A92
330
A02
100
AcDbEntity
  8
S09_PowerUnit_Top
100
AcDbLine
 10
59.999999995
 20
123.500000000
 30
0.000000000
 11
70.999999995
 21
123.500000000
 31
0.000000000
  0
LINE
  5
A93
330
A02
100
AcDbEntity
  8
S09_PowerUnit_Top
100
AcDbLine
 10
70.999999995
 20
107.000000000
 30
0.000000000
 11
73.999999995
 21
107.000000000
 31
0.000000000
  0
LINE
  5
A94
330
A02
100
AcDbEntity
  8
S09_PowerUnit_Top
100
AcDbLine
 10
70.999999995
 20
118.000000000
 30
0.000000000
 11
73.999999995
 21
118.000000000
 31
0.000000000
  0
LINE
  5
A95
330
A02
100
AcDbEntity
  8
S09_PowerUnit_Top
100
AcDbLine
 10
77.999999995
 20
91.993903346
 30
0.000000000
 11
77.999999995
 21
86.500000000
 31
0.000000000
  0
LINE
  5
A96
330
A02
100
AcDbEntity
  8
S09_PowerUnit_Top
100
AcDbLine
 10
89.999999995
 20
91.993903346
 30
0.000000000
 11
89.999999995
 21
86.500000000
 31
0.000000000
  0
LINE
  5
A97
330
A02
100
AcDbEntity
  8
S09_PowerUnit_Top
100
AcDbLine
 10
81.593185831
 20
91.881479157
 30
0.000000000
 11
101.247954649
 21
97.384814426
 31
0.000000000
  0
ARC
  5
A98
330
A02
100
AcDbEntity
  8
S09_PowerUnit_Top
100
AcDbCircle
 10
80.999999995
 20
94.000000000
 30
0.000000000
 40
2.200000000
100
AcDbArc
 50
105.642246457
 51
-74.357753681
  0
LINE
  5
A99
330
A02
100
AcDbEntity
  8
S09_PowerUnit_Top
100
AcDbLine
 10
99.881801430
 20
91.984453863
 30
0.000000000
 11
121.199814925
 21
101.311084767
 31
0.000000000
  0
ARC
  5
A9A
330
A02
100
AcDbEntity
  8
S09_PowerUnit_Top
100
AcDbCircle
 10
98.999999995
 20
94.000000000
 30
0.000000000
 40
2.200000000
100
AcDbArc
 50
113.629377731
 51
-66.370622500
  0
ARC
  5
A9B
330
A02
100
AcDbEntity
  8
S09_PowerUnit_Top
100
AcDbCircle
 10
116.999999995
 20
94.000000000
 30
0.000000000
 40
2.200000000
100
AcDbArc
 50
135.000000015
 51
-45.000000000
  0
LINE
  5
A9C
330
A02
100
AcDbEntity
  8
S09_PowerUnit_Top
100
AcDbLine
 10
125.999999995
 20
116.115387123
 30
0.000000000
 11
127.999999995
 21
115.555387123
 31
0.000000000
  0
ARC
  5
A9D
330
A02
100
AcDbEntity
  8
S09_PowerUnit_Top
100
AcDbCircle
 10
80.999999995
 20
131.000000000
 30
0.000000000
 40
2.200000000
100
AcDbArc
 50
74.357753543
 51
-105.642246612
  0
ARC
  5
A9E
330
A02
100
AcDbEntity
  8
S09_PowerUnit_Top
100
AcDbCircle
 10
98.999999995
 20
131.000000000
 30
0.000000000
 40
2.200000000
100
AcDbArc
 50
66.370622269
 51
-113.629377685
  0
LINE
  5
A9F
330
A02
100
AcDbEntity
  8
S09_PowerUnit_Top
100
AcDbLine
 10
125.999999995
 20
125.111269837
 30
0.000000000
 11
128.999999995
 21
122.111269837
 31
0.000000000
  0
ARC
  5
AA0
330
A02
100
AcDbEntity
  8
S09_PowerUnit_Top
100
AcDbCircle
 10
116.999999995
 20
131.000000000
 30
0.000000000
 40
2.200000000
100
AcDbArc
 50
45.000000234
 51
-135.000000000
  0
SPLINE
  5
AA1
330
A02
100
AcDbEntity
  8
S09_PowerUnit_Top
100
AcDbSpline
210
0
220
0
230
1
 70
8
 71
3
 72
8
 73
4
 74
0
 40
0.000000000
 40
0.000000000
 40
0.000000000
 40
0.000000000
 40
1.000000000
 40
1.000000000
 40
1.000000000
 40
1.000000000
 10
127.999999995
 20
95.499139606
 30
0.000000000
 10
163.401487610
 20
97.090927665
 30
0.000000000
 10
198.773232280
 20
99.258984114
 30
0.000000000
 10
233.999999995
 20
101.999999939
 30
0.000000000
  0
SPLINE
  5
AA2
330
A02
100
AcDbEntity
  8
S09_PowerUnit_Top
100
AcDbSpline
210
0
220
0
230
1
 70
8
 71
3
 72
8
 73
4
 74
0
 40
0.000000000
 40
0.000000000
 40
0.000000000
 40
0.000000000
 40
1.000000000
 40
1.000000000
 40
1.000000000
 40
1.000000000
 10
233.999999995
 20
102.000000000
 30
0.000000000
 10
198.781359404
 20
99.259604688
 30
0.000000000
 10
163.414263304
 20
97.091745628
 30
0.000000000
 10
127.999999995
 20
95.500000000
 30
0.000000000
  0
SPLINE
  5
AA3
330
A02
100
AcDbEntity
  8
S09_PowerUnit_Top
100
AcDbSpline
210
0
220
0
230
1
 70
8
 71
3
 72
8
 73
4
 74
0
 40
0.000000000
 40
0.000000000
 40
0.000000000
 40
0.000000000
 40
1.000000000
 40
1.000000000
 40
1.000000000
 40
1.000000000
 10
127.999999995
 20
95.499139606
 30
0.000000000
 10
163.428003652
 20
97.092208647
 30
0.000000000
 10
198.788526197
 20
99.260240789
 30
0.000000000
 10
233.999999995
 20
101.999999939
 30
0.000000000
  0
SPLINE
  5
AA4
330
A02
100
AcDbEntity
  8
S09_PowerUnit_Top
100
AcDbSpline
210
0
220
0
230
1
 70
8
 71
3
 72
17
 73
13
 74
0
 40
0.000000000
 40
0.000000000
 40
0.000000000
 40
0.000000000
 40
0.125000000
 40
0.125000000
 40
0.125000000
 40
0.250000000
 40
0.250000000
 40
0.250000000
 40
0.500000000
 40
0.500000000
 40
0.500000000
 40
1.000000000
 40
1.000000000
 40
1.000000000
 40
1.000000000
 10
227.802506536
 20
123.476178453
 30
0.000000000
 10
227.952587279
 20
123.464785929
 30
0.000000000
 10
227.930741363
 20
123.466444493
 30
0.000000000
 10
227.915194769
 20
123.467624848
 30
0.000000000
 10
227.893926921
 20
123.469239509
 30
0.000000000
 10
227.865081251
 20
123.471429389
 30
0.000000000
 10
227.853458928
 20
123.472311813
 30
0.000000000
 10
227.828301793
 20
123.474221840
 30
0.000000000
 10
227.848398738
 20
123.472696534
 30
0.000000000
 10
227.857908894
 20
123.471974848
 30
0.000000000
 10
227.876912907
 20
123.470532718
 30
0.000000000
 10
227.901224813
 20
123.468687473
 30
0.000000000
 10
227.908541918
 20
123.468132017
 30
0.000000000
  0
SPLINE
  5
AA5
330
A02
100
AcDbEntity
  8
S09_PowerUnit_Top
100
AcDbSpline
210
0
220
0
230
1
 70
8
 71
3
 72
26
 73
22
 74
0
 40
0.000000000
 40
0.000000000
 40
0.000000000
 40
0.000000000
 40
0.062500000
 40
0.062500000
 40
0.062500000
 40
0.125000000
 40
0.125000000
 40
0.125000000
 40
0.250000000
 40
0.250000000
 40
0.250000000
 40
0.375000000
 40
0.375000000
 40
0.375000000
 40
0.500000000
 40
0.500000000
 40
0.500000000
 40
0.750000000
 40
0.750000000
 40
0.750000000
 40
1.000000000
 40
1.000000000
 40
1.000000000
 40
1.000000000
 10
227.908541918
 20
123.468132017
 30
0.000000000
 10
227.669348963
 20
123.486290252
 30
0.000000000
 10
227.393272616
 20
123.507221458
 30
0.000000000
 10
227.124976819
 20
123.527528272
 30
0.000000000
 10
226.855021984
 20
123.547961317
 30
0.000000000
 10
226.586481145
 20
123.568254332
 30
0.000000000
 10
226.319354300
 20
123.588407317
 30
0.000000000
 10
225.784846049
 20
123.628733215
 30
0.000000000
 10
225.247627963
 20
123.669132328
 30
0.000000000
 10
224.707700042
 20
123.709604656
 30
0.000000000
 10
224.170016518
 20
123.749905547
 30
0.000000000
 10
223.633184265
 20
123.790010232
 30
0.000000000
 10
223.097203281
 20
123.829918709
 30
0.000000000
 10
222.557558216
 20
123.870106875
 30
0.000000000
 10
222.025581384
 20
123.909573910
 30
0.000000000
 10
221.483589745
 20
123.949667373
 30
0.000000000
 10
205.961446849
 20
125.097814300
 30
0.000000000
 10
190.394505393
 20
126.137111336
 30
0.000000000
 10
174.810118447
 20
127.064768262
 30
0.000000000
 10
159.223459157
 20
127.992572635
 30
0.000000000
 10
143.620086339
 20
128.809033429
 30
0.000000000
 10
127.999999995
 20
129.514150643
 30
0.000000000
  0
SPLINE
  5
AA6
330
A02
100
AcDbEntity
  8
S09_PowerUnit_Top
100
AcDbSpline
210
0
220
0
230
1
 70
8
 71
3
 72
20
 73
16
 74
0
 40
0.000000000
 40
0.000000000
 40
0.000000000
 40
0.000000000
 40
0.500000000
 40
0.500000000
 40
0.500000000
 40
0.625000000
 40
0.625000000
 40
0.625000000
 40
0.750000000
 40
0.750000000
 40
0.750000000
 40
0.875000000
 40
0.875000000
 40
0.875000000
 40
1.000000000
 40
1.000000000
 40
1.000000000
 40
1.000000000
 10
233.999999995
 20
123.000265016
 30
0.000000000
 10
232.010750042
 20
123.154938439
 30
0.000000000
 10
230.014754148
 20
123.308256642
 30
0.000000000
 10
228.035810765
 20
123.458476122
 30
0.000000000
 10
227.966459310
 20
123.463737281
 30
0.000000000
 10
227.969207988
 20
123.463530847
 30
0.000000000
 10
227.948369991
 20
123.465112583
 30
0.000000000
 10
227.930177107
 20
123.466493736
 30
0.000000000
 10
227.906448506
 20
123.468294358
 30
0.000000000
 10
227.877184190
 20
123.470514450
 30
0.000000000
 10
227.850162881
 20
123.472564191
 30
0.000000000
 10
227.823141573
 20
123.474613933
 30
0.000000000
 10
227.796120264
 20
123.476663675
 30
0.000000000
 10
227.771221459
 20
123.478552194
 30
0.000000000
 10
227.738489262
 20
123.481034357
 30
0.000000000
 10
227.726496339
 20
123.481943776
 30
0.000000000
  0
SPLINE
  5
AA7
330
A02
100
AcDbEntity
  8
S09_PowerUnit_Top
100
AcDbSpline
210
0
220
0
230
1
 70
8
 71
3
 72
14
 73
10
 74
0
 40
0.000000000
 40
0.000000000
 40
0.000000000
 40
0.000000000
 40
0.500000000
 40
0.500000000
 40
0.500000000
 40
0.750000000
 40
0.750000000
 40
0.750000000
 40
1.000000000
 40
1.000000000
 40
1.000000000
 40
1.000000000
 10
227.726496339
 20
123.481943776
 30
0.000000000
 10
227.730334085
 20
123.481652767
 30
0.000000000
 10
227.748690667
 20
123.480260657
 30
0.000000000
 10
227.761405500
 20
123.479296232
 30
0.000000000
 10
227.768039400
 20
123.478793032
 30
0.000000000
 10
227.774673300
 20
123.478289832
 30
0.000000000
 10
227.781307201
 20
123.477786632
 30
0.000000000
 10
227.787608214
 20
123.477308650
 30
0.000000000
 10
227.800703235
 20
123.476315466
 30
0.000000000
 10
227.802506536
 20
123.476178453
 30
0.000000000
  0
SPLINE
  5
AA8
330
A02
100
AcDbEntity
  8
S09_PowerUnit_Top
100
AcDbSpline
210
0
220
0
230
1
 70
8
 71
3
 72
14
 73
10
 74
0
 40
0.000000000
 40
0.000000000
 40
0.000000000
 40
0.000000000
 40
0.272833429
 40
0.272833429
 40
0.272833429
 40
0.553474569
 40
0.553474569
 40
0.553474569
 40
1.000000000
 40
1.000000000
 40
1.000000000
 40
1.000000000
 10
233.999999995
 20
121.500084705
 30
0.000000000
 10
238.533930907
 20
121.182800722
 30
0.000000000
 10
243.084273609
 20
120.864380699
 30
0.000000000
 10
247.630616768
 20
120.546241353
 30
0.000000000
 10
252.308973360
 20
120.218866752
 30
0.000000000
 10
256.987329951
 20
119.891492151
 30
0.000000000
 10
261.665686542
 20
119.564117550
 30
0.000000000
 10
269.110457693
 20
119.043163732
 30
0.000000000
 10
276.555228844
 20
118.522209914
 30
0.000000000
 10
283.999999995
 20
118.001256096
 30
0.000000000
  0
SPLINE
  5
AA9
330
A02
100
AcDbEntity
  8
S09_PowerUnit_Top
100
AcDbSpline
210
0
220
0
230
1
 70
8
 71
1
 72
6
 73
4
 74
0
 40
0.000000000
 40
0.000000000
 40
0.021418631
 40
0.042837262
 40
1.000000000
 40
1.000000000
 10
233.999999995
 20
103.499999945
 30
0.000000000
 10
235.992117800
 20
103.639448246
 30
0.000000000
 10
237.042884544
 20
103.713001918
 30
0.000000000
 10
283.999999995
 20
107.000000000
 30
0.000000000
  0
SPLINE
  5
AAA
330
A02
100
AcDbEntity
  8
S09_PowerUnit_Top
100
AcDbSpline
210
0
220
0
230
1
 70
8
 71
1
 72
4
 73
2
 74
0
 40
0.000000000
 40
0.000000000
 40
1.000000000
 40
1.000000000
 10
233.999999995
 20
103.499999945
 30
0.000000000
 10
235.987539761
 20
103.639127784
 30
0.000000000
  0
SPLINE
  5
AAB
330
A02
100
AcDbEntity
  8
S09_PowerUnit_Top
100
AcDbSpline
210
0
220
0
230
1
 70
8
 71
3
 72
17
 73
13
 74
0
 40
0.000000000
 40
0.000000000
 40
0.000000000
 40
0.000000000
 40
0.250000000
 40
0.250000000
 40
0.250000000
 40
0.375000000
 40
0.375000000
 40
0.375000000
 40
0.500000000
 40
0.500000000
 40
0.500000000
 40
1.000000000
 40
1.000000000
 40
1.000000000
 40
1.000000000
 10
235.987539761
 20
103.639127784
 30
0.000000000
 10
235.944376967
 20
103.636106388
 30
0.000000000
 10
235.901214173
 20
103.633084992
 30
0.000000000
 10
235.858051380
 20
103.630063597
 30
0.000000000
 10
235.836710867
 20
103.628569761
 30
0.000000000
 10
235.815370353
 20
103.627075925
 30
0.000000000
 10
235.794029840
 20
103.625582089
 30
0.000000000
 10
235.772466075
 20
103.624072626
 30
0.000000000
 10
235.757639867
 20
103.623034791
 30
0.000000000
 10
235.728623318
 20
103.621003633
 30
0.000000000
 10
235.152415543
 20
103.580669088
 30
0.000000000
 10
234.576207769
 20
103.540334544
 30
0.000000000
 10
233.999999995
 20
103.500000000
 30
0.000000000
  0
SPLINE
  5
AAC
330
A02
100
AcDbEntity
  8
S09_PowerUnit_Top
100
AcDbSpline
210
0
220
0
230
1
 70
8
 71
1
 72
4
 73
2
 74
0
 40
0.000000000
 40
0.000000000
 40
1.000000000
 40
1.000000000
 10
233.999999995
 20
121.500000000
 30
0.000000000
 10
283.999999995
 20
118.000000000
 30
0.000000000
  0
LINE
  5
AAD
330
A02
100
AcDbEntity
  8
S09_PowerUnit_Front
100
AcDbLine
 10
352.500000000
 20
192.000000000
 30
0.000000000
 11
352.500000000
 21
200.000000000
 31
0.000000000
  0
LINE
  5
AAE
330
A02
100
AcDbEntity
  8
S09_PowerUnit_Front
100
AcDbLine
 10
352.500000000
 20
200.000000000
 30
0.000000000
 11
322.500000000
 21
200.000000000
 31
0.000000000
  0
LINE
  5
AAF
330
A02
100
AcDbEntity
  8
S09_PowerUnit_Front
100
AcDbLine
 10
322.500000000
 20
192.000000000
 30
0.000000000
 11
322.500000000
 21
200.000000000
 31
0.000000000
  0
LINE
  5
AB0
330
A02
100
AcDbEntity
  8
S09_PowerUnit_Front
100
AcDbLine
 10
358.006096654
 20
207.192388155
 30
0.000000000
 11
346.692388155
 21
218.506096654
 31
0.000000000
  0
LINE
  5
AB1
330
A02
100
AcDbEntity
  8
S09_PowerUnit_Front
100
AcDbLine
 10
346.075487262
 20
217.889195761
 30
0.000000000
 11
346.692388155
 21
218.506096654
 31
0.000000000
  0
LINE
  5
AB2
330
A02
100
AcDbEntity
  8
S09_PowerUnit_Front
100
AcDbLine
 10
339.727998127
 20
200.227998127
 30
0.000000000
 11
339.500000000
 21
200.000000000
 31
0.000000000
  0
LINE
  5
AB3
330
A02
100
AcDbEntity
  8
S09_PowerUnit_Front
100
AcDbLine
 10
350.813708499
 20
200.000000000
 30
0.000000000
 11
358.006096654
 21
207.192388155
 31
0.000000000
  0
LINE
  5
AB4
330
A02
100
AcDbEntity
  8
S09_PowerUnit_Front
100
AcDbLine
 10
335.500000000
 20
200.000000000
 30
0.000000000
 11
335.272001873
 21
200.227998127
 31
0.000000000
  0
LINE
  5
AB5
330
A02
100
AcDbEntity
  8
S09_PowerUnit_Front
100
AcDbLine
 10
328.924512738
 20
217.889195761
 30
0.000000000
 11
328.307611845
 21
218.506096654
 31
0.000000000
  0
LINE
  5
AB6
330
A02
100
AcDbEntity
  8
S09_PowerUnit_Front
100
AcDbLine
 10
328.307611845
 20
218.506096654
 30
0.000000000
 11
316.993903346
 21
207.192388155
 31
0.000000000
  0
LINE
  5
AB7
330
A02
100
AcDbEntity
  8
S09_PowerUnit_Front
100
AcDbLine
 10
324.186291501
 20
200.000000000
 30
0.000000000
 11
316.993903346
 21
207.192388155
 31
0.000000000
  0
ARC
  5
AB8
330
A02
100
AcDbEntity
  8
S09_PowerUnit_Front
100
AcDbCircle
 10
352.349242405
 20
212.849242405
 30
0.000000000
 40
4.500000000
100
AcDbArc
 50
-149.045465404
 51
45.000000000
  0
ARC
  5
AB9
330
A02
100
AcDbEntity
  8
S09_PowerUnit_Front
100
AcDbCircle
 10
352.349242405
 20
212.849242405
 30
0.000000000
 40
4.500000000
100
AcDbArc
 50
45.000000000
 51
163.242969021
  0
ARC
  5
ABA
330
A02
100
AcDbEntity
  8
S09_PowerUnit_Front
100
AcDbCircle
 10
322.650757595
 20
212.849242405
 30
0.000000000
 40
4.500000000
100
AcDbArc
 50
16.757030979
 51
135.000000000
  0
ARC
  5
ABB
330
A02
100
AcDbEntity
  8
S09_PowerUnit_Front
100
AcDbCircle
 10
322.650757595
 20
212.849242405
 30
0.000000000
 40
4.500000000
100
AcDbArc
 50
135.000000000
 51
-30.954534596
  0
CIRCLE
  5
ABC
330
A02
100
AcDbEntity
  8
S09_PowerUnit_Front
100
AcDbCircle
 10
337.500000000
 20
211.000000000
 30
0.000000000
 40
11.000000000
  0
SPLINE
  5
ABD
330
A02
100
AcDbEntity
  8
S09_PowerUnit_Front
100
AcDbSpline
210
0
220
0
230
1
 70
8
 71
1
 72
17
 73
15
 74
0
 40
3.141592654
 40
3.141592654
 40
3.365992129
 40
3.590391604
 40
3.814791079
 40
4.039190555
 40
4.263590030
 40
4.487989505
 40
4.712388980
 40
4.936788456
 40
5.161187931
 40
5.385587406
 40
5.609986881
 40
5.834386357
 40
6.058785832
 40
6.283185307
 40
6.283185307
 10
363.500000000
 20
196.000000000
 30
0.000000000
 10
363.500000000
 20
195.849567473
 30
0.000000000
 10
363.500000000
 20
195.405813207
 30
0.000000000
 10
363.500000000
 20
194.690988895
 30
0.000000000
 10
363.500000000
 20
193.740938811
 30
0.000000000
 10
363.500000000
 20
192.603302435
 30
0.000000000
 10
363.500000000
 20
191.335125604
 30
0.000000000
 10
363.500000000
 20
190.000000000
 30
0.000000000
 10
363.500000000
 20
188.664874396
 30
0.000000000
 10
363.500000000
 20
187.396697565
 30
0.000000000
 10
363.500000000
 20
186.259061189
 30
0.000000000
 10
363.500000000
 20
185.309011105
 30
0.000000000
 10
363.500000000
 20
184.594186793
 30
0.000000000
 10
363.500000000
 20
184.150432527
 30
0.000000000
 10
363.500000000
 20
184.000000000
 30
0.000000000
  0
LINE
  5
ABE
330
A02
100
AcDbEntity
  8
S09_PowerUnit_Front
100
AcDbLine
 10
358.500000000
 20
184.000000000
 30
0.000000000
 11
363.500000000
 21
184.000000000
 31
0.000000000
  0
LINE
  5
ABF
330
A02
100
AcDbEntity
  8
S09_PowerUnit_Front
100
AcDbLine
 10
358.500000000
 20
178.000000000
 30
0.000000000
 11
358.500000000
 21
192.000000000
 31
0.000000000
  0
LINE
  5
AC0
330
A02
100
AcDbEntity
  8
S09_PowerUnit_Front
100
AcDbLine
 10
358.500000000
 20
192.000000000
 30
0.000000000
 11
316.500000000
 21
192.000000000
 31
0.000000000
  0
LINE
  5
AC1
330
A02
100
AcDbEntity
  8
S09_PowerUnit_Front
100
AcDbLine
 10
316.500000000
 20
178.000000000
 30
0.000000000
 11
316.500000000
 21
192.000000000
 31
0.000000000
  0
LINE
  5
AC2
330
A02
100
AcDbEntity
  8
S09_PowerUnit_Front
100
AcDbLine
 10
358.500000000
 20
178.000000000
 30
0.000000000
 11
316.500000000
 21
178.000000000
 31
0.000000000
  0
ELLIPSE
  5
AC3
330
A02
100
AcDbEntity
  8
S09_PowerUnit_Front
100
AcDbEllipse
 10
356.000000000
 20
213.500000000
 30
0.000000000
 11
-0.386739405
 21
2.165740666
 31
0.000000000
 40
0.961849761
 41
-0.183564224
 42
-0.106456748
  0
ELLIPSE
  5
AC4
330
A02
100
AcDbEntity
  8
S09_PowerUnit_Front
100
AcDbEllipse
 10
319.000000000
 20
213.500000000
 30
0.000000000
 11
-0.386739405
 21
-2.165740666
 31
0.000000000
 40
0.961849761
 41
-3.035135906
 42
-2.958028430
  0
SPLINE
  5
AC5
330
A02
100
AcDbEntity
  8
S09_PowerUnit_Front
100
AcDbSpline
210
0
220
0
230
1
 70
8
 71
3
 72
8
 73
4
 74
0
 40
0.000000000
 40
0.000000000
 40
0.000000000
 40
0.000000000
 40
0.051467756
 40
0.051467756
 40
0.051467756
 40
0.051467756
 10
320.500000000
 20
198.000000000
 30
0.000000000
 10
320.533973086
 20
199.784563962
 30
0.000000000
 10
320.469856869
 20
201.664861209
 30
0.000000000
 10
320.707744314
 20
203.478547187
 30
0.000000000
  0
SPLINE
  5
AC6
330
A02
100
AcDbEntity
  8
S09_PowerUnit_Front
100
AcDbSpline
210
0
220
0
230
1
 70
8
 71
3
 72
11
 73
7
 74
0
 40
0.448528578
 40
0.448528578
 40
0.448528578
 40
0.448528578
 40
0.500000000
 40
0.500000000
 40
0.500000000
 40
0.518757020
 40
0.518757020
 40
0.518757020
 40
0.518757020
 10
354.290897354
 20
203.477188855
 30
0.000000000
 10
354.526734865
 20
201.660565077
 30
0.000000000
 10
354.499667583
 20
199.829619112
 30
0.000000000
 10
354.500000000
 20
198.000000006
 30
0.000000000
 10
354.502312596
 20
197.333040106
 30
0.000000000
 10
354.501147168
 20
196.666373437
 30
0.000000000
 10
354.496503714
 20
196.000000000
 30
0.000000000
  0
SPLINE
  5
AC7
330
A02
100
AcDbEntity
  8
S09_PowerUnit_Front
100
AcDbSpline
210
0
220
0
230
1
 70
8
 71
3
 72
11
 73
7
 74
0
 40
0.943586434
 40
0.943586434
 40
0.943586434
 40
0.943586434
 40
0.961492866
 40
0.961492866
 40
0.961492866
 40
1.000000000
 40
1.000000000
 40
1.000000000
 40
1.000000000
 10
320.787267157
 20
192.000000000
 30
0.000000000
 10
320.684377963
 20
192.627140008
 30
0.000000000
 10
320.619951026
 20
193.262534125
 30
0.000000000
 10
320.573529041
 20
193.901695515
 30
0.000000000
 10
320.474912196
 20
195.275967522
 30
0.000000000
 10
320.474578790
 20
196.664916702
 30
0.000000000
 10
320.500000000
 20
198.000000000
 30
0.000000000
  0
LINE
  5
AC8
330
A02
100
AcDbEntity
  8
S09_PowerUnit_Front
100
AcDbLine
 10
352.500000000
 20
196.000000000
 30
0.000000000
 11
363.500000000
 21
196.000000000
 31
0.000000000
  0
ARC
  5
AC9
330
A02
100
AcDbEntity
  8
S09_PowerUnit_Front
100
AcDbCircle
 10
356.000000000
 20
213.500000000
 30
0.000000000
 40
2.200000000
100
AcDbArc
 50
-74.059157162
 51
90.000000000
  0
ARC
  5
ACA
330
A02
100
AcDbEntity
  8
S09_PowerUnit_Front
100
AcDbCircle
 10
356.000000000
 20
213.500000000
 30
0.000000000
 40
2.200000000
100
AcDbArc
 50
90.000000000
 51
94.273109567
  0
ARC
  5
ACB
330
A02
100
AcDbEntity
  8
S09_PowerUnit_Front
100
AcDbCircle
 10
319.000000000
 20
213.500000000
 30
0.000000000
 40
2.200000000
100
AcDbArc
 50
85.726890433
 51
90.000000000
  0
ARC
  5
ACC
330
A02
100
AcDbEntity
  8
S09_PowerUnit_Front
100
AcDbCircle
 10
319.000000000
 20
213.500000000
 30
0.000000000
 40
2.200000000
100
AcDbArc
 50
90.000000000
 51
-105.940842838
  0
LINE
  5
ACD
330
A02
100
AcDbEntity
  8
S09_PowerUnit_SecL
100
AcDbLine
 10
355.000000000
 20
89.250000000
 30
0.000000000
 11
355.000000000
 21
109.250000000
 31
0.000000000
  0
LINE
  5
ACE
330
A02
100
AcDbEntity
  8
S09_PowerUnit_SecL
100
AcDbLine
 10
325.000000000
 20
89.250000000
 30
0.000000000
 11
355.000000000
 21
89.250000000
 31
0.000000000
  0
LINE
  5
ACF
330
A02
100
AcDbEntity
  8
S09_PowerUnit_SecL
100
AcDbLine
 10
325.000000000
 20
109.250000000
 30
0.000000000
 11
355.000000000
 21
109.250000000
 31
0.000000000
  0
LINE
  5
AD0
330
A02
100
AcDbEntity
  8
S09_PowerUnit_SecL
100
AcDbLine
 10
325.000000000
 20
89.250000000
 30
0.000000000
 11
325.000000000
 21
109.250000000
 31
0.000000000
  0
LINE
  5
AD1
330
A02
100
AcDbEntity
  8
S09_PowerUnit_SecL
100
AcDbLine
 10
349.192388155
 20
127.756096654
 30
0.000000000
 11
360.506096654
 21
116.442388155
 31
0.000000000
  0
LINE
  5
AD2
330
A02
100
AcDbEntity
  8
S09_PowerUnit_SecL
100
AcDbLine
 10
340.000000000
 20
118.563708499
 30
0.000000000
 11
349.192388155
 21
127.756096654
 31
0.000000000
  0
LINE
  5
AD3
330
A02
100
AcDbEntity
  8
S09_PowerUnit_SecL
100
AcDbLine
 10
345.656854249
 20
101.593145751
 30
0.000000000
 11
360.506096654
 21
116.442388155
 31
0.000000000
  0
LINE
  5
AD4
330
A02
100
AcDbEntity
  8
S09_PowerUnit_SecL
100
AcDbLine
 10
340.000000000
 20
107.250000000
 30
0.000000000
 11
345.656854249
 21
101.593145751
 31
0.000000000
  0
LINE
  5
AD5
330
A02
100
AcDbEntity
  8
S09_PowerUnit_SecL
100
AcDbLine
 10
334.343145751
 20
101.593145751
 30
0.000000000
 11
340.000000000
 21
107.250000000
 31
0.000000000
  0
LINE
  5
AD6
330
A02
100
AcDbEntity
  8
S09_PowerUnit_SecL
100
AcDbLine
 10
334.343145751
 20
101.593145751
 30
0.000000000
 11
319.493903346
 21
116.442388155
 31
0.000000000
  0
LINE
  5
AD7
330
A02
100
AcDbEntity
  8
S09_PowerUnit_SecL
100
AcDbLine
 10
319.493903346
 20
116.442388155
 30
0.000000000
 11
330.807611845
 21
127.756096654
 31
0.000000000
  0
LINE
  5
AD8
330
A02
100
AcDbEntity
  8
S09_PowerUnit_SecL
100
AcDbLine
 10
340.000000000
 20
118.563708499
 30
0.000000000
 11
330.807611845
 21
127.756096654
 31
0.000000000
  0
LINE
  5
AD9
330
A02
100
AcDbEntity
  8
S09_PowerUnit_SecL
100
AcDbLine
 10
349.192388155
 20
127.756096654
 30
0.000000000
 11
360.506096654
 21
116.442388155
 31
0.000000000
  0
LINE
  5
ADA
330
A02
100
AcDbEntity
  8
S09_PowerUnit_SecL
100
AcDbLine
 10
340.000000000
 20
118.563708499
 30
0.000000000
 11
349.192388155
 21
127.756096654
 31
0.000000000
  0
LINE
  5
ADB
330
A02
100
AcDbEntity
  8
S09_PowerUnit_SecL
100
AcDbLine
 10
345.656854249
 20
101.593145751
 30
0.000000000
 11
360.506096654
 21
116.442388155
 31
0.000000000
  0
LINE
  5
ADC
330
A02
100
AcDbEntity
  8
S09_PowerUnit_SecL
100
AcDbLine
 10
340.000000000
 20
107.250000000
 30
0.000000000
 11
345.656854249
 21
101.593145751
 31
0.000000000
  0
LINE
  5
ADD
330
A02
100
AcDbEntity
  8
S09_PowerUnit_SecL
100
AcDbLine
 10
334.343145751
 20
101.593145751
 30
0.000000000
 11
340.000000000
 21
107.250000000
 31
0.000000000
  0
LINE
  5
ADE
330
A02
100
AcDbEntity
  8
S09_PowerUnit_SecL
100
AcDbLine
 10
334.343145751
 20
101.593145751
 30
0.000000000
 11
319.493903346
 21
116.442388155
 31
0.000000000
  0
LINE
  5
ADF
330
A02
100
AcDbEntity
  8
S09_PowerUnit_SecL
100
AcDbLine
 10
319.493903346
 20
116.442388155
 30
0.000000000
 11
330.807611845
 21
127.756096654
 31
0.000000000
  0
LINE
  5
AE0
330
A02
100
AcDbEntity
  8
S09_PowerUnit_SecL
100
AcDbLine
 10
340.000000000
 20
118.563708499
 30
0.000000000
 11
330.807611845
 21
127.756096654
 31
0.000000000
  0
CIRCLE
  5
AE1
330
A02
100
AcDbEntity
  8
S09_PowerUnit_SecL
100
AcDbCircle
 10
354.849242405
 20
122.099242405
 30
0.000000000
 40
4.500000000
  0
CIRCLE
  5
AE2
330
A02
100
AcDbEntity
  8
S09_PowerUnit_SecL
100
AcDbCircle
 10
325.150757595
 20
122.099242405
 30
0.000000000
 40
4.500000000
  0
CIRCLE
  5
AE3
330
A02
100
AcDbEntity
  8
S09_PowerUnit_SecL
100
AcDbCircle
 10
354.849242405
 20
122.099242405
 30
0.000000000
 40
4.500000000
  0
CIRCLE
  5
AE4
330
A02
100
AcDbEntity
  8
S09_PowerUnit_SecL
100
AcDbCircle
 10
325.150757595
 20
122.099242405
 30
0.000000000
 40
4.500000000
  0
ARC
  5
AE5
330
A02
100
AcDbEntity
  8
S09_PowerUnit_SecL
100
AcDbCircle
 10
340.000000000
 20
120.250000000
 30
0.000000000
 40
10.500000000
100
AcDbArc
 50
38.479380185
 51
90.000000000
  0
ARC
  5
AE6
330
A02
100
AcDbEntity
  8
S09_PowerUnit_SecL
100
AcDbCircle
 10
340.000000000
 20
120.250000000
 30
0.000000000
 40
10.500000000
100
AcDbArc
 50
90.000000000
 51
141.520619815
  0
CIRCLE
  5
AE7
330
A02
100
AcDbEntity
  8
S09_PowerUnit_SecL
100
AcDbCircle
 10
340.000000000
 20
120.250000000
 30
0.000000000
 40
5.500000000
  0
ELLIPSE
  5
AE8
330
A02
100
AcDbEntity
  8
S09_PowerUnit_SecL
100
AcDbEllipse
 10
353.460000000
 20
121.850000000
 30
0.000000000
 11
-2.251641320
 21
-0.402078807
 31
0.000000000
 40
0.961849761
 41
6.113086166
 42
1.570796327
  0
ELLIPSE
  5
AE9
330
A02
100
AcDbEntity
  8
S09_PowerUnit_SecL
100
AcDbEllipse
 10
353.460000000
 20
121.850000000
 30
0.000000000
 11
-2.251641320
 21
-0.402078807
 31
0.000000000
 40
0.961849761
 41
1.570796327
 42
4.712388980
  0
ELLIPSE
  5
AEA
330
A02
100
AcDbEntity
  8
S09_PowerUnit_SecL
100
AcDbEllipse
 10
353.460000000
 20
121.850000000
 30
0.000000000
 11
-2.251641320
 21
-0.402078807
 31
0.000000000
 40
0.961849761
 41
4.712388980
 42
6.113086166
  0
ELLIPSE
  5
AEB
330
A02
100
AcDbEntity
  8
S09_PowerUnit_SecL
100
AcDbEllipse
 10
358.500000000
 20
122.750000000
 30
0.000000000
 11
-2.369987106
 21
-0.423211983
 31
0.000000000
 40
0.913819599
 41
4.712388980
 42
6.121428951
  0
ELLIPSE
  5
AEC
330
A02
100
AcDbEntity
  8
S09_PowerUnit_SecL
100
AcDbEllipse
 10
358.500000000
 20
122.750000000
 30
0.000000000
 11
-2.369987106
 21
-0.423211983
 31
0.000000000
 40
0.913819599
 41
6.121428951
 42
1.570796327
  0
ARC
  5
AED
330
A02
100
AcDbEntity
  8
S09_PowerUnit_SecL
100
AcDbCircle
 10
358.500000000
 20
122.750000000
 30
0.000000000
 40
2.200000000
100
AcDbArc
 50
90.000000000
 51
100.124671655
  0
ARC
  5
AEE
330
A02
100
AcDbEntity
  8
S09_PowerUnit_SecL
100
AcDbCircle
 10
358.500000000
 20
122.750000000
 30
0.000000000
 40
2.200000000
100
AcDbArc
 50
-79.875328345
 51
90.000000000
  0
ELLIPSE
  5
AEF
330
A02
100
AcDbEntity
  8
S09_PowerUnit_SecL
100
AcDbEllipse
 10
326.540000000
 20
121.850000000
 30
0.000000000
 11
2.251641320
 21
-0.402078807
 31
0.000000000
 40
0.961849761
 41
3.311691794
 42
4.712388980
  0
ELLIPSE
  5
AF0
330
A02
100
AcDbEntity
  8
S09_PowerUnit_SecL
100
AcDbEllipse
 10
326.540000000
 20
121.850000000
 30
0.000000000
 11
2.251641320
 21
-0.402078807
 31
0.000000000
 40
0.961849761
 41
4.712388980
 42
1.570796327
  0
ELLIPSE
  5
AF1
330
A02
100
AcDbEntity
  8
S09_PowerUnit_SecL
100
AcDbEllipse
 10
326.540000000
 20
121.850000000
 30
0.000000000
 11
2.251641320
 21
-0.402078807
 31
0.000000000
 40
0.961849761
 41
1.570796327
 42
3.311691794
  0
ELLIPSE
  5
AF2
330
A02
100
AcDbEntity
  8
S09_PowerUnit_SecL
100
AcDbEllipse
 10
321.500000000
 20
122.750000000
 30
0.000000000
 11
2.369987106
 21
-0.423211983
 31
0.000000000
 40
0.913819599
 41
4.712388980
 42
1.570796327
  0
ARC
  5
AF3
330
A02
100
AcDbEntity
  8
S09_PowerUnit_SecL
100
AcDbCircle
 10
321.500000000
 20
122.750000000
 30
0.000000000
 40
2.200000000
100
AcDbArc
 50
90.000000000
 51
-100.124671655
  0
ARC
  5
AF4
330
A02
100
AcDbEntity
  8
S09_PowerUnit_SecL
100
AcDbCircle
 10
321.500000000
 20
122.750000000
 30
0.000000000
 40
2.200000000
100
AcDbArc
 50
79.875328345
 51
90.000000000
  0
ELLIPSE
  5
AF5
330
A02
100
AcDbEntity
  8
S09_PowerUnit_SecL
100
AcDbEllipse
 10
353.460000000
 20
121.850000000
 30
0.000000000
 11
-2.251641320
 21
-0.402078807
 31
0.000000000
 40
0.961849761
 41
6.113086166
 42
1.570796327
  0
ELLIPSE
  5
AF6
330
A02
100
AcDbEntity
  8
S09_PowerUnit_SecL
100
AcDbEllipse
 10
353.460000000
 20
121.850000000
 30
0.000000000
 11
-2.251641320
 21
-0.402078807
 31
0.000000000
 40
0.961849761
 41
1.570796327
 42
4.712388980
  0
ELLIPSE
  5
AF7
330
A02
100
AcDbEntity
  8
S09_PowerUnit_SecL
100
AcDbEllipse
 10
353.460000000
 20
121.850000000
 30
0.000000000
 11
-2.251641320
 21
-0.402078807
 31
0.000000000
 40
0.961849761
 41
4.712388980
 42
6.113086166
  0
ELLIPSE
  5
AF8
330
A02
100
AcDbEntity
  8
S09_PowerUnit_SecL
100
AcDbEllipse
 10
358.500000000
 20
122.750000000
 30
0.000000000
 11
-2.369987106
 21
-0.423211983
 31
0.000000000
 40
0.913819599
 41
4.712388980
 42
6.121428951
  0
ELLIPSE
  5
AF9
330
A02
100
AcDbEntity
  8
S09_PowerUnit_SecL
100
AcDbEllipse
 10
358.500000000
 20
122.750000000
 30
0.000000000
 11
-2.369987106
 21
-0.423211983
 31
0.000000000
 40
0.913819599
 41
6.121428951
 42
1.570796327
  0
ARC
  5
AFA
330
A02
100
AcDbEntity
  8
S09_PowerUnit_SecL
100
AcDbCircle
 10
358.500000000
 20
122.750000000
 30
0.000000000
 40
2.200000000
100
AcDbArc
 50
90.000000000
 51
100.124671655
  0
ARC
  5
AFB
330
A02
100
AcDbEntity
  8
S09_PowerUnit_SecL
100
AcDbCircle
 10
358.500000000
 20
122.750000000
 30
0.000000000
 40
2.200000000
100
AcDbArc
 50
-79.875328345
 51
90.000000000
  0
ELLIPSE
  5
AFC
330
A02
100
AcDbEntity
  8
S09_PowerUnit_SecL
100
AcDbEllipse
 10
326.540000000
 20
121.850000000
 30
0.000000000
 11
2.251641320
 21
-0.402078807
 31
0.000000000
 40
0.961849761
 41
3.311691794
 42
4.712388980
  0
ELLIPSE
  5
AFD
330
A02
100
AcDbEntity
  8
S09_PowerUnit_SecL
100
AcDbEllipse
 10
326.540000000
 20
121.850000000
 30
0.000000000
 11
2.251641320
 21
-0.402078807
 31
0.000000000
 40
0.961849761
 41
4.712388980
 42
1.570796327
  0
ELLIPSE
  5
AFE
330
A02
100
AcDbEntity
  8
S09_PowerUnit_SecL
100
AcDbEllipse
 10
326.540000000
 20
121.850000000
 30
0.000000000
 11
2.251641320
 21
-0.402078807
 31
0.000000000
 40
0.961849761
 41
1.570796327
 42
3.311691794
  0
ELLIPSE
  5
AFF
330
A02
100
AcDbEntity
  8
S09_PowerUnit_SecL
100
AcDbEllipse
 10
321.500000000
 20
122.750000000
 30
0.000000000
 11
2.369987106
 21
-0.423211983
 31
0.000000000
 40
0.913819599
 41
4.712388980
 42
1.570796327
  0
ARC
  5
B00
330
A02
100
AcDbEntity
  8
S09_PowerUnit_SecL
100
AcDbCircle
 10
321.500000000
 20
122.750000000
 30
0.000000000
 40
2.200000000
100
AcDbArc
 50
90.000000000
 51
-100.124671655
  0
ARC
  5
B01
330
A02
100
AcDbEntity
  8
S09_PowerUnit_SecL
100
AcDbCircle
 10
321.500000000
 20
122.750000000
 30
0.000000000
 40
2.200000000
100
AcDbArc
 50
79.875328345
 51
90.000000000
  0
SPLINE
  5
B02
330
A02
100
AcDbEntity
  8
S09_PowerUnit_SecL
100
AcDbSpline
210
0
220
0
230
1
 70
8
 71
3
 72
8
 73
4
 74
0
 40
0.000000000
 40
0.000000000
 40
0.000000000
 40
0.000000000
 40
0.051467756
 40
0.051467756
 40
0.051467756
 40
0.051467756
 10
323.000000000
 20
107.250000000
 30
0.000000000
 10
323.033973086
 20
109.034563962
 30
0.000000000
 10
322.969856869
 20
110.914861209
 30
0.000000000
 10
323.207744314
 20
112.728547187
 30
0.000000000
  0
SPLINE
  5
B03
330
A02
100
AcDbEntity
  8
S09_PowerUnit_SecL
100
AcDbSpline
210
0
220
0
230
1
 70
8
 71
3
 72
17
 73
13
 74
0
 40
0.448528578
 40
0.448528578
 40
0.448528578
 40
0.448528578
 40
0.500000000
 40
0.500000000
 40
0.500000000
 40
0.538507134
 40
0.538507134
 40
0.538507134
 40
0.566161466
 40
0.566161466
 40
0.566161466
 40
0.599845197
 40
0.599845197
 40
0.599845197
 40
0.599845197
 10
356.790897354
 20
112.727188855
 30
0.000000000
 10
357.026734865
 20
110.910565077
 30
0.000000000
 10
356.999667583
 20
109.079619112
 30
0.000000000
 10
357.000000000
 20
107.250000006
 30
0.000000000
 10
357.000000000
 20
105.880968542
 30
0.000000000
 10
357.014581466
 20
104.511937079
 30
0.000000000
 10
356.923688594
 20
103.147979871
 30
0.000000000
 10
356.857744243
 20
102.169097196
 30
0.000000000
 10
356.742359987
 20
101.187947018
 30
0.000000000
 10
356.505516265
 20
100.233546334
 30
0.000000000
 10
356.220186769
 20
99.072363984
 30
0.000000000
 10
355.738492677
 20
97.946479430
 30
0.000000000
 10
355.000000000
 20
96.998656407
 30
0.000000000
  0
SPLINE
  5
B04
330
A02
100
AcDbEntity
  8
S09_PowerUnit_SecL
100
AcDbSpline
210
0
220
0
230
1
 70
8
 71
3
 72
14
 73
10
 74
0
 40
0.900154793
 40
0.900154793
 40
0.900154793
 40
0.900154793
 40
0.933838534
 40
0.933838534
 40
0.933838534
 40
0.955851258
 40
0.955851258
 40
0.955851258
 40
1.000000000
 40
1.000000000
 40
1.000000000
 40
1.000000000
 10
325.000000000
 20
96.998656437
 30
0.000000000
 10
324.261935487
 20
97.945907370
 30
0.000000000
 10
323.779173226
 20
99.073218431
 30
0.000000000
 10
323.494483735
 20
100.233546334
 30
0.000000000
 10
323.306475567
 20
100.992293309
 30
0.000000000
 10
323.197157904
 20
101.766522754
 30
0.000000000
 10
323.123430486
 20
102.548830149
 30
0.000000000
 10
322.975562703
 20
104.117826636
 30
0.000000000
 10
322.970854376
 20
105.719316154
 30
0.000000000
 10
323.000000000
 20
107.250000000
 30
0.000000000
  0
DIMENSION
  5
B05
330
A02
100
AcDbEntity
  8
DimExtent047
100
AcDbDimension
  2
*DimExtent047
 10
149.361339188
 20
224.028509563
 30
0.000000000
 11
149.972395818
 21
228.991030072
 31
0.000000000
 70
32
  1
2680
  3
STANDARD
100
AcDbAlignedDimension
 13
15.999999995
 23
178.000000000
 33
0.000000000
 14
283.999999995
 24
211.000000000
 34
0.000000000
100
AcDbRotatedDimension
  0
DIMENSION
  5
B0F
330
A02
100
AcDbEntity
  8
DimExtent048
100
AcDbDimension
  2
*DimExtent048
 10
12.095871056
 20
203.895374119
 30
0.000000000
 11
8.972395818
 21
199.991030072
 31
0.000000000
 70
32
  1
440
  3
STANDARD
100
AcDbAlignedDimension
 13
70.999999995
 23
222.000000000
 33
0.000000000
 14
15.999999995
 24
178.000000000
 34
0.000000000
 50
90
100
AcDbRotatedDimension
  0
DIMENSION
  5
B19
330
A02
100
AcDbEntity
  8
DimExtent049
100
AcDbDimension
  2
*DimExtent049
 10
11.653081695
 20
105.763968856
 30
0.000000000
 11
8.972395818
 21
109.984623216
 31
0.000000000
 70
32
  1
470
  3
STANDARD
100
AcDbAlignedDimension
 13
15.999999995
 23
133.500000000
 33
0.000000000
 14
89.999999995
 24
86.500000000
 34
0.000000000
 50
90
100
AcDbRotatedDimension
  0
DIMENSION
  5
B23
330
A02
100
AcDbEntity
  8
DimExtent050
100
AcDbDimension
  2
*DimExtent050
 10
339.591377632
 20
224.009040036
 30
0.000000000
 11
340.015376784
 21
228.991030072
 31
0.000000000
 70
32
  1
470
  3
STANDARD
100
AcDbAlignedDimension
 13
316.500000000
 23
192.000000000
 33
0.000000000
 14
363.500000000
 24
196.000000000
 34
0.000000000
100
AcDbRotatedDimension
  0
DIMENSION
  5
B2D
330
A02
100
AcDbEntity
  8
DimExtent051
100
AcDbDimension
  2
*DimExtent051
 10
340.015376784
 20
133.991030072
 30
0.000000000
 11
340.015376784
 21
138.991030072
 31
0.000000000
 70
32
  1
414
  3
STANDARD
100
AcDbAlignedDimension
 13
319.300000000
 23
122.750000000
 33
0.000000000
 14
360.700000000
 24
122.750000000
 34
0.000000000
100
AcDbRotatedDimension
  0
TEXT
  5
B37
330
A02
100
AcDbEntity
  8
S09_PowerUnit_Tab
100
AcDbText
 10
100.000000000
 20
50.000000000
 30
0.000000000
 40
3.200000000
  1
V6 90° バンク  クランクケース 560 × 300 × 200
  7
STANDARD
 72
1
 11
100.000000000
 21
50.000000000
 31
0.000000000
100
AcDbText
  0
ENDSEC
  0
SECTION
  2
OBJECTS
  0
DICTIONARY
  5
F000
330
0
100
AcDbDictionary
  3
ACAD_GROUP
350
F001
  0
DICTIONARY
  5
F001
330
F000
100
AcDbDictionary
  0
ENDSEC
  0
EOF